<svg width="3914" height="1989" xmlns="http://www.w3.org/2000/svg" xmlns:xlink="http://www.w3.org/1999/xlink" xml:space="preserve" overflow="hidden"><g transform="translate(-201 -215)"><g><path d="M1138.5 261.179C1138.5 239.265 1156.26 221.5 1178.18 221.5L3220.82 221.5C3242.74 221.5 3260.5 239.265 3260.5 261.179L3260.5 386.821C3260.5 408.735 3242.74 426.5 3220.82 426.5L1178.18 426.5C1156.26 426.5 1138.5 408.735 1138.5 386.821Z" stroke="#2D6A9F" stroke-width="9.16667" stroke-linecap="butt" stroke-linejoin="round" stroke-miterlimit="10" stroke-opacity="1" fill="#FFFFFF" fill-rule="evenodd" fill-opacity="1"/><text fill="#123B63" fill-opacity="1" font-family="Aptos,Aptos_MSFontService,sans-serif" font-style="normal" font-variant="normal" font-weight="700" font-stretch="normal" font-size="115" text-anchor="start" direction="ltr" writing-mode="lr-tb" unicode-bidi="normal" text-decoration="none" transform="matrix(1 0 0 1 1541.41 357)">General CCD formulation</text><text fill="#123B63" fill-opacity="1" font-family="Aptos,Aptos_MSFontService,sans-serif" font-style="normal" font-variant="normal" font-weight="400" font-stretch="normal" font-size="78" text-anchor="start" direction="ltr" writing-mode="lr-tb" unicode-bidi="normal" text-decoration="none" transform="matrix(1 0 0 1 478.374 507)">A mathematical formulation turns an engineering design question into a solvable optimization problem.</text><path d="M645.921 944.088 2178.18 1133.28 2177.33 1140.1 645.079 950.911ZM2174.89 1122.48 2200.5 1139.5 2171.52 1149.78Z" fill="#56616F" fill-rule="nonzero" fill-opacity="1"/><path d="M1567.45 954.196 2179.42 1129.87 2177.52 1136.48 1565.55 960.804ZM2177.86 1118.7 2200.5 1139.5 2170.27 1145.13Z" fill="#56616F" fill-rule="nonzero" fill-opacity="1"/><path d="M1.5788-3.05349 333.222 168.421 330.065 174.528-1.5788 3.05349ZM333.887 157.156 352 182 321.257 181.584Z" fill="#56616F" fill-rule="nonzero" fill-opacity="1" transform="matrix(-1 0 0 1 2526.5 957.5)"/><path d="M0.521472-3.39772 1228.87 185.126 1227.83 191.922-0.521472 3.39772ZM1225.9 174.238 1251 192 1221.73 201.419Z" fill="#56616F" fill-rule="nonzero" fill-opacity="1" transform="matrix(-1 0 0 1 3425.5 947.5)"/><path d="M2202.94 1409.5 2202.94 1634.58 2196.06 1634.58 2196.06 1409.5ZM2213.25 1630 2199.5 1657.5 2185.75 1630Z" fill="#56616F" fill-rule="nonzero" fill-opacity="1"/><path d="M0.607587-3.38338 1359.05 240.567 1357.84 247.334-0.607587 3.38338ZM1356.36 229.606 1381 248 1351.5 256.673Z" fill="#56616F" fill-rule="nonzero" fill-opacity="1" transform="matrix(-1 0 0 1 2199.5 1412.5)"/><path d="M2201.12 1406.12 3532.58 1649.99 3531.34 1656.75 2199.88 1412.88ZM3529.93 1639.02 3554.5 1657.5 3524.97 1666.07Z" fill="#56616F" fill-rule="nonzero" fill-opacity="1"/><path d="M208.5 654.223C208.5 625.105 232.105 601.5 261.223 601.5L1029.78 601.5C1058.9 601.5 1082.5 625.105 1082.5 654.223L1082.5 894.777C1082.5 923.895 1058.9 947.5 1029.78 947.5L261.223 947.5C232.105 947.5 208.5 923.895 208.5 894.777Z" stroke="#123B63" stroke-width="9.16667" stroke-linecap="butt" stroke-linejoin="round" stroke-miterlimit="10" stroke-opacity="1" fill="#EAF2F8" fill-rule="evenodd" fill-opacity="1"/><text fill="#1F2A35" fill-opacity="1" font-family="Aptos,Aptos_MSFontService,sans-serif" font-style="normal" font-variant="normal" font-weight="700" font-stretch="normal" font-size="92" text-anchor="start" direction="ltr" writing-mode="lr-tb" unicode-bidi="normal" text-decoration="none" transform="matrix(1 0 0 1 387.624 694)">Plant design</text><text fill="#1F2A35" fill-opacity="1" font-family="Aptos,Aptos_MSFontService,sans-serif" font-style="normal" font-variant="normal" font-weight="700" font-stretch="normal" font-size="92" text-anchor="start" direction="ltr" writing-mode="lr-tb" unicode-bidi="normal" text-decoration="none" transform="matrix(1 0 0 1 453.716 804)">variables</text><text fill="#1F2A35" fill-opacity="1" font-family="Aptos,Aptos_MSFontService,sans-serif" font-style="normal" font-variant="normal" font-weight="400" font-stretch="normal" font-size="92" text-anchor="start" direction="ltr" writing-mode="lr-tb" unicode-bidi="normal" text-decoration="none" transform="matrix(1 0 0 1 609.045 915)">x</text><text fill="#1F2A35" fill-opacity="1" font-family="Segoe UI Symbol,Segoe UI Symbol_MSFontService,sans-serif" font-style="normal" font-variant="normal" font-weight="400" font-stretch="normal" font-size="92" text-anchor="start" direction="ltr" writing-mode="lr-tb" unicode-bidi="normal" text-decoration="none" transform="matrix(1 0 0 1 649.722 915)">ₚ</text><path d="M1129.5 654.223C1129.5 625.105 1153.1 601.5 1182.22 601.5L1950.78 601.5C1979.9 601.5 2003.5 625.105 2003.5 654.223L2003.5 894.777C2003.5 923.895 1979.9 947.5 1950.78 947.5L1182.22 947.5C1153.1 947.5 1129.5 923.895 1129.5 894.777Z" stroke="#D97706" stroke-width="9.16667" stroke-linecap="butt" stroke-linejoin="round" stroke-miterlimit="10" stroke-opacity="1" fill="#F7EFE1" fill-rule="evenodd" fill-opacity="1"/><text fill="#1F2A35" fill-opacity="1" font-family="Aptos,Aptos_MSFontService,sans-serif" font-style="normal" font-variant="normal" font-weight="700" font-stretch="normal" font-size="92" text-anchor="start" direction="ltr" writing-mode="lr-tb" unicode-bidi="normal" text-decoration="none" transform="matrix(1 0 0 1 1259.86 694)">Control design</text><text fill="#1F2A35" fill-opacity="1" font-family="Aptos,Aptos_MSFontService,sans-serif" font-style="normal" font-variant="normal" font-weight="700" font-stretch="normal" font-size="92" text-anchor="start" direction="ltr" writing-mode="lr-tb" unicode-bidi="normal" text-decoration="none" transform="matrix(1 0 0 1 1374.42 804)">variables</text><text fill="#1F2A35" fill-opacity="1" font-family="Aptos,Aptos_MSFontService,sans-serif" font-style="normal" font-variant="normal" font-weight="400" font-stretch="normal" font-size="92" text-anchor="start" direction="ltr" writing-mode="lr-tb" unicode-bidi="normal" text-decoration="none" transform="matrix(1 0 0 1 1500.25 914)">x_c</text><path d="M2049.5 654.223C2049.5 625.105 2073.1 601.5 2102.22 601.5L2871.78 601.5C2900.9 601.5 2924.5 625.105 2924.5 654.223L2924.5 894.777C2924.5 923.895 2900.9 947.5 2871.78 947.5L2102.22 947.5C2073.1 947.5 2049.5 923.895 2049.5 894.777Z" stroke="#2F7D55" stroke-width="9.16667" stroke-linecap="butt" stroke-linejoin="round" stroke-miterlimit="10" stroke-opacity="1" fill="#E8F3EC" fill-rule="evenodd" fill-opacity="1"/><text fill="#1F2A35" fill-opacity="1" font-family="Aptos,Aptos_MSFontService,sans-serif" font-style="normal" font-variant="normal" font-weight="700" font-stretch="normal" font-size="92" text-anchor="start" direction="ltr" writing-mode="lr-tb" unicode-bidi="normal" text-decoration="none" transform="matrix(1 0 0 1 2376.27 694)">State</text><text fill="#1F2A35" fill-opacity="1" font-family="Aptos,Aptos_MSFontService,sans-serif" font-style="normal" font-variant="normal" font-weight="700" font-stretch="normal" font-size="92" text-anchor="start" direction="ltr" writing-mode="lr-tb" unicode-bidi="normal" text-decoration="none" transform="matrix(1 0 0 1 2245.51 804)">trajectories</text><text fill="#1F2A35" fill-opacity="1" font-family="Aptos,Aptos_MSFontService,sans-serif" font-style="normal" font-variant="normal" font-weight="400" font-stretch="normal" font-size="92" text-anchor="start" direction="ltr" writing-mode="lr-tb" unicode-bidi="normal" text-decoration="none" transform="matrix(1 0 0 1 2424.4 914)">x(t)</text><path d="M2970.5 654.223C2970.5 625.105 2994.1 601.5 3023.22 601.5L3792.78 601.5C3821.9 601.5 3845.5 625.105 3845.5 654.223L3845.5 894.777C3845.5 923.895 3821.9 947.5 3792.78 947.5L3023.22 947.5C2994.1 947.5 2970.5 923.895 2970.5 894.777Z" stroke="#56616F" stroke-width="9.16667" stroke-linecap="butt" stroke-linejoin="round" stroke-miterlimit="10" stroke-opacity="1" fill="#F2F4F7" fill-rule="evenodd" fill-opacity="1"/><text fill="#1F2A35" fill-opacity="1" font-family="Aptos,Aptos_MSFontService,sans-serif" font-style="normal" font-variant="normal" font-weight="700" font-stretch="normal" font-size="83" text-anchor="start" direction="ltr" writing-mode="lr-tb" unicode-bidi="normal" text-decoration="none" transform="matrix(1 0 0 1 3067.79 701)">Time, parameters,</text><text fill="#1F2A35" fill-opacity="1" font-family="Aptos,Aptos_MSFontService,sans-serif" font-style="normal" font-variant="normal" font-weight="700" font-stretch="normal" font-size="83" text-anchor="start" direction="ltr" writing-mode="lr-tb" unicode-bidi="normal" text-decoration="none" transform="matrix(1 0 0 1 3081.33 800)">and disturbances</text><text fill="#1F2A35" fill-opacity="1" font-family="Aptos,Aptos_MSFontService,sans-serif" font-style="normal" font-variant="normal" font-weight="400" font-stretch="normal" font-size="83" text-anchor="start" direction="ltr" writing-mode="lr-tb" unicode-bidi="normal" text-decoration="none" transform="matrix(1 0 0 1 3271.01 899)">t, p, d(t)</text><path d="M1369.5 1201.34C1369.5 1172.16 1393.16 1148.5 1422.34 1148.5L2957.66 1148.5C2986.84 1148.5 3010.5 1172.16 3010.5 1201.34L3010.5 1346.66C3010.5 1375.84 2986.84 1399.5 2957.66 1399.5L1422.34 1399.5C1393.16 1399.5 1369.5 1375.84 1369.5 1346.66Z" stroke="#B23A48" stroke-width="9.16667" stroke-linecap="butt" stroke-linejoin="round" stroke-miterlimit="10" stroke-opacity="1" fill="#FBEDEF" fill-rule="evenodd" fill-opacity="1"/><text fill="#B23A48" fill-opacity="1" font-family="Aptos,Aptos_MSFontService,sans-serif" font-style="normal" font-variant="normal" font-weight="700" font-stretch="normal" font-size="76" text-anchor="start" direction="ltr" writing-mode="lr-tb" unicode-bidi="normal" text-decoration="none" transform="matrix(1 0 0 1 1800.01 1253)">Optimization problem</text><text fill="#B23A48" fill-opacity="1" font-family="Aptos,Aptos_MSFontService,sans-serif" font-style="normal" font-variant="normal" font-weight="400" font-stretch="normal" font-size="76" text-anchor="start" direction="ltr" writing-mode="lr-tb" unicode-bidi="normal" text-decoration="none" transform="matrix(1 0 0 1 1474 1344)">decision variables + objective + constraints</text><path d="M314.5 1720.21C314.5 1691.1 338.097 1667.5 367.205 1667.5L1317.79 1667.5C1346.9 1667.5 1370.5 1691.1 1370.5 1720.21L1370.5 1950.79C1370.5 1979.9 1346.9 2003.5 1317.79 2003.5L367.205 2003.5C338.097 2003.5 314.5 1979.9 314.5 1950.79Z" stroke="#7C3AED" stroke-width="9.16667" stroke-linecap="butt" stroke-linejoin="round" stroke-miterlimit="10" stroke-opacity="1" fill="#F3E8FF" fill-rule="evenodd" fill-opacity="1"/><text fill="#1F2A35" fill-opacity="1" font-family="Aptos,Aptos_MSFontService,sans-serif" font-style="normal" font-variant="normal" font-weight="700" font-stretch="normal" font-size="76" text-anchor="start" direction="ltr" writing-mode="lr-tb" unicode-bidi="normal" text-decoration="none" transform="matrix(1 0 0 1 677.44 1769)">Objective</text><text fill="#1F2A35" fill-opacity="1" font-family="Aptos,Aptos_MSFontService,sans-serif" font-style="normal" font-variant="normal" font-weight="400" font-stretch="normal" font-size="76" text-anchor="start" direction="ltr" writing-mode="lr-tb" unicode-bidi="normal" text-decoration="none" transform="matrix(1 0 0 1 487.437 1860)">minimize or maximize</text><text fill="#1F2A35" fill-opacity="1" font-family="Aptos,Aptos_MSFontService,sans-serif" font-style="normal" font-variant="normal" font-weight="400" font-stretch="normal" font-size="76" text-anchor="start" direction="ltr" writing-mode="lr-tb" unicode-bidi="normal" text-decoration="none" transform="matrix(1 0 0 1 629.956 1950)">performance</text><path d="M1670.5 1720.21C1670.5 1691.1 1694.1 1667.5 1723.21 1667.5L2673.79 1667.5C2702.9 1667.5 2726.5 1691.1 2726.5 1720.21L2726.5 1950.79C2726.5 1979.9 2702.9 2003.5 2673.79 2003.5L1723.21 2003.5C1694.1 2003.5 1670.5 1979.9 1670.5 1950.79Z" stroke="#B23A48" stroke-width="9.16667" stroke-linecap="butt" stroke-linejoin="round" stroke-miterlimit="10" stroke-opacity="1" fill="#FBEDEF" fill-rule="evenodd" fill-opacity="1"/><text fill="#1F2A35" fill-opacity="1" font-family="Aptos,Aptos_MSFontService,sans-serif" font-style="normal" font-variant="normal" font-weight="700" font-stretch="normal" font-size="69" text-anchor="start" direction="ltr" writing-mode="lr-tb" unicode-bidi="normal" text-decoration="none" transform="matrix(1 0 0 1 1898.82 1752)">Dynamics equality</text><text fill="#1F2A35" fill-opacity="1" font-family="Aptos,Aptos_MSFontService,sans-serif" font-style="normal" font-variant="normal" font-weight="700" font-stretch="normal" font-size="69" text-anchor="start" direction="ltr" writing-mode="lr-tb" unicode-bidi="normal" text-decoration="none" transform="matrix(1 0 0 1 2011.32 1818)">constraints</text><text fill="#1F2A35" fill-opacity="1" font-family="Aptos,Aptos_MSFontService,sans-serif" font-style="normal" font-variant="normal" font-weight="400" font-stretch="normal" font-size="69" text-anchor="start" direction="ltr" writing-mode="lr-tb" unicode-bidi="normal" text-decoration="none" transform="matrix(1 0 0 1 1927.62 1884)">system equations</text><text fill="#1F2A35" fill-opacity="1" font-family="Aptos,Aptos_MSFontService,sans-serif" font-style="normal" font-variant="normal" font-weight="400" font-stretch="normal" font-size="69" text-anchor="start" direction="ltr" writing-mode="lr-tb" unicode-bidi="normal" text-decoration="none" transform="matrix(1 0 0 1 1974.1 1950)">that must hold</text><path d="M3026.5 1720.21C3026.5 1691.1 3050.1 1667.5 3079.21 1667.5L4029.79 1667.5C4058.9 1667.5 4082.5 1691.1 4082.5 1720.21L4082.5 1950.79C4082.5 1979.9 4058.9 2003.5 4029.79 2003.5L3079.21 2003.5C3050.1 2003.5 3026.5 1979.9 3026.5 1950.79Z" stroke="#2D6A9F" stroke-width="9.16667" stroke-linecap="butt" stroke-linejoin="round" stroke-miterlimit="10" stroke-opacity="1" fill="#EDF5FB" fill-rule="evenodd" fill-opacity="1"/><text fill="#1F2A35" fill-opacity="1" font-family="Aptos,Aptos_MSFontService,sans-serif" font-style="normal" font-variant="normal" font-weight="700" font-stretch="normal" font-size="69" text-anchor="start" direction="ltr" writing-mode="lr-tb" unicode-bidi="normal" text-decoration="none" transform="matrix(1 0 0 1 3262.39 1752)">Path and boundary</text><text fill="#1F2A35" fill-opacity="1" font-family="Aptos,Aptos_MSFontService,sans-serif" font-style="normal" font-variant="normal" font-weight="700" font-stretch="normal" font-size="69" text-anchor="start" direction="ltr" writing-mode="lr-tb" unicode-bidi="normal" text-decoration="none" transform="matrix(1 0 0 1 3376.4 1818)">constraints</text><text fill="#1F2A35" fill-opacity="1" font-family="Aptos,Aptos_MSFontService,sans-serif" font-style="normal" font-variant="normal" font-weight="400" font-stretch="normal" font-size="69" text-anchor="start" direction="ltr" writing-mode="lr-tb" unicode-bidi="normal" text-decoration="none" transform="matrix(1 0 0 1 3328.02 1884)">limits over time</text><text fill="#1F2A35" fill-opacity="1" font-family="Aptos,Aptos_MSFontService,sans-serif" font-style="normal" font-variant="normal" font-weight="400" font-stretch="normal" font-size="69" text-anchor="start" direction="ltr" writing-mode="lr-tb" unicode-bidi="normal" text-decoration="none" transform="matrix(1 0 0 1 3341.68 1950)">and endpoints</text><path d="M370.5 2072.63C370.5 2054.33 385.331 2039.5 403.626 2039.5L3993.37 2039.5C4011.67 2039.5 4026.5 2054.33 4026.5 2072.63L4026.5 2165.37C4026.5 2183.67 4011.67 2198.5 3993.37 2198.5L403.626 2198.5C385.331 2198.5 370.5 2183.67 370.5 2165.37Z" stroke="#2D6A9F" stroke-width="9.16667" stroke-linecap="butt" stroke-linejoin="round" stroke-miterlimit="10" stroke-opacity="1" fill="#FFFFFF" fill-rule="evenodd" fill-opacity="1"/><text fill="#123B63" fill-opacity="1" font-family="Aptos,Aptos_MSFontService,sans-serif" font-style="normal" font-variant="normal" font-weight="400" font-stretch="normal" font-size="66" text-anchor="start" direction="ltr" writing-mode="lr-tb" unicode-bidi="normal" text-decoration="none" transform="matrix(1 0 0 1 632.672 2135)">Choose plant and control variables so performance is optimized while dynamics and constraints are satisfied.</text></g></g></svg>