<svg width="3933" height="1903" xmlns="http://www.w3.org/2000/svg" xmlns:xlink="http://www.w3.org/1999/xlink" xml:space="preserve" overflow="hidden"><g transform="translate(-233 -132)"><g><path d="M402.5 176.984C402.5 155.177 420.177 137.5 441.983 137.5L3969.02 137.5C3990.82 137.5 4008.5 155.177 4008.5 176.984L4008.5 302.016C4008.5 323.822 3990.82 341.5 3969.02 341.5L441.983 341.5C420.177 341.5 402.5 323.822 402.5 302.016Z" stroke="#123E6D" stroke-width="7.33333" stroke-linecap="butt" stroke-linejoin="round" stroke-miterlimit="10" stroke-opacity="1" fill="#FFFFFF" fill-rule="evenodd" fill-opacity="1"/><text fill="#123E6D" fill-opacity="1" font-family="Aptos,Aptos_MSFontService,sans-serif" font-style="normal" font-variant="normal" font-weight="700" font-stretch="normal" font-size="115" text-anchor="start" direction="ltr" writing-mode="lr-tb" unicode-bidi="normal" text-decoration="none" transform="matrix(1 0 0 1 766.517 276)">Bolza Objective Function: Running Cost + Terminal Cost</text><path d="M712 425.529C712 403.698 729.698 386 751.529 386L3658.47 386C3680.3 386 3698 403.698 3698 425.529L3698 570.471C3698 592.302 3680.3 610 3658.47 610L751.529 610C729.698 610 712 592.302 712 570.471Z" stroke="#CBD5E0" stroke-width="5.5" stroke-linecap="butt" stroke-linejoin="round" stroke-miterlimit="10" stroke-opacity="1" fill="#F7FAFC" fill-rule="evenodd" fill-opacity="1"/><text fill="#000000" fill-opacity="1" font-family="Cambria Math,Cambria Math_MSFontService,sans-serif" font-style="normal" font-variant="normal" font-weight="400" font-stretch="normal" font-size="96" text-anchor="start" direction="ltr" writing-mode="lr-tb" unicode-bidi="normal" text-decoration="none" transform="matrix(1 0 0 1 1549.65 531)">𝑱</text><text fill="#000000" fill-opacity="1" font-family="Cambria Math,Cambria Math_MSFontService,sans-serif" font-style="normal" font-variant="normal" font-weight="400" font-stretch="normal" font-size="96" text-anchor="start" direction="ltr" writing-mode="lr-tb" unicode-bidi="normal" text-decoration="none" transform="matrix(1 0 0 1 1617.07 531)">=</text><text fill="#000000" fill-opacity="1" font-family="Cambria Math,Cambria Math_MSFontService,sans-serif" font-style="normal" font-variant="normal" font-weight="400" font-stretch="normal" font-size="96" text-anchor="start" direction="ltr" writing-mode="lr-tb" unicode-bidi="normal" text-decoration="none" transform="matrix(1 0 0 1 1716 531)">𝚽</text><text fill="#000000" fill-opacity="1" font-family="Cambria Math,Cambria Math_MSFontService,sans-serif" font-style="normal" font-variant="normal" font-weight="400" font-stretch="normal" font-size="96" text-anchor="start" direction="ltr" writing-mode="lr-tb" unicode-bidi="normal" text-decoration="none" transform="matrix(1 0 0 1 1797.93 531)">(</text><text fill="#000000" fill-opacity="1" font-family="Cambria Math,Cambria Math_MSFontService,sans-serif" font-style="normal" font-variant="normal" font-weight="400" font-stretch="normal" font-size="96" text-anchor="start" direction="ltr" writing-mode="lr-tb" unicode-bidi="normal" text-decoration="none" transform="matrix(1 0 0 1 1838.03 531)">𝒙</text><path d="M2143.84 445.183C2153.59 447.746 2161.1 454.386 2166.38 465.105 2171.66 475.824 2174.3 488.511 2174.3 503.168 2174.3 517.824 2171.66 530.511 2166.38 541.23 2161.1 551.949 2153.59 558.59 2143.84 561.152L2142.66 557.308C2150.23 554.465 2155.95 548.269 2159.84 538.722 2163.73 529.176 2165.68 517.34 2165.68 503.215 2165.68 489.058 2163.73 477.199 2159.84 467.636 2155.95 458.074 2150.23 451.871 2142.66 449.027ZM1932.51 445.183 1933.68 449.027C1926.12 451.871 1920.4 458.074 1916.51 467.636 1912.61 477.199 1910.67 489.058 1910.67 503.215 1910.67 517.34 1912.61 529.176 1916.51 538.722 1920.4 548.269 1926.12 554.465 1933.68 557.308L1932.51 561.152C1922.76 558.59 1915.25 551.949 1909.97 541.23 1904.68 530.511 1902.04 517.824 1902.04 503.168 1902.04 488.511 1904.68 475.824 1909.97 465.105 1915.25 454.386 1922.76 447.746 1932.51 445.183Z" fill="#000000" fill-rule="evenodd" fill-opacity="1"/><text fill="#000000" fill-opacity="1" font-family="Cambria Math,Cambria Math_MSFontService,sans-serif" font-style="normal" font-variant="normal" font-weight="400" font-stretch="normal" font-size="96" text-anchor="start" direction="ltr" writing-mode="lr-tb" unicode-bidi="normal" text-decoration="none" transform="matrix(1 0 0 1 1936.85 531)">𝒕</text><text fill="#000000" fill-opacity="1" font-family="Cambria Math,Cambria Math_MSFontService,sans-serif" font-style="normal" font-variant="normal" font-weight="400" font-stretch="normal" font-size="70" text-anchor="start" direction="ltr" writing-mode="lr-tb" unicode-bidi="normal" text-decoration="none" transform="matrix(1 0 0 1 1976.95 550)">𝒇</text><text fill="#000000" fill-opacity="1" font-family="Cambria Math,Cambria Math_MSFontService,sans-serif" font-style="normal" font-variant="normal" font-weight="400" font-stretch="normal" font-size="96" text-anchor="start" direction="ltr" writing-mode="lr-tb" unicode-bidi="normal" text-decoration="none" transform="matrix(1 0 0 1 2020.47 531)">,</text><text fill="#000000" fill-opacity="1" font-family="Cambria Math,Cambria Math_MSFontService,sans-serif" font-style="normal" font-variant="normal" font-weight="400" font-stretch="normal" font-size="96" text-anchor="start" direction="ltr" writing-mode="lr-tb" unicode-bidi="normal" text-decoration="none" transform="matrix(1 0 0 1 2055.99 531)">𝒕</text><text fill="#000000" fill-opacity="1" font-family="Cambria Math,Cambria Math_MSFontService,sans-serif" font-style="normal" font-variant="normal" font-weight="400" font-stretch="normal" font-size="70" text-anchor="start" direction="ltr" writing-mode="lr-tb" unicode-bidi="normal" text-decoration="none" transform="matrix(1 0 0 1 2096.1 550)">𝒇</text><text fill="#000000" fill-opacity="1" font-family="Cambria Math,Cambria Math_MSFontService,sans-serif" font-style="normal" font-variant="normal" font-weight="400" font-stretch="normal" font-size="96" text-anchor="start" direction="ltr" writing-mode="lr-tb" unicode-bidi="normal" text-decoration="none" transform="matrix(1 0 0 1 2204.24 531)">+</text><text fill="#000000" fill-opacity="1" font-family="Cambria Math,Cambria Math_MSFontService,sans-serif" font-style="normal" font-variant="normal" font-weight="400" font-stretch="normal" font-size="96" text-anchor="start" direction="ltr" writing-mode="lr-tb" unicode-bidi="normal" text-decoration="none" transform="matrix(1 0 0 1 2297.81 531)">∫</text><text fill="#000000" fill-opacity="1" font-family="Cambria Math,Cambria Math_MSFontService,sans-serif" font-style="normal" font-variant="normal" font-weight="400" font-stretch="normal" font-size="96" text-anchor="start" direction="ltr" writing-mode="lr-tb" unicode-bidi="normal" text-decoration="none" transform="matrix(1 0 0 1 2374.03 531)">𝑳</text><path d="M2700.04 458.684C2709.17 461.091 2716.18 466.286 2721.07 474.27 2725.96 482.255 2728.4 491.887 2728.4 503.169 2728.4 514.481 2725.96 524.114 2721.09 532.067 2716.21 540.02 2709.2 545.2 2700.04 547.606L2698.92 543.997C2706.14 541.591 2711.5 536.841 2715.02 529.747 2718.54 522.653 2720.29 513.638 2720.29 502.7 2720.29 492.137 2718.54 483.364 2715.04 476.38 2711.54 469.395 2706.12 464.7 2698.78 462.294ZM2465.26 458.684 2466.52 462.294C2459.21 464.7 2453.79 469.395 2450.28 476.38 2446.76 483.364 2445.01 492.137 2445.01 502.7 2445.01 513.638 2446.76 522.653 2450.28 529.747 2453.79 536.841 2459.16 541.591 2466.38 543.997L2465.26 547.606C2456.1 545.2 2449.08 540.02 2444.21 532.067 2439.33 524.114 2436.9 514.481 2436.9 503.169 2436.9 491.887 2439.34 482.255 2444.23 474.27 2449.12 466.286 2456.13 461.091 2465.26 458.684Z" fill="#000000" fill-rule="evenodd" fill-opacity="1"/><text fill="#000000" fill-opacity="1" font-family="Cambria Math,Cambria Math_MSFontService,sans-serif" font-style="normal" font-variant="normal" font-weight="400" font-stretch="normal" font-size="96" text-anchor="start" direction="ltr" writing-mode="lr-tb" unicode-bidi="normal" text-decoration="none" transform="matrix(1 0 0 1 2468.4 531)">𝒙</text><text fill="#000000" fill-opacity="1" font-family="Cambria Math,Cambria Math_MSFontService,sans-serif" font-style="normal" font-variant="normal" font-weight="400" font-stretch="normal" font-size="96" text-anchor="start" direction="ltr" writing-mode="lr-tb" unicode-bidi="normal" text-decoration="none" transform="matrix(1 0 0 1 2523.98 531)">,</text><text fill="#000000" fill-opacity="1" font-family="Cambria Math,Cambria Math_MSFontService,sans-serif" font-style="normal" font-variant="normal" font-weight="400" font-stretch="normal" font-size="96" text-anchor="start" direction="ltr" writing-mode="lr-tb" unicode-bidi="normal" text-decoration="none" transform="matrix(1 0 0 1 2559.5 531)">𝒖</text><text fill="#000000" fill-opacity="1" font-family="Cambria Math,Cambria Math_MSFontService,sans-serif" font-style="normal" font-variant="normal" font-weight="400" font-stretch="normal" font-size="96" text-anchor="start" direction="ltr" writing-mode="lr-tb" unicode-bidi="normal" text-decoration="none" transform="matrix(1 0 0 1 2621.37 531)">,</text><text fill="#000000" fill-opacity="1" font-family="Cambria Math,Cambria Math_MSFontService,sans-serif" font-style="normal" font-variant="normal" font-weight="400" font-stretch="normal" font-size="96" text-anchor="start" direction="ltr" writing-mode="lr-tb" unicode-bidi="normal" text-decoration="none" transform="matrix(1 0 0 1 2656.89 531)">𝒕</text><text fill="#000000" fill-opacity="1" font-family="Cambria Math,Cambria Math_MSFontService,sans-serif" font-style="normal" font-variant="normal" font-weight="400" font-stretch="normal" font-size="96" text-anchor="start" direction="ltr" writing-mode="lr-tb" unicode-bidi="normal" text-decoration="none" transform="matrix(1 0 0 1 2736.94 531)">𝒅𝒕</text><text fill="#000000" fill-opacity="1" font-family="Cambria Math,Cambria Math_MSFontService,sans-serif" font-style="normal" font-variant="normal" font-weight="400" font-stretch="normal" font-size="96" text-anchor="start" direction="ltr" writing-mode="lr-tb" unicode-bidi="normal" text-decoration="none" transform="matrix(1 0 0 1 2838.92 531)"> </text><path d="M240.5 789.075C240.5 767.218 258.219 749.5 280.075 749.5L1295.92 749.5C1317.78 749.5 1335.5 767.218 1335.5 789.075L1335.5 1296.92C1335.5 1318.78 1317.78 1336.5 1295.92 1336.5L280.075 1336.5C258.219 1336.5 240.5 1318.78 240.5 1296.92Z" stroke="#2F855A" stroke-width="9.16667" stroke-linecap="butt" stroke-linejoin="round" stroke-miterlimit="10" stroke-opacity="1" fill="#E6F7ED" fill-rule="evenodd" fill-opacity="1"/><text fill="#2F855A" fill-opacity="1" font-family="Aptos,Aptos_MSFontService,sans-serif" font-style="normal" font-variant="normal" font-weight="400" font-stretch="normal" font-size="78" text-anchor="start" direction="ltr" writing-mode="lr-tb" unicode-bidi="normal" text-decoration="none" transform="matrix(1 0 0 1 547.857 881)">Lagrange term</text><text fill="#2F855A" fill-opacity="1" font-family="Aptos,Aptos_MSFontService,sans-serif" font-style="normal" font-variant="normal" font-weight="400" font-stretch="normal" font-size="78" text-anchor="start" direction="ltr" writing-mode="lr-tb" unicode-bidi="normal" text-decoration="none" transform="matrix(1 0 0 1 589.382 974)">∫ L(x, u, t) dt</text><text fill="#2F855A" fill-opacity="1" font-family="Aptos,Aptos_MSFontService,sans-serif" font-style="normal" font-variant="normal" font-weight="400" font-stretch="normal" font-size="78" text-anchor="start" direction="ltr" writing-mode="lr-tb" unicode-bidi="normal" text-decoration="none" transform="matrix(1 0 0 1 435.153 1161)">running performance</text><text fill="#2F855A" fill-opacity="1" font-family="Aptos,Aptos_MSFontService,sans-serif" font-style="normal" font-variant="normal" font-weight="400" font-stretch="normal" font-size="78" text-anchor="start" direction="ltr" writing-mode="lr-tb" unicode-bidi="normal" text-decoration="none" transform="matrix(1 0 0 1 401.03 1255)">accumulated over time</text><text fill="#5B6675" fill-opacity="1" font-family="Aptos,Aptos_MSFontService,sans-serif" font-style="normal" font-variant="normal" font-weight="700" font-stretch="normal" font-size="128" text-anchor="start" direction="ltr" writing-mode="lr-tb" unicode-bidi="normal" text-decoration="none" transform="matrix(1 0 0 1 1396.72 1070)">+</text><path d="M1553.5 789.076C1553.5 767.219 1571.22 749.5 1593.08 749.5L2569.92 749.5C2591.78 749.5 2609.5 767.219 2609.5 789.076L2609.5 1296.92C2609.5 1318.78 2591.78 1336.5 2569.92 1336.5L1593.08 1336.5C1571.22 1336.5 1553.5 1318.78 1553.5 1296.92Z" stroke="#7C3AED" stroke-width="9.16667" stroke-linecap="butt" stroke-linejoin="round" stroke-miterlimit="10" stroke-opacity="1" fill="#F4E8F7" fill-rule="evenodd" fill-opacity="1"/><text fill="#7C3AED" fill-opacity="1" font-family="Aptos,Aptos_MSFontService,sans-serif" font-style="normal" font-variant="normal" font-weight="400" font-stretch="normal" font-size="78" text-anchor="start" direction="ltr" writing-mode="lr-tb" unicode-bidi="normal" text-decoration="none" transform="matrix(1 0 0 1 1892.17 881)">Mayer term</text><text fill="#7C3AED" fill-opacity="1" font-family="Aptos,Aptos_MSFontService,sans-serif" font-style="normal" font-variant="normal" font-weight="400" font-stretch="normal" font-size="78" text-anchor="start" direction="ltr" writing-mode="lr-tb" unicode-bidi="normal" text-decoration="none" transform="matrix(1 0 0 1 1883.99 974)">Φ(x(t_f), t_f)</text><text fill="#7C3AED" fill-opacity="1" font-family="Aptos,Aptos_MSFontService,sans-serif" font-style="normal" font-variant="normal" font-weight="400" font-stretch="normal" font-size="78" text-anchor="start" direction="ltr" writing-mode="lr-tb" unicode-bidi="normal" text-decoration="none" transform="matrix(1 0 0 1 1808.11 1161)">terminal penalty</text><text fill="#7C3AED" fill-opacity="1" font-family="Aptos,Aptos_MSFontService,sans-serif" font-style="normal" font-variant="normal" font-weight="400" font-stretch="normal" font-size="78" text-anchor="start" direction="ltr" writing-mode="lr-tb" unicode-bidi="normal" text-decoration="none" transform="matrix(1 0 0 1 1923.16 1255)">or reward</text><text fill="#5B6675" fill-opacity="1" font-family="Aptos,Aptos_MSFontService,sans-serif" font-style="normal" font-variant="normal" font-weight="700" font-stretch="normal" font-size="128" text-anchor="start" direction="ltr" writing-mode="lr-tb" unicode-bidi="normal" text-decoration="none" transform="matrix(1 0 0 1 2706.82 1070)">=</text><path d="M2867.5 789.076C2867.5 767.219 2885.22 749.5 2907.08 749.5L4120.92 749.5C4142.78 749.5 4160.5 767.219 4160.5 789.076L4160.5 1296.92C4160.5 1318.78 4142.78 1336.5 4120.92 1336.5L2907.08 1336.5C2885.22 1336.5 2867.5 1318.78 2867.5 1296.92Z" stroke="#D97706" stroke-width="9.16667" stroke-linecap="butt" stroke-linejoin="round" stroke-miterlimit="10" stroke-opacity="1" fill="#FFF4DE" fill-rule="evenodd" fill-opacity="1"/><text fill="#D97706" fill-opacity="1" font-family="Aptos,Aptos_MSFontService,sans-serif" font-style="normal" font-variant="normal" font-weight="400" font-stretch="normal" font-size="78" text-anchor="start" direction="ltr" writing-mode="lr-tb" unicode-bidi="normal" text-decoration="none" transform="matrix(1 0 0 1 3333.91 881)">Bolza form</text><text fill="#D97706" fill-opacity="1" font-family="Aptos,Aptos_MSFontService,sans-serif" font-style="normal" font-variant="normal" font-weight="400" font-stretch="normal" font-size="78" text-anchor="start" direction="ltr" writing-mode="lr-tb" unicode-bidi="normal" text-decoration="none" transform="matrix(1 0 0 1 3362.44 974)">Φ + ∫ L dt</text><text fill="#D97706" fill-opacity="1" font-family="Aptos,Aptos_MSFontService,sans-serif" font-style="normal" font-variant="normal" font-weight="400" font-stretch="normal" font-size="78" text-anchor="start" direction="ltr" writing-mode="lr-tb" unicode-bidi="normal" text-decoration="none" transform="matrix(1 0 0 1 3182.63 1161)">combined objective</text><text fill="#D97706" fill-opacity="1" font-family="Aptos,Aptos_MSFontService,sans-serif" font-style="normal" font-variant="normal" font-weight="400" font-stretch="normal" font-size="78" text-anchor="start" direction="ltr" writing-mode="lr-tb" unicode-bidi="normal" text-decoration="none" transform="matrix(1 0 0 1 3203.03 1255)">for optimal control</text><path d="M448 1720.12 3927.63 1720.13 3927.63 1733.88 448 1733.88ZM3920.75 1706.38 3962 1727 3920.75 1747.63Z" fill="#5B6675" fill-rule="nonzero" fill-opacity="1"/><path d="M613.5 1654.95C613.5 1645.87 620.867 1638.5 629.955 1638.5L3253.04 1638.5C3262.13 1638.5 3269.5 1645.87 3269.5 1654.95L3269.5 1803.05C3269.5 1812.13 3262.13 1819.5 3253.04 1819.5L629.955 1819.5C620.867 1819.5 613.5 1812.13 613.5 1803.05Z" stroke="#2F855A" stroke-width="6.875" stroke-linecap="butt" stroke-linejoin="round" stroke-miterlimit="10" stroke-opacity="1" fill="#E6F7ED" fill-rule="evenodd" fill-opacity="0.921569"/><path d="M3309.5 1612.36C3309.5 1606.91 3313.91 1602.5 3319.36 1602.5L3437.64 1602.5C3443.09 1602.5 3447.5 1606.91 3447.5 1612.36L3447.5 1842.64C3447.5 1848.09 3443.09 1852.5 3437.64 1852.5L3319.36 1852.5C3313.91 1852.5 3309.5 1848.09 3309.5 1842.64Z" stroke="#7C3AED" stroke-width="6.875" stroke-linecap="butt" stroke-linejoin="round" stroke-miterlimit="10" stroke-opacity="1" fill="#F4E8F7" fill-rule="evenodd" fill-opacity="0.94902"/><text fill="#2F855A" fill-opacity="1" font-family="Aptos,Aptos_MSFontService,sans-serif" font-style="normal" font-variant="normal" font-weight="400" font-stretch="normal" font-size="73" text-anchor="start" direction="ltr" writing-mode="lr-tb" unicode-bidi="normal" text-decoration="none" transform="matrix(1 0 0 1 1476.2 1596)">running cost over the interval</text><text fill="#7C3AED" fill-opacity="1" font-family="Aptos,Aptos_MSFontService,sans-serif" font-style="normal" font-variant="normal" font-weight="400" font-stretch="normal" font-size="73" text-anchor="start" direction="ltr" writing-mode="lr-tb" unicode-bidi="normal" text-decoration="none" transform="matrix(1 0 0 1 3172.12 1523)">terminal cost at final time</text><path d="M316 1849.47C316 1827.67 333.673 1810 355.474 1810L546.526 1810C568.327 1810 586 1827.67 586 1849.47L586 1895.53C586 1917.33 568.327 1935 546.526 1935L355.474 1935C333.673 1935 316 1917.33 316 1895.53Z" stroke="#5B6675" stroke-width="5.5" stroke-linecap="butt" stroke-linejoin="round" stroke-miterlimit="10" stroke-opacity="1" fill="#FFFFFF" fill-rule="evenodd" fill-opacity="1"/><text fill="#5B6675" fill-opacity="1" font-family="Aptos,Aptos_MSFontService,sans-serif" font-style="italic" font-variant="normal" font-weight="400" font-stretch="normal" font-size="73" text-anchor="start" direction="ltr" writing-mode="lr-tb" unicode-bidi="normal" text-decoration="none" transform="matrix(1 0 0 1 426.937 1896)">t₀</text><path d="M3837 1849.47C3837 1827.67 3854.67 1810 3876.47 1810L4067.53 1810C4089.33 1810 4107 1827.67 4107 1849.47L4107 1895.53C4107 1917.33 4089.33 1935 4067.53 1935L3876.47 1935C3854.67 1935 3837 1917.33 3837 1895.53Z" stroke="#5B6675" stroke-width="5.5" stroke-linecap="butt" stroke-linejoin="round" stroke-miterlimit="10" stroke-opacity="1" fill="#FFFFFF" fill-rule="evenodd" fill-opacity="1"/><text fill="#5B6675" fill-opacity="1" font-family="Cambria Math,Cambria Math_MSFontService,sans-serif" font-style="normal" font-variant="normal" font-weight="400" font-stretch="normal" font-size="73" text-anchor="start" direction="ltr" writing-mode="lr-tb" unicode-bidi="normal" text-decoration="none" transform="matrix(1 0 0 1 3933.67 1894)">𝑡</text><text fill="#5B6675" fill-opacity="1" font-family="Cambria Math,Cambria Math_MSFontService,sans-serif" font-style="normal" font-variant="normal" font-weight="400" font-stretch="normal" font-size="54" text-anchor="start" direction="ltr" writing-mode="lr-tb" unicode-bidi="normal" text-decoration="none" transform="matrix(1 0 0 1 3961.81 1909)">𝑓</text><text fill="#5B6675" fill-opacity="1" font-family="Aptos,Aptos_MSFontService,sans-serif" font-style="normal" font-variant="normal" font-weight="400" font-stretch="normal" font-size="64" text-anchor="start" direction="ltr" writing-mode="lr-tb" unicode-bidi="normal" text-decoration="none" transform="matrix(1 0 0 1 1297.77 1907)">The Lagrange term evaluates performance continuously.</text><text fill="#5B6675" fill-opacity="1" font-family="Aptos,Aptos_MSFontService,sans-serif" font-style="normal" font-variant="normal" font-weight="400" font-stretch="normal" font-size="64" text-anchor="start" direction="ltr" writing-mode="lr-tb" unicode-bidi="normal" text-decoration="none" transform="matrix(1 0 0 1 1378.53 1976)">The Mayer term evaluates only the final state/time.</text></g></g></svg>