<?xml version="1.0" encoding="utf-8" standalone="no"?>
<!DOCTYPE svg PUBLIC "-//W3C//DTD SVG 1.1//EN"
  "http://www.w3.org/Graphics/SVG/1.1/DTD/svg11.dtd">
<svg xmlns:xlink="http://www.w3.org/1999/xlink" width="646.065313pt" height="308.594531pt" viewBox="0 0 646.065313 308.594531" xmlns="http://www.w3.org/2000/svg" version="1.1">
 <metadata>
  <rdf:RDF xmlns:dc="http://purl.org/dc/elements/1.1/" xmlns:cc="http://creativecommons.org/ns#" xmlns:rdf="http://www.w3.org/1999/02/22-rdf-syntax-ns#">
   <cc:Work>
    <dc:type rdf:resource="http://purl.org/dc/dcmitype/StillImage"/>
    <dc:date>2026-07-17T16:23:06.330692</dc:date>
    <dc:format>image/svg+xml</dc:format>
    <dc:creator>
     <cc:Agent>
      <dc:title>Matplotlib v3.10.8, https://matplotlib.org/</dc:title>
     </cc:Agent>
    </dc:creator>
   </cc:Work>
  </rdf:RDF>
 </metadata>
 <defs>
  <style type="text/css">*{stroke-linejoin: round; stroke-linecap: butt}</style>
 </defs>
 <g id="figure_1">
  <g id="patch_1">
   <path d="M 0 308.594531 
L 646.065313 308.594531 
L 646.065313 0 
L 0 0 
z
" style="fill: #ffffff"/>
  </g>
  <g id="axes_1">
   <g id="patch_2">
    <path d="M 58.545313 271.038281 
L 322.327131 271.038281 
L 322.327131 21.558281 
L 58.545313 21.558281 
z
" style="fill: #ffffff"/>
   </g>
   <g id="FillBetweenPolyCollection_1">
    <defs>
     <path id="mf061e9285d" d="M 70.535395 -262.355074 
L 70.535395 -48.89625 
L 71.136402 -48.89625 
L 71.737408 -48.89625 
L 72.338415 -48.89625 
L 72.939422 -48.89625 
L 73.540428 -48.89625 
L 74.141435 -48.89625 
L 74.742442 -48.89625 
L 75.343448 -48.89625 
L 75.944455 -48.89625 
L 76.545462 -48.89625 
L 77.146468 -48.89625 
L 77.747475 -48.89625 
L 78.348482 -48.89625 
L 78.949488 -48.89625 
L 79.550495 -48.89625 
L 80.151502 -48.89625 
L 80.752508 -48.89625 
L 81.353515 -48.89625 
L 81.954521 -48.89625 
L 82.555528 -48.89625 
L 83.156535 -48.89625 
L 83.757541 -48.89625 
L 84.358548 -48.89625 
L 84.959555 -48.89625 
L 85.560561 -48.89625 
L 86.161568 -48.89625 
L 86.762575 -48.89625 
L 87.363581 -48.89625 
L 87.964588 -48.89625 
L 88.565595 -48.89625 
L 89.166601 -48.89625 
L 89.767608 -48.89625 
L 90.368615 -48.89625 
L 90.969621 -48.89625 
L 91.570628 -48.89625 
L 92.171635 -48.89625 
L 92.772641 -48.89625 
L 93.373648 -48.89625 
L 93.974654 -48.89625 
L 94.575661 -48.89625 
L 95.176668 -48.89625 
L 95.777674 -48.89625 
L 96.378681 -48.89625 
L 96.979688 -48.89625 
L 97.580694 -48.89625 
L 98.181701 -48.89625 
L 98.782708 -48.89625 
L 99.383714 -48.89625 
L 99.984721 -48.89625 
L 100.585728 -48.89625 
L 101.186734 -48.89625 
L 101.787741 -48.89625 
L 102.388748 -48.89625 
L 102.989754 -48.89625 
L 103.590761 -48.89625 
L 104.191767 -48.89625 
L 104.792774 -48.89625 
L 105.393781 -48.89625 
L 105.994787 -48.89625 
L 106.595794 -48.89625 
L 107.196801 -48.89625 
L 107.797807 -48.89625 
L 108.398814 -48.89625 
L 108.999821 -48.89625 
L 109.600827 -48.89625 
L 110.201834 -48.89625 
L 110.802841 -48.89625 
L 111.403847 -48.89625 
L 112.004854 -48.89625 
L 112.605861 -48.89625 
L 113.206867 -48.89625 
L 113.807874 -48.89625 
L 114.408881 -48.89625 
L 115.009887 -48.89625 
L 115.610894 -48.89625 
L 116.2119 -48.89625 
L 116.812907 -48.89625 
L 117.413914 -48.89625 
L 118.01492 -48.89625 
L 118.615927 -48.89625 
L 119.216934 -48.89625 
L 119.81794 -48.89625 
L 120.418947 -48.89625 
L 121.019954 -48.89625 
L 121.62096 -48.89625 
L 122.221967 -48.89625 
L 122.822974 -48.89625 
L 123.42398 -48.89625 
L 124.024987 -48.89625 
L 124.625994 -48.89625 
L 125.227 -48.89625 
L 125.828007 -48.89625 
L 126.429013 -48.89625 
L 127.03002 -48.89625 
L 127.631027 -48.89625 
L 128.232033 -48.89625 
L 128.83304 -48.89625 
L 129.434047 -48.89625 
L 130.035053 -48.89625 
L 130.63606 -48.89625 
L 131.237067 -48.89625 
L 131.838073 -48.89625 
L 132.43908 -48.89625 
L 133.040087 -48.89625 
L 133.641093 -48.89625 
L 134.2421 -48.89625 
L 134.843107 -48.89625 
L 135.444113 -48.89625 
L 136.04512 -48.89625 
L 136.646127 -48.89625 
L 137.247133 -48.89625 
L 137.84814 -48.89625 
L 138.449146 -48.89625 
L 139.050153 -48.89625 
L 139.65116 -48.89625 
L 140.252166 -48.89625 
L 140.853173 -48.89625 
L 141.45418 -48.89625 
L 142.055186 -48.89625 
L 142.656193 -48.89625 
L 143.2572 -48.89625 
L 143.858206 -48.89625 
L 144.459213 -48.89625 
L 145.06022 -48.89625 
L 145.661226 -48.89625 
L 146.262233 -48.89625 
L 146.86324 -48.89625 
L 147.464246 -48.89625 
L 148.065253 -48.89625 
L 148.666259 -48.89625 
L 149.267266 -48.89625 
L 149.868273 -48.89625 
L 150.469279 -48.89625 
L 151.070286 -48.89625 
L 151.671293 -48.89625 
L 152.272299 -48.89625 
L 152.873306 -48.89625 
L 153.474313 -48.89625 
L 154.075319 -48.89625 
L 154.676326 -48.89625 
L 155.277333 -48.89625 
L 155.878339 -48.89625 
L 156.479346 -48.89625 
L 157.080353 -48.89625 
L 157.681359 -48.89625 
L 158.282366 -48.89625 
L 158.883373 -48.89625 
L 159.484379 -48.89625 
L 160.085386 -48.89625 
L 160.686392 -48.89625 
L 161.287399 -48.89625 
L 161.888406 -48.89625 
L 162.489412 -48.89625 
L 163.090419 -48.89625 
L 163.691426 -48.89625 
L 164.292432 -48.89625 
L 164.893439 -48.89625 
L 165.494446 -48.89625 
L 166.095452 -48.89625 
L 166.696459 -48.89625 
L 167.297466 -48.89625 
L 167.898472 -48.89625 
L 168.499479 -48.89625 
L 169.100486 -48.89625 
L 169.701492 -48.89625 
L 170.302499 -48.89625 
L 170.903506 -48.89625 
L 171.504512 -48.89625 
L 172.105519 -48.89625 
L 172.706525 -48.89625 
L 173.307532 -48.89625 
L 173.908539 -48.89625 
L 174.509545 -48.89625 
L 175.110552 -48.89625 
L 175.711559 -48.89625 
L 176.312565 -48.89625 
L 176.913572 -48.89625 
L 177.514579 -48.89625 
L 178.115585 -48.89625 
L 178.716592 -48.89625 
L 179.317599 -48.89625 
L 179.918605 -48.89625 
L 180.519612 -48.89625 
L 181.120619 -48.89625 
L 181.721625 -48.89625 
L 182.322632 -48.89625 
L 182.923638 -48.89625 
L 183.524645 -48.89625 
L 184.125652 -48.89625 
L 184.726658 -48.89625 
L 185.327665 -48.89625 
L 185.928672 -48.89625 
L 186.529678 -48.89625 
L 187.130685 -48.89625 
L 187.731692 -48.89625 
L 188.332698 -48.89625 
L 188.933705 -48.89625 
L 189.534712 -48.89625 
L 190.135718 -48.89625 
L 190.736725 -48.89625 
L 191.337732 -48.89625 
L 191.938738 -48.89625 
L 192.539745 -48.89625 
L 193.140752 -48.89625 
L 193.741758 -48.89625 
L 194.342765 -48.89625 
L 194.943771 -48.89625 
L 195.544778 -48.89625 
L 196.145785 -48.89625 
L 196.746791 -48.89625 
L 197.347798 -48.89625 
L 197.948805 -48.89625 
L 198.549811 -48.89625 
L 199.150818 -48.89625 
L 199.751825 -48.89625 
L 200.352831 -48.89625 
L 200.953838 -48.89625 
L 201.554845 -48.89625 
L 202.155851 -48.89625 
L 202.756858 -48.89625 
L 203.357865 -48.89625 
L 203.958871 -48.89625 
L 204.559878 -48.89625 
L 205.160884 -48.89625 
L 205.761891 -48.89625 
L 206.362898 -48.89625 
L 206.963904 -48.89625 
L 207.564911 -48.89625 
L 208.165918 -48.89625 
L 208.766924 -48.89625 
L 209.367931 -48.89625 
L 209.968938 -48.89625 
L 210.569944 -48.89625 
L 211.170951 -48.89625 
L 211.771958 -48.89625 
L 212.372964 -48.89625 
L 212.973971 -48.89625 
L 213.574978 -48.89625 
L 214.175984 -48.89625 
L 214.776991 -48.89625 
L 215.377998 -48.89625 
L 215.979004 -48.89625 
L 216.580011 -48.89625 
L 217.181017 -48.89625 
L 217.782024 -48.89625 
L 218.383031 -48.89625 
L 218.984037 -48.89625 
L 219.585044 -48.89625 
L 220.186051 -48.89625 
L 220.787057 -48.89625 
L 221.388064 -48.89625 
L 221.989071 -48.89625 
L 222.590077 -48.89625 
L 223.191084 -48.89625 
L 223.792091 -48.89625 
L 224.393097 -48.89625 
L 224.994104 -48.89625 
L 225.595111 -48.89625 
L 226.196117 -48.89625 
L 226.797124 -48.89625 
L 227.39813 -48.89625 
L 227.999137 -48.89625 
L 228.600144 -48.89625 
L 229.20115 -48.89625 
L 229.802157 -48.89625 
L 230.403164 -48.89625 
L 231.00417 -48.89625 
L 231.605177 -48.89625 
L 232.206184 -48.89625 
L 232.80719 -48.89625 
L 233.408197 -48.89625 
L 234.009204 -48.89625 
L 234.61021 -48.89625 
L 235.211217 -48.89625 
L 235.812224 -48.89625 
L 236.41323 -48.89625 
L 237.014237 -48.89625 
L 237.615244 -48.89625 
L 238.21625 -48.89625 
L 238.817257 -48.89625 
L 239.418263 -48.89625 
L 240.01927 -48.89625 
L 240.620277 -48.89625 
L 241.221283 -48.89625 
L 241.82229 -48.89625 
L 242.423297 -48.89625 
L 243.024303 -48.89625 
L 243.62531 -48.89625 
L 244.226317 -48.89625 
L 244.827323 -48.89625 
L 245.42833 -48.89625 
L 246.029337 -48.89625 
L 246.630343 -48.89625 
L 247.23135 -48.89625 
L 247.832357 -48.89625 
L 248.433363 -48.89625 
L 249.03437 -48.89625 
L 249.635377 -48.89625 
L 250.236383 -48.89625 
L 250.83739 -48.89625 
L 251.438396 -48.89625 
L 252.039403 -48.89625 
L 252.64041 -48.89625 
L 253.241416 -48.89625 
L 253.842423 -48.89625 
L 254.44343 -48.89625 
L 255.044436 -48.89625 
L 255.645443 -48.89625 
L 256.24645 -48.89625 
L 256.847456 -48.89625 
L 257.448463 -48.89625 
L 258.04947 -48.89625 
L 258.650476 -48.89625 
L 259.251483 -48.89625 
L 259.85249 -48.89625 
L 260.453496 -48.89625 
L 261.054503 -48.89625 
L 261.655509 -48.89625 
L 262.256516 -48.89625 
L 262.857523 -48.89625 
L 263.458529 -48.89625 
L 264.059536 -48.89625 
L 264.660543 -48.89625 
L 265.261549 -48.89625 
L 265.862556 -48.89625 
L 266.463563 -48.89625 
L 267.064569 -48.89625 
L 267.665576 -48.89625 
L 268.266583 -48.89625 
L 268.867589 -48.89625 
L 269.468596 -48.89625 
L 270.069603 -48.89625 
L 270.670609 -48.89625 
L 271.271616 -48.89625 
L 271.872623 -48.89625 
L 272.473629 -48.89625 
L 273.074636 -48.89625 
L 273.675642 -48.89625 
L 274.276649 -48.89625 
L 274.877656 -48.89625 
L 275.478662 -48.89625 
L 276.079669 -48.89625 
L 276.680676 -48.89625 
L 277.281682 -48.89625 
L 277.882689 -48.89625 
L 278.483696 -48.89625 
L 279.084702 -48.89625 
L 279.685709 -48.89625 
L 280.286716 -48.89625 
L 280.887722 -48.89625 
L 281.488729 -48.89625 
L 282.089736 -48.89625 
L 282.690742 -48.89625 
L 283.291749 -48.89625 
L 283.892755 -48.89625 
L 284.493762 -48.89625 
L 285.094769 -48.89625 
L 285.695775 -48.89625 
L 286.296782 -48.89625 
L 286.897789 -48.89625 
L 287.498795 -48.89625 
L 288.099802 -48.89625 
L 288.700809 -48.89625 
L 289.301815 -48.89625 
L 289.902822 -48.89625 
L 290.503829 -48.89625 
L 291.104835 -48.89625 
L 291.705842 -48.89625 
L 292.306849 -48.89625 
L 292.907855 -48.89625 
L 293.508862 -48.89625 
L 294.109869 -48.89625 
L 294.710875 -48.89625 
L 295.311882 -48.89625 
L 295.912888 -48.89625 
L 296.513895 -48.89625 
L 297.114902 -48.89625 
L 297.715908 -48.89625 
L 298.316915 -48.89625 
L 298.917922 -48.89625 
L 299.518928 -48.89625 
L 300.119935 -48.89625 
L 300.720942 -48.89625 
L 301.321948 -48.89625 
L 301.922955 -48.89625 
L 302.523962 -48.89625 
L 303.124968 -48.89625 
L 303.725975 -48.89625 
L 304.326982 -48.89625 
L 304.927988 -48.89625 
L 305.528995 -48.89625 
L 306.130001 -48.89625 
L 306.731008 -48.89625 
L 307.332015 -48.89625 
L 307.933021 -48.89625 
L 308.534028 -48.89625 
L 309.135035 -48.89625 
L 309.736041 -48.89625 
L 310.337048 -48.89625 
L 310.337048 -262.355074 
L 310.337048 -262.355074 
L 309.736041 -262.355074 
L 309.135035 -262.355074 
L 308.534028 -262.355074 
L 307.933021 -262.355074 
L 307.332015 -262.355074 
L 306.731008 -262.355074 
L 306.130001 -262.355074 
L 305.528995 -262.355074 
L 304.927988 -262.355074 
L 304.326982 -262.355074 
L 303.725975 -262.355074 
L 303.124968 -262.355074 
L 302.523962 -262.355074 
L 301.922955 -262.355074 
L 301.321948 -262.355074 
L 300.720942 -262.355074 
L 300.119935 -262.355074 
L 299.518928 -262.355074 
L 298.917922 -262.355074 
L 298.316915 -262.355074 
L 297.715908 -262.355074 
L 297.114902 -262.355074 
L 296.513895 -262.355074 
L 295.912888 -262.355074 
L 295.311882 -262.355074 
L 294.710875 -262.355074 
L 294.109869 -262.355074 
L 293.508862 -262.355074 
L 292.907855 -262.355074 
L 292.306849 -262.355074 
L 291.705842 -262.355074 
L 291.104835 -262.355074 
L 290.503829 -262.355074 
L 289.902822 -262.355074 
L 289.301815 -262.355074 
L 288.700809 -262.355074 
L 288.099802 -262.355074 
L 287.498795 -262.355074 
L 286.897789 -262.355074 
L 286.296782 -262.355074 
L 285.695775 -262.355074 
L 285.094769 -262.355074 
L 284.493762 -262.355074 
L 283.892755 -262.355074 
L 283.291749 -262.355074 
L 282.690742 -262.355074 
L 282.089736 -262.355074 
L 281.488729 -262.355074 
L 280.887722 -262.355074 
L 280.286716 -262.355074 
L 279.685709 -262.355074 
L 279.084702 -262.355074 
L 278.483696 -262.355074 
L 277.882689 -262.355074 
L 277.281682 -262.355074 
L 276.680676 -262.355074 
L 276.079669 -262.355074 
L 275.478662 -262.355074 
L 274.877656 -262.355074 
L 274.276649 -262.355074 
L 273.675642 -262.355074 
L 273.074636 -262.355074 
L 272.473629 -262.355074 
L 271.872623 -262.355074 
L 271.271616 -262.355074 
L 270.670609 -262.355074 
L 270.069603 -262.355074 
L 269.468596 -262.355074 
L 268.867589 -262.355074 
L 268.266583 -262.355074 
L 267.665576 -262.355074 
L 267.064569 -262.355074 
L 266.463563 -262.355074 
L 265.862556 -262.355074 
L 265.261549 -262.355074 
L 264.660543 -262.355074 
L 264.059536 -262.355074 
L 263.458529 -262.355074 
L 262.857523 -262.355074 
L 262.256516 -262.355074 
L 261.655509 -262.355074 
L 261.054503 -262.355074 
L 260.453496 -262.355074 
L 259.85249 -262.355074 
L 259.251483 -262.355074 
L 258.650476 -262.355074 
L 258.04947 -262.355074 
L 257.448463 -262.355074 
L 256.847456 -262.355074 
L 256.24645 -262.355074 
L 255.645443 -262.355074 
L 255.044436 -262.355074 
L 254.44343 -262.355074 
L 253.842423 -262.355074 
L 253.241416 -262.355074 
L 252.64041 -262.355074 
L 252.039403 -262.355074 
L 251.438396 -262.355074 
L 250.83739 -262.355074 
L 250.236383 -262.355074 
L 249.635377 -262.355074 
L 249.03437 -262.355074 
L 248.433363 -262.355074 
L 247.832357 -262.355074 
L 247.23135 -262.355074 
L 246.630343 -262.355074 
L 246.029337 -262.355074 
L 245.42833 -262.355074 
L 244.827323 -262.355074 
L 244.226317 -262.355074 
L 243.62531 -262.355074 
L 243.024303 -262.355074 
L 242.423297 -262.355074 
L 241.82229 -262.355074 
L 241.221283 -262.355074 
L 240.620277 -262.355074 
L 240.01927 -262.355074 
L 239.418263 -262.355074 
L 238.817257 -262.355074 
L 238.21625 -262.355074 
L 237.615244 -262.355074 
L 237.014237 -262.355074 
L 236.41323 -262.355074 
L 235.812224 -262.355074 
L 235.211217 -262.355074 
L 234.61021 -262.355074 
L 234.009204 -262.355074 
L 233.408197 -262.355074 
L 232.80719 -262.355074 
L 232.206184 -262.355074 
L 231.605177 -262.355074 
L 231.00417 -262.355074 
L 230.403164 -262.355074 
L 229.802157 -262.355074 
L 229.20115 -262.355074 
L 228.600144 -262.355074 
L 227.999137 -262.355074 
L 227.39813 -262.355074 
L 226.797124 -262.355074 
L 226.196117 -262.355074 
L 225.595111 -262.355074 
L 224.994104 -262.355074 
L 224.393097 -262.355074 
L 223.792091 -262.355074 
L 223.191084 -262.355074 
L 222.590077 -262.355074 
L 221.989071 -262.355074 
L 221.388064 -262.355074 
L 220.787057 -262.355074 
L 220.186051 -262.355074 
L 219.585044 -262.355074 
L 218.984037 -262.355074 
L 218.383031 -262.355074 
L 217.782024 -262.355074 
L 217.181017 -262.355074 
L 216.580011 -262.355074 
L 215.979004 -262.355074 
L 215.377998 -262.355074 
L 214.776991 -262.355074 
L 214.175984 -262.355074 
L 213.574978 -262.355074 
L 212.973971 -262.355074 
L 212.372964 -262.355074 
L 211.771958 -262.355074 
L 211.170951 -262.355074 
L 210.569944 -262.355074 
L 209.968938 -262.355074 
L 209.367931 -262.355074 
L 208.766924 -262.355074 
L 208.165918 -262.355074 
L 207.564911 -262.355074 
L 206.963904 -262.355074 
L 206.362898 -262.355074 
L 205.761891 -262.355074 
L 205.160884 -262.355074 
L 204.559878 -262.355074 
L 203.958871 -262.355074 
L 203.357865 -262.355074 
L 202.756858 -262.355074 
L 202.155851 -262.355074 
L 201.554845 -262.355074 
L 200.953838 -262.355074 
L 200.352831 -262.355074 
L 199.751825 -262.355074 
L 199.150818 -262.355074 
L 198.549811 -262.355074 
L 197.948805 -262.355074 
L 197.347798 -262.355074 
L 196.746791 -262.355074 
L 196.145785 -262.355074 
L 195.544778 -262.355074 
L 194.943771 -262.355074 
L 194.342765 -262.355074 
L 193.741758 -262.355074 
L 193.140752 -262.355074 
L 192.539745 -262.355074 
L 191.938738 -262.355074 
L 191.337732 -262.355074 
L 190.736725 -262.355074 
L 190.135718 -262.355074 
L 189.534712 -262.355074 
L 188.933705 -262.355074 
L 188.332698 -262.355074 
L 187.731692 -262.355074 
L 187.130685 -262.355074 
L 186.529678 -262.355074 
L 185.928672 -262.355074 
L 185.327665 -262.355074 
L 184.726658 -262.355074 
L 184.125652 -262.355074 
L 183.524645 -262.355074 
L 182.923638 -262.355074 
L 182.322632 -262.355074 
L 181.721625 -262.355074 
L 181.120619 -262.355074 
L 180.519612 -262.355074 
L 179.918605 -262.355074 
L 179.317599 -262.355074 
L 178.716592 -262.355074 
L 178.115585 -262.355074 
L 177.514579 -262.355074 
L 176.913572 -262.355074 
L 176.312565 -262.355074 
L 175.711559 -262.355074 
L 175.110552 -262.355074 
L 174.509545 -262.355074 
L 173.908539 -262.355074 
L 173.307532 -262.355074 
L 172.706525 -262.355074 
L 172.105519 -262.355074 
L 171.504512 -262.355074 
L 170.903506 -262.355074 
L 170.302499 -262.355074 
L 169.701492 -262.355074 
L 169.100486 -262.355074 
L 168.499479 -262.355074 
L 167.898472 -262.355074 
L 167.297466 -262.355074 
L 166.696459 -262.355074 
L 166.095452 -262.355074 
L 165.494446 -262.355074 
L 164.893439 -262.355074 
L 164.292432 -262.355074 
L 163.691426 -262.355074 
L 163.090419 -262.355074 
L 162.489412 -262.355074 
L 161.888406 -262.355074 
L 161.287399 -262.355074 
L 160.686392 -262.355074 
L 160.085386 -262.355074 
L 159.484379 -262.355074 
L 158.883373 -262.355074 
L 158.282366 -262.355074 
L 157.681359 -262.355074 
L 157.080353 -262.355074 
L 156.479346 -262.355074 
L 155.878339 -262.355074 
L 155.277333 -262.355074 
L 154.676326 -262.355074 
L 154.075319 -262.355074 
L 153.474313 -262.355074 
L 152.873306 -262.355074 
L 152.272299 -262.355074 
L 151.671293 -262.355074 
L 151.070286 -262.355074 
L 150.469279 -262.355074 
L 149.868273 -262.355074 
L 149.267266 -262.355074 
L 148.666259 -262.355074 
L 148.065253 -262.355074 
L 147.464246 -262.355074 
L 146.86324 -262.355074 
L 146.262233 -262.355074 
L 145.661226 -262.355074 
L 145.06022 -262.355074 
L 144.459213 -262.355074 
L 143.858206 -262.355074 
L 143.2572 -262.355074 
L 142.656193 -262.355074 
L 142.055186 -262.355074 
L 141.45418 -262.355074 
L 140.853173 -262.355074 
L 140.252166 -262.355074 
L 139.65116 -262.355074 
L 139.050153 -262.355074 
L 138.449146 -262.355074 
L 137.84814 -262.355074 
L 137.247133 -262.355074 
L 136.646127 -262.355074 
L 136.04512 -262.355074 
L 135.444113 -262.355074 
L 134.843107 -262.355074 
L 134.2421 -262.355074 
L 133.641093 -262.355074 
L 133.040087 -262.355074 
L 132.43908 -262.355074 
L 131.838073 -262.355074 
L 131.237067 -262.355074 
L 130.63606 -262.355074 
L 130.035053 -262.355074 
L 129.434047 -262.355074 
L 128.83304 -262.355074 
L 128.232033 -262.355074 
L 127.631027 -262.355074 
L 127.03002 -262.355074 
L 126.429013 -262.355074 
L 125.828007 -262.355074 
L 125.227 -262.355074 
L 124.625994 -262.355074 
L 124.024987 -262.355074 
L 123.42398 -262.355074 
L 122.822974 -262.355074 
L 122.221967 -262.355074 
L 121.62096 -262.355074 
L 121.019954 -262.355074 
L 120.418947 -262.355074 
L 119.81794 -262.355074 
L 119.216934 -262.355074 
L 118.615927 -262.355074 
L 118.01492 -262.355074 
L 117.413914 -262.355074 
L 116.812907 -262.355074 
L 116.2119 -262.355074 
L 115.610894 -262.355074 
L 115.009887 -262.355074 
L 114.408881 -262.355074 
L 113.807874 -262.355074 
L 113.206867 -262.355074 
L 112.605861 -262.355074 
L 112.004854 -262.355074 
L 111.403847 -262.355074 
L 110.802841 -262.355074 
L 110.201834 -262.355074 
L 109.600827 -262.355074 
L 108.999821 -262.355074 
L 108.398814 -262.355074 
L 107.797807 -262.355074 
L 107.196801 -262.355074 
L 106.595794 -262.355074 
L 105.994787 -262.355074 
L 105.393781 -262.355074 
L 104.792774 -262.355074 
L 104.191767 -262.355074 
L 103.590761 -262.355074 
L 102.989754 -262.355074 
L 102.388748 -262.355074 
L 101.787741 -262.355074 
L 101.186734 -262.355074 
L 100.585728 -262.355074 
L 99.984721 -262.355074 
L 99.383714 -262.355074 
L 98.782708 -262.355074 
L 98.181701 -262.355074 
L 97.580694 -262.355074 
L 96.979688 -262.355074 
L 96.378681 -262.355074 
L 95.777674 -262.355074 
L 95.176668 -262.355074 
L 94.575661 -262.355074 
L 93.974654 -262.355074 
L 93.373648 -262.355074 
L 92.772641 -262.355074 
L 92.171635 -262.355074 
L 91.570628 -262.355074 
L 90.969621 -262.355074 
L 90.368615 -262.355074 
L 89.767608 -262.355074 
L 89.166601 -262.355074 
L 88.565595 -262.355074 
L 87.964588 -262.355074 
L 87.363581 -262.355074 
L 86.762575 -262.355074 
L 86.161568 -262.355074 
L 85.560561 -262.355074 
L 84.959555 -262.355074 
L 84.358548 -262.355074 
L 83.757541 -262.355074 
L 83.156535 -262.355074 
L 82.555528 -262.355074 
L 81.954521 -262.355074 
L 81.353515 -262.355074 
L 80.752508 -262.355074 
L 80.151502 -262.355074 
L 79.550495 -262.355074 
L 78.949488 -262.355074 
L 78.348482 -262.355074 
L 77.747475 -262.355074 
L 77.146468 -262.355074 
L 76.545462 -262.355074 
L 75.944455 -262.355074 
L 75.343448 -262.355074 
L 74.742442 -262.355074 
L 74.141435 -262.355074 
L 73.540428 -262.355074 
L 72.939422 -262.355074 
L 72.338415 -262.355074 
L 71.737408 -262.355074 
L 71.136402 -262.355074 
L 70.535395 -262.355074 
z
" style="stroke: #dcfce7; stroke-opacity: 0.45"/>
    </defs>
    <g clip-path="url(#p59370750c1)">
     <use xlink:href="#mf061e9285d" x="0" y="308.594531" style="fill: #dcfce7; fill-opacity: 0.45; stroke: #dcfce7; stroke-opacity: 0.45"/>
    </g>
   </g>
   <g id="matplotlib.axis_1">
    <g id="xtick_1">
     <g id="line2d_1">
      <path d="M 70.535395 271.038281 
L 70.535395 21.558281 
" clip-path="url(#p59370750c1)" style="fill: none; stroke: #b0b0b0; stroke-opacity: 0.22; stroke-width: 0.8; stroke-linecap: square"/>
     </g>
     <g id="line2d_2">
      <defs>
       <path id="md67ef01ebc" d="M 0 0 
L 0 3.5 
" style="stroke: #000000; stroke-width: 0.8"/>
      </defs>
      <g>
       <use xlink:href="#md67ef01ebc" x="70.535395" y="271.038281" style="stroke: #000000; stroke-width: 0.8"/>
      </g>
     </g>
     <g id="text_1">
      <!-- 0 -->
      <g transform="translate(67.354145 285.636719) scale(0.1 -0.1)">
       <defs>
        <path id="DejaVuSans-30" d="M 2034 4250 
Q 1547 4250 1301 3770 
Q 1056 3291 1056 2328 
Q 1056 1369 1301 889 
Q 1547 409 2034 409 
Q 2525 409 2770 889 
Q 3016 1369 3016 2328 
Q 3016 3291 2770 3770 
Q 2525 4250 2034 4250 
z
M 2034 4750 
Q 2819 4750 3233 4129 
Q 3647 3509 3647 2328 
Q 3647 1150 3233 529 
Q 2819 -91 2034 -91 
Q 1250 -91 836 529 
Q 422 1150 422 2328 
Q 422 3509 836 4129 
Q 1250 4750 2034 4750 
z
" transform="scale(0.015625)"/>
       </defs>
       <use xlink:href="#DejaVuSans-30"/>
      </g>
     </g>
    </g>
    <g id="xtick_2">
     <g id="line2d_3">
      <path d="M 118.495726 271.038281 
L 118.495726 21.558281 
" clip-path="url(#p59370750c1)" style="fill: none; stroke: #b0b0b0; stroke-opacity: 0.22; stroke-width: 0.8; stroke-linecap: square"/>
     </g>
     <g id="line2d_4">
      <g>
       <use xlink:href="#md67ef01ebc" x="118.495726" y="271.038281" style="stroke: #000000; stroke-width: 0.8"/>
      </g>
     </g>
     <g id="text_2">
      <!-- 2 -->
      <g transform="translate(115.314476 285.636719) scale(0.1 -0.1)">
       <defs>
        <path id="DejaVuSans-32" d="M 1228 531 
L 3431 531 
L 3431 0 
L 469 0 
L 469 531 
Q 828 903 1448 1529 
Q 2069 2156 2228 2338 
Q 2531 2678 2651 2914 
Q 2772 3150 2772 3378 
Q 2772 3750 2511 3984 
Q 2250 4219 1831 4219 
Q 1534 4219 1204 4116 
Q 875 4013 500 3803 
L 500 4441 
Q 881 4594 1212 4672 
Q 1544 4750 1819 4750 
Q 2544 4750 2975 4387 
Q 3406 4025 3406 3419 
Q 3406 3131 3298 2873 
Q 3191 2616 2906 2266 
Q 2828 2175 2409 1742 
Q 1991 1309 1228 531 
z
" transform="scale(0.015625)"/>
       </defs>
       <use xlink:href="#DejaVuSans-32"/>
      </g>
     </g>
    </g>
    <g id="xtick_3">
     <g id="line2d_5">
      <path d="M 166.456056 271.038281 
L 166.456056 21.558281 
" clip-path="url(#p59370750c1)" style="fill: none; stroke: #b0b0b0; stroke-opacity: 0.22; stroke-width: 0.8; stroke-linecap: square"/>
     </g>
     <g id="line2d_6">
      <g>
       <use xlink:href="#md67ef01ebc" x="166.456056" y="271.038281" style="stroke: #000000; stroke-width: 0.8"/>
      </g>
     </g>
     <g id="text_3">
      <!-- 4 -->
      <g transform="translate(163.274806 285.636719) scale(0.1 -0.1)">
       <defs>
        <path id="DejaVuSans-34" d="M 2419 4116 
L 825 1625 
L 2419 1625 
L 2419 4116 
z
M 2253 4666 
L 3047 4666 
L 3047 1625 
L 3713 1625 
L 3713 1100 
L 3047 1100 
L 3047 0 
L 2419 0 
L 2419 1100 
L 313 1100 
L 313 1709 
L 2253 4666 
z
" transform="scale(0.015625)"/>
       </defs>
       <use xlink:href="#DejaVuSans-34"/>
      </g>
     </g>
    </g>
    <g id="xtick_4">
     <g id="line2d_7">
      <path d="M 214.416387 271.038281 
L 214.416387 21.558281 
" clip-path="url(#p59370750c1)" style="fill: none; stroke: #b0b0b0; stroke-opacity: 0.22; stroke-width: 0.8; stroke-linecap: square"/>
     </g>
     <g id="line2d_8">
      <g>
       <use xlink:href="#md67ef01ebc" x="214.416387" y="271.038281" style="stroke: #000000; stroke-width: 0.8"/>
      </g>
     </g>
     <g id="text_4">
      <!-- 6 -->
      <g transform="translate(211.235137 285.636719) scale(0.1 -0.1)">
       <defs>
        <path id="DejaVuSans-36" d="M 2113 2584 
Q 1688 2584 1439 2293 
Q 1191 2003 1191 1497 
Q 1191 994 1439 701 
Q 1688 409 2113 409 
Q 2538 409 2786 701 
Q 3034 994 3034 1497 
Q 3034 2003 2786 2293 
Q 2538 2584 2113 2584 
z
M 3366 4563 
L 3366 3988 
Q 3128 4100 2886 4159 
Q 2644 4219 2406 4219 
Q 1781 4219 1451 3797 
Q 1122 3375 1075 2522 
Q 1259 2794 1537 2939 
Q 1816 3084 2150 3084 
Q 2853 3084 3261 2657 
Q 3669 2231 3669 1497 
Q 3669 778 3244 343 
Q 2819 -91 2113 -91 
Q 1303 -91 875 529 
Q 447 1150 447 2328 
Q 447 3434 972 4092 
Q 1497 4750 2381 4750 
Q 2619 4750 2861 4703 
Q 3103 4656 3366 4563 
z
" transform="scale(0.015625)"/>
       </defs>
       <use xlink:href="#DejaVuSans-36"/>
      </g>
     </g>
    </g>
    <g id="xtick_5">
     <g id="line2d_9">
      <path d="M 262.376717 271.038281 
L 262.376717 21.558281 
" clip-path="url(#p59370750c1)" style="fill: none; stroke: #b0b0b0; stroke-opacity: 0.22; stroke-width: 0.8; stroke-linecap: square"/>
     </g>
     <g id="line2d_10">
      <g>
       <use xlink:href="#md67ef01ebc" x="262.376717" y="271.038281" style="stroke: #000000; stroke-width: 0.8"/>
      </g>
     </g>
     <g id="text_5">
      <!-- 8 -->
      <g transform="translate(259.195467 285.636719) scale(0.1 -0.1)">
       <defs>
        <path id="DejaVuSans-38" d="M 2034 2216 
Q 1584 2216 1326 1975 
Q 1069 1734 1069 1313 
Q 1069 891 1326 650 
Q 1584 409 2034 409 
Q 2484 409 2743 651 
Q 3003 894 3003 1313 
Q 3003 1734 2745 1975 
Q 2488 2216 2034 2216 
z
M 1403 2484 
Q 997 2584 770 2862 
Q 544 3141 544 3541 
Q 544 4100 942 4425 
Q 1341 4750 2034 4750 
Q 2731 4750 3128 4425 
Q 3525 4100 3525 3541 
Q 3525 3141 3298 2862 
Q 3072 2584 2669 2484 
Q 3125 2378 3379 2068 
Q 3634 1759 3634 1313 
Q 3634 634 3220 271 
Q 2806 -91 2034 -91 
Q 1263 -91 848 271 
Q 434 634 434 1313 
Q 434 1759 690 2068 
Q 947 2378 1403 2484 
z
M 1172 3481 
Q 1172 3119 1398 2916 
Q 1625 2713 2034 2713 
Q 2441 2713 2670 2916 
Q 2900 3119 2900 3481 
Q 2900 3844 2670 4047 
Q 2441 4250 2034 4250 
Q 1625 4250 1398 4047 
Q 1172 3844 1172 3481 
z
" transform="scale(0.015625)"/>
       </defs>
       <use xlink:href="#DejaVuSans-38"/>
      </g>
     </g>
    </g>
    <g id="xtick_6">
     <g id="line2d_11">
      <path d="M 310.337048 271.038281 
L 310.337048 21.558281 
" clip-path="url(#p59370750c1)" style="fill: none; stroke: #b0b0b0; stroke-opacity: 0.22; stroke-width: 0.8; stroke-linecap: square"/>
     </g>
     <g id="line2d_12">
      <g>
       <use xlink:href="#md67ef01ebc" x="310.337048" y="271.038281" style="stroke: #000000; stroke-width: 0.8"/>
      </g>
     </g>
     <g id="text_6">
      <!-- 10 -->
      <g transform="translate(303.974548 285.636719) scale(0.1 -0.1)">
       <defs>
        <path id="DejaVuSans-31" d="M 794 531 
L 1825 531 
L 1825 4091 
L 703 3866 
L 703 4441 
L 1819 4666 
L 2450 4666 
L 2450 531 
L 3481 531 
L 3481 0 
L 794 0 
L 794 531 
z
" transform="scale(0.015625)"/>
       </defs>
       <use xlink:href="#DejaVuSans-31"/>
       <use xlink:href="#DejaVuSans-30" transform="translate(63.623047 0)"/>
      </g>
     </g>
    </g>
    <g id="text_7">
     <!-- Time $t$ -->
     <g transform="translate(174.486222 299.314844) scale(0.1 -0.1)">
      <defs>
       <path id="DejaVuSans-54" d="M -19 4666 
L 3928 4666 
L 3928 4134 
L 2272 4134 
L 2272 0 
L 1638 0 
L 1638 4134 
L -19 4134 
L -19 4666 
z
" transform="scale(0.015625)"/>
       <path id="DejaVuSans-69" d="M 603 3500 
L 1178 3500 
L 1178 0 
L 603 0 
L 603 3500 
z
M 603 4863 
L 1178 4863 
L 1178 4134 
L 603 4134 
L 603 4863 
z
" transform="scale(0.015625)"/>
       <path id="DejaVuSans-6d" d="M 3328 2828 
Q 3544 3216 3844 3400 
Q 4144 3584 4550 3584 
Q 5097 3584 5394 3201 
Q 5691 2819 5691 2113 
L 5691 0 
L 5113 0 
L 5113 2094 
Q 5113 2597 4934 2840 
Q 4756 3084 4391 3084 
Q 3944 3084 3684 2787 
Q 3425 2491 3425 1978 
L 3425 0 
L 2847 0 
L 2847 2094 
Q 2847 2600 2669 2842 
Q 2491 3084 2119 3084 
Q 1678 3084 1418 2786 
Q 1159 2488 1159 1978 
L 1159 0 
L 581 0 
L 581 3500 
L 1159 3500 
L 1159 2956 
Q 1356 3278 1631 3431 
Q 1906 3584 2284 3584 
Q 2666 3584 2933 3390 
Q 3200 3197 3328 2828 
z
" transform="scale(0.015625)"/>
       <path id="DejaVuSans-65" d="M 3597 1894 
L 3597 1613 
L 953 1613 
Q 991 1019 1311 708 
Q 1631 397 2203 397 
Q 2534 397 2845 478 
Q 3156 559 3463 722 
L 3463 178 
Q 3153 47 2828 -22 
Q 2503 -91 2169 -91 
Q 1331 -91 842 396 
Q 353 884 353 1716 
Q 353 2575 817 3079 
Q 1281 3584 2069 3584 
Q 2775 3584 3186 3129 
Q 3597 2675 3597 1894 
z
M 3022 2063 
Q 3016 2534 2758 2815 
Q 2500 3097 2075 3097 
Q 1594 3097 1305 2825 
Q 1016 2553 972 2059 
L 3022 2063 
z
" transform="scale(0.015625)"/>
       <path id="DejaVuSans-20" transform="scale(0.015625)"/>
       <path id="DejaVuSans-Oblique-74" d="M 2706 3500 
L 2619 3053 
L 1472 3053 
L 1100 1153 
Q 1081 1047 1072 975 
Q 1063 903 1063 863 
Q 1063 663 1183 572 
Q 1303 481 1569 481 
L 2150 481 
L 2053 0 
L 1503 0 
Q 991 0 739 200 
Q 488 400 488 806 
Q 488 878 497 964 
Q 506 1050 525 1153 
L 897 3053 
L 409 3053 
L 500 3500 
L 978 3500 
L 1172 4494 
L 1747 4494 
L 1556 3500 
L 2706 3500 
z
" transform="scale(0.015625)"/>
      </defs>
      <use xlink:href="#DejaVuSans-54" transform="translate(0 0.015625)"/>
      <use xlink:href="#DejaVuSans-69" transform="translate(61.083984 0.015625)"/>
      <use xlink:href="#DejaVuSans-6d" transform="translate(88.867188 0.015625)"/>
      <use xlink:href="#DejaVuSans-65" transform="translate(186.279297 0.015625)"/>
      <use xlink:href="#DejaVuSans-20" transform="translate(247.802734 0.015625)"/>
      <use xlink:href="#DejaVuSans-Oblique-74" transform="translate(279.589844 0.015625)"/>
     </g>
    </g>
   </g>
   <g id="matplotlib.axis_2">
    <g id="ytick_1">
     <g id="line2d_13">
      <path d="M 58.545313 266.368869 
L 322.327131 266.368869 
" clip-path="url(#p59370750c1)" style="fill: none; stroke: #b0b0b0; stroke-opacity: 0.22; stroke-width: 0.8; stroke-linecap: square"/>
     </g>
     <g id="line2d_14">
      <defs>
       <path id="mfedc0e37ec" d="M 0 0 
L -3.5 0 
" style="stroke: #000000; stroke-width: 0.8"/>
      </defs>
      <g>
       <use xlink:href="#mfedc0e37ec" x="58.545313" y="266.368869" style="stroke: #000000; stroke-width: 0.8"/>
      </g>
     </g>
     <g id="text_8">
      <!-- −0.75 -->
      <g transform="translate(20.9 270.168088) scale(0.1 -0.1)">
       <defs>
        <path id="DejaVuSans-2212" d="M 678 2272 
L 4684 2272 
L 4684 1741 
L 678 1741 
L 678 2272 
z
" transform="scale(0.015625)"/>
        <path id="DejaVuSans-2e" d="M 684 794 
L 1344 794 
L 1344 0 
L 684 0 
L 684 794 
z
" transform="scale(0.015625)"/>
        <path id="DejaVuSans-37" d="M 525 4666 
L 3525 4666 
L 3525 4397 
L 1831 0 
L 1172 0 
L 2766 4134 
L 525 4134 
L 525 4666 
z
" transform="scale(0.015625)"/>
        <path id="DejaVuSans-35" d="M 691 4666 
L 3169 4666 
L 3169 4134 
L 1269 4134 
L 1269 2991 
Q 1406 3038 1543 3061 
Q 1681 3084 1819 3084 
Q 2600 3084 3056 2656 
Q 3513 2228 3513 1497 
Q 3513 744 3044 326 
Q 2575 -91 1722 -91 
Q 1428 -91 1123 -41 
Q 819 9 494 109 
L 494 744 
Q 775 591 1075 516 
Q 1375 441 1709 441 
Q 2250 441 2565 725 
Q 2881 1009 2881 1497 
Q 2881 1984 2565 2268 
Q 2250 2553 1709 2553 
Q 1456 2553 1204 2497 
Q 953 2441 691 2322 
L 691 4666 
z
" transform="scale(0.015625)"/>
       </defs>
       <use xlink:href="#DejaVuSans-2212"/>
       <use xlink:href="#DejaVuSans-30" transform="translate(83.789062 0)"/>
       <use xlink:href="#DejaVuSans-2e" transform="translate(147.412109 0)"/>
       <use xlink:href="#DejaVuSans-37" transform="translate(179.199219 0)"/>
       <use xlink:href="#DejaVuSans-35" transform="translate(242.822266 0)"/>
      </g>
     </g>
    </g>
    <g id="ytick_2">
     <g id="line2d_15">
      <path d="M 58.545313 233.015928 
L 322.327131 233.015928 
" clip-path="url(#p59370750c1)" style="fill: none; stroke: #b0b0b0; stroke-opacity: 0.22; stroke-width: 0.8; stroke-linecap: square"/>
     </g>
     <g id="line2d_16">
      <g>
       <use xlink:href="#mfedc0e37ec" x="58.545313" y="233.015928" style="stroke: #000000; stroke-width: 0.8"/>
      </g>
     </g>
     <g id="text_9">
      <!-- −0.50 -->
      <g transform="translate(20.9 236.815147) scale(0.1 -0.1)">
       <use xlink:href="#DejaVuSans-2212"/>
       <use xlink:href="#DejaVuSans-30" transform="translate(83.789062 0)"/>
       <use xlink:href="#DejaVuSans-2e" transform="translate(147.412109 0)"/>
       <use xlink:href="#DejaVuSans-35" transform="translate(179.199219 0)"/>
       <use xlink:href="#DejaVuSans-30" transform="translate(242.822266 0)"/>
      </g>
     </g>
    </g>
    <g id="ytick_3">
     <g id="line2d_17">
      <path d="M 58.545313 199.662987 
L 322.327131 199.662987 
" clip-path="url(#p59370750c1)" style="fill: none; stroke: #b0b0b0; stroke-opacity: 0.22; stroke-width: 0.8; stroke-linecap: square"/>
     </g>
     <g id="line2d_18">
      <g>
       <use xlink:href="#mfedc0e37ec" x="58.545313" y="199.662987" style="stroke: #000000; stroke-width: 0.8"/>
      </g>
     </g>
     <g id="text_10">
      <!-- −0.25 -->
      <g transform="translate(20.9 203.462206) scale(0.1 -0.1)">
       <use xlink:href="#DejaVuSans-2212"/>
       <use xlink:href="#DejaVuSans-30" transform="translate(83.789062 0)"/>
       <use xlink:href="#DejaVuSans-2e" transform="translate(147.412109 0)"/>
       <use xlink:href="#DejaVuSans-32" transform="translate(179.199219 0)"/>
       <use xlink:href="#DejaVuSans-35" transform="translate(242.822266 0)"/>
      </g>
     </g>
    </g>
    <g id="ytick_4">
     <g id="line2d_19">
      <path d="M 58.545313 166.310046 
L 322.327131 166.310046 
" clip-path="url(#p59370750c1)" style="fill: none; stroke: #b0b0b0; stroke-opacity: 0.22; stroke-width: 0.8; stroke-linecap: square"/>
     </g>
     <g id="line2d_20">
      <g>
       <use xlink:href="#mfedc0e37ec" x="58.545313" y="166.310046" style="stroke: #000000; stroke-width: 0.8"/>
      </g>
     </g>
     <g id="text_11">
      <!-- 0.00 -->
      <g transform="translate(29.279688 170.109265) scale(0.1 -0.1)">
       <use xlink:href="#DejaVuSans-30"/>
       <use xlink:href="#DejaVuSans-2e" transform="translate(63.623047 0)"/>
       <use xlink:href="#DejaVuSans-30" transform="translate(95.410156 0)"/>
       <use xlink:href="#DejaVuSans-30" transform="translate(159.033203 0)"/>
      </g>
     </g>
    </g>
    <g id="ytick_5">
     <g id="line2d_21">
      <path d="M 58.545313 132.957105 
L 322.327131 132.957105 
" clip-path="url(#p59370750c1)" style="fill: none; stroke: #b0b0b0; stroke-opacity: 0.22; stroke-width: 0.8; stroke-linecap: square"/>
     </g>
     <g id="line2d_22">
      <g>
       <use xlink:href="#mfedc0e37ec" x="58.545313" y="132.957105" style="stroke: #000000; stroke-width: 0.8"/>
      </g>
     </g>
     <g id="text_12">
      <!-- 0.25 -->
      <g transform="translate(29.279688 136.756324) scale(0.1 -0.1)">
       <use xlink:href="#DejaVuSans-30"/>
       <use xlink:href="#DejaVuSans-2e" transform="translate(63.623047 0)"/>
       <use xlink:href="#DejaVuSans-32" transform="translate(95.410156 0)"/>
       <use xlink:href="#DejaVuSans-35" transform="translate(159.033203 0)"/>
      </g>
     </g>
    </g>
    <g id="ytick_6">
     <g id="line2d_23">
      <path d="M 58.545313 99.604164 
L 322.327131 99.604164 
" clip-path="url(#p59370750c1)" style="fill: none; stroke: #b0b0b0; stroke-opacity: 0.22; stroke-width: 0.8; stroke-linecap: square"/>
     </g>
     <g id="line2d_24">
      <g>
       <use xlink:href="#mfedc0e37ec" x="58.545313" y="99.604164" style="stroke: #000000; stroke-width: 0.8"/>
      </g>
     </g>
     <g id="text_13">
      <!-- 0.50 -->
      <g transform="translate(29.279688 103.403382) scale(0.1 -0.1)">
       <use xlink:href="#DejaVuSans-30"/>
       <use xlink:href="#DejaVuSans-2e" transform="translate(63.623047 0)"/>
       <use xlink:href="#DejaVuSans-35" transform="translate(95.410156 0)"/>
       <use xlink:href="#DejaVuSans-30" transform="translate(159.033203 0)"/>
      </g>
     </g>
    </g>
    <g id="ytick_7">
     <g id="line2d_25">
      <path d="M 58.545313 66.251222 
L 322.327131 66.251222 
" clip-path="url(#p59370750c1)" style="fill: none; stroke: #b0b0b0; stroke-opacity: 0.22; stroke-width: 0.8; stroke-linecap: square"/>
     </g>
     <g id="line2d_26">
      <g>
       <use xlink:href="#mfedc0e37ec" x="58.545313" y="66.251222" style="stroke: #000000; stroke-width: 0.8"/>
      </g>
     </g>
     <g id="text_14">
      <!-- 0.75 -->
      <g transform="translate(29.279688 70.050441) scale(0.1 -0.1)">
       <use xlink:href="#DejaVuSans-30"/>
       <use xlink:href="#DejaVuSans-2e" transform="translate(63.623047 0)"/>
       <use xlink:href="#DejaVuSans-37" transform="translate(95.410156 0)"/>
       <use xlink:href="#DejaVuSans-35" transform="translate(159.033203 0)"/>
      </g>
     </g>
    </g>
    <g id="ytick_8">
     <g id="line2d_27">
      <path d="M 58.545313 32.898281 
L 322.327131 32.898281 
" clip-path="url(#p59370750c1)" style="fill: none; stroke: #b0b0b0; stroke-opacity: 0.22; stroke-width: 0.8; stroke-linecap: square"/>
     </g>
     <g id="line2d_28">
      <g>
       <use xlink:href="#mfedc0e37ec" x="58.545313" y="32.898281" style="stroke: #000000; stroke-width: 0.8"/>
      </g>
     </g>
     <g id="text_15">
      <!-- 1.00 -->
      <g transform="translate(29.279688 36.6975) scale(0.1 -0.1)">
       <use xlink:href="#DejaVuSans-31"/>
       <use xlink:href="#DejaVuSans-2e" transform="translate(63.623047 0)"/>
       <use xlink:href="#DejaVuSans-30" transform="translate(95.410156 0)"/>
       <use xlink:href="#DejaVuSans-30" transform="translate(159.033203 0)"/>
      </g>
     </g>
    </g>
    <g id="text_16">
     <!-- Quantity $g(t)$ -->
     <g transform="translate(14.8 178.548281) rotate(-90) scale(0.1 -0.1)">
      <defs>
       <path id="DejaVuSans-51" d="M 2522 4238 
Q 1834 4238 1429 3725 
Q 1025 3213 1025 2328 
Q 1025 1447 1429 934 
Q 1834 422 2522 422 
Q 3209 422 3611 934 
Q 4013 1447 4013 2328 
Q 4013 3213 3611 3725 
Q 3209 4238 2522 4238 
z
M 3406 84 
L 4238 -825 
L 3475 -825 
L 2784 -78 
Q 2681 -84 2626 -87 
Q 2572 -91 2522 -91 
Q 1538 -91 948 567 
Q 359 1225 359 2328 
Q 359 3434 948 4092 
Q 1538 4750 2522 4750 
Q 3503 4750 4090 4092 
Q 4678 3434 4678 2328 
Q 4678 1516 4351 937 
Q 4025 359 3406 84 
z
" transform="scale(0.015625)"/>
       <path id="DejaVuSans-75" d="M 544 1381 
L 544 3500 
L 1119 3500 
L 1119 1403 
Q 1119 906 1312 657 
Q 1506 409 1894 409 
Q 2359 409 2629 706 
Q 2900 1003 2900 1516 
L 2900 3500 
L 3475 3500 
L 3475 0 
L 2900 0 
L 2900 538 
Q 2691 219 2414 64 
Q 2138 -91 1772 -91 
Q 1169 -91 856 284 
Q 544 659 544 1381 
z
M 1991 3584 
L 1991 3584 
z
" transform="scale(0.015625)"/>
       <path id="DejaVuSans-61" d="M 2194 1759 
Q 1497 1759 1228 1600 
Q 959 1441 959 1056 
Q 959 750 1161 570 
Q 1363 391 1709 391 
Q 2188 391 2477 730 
Q 2766 1069 2766 1631 
L 2766 1759 
L 2194 1759 
z
M 3341 1997 
L 3341 0 
L 2766 0 
L 2766 531 
Q 2569 213 2275 61 
Q 1981 -91 1556 -91 
Q 1019 -91 701 211 
Q 384 513 384 1019 
Q 384 1609 779 1909 
Q 1175 2209 1959 2209 
L 2766 2209 
L 2766 2266 
Q 2766 2663 2505 2880 
Q 2244 3097 1772 3097 
Q 1472 3097 1187 3025 
Q 903 2953 641 2809 
L 641 3341 
Q 956 3463 1253 3523 
Q 1550 3584 1831 3584 
Q 2591 3584 2966 3190 
Q 3341 2797 3341 1997 
z
" transform="scale(0.015625)"/>
       <path id="DejaVuSans-6e" d="M 3513 2113 
L 3513 0 
L 2938 0 
L 2938 2094 
Q 2938 2591 2744 2837 
Q 2550 3084 2163 3084 
Q 1697 3084 1428 2787 
Q 1159 2491 1159 1978 
L 1159 0 
L 581 0 
L 581 3500 
L 1159 3500 
L 1159 2956 
Q 1366 3272 1645 3428 
Q 1925 3584 2291 3584 
Q 2894 3584 3203 3211 
Q 3513 2838 3513 2113 
z
" transform="scale(0.015625)"/>
       <path id="DejaVuSans-74" d="M 1172 4494 
L 1172 3500 
L 2356 3500 
L 2356 3053 
L 1172 3053 
L 1172 1153 
Q 1172 725 1289 603 
Q 1406 481 1766 481 
L 2356 481 
L 2356 0 
L 1766 0 
Q 1100 0 847 248 
Q 594 497 594 1153 
L 594 3053 
L 172 3053 
L 172 3500 
L 594 3500 
L 594 4494 
L 1172 4494 
z
" transform="scale(0.015625)"/>
       <path id="DejaVuSans-79" d="M 2059 -325 
Q 1816 -950 1584 -1140 
Q 1353 -1331 966 -1331 
L 506 -1331 
L 506 -850 
L 844 -850 
Q 1081 -850 1212 -737 
Q 1344 -625 1503 -206 
L 1606 56 
L 191 3500 
L 800 3500 
L 1894 763 
L 2988 3500 
L 3597 3500 
L 2059 -325 
z
" transform="scale(0.015625)"/>
       <path id="DejaVuSans-Oblique-67" d="M 3816 3500 
L 3219 434 
Q 3047 -456 2561 -893 
Q 2075 -1331 1253 -1331 
Q 950 -1331 690 -1286 
Q 431 -1241 206 -1147 
L 313 -588 
Q 525 -725 762 -790 
Q 1000 -856 1269 -856 
Q 1816 -856 2167 -557 
Q 2519 -259 2631 300 
L 2681 563 
Q 2441 288 2122 144 
Q 1803 0 1434 0 
Q 903 0 598 351 
Q 294 703 294 1319 
Q 294 1803 478 2267 
Q 663 2731 997 3091 
Q 1219 3328 1514 3456 
Q 1809 3584 2131 3584 
Q 2484 3584 2746 3420 
Q 3009 3256 3138 2956 
L 3238 3500 
L 3816 3500 
z
M 2950 2216 
Q 2950 2641 2750 2872 
Q 2550 3103 2181 3103 
Q 1953 3103 1747 3012 
Q 1541 2922 1394 2759 
Q 1156 2491 1023 2127 
Q 891 1763 891 1375 
Q 891 944 1092 712 
Q 1294 481 1672 481 
Q 2219 481 2584 976 
Q 2950 1472 2950 2216 
z
" transform="scale(0.015625)"/>
       <path id="DejaVuSans-28" d="M 1984 4856 
Q 1566 4138 1362 3434 
Q 1159 2731 1159 2009 
Q 1159 1288 1364 580 
Q 1569 -128 1984 -844 
L 1484 -844 
Q 1016 -109 783 600 
Q 550 1309 550 2009 
Q 550 2706 781 3412 
Q 1013 4119 1484 4856 
L 1984 4856 
z
" transform="scale(0.015625)"/>
       <path id="DejaVuSans-29" d="M 513 4856 
L 1013 4856 
Q 1481 4119 1714 3412 
Q 1947 2706 1947 2009 
Q 1947 1309 1714 600 
Q 1481 -109 1013 -844 
L 513 -844 
Q 928 -128 1133 580 
Q 1338 1288 1338 2009 
Q 1338 2731 1133 3434 
Q 928 4138 513 4856 
z
" transform="scale(0.015625)"/>
      </defs>
      <use xlink:href="#DejaVuSans-51" transform="translate(0 0.015625)"/>
      <use xlink:href="#DejaVuSans-75" transform="translate(78.710938 0.015625)"/>
      <use xlink:href="#DejaVuSans-61" transform="translate(142.089844 0.015625)"/>
      <use xlink:href="#DejaVuSans-6e" transform="translate(203.369141 0.015625)"/>
      <use xlink:href="#DejaVuSans-74" transform="translate(266.748047 0.015625)"/>
      <use xlink:href="#DejaVuSans-69" transform="translate(305.957031 0.015625)"/>
      <use xlink:href="#DejaVuSans-74" transform="translate(333.740234 0.015625)"/>
      <use xlink:href="#DejaVuSans-79" transform="translate(372.949219 0.015625)"/>
      <use xlink:href="#DejaVuSans-20" transform="translate(432.128906 0.015625)"/>
      <use xlink:href="#DejaVuSans-Oblique-67" transform="translate(463.916016 0.015625)"/>
      <use xlink:href="#DejaVuSans-28" transform="translate(527.392578 0.015625)"/>
      <use xlink:href="#DejaVuSans-Oblique-74" transform="translate(566.40625 0.015625)"/>
      <use xlink:href="#DejaVuSans-29" transform="translate(605.615234 0.015625)"/>
     </g>
    </g>
   </g>
   <g id="line2d_29">
    <path d="M 70.535395 32.898281 
L 71.136402 33.197689 
L 71.737408 33.667103 
L 72.338415 34.305087 
L 73.540428 36.079701 
L 74.742442 38.50481 
L 75.944455 41.559651 
L 77.146468 45.219586 
L 78.348482 49.456286 
L 80.151502 56.822313 
L 81.954521 65.292994 
L 83.757541 74.733108 
L 86.161568 88.571378 
L 89.166601 107.346377 
L 99.984721 176.775984 
L 102.388748 190.158807 
L 104.191767 199.225593 
L 105.994787 207.325505 
L 107.797807 214.353431 
L 109.600827 220.22096 
L 110.802841 223.45234 
L 112.004854 226.11984 
L 113.206867 228.210842 
L 114.408881 229.716529 
L 115.610894 230.631912 
L 116.2119 230.867728 
L 116.812907 230.955831 
L 117.413914 230.89667 
L 118.01492 230.69093 
L 118.615927 230.339529 
L 119.81794 229.204562 
L 121.019954 227.503671 
L 122.221967 225.252294 
L 123.42398 222.46928 
L 124.625994 219.176739 
L 126.429013 213.338503 
L 128.232033 206.508342 
L 130.035053 198.7965 
L 132.43908 187.354162 
L 135.444113 171.632608 
L 139.65116 148.161231 
L 144.459213 121.431495 
L 147.464246 105.925214 
L 149.868273 94.680604 
L 151.671293 87.104275 
L 153.474313 80.375096 
L 155.277333 74.579865 
L 156.479346 71.271569 
L 157.681359 68.428475 
L 158.883373 66.065116 
L 160.085386 64.192832 
L 161.287399 62.819716 
L 162.489412 61.950597 
L 163.090419 61.705649 
L 163.691426 61.587026 
L 164.292432 61.594416 
L 164.893439 61.7273 
L 165.494446 61.984964 
L 166.696459 62.870778 
L 167.898472 64.242216 
L 169.100486 66.086595 
L 170.302499 68.3883 
L 171.504512 71.128901 
L 173.307532 76.015891 
L 175.110552 81.760714 
L 176.913572 88.270362 
L 179.317599 97.960522 
L 182.322632 111.319328 
L 186.529678 131.337104 
L 191.938738 156.981723 
L 194.943771 170.076807 
L 197.347798 179.515819 
L 199.150818 185.839316 
L 200.953838 191.42156 
L 202.756858 196.191007 
L 203.958871 198.889419 
L 205.160884 201.185878 
L 206.362898 203.068853 
L 207.564911 204.52956 
L 208.766924 205.561997 
L 209.968938 206.162957 
L 211.170951 206.332029 
L 212.372964 206.071577 
L 213.574978 205.386706 
L 214.776991 204.285201 
L 215.979004 202.77746 
L 217.181017 200.876408 
L 218.383031 198.597387 
L 220.186051 194.509371 
L 221.989071 189.679717 
L 223.792091 184.186862 
L 226.196117 175.982938 
L 228.600144 166.981331 
L 232.206184 152.516783 
L 239.418263 123.26983 
L 242.423297 112.220012 
L 244.827323 104.30448 
L 246.630343 99.033084 
L 248.433363 94.409453 
L 250.236383 90.492439 
L 251.438396 88.297817 
L 252.64041 86.450211 
L 253.842423 84.958707 
L 255.044436 83.830035 
L 256.24645 83.068543 
L 257.448463 82.676184 
L 258.650476 82.652529 
L 259.85249 82.994784 
L 261.054503 83.69783 
L 262.256516 84.754271 
L 263.458529 86.154504 
L 264.660543 87.886795 
L 265.862556 89.93737 
L 267.665576 93.575164 
L 269.468596 97.832803 
L 271.271616 102.641546 
L 273.675642 109.778491 
L 276.680676 119.587407 
L 281.488729 136.357212 
L 286.296782 152.926796 
L 289.301815 162.434513 
L 291.705842 169.267647 
L 293.508862 173.832547 
L 295.311882 177.850169 
L 297.114902 181.269188 
L 298.316915 183.194796 
L 299.518928 184.825366 
L 300.720942 186.152789 
L 301.922955 187.170966 
L 303.124968 187.875831 
L 304.326982 188.265363 
L 305.528995 188.33958 
L 306.731008 188.100525 
L 307.933021 187.552233 
L 309.135035 186.700696 
L 310.337048 185.553801 
L 310.337048 185.553801 
" clip-path="url(#p59370750c1)" style="fill: none; stroke: #2f855a; stroke-width: 2.2; stroke-linecap: square"/>
   </g>
   <g id="line2d_30">
    <path d="M 58.545313 46.239458 
L 322.327131 46.239458 
" clip-path="url(#p59370750c1)" style="fill: none; stroke-dasharray: 6.66,2.88; stroke-dashoffset: 0; stroke: #b23a48; stroke-width: 1.8"/>
   </g>
   <g id="line2d_31">
    <path d="M 58.545313 259.698281 
L 322.327131 259.698281 
" clip-path="url(#p59370750c1)" style="fill: none; stroke-dasharray: 6.66,2.88; stroke-dashoffset: 0; stroke: #b23a48; stroke-width: 1.8"/>
   </g>
   <g id="patch_3">
    <path d="M 58.545313 271.038281 
L 58.545313 21.558281 
" style="fill: none; stroke: #000000; stroke-width: 0.8; stroke-linejoin: miter; stroke-linecap: square"/>
   </g>
   <g id="patch_4">
    <path d="M 322.327131 271.038281 
L 322.327131 21.558281 
" style="fill: none; stroke: #000000; stroke-width: 0.8; stroke-linejoin: miter; stroke-linecap: square"/>
   </g>
   <g id="patch_5">
    <path d="M 58.545313 271.038281 
L 322.327131 271.038281 
" style="fill: none; stroke: #000000; stroke-width: 0.8; stroke-linejoin: miter; stroke-linecap: square"/>
   </g>
   <g id="patch_6">
    <path d="M 58.545313 21.558281 
L 322.327131 21.558281 
" style="fill: none; stroke: #000000; stroke-width: 0.8; stroke-linejoin: miter; stroke-linecap: square"/>
   </g>
   <g id="text_17">
    <!-- must hold for every time point -->
    <g style="fill: #5b6573" transform="translate(166 38.5) scale(0.082 -0.082)">
     <defs>
      <path id="DejaVuSans-73" d="M 2834 3397 
L 2834 2853 
Q 2591 2978 2328 3040 
Q 2066 3103 1784 3103 
Q 1356 3103 1142 2972 
Q 928 2841 928 2578 
Q 928 2378 1081 2264 
Q 1234 2150 1697 2047 
L 1894 2003 
Q 2506 1872 2764 1633 
Q 3022 1394 3022 966 
Q 3022 478 2636 193 
Q 2250 -91 1575 -91 
Q 1294 -91 989 -36 
Q 684 19 347 128 
L 347 722 
Q 666 556 975 473 
Q 1284 391 1588 391 
Q 1994 391 2212 530 
Q 2431 669 2431 922 
Q 2431 1156 2273 1281 
Q 2116 1406 1581 1522 
L 1381 1569 
Q 847 1681 609 1914 
Q 372 2147 372 2553 
Q 372 3047 722 3315 
Q 1072 3584 1716 3584 
Q 2034 3584 2315 3537 
Q 2597 3491 2834 3397 
z
" transform="scale(0.015625)"/>
      <path id="DejaVuSans-68" d="M 3513 2113 
L 3513 0 
L 2938 0 
L 2938 2094 
Q 2938 2591 2744 2837 
Q 2550 3084 2163 3084 
Q 1697 3084 1428 2787 
Q 1159 2491 1159 1978 
L 1159 0 
L 581 0 
L 581 4863 
L 1159 4863 
L 1159 2956 
Q 1366 3272 1645 3428 
Q 1925 3584 2291 3584 
Q 2894 3584 3203 3211 
Q 3513 2838 3513 2113 
z
" transform="scale(0.015625)"/>
      <path id="DejaVuSans-6f" d="M 1959 3097 
Q 1497 3097 1228 2736 
Q 959 2375 959 1747 
Q 959 1119 1226 758 
Q 1494 397 1959 397 
Q 2419 397 2687 759 
Q 2956 1122 2956 1747 
Q 2956 2369 2687 2733 
Q 2419 3097 1959 3097 
z
M 1959 3584 
Q 2709 3584 3137 3096 
Q 3566 2609 3566 1747 
Q 3566 888 3137 398 
Q 2709 -91 1959 -91 
Q 1206 -91 779 398 
Q 353 888 353 1747 
Q 353 2609 779 3096 
Q 1206 3584 1959 3584 
z
" transform="scale(0.015625)"/>
      <path id="DejaVuSans-6c" d="M 603 4863 
L 1178 4863 
L 1178 0 
L 603 0 
L 603 4863 
z
" transform="scale(0.015625)"/>
      <path id="DejaVuSans-64" d="M 2906 2969 
L 2906 4863 
L 3481 4863 
L 3481 0 
L 2906 0 
L 2906 525 
Q 2725 213 2448 61 
Q 2172 -91 1784 -91 
Q 1150 -91 751 415 
Q 353 922 353 1747 
Q 353 2572 751 3078 
Q 1150 3584 1784 3584 
Q 2172 3584 2448 3432 
Q 2725 3281 2906 2969 
z
M 947 1747 
Q 947 1113 1208 752 
Q 1469 391 1925 391 
Q 2381 391 2643 752 
Q 2906 1113 2906 1747 
Q 2906 2381 2643 2742 
Q 2381 3103 1925 3103 
Q 1469 3103 1208 2742 
Q 947 2381 947 1747 
z
" transform="scale(0.015625)"/>
      <path id="DejaVuSans-66" d="M 2375 4863 
L 2375 4384 
L 1825 4384 
Q 1516 4384 1395 4259 
Q 1275 4134 1275 3809 
L 1275 3500 
L 2222 3500 
L 2222 3053 
L 1275 3053 
L 1275 0 
L 697 0 
L 697 3053 
L 147 3053 
L 147 3500 
L 697 3500 
L 697 3744 
Q 697 4328 969 4595 
Q 1241 4863 1831 4863 
L 2375 4863 
z
" transform="scale(0.015625)"/>
      <path id="DejaVuSans-72" d="M 2631 2963 
Q 2534 3019 2420 3045 
Q 2306 3072 2169 3072 
Q 1681 3072 1420 2755 
Q 1159 2438 1159 1844 
L 1159 0 
L 581 0 
L 581 3500 
L 1159 3500 
L 1159 2956 
Q 1341 3275 1631 3429 
Q 1922 3584 2338 3584 
Q 2397 3584 2469 3576 
Q 2541 3569 2628 3553 
L 2631 2963 
z
" transform="scale(0.015625)"/>
      <path id="DejaVuSans-76" d="M 191 3500 
L 800 3500 
L 1894 563 
L 2988 3500 
L 3597 3500 
L 2284 0 
L 1503 0 
L 191 3500 
z
" transform="scale(0.015625)"/>
      <path id="DejaVuSans-70" d="M 1159 525 
L 1159 -1331 
L 581 -1331 
L 581 3500 
L 1159 3500 
L 1159 2969 
Q 1341 3281 1617 3432 
Q 1894 3584 2278 3584 
Q 2916 3584 3314 3078 
Q 3713 2572 3713 1747 
Q 3713 922 3314 415 
Q 2916 -91 2278 -91 
Q 1894 -91 1617 61 
Q 1341 213 1159 525 
z
M 3116 1747 
Q 3116 2381 2855 2742 
Q 2594 3103 2138 3103 
Q 1681 3103 1420 2742 
Q 1159 2381 1159 1747 
Q 1159 1113 1420 752 
Q 1681 391 2138 391 
Q 2594 391 2855 752 
Q 3116 1113 3116 1747 
z
" transform="scale(0.015625)"/>
     </defs>
     <use xlink:href="#DejaVuSans-6d"/>
     <use xlink:href="#DejaVuSans-75" transform="translate(97.412109 0)"/>
     <use xlink:href="#DejaVuSans-73" transform="translate(160.791016 0)"/>
     <use xlink:href="#DejaVuSans-74" transform="translate(212.890625 0)"/>
     <use xlink:href="#DejaVuSans-20" transform="translate(252.099609 0)"/>
     <use xlink:href="#DejaVuSans-68" transform="translate(283.886719 0)"/>
     <use xlink:href="#DejaVuSans-6f" transform="translate(347.265625 0)"/>
     <use xlink:href="#DejaVuSans-6c" transform="translate(408.447266 0)"/>
     <use xlink:href="#DejaVuSans-64" transform="translate(436.230469 0)"/>
     <use xlink:href="#DejaVuSans-20" transform="translate(499.707031 0)"/>
     <use xlink:href="#DejaVuSans-66" transform="translate(531.494141 0)"/>
     <use xlink:href="#DejaVuSans-6f" transform="translate(566.699219 0)"/>
     <use xlink:href="#DejaVuSans-72" transform="translate(627.880859 0)"/>
     <use xlink:href="#DejaVuSans-20" transform="translate(668.994141 0)"/>
     <use xlink:href="#DejaVuSans-65" transform="translate(700.78125 0)"/>
     <use xlink:href="#DejaVuSans-76" transform="translate(762.304688 0)"/>
     <use xlink:href="#DejaVuSans-65" transform="translate(821.484375 0)"/>
     <use xlink:href="#DejaVuSans-72" transform="translate(883.007812 0)"/>
     <use xlink:href="#DejaVuSans-79" transform="translate(924.121094 0)"/>
     <use xlink:href="#DejaVuSans-20" transform="translate(983.300781 0)"/>
     <use xlink:href="#DejaVuSans-74" transform="translate(1015.087891 0)"/>
     <use xlink:href="#DejaVuSans-69" transform="translate(1054.296875 0)"/>
     <use xlink:href="#DejaVuSans-6d" transform="translate(1082.080078 0)"/>
     <use xlink:href="#DejaVuSans-65" transform="translate(1179.492188 0)"/>
     <use xlink:href="#DejaVuSans-20" transform="translate(1241.015625 0)"/>
     <use xlink:href="#DejaVuSans-70" transform="translate(1272.802734 0)"/>
     <use xlink:href="#DejaVuSans-6f" transform="translate(1336.279297 0)"/>
     <use xlink:href="#DejaVuSans-69" transform="translate(1397.460938 0)"/>
     <use xlink:href="#DejaVuSans-6e" transform="translate(1425.244141 0)"/>
     <use xlink:href="#DejaVuSans-74" transform="translate(1488.623047 0)"/>
    </g>
   </g>
   <g id="text_18">
    <!-- Path constraints -->
    <g style="fill: #123b63" transform="translate(139.395362 15.558281) scale(0.11 -0.11)">
     <defs>
      <path id="DejaVuSans-Bold-50" d="M 588 4666 
L 2584 4666 
Q 3475 4666 3951 4270 
Q 4428 3875 4428 3144 
Q 4428 2409 3951 2014 
Q 3475 1619 2584 1619 
L 1791 1619 
L 1791 0 
L 588 0 
L 588 4666 
z
M 1791 3794 
L 1791 2491 
L 2456 2491 
Q 2806 2491 2997 2661 
Q 3188 2831 3188 3144 
Q 3188 3456 2997 3625 
Q 2806 3794 2456 3794 
L 1791 3794 
z
" transform="scale(0.015625)"/>
      <path id="DejaVuSans-Bold-61" d="M 2106 1575 
Q 1756 1575 1579 1456 
Q 1403 1338 1403 1106 
Q 1403 894 1545 773 
Q 1688 653 1941 653 
Q 2256 653 2472 879 
Q 2688 1106 2688 1447 
L 2688 1575 
L 2106 1575 
z
M 3816 1997 
L 3816 0 
L 2688 0 
L 2688 519 
Q 2463 200 2181 54 
Q 1900 -91 1497 -91 
Q 953 -91 614 226 
Q 275 544 275 1050 
Q 275 1666 698 1953 
Q 1122 2241 2028 2241 
L 2688 2241 
L 2688 2328 
Q 2688 2594 2478 2717 
Q 2269 2841 1825 2841 
Q 1466 2841 1156 2769 
Q 847 2697 581 2553 
L 581 3406 
Q 941 3494 1303 3539 
Q 1666 3584 2028 3584 
Q 2975 3584 3395 3211 
Q 3816 2838 3816 1997 
z
" transform="scale(0.015625)"/>
      <path id="DejaVuSans-Bold-74" d="M 1759 4494 
L 1759 3500 
L 2913 3500 
L 2913 2700 
L 1759 2700 
L 1759 1216 
Q 1759 972 1856 886 
Q 1953 800 2241 800 
L 2816 800 
L 2816 0 
L 1856 0 
Q 1194 0 917 276 
Q 641 553 641 1216 
L 641 2700 
L 84 2700 
L 84 3500 
L 641 3500 
L 641 4494 
L 1759 4494 
z
" transform="scale(0.015625)"/>
      <path id="DejaVuSans-Bold-68" d="M 4056 2131 
L 4056 0 
L 2931 0 
L 2931 347 
L 2931 1625 
Q 2931 2084 2911 2256 
Q 2891 2428 2841 2509 
Q 2775 2619 2662 2680 
Q 2550 2741 2406 2741 
Q 2056 2741 1856 2470 
Q 1656 2200 1656 1722 
L 1656 0 
L 538 0 
L 538 4863 
L 1656 4863 
L 1656 2988 
Q 1909 3294 2193 3439 
Q 2478 3584 2822 3584 
Q 3428 3584 3742 3212 
Q 4056 2841 4056 2131 
z
" transform="scale(0.015625)"/>
      <path id="DejaVuSans-Bold-20" transform="scale(0.015625)"/>
      <path id="DejaVuSans-Bold-63" d="M 3366 3391 
L 3366 2478 
Q 3138 2634 2908 2709 
Q 2678 2784 2431 2784 
Q 1963 2784 1702 2511 
Q 1441 2238 1441 1747 
Q 1441 1256 1702 982 
Q 1963 709 2431 709 
Q 2694 709 2930 787 
Q 3166 866 3366 1019 
L 3366 103 
Q 3103 6 2833 -42 
Q 2563 -91 2291 -91 
Q 1344 -91 809 395 
Q 275 881 275 1747 
Q 275 2613 809 3098 
Q 1344 3584 2291 3584 
Q 2566 3584 2833 3536 
Q 3100 3488 3366 3391 
z
" transform="scale(0.015625)"/>
      <path id="DejaVuSans-Bold-6f" d="M 2203 2784 
Q 1831 2784 1636 2517 
Q 1441 2250 1441 1747 
Q 1441 1244 1636 976 
Q 1831 709 2203 709 
Q 2569 709 2762 976 
Q 2956 1244 2956 1747 
Q 2956 2250 2762 2517 
Q 2569 2784 2203 2784 
z
M 2203 3584 
Q 3106 3584 3614 3096 
Q 4122 2609 4122 1747 
Q 4122 884 3614 396 
Q 3106 -91 2203 -91 
Q 1297 -91 786 396 
Q 275 884 275 1747 
Q 275 2609 786 3096 
Q 1297 3584 2203 3584 
z
" transform="scale(0.015625)"/>
      <path id="DejaVuSans-Bold-6e" d="M 4056 2131 
L 4056 0 
L 2931 0 
L 2931 347 
L 2931 1631 
Q 2931 2084 2911 2256 
Q 2891 2428 2841 2509 
Q 2775 2619 2662 2680 
Q 2550 2741 2406 2741 
Q 2056 2741 1856 2470 
Q 1656 2200 1656 1722 
L 1656 0 
L 538 0 
L 538 3500 
L 1656 3500 
L 1656 2988 
Q 1909 3294 2193 3439 
Q 2478 3584 2822 3584 
Q 3428 3584 3742 3212 
Q 4056 2841 4056 2131 
z
" transform="scale(0.015625)"/>
      <path id="DejaVuSans-Bold-73" d="M 3272 3391 
L 3272 2541 
Q 2913 2691 2578 2766 
Q 2244 2841 1947 2841 
Q 1628 2841 1473 2761 
Q 1319 2681 1319 2516 
Q 1319 2381 1436 2309 
Q 1553 2238 1856 2203 
L 2053 2175 
Q 2913 2066 3209 1816 
Q 3506 1566 3506 1031 
Q 3506 472 3093 190 
Q 2681 -91 1863 -91 
Q 1516 -91 1145 -36 
Q 775 19 384 128 
L 384 978 
Q 719 816 1070 734 
Q 1422 653 1784 653 
Q 2113 653 2278 743 
Q 2444 834 2444 1013 
Q 2444 1163 2330 1236 
Q 2216 1309 1875 1350 
L 1678 1375 
Q 931 1469 631 1722 
Q 331 1975 331 2491 
Q 331 3047 712 3315 
Q 1094 3584 1881 3584 
Q 2191 3584 2531 3537 
Q 2872 3491 3272 3391 
z
" transform="scale(0.015625)"/>
      <path id="DejaVuSans-Bold-72" d="M 3138 2547 
Q 2991 2616 2845 2648 
Q 2700 2681 2553 2681 
Q 2122 2681 1889 2404 
Q 1656 2128 1656 1613 
L 1656 0 
L 538 0 
L 538 3500 
L 1656 3500 
L 1656 2925 
Q 1872 3269 2151 3426 
Q 2431 3584 2822 3584 
Q 2878 3584 2943 3579 
Q 3009 3575 3134 3559 
L 3138 2547 
z
" transform="scale(0.015625)"/>
      <path id="DejaVuSans-Bold-69" d="M 538 3500 
L 1656 3500 
L 1656 0 
L 538 0 
L 538 3500 
z
M 538 4863 
L 1656 4863 
L 1656 3950 
L 538 3950 
L 538 4863 
z
" transform="scale(0.015625)"/>
     </defs>
     <use xlink:href="#DejaVuSans-Bold-50"/>
     <use xlink:href="#DejaVuSans-Bold-61" transform="translate(70.666016 0)"/>
     <use xlink:href="#DejaVuSans-Bold-74" transform="translate(138.146484 0)"/>
     <use xlink:href="#DejaVuSans-Bold-68" transform="translate(185.949219 0)"/>
     <use xlink:href="#DejaVuSans-Bold-20" transform="translate(257.140625 0)"/>
     <use xlink:href="#DejaVuSans-Bold-63" transform="translate(291.955078 0)"/>
     <use xlink:href="#DejaVuSans-Bold-6f" transform="translate(351.232422 0)"/>
     <use xlink:href="#DejaVuSans-Bold-6e" transform="translate(419.933594 0)"/>
     <use xlink:href="#DejaVuSans-Bold-73" transform="translate(491.125 0)"/>
     <use xlink:href="#DejaVuSans-Bold-74" transform="translate(550.646484 0)"/>
     <use xlink:href="#DejaVuSans-Bold-72" transform="translate(598.449219 0)"/>
     <use xlink:href="#DejaVuSans-Bold-61" transform="translate(647.765625 0)"/>
     <use xlink:href="#DejaVuSans-Bold-69" transform="translate(715.246094 0)"/>
     <use xlink:href="#DejaVuSans-Bold-6e" transform="translate(749.523438 0)"/>
     <use xlink:href="#DejaVuSans-Bold-74" transform="translate(820.714844 0)"/>
     <use xlink:href="#DejaVuSans-Bold-73" transform="translate(868.517578 0)"/>
    </g>
   </g>
  </g>
  <g id="axes_2">
   <g id="patch_7">
    <path d="M 375.083494 271.038281 
L 638.865312 271.038281 
L 638.865312 21.558281 
L 375.083494 21.558281 
z
" style="fill: #ffffff"/>
   </g>
   <g id="matplotlib.axis_3">
    <g id="xtick_7">
     <g id="line2d_32">
      <path d="M 387.073577 271.038281 
L 387.073577 21.558281 
" clip-path="url(#p68680c99c5)" style="fill: none; stroke: #b0b0b0; stroke-opacity: 0.22; stroke-width: 0.8; stroke-linecap: square"/>
     </g>
     <g id="line2d_33">
      <g>
       <use xlink:href="#md67ef01ebc" x="387.073577" y="271.038281" style="stroke: #000000; stroke-width: 0.8"/>
      </g>
     </g>
     <g id="text_19">
      <!-- 0 -->
      <g transform="translate(383.892327 285.636719) scale(0.1 -0.1)">
       <use xlink:href="#DejaVuSans-30"/>
      </g>
     </g>
    </g>
    <g id="xtick_8">
     <g id="line2d_34">
      <path d="M 435.033908 271.038281 
L 435.033908 21.558281 
" clip-path="url(#p68680c99c5)" style="fill: none; stroke: #b0b0b0; stroke-opacity: 0.22; stroke-width: 0.8; stroke-linecap: square"/>
     </g>
     <g id="line2d_35">
      <g>
       <use xlink:href="#md67ef01ebc" x="435.033908" y="271.038281" style="stroke: #000000; stroke-width: 0.8"/>
      </g>
     </g>
     <g id="text_20">
      <!-- 2 -->
      <g transform="translate(431.852658 285.636719) scale(0.1 -0.1)">
       <use xlink:href="#DejaVuSans-32"/>
      </g>
     </g>
    </g>
    <g id="xtick_9">
     <g id="line2d_36">
      <path d="M 482.994238 271.038281 
L 482.994238 21.558281 
" clip-path="url(#p68680c99c5)" style="fill: none; stroke: #b0b0b0; stroke-opacity: 0.22; stroke-width: 0.8; stroke-linecap: square"/>
     </g>
     <g id="line2d_37">
      <g>
       <use xlink:href="#md67ef01ebc" x="482.994238" y="271.038281" style="stroke: #000000; stroke-width: 0.8"/>
      </g>
     </g>
     <g id="text_21">
      <!-- 4 -->
      <g transform="translate(479.812988 285.636719) scale(0.1 -0.1)">
       <use xlink:href="#DejaVuSans-34"/>
      </g>
     </g>
    </g>
    <g id="xtick_10">
     <g id="line2d_38">
      <path d="M 530.954569 271.038281 
L 530.954569 21.558281 
" clip-path="url(#p68680c99c5)" style="fill: none; stroke: #b0b0b0; stroke-opacity: 0.22; stroke-width: 0.8; stroke-linecap: square"/>
     </g>
     <g id="line2d_39">
      <g>
       <use xlink:href="#md67ef01ebc" x="530.954569" y="271.038281" style="stroke: #000000; stroke-width: 0.8"/>
      </g>
     </g>
     <g id="text_22">
      <!-- 6 -->
      <g transform="translate(527.773319 285.636719) scale(0.1 -0.1)">
       <use xlink:href="#DejaVuSans-36"/>
      </g>
     </g>
    </g>
    <g id="xtick_11">
     <g id="line2d_40">
      <path d="M 578.914899 271.038281 
L 578.914899 21.558281 
" clip-path="url(#p68680c99c5)" style="fill: none; stroke: #b0b0b0; stroke-opacity: 0.22; stroke-width: 0.8; stroke-linecap: square"/>
     </g>
     <g id="line2d_41">
      <g>
       <use xlink:href="#md67ef01ebc" x="578.914899" y="271.038281" style="stroke: #000000; stroke-width: 0.8"/>
      </g>
     </g>
     <g id="text_23">
      <!-- 8 -->
      <g transform="translate(575.733649 285.636719) scale(0.1 -0.1)">
       <use xlink:href="#DejaVuSans-38"/>
      </g>
     </g>
    </g>
    <g id="xtick_12">
     <g id="line2d_42">
      <path d="M 626.87523 271.038281 
L 626.87523 21.558281 
" clip-path="url(#p68680c99c5)" style="fill: none; stroke: #b0b0b0; stroke-opacity: 0.22; stroke-width: 0.8; stroke-linecap: square"/>
     </g>
     <g id="line2d_43">
      <g>
       <use xlink:href="#md67ef01ebc" x="626.87523" y="271.038281" style="stroke: #000000; stroke-width: 0.8"/>
      </g>
     </g>
     <g id="text_24">
      <!-- 10 -->
      <g transform="translate(620.51273 285.636719) scale(0.1 -0.1)">
       <use xlink:href="#DejaVuSans-31"/>
       <use xlink:href="#DejaVuSans-30" transform="translate(63.623047 0)"/>
      </g>
     </g>
    </g>
    <g id="text_25">
     <!-- Time $t$ -->
     <g transform="translate(491.024403 299.314844) scale(0.1 -0.1)">
      <use xlink:href="#DejaVuSans-54" transform="translate(0 0.015625)"/>
      <use xlink:href="#DejaVuSans-69" transform="translate(61.083984 0.015625)"/>
      <use xlink:href="#DejaVuSans-6d" transform="translate(88.867188 0.015625)"/>
      <use xlink:href="#DejaVuSans-65" transform="translate(186.279297 0.015625)"/>
      <use xlink:href="#DejaVuSans-20" transform="translate(247.802734 0.015625)"/>
      <use xlink:href="#DejaVuSans-Oblique-74" transform="translate(279.589844 0.015625)"/>
     </g>
    </g>
   </g>
   <g id="matplotlib.axis_4">
    <g id="ytick_9">
     <g id="line2d_44">
      <path d="M 375.083494 246.780073 
L 638.865312 246.780073 
" clip-path="url(#p68680c99c5)" style="fill: none; stroke: #b0b0b0; stroke-opacity: 0.22; stroke-width: 0.8; stroke-linecap: square"/>
     </g>
     <g id="line2d_45">
      <g>
       <use xlink:href="#mfedc0e37ec" x="375.083494" y="246.780073" style="stroke: #000000; stroke-width: 0.8"/>
      </g>
     </g>
     <g id="text_26">
      <!-- −0.4 -->
      <g transform="translate(343.800682 250.579291) scale(0.1 -0.1)">
       <use xlink:href="#DejaVuSans-2212"/>
       <use xlink:href="#DejaVuSans-30" transform="translate(83.789062 0)"/>
       <use xlink:href="#DejaVuSans-2e" transform="translate(147.412109 0)"/>
       <use xlink:href="#DejaVuSans-34" transform="translate(179.199219 0)"/>
      </g>
     </g>
    </g>
    <g id="ytick_10">
     <g id="line2d_46">
      <path d="M 375.083494 216.225531 
L 638.865312 216.225531 
" clip-path="url(#p68680c99c5)" style="fill: none; stroke: #b0b0b0; stroke-opacity: 0.22; stroke-width: 0.8; stroke-linecap: square"/>
     </g>
     <g id="line2d_47">
      <g>
       <use xlink:href="#mfedc0e37ec" x="375.083494" y="216.225531" style="stroke: #000000; stroke-width: 0.8"/>
      </g>
     </g>
     <g id="text_27">
      <!-- −0.2 -->
      <g transform="translate(343.800682 220.02475) scale(0.1 -0.1)">
       <use xlink:href="#DejaVuSans-2212"/>
       <use xlink:href="#DejaVuSans-30" transform="translate(83.789062 0)"/>
       <use xlink:href="#DejaVuSans-2e" transform="translate(147.412109 0)"/>
       <use xlink:href="#DejaVuSans-32" transform="translate(179.199219 0)"/>
      </g>
     </g>
    </g>
    <g id="ytick_11">
     <g id="line2d_48">
      <path d="M 375.083494 185.670989 
L 638.865312 185.670989 
" clip-path="url(#p68680c99c5)" style="fill: none; stroke: #b0b0b0; stroke-opacity: 0.22; stroke-width: 0.8; stroke-linecap: square"/>
     </g>
     <g id="line2d_49">
      <g>
       <use xlink:href="#mfedc0e37ec" x="375.083494" y="185.670989" style="stroke: #000000; stroke-width: 0.8"/>
      </g>
     </g>
     <g id="text_28">
      <!-- 0.0 -->
      <g transform="translate(352.180369 189.470208) scale(0.1 -0.1)">
       <use xlink:href="#DejaVuSans-30"/>
       <use xlink:href="#DejaVuSans-2e" transform="translate(63.623047 0)"/>
       <use xlink:href="#DejaVuSans-30" transform="translate(95.410156 0)"/>
      </g>
     </g>
    </g>
    <g id="ytick_12">
     <g id="line2d_50">
      <path d="M 375.083494 155.116448 
L 638.865312 155.116448 
" clip-path="url(#p68680c99c5)" style="fill: none; stroke: #b0b0b0; stroke-opacity: 0.22; stroke-width: 0.8; stroke-linecap: square"/>
     </g>
     <g id="line2d_51">
      <g>
       <use xlink:href="#mfedc0e37ec" x="375.083494" y="155.116448" style="stroke: #000000; stroke-width: 0.8"/>
      </g>
     </g>
     <g id="text_29">
      <!-- 0.2 -->
      <g transform="translate(352.180369 158.915666) scale(0.1 -0.1)">
       <use xlink:href="#DejaVuSans-30"/>
       <use xlink:href="#DejaVuSans-2e" transform="translate(63.623047 0)"/>
       <use xlink:href="#DejaVuSans-32" transform="translate(95.410156 0)"/>
      </g>
     </g>
    </g>
    <g id="ytick_13">
     <g id="line2d_52">
      <path d="M 375.083494 124.561906 
L 638.865312 124.561906 
" clip-path="url(#p68680c99c5)" style="fill: none; stroke: #b0b0b0; stroke-opacity: 0.22; stroke-width: 0.8; stroke-linecap: square"/>
     </g>
     <g id="line2d_53">
      <g>
       <use xlink:href="#mfedc0e37ec" x="375.083494" y="124.561906" style="stroke: #000000; stroke-width: 0.8"/>
      </g>
     </g>
     <g id="text_30">
      <!-- 0.4 -->
      <g transform="translate(352.180369 128.361125) scale(0.1 -0.1)">
       <use xlink:href="#DejaVuSans-30"/>
       <use xlink:href="#DejaVuSans-2e" transform="translate(63.623047 0)"/>
       <use xlink:href="#DejaVuSans-34" transform="translate(95.410156 0)"/>
      </g>
     </g>
    </g>
    <g id="ytick_14">
     <g id="line2d_54">
      <path d="M 375.083494 94.007364 
L 638.865312 94.007364 
" clip-path="url(#p68680c99c5)" style="fill: none; stroke: #b0b0b0; stroke-opacity: 0.22; stroke-width: 0.8; stroke-linecap: square"/>
     </g>
     <g id="line2d_55">
      <g>
       <use xlink:href="#mfedc0e37ec" x="375.083494" y="94.007364" style="stroke: #000000; stroke-width: 0.8"/>
      </g>
     </g>
     <g id="text_31">
      <!-- 0.6 -->
      <g transform="translate(352.180369 97.806583) scale(0.1 -0.1)">
       <use xlink:href="#DejaVuSans-30"/>
       <use xlink:href="#DejaVuSans-2e" transform="translate(63.623047 0)"/>
       <use xlink:href="#DejaVuSans-36" transform="translate(95.410156 0)"/>
      </g>
     </g>
    </g>
    <g id="ytick_15">
     <g id="line2d_56">
      <path d="M 375.083494 63.452823 
L 638.865312 63.452823 
" clip-path="url(#p68680c99c5)" style="fill: none; stroke: #b0b0b0; stroke-opacity: 0.22; stroke-width: 0.8; stroke-linecap: square"/>
     </g>
     <g id="line2d_57">
      <g>
       <use xlink:href="#mfedc0e37ec" x="375.083494" y="63.452823" style="stroke: #000000; stroke-width: 0.8"/>
      </g>
     </g>
     <g id="text_32">
      <!-- 0.8 -->
      <g transform="translate(352.180369 67.252042) scale(0.1 -0.1)">
       <use xlink:href="#DejaVuSans-30"/>
       <use xlink:href="#DejaVuSans-2e" transform="translate(63.623047 0)"/>
       <use xlink:href="#DejaVuSans-38" transform="translate(95.410156 0)"/>
      </g>
     </g>
    </g>
    <g id="ytick_16">
     <g id="line2d_58">
      <path d="M 375.083494 32.898281 
L 638.865312 32.898281 
" clip-path="url(#p68680c99c5)" style="fill: none; stroke: #b0b0b0; stroke-opacity: 0.22; stroke-width: 0.8; stroke-linecap: square"/>
     </g>
     <g id="line2d_59">
      <g>
       <use xlink:href="#mfedc0e37ec" x="375.083494" y="32.898281" style="stroke: #000000; stroke-width: 0.8"/>
      </g>
     </g>
     <g id="text_33">
      <!-- 1.0 -->
      <g transform="translate(352.180369 36.6975) scale(0.1 -0.1)">
       <use xlink:href="#DejaVuSans-31"/>
       <use xlink:href="#DejaVuSans-2e" transform="translate(63.623047 0)"/>
       <use xlink:href="#DejaVuSans-30" transform="translate(95.410156 0)"/>
      </g>
     </g>
    </g>
    <g id="text_34">
     <!-- Quantity $b(t)$ -->
     <g transform="translate(337.700682 178.548281) rotate(-90) scale(0.1 -0.1)">
      <defs>
       <path id="DejaVuSans-Oblique-62" d="M 3169 2138 
Q 3169 2591 2961 2847 
Q 2753 3103 2388 3103 
Q 2122 3103 1889 2973 
Q 1656 2844 1484 2597 
Q 1303 2338 1198 1995 
Q 1094 1653 1094 1313 
Q 1094 881 1298 636 
Q 1503 391 1863 391 
Q 2134 391 2365 517 
Q 2597 644 2772 891 
Q 2950 1147 3059 1487 
Q 3169 1828 3169 2138 
z
M 1381 2969 
Q 1594 3256 1914 3420 
Q 2234 3584 2584 3584 
Q 3122 3584 3439 3221 
Q 3756 2859 3756 2241 
Q 3756 1734 3570 1259 
Q 3384 784 3041 416 
Q 2816 172 2522 40 
Q 2228 -91 1906 -91 
Q 1566 -91 1316 65 
Q 1066 222 909 531 
L 806 0 
L 231 0 
L 1178 4863 
L 1753 4863 
L 1381 2969 
z
" transform="scale(0.015625)"/>
      </defs>
      <use xlink:href="#DejaVuSans-51" transform="translate(0 0.015625)"/>
      <use xlink:href="#DejaVuSans-75" transform="translate(78.710938 0.015625)"/>
      <use xlink:href="#DejaVuSans-61" transform="translate(142.089844 0.015625)"/>
      <use xlink:href="#DejaVuSans-6e" transform="translate(203.369141 0.015625)"/>
      <use xlink:href="#DejaVuSans-74" transform="translate(266.748047 0.015625)"/>
      <use xlink:href="#DejaVuSans-69" transform="translate(305.957031 0.015625)"/>
      <use xlink:href="#DejaVuSans-74" transform="translate(333.740234 0.015625)"/>
      <use xlink:href="#DejaVuSans-79" transform="translate(372.949219 0.015625)"/>
      <use xlink:href="#DejaVuSans-20" transform="translate(432.128906 0.015625)"/>
      <use xlink:href="#DejaVuSans-Oblique-62" transform="translate(463.916016 0.015625)"/>
      <use xlink:href="#DejaVuSans-28" transform="translate(527.392578 0.015625)"/>
      <use xlink:href="#DejaVuSans-Oblique-74" transform="translate(566.40625 0.015625)"/>
      <use xlink:href="#DejaVuSans-29" transform="translate(605.615234 0.015625)"/>
     </g>
    </g>
   </g>
   <g id="line2d_60">
    <path d="M 387.073577 32.898281 
L 387.674584 33.24114 
L 388.27559 33.778676 
L 388.876597 34.509245 
L 390.07861 36.541394 
L 391.280624 39.318439 
L 392.482637 42.816604 
L 393.68465 47.007674 
L 394.886663 51.859212 
L 396.689683 60.29421 
L 398.492703 69.994171 
L 400.295723 80.80425 
L 402.69975 96.650753 
L 405.704783 118.150412 
L 416.522903 197.655762 
L 418.926929 212.980723 
L 420.729949 223.363297 
L 422.532969 232.638682 
L 424.335989 240.686513 
L 425.538002 245.318937 
L 426.740016 249.335351 
L 427.942029 252.714895 
L 429.144042 255.440962 
L 430.346056 257.501274 
L 431.548069 258.887924 
L 432.149076 259.327355 
L 432.750082 259.597393 
L 433.351089 259.698281 
L 433.952096 259.630535 
L 434.553102 259.394938 
L 435.154109 258.99254 
L 435.755116 258.424658 
L 436.957129 256.798997 
L 438.159142 254.533625 
L 439.361155 251.648194 
L 440.563169 248.166178 
L 441.765182 244.114694 
L 443.568202 237.037439 
L 445.371222 228.864816 
L 447.174242 219.727642 
L 449.578268 206.293247 
L 452.583302 188.008554 
L 464.002428 116.523007 
L 466.406455 103.646561 
L 468.209475 94.970741 
L 470.012495 87.265012 
L 471.815514 80.628768 
L 473.017528 76.840366 
L 474.219541 73.584677 
L 475.421554 70.878344 
L 476.623568 68.73435 
L 477.825581 67.161966 
L 479.027594 66.166719 
L 479.628601 65.886223 
L 480.229608 65.750386 
L 480.830614 65.758848 
L 481.431621 65.911016 
L 482.032627 66.206073 
L 482.633634 66.64297 
L 483.835647 67.936985 
L 485.037661 69.780264 
L 486.239674 72.15659 
L 487.441687 75.046449 
L 488.643701 78.427191 
L 490.446721 84.361893 
L 492.249741 91.244784 
L 494.05276 98.965383 
L 496.456787 110.351777 
L 499.46182 125.898802 
L 504.87088 155.584026 
L 509.077927 178.096153 
L 511.481953 189.984389 
L 513.88598 200.793206 
L 515.689 208.03438 
L 517.49202 214.426729 
L 519.29504 219.888326 
L 520.497053 222.978337 
L 521.699066 225.608062 
L 522.90108 227.764297 
L 524.103093 229.436985 
L 525.305106 230.61925 
L 526.507119 231.307422 
L 527.108126 231.465952 
L 527.709133 231.50103 
L 528.310139 231.413096 
L 528.911146 231.202782 
L 530.113159 230.418521 
L 531.315173 229.157164 
L 532.517186 227.430617 
L 533.719199 225.25368 
L 534.921213 222.643925 
L 536.123226 219.62156 
L 537.926246 214.364657 
L 539.729266 208.317198 
L 541.532286 201.575746 
L 543.936312 191.690849 
L 546.941346 178.275842 
L 557.759465 128.638443 
L 560.163492 119.064848 
L 561.966512 112.57717 
L 563.769532 106.779811 
L 565.572552 101.748023 
L 567.375572 97.54513 
L 568.577585 95.22924 
L 569.779598 93.316264 
L 570.981612 91.815261 
L 572.183625 90.732575 
L 573.385638 90.071817 
L 574.587651 89.833855 
L 575.789665 90.01684 
L 576.991678 90.616236 
L 578.193691 91.624868 
L 579.395705 93.032993 
L 580.597718 94.828382 
L 581.799731 96.996415 
L 583.001744 99.520201 
L 584.804764 103.930708 
L 586.607784 109.025758 
L 588.410804 114.723777 
L 590.814831 123.103827 
L 593.819864 134.512588 
L 605.23899 179.143331 
L 607.643017 187.187674 
L 609.446037 192.609152 
L 611.249057 197.425752 
L 613.052077 201.575327 
L 614.855097 205.006083 
L 616.05711 206.873284 
L 617.259123 208.393345 
L 618.461137 209.559282 
L 619.66315 210.366438 
L 620.865163 210.8125 
L 622.067177 210.897487 
L 623.26919 210.62374 
L 624.471203 209.995879 
L 625.673217 209.020765 
L 626.87523 207.707431 
L 626.87523 207.707431 
" clip-path="url(#p68680c99c5)" style="fill: none; stroke: #2d6a9f; stroke-width: 2.2; stroke-linecap: square"/>
   </g>
   <g id="line2d_61">
    <defs>
     <path id="mad4aa13f1e" d="M 0 3.5 
C 0.928211 3.5 1.81853 3.131218 2.474874 2.474874 
C 3.131218 1.81853 3.5 0.928211 3.5 0 
C 3.5 -0.928211 3.131218 -1.81853 2.474874 -2.474874 
C 1.81853 -3.131218 0.928211 -3.5 0 -3.5 
C -0.928211 -3.5 -1.81853 -3.131218 -2.474874 -2.474874 
C -3.131218 -1.81853 -3.5 -0.928211 -3.5 0 
C -3.5 0.928211 -3.131218 1.81853 -2.474874 2.474874 
C -1.81853 3.131218 -0.928211 3.5 0 3.5 
z
" style="stroke: #d97706"/>
    </defs>
    <g clip-path="url(#p68680c99c5)">
     <use xlink:href="#mad4aa13f1e" x="387.073577" y="32.898281" style="fill: #d97706; stroke: #d97706"/>
     <use xlink:href="#mad4aa13f1e" x="626.87523" y="207.707431" style="fill: #d97706; stroke: #d97706"/>
    </g>
   </g>
   <g id="line2d_62">
    <path d="M 375.083494 155.116448 
L 638.865312 155.116448 
" clip-path="url(#p68680c99c5)" style="fill: none; stroke-dasharray: 5.55,2.4; stroke-dashoffset: 0; stroke: #d97706; stroke-width: 1.5"/>
   </g>
   <g id="line2d_63">
    <path d="M 375.083494 185.670989 
L 638.865312 185.670989 
" clip-path="url(#p68680c99c5)" style="fill: none; stroke-dasharray: 5.55,2.4; stroke-dashoffset: 0; stroke: #d97706; stroke-width: 1.5"/>
   </g>
   <g id="patch_8">
    <path d="M 375.083494 271.038281 
L 375.083494 21.558281 
" style="fill: none; stroke: #000000; stroke-width: 0.8; stroke-linejoin: miter; stroke-linecap: square"/>
   </g>
   <g id="patch_9">
    <path d="M 638.865312 271.038281 
L 638.865312 21.558281 
" style="fill: none; stroke: #000000; stroke-width: 0.8; stroke-linejoin: miter; stroke-linecap: square"/>
   </g>
   <g id="patch_10">
    <path d="M 375.083494 271.038281 
L 638.865312 271.038281 
" style="fill: none; stroke: #000000; stroke-width: 0.8; stroke-linejoin: miter; stroke-linecap: square"/>
   </g>
   <g id="patch_11">
    <path d="M 375.083494 21.558281 
L 638.865312 21.558281 
" style="fill: none; stroke: #000000; stroke-width: 0.8; stroke-linejoin: miter; stroke-linecap: square"/>
   </g>
   <g id="patch_12">
    <path d="M 411.862656 34.960967 
Q 400.465187 34.01259 390.181901 33.156923 
" style="fill: none; stroke: #d97706; stroke-linecap: round"/>
    <path d="M 393.543834 35.20275 
L 390.181901 33.156923 
L 393.835723 31.694873 
" style="fill: none; stroke: #d97706; stroke-linecap: round"/>
   </g>
   <g id="text_35">
    <!-- initial condition -->
    <g style="fill: #d97706" transform="translate(408 55) scale(0.084 -0.084)">
     <defs>
      <path id="DejaVuSans-63" d="M 3122 3366 
L 3122 2828 
Q 2878 2963 2633 3030 
Q 2388 3097 2138 3097 
Q 1578 3097 1268 2742 
Q 959 2388 959 1747 
Q 959 1106 1268 751 
Q 1578 397 2138 397 
Q 2388 397 2633 464 
Q 2878 531 3122 666 
L 3122 134 
Q 2881 22 2623 -34 
Q 2366 -91 2075 -91 
Q 1284 -91 818 406 
Q 353 903 353 1747 
Q 353 2603 823 3093 
Q 1294 3584 2113 3584 
Q 2378 3584 2631 3529 
Q 2884 3475 3122 3366 
z
" transform="scale(0.015625)"/>
     </defs>
     <use xlink:href="#DejaVuSans-69"/>
     <use xlink:href="#DejaVuSans-6e" transform="translate(27.783203 0)"/>
     <use xlink:href="#DejaVuSans-69" transform="translate(91.162109 0)"/>
     <use xlink:href="#DejaVuSans-74" transform="translate(118.945312 0)"/>
     <use xlink:href="#DejaVuSans-69" transform="translate(158.154297 0)"/>
     <use xlink:href="#DejaVuSans-61" transform="translate(185.9375 0)"/>
     <use xlink:href="#DejaVuSans-6c" transform="translate(247.216797 0)"/>
     <use xlink:href="#DejaVuSans-20" transform="translate(275 0)"/>
     <use xlink:href="#DejaVuSans-63" transform="translate(306.787109 0)"/>
     <use xlink:href="#DejaVuSans-6f" transform="translate(361.767578 0)"/>
     <use xlink:href="#DejaVuSans-6e" transform="translate(422.949219 0)"/>
     <use xlink:href="#DejaVuSans-64" transform="translate(486.328125 0)"/>
     <use xlink:href="#DejaVuSans-69" transform="translate(549.804688 0)"/>
     <use xlink:href="#DejaVuSans-74" transform="translate(577.587891 0)"/>
     <use xlink:href="#DejaVuSans-69" transform="translate(616.796875 0)"/>
     <use xlink:href="#DejaVuSans-6f" transform="translate(644.580078 0)"/>
     <use xlink:href="#DejaVuSans-6e" transform="translate(705.761719 0)"/>
    </g>
   </g>
   <g id="patch_13">
    <path d="M 576.458691 244.552077 
Q 600.8592 226.720069 624.357034 209.54774 
" style="fill: none; stroke: #d97706; stroke-linecap: round"/>
    <path d="M 620.476603 210.20368 
L 624.357034 209.54774 
L 622.553528 213.045649 
" style="fill: none; stroke: #d97706; stroke-linecap: round"/>
   </g>
   <g id="text_36">
    <!-- terminal condition -->
    <g style="fill: #d97706" transform="translate(512 250) scale(0.084 -0.084)">
     <use xlink:href="#DejaVuSans-74"/>
     <use xlink:href="#DejaVuSans-65" transform="translate(39.208984 0)"/>
     <use xlink:href="#DejaVuSans-72" transform="translate(100.732422 0)"/>
     <use xlink:href="#DejaVuSans-6d" transform="translate(140.095703 0)"/>
     <use xlink:href="#DejaVuSans-69" transform="translate(237.507812 0)"/>
     <use xlink:href="#DejaVuSans-6e" transform="translate(265.291016 0)"/>
     <use xlink:href="#DejaVuSans-61" transform="translate(328.669922 0)"/>
     <use xlink:href="#DejaVuSans-6c" transform="translate(389.949219 0)"/>
     <use xlink:href="#DejaVuSans-20" transform="translate(417.732422 0)"/>
     <use xlink:href="#DejaVuSans-63" transform="translate(449.519531 0)"/>
     <use xlink:href="#DejaVuSans-6f" transform="translate(504.5 0)"/>
     <use xlink:href="#DejaVuSans-6e" transform="translate(565.681641 0)"/>
     <use xlink:href="#DejaVuSans-64" transform="translate(629.060547 0)"/>
     <use xlink:href="#DejaVuSans-69" transform="translate(692.537109 0)"/>
     <use xlink:href="#DejaVuSans-74" transform="translate(720.320312 0)"/>
     <use xlink:href="#DejaVuSans-69" transform="translate(759.529297 0)"/>
     <use xlink:href="#DejaVuSans-6f" transform="translate(787.3125 0)"/>
     <use xlink:href="#DejaVuSans-6e" transform="translate(848.494141 0)"/>
    </g>
   </g>
   <g id="text_37">
    <!-- apply only at the start, end, or selected times -->
    <g style="fill: #5b6573" transform="translate(462 38.5) scale(0.074 -0.074)">
     <defs>
      <path id="DejaVuSans-2c" d="M 750 794 
L 1409 794 
L 1409 256 
L 897 -744 
L 494 -744 
L 750 256 
L 750 794 
z
" transform="scale(0.015625)"/>
     </defs>
     <use xlink:href="#DejaVuSans-61"/>
     <use xlink:href="#DejaVuSans-70" transform="translate(61.279297 0)"/>
     <use xlink:href="#DejaVuSans-70" transform="translate(124.755859 0)"/>
     <use xlink:href="#DejaVuSans-6c" transform="translate(188.232422 0)"/>
     <use xlink:href="#DejaVuSans-79" transform="translate(216.015625 0)"/>
     <use xlink:href="#DejaVuSans-20" transform="translate(275.195312 0)"/>
     <use xlink:href="#DejaVuSans-6f" transform="translate(306.982422 0)"/>
     <use xlink:href="#DejaVuSans-6e" transform="translate(368.164062 0)"/>
     <use xlink:href="#DejaVuSans-6c" transform="translate(431.542969 0)"/>
     <use xlink:href="#DejaVuSans-79" transform="translate(459.326172 0)"/>
     <use xlink:href="#DejaVuSans-20" transform="translate(518.505859 0)"/>
     <use xlink:href="#DejaVuSans-61" transform="translate(550.292969 0)"/>
     <use xlink:href="#DejaVuSans-74" transform="translate(611.572266 0)"/>
     <use xlink:href="#DejaVuSans-20" transform="translate(650.78125 0)"/>
     <use xlink:href="#DejaVuSans-74" transform="translate(682.568359 0)"/>
     <use xlink:href="#DejaVuSans-68" transform="translate(721.777344 0)"/>
     <use xlink:href="#DejaVuSans-65" transform="translate(785.15625 0)"/>
     <use xlink:href="#DejaVuSans-20" transform="translate(846.679688 0)"/>
     <use xlink:href="#DejaVuSans-73" transform="translate(878.466797 0)"/>
     <use xlink:href="#DejaVuSans-74" transform="translate(930.566406 0)"/>
     <use xlink:href="#DejaVuSans-61" transform="translate(969.775391 0)"/>
     <use xlink:href="#DejaVuSans-72" transform="translate(1031.054688 0)"/>
     <use xlink:href="#DejaVuSans-74" transform="translate(1072.167969 0)"/>
     <use xlink:href="#DejaVuSans-2c" transform="translate(1111.376953 0)"/>
     <use xlink:href="#DejaVuSans-20" transform="translate(1143.164062 0)"/>
     <use xlink:href="#DejaVuSans-65" transform="translate(1174.951172 0)"/>
     <use xlink:href="#DejaVuSans-6e" transform="translate(1236.474609 0)"/>
     <use xlink:href="#DejaVuSans-64" transform="translate(1299.853516 0)"/>
     <use xlink:href="#DejaVuSans-2c" transform="translate(1363.330078 0)"/>
     <use xlink:href="#DejaVuSans-20" transform="translate(1395.117188 0)"/>
     <use xlink:href="#DejaVuSans-6f" transform="translate(1426.904297 0)"/>
     <use xlink:href="#DejaVuSans-72" transform="translate(1488.085938 0)"/>
     <use xlink:href="#DejaVuSans-20" transform="translate(1529.199219 0)"/>
     <use xlink:href="#DejaVuSans-73" transform="translate(1560.986328 0)"/>
     <use xlink:href="#DejaVuSans-65" transform="translate(1613.085938 0)"/>
     <use xlink:href="#DejaVuSans-6c" transform="translate(1674.609375 0)"/>
     <use xlink:href="#DejaVuSans-65" transform="translate(1702.392578 0)"/>
     <use xlink:href="#DejaVuSans-63" transform="translate(1763.916016 0)"/>
     <use xlink:href="#DejaVuSans-74" transform="translate(1818.896484 0)"/>
     <use xlink:href="#DejaVuSans-65" transform="translate(1858.105469 0)"/>
     <use xlink:href="#DejaVuSans-64" transform="translate(1919.628906 0)"/>
     <use xlink:href="#DejaVuSans-20" transform="translate(1983.105469 0)"/>
     <use xlink:href="#DejaVuSans-74" transform="translate(2014.892578 0)"/>
     <use xlink:href="#DejaVuSans-69" transform="translate(2054.101562 0)"/>
     <use xlink:href="#DejaVuSans-6d" transform="translate(2081.884766 0)"/>
     <use xlink:href="#DejaVuSans-65" transform="translate(2179.296875 0)"/>
     <use xlink:href="#DejaVuSans-73" transform="translate(2240.820312 0)"/>
    </g>
   </g>
   <g id="text_38">
    <!-- Boundary constraints -->
    <g style="fill: #123b63" transform="translate(440.329013 15.558281) scale(0.11 -0.11)">
     <defs>
      <path id="DejaVuSans-Bold-42" d="M 2456 2859 
Q 2741 2859 2887 2984 
Q 3034 3109 3034 3353 
Q 3034 3594 2887 3720 
Q 2741 3847 2456 3847 
L 1791 3847 
L 1791 2859 
L 2456 2859 
z
M 2497 819 
Q 2859 819 3042 972 
Q 3225 1125 3225 1434 
Q 3225 1738 3044 1889 
Q 2863 2041 2497 2041 
L 1791 2041 
L 1791 819 
L 2497 819 
z
M 3616 2497 
Q 4003 2384 4215 2081 
Q 4428 1778 4428 1338 
Q 4428 663 3972 331 
Q 3516 0 2584 0 
L 588 0 
L 588 4666 
L 2394 4666 
Q 3366 4666 3802 4372 
Q 4238 4078 4238 3431 
Q 4238 3091 4078 2852 
Q 3919 2613 3616 2497 
z
" transform="scale(0.015625)"/>
      <path id="DejaVuSans-Bold-75" d="M 500 1363 
L 500 3500 
L 1625 3500 
L 1625 3150 
Q 1625 2866 1622 2436 
Q 1619 2006 1619 1863 
Q 1619 1441 1641 1255 
Q 1663 1069 1716 984 
Q 1784 875 1895 815 
Q 2006 756 2150 756 
Q 2500 756 2700 1025 
Q 2900 1294 2900 1772 
L 2900 3500 
L 4019 3500 
L 4019 0 
L 2900 0 
L 2900 506 
Q 2647 200 2364 54 
Q 2081 -91 1741 -91 
Q 1134 -91 817 281 
Q 500 653 500 1363 
z
" transform="scale(0.015625)"/>
      <path id="DejaVuSans-Bold-64" d="M 2919 2988 
L 2919 4863 
L 4044 4863 
L 4044 0 
L 2919 0 
L 2919 506 
Q 2688 197 2409 53 
Q 2131 -91 1766 -91 
Q 1119 -91 703 423 
Q 288 938 288 1747 
Q 288 2556 703 3070 
Q 1119 3584 1766 3584 
Q 2128 3584 2408 3439 
Q 2688 3294 2919 2988 
z
M 2181 722 
Q 2541 722 2730 984 
Q 2919 1247 2919 1747 
Q 2919 2247 2730 2509 
Q 2541 2772 2181 2772 
Q 1825 2772 1636 2509 
Q 1447 2247 1447 1747 
Q 1447 1247 1636 984 
Q 1825 722 2181 722 
z
" transform="scale(0.015625)"/>
      <path id="DejaVuSans-Bold-79" d="M 78 3500 
L 1197 3500 
L 2138 1125 
L 2938 3500 
L 4056 3500 
L 2584 -331 
Q 2363 -916 2067 -1148 
Q 1772 -1381 1288 -1381 
L 641 -1381 
L 641 -647 
L 991 -647 
Q 1275 -647 1404 -556 
Q 1534 -466 1606 -231 
L 1638 -134 
L 78 3500 
z
" transform="scale(0.015625)"/>
     </defs>
     <use xlink:href="#DejaVuSans-Bold-42"/>
     <use xlink:href="#DejaVuSans-Bold-6f" transform="translate(76.220703 0)"/>
     <use xlink:href="#DejaVuSans-Bold-75" transform="translate(144.921875 0)"/>
     <use xlink:href="#DejaVuSans-Bold-6e" transform="translate(216.113281 0)"/>
     <use xlink:href="#DejaVuSans-Bold-64" transform="translate(287.304688 0)"/>
     <use xlink:href="#DejaVuSans-Bold-61" transform="translate(358.886719 0)"/>
     <use xlink:href="#DejaVuSans-Bold-72" transform="translate(426.367188 0)"/>
     <use xlink:href="#DejaVuSans-Bold-79" transform="translate(475.683594 0)"/>
     <use xlink:href="#DejaVuSans-Bold-20" transform="translate(540.869141 0)"/>
     <use xlink:href="#DejaVuSans-Bold-63" transform="translate(575.683594 0)"/>
     <use xlink:href="#DejaVuSans-Bold-6f" transform="translate(634.960938 0)"/>
     <use xlink:href="#DejaVuSans-Bold-6e" transform="translate(703.662109 0)"/>
     <use xlink:href="#DejaVuSans-Bold-73" transform="translate(774.853516 0)"/>
     <use xlink:href="#DejaVuSans-Bold-74" transform="translate(834.375 0)"/>
     <use xlink:href="#DejaVuSans-Bold-72" transform="translate(882.177734 0)"/>
     <use xlink:href="#DejaVuSans-Bold-61" transform="translate(931.494141 0)"/>
     <use xlink:href="#DejaVuSans-Bold-69" transform="translate(998.974609 0)"/>
     <use xlink:href="#DejaVuSans-Bold-6e" transform="translate(1033.251953 0)"/>
     <use xlink:href="#DejaVuSans-Bold-74" transform="translate(1104.443359 0)"/>
     <use xlink:href="#DejaVuSans-Bold-73" transform="translate(1152.246094 0)"/>
    </g>
   </g>
  </g>
 </g>
 <defs>
  <clipPath id="p59370750c1">
   <rect x="58.545313" y="21.558281" width="263.781818" height="249.48"/>
  </clipPath>
  <clipPath id="p68680c99c5">
   <rect x="375.083494" y="21.558281" width="263.781818" height="249.48"/>
  </clipPath>
 </defs>
</svg>
