<svg width="4033" height="1631" xmlns="http://www.w3.org/2000/svg" xmlns:xlink="http://www.w3.org/1999/xlink" xml:space="preserve" overflow="hidden"><defs><filter id="fx0" x="-10%" y="-10%" width="120%" height="120%" filterUnits="userSpaceOnUse" primitiveUnits="userSpaceOnUse"><feComponentTransfer color-interpolation-filters="sRGB"><feFuncR type="discrete" tableValues="0.850980 0.850980"/><feFuncG type="discrete" tableValues="0.850980 0.850980"/><feFuncB type="discrete" tableValues="0.850980 0.850980"/><feFuncA type="linear" slope="0.180392" intercept="0.000000"/></feComponentTransfer><feGaussianBlur stdDeviation="1.527778 1.527778"/></filter><filter id="fx1" x="-10%" y="-10%" width="120%" height="120%" filterUnits="userSpaceOnUse" primitiveUnits="userSpaceOnUse"><feComponentTransfer color-interpolation-filters="sRGB"><feFuncR type="discrete" tableValues="0.850980 0.850980"/><feFuncG type="discrete" tableValues="0.850980 0.850980"/><feFuncB type="discrete" tableValues="0.850980 0.850980"/><feFuncA type="linear" slope="0.180392" intercept="0.000000"/></feComponentTransfer><feGaussianBlur stdDeviation="1.527778 1.527778"/></filter><filter id="fx2" x="-10%" y="-10%" width="120%" height="120%" filterUnits="userSpaceOnUse" primitiveUnits="userSpaceOnUse"><feComponentTransfer color-interpolation-filters="sRGB"><feFuncR type="discrete" tableValues="0.850980 0.850980"/><feFuncG type="discrete" tableValues="0.850980 0.850980"/><feFuncB type="discrete" tableValues="0.850980 0.850980"/><feFuncA type="linear" slope="0.180392" intercept="0.000000"/></feComponentTransfer><feGaussianBlur stdDeviation="1.527778 1.527778"/></filter><filter id="fx3" x="-10%" y="-10%" width="120%" height="120%" filterUnits="userSpaceOnUse" primitiveUnits="userSpaceOnUse"><feComponentTransfer color-interpolation-filters="sRGB"><feFuncR type="discrete" tableValues="0.850980 0.850980"/><feFuncG type="discrete" tableValues="0.850980 0.850980"/><feFuncB type="discrete" tableValues="0.850980 0.850980"/><feFuncA type="linear" slope="0.180392" intercept="0.000000"/></feComponentTransfer><feGaussianBlur stdDeviation="1.527778 1.527778"/></filter><filter id="fx4" x="-10%" y="-10%" width="120%" height="120%" filterUnits="userSpaceOnUse" primitiveUnits="userSpaceOnUse"><feComponentTransfer color-interpolation-filters="sRGB"><feFuncR type="discrete" tableValues="0.850980 0.850980"/><feFuncG type="discrete" tableValues="0.850980 0.850980"/><feFuncB type="discrete" tableValues="0.850980 0.850980"/><feFuncA type="linear" slope="0.180392" intercept="0.000000"/></feComponentTransfer><feGaussianBlur stdDeviation="1.527778 1.527778"/></filter><filter id="fx5" x="-10%" y="-10%" width="120%" height="120%" filterUnits="userSpaceOnUse" primitiveUnits="userSpaceOnUse"><feComponentTransfer color-interpolation-filters="sRGB"><feFuncR type="discrete" tableValues="0.850980 0.850980"/><feFuncG type="discrete" tableValues="0.850980 0.850980"/><feFuncB type="discrete" tableValues="0.850980 0.850980"/><feFuncA type="linear" slope="0.180392" intercept="0.000000"/></feComponentTransfer><feGaussianBlur stdDeviation="1.527778 1.527778"/></filter><filter id="fx6" x="-10%" y="-10%" width="120%" height="120%" filterUnits="userSpaceOnUse" primitiveUnits="userSpaceOnUse"><feComponentTransfer color-interpolation-filters="sRGB"><feFuncR type="discrete" tableValues="0.850980 0.850980"/><feFuncG type="discrete" tableValues="0.850980 0.850980"/><feFuncB type="discrete" tableValues="0.850980 0.850980"/><feFuncA type="linear" slope="0.180392" intercept="0.000000"/></feComponentTransfer><feGaussianBlur stdDeviation="1.527778 1.527778"/></filter><filter id="fx7" x="-10%" y="-10%" width="120%" height="120%" filterUnits="userSpaceOnUse" primitiveUnits="userSpaceOnUse"><feComponentTransfer color-interpolation-filters="sRGB"><feFuncR type="discrete" tableValues="0.850980 0.850980"/><feFuncG type="discrete" tableValues="0.850980 0.850980"/><feFuncB type="discrete" tableValues="0.850980 0.850980"/><feFuncA type="linear" slope="0.180392" intercept="0.000000"/></feComponentTransfer><feGaussianBlur stdDeviation="1.527778 1.527778"/></filter><filter id="fx8" x="-10%" y="-10%" width="120%" height="120%" filterUnits="userSpaceOnUse" primitiveUnits="userSpaceOnUse"><feComponentTransfer color-interpolation-filters="sRGB"><feFuncR type="discrete" tableValues="0.850980 0.850980"/><feFuncG type="discrete" tableValues="0.850980 0.850980"/><feFuncB type="discrete" tableValues="0.850980 0.850980"/><feFuncA type="linear" slope="0.180392" intercept="0.000000"/></feComponentTransfer><feGaussianBlur stdDeviation="1.527778 1.527778"/></filter><clipPath id="clip9"><path d="M1231.36 215C1216.8 215 1205 226.801 1205 241.358L1205 445.642C1205 460.199 1216.8 472 1231.36 472L3174.64 472C3189.2 472 3201 460.199 3201 445.642L3201 241.358C3201 226.801 3189.2 215 3174.64 215ZM192 206 4225 206 4225 1837 192 1837Z" fill-rule="evenodd" clip-rule="evenodd"/></clipPath><clipPath id="clip10"><path d="M224.437 561C209.836 561 198 572.836 198 587.437L198 914.563C198 929.164 209.836 941 224.437 941L1244.56 941C1259.16 941 1271 929.164 1271 914.563L1271 587.437C1271 572.836 1259.16 561 1244.56 561ZM192 206 4225 206 4225 1837 192 1837Z" fill-rule="evenodd" clip-rule="evenodd"/></clipPath><clipPath id="clip11"><path d="M1462.44 561C1447.84 561 1436 572.836 1436 587.437L1436 914.563C1436 929.164 1447.84 941 1462.44 941L2481.56 941C2496.16 941 2508 929.164 2508 914.563L2508 587.437C2508 572.836 2496.16 561 2481.56 561ZM192 206 4225 206 4225 1837 192 1837Z" fill-rule="evenodd" clip-rule="evenodd"/></clipPath><clipPath id="clip12"><path d="M2692.44 561C2677.84 561 2666 572.836 2666 587.436L2666 914.564C2666 929.164 2677.84 941 2692.44 941L4174.56 941C4189.16 941 4201 929.164 4201 914.564L4201 587.436C4201 572.836 4189.16 561 4174.56 561ZM192 206 4225 206 4225 1837 192 1837Z" fill-rule="evenodd" clip-rule="evenodd"/></clipPath><clipPath id="clip13"><path d="M297.362 1158C282.802 1158 271 1169.8 271 1184.36L271 1477.64C271 1492.2 282.802 1504 297.362 1504L1217.64 1504C1232.2 1504 1244 1492.2 1244 1477.64L1244 1184.36C1244 1169.8 1232.2 1158 1217.64 1158ZM192 206 4225 206 4225 1837 192 1837Z" fill-rule="evenodd" clip-rule="evenodd"/></clipPath><clipPath id="clip14"><path d="M1326.36 1158C1311.8 1158 1300 1169.8 1300 1184.36L1300 1477.64C1300 1492.2 1311.8 1504 1326.36 1504L2230.64 1504C2245.2 1504 2257 1492.2 2257 1477.64L2257 1184.36C2257 1169.8 2245.2 1158 2230.64 1158ZM192 206 4225 206 4225 1837 192 1837Z" fill-rule="evenodd" clip-rule="evenodd"/></clipPath><clipPath id="clip15"><path d="M2329.36 1158C2314.8 1158 2303 1169.8 2303 1184.36L2303 1477.64C2303 1492.2 2314.8 1504 2329.36 1504L3260.64 1504C3275.2 1504 3287 1492.2 3287 1477.64L3287 1184.36C3287 1169.8 3275.2 1158 3260.64 1158ZM192 206 4225 206 4225 1837 192 1837Z" fill-rule="evenodd" clip-rule="evenodd"/></clipPath><clipPath id="clip16"><path d="M3465.36 1158C3450.8 1158 3439 1169.8 3439 1184.36L3439 1477.64C3439 1492.2 3450.8 1504 3465.36 1504L4131.64 1504C4146.2 1504 4158 1492.2 4158 1477.64L4158 1184.36C4158 1169.8 4146.2 1158 4131.64 1158ZM192 206 4225 206 4225 1837 192 1837Z" fill-rule="evenodd" clip-rule="evenodd"/></clipPath><clipPath id="clip17"><path d="M766.4 1580C751.82 1580 740 1591.82 740 1606.4L740 1784.6C740 1799.18 751.82 1811 766.4 1811L3633.6 1811C3648.18 1811 3660 1799.18 3660 1784.6L3660 1606.4C3660 1591.82 3648.18 1580 3633.6 1580ZM192 206 4225 206 4225 1837 192 1837Z" fill-rule="evenodd" clip-rule="evenodd"/></clipPath></defs><g transform="translate(-192 -206)"><g><g clip-path="url(#clip9)"><g filter="url(#fx0)" transform="translate(1207 217)"><g><g><path d="M10.9635 37.3216C10.9635 22.7644 22.7644 10.9635 37.3214 10.9635L1980.61 10.9635C1995.16 10.9635 2006.96 22.7644 2006.96 37.3216L2006.96 241.605C2006.96 256.163 1995.16 267.964 1980.61 267.964L37.3214 267.964C22.7644 267.964 10.9635 256.163 10.9635 241.605Z" stroke="#123D66" stroke-width="10" stroke-linecap="butt" stroke-linejoin="round" stroke-miterlimit="10" stroke-opacity="1" fill="#FFFFFF" fill-rule="evenodd" fill-opacity="1"/></g></g></g></g><path d="M1205 241.358C1205 226.801 1216.8 215 1231.36 215L3174.64 215C3189.2 215 3201 226.801 3201 241.358L3201 445.642C3201 460.199 3189.2 472 3174.64 472L1231.36 472C1216.8 472 1205 460.199 1205 445.642Z" stroke="#123D66" stroke-width="9.625" stroke-linecap="butt" stroke-linejoin="round" stroke-miterlimit="10" stroke-opacity="1" fill="#FFFFFF" fill-rule="evenodd" fill-opacity="1"/><text fill="#123D66" fill-opacity="1" font-family="Aptos,Aptos_MSFontService,sans-serif" font-style="normal" font-variant="normal" font-weight="700" font-stretch="normal" font-size="110" text-anchor="start" direction="ltr" writing-mode="lr-tb" unicode-bidi="normal" text-decoration="none" transform="matrix(1 0 0 1 1332.79 379)">General control co</text><text fill="#123D66" fill-opacity="1" font-family="Aptos,Aptos_MSFontService,sans-serif" font-style="normal" font-variant="normal" font-weight="700" font-stretch="normal" font-size="110" text-anchor="start" direction="ltr" writing-mode="lr-tb" unicode-bidi="normal" text-decoration="none" transform="matrix(1 0 0 1 2257.54 379)">-</text><text fill="#123D66" fill-opacity="1" font-family="Aptos,Aptos_MSFontService,sans-serif" font-style="normal" font-variant="normal" font-weight="700" font-stretch="normal" font-size="110" text-anchor="start" direction="ltr" writing-mode="lr-tb" unicode-bidi="normal" text-decoration="none" transform="matrix(1 0 0 1 2294.78 379)">design problem</text><path d="M1271 746.875 1413.08 746.875 1413.08 755.125 1271 755.125ZM1408.5 737.25 1436 751 1408.5 764.75Z" fill="#5A6573" fill-rule="nonzero" fill-opacity="1"/><path d="M2508 746.875 2643.08 746.875 2643.08 755.125 2508 755.125ZM2638.5 737.25 2666 751 2638.5 764.75Z" fill="#5A6573" fill-rule="nonzero" fill-opacity="1"/><path d="M738.125 941 738.125 1099.08 729.875 1099.08 729.875 941ZM747.75 1094.5 734 1122 720.25 1094.5Z" fill="#5A6573" fill-rule="nonzero" fill-opacity="1"/><path d="M4.12494-0.0215973 5.00499 168.062-3.2449 168.105-4.12494 0.0215973ZM14.6059 163.429 1.00003 191-12.8938 163.572Z" fill="#5A6573" fill-rule="nonzero" fill-opacity="1" transform="matrix(-1 0 0 1 1972 941)"/><path d="M4.12495-0.0199207 5.01395 184.064-3.23595 184.104-4.12495 0.0199207ZM14.6167 179.434 0.999672 207-12.883 179.567Z" fill="#5A6573" fill-rule="nonzero" fill-opacity="1" transform="matrix(-1 0 0 1 3082 941)"/><path d="M4.12495-0.0199207 5.01395 184.064-3.23595 184.104-4.12495 0.0199207ZM14.6167 179.434 0.999672 207-12.883 179.567Z" fill="#5A6573" fill-rule="nonzero" fill-opacity="1" transform="matrix(-1 0 0 1 3864 941)"/><g clip-path="url(#clip10)"><g filter="url(#fx1)" transform="translate(200 563)"><g><g><path d="M10.9636 37.4002C10.9636 22.7997 22.7997 10.9636 37.4002 10.9636L1057.53 10.9636C1072.13 10.9636 1083.96 22.7997 1083.96 37.4002L1083.96 364.527C1083.96 379.127 1072.13 390.963 1057.53 390.963L37.4002 390.963C22.7997 390.963 10.9636 379.127 10.9636 364.527Z" stroke="#123D66" stroke-width="10" stroke-linecap="butt" stroke-linejoin="round" stroke-miterlimit="10" stroke-opacity="1" fill="#EAF4FB" fill-rule="evenodd" fill-opacity="1"/></g></g></g></g><path d="M198 587.437C198 572.836 209.836 561 224.437 561L1244.56 561C1259.16 561 1271 572.836 1271 587.437L1271 914.563C1271 929.164 1259.16 941 1244.56 941L224.437 941C209.836 941 198 929.164 198 914.563Z" stroke="#123D66" stroke-width="9.625" stroke-linecap="butt" stroke-linejoin="round" stroke-miterlimit="10" stroke-opacity="1" fill="#EAF4FB" fill-rule="evenodd" fill-opacity="1"/><text fill="#123D66" fill-opacity="1" font-family="Aptos,Aptos_MSFontService,sans-serif" font-style="normal" font-variant="normal" font-weight="400" font-stretch="normal" font-size="73" text-anchor="start" direction="ltr" writing-mode="lr-tb" unicode-bidi="normal" text-decoration="none" transform="matrix(1 0 0 1 621.947 687)">Decide</text><text fill="#123D66" fill-opacity="1" font-family="Aptos,Aptos_MSFontService,sans-serif" font-style="normal" font-variant="normal" font-weight="400" font-stretch="normal" font-size="73" text-anchor="start" direction="ltr" writing-mode="lr-tb" unicode-bidi="normal" text-decoration="none" transform="matrix(1 0 0 1 346.855 775)">plant, control, state, and</text><text fill="#123D66" fill-opacity="1" font-family="Aptos,Aptos_MSFontService,sans-serif" font-style="normal" font-variant="normal" font-weight="400" font-stretch="normal" font-size="73" text-anchor="start" direction="ltr" writing-mode="lr-tb" unicode-bidi="normal" text-decoration="none" transform="matrix(1 0 0 1 306.201 863)">control</text><text fill="#123D66" fill-opacity="1" font-family="Aptos,Aptos_MSFontService,sans-serif" font-style="normal" font-variant="normal" font-weight="400" font-stretch="normal" font-size="73" text-anchor="start" direction="ltr" writing-mode="lr-tb" unicode-bidi="normal" text-decoration="none" transform="matrix(1 0 0 1 532.641 863)">-</text><text fill="#123D66" fill-opacity="1" font-family="Aptos,Aptos_MSFontService,sans-serif" font-style="normal" font-variant="normal" font-weight="400" font-stretch="normal" font-size="73" text-anchor="start" direction="ltr" writing-mode="lr-tb" unicode-bidi="normal" text-decoration="none" transform="matrix(1 0 0 1 557.849 863)">trajectory variables</text><g clip-path="url(#clip11)"><g filter="url(#fx2)" transform="translate(1438 563)"><g><g><path d="M10.9635 37.4002C10.9635 22.7997 22.7996 10.9636 37.4001 10.9636L1056.53 10.9636C1071.13 10.9636 1082.96 22.7997 1082.96 37.4002L1082.96 364.527C1082.96 379.127 1071.13 390.963 1056.53 390.963L37.4001 390.963C22.7996 390.963 10.9635 379.127 10.9635 364.527Z" stroke="#7C3AED" stroke-width="10" stroke-linecap="butt" stroke-linejoin="round" stroke-miterlimit="10" stroke-opacity="1" fill="#FFFFFF" fill-rule="evenodd" fill-opacity="1"/></g></g></g></g><path d="M1436 587.437C1436 572.836 1447.84 561 1462.44 561L2481.56 561C2496.16 561 2508 572.836 2508 587.437L2508 914.563C2508 929.164 2496.16 941 2481.56 941L1462.44 941C1447.84 941 1436 929.164 1436 914.563Z" stroke="#7C3AED" stroke-width="9.625" stroke-linecap="butt" stroke-linejoin="round" stroke-miterlimit="10" stroke-opacity="1" fill="#FFFFFF" fill-rule="evenodd" fill-opacity="1"/><text fill="#7C3AED" fill-opacity="1" font-family="Aptos,Aptos_MSFontService,sans-serif" font-style="normal" font-variant="normal" font-weight="400" font-stretch="normal" font-size="101" text-anchor="start" direction="ltr" writing-mode="lr-tb" unicode-bidi="normal" text-decoration="none" transform="matrix(1 0 0 1 1777.14 723)">Minimize</text><text fill="#7C3AED" fill-opacity="1" font-family="Aptos,Aptos_MSFontService,sans-serif" font-style="normal" font-variant="normal" font-weight="400" font-stretch="normal" font-size="101" text-anchor="start" direction="ltr" writing-mode="lr-tb" unicode-bidi="normal" text-decoration="none" transform="matrix(1 0 0 1 1746.23 844)">objective J</text><g clip-path="url(#clip12)"><g filter="url(#fx3)" transform="translate(2668 563)"><g><g><path d="M10.9639 37.3997C10.9639 22.7995 22.7997 10.9636 37.4 10.9636L1519.53 10.9636C1534.13 10.9636 1545.96 22.7995 1545.96 37.3997L1545.96 364.527C1545.96 379.128 1534.13 390.963 1519.53 390.963L37.4 390.963C22.7997 390.963 10.9639 379.128 10.9639 364.527Z" stroke="#B33445" stroke-width="10" stroke-linecap="butt" stroke-linejoin="round" stroke-miterlimit="10" stroke-opacity="1" fill="#FFFFFF" fill-rule="evenodd" fill-opacity="1"/></g></g></g></g><path d="M2666 587.436C2666 572.836 2677.84 561 2692.44 561L4174.56 561C4189.16 561 4201 572.836 4201 587.436L4201 914.564C4201 929.164 4189.16 941 4174.56 941L2692.44 941C2677.84 941 2666 929.164 2666 914.564Z" stroke="#B33445" stroke-width="9.625" stroke-linecap="butt" stroke-linejoin="round" stroke-miterlimit="10" stroke-opacity="1" fill="#FFFFFF" fill-rule="evenodd" fill-opacity="1"/><text fill="#B33445" fill-opacity="1" font-family="Aptos,Aptos_MSFontService,sans-serif" font-style="normal" font-variant="normal" font-weight="400" font-stretch="normal" font-size="96" text-anchor="start" direction="ltr" writing-mode="lr-tb" unicode-bidi="normal" text-decoration="none" transform="matrix(1 0 0 1 3223.35 724)">Subject to</text><text fill="#B33445" fill-opacity="1" font-family="Aptos,Aptos_MSFontService,sans-serif" font-style="normal" font-variant="normal" font-weight="400" font-stretch="normal" font-size="96" text-anchor="start" direction="ltr" writing-mode="lr-tb" unicode-bidi="normal" text-decoration="none" transform="matrix(1 0 0 1 2899.02 839)">dynamics and constraints</text><g clip-path="url(#clip13)"><g filter="url(#fx4)" transform="translate(273 1160)"><g><g><path d="M10.9635 37.3255C10.9635 22.7663 22.766 10.9637 37.3252 10.9637L957.602 10.9637C972.161 10.9637 983.964 22.7663 983.964 37.3255L983.964 330.602C983.964 345.161 972.161 356.964 957.602 356.964L37.3252 356.964C22.766 356.964 10.9635 345.161 10.9635 330.602Z" stroke="#2E8B57" stroke-width="10" stroke-linecap="butt" stroke-linejoin="round" stroke-miterlimit="10" stroke-opacity="1" fill="#ECF8F1" fill-rule="evenodd" fill-opacity="1"/></g></g></g></g><path d="M271 1184.36C271 1169.8 282.802 1158 297.362 1158L1217.64 1158C1232.2 1158 1244 1169.8 1244 1184.36L1244 1477.64C1244 1492.2 1232.2 1504 1217.64 1504L297.362 1504C282.802 1504 271 1492.2 271 1477.64Z" stroke="#2E8B57" stroke-width="9.625" stroke-linecap="butt" stroke-linejoin="round" stroke-miterlimit="10" stroke-opacity="1" fill="#ECF8F1" fill-rule="evenodd" fill-opacity="1"/><text fill="#2E8B57" fill-opacity="1" font-family="Aptos,Aptos_MSFontService,sans-serif" font-style="normal" font-variant="normal" font-weight="400" font-stretch="normal" font-size="92" text-anchor="start" direction="ltr" writing-mode="lr-tb" unicode-bidi="normal" text-decoration="none" transform="matrix(1 0 0 1 559.407 1306)">Dynamics</text><text fill="#2E8B57" fill-opacity="1" font-family="Aptos,Aptos_MSFontService,sans-serif" font-style="normal" font-variant="normal" font-weight="400" font-stretch="normal" font-size="92" text-anchor="start" direction="ltr" writing-mode="lr-tb" unicode-bidi="normal" text-decoration="none" transform="matrix(1 0 0 1 450.599 1416)">state equations</text><g clip-path="url(#clip14)"><g filter="url(#fx5)" transform="translate(1302 1160)"><g><g><path d="M10.9637 37.3253C10.9637 22.7662 22.7662 10.9637 37.3252 10.9637L941.602 10.9637C956.161 10.9637 967.964 22.7662 967.964 37.3253L967.964 330.602C967.964 345.161 956.161 356.964 941.602 356.964L37.3252 356.964C22.7662 356.964 10.9637 345.161 10.9637 330.602Z" stroke="#2B6CA3" stroke-width="10" stroke-linecap="butt" stroke-linejoin="round" stroke-miterlimit="10" stroke-opacity="1" fill="#FFFFFF" fill-rule="evenodd" fill-opacity="1"/></g></g></g></g><path d="M1300 1184.36C1300 1169.8 1311.8 1158 1326.36 1158L2230.64 1158C2245.2 1158 2257 1169.8 2257 1184.36L2257 1477.64C2257 1492.2 2245.2 1504 2230.64 1504L1326.36 1504C1311.8 1504 1300 1492.2 1300 1477.64Z" stroke="#2B6CA3" stroke-width="9.625" stroke-linecap="butt" stroke-linejoin="round" stroke-miterlimit="10" stroke-opacity="1" fill="#FFFFFF" fill-rule="evenodd" fill-opacity="1"/><text fill="#2B6CA3" fill-opacity="1" font-family="Aptos,Aptos_MSFontService,sans-serif" font-style="normal" font-variant="normal" font-weight="400" font-stretch="normal" font-size="83" text-anchor="start" direction="ltr" writing-mode="lr-tb" unicode-bidi="normal" text-decoration="none" transform="matrix(1 0 0 1 1489.61 1308)">Path constraints</text><text fill="#2B6CA3" fill-opacity="1" font-family="Aptos,Aptos_MSFontService,sans-serif" font-style="normal" font-variant="normal" font-weight="400" font-stretch="normal" font-size="83" text-anchor="start" direction="ltr" writing-mode="lr-tb" unicode-bidi="normal" text-decoration="none" transform="matrix(1 0 0 1 1507.25 1407)">limits over time</text><g clip-path="url(#clip15)"><g filter="url(#fx6)" transform="translate(2305 1160)"><g><g><path d="M10.9639 37.3254C10.9639 22.7663 22.7664 10.9637 37.3255 10.9637L968.602 10.9637C983.161 10.9637 994.964 22.7663 994.964 37.3254L994.964 330.602C994.964 345.161 983.161 356.964 968.602 356.964L37.3255 356.964C22.7664 356.964 10.9639 345.161 10.9639 330.602Z" stroke="#2B6CA3" stroke-width="10" stroke-linecap="butt" stroke-linejoin="round" stroke-miterlimit="10" stroke-opacity="1" fill="#FFFFFF" fill-rule="evenodd" fill-opacity="1"/></g></g></g></g><path d="M2303 1184.36C2303 1169.8 2314.8 1158 2329.36 1158L3260.64 1158C3275.2 1158 3287 1169.8 3287 1184.36L3287 1477.64C3287 1492.2 3275.2 1504 3260.64 1504L2329.36 1504C2314.8 1504 2303 1492.2 2303 1477.64Z" stroke="#2B6CA3" stroke-width="9.625" stroke-linecap="butt" stroke-linejoin="round" stroke-miterlimit="10" stroke-opacity="1" fill="#FFFFFF" fill-rule="evenodd" fill-opacity="1"/><text fill="#2B6CA3" fill-opacity="1" font-family="Aptos,Aptos_MSFontService,sans-serif" font-style="normal" font-variant="normal" font-weight="400" font-stretch="normal" font-size="78" text-anchor="start" direction="ltr" writing-mode="lr-tb" unicode-bidi="normal" text-decoration="none" transform="matrix(1 0 0 1 2436.56 1310)">Boundary constraints</text><text fill="#2B6CA3" fill-opacity="1" font-family="Aptos,Aptos_MSFontService,sans-serif" font-style="normal" font-variant="normal" font-weight="400" font-stretch="normal" font-size="78" text-anchor="start" direction="ltr" writing-mode="lr-tb" unicode-bidi="normal" text-decoration="none" transform="matrix(1 0 0 1 2347.27 1403)">initial / terminal conditions</text><g clip-path="url(#clip16)"><g filter="url(#fx7)" transform="translate(3441 1160)"><g><g><path d="M10.9634 37.3256C10.9634 22.7663 22.7659 10.9637 37.3251 10.9637L703.602 10.9637C718.161 10.9637 729.964 22.7663 729.964 37.3256L729.964 330.602C729.964 345.161 718.161 356.964 703.602 356.964L37.3251 356.964C22.7659 356.964 10.9634 345.161 10.9634 330.602Z" stroke="#5D6875" stroke-width="10" stroke-linecap="butt" stroke-linejoin="round" stroke-miterlimit="10" stroke-opacity="1" fill="#FFFFFF" fill-rule="evenodd" fill-opacity="1"/></g></g></g></g><path d="M3439 1184.36C3439 1169.8 3450.8 1158 3465.36 1158L4131.64 1158C4146.2 1158 4158 1169.8 4158 1184.36L4158 1477.64C4158 1492.2 4146.2 1504 4131.64 1504L3465.36 1504C3450.8 1504 3439 1492.2 3439 1477.64Z" stroke="#5D6875" stroke-width="9.625" stroke-linecap="butt" stroke-linejoin="round" stroke-miterlimit="10" stroke-opacity="1" fill="#FFFFFF" fill-rule="evenodd" fill-opacity="1"/><text fill="#5D6875" fill-opacity="1" font-family="Aptos,Aptos_MSFontService,sans-serif" font-style="normal" font-variant="normal" font-weight="400" font-stretch="normal" font-size="83" text-anchor="start" direction="ltr" writing-mode="lr-tb" unicode-bidi="normal" text-decoration="none" transform="matrix(1 0 0 1 3661.93 1308)">Bounds</text><text fill="#5D6875" fill-opacity="1" font-family="Aptos,Aptos_MSFontService,sans-serif" font-style="normal" font-variant="normal" font-weight="400" font-stretch="normal" font-size="83" text-anchor="start" direction="ltr" writing-mode="lr-tb" unicode-bidi="normal" text-decoration="none" transform="matrix(1 0 0 1 3549.67 1407)">variable limits</text><g clip-path="url(#clip17)"><g filter="url(#fx8)" transform="translate(742 1582)"><g><g><path d="M10.9637 37.3632C10.9637 22.7831 22.7832 10.9635 37.3632 10.9635L2904.56 10.9635C2919.14 10.9635 2930.96 22.7831 2930.96 37.3632L2930.96 215.564C2930.96 230.144 2919.14 241.964 2904.56 241.964L37.3632 241.964C22.7832 241.964 10.9637 230.144 10.9637 215.564Z" stroke="#E67A00" stroke-width="10" stroke-linecap="butt" stroke-linejoin="round" stroke-miterlimit="10" stroke-opacity="1" fill="#FFFFFF" fill-rule="evenodd" fill-opacity="1"/></g></g></g></g><path d="M740 1606.4C740 1591.82 751.82 1580 766.4 1580L3633.6 1580C3648.18 1580 3660 1591.82 3660 1606.4L3660 1784.6C3660 1799.18 3648.18 1811 3633.6 1811L766.4 1811C751.82 1811 740 1799.18 740 1784.6Z" stroke="#E67A00" stroke-width="9.625" stroke-linecap="butt" stroke-linejoin="round" stroke-miterlimit="10" stroke-opacity="1" fill="#FFFFFF" fill-rule="evenodd" fill-opacity="1"/><text fill="#E67A00" fill-opacity="1" font-family="Aptos,Aptos_MSFontService,sans-serif" font-style="normal" font-variant="normal" font-weight="400" font-stretch="normal" font-size="78" text-anchor="start" direction="ltr" writing-mode="lr-tb" unicode-bidi="normal" text-decoration="none" transform="matrix(1 0 0 1 1189.79 1674)">This formulation becomes a numerical optimization problem</text><text fill="#E67A00" fill-opacity="1" font-family="Aptos,Aptos_MSFontService,sans-serif" font-style="normal" font-variant="normal" font-weight="400" font-stretch="normal" font-size="78" text-anchor="start" direction="ltr" writing-mode="lr-tb" unicode-bidi="normal" text-decoration="none" transform="matrix(1 0 0 1 1539.2 1758)">after discretization or parameterization.</text></g></g></svg>