<svg width="4171" height="1416" xmlns="http://www.w3.org/2000/svg" xmlns:xlink="http://www.w3.org/1999/xlink" xml:space="preserve" overflow="hidden"><g transform="translate(-224 -591)"><g><path d="M446 635.499C446 614.237 463.236 597 484.499 597L4031.5 597C4052.76 597 4070 614.237 4070 635.499L4070 789.501C4070 810.763 4052.76 828 4031.5 828L484.499 828C463.236 828 446 810.763 446 789.501Z" stroke="#123B63" stroke-width="8.25" stroke-linecap="butt" stroke-linejoin="round" stroke-miterlimit="10" stroke-opacity="1" fill="#FFFFFF" fill-rule="evenodd" fill-opacity="1"/><text fill="#123B63" fill-opacity="1" font-family="Aptos,Aptos_MSFontService,sans-serif" font-style="normal" font-variant="normal" font-weight="400" font-stretch="normal" font-size="110" text-anchor="start" direction="ltr" writing-mode="lr-tb" unicode-bidi="normal" text-decoration="none" transform="matrix(1 0 0 1 584.845 749)">Chapter 4 focuses on formulation: variables, objective, and constraints</text><path d="M1152 1157.04 1194.21 1157.04 1194.21 1168.96 1152 1168.96ZM1188.25 1145.12 1224 1163 1188.25 1180.88Z" fill="#4B5563" fill-rule="nonzero" fill-opacity="1"/><path d="M2046 1157.04 2089.21 1157.04 2089.21 1168.96 2046 1168.96ZM2083.25 1145.13 2119 1163 2083.25 1180.88Z" fill="#4B5563" fill-rule="nonzero" fill-opacity="1"/><path d="M2940 1157.04 2983.21 1157.04 2983.21 1168.96 2940 1168.96ZM2977.25 1145.13 3013 1163 2977.25 1180.88Z" fill="#4B5563" fill-rule="nonzero" fill-opacity="1"/><path d="M3769 1157.04 3811.21 1157.04 3811.21 1168.96 3769 1168.96ZM3805.25 1145.12 3841 1163 3805.25 1180.88Z" fill="#4B5563" fill-rule="nonzero" fill-opacity="1"/><path d="M231.5 993.669C231.5 946.631 269.631 908.5 316.669 908.5L1054.33 908.5C1101.37 908.5 1139.5 946.631 1139.5 993.669L1139.5 1334.33C1139.5 1381.37 1101.37 1419.5 1054.33 1419.5L316.669 1419.5C269.631 1419.5 231.5 1381.37 231.5 1334.33Z" stroke="#5B6573" stroke-width="9.16667" stroke-linecap="butt" stroke-linejoin="round" stroke-miterlimit="10" stroke-opacity="1" fill="#F4F4F5" fill-rule="evenodd" fill-opacity="1"/><text fill="#1F2933" fill-opacity="1" font-family="Aptos,Aptos_MSFontService,sans-serif" font-style="normal" font-variant="normal" font-weight="400" font-stretch="normal" font-size="96" text-anchor="start" direction="ltr" writing-mode="lr-tb" unicode-bidi="normal" text-decoration="none" transform="matrix(1 0 0 1 441.833 1137)">Engineering</text><text fill="#1F2933" fill-opacity="1" font-family="Aptos,Aptos_MSFontService,sans-serif" font-style="normal" font-variant="normal" font-weight="400" font-stretch="normal" font-size="96" text-anchor="start" direction="ltr" writing-mode="lr-tb" unicode-bidi="normal" text-decoration="none" transform="matrix(1 0 0 1 287.215 1252)">problem statement</text><path d="M1257.5 993.668C1257.5 946.631 1295.63 908.5 1342.67 908.5L1948.33 908.5C1995.37 908.5 2033.5 946.631 2033.5 993.668L2033.5 1334.33C2033.5 1381.37 1995.37 1419.5 1948.33 1419.5L1342.67 1419.5C1295.63 1419.5 1257.5 1381.37 1257.5 1334.33Z" stroke="#123B63" stroke-width="9.16667" stroke-linecap="butt" stroke-linejoin="round" stroke-miterlimit="10" stroke-opacity="1" fill="#FFFFFF" fill-rule="evenodd" fill-opacity="1"/><text fill="#1F2933" fill-opacity="1" font-family="Aptos,Aptos_MSFontService,sans-serif" font-style="normal" font-variant="normal" font-weight="700" font-stretch="normal" font-size="96" text-anchor="start" direction="ltr" writing-mode="lr-tb" unicode-bidi="normal" text-decoration="none" transform="matrix(1 0 0 1 1341.56 1137)">Mathematical</text><text fill="#1F2933" fill-opacity="1" font-family="Aptos,Aptos_MSFontService,sans-serif" font-style="normal" font-variant="normal" font-weight="700" font-stretch="normal" font-size="96" text-anchor="start" direction="ltr" writing-mode="lr-tb" unicode-bidi="normal" text-decoration="none" transform="matrix(1 0 0 1 1387.35 1252)">formulation</text><path d="M2152.5 993.669C2152.5 946.631 2190.63 908.5 2237.67 908.5L2842.33 908.5C2889.37 908.5 2927.5 946.631 2927.5 993.669L2927.5 1334.33C2927.5 1381.37 2889.37 1419.5 2842.33 1419.5L2237.67 1419.5C2190.63 1419.5 2152.5 1381.37 2152.5 1334.33Z" stroke="#D97706" stroke-width="9.16667" stroke-linecap="butt" stroke-linejoin="round" stroke-miterlimit="10" stroke-opacity="1" fill="#FFFFFF" fill-rule="evenodd" fill-opacity="1"/><text fill="#D97706" fill-opacity="1" font-family="Aptos,Aptos_MSFontService,sans-serif" font-style="normal" font-variant="normal" font-weight="700" font-stretch="normal" font-size="96" text-anchor="start" direction="ltr" writing-mode="lr-tb" unicode-bidi="normal" text-decoration="none" transform="matrix(1 0 0 1 2309.72 1137)">Numerical</text><text fill="#D97706" fill-opacity="1" font-family="Aptos,Aptos_MSFontService,sans-serif" font-style="normal" font-variant="normal" font-weight="700" font-stretch="normal" font-size="96" text-anchor="start" direction="ltr" writing-mode="lr-tb" unicode-bidi="normal" text-decoration="none" transform="matrix(1 0 0 1 2255.76 1252)">transcription</text><path d="M3046.5 993.669C3046.5 946.631 3084.63 908.5 3131.67 908.5L3670.33 908.5C3717.37 908.5 3755.5 946.631 3755.5 993.669L3755.5 1334.33C3755.5 1381.37 3717.37 1419.5 3670.33 1419.5L3131.67 1419.5C3084.63 1419.5 3046.5 1381.37 3046.5 1334.33Z" stroke="#7C3AED" stroke-width="9.16667" stroke-linecap="butt" stroke-linejoin="round" stroke-miterlimit="10" stroke-opacity="1" fill="#FFFFFF" fill-rule="evenodd" fill-opacity="1"/><text fill="#7C3AED" fill-opacity="1" font-family="Aptos,Aptos_MSFontService,sans-serif" font-style="normal" font-variant="normal" font-weight="700" font-stretch="normal" font-size="96" text-anchor="start" direction="ltr" writing-mode="lr-tb" unicode-bidi="normal" text-decoration="none" transform="matrix(1 0 0 1 3167.94 1195)">NLP solver</text><path d="M3874.5 993.668C3874.5 946.631 3912.63 908.5 3959.67 908.5L4301.33 908.5C4348.37 908.5 4386.5 946.631 4386.5 993.668L4386.5 1334.33C4386.5 1381.37 4348.37 1419.5 4301.33 1419.5L3959.67 1419.5C3912.63 1419.5 3874.5 1381.37 3874.5 1334.33Z" stroke="#2F855A" stroke-width="9.16667" stroke-linecap="butt" stroke-linejoin="round" stroke-miterlimit="10" stroke-opacity="1" fill="#EDF7F0" fill-rule="evenodd" fill-opacity="1"/><text fill="#1F2933" fill-opacity="1" font-family="Aptos,Aptos_MSFontService,sans-serif" font-style="normal" font-variant="normal" font-weight="700" font-stretch="normal" font-size="96" text-anchor="start" direction="ltr" writing-mode="lr-tb" unicode-bidi="normal" text-decoration="none" transform="matrix(1 0 0 1 3988.44 1195)">Result</text><path d="M317.5 1571.17C317.5 1554.78 330.782 1541.5 347.167 1541.5L1023.83 1541.5C1040.22 1541.5 1053.5 1554.78 1053.5 1571.17L1053.5 1689.83C1053.5 1706.22 1040.22 1719.5 1023.83 1719.5L347.167 1719.5C330.782 1719.5 317.5 1706.22 317.5 1689.83Z" stroke="#5B6573" stroke-width="5.04167" stroke-linecap="butt" stroke-linejoin="round" stroke-miterlimit="10" stroke-opacity="1" fill="#FFFFFF" fill-rule="evenodd" fill-opacity="1"/><text fill="#5B6573" fill-opacity="1" font-family="Aptos,Aptos_MSFontService,sans-serif" font-style="normal" font-variant="normal" font-weight="400" font-stretch="normal" font-size="55" text-anchor="start" direction="ltr" writing-mode="lr-tb" unicode-bidi="normal" text-decoration="none" transform="matrix(1 0 0 1 536.938 1648)">Design need</text><path d="M1241.5 1571.17C1241.5 1554.78 1254.78 1541.5 1271.17 1541.5L2019.83 1541.5C2036.22 1541.5 2049.5 1554.78 2049.5 1571.17L2049.5 1689.83C2049.5 1706.22 2036.22 1719.5 2019.83 1719.5L1271.17 1719.5C1254.78 1719.5 1241.5 1706.22 1241.5 1689.83Z" stroke="#123B63" stroke-width="5.04167" stroke-linecap="butt" stroke-linejoin="round" stroke-miterlimit="10" stroke-opacity="1" fill="#FFFFFF" fill-rule="evenodd" fill-opacity="1"/><text fill="#123B63" fill-opacity="1" font-family="Aptos,Aptos_MSFontService,sans-serif" font-style="normal" font-variant="normal" font-weight="400" font-stretch="normal" font-size="55" text-anchor="start" direction="ltr" writing-mode="lr-tb" unicode-bidi="normal" text-decoration="none" transform="matrix(1 0 0 1 1382.44 1615)">variables + objective + </text><text fill="#123B63" fill-opacity="1" font-family="Aptos,Aptos_MSFontService,sans-serif" font-style="normal" font-variant="normal" font-weight="400" font-stretch="normal" font-size="55" text-anchor="start" direction="ltr" writing-mode="lr-tb" unicode-bidi="normal" text-decoration="none" transform="matrix(1 0 0 1 1511.21 1681)">constraints</text><path d="M2185.5 1571.17C2185.5 1554.78 2198.78 1541.5 2215.17 1541.5L2864.83 1541.5C2881.22 1541.5 2894.5 1554.78 2894.5 1571.17L2894.5 1689.83C2894.5 1706.22 2881.22 1719.5 2864.83 1719.5L2215.17 1719.5C2198.78 1719.5 2185.5 1706.22 2185.5 1689.83Z" stroke="#D97706" stroke-width="5.04167" stroke-linecap="butt" stroke-linejoin="round" stroke-miterlimit="10" stroke-opacity="1" fill="#FFFFFF" fill-rule="evenodd" fill-opacity="1"/><text fill="#D97706" fill-opacity="1" font-family="Aptos,Aptos_MSFontService,sans-serif" font-style="normal" font-variant="normal" font-weight="400" font-stretch="normal" font-size="55" text-anchor="start" direction="ltr" writing-mode="lr-tb" unicode-bidi="normal" text-decoration="none" transform="matrix(1 0 0 1 2292.39 1648)">finite decision vector</text><path d="M3168.5 1571.17C3168.5 1554.78 3181.78 1541.5 3198.17 1541.5L3603.83 1541.5C3620.22 1541.5 3633.5 1554.78 3633.5 1571.17L3633.5 1689.83C3633.5 1706.22 3620.22 1719.5 3603.83 1719.5L3198.17 1719.5C3181.78 1719.5 3168.5 1706.22 3168.5 1689.83Z" stroke="#7C3AED" stroke-width="5.04167" stroke-linecap="butt" stroke-linejoin="round" stroke-miterlimit="10" stroke-opacity="1" fill="#FFFFFF" fill-rule="evenodd" fill-opacity="1"/><text fill="#7C3AED" fill-opacity="1" font-family="Aptos,Aptos_MSFontService,sans-serif" font-style="normal" font-variant="normal" font-weight="400" font-stretch="normal" font-size="55" text-anchor="start" direction="ltr" writing-mode="lr-tb" unicode-bidi="normal" text-decoration="none" transform="matrix(1 0 0 1 3287.13 1648)">algorithm</text><path d="M3924.5 1571.17C3924.5 1554.78 3937.78 1541.5 3954.17 1541.5L4306.83 1541.5C4323.22 1541.5 4336.5 1554.78 4336.5 1571.17L4336.5 1689.83C4336.5 1706.22 4323.22 1719.5 4306.83 1719.5L3954.17 1719.5C3937.78 1719.5 3924.5 1706.22 3924.5 1689.83Z" stroke="#2F855A" stroke-width="5.04167" stroke-linecap="butt" stroke-linejoin="round" stroke-miterlimit="10" stroke-opacity="1" fill="#FFFFFF" fill-rule="evenodd" fill-opacity="1"/><text fill="#2F855A" fill-opacity="1" font-family="Aptos,Aptos_MSFontService,sans-serif" font-style="normal" font-variant="normal" font-weight="400" font-stretch="normal" font-size="55" text-anchor="start" direction="ltr" writing-mode="lr-tb" unicode-bidi="normal" text-decoration="none" transform="matrix(1 0 0 1 4032.84 1648)">solution</text><path d="M660.5 1835.5 3739.5 1835.5" stroke="#D1D5DB" stroke-width="4.58333" stroke-linecap="butt" stroke-linejoin="round" stroke-miterlimit="10" stroke-opacity="0.8" fill="none" fill-rule="evenodd"/><text fill="#4B5563" fill-opacity="1" font-family="Aptos,Aptos_MSFontService,sans-serif" font-style="italic" font-variant="normal" font-weight="400" font-stretch="normal" font-size="69" text-anchor="start" direction="ltr" writing-mode="lr-tb" unicode-bidi="normal" text-decoration="none" transform="matrix(1 0 0 1 928.32 1943)">Formulation translates an engineering statement into a solvable optimization problem.</text></g></g></svg>