<svg width="3905" height="1251" xmlns="http://www.w3.org/2000/svg" xmlns:xlink="http://www.w3.org/1999/xlink" xml:space="preserve" overflow="hidden"><g transform="translate(-197 -522)"><g><path d="M410 567.598C410 545.729 427.729 528 449.598 528L3950.4 528C3972.27 528 3990 545.729 3990 567.598L3990 785.402C3990 807.271 3972.27 825 3950.4 825L449.598 825C427.729 825 410 807.271 410 785.402Z" stroke="#123D66" stroke-width="8.25" stroke-linecap="butt" stroke-linejoin="round" stroke-miterlimit="10" stroke-opacity="1" fill="#FFFFFF" fill-rule="evenodd" fill-opacity="1"/><text fill="#0B3A66" fill-opacity="1" font-family="Aptos,Aptos_MSFontService,sans-serif" font-style="normal" font-variant="normal" font-weight="400" font-stretch="normal" font-size="92" text-anchor="start" direction="ltr" writing-mode="lr-tb" unicode-bidi="normal" text-decoration="none" transform="matrix(1 0 0 1 543.113 651)">Dynamics are not optional: the optimizer searches only among trajectories that obey </text><text fill="#0B3A66" fill-opacity="1" font-family="Aptos,Aptos_MSFontService,sans-serif" font-style="normal" font-variant="normal" font-weight="400" font-stretch="normal" font-size="92" text-anchor="start" direction="ltr" writing-mode="lr-tb" unicode-bidi="normal" text-decoration="none" transform="matrix(1 0 0 1 1962.85 750)">the physics.</text><path d="M1112 1159.96 1162.79 1159.96 1162.79 1170.04 1112 1170.04ZM1157.75 1149.88 1188 1165 1157.75 1180.13Z" fill="#56616D" fill-rule="nonzero" fill-opacity="1"/><path d="M2171 1159.96 2218.79 1159.96 2218.79 1170.04 2171 1170.04ZM2213.75 1149.88 2244 1165 2213.75 1180.13Z" fill="#56616D" fill-rule="nonzero" fill-opacity="1"/><path d="M3320 1159.96 3399.79 1159.96 3399.79 1170.04 3320 1170.04ZM3394.75 1149.88 3425 1165 3394.75 1180.13Z" fill="#56616D" fill-rule="nonzero" fill-opacity="1"/><path d="M205.5 938.054C205.5 916.209 223.209 898.5 245.054 898.5L1039.95 898.5C1061.79 898.5 1079.5 916.209 1079.5 938.054L1079.5 1392.95C1079.5 1414.79 1061.79 1432.5 1039.95 1432.5L245.054 1432.5C223.209 1432.5 205.5 1414.79 205.5 1392.95Z" stroke="#0B3A66" stroke-width="10.5417" stroke-linecap="butt" stroke-linejoin="round" stroke-miterlimit="10" stroke-opacity="1" fill="#EAF4FC" fill-rule="evenodd" fill-opacity="1"/><path d="M1247.5 938.053C1247.5 916.209 1265.21 898.5 1287.05 898.5L2098.95 898.5C2120.79 898.5 2138.5 916.209 2138.5 938.053L2138.5 1392.95C2138.5 1414.79 2120.79 1432.5 2098.95 1432.5L1287.05 1432.5C1265.21 1432.5 1247.5 1414.79 1247.5 1392.95Z" stroke="#B23A48" stroke-width="10.5417" stroke-linecap="butt" stroke-linejoin="round" stroke-miterlimit="10" stroke-opacity="1" fill="#FFFDF8" fill-rule="evenodd" fill-opacity="1"/><path d="M2303.5 938.054C2303.5 916.209 2321.21 898.5 2343.05 898.5L3247.95 898.5C3269.79 898.5 3287.5 916.209 3287.5 938.054L3287.5 1392.95C3287.5 1414.79 3269.79 1432.5 3247.95 1432.5L2343.05 1432.5C2321.21 1432.5 2303.5 1414.79 2303.5 1392.95Z" stroke="#2E7D56" stroke-width="10.5417" stroke-linecap="butt" stroke-linejoin="round" stroke-miterlimit="10" stroke-opacity="1" fill="#ECF8F0" fill-rule="evenodd" fill-opacity="1"/><path d="M3458.5 938.054C3458.5 916.209 3476.21 898.5 3498.05 898.5L4052.95 898.5C4074.79 898.5 4092.5 916.209 4092.5 938.054L4092.5 1392.95C4092.5 1414.79 4074.79 1432.5 4052.95 1432.5L3498.05 1432.5C3476.21 1432.5 3458.5 1414.79 3458.5 1392.95Z" stroke="#56616D" stroke-width="10.5417" stroke-linecap="butt" stroke-linejoin="round" stroke-miterlimit="10" stroke-opacity="1" fill="#FFFFFF" fill-rule="evenodd" fill-opacity="1"/><text fill="#1E2B36" fill-opacity="1" font-family="Aptos,Aptos_MSFontService,sans-serif" font-style="normal" font-variant="normal" font-weight="700" font-stretch="normal" font-size="101" text-anchor="start" direction="ltr" writing-mode="lr-tb" unicode-bidi="normal" text-decoration="none" transform="matrix(1 0 0 1 291.5 1087)">Physical model</text><text fill="#1E2B36" fill-opacity="1" font-family="Calibri,Calibri_MSFontService,sans-serif" font-style="italic" font-variant="normal" font-weight="400" font-stretch="normal" font-size="92" text-anchor="start" direction="ltr" writing-mode="lr-tb" unicode-bidi="normal" text-decoration="none" transform="matrix(1 0 0 1 377.449 1265)">ẋ</text><text fill="#1E2B36" fill-opacity="1" font-family="Aptos,Aptos_MSFontService,sans-serif" font-style="italic" font-variant="normal" font-weight="400" font-stretch="normal" font-size="92" text-anchor="start" direction="ltr" writing-mode="lr-tb" unicode-bidi="normal" text-decoration="none" transform="matrix(1 0 0 1 435.886 1265)">= f(x, u, x</text><text fill="#1E2B36" fill-opacity="1" font-family="Segoe UI Symbol,Segoe UI Symbol_MSFontService,sans-serif" font-style="oblique" font-variant="normal" font-weight="400" font-stretch="normal" font-size="92" text-anchor="start" direction="ltr" writing-mode="lr-tb" unicode-bidi="normal" text-decoration="none" transform="matrix(1 0 0 1 775.626 1265)">ₚ</text><text fill="#1E2B36" fill-opacity="1" font-family="Aptos,Aptos_MSFontService,sans-serif" font-style="italic" font-variant="normal" font-weight="400" font-stretch="normal" font-size="92" text-anchor="start" direction="ltr" writing-mode="lr-tb" unicode-bidi="normal" text-decoration="none" transform="matrix(1 0 0 1 807.136 1265)">, t)</text><text fill="#B23A48" fill-opacity="1" font-family="Aptos,Aptos_MSFontService,sans-serif" font-style="normal" font-variant="normal" font-weight="700" font-stretch="normal" font-size="101" text-anchor="start" direction="ltr" writing-mode="lr-tb" unicode-bidi="normal" text-decoration="none" transform="matrix(1 0 0 1 1372.74 1093)">Residual form</text><text fill="#B23A48" fill-opacity="1" font-family="Calibri,Calibri_MSFontService,sans-serif" font-style="italic" font-variant="normal" font-weight="400" font-stretch="normal" font-size="92" text-anchor="start" direction="ltr" writing-mode="lr-tb" unicode-bidi="normal" text-decoration="none" transform="matrix(1 0 0 1 1508.99 1267)">ẋ</text><text fill="#B23A48" fill-opacity="1" font-family="Aptos,Aptos_MSFontService,sans-serif" font-style="italic" font-variant="normal" font-weight="400" font-stretch="normal" font-size="92" text-anchor="start" direction="ltr" writing-mode="lr-tb" unicode-bidi="normal" text-decoration="none" transform="matrix(1 0 0 1 1567.43 1267)">− f(·) = 0</text><text fill="#1E2B36" fill-opacity="1" font-family="Aptos,Aptos_MSFontService,sans-serif" font-style="normal" font-variant="normal" font-weight="700" font-stretch="normal" font-size="101" text-anchor="start" direction="ltr" writing-mode="lr-tb" unicode-bidi="normal" text-decoration="none" transform="matrix(1 0 0 1 2469.6 1090)">Constraint set</text><text fill="#1E2B36" fill-opacity="1" font-family="Aptos,Aptos_MSFontService,sans-serif" font-style="normal" font-variant="normal" font-weight="400" font-stretch="normal" font-size="87" text-anchor="start" direction="ltr" writing-mode="lr-tb" unicode-bidi="normal" text-decoration="none" transform="matrix(1 0 0 1 2488.85 1266)">for all  t </text><text fill="#1E2B36" fill-opacity="1" font-family="Cambria Math,Cambria Math_MSFontService,sans-serif" font-style="normal" font-variant="normal" font-weight="400" font-stretch="normal" font-size="87" text-anchor="start" direction="ltr" writing-mode="lr-tb" unicode-bidi="normal" text-decoration="none" transform="matrix(1 0 0 1 2782.8 1266)">∈</text><text fill="#1E2B36" fill-opacity="1" font-family="Aptos,Aptos_MSFontService,sans-serif" font-style="normal" font-variant="normal" font-weight="400" font-stretch="normal" font-size="87" text-anchor="start" direction="ltr" writing-mode="lr-tb" unicode-bidi="normal" text-decoration="none" transform="matrix(1 0 0 1 2854.99 1266)">[t₀, t_f]</text><text fill="#1E2B36" fill-opacity="1" font-family="Aptos,Aptos_MSFontService,sans-serif" font-style="normal" font-variant="normal" font-weight="700" font-stretch="normal" font-size="96" text-anchor="start" direction="ltr" writing-mode="lr-tb" unicode-bidi="normal" text-decoration="none" transform="matrix(1 0 0 1 3589.37 1137)">Feasible</text><text fill="#1E2B36" fill-opacity="1" font-family="Aptos,Aptos_MSFontService,sans-serif" font-style="normal" font-variant="normal" font-weight="700" font-stretch="normal" font-size="96" text-anchor="start" direction="ltr" writing-mode="lr-tb" unicode-bidi="normal" text-decoration="none" transform="matrix(1 0 0 1 3562.44 1252)">trajectory</text><path d="M542.5 1531.9C542.5 1517.32 554.32 1505.5 568.9 1505.5L3832.1 1505.5C3846.68 1505.5 3858.5 1517.32 3858.5 1531.9L3858.5 1743.1C3858.5 1757.68 3846.68 1769.5 3832.1 1769.5L568.9 1769.5C554.32 1769.5 542.5 1757.68 542.5 1743.1Z" stroke="#123D66" stroke-width="7.33333" stroke-linecap="butt" stroke-linejoin="round" stroke-miterlimit="10" stroke-opacity="1" fill="#F9FCFF" fill-rule="evenodd" fill-opacity="1"/><text fill="#0B3A66" fill-opacity="1" font-family="Aptos,Aptos_MSFontService,sans-serif" font-style="normal" font-variant="normal" font-weight="400" font-stretch="normal" font-size="73" text-anchor="start" direction="ltr" writing-mode="lr-tb" unicode-bidi="normal" text-decoration="none" transform="matrix(1 0 0 1 686.503 1613)">In CCD, the dynamic model becomes an equality constraint that filters out physically impossible </text><text fill="#0B3A66" fill-opacity="1" font-family="Aptos,Aptos_MSFontService,sans-serif" font-style="normal" font-variant="normal" font-weight="400" font-stretch="normal" font-size="73" text-anchor="start" direction="ltr" writing-mode="lr-tb" unicode-bidi="normal" text-decoration="none" transform="matrix(1 0 0 1 2067.6 1683)">designs.</text></g></g></svg>