<svg width="4065" height="1715" xmlns="http://www.w3.org/2000/svg" xmlns:xlink="http://www.w3.org/1999/xlink" xml:space="preserve" overflow="hidden"><g transform="translate(-87 -100)"><g><path d="M1023.5 136.124C1023.5 119.763 1036.76 106.5 1053.12 106.5L3353.88 106.5C3370.24 106.5 3383.5 119.763 3383.5 136.124L3383.5 313.876C3383.5 330.237 3370.24 343.5 3353.88 343.5L1053.12 343.5C1036.76 343.5 1023.5 330.237 1023.5 313.876Z" stroke="#0B3B66" stroke-width="7.33333" stroke-linecap="butt" stroke-linejoin="round" stroke-miterlimit="10" stroke-opacity="1" fill="#FFFFFF" fill-rule="evenodd" fill-opacity="1"/><text fill="#0B3B66" fill-opacity="1" font-family="Aptos,Aptos_MSFontService,sans-serif" font-style="normal" font-variant="normal" font-weight="700" font-stretch="normal" font-size="101" text-anchor="start" direction="ltr" writing-mode="lr-tb" unicode-bidi="normal" text-decoration="none" transform="matrix(1 0 0 1 1379.77 257)">Active</text><text fill="#0B3B66" fill-opacity="1" font-family="Aptos,Aptos_MSFontService,sans-serif" font-style="normal" font-variant="normal" font-weight="700" font-stretch="normal" font-size="101" text-anchor="start" direction="ltr" writing-mode="lr-tb" unicode-bidi="normal" text-decoration="none" transform="matrix(1 0 0 1 1665.81 257)">-</text><text fill="#0B3B66" fill-opacity="1" font-family="Aptos,Aptos_MSFontService,sans-serif" font-style="normal" font-variant="normal" font-weight="700" font-stretch="normal" font-size="101" text-anchor="start" direction="ltr" writing-mode="lr-tb" unicode-bidi="normal" text-decoration="none" transform="matrix(1 0 0 1 1700.19 257)">suspension CCD formulation</text><path d="M1007 695.187 1153.94 695.188 1153.94 704.813 1007 704.812ZM1149.12 685.563 1178 700 1149.12 714.438Z" fill="#596779" fill-rule="nonzero" fill-opacity="1"/><path d="M2030 695.187 2176.94 695.188 2176.94 704.813 2030 704.812ZM2172.12 685.563 2201 700 2172.12 714.438Z" fill="#596779" fill-rule="nonzero" fill-opacity="1"/><path d="M3053 695.187 3199.94 695.188 3199.94 704.813 3053 704.812ZM3195.12 685.563 3224 700 3195.12 714.438Z" fill="#596779" fill-rule="nonzero" fill-opacity="1"/><path d="M590.167 947.5 590.167 1097.58 582.834 1097.58 582.833 947.5ZM600.25 1093 586.5 1120.5 572.75 1093Z" fill="#596779" fill-rule="nonzero" fill-opacity="1"/><path d="M2111.17 914.5 2111.17 1073.58 2103.83 1073.58 2103.83 914.5ZM2121.25 1069 2107.5 1096.5 2093.75 1069Z" fill="#596779" fill-rule="nonzero" fill-opacity="1"/><path d="M3.66658-0.0245998 4.51251 126.059-2.82066 126.109-3.66658 0.0245998ZM14.5649 121.409 0.999672 149-12.9345 121.593Z" fill="#596779" fill-rule="nonzero" fill-opacity="1" transform="matrix(-1 0 0 1 3656.5 947.5)"/><path d="M182.5 515.2C182.5 498.797 195.797 485.5 212.2 485.5L960.8 485.5C977.203 485.5 990.5 498.797 990.5 515.2L990.5 884.8C990.5 901.203 977.203 914.5 960.8 914.5L212.2 914.5C195.797 914.5 182.5 901.203 182.5 884.8Z" stroke="#0B3B66" stroke-width="9.16667" stroke-linecap="butt" stroke-linejoin="round" stroke-miterlimit="10" stroke-opacity="1" fill="#EAF4FF" fill-rule="evenodd" fill-opacity="1"/><text fill="#0B3B66" fill-opacity="1" font-family="Aptos,Aptos_MSFontService,sans-serif" font-style="normal" font-variant="normal" font-weight="700" font-stretch="normal" font-size="76" text-anchor="start" direction="ltr" writing-mode="lr-tb" unicode-bidi="normal" text-decoration="none" transform="matrix(1 0 0 1 321.624 633)">Plant decisions</text><text fill="#0B3B66" fill-opacity="1" font-family="Aptos,Aptos_MSFontService,sans-serif" font-style="normal" font-variant="normal" font-weight="700" font-stretch="normal" font-size="76" text-anchor="start" direction="ltr" writing-mode="lr-tb" unicode-bidi="normal" text-decoration="none" transform="matrix(1 0 0 1 221.501 724)">k_s, c_s, dimensions,</text><text fill="#0B3B66" fill-opacity="1" font-family="Aptos,Aptos_MSFontService,sans-serif" font-style="normal" font-variant="normal" font-weight="700" font-stretch="normal" font-size="76" text-anchor="start" direction="ltr" writing-mode="lr-tb" unicode-bidi="normal" text-decoration="none" transform="matrix(1 0 0 1 333.22 814)">actuator sizing</text><path d="M1205.5 515.2C1205.5 498.797 1218.8 485.5 1235.2 485.5L1983.8 485.5C2000.2 485.5 2013.5 498.797 2013.5 515.2L2013.5 884.8C2013.5 901.203 2000.2 914.5 1983.8 914.5L1235.2 914.5C1218.8 914.5 1205.5 901.203 1205.5 884.8Z" stroke="#D56A00" stroke-width="9.16667" stroke-linecap="butt" stroke-linejoin="round" stroke-miterlimit="10" stroke-opacity="1" fill="#FFF4D9" fill-rule="evenodd" fill-opacity="1"/><text fill="#D56A00" fill-opacity="1" font-family="Aptos,Aptos_MSFontService,sans-serif" font-style="normal" font-variant="normal" font-weight="700" font-stretch="normal" font-size="76" text-anchor="start" direction="ltr" writing-mode="lr-tb" unicode-bidi="normal" text-decoration="none" transform="matrix(1 0 0 1 1304.67 633)">Control decisions</text><text fill="#D56A00" fill-opacity="1" font-family="Aptos,Aptos_MSFontService,sans-serif" font-style="normal" font-variant="normal" font-weight="700" font-stretch="normal" font-size="76" text-anchor="start" direction="ltr" writing-mode="lr-tb" unicode-bidi="normal" text-decoration="none" transform="matrix(1 0 0 1 1349.97 724)">feedback gains</text><text fill="#D56A00" fill-opacity="1" font-family="Aptos,Aptos_MSFontService,sans-serif" font-style="normal" font-variant="normal" font-weight="700" font-stretch="normal" font-size="76" text-anchor="start" direction="ltr" writing-mode="lr-tb" unicode-bidi="normal" text-decoration="none" transform="matrix(1 0 0 1 1301.12 814)">or force trajectory</text><path d="M2228.5 515.2C2228.5 498.797 2241.8 485.5 2258.2 485.5L3006.8 485.5C3023.2 485.5 3036.5 498.797 3036.5 515.2L3036.5 884.8C3036.5 901.203 3023.2 914.5 3006.8 914.5L2258.2 914.5C2241.8 914.5 2228.5 901.203 2228.5 884.8Z" stroke="#218557" stroke-width="9.16667" stroke-linecap="butt" stroke-linejoin="round" stroke-miterlimit="10" stroke-opacity="1" fill="#EAF7F0" fill-rule="evenodd" fill-opacity="1"/><text fill="#218557" fill-opacity="1" font-family="Aptos,Aptos_MSFontService,sans-serif" font-style="normal" font-variant="normal" font-weight="700" font-stretch="normal" font-size="71" text-anchor="start" direction="ltr" writing-mode="lr-tb" unicode-bidi="normal" text-decoration="none" transform="matrix(1 0 0 1 2378.25 638)">Dynamic model</text><text fill="#218557" fill-opacity="1" font-family="Aptos,Aptos_MSFontService,sans-serif" font-style="normal" font-variant="normal" font-weight="700" font-stretch="normal" font-size="71" text-anchor="start" direction="ltr" writing-mode="lr-tb" unicode-bidi="normal" text-decoration="none" transform="matrix(1 0 0 1 2341.35 723)">quarter</text><text fill="#218557" fill-opacity="1" font-family="Aptos,Aptos_MSFontService,sans-serif" font-style="normal" font-variant="normal" font-weight="700" font-stretch="normal" font-size="71" text-anchor="start" direction="ltr" writing-mode="lr-tb" unicode-bidi="normal" text-decoration="none" transform="matrix(1 0 0 1 2579.39 723)">-</text><text fill="#218557" fill-opacity="1" font-family="Aptos,Aptos_MSFontService,sans-serif" font-style="normal" font-variant="normal" font-weight="700" font-stretch="normal" font-size="71" text-anchor="start" direction="ltr" writing-mode="lr-tb" unicode-bidi="normal" text-decoration="none" transform="matrix(1 0 0 1 2603.45 723)">car states</text><text fill="#218557" fill-opacity="1" font-family="Aptos,Aptos_MSFontService,sans-serif" font-style="normal" font-variant="normal" font-weight="700" font-stretch="normal" font-size="71" text-anchor="start" direction="ltr" writing-mode="lr-tb" unicode-bidi="normal" text-decoration="none" transform="matrix(1 0 0 1 2287.84 808)">and road disturbance</text><path d="M3251.5 515.2C3251.5 498.797 3264.8 485.5 3281.2 485.5L4029.8 485.5C4046.2 485.5 4059.5 498.797 4059.5 515.2L4059.5 884.8C4059.5 901.203 4046.2 914.5 4029.8 914.5L3281.2 914.5C3264.8 914.5 3251.5 901.203 3251.5 884.8Z" stroke="#7638F0" stroke-width="9.16667" stroke-linecap="butt" stroke-linejoin="round" stroke-miterlimit="10" stroke-opacity="1" fill="#F2E8FF" fill-rule="evenodd" fill-opacity="1"/><text fill="#7638F0" fill-opacity="1" font-family="Aptos,Aptos_MSFontService,sans-serif" font-style="normal" font-variant="normal" font-weight="700" font-stretch="normal" font-size="76" text-anchor="start" direction="ltr" writing-mode="lr-tb" unicode-bidi="normal" text-decoration="none" transform="matrix(1 0 0 1 3361.22 633)">System objective</text><text fill="#7638F0" fill-opacity="1" font-family="Aptos,Aptos_MSFontService,sans-serif" font-style="normal" font-variant="normal" font-weight="700" font-stretch="normal" font-size="76" text-anchor="start" direction="ltr" writing-mode="lr-tb" unicode-bidi="normal" text-decoration="none" transform="matrix(1 0 0 1 3337.94 724)">comfort, handling,</text><text fill="#7638F0" fill-opacity="1" font-family="Aptos,Aptos_MSFontService,sans-serif" font-style="normal" font-variant="normal" font-weight="700" font-stretch="normal" font-size="76" text-anchor="start" direction="ltr" writing-mode="lr-tb" unicode-bidi="normal" text-decoration="none" transform="matrix(1 0 0 1 3465.42 814)">effort, cost</text><path d="M92.5 1167.23C92.5 1150.81 105.81 1137.5 122.229 1137.5L1052.77 1137.5C1069.19 1137.5 1082.5 1150.81 1082.5 1167.23L1082.5 1510.77C1082.5 1527.19 1069.19 1540.5 1052.77 1540.5L122.229 1540.5C105.81 1540.5 92.5 1527.19 92.5 1510.77Z" stroke="#0B3B66" stroke-width="9.16667" stroke-linecap="butt" stroke-linejoin="round" stroke-miterlimit="10" stroke-opacity="1" fill="#FFFFFF" fill-rule="evenodd" fill-opacity="1"/><text fill="#0B3B66" fill-opacity="1" font-family="Aptos,Aptos_MSFontService,sans-serif" font-style="normal" font-variant="normal" font-weight="400" font-stretch="normal" font-size="71" text-anchor="start" direction="ltr" writing-mode="lr-tb" unicode-bidi="normal" text-decoration="none" transform="matrix(1 0 0 1 328.396 1277)">Plant constraints</text><text fill="#0B3B66" fill-opacity="1" font-family="Aptos,Aptos_MSFontService,sans-serif" font-style="normal" font-variant="normal" font-weight="400" font-stretch="normal" font-size="71" text-anchor="start" direction="ltr" writing-mode="lr-tb" unicode-bidi="normal" text-decoration="none" transform="matrix(1 0 0 1 321.291 1362)">packaging, mass,</text><text fill="#0B3B66" fill-opacity="1" font-family="Aptos,Aptos_MSFontService,sans-serif" font-style="normal" font-variant="normal" font-weight="400" font-stretch="normal" font-size="71" text-anchor="start" direction="ltr" writing-mode="lr-tb" unicode-bidi="normal" text-decoration="none" transform="matrix(1 0 0 1 283.777 1447)">fatigue, spring index</text><path d="M1615.5 1167.23C1615.5 1150.81 1628.81 1137.5 1645.23 1137.5L2575.77 1137.5C2592.19 1137.5 2605.5 1150.81 2605.5 1167.23L2605.5 1510.77C2605.5 1527.19 2592.19 1540.5 2575.77 1540.5L1645.23 1540.5C1628.81 1540.5 1615.5 1527.19 1615.5 1510.77Z" stroke="#C02F45" stroke-width="9.16667" stroke-linecap="butt" stroke-linejoin="round" stroke-miterlimit="10" stroke-opacity="1" fill="#FFFFFF" fill-rule="evenodd" fill-opacity="1"/><text fill="#C02F45" fill-opacity="1" font-family="Aptos,Aptos_MSFontService,sans-serif" font-style="normal" font-variant="normal" font-weight="400" font-stretch="normal" font-size="71" text-anchor="start" direction="ltr" writing-mode="lr-tb" unicode-bidi="normal" text-decoration="none" transform="matrix(1 0 0 1 1861.47 1277)">Path constraints</text><text fill="#C02F45" fill-opacity="1" font-family="Aptos,Aptos_MSFontService,sans-serif" font-style="normal" font-variant="normal" font-weight="400" font-stretch="normal" font-size="71" text-anchor="start" direction="ltr" writing-mode="lr-tb" unicode-bidi="normal" text-decoration="none" transform="matrix(1 0 0 1 1775.4 1362)">travel limits over time,</text><text fill="#C02F45" fill-opacity="1" font-family="Aptos,Aptos_MSFontService,sans-serif" font-style="normal" font-variant="normal" font-weight="400" font-stretch="normal" font-size="71" text-anchor="start" direction="ltr" writing-mode="lr-tb" unicode-bidi="normal" text-decoration="none" transform="matrix(1 0 0 1 1772.37 1447)">force and stroke limits</text><path d="M3157.5 1153.16C3157.5 1136.78 3170.78 1123.5 3187.16 1123.5L4117.84 1123.5C4134.22 1123.5 4147.5 1136.78 4147.5 1153.16L4147.5 1495.84C4147.5 1512.22 4134.22 1525.5 4117.84 1525.5L3187.16 1525.5C3170.78 1525.5 3157.5 1512.22 3157.5 1495.84Z" stroke="#218557" stroke-width="9.16667" stroke-linecap="butt" stroke-linejoin="round" stroke-miterlimit="10" stroke-opacity="1" fill="#FFFFFF" fill-rule="evenodd" fill-opacity="1"/><text fill="#218557" fill-opacity="1" font-family="Aptos,Aptos_MSFontService,sans-serif" font-style="normal" font-variant="normal" font-weight="400" font-stretch="normal" font-size="69" text-anchor="start" direction="ltr" writing-mode="lr-tb" unicode-bidi="normal" text-decoration="none" transform="matrix(1 0 0 1 3414.49 1263)">Validation outputs</text><text fill="#218557" fill-opacity="1" font-family="Aptos,Aptos_MSFontService,sans-serif" font-style="normal" font-variant="normal" font-weight="400" font-stretch="normal" font-size="69" text-anchor="start" direction="ltr" writing-mode="lr-tb" unicode-bidi="normal" text-decoration="none" transform="matrix(1 0 0 1 3273.14 1346)">body acceleration, tire load,</text><text fill="#218557" fill-opacity="1" font-family="Aptos,Aptos_MSFontService,sans-serif" font-style="normal" font-variant="normal" font-weight="400" font-stretch="normal" font-size="69" text-anchor="start" direction="ltr" writing-mode="lr-tb" unicode-bidi="normal" text-decoration="none" transform="matrix(1 0 0 1 3307.97 1428)">travel, energy, robustness</text><path d="M773 1622.53C773 1613.4 780.402 1606 789.533 1606L3610.47 1606C3619.6 1606 3627 1613.4 3627 1622.53L3627 1794.47C3627 1803.6 3619.6 1811 3610.47 1811L789.533 1811C780.402 1811 773 1803.6 773 1794.47Z" stroke="#0B3B66" stroke-width="5.5" stroke-linecap="butt" stroke-linejoin="round" stroke-miterlimit="10" stroke-opacity="1" fill="#F8FBFF" fill-rule="evenodd" fill-opacity="1"/><text fill="#0B3B66" fill-opacity="1" font-family="Aptos,Aptos_MSFontService,sans-serif" font-style="normal" font-variant="normal" font-weight="700" font-stretch="normal" font-size="55" text-anchor="start" direction="ltr" writing-mode="lr-tb" unicode-bidi="normal" text-decoration="none" transform="matrix(1 0 0 1 848.192 1718)">CCD links plant variables, control policy, dynamics, objectives, and constraints in one optimization problem.</text></g></g></svg>