<svg width="3933" height="1916" xmlns="http://www.w3.org/2000/svg" xmlns:xlink="http://www.w3.org/1999/xlink" xml:space="preserve" overflow="hidden"><g transform="translate(-233 -201)"><g><text fill="#1F2937" fill-opacity="1" font-family="Aptos Display,Aptos Display_MSFontService,sans-serif" font-style="normal" font-variant="normal" font-weight="700" font-stretch="normal" font-size="110" text-anchor="start" direction="ltr" writing-mode="lr-tb" unicode-bidi="normal" text-decoration="none" transform="matrix(1 0 0 1 1458.78 341)">Control co</text><text fill="#1F2937" fill-opacity="1" font-family="Aptos Display,Aptos Display_MSFontService,sans-serif" font-style="normal" font-variant="normal" font-weight="700" font-stretch="normal" font-size="110" text-anchor="start" direction="ltr" writing-mode="lr-tb" unicode-bidi="normal" text-decoration="none" transform="matrix(1 0 0 1 1948.9 341)">-</text><text fill="#1F2937" fill-opacity="1" font-family="Aptos Display,Aptos Display_MSFontService,sans-serif" font-style="normal" font-variant="normal" font-weight="700" font-stretch="normal" font-size="110" text-anchor="start" direction="ltr" writing-mode="lr-tb" unicode-bidi="normal" text-decoration="none" transform="matrix(1 0 0 1 1989.01 341)">design architectures</text><path d="M1535.5 406.5 2855.5 406.501" stroke="#D1D5DB" stroke-width="4.58333" stroke-linecap="butt" stroke-linejoin="round" stroke-miterlimit="10" stroke-opacity="1" fill="none" fill-rule="evenodd"/><path d="M248.5 508.972C248.5 494.352 260.352 482.5 274.971 482.5L1410.03 482.5C1424.65 482.5 1436.5 494.352 1436.5 508.972L1436.5 638.028C1436.5 652.648 1424.65 664.5 1410.03 664.5L274.971 664.5C260.352 664.5 248.5 652.648 248.5 638.028Z" stroke="#123B63" stroke-width="7.33333" stroke-linecap="butt" stroke-linejoin="round" stroke-miterlimit="10" stroke-opacity="1" fill="#FFFFFF" fill-rule="evenodd" fill-opacity="1"/><text fill="#123B63" fill-opacity="1" font-family="Aptos,Aptos_MSFontService,sans-serif" font-style="normal" font-variant="normal" font-weight="700" font-stretch="normal" font-size="83" text-anchor="start" direction="ltr" writing-mode="lr-tb" unicode-bidi="normal" text-decoration="none" transform="matrix(1 0 0 1 638.401 599)">Sequential</text><path d="M1607.5 508.972C1607.5 494.352 1619.35 482.5 1633.97 482.5L2769.03 482.5C2783.65 482.5 2795.5 494.352 2795.5 508.972L2795.5 638.028C2795.5 652.648 2783.65 664.5 2769.03 664.5L1633.97 664.5C1619.35 664.5 1607.5 652.648 1607.5 638.028Z" stroke="#2F855A" stroke-width="7.33333" stroke-linecap="butt" stroke-linejoin="round" stroke-miterlimit="10" stroke-opacity="1" fill="#FFFFFF" fill-rule="evenodd" fill-opacity="1"/><text fill="#2F855A" fill-opacity="1" font-family="Aptos,Aptos_MSFontService,sans-serif" font-style="normal" font-variant="normal" font-weight="700" font-stretch="normal" font-size="83" text-anchor="start" direction="ltr" writing-mode="lr-tb" unicode-bidi="normal" text-decoration="none" transform="matrix(1 0 0 1 2066.16 599)">Nested</text><path d="M2967.5 508.972C2967.5 494.352 2979.35 482.5 2993.97 482.5L4129.03 482.5C4143.65 482.5 4155.5 494.352 4155.5 508.972L4155.5 638.028C4155.5 652.648 4143.65 664.5 4129.03 664.5L2993.97 664.5C2979.35 664.5 2967.5 652.648 2967.5 638.028Z" stroke="#7C3AED" stroke-width="7.33333" stroke-linecap="butt" stroke-linejoin="round" stroke-miterlimit="10" stroke-opacity="1" fill="#FFFFFF" fill-rule="evenodd" fill-opacity="1"/><text fill="#7C3AED" fill-opacity="1" font-family="Aptos,Aptos_MSFontService,sans-serif" font-style="normal" font-variant="normal" font-weight="700" font-stretch="normal" font-size="83" text-anchor="start" direction="ltr" writing-mode="lr-tb" unicode-bidi="normal" text-decoration="none" transform="matrix(1 0 0 1 3298.93 599)">Simultaneous</text><path d="M847.083 994.5 847.084 1057.58 837.917 1057.58 837.917 994.5ZM856.25 1053 842.5 1080.5 828.75 1053Z" fill="#5B6470" fill-rule="nonzero" fill-opacity="1"/><path d="M847.083 1469.5 847.084 1521.58 837.917 1521.58 837.917 1469.5ZM856.25 1517 842.5 1544.5 828.75 1517Z" fill="#5B6470" fill-rule="nonzero" fill-opacity="1"/><path d="M4.58302-0.0532928 5.31659 63.0315-3.84945 63.1381-4.58302 0.0532928ZM14.4293 58.3419 1.00003 85.9999-13.0688 58.6617Z" fill="#5B6470" fill-rule="nonzero" fill-opacity="1" transform="matrix(-1 0 0 1 2201.5 981.5)"/><path d="M4.58293-0.0611077 5.27742 52.0242-3.88843 52.1464-4.58293 0.0611077ZM14.3822 47.3191 1.00003 74.9999-13.1154 47.6857Z" fill="#5B6470" fill-rule="nonzero" fill-opacity="1" transform="matrix(-1 0 0 1 2201.5 1469.5)"/><path d="M3566.08 1478.44 3566.78 1531.53 3557.62 1531.65 3556.92 1478.56ZM3575.89 1526.82 3562.5 1554.5 3548.39 1527.18Z" fill="#7C3AED" fill-rule="nonzero" fill-opacity="1"/><path d="M330.5 734.847C330.5 720.296 342.296 708.5 356.847 708.5L1327.15 708.5C1341.7 708.5 1353.5 720.296 1353.5 734.847L1353.5 929.153C1353.5 943.704 1341.7 955.5 1327.15 955.5L356.847 955.5C342.296 955.5 330.5 943.704 330.5 929.153Z" stroke="#123B63" stroke-width="7.33333" stroke-linecap="butt" stroke-linejoin="round" stroke-miterlimit="10" stroke-opacity="1" fill="#EAF4FB" fill-rule="evenodd" fill-opacity="1"/><text fill="#123B63" fill-opacity="1" font-family="Aptos,Aptos_MSFontService,sans-serif" font-style="normal" font-variant="normal" font-weight="700" font-stretch="normal" font-size="64" text-anchor="start" direction="ltr" writing-mode="lr-tb" unicode-bidi="normal" text-decoration="none" transform="matrix(1 0 0 1 709.351 813)">Optimize</text><text fill="#123B63" fill-opacity="1" font-family="Aptos,Aptos_MSFontService,sans-serif" font-style="normal" font-variant="normal" font-weight="700" font-stretch="normal" font-size="64" text-anchor="start" direction="ltr" writing-mode="lr-tb" unicode-bidi="normal" text-decoration="none" transform="matrix(1 0 0 1 647.018 890)">passive plant</text><path d="M330.5 1132.9C330.5 1118.32 342.32 1106.5 356.9 1106.5L1327.1 1106.5C1341.68 1106.5 1353.5 1118.32 1353.5 1132.9L1353.5 1377.1C1353.5 1391.68 1341.68 1403.5 1327.1 1403.5L356.9 1403.5C342.32 1403.5 330.5 1391.68 330.5 1377.1Z" stroke="#D97706" stroke-width="7.33333" stroke-linecap="butt" stroke-linejoin="round" stroke-miterlimit="10" stroke-opacity="1" fill="#FFF5DD" fill-rule="evenodd" fill-opacity="1"/><text fill="#D97706" fill-opacity="1" font-family="Aptos,Aptos_MSFontService,sans-serif" font-style="normal" font-variant="normal" font-weight="700" font-stretch="normal" font-size="64" text-anchor="start" direction="ltr" writing-mode="lr-tb" unicode-bidi="normal" text-decoration="none" transform="matrix(1 0 0 1 601.127 1236)">Freeze plant and</text><text fill="#D97706" fill-opacity="1" font-family="Aptos,Aptos_MSFontService,sans-serif" font-style="normal" font-variant="normal" font-weight="700" font-stretch="normal" font-size="64" text-anchor="start" direction="ltr" writing-mode="lr-tb" unicode-bidi="normal" text-decoration="none" transform="matrix(1 0 0 1 564.185 1313)">optimize controller</text><path d="M330.5 1611.9C330.5 1597.32 342.32 1585.5 356.9 1585.5L1327.1 1585.5C1341.68 1585.5 1353.5 1597.32 1353.5 1611.9L1353.5 1856.1C1353.5 1870.68 1341.68 1882.5 1327.1 1882.5L356.9 1882.5C342.32 1882.5 330.5 1870.68 330.5 1856.1Z" stroke="#5B6470" stroke-width="7.33333" stroke-linecap="butt" stroke-linejoin="round" stroke-miterlimit="10" stroke-opacity="1" fill="#FFFFFF" fill-rule="evenodd" fill-opacity="1"/><text fill="#1F2937" fill-opacity="1" font-family="Aptos,Aptos_MSFontService,sans-serif" font-style="normal" font-variant="normal" font-weight="700" font-stretch="normal" font-size="64" text-anchor="start" direction="ltr" writing-mode="lr-tb" unicode-bidi="normal" text-decoration="none" transform="matrix(1 0 0 1 643.179 1715)">Evaluate final</text><text fill="#1F2937" fill-opacity="1" font-family="Aptos,Aptos_MSFontService,sans-serif" font-style="normal" font-variant="normal" font-weight="700" font-stretch="normal" font-size="64" text-anchor="start" direction="ltr" writing-mode="lr-tb" unicode-bidi="normal" text-decoration="none" transform="matrix(1 0 0 1 563.635 1792)">closed</text><text fill="#1F2937" fill-opacity="1" font-family="Aptos,Aptos_MSFontService,sans-serif" font-style="normal" font-variant="normal" font-weight="700" font-stretch="normal" font-size="64" text-anchor="start" direction="ltr" writing-mode="lr-tb" unicode-bidi="normal" text-decoration="none" transform="matrix(1 0 0 1 760.719 1792)">-</text><text fill="#1F2937" fill-opacity="1" font-family="Aptos,Aptos_MSFontService,sans-serif" font-style="normal" font-variant="normal" font-weight="700" font-stretch="normal" font-size="64" text-anchor="start" direction="ltr" writing-mode="lr-tb" unicode-bidi="normal" text-decoration="none" transform="matrix(1 0 0 1 782.49 1792)">loop design</text><path d="M1756.5 734.847C1756.5 720.296 1768.3 708.5 1782.85 708.5L2621.15 708.5C2635.7 708.5 2647.5 720.296 2647.5 734.847L2647.5 929.153C2647.5 943.704 2635.7 955.5 2621.15 955.5L1782.85 955.5C1768.3 955.5 1756.5 943.704 1756.5 929.153Z" stroke="#123B63" stroke-width="7.33333" stroke-linecap="butt" stroke-linejoin="round" stroke-miterlimit="10" stroke-opacity="1" fill="#EAF4FB" fill-rule="evenodd" fill-opacity="1"/><text fill="#123B63" fill-opacity="1" font-family="Aptos,Aptos_MSFontService,sans-serif" font-style="normal" font-variant="normal" font-weight="700" font-stretch="normal" font-size="64" text-anchor="start" direction="ltr" writing-mode="lr-tb" unicode-bidi="normal" text-decoration="none" transform="matrix(1 0 0 1 2036.55 813)">Outer loop:</text><text fill="#123B63" fill-opacity="1" font-family="Aptos,Aptos_MSFontService,sans-serif" font-style="normal" font-variant="normal" font-weight="700" font-stretch="normal" font-size="64" text-anchor="start" direction="ltr" writing-mode="lr-tb" unicode-bidi="normal" text-decoration="none" transform="matrix(1 0 0 1 2021.49 890)">plant design</text><path d="M1756.5 1127.96C1756.5 1116.11 1766.11 1106.5 1777.96 1106.5L2585.04 1106.5C2596.89 1106.5 2606.5 1116.11 2606.5 1127.96L2606.5 1380.04C2606.5 1391.89 2596.89 1401.5 2585.04 1401.5L1777.96 1401.5C1766.11 1401.5 1756.5 1391.89 1756.5 1380.04Z" stroke="#D97706" stroke-width="7.33333" stroke-linecap="butt" stroke-linejoin="round" stroke-miterlimit="10" stroke-opacity="1" fill="#FFF5DD" fill-rule="evenodd" fill-opacity="1"/><text fill="#D97706" fill-opacity="1" font-family="Aptos,Aptos_MSFontService,sans-serif" font-style="normal" font-variant="normal" font-weight="700" font-stretch="normal" font-size="60" text-anchor="start" direction="ltr" writing-mode="lr-tb" unicode-bidi="normal" text-decoration="none" transform="matrix(1 0 0 1 2053.61 1203)">Inner loop:</text><text fill="#D97706" fill-opacity="1" font-family="Aptos,Aptos_MSFontService,sans-serif" font-style="normal" font-variant="normal" font-weight="700" font-stretch="normal" font-size="60" text-anchor="start" direction="ltr" writing-mode="lr-tb" unicode-bidi="normal" text-decoration="none" transform="matrix(1 0 0 1 1954.84 1274)">optimal controller</text><text fill="#D97706" fill-opacity="1" font-family="Aptos,Aptos_MSFontService,sans-serif" font-style="normal" font-variant="normal" font-weight="700" font-stretch="normal" font-size="60" text-anchor="start" direction="ltr" writing-mode="lr-tb" unicode-bidi="normal" text-decoration="none" transform="matrix(1 0 0 1 2013.16 1346)">for each plant</text><path d="M1756.5 1611.72C1756.5 1597.24 1768.24 1585.5 1782.72 1585.5L2621.28 1585.5C2635.76 1585.5 2647.5 1597.24 2647.5 1611.72L2647.5 1854.28C2647.5 1868.76 2635.76 1880.5 2621.28 1880.5L1782.72 1880.5C1768.24 1880.5 1756.5 1868.76 1756.5 1854.28Z" stroke="#2F855A" stroke-width="7.33333" stroke-linecap="butt" stroke-linejoin="round" stroke-miterlimit="10" stroke-opacity="1" fill="#EAF7EF" fill-rule="evenodd" fill-opacity="1"/><text fill="#2F855A" fill-opacity="1" font-family="Aptos,Aptos_MSFontService,sans-serif" font-style="normal" font-variant="normal" font-weight="700" font-stretch="normal" font-size="57" text-anchor="start" direction="ltr" writing-mode="lr-tb" unicode-bidi="normal" text-decoration="none" transform="matrix(1 0 0 1 1985.92 1683)">Best plant under</text><text fill="#2F855A" fill-opacity="1" font-family="Aptos,Aptos_MSFontService,sans-serif" font-style="normal" font-variant="normal" font-weight="700" font-stretch="normal" font-size="57" text-anchor="start" direction="ltr" writing-mode="lr-tb" unicode-bidi="normal" text-decoration="none" transform="matrix(1 0 0 1 1994.66 1752)">best achievable</text><text fill="#2F855A" fill-opacity="1" font-family="Aptos,Aptos_MSFontService,sans-serif" font-style="normal" font-variant="normal" font-weight="700" font-stretch="normal" font-size="57" text-anchor="start" direction="ltr" writing-mode="lr-tb" unicode-bidi="normal" text-decoration="none" transform="matrix(1 0 0 1 2106.9 1820)">control</text><path d="M3033.5 736.036C3033.5 722.485 3044.49 711.5 3058.04 711.5L4064.96 711.5C4078.51 711.5 4089.5 722.485 4089.5 736.036L4089.5 1376.96C4089.5 1390.51 4078.51 1401.5 4064.96 1401.5L3058.04 1401.5C3044.49 1401.5 3033.5 1390.51 3033.5 1376.96Z" stroke="#7C3AED" stroke-width="7.33333" stroke-linecap="butt" stroke-linejoin="round" stroke-miterlimit="10" stroke-opacity="1" fill="#F4EAFE" fill-rule="evenodd" fill-opacity="1"/><text fill="#7C3AED" fill-opacity="1" font-family="Aptos,Aptos_MSFontService,sans-serif" font-style="normal" font-variant="normal" font-weight="700" font-stretch="normal" font-size="60" text-anchor="start" direction="ltr" writing-mode="lr-tb" unicode-bidi="normal" text-decoration="none" transform="matrix(1 0 0 1 3205.47 862)">One optimization problem</text><text fill="#7C3AED" fill-opacity="1" font-family="Aptos,Aptos_MSFontService,sans-serif" font-style="normal" font-variant="normal" font-weight="700" font-stretch="normal" font-size="60" text-anchor="start" direction="ltr" writing-mode="lr-tb" unicode-bidi="normal" text-decoration="none" transform="matrix(1 0 0 1 3360.36 1007)">plant variables</text><text fill="#7C3AED" fill-opacity="1" font-family="Aptos,Aptos_MSFontService,sans-serif" font-style="normal" font-variant="normal" font-weight="700" font-stretch="normal" font-size="60" text-anchor="start" direction="ltr" writing-mode="lr-tb" unicode-bidi="normal" text-decoration="none" transform="matrix(1 0 0 1 3295.39 1080)">controller variables</text><text fill="#7C3AED" fill-opacity="1" font-family="Aptos,Aptos_MSFontService,sans-serif" font-style="normal" font-variant="normal" font-weight="700" font-stretch="normal" font-size="60" text-anchor="start" direction="ltr" writing-mode="lr-tb" unicode-bidi="normal" text-decoration="none" transform="matrix(1 0 0 1 3299.43 1152)">states and controls</text><text fill="#7C3AED" fill-opacity="1" font-family="Aptos,Aptos_MSFontService,sans-serif" font-style="normal" font-variant="normal" font-weight="700" font-stretch="normal" font-size="60" text-anchor="start" direction="ltr" writing-mode="lr-tb" unicode-bidi="normal" text-decoration="none" transform="matrix(1 0 0 1 3367.26 1225)">all constraints</text><path d="M3033.5 1617.18C3033.5 1599.68 3047.68 1585.5 3065.18 1585.5L4057.82 1585.5C4075.32 1585.5 4089.5 1599.68 4089.5 1617.18L4089.5 1850.82C4089.5 1868.32 4075.32 1882.5 4057.82 1882.5L3065.18 1882.5C3047.68 1882.5 3033.5 1868.32 3033.5 1850.82Z" stroke="#7C3AED" stroke-width="7.33333" stroke-linecap="butt" stroke-linejoin="round" stroke-miterlimit="10" stroke-opacity="1" fill="#FFFFFF" fill-rule="evenodd" fill-opacity="1"/><text fill="#7C3AED" fill-opacity="1" font-family="Aptos,Aptos_MSFontService,sans-serif" font-style="normal" font-variant="normal" font-weight="700" font-stretch="normal" font-size="64" text-anchor="start" direction="ltr" writing-mode="lr-tb" unicode-bidi="normal" text-decoration="none" transform="matrix(1 0 0 1 3306.63 1697)">Fully coordinated</text><text fill="#7C3AED" fill-opacity="1" font-family="Aptos,Aptos_MSFontService,sans-serif" font-style="normal" font-variant="normal" font-weight="700" font-stretch="normal" font-size="64" text-anchor="start" direction="ltr" writing-mode="lr-tb" unicode-bidi="normal" text-decoration="none" transform="matrix(1 0 0 1 3440.67 1774)">solution</text><path d="M281.5 1931.82C281.5 1917.28 293.285 1905.5 307.822 1905.5L1377.18 1905.5C1391.72 1905.5 1403.5 1917.28 1403.5 1931.82L1403.5 2083.18C1403.5 2097.72 1391.72 2109.5 1377.18 2109.5L307.822 2109.5C293.285 2109.5 281.5 2097.72 281.5 2083.18Z" stroke="#123B63" stroke-width="7.33333" stroke-linecap="butt" stroke-linejoin="round" stroke-miterlimit="10" stroke-opacity="1" fill="#F8FBFD" fill-rule="evenodd" fill-opacity="1"/><text fill="#123B63" fill-opacity="1" font-family="Aptos,Aptos_MSFontService,sans-serif" font-style="normal" font-variant="normal" font-weight="700" font-stretch="normal" font-size="48" text-anchor="start" direction="ltr" writing-mode="lr-tb" unicode-bidi="normal" text-decoration="none" transform="matrix(1 0 0 1 614.041 1993)">Simple but may miss</text><text fill="#123B63" fill-opacity="1" font-family="Aptos,Aptos_MSFontService,sans-serif" font-style="normal" font-variant="normal" font-weight="700" font-stretch="normal" font-size="48" text-anchor="start" direction="ltr" writing-mode="lr-tb" unicode-bidi="normal" text-decoration="none" transform="matrix(1 0 0 1 564.495 2051)">plant</text><text fill="#123B63" fill-opacity="1" font-family="Aptos,Aptos_MSFontService,sans-serif" font-style="normal" font-variant="normal" font-weight="700" font-stretch="normal" font-size="48" text-anchor="start" direction="ltr" writing-mode="lr-tb" unicode-bidi="normal" text-decoration="none" transform="matrix(1 0 0 1 678.505 2051)">–</text><text fill="#123B63" fill-opacity="1" font-family="Aptos,Aptos_MSFontService,sans-serif" font-style="normal" font-variant="normal" font-weight="700" font-stretch="normal" font-size="48" text-anchor="start" direction="ltr" writing-mode="lr-tb" unicode-bidi="normal" text-decoration="none" transform="matrix(1 0 0 1 700.849 2051)">controller coupling</text><path d="M1634.5 1931.82C1634.5 1917.28 1646.28 1905.5 1660.82 1905.5L2730.18 1905.5C2744.72 1905.5 2756.5 1917.28 2756.5 1931.82L2756.5 2083.18C2756.5 2097.72 2744.72 2109.5 2730.18 2109.5L1660.82 2109.5C1646.28 2109.5 1634.5 2097.72 1634.5 2083.18Z" stroke="#2F855A" stroke-width="7.33333" stroke-linecap="butt" stroke-linejoin="round" stroke-miterlimit="10" stroke-opacity="1" fill="#F8FDFB" fill-rule="evenodd" fill-opacity="1"/><text fill="#2F855A" fill-opacity="1" font-family="Aptos,Aptos_MSFontService,sans-serif" font-style="normal" font-variant="normal" font-weight="700" font-stretch="normal" font-size="48" text-anchor="start" direction="ltr" writing-mode="lr-tb" unicode-bidi="normal" text-decoration="none" transform="matrix(1 0 0 1 1985.1 1993)">Better coupling but</text><text fill="#2F855A" fill-opacity="1" font-family="Aptos,Aptos_MSFontService,sans-serif" font-style="normal" font-variant="normal" font-weight="700" font-stretch="normal" font-size="48" text-anchor="start" direction="ltr" writing-mode="lr-tb" unicode-bidi="normal" text-decoration="none" transform="matrix(1 0 0 1 1927.81 2051)">computationally heavier</text><path d="M2987.5 1931.82C2987.5 1917.28 2999.28 1905.5 3013.82 1905.5L4083.18 1905.5C4097.72 1905.5 4109.5 1917.28 4109.5 1931.82L4109.5 2083.18C4109.5 2097.72 4097.72 2109.5 4083.18 2109.5L3013.82 2109.5C2999.28 2109.5 2987.5 2097.72 2987.5 2083.18Z" stroke="#7C3AED" stroke-width="7.33333" stroke-linecap="butt" stroke-linejoin="round" stroke-miterlimit="10" stroke-opacity="1" fill="#FCF8FF" fill-rule="evenodd" fill-opacity="1"/><text fill="#7C3AED" fill-opacity="1" font-family="Aptos,Aptos_MSFontService,sans-serif" font-style="normal" font-variant="normal" font-weight="700" font-stretch="normal" font-size="48" text-anchor="start" direction="ltr" writing-mode="lr-tb" unicode-bidi="normal" text-decoration="none" transform="matrix(1 0 0 1 3254.46 1993)">Strongest coordination but</text><text fill="#7C3AED" fill-opacity="1" font-family="Aptos,Aptos_MSFontService,sans-serif" font-style="normal" font-variant="normal" font-weight="700" font-stretch="normal" font-size="48" text-anchor="start" direction="ltr" writing-mode="lr-tb" unicode-bidi="normal" text-decoration="none" transform="matrix(1 0 0 1 3230.68 2051)">largest optimization problem</text></g></g></svg>