<svg width="4404" height="2012" xmlns="http://www.w3.org/2000/svg" xmlns:xlink="http://www.w3.org/1999/xlink" xml:space="preserve" overflow="hidden"><g transform="translate(174 -137)"><g><text fill="#123A62" fill-opacity="1" font-family="Aptos,Aptos_MSFontService,sans-serif" font-style="normal" font-variant="normal" font-weight="700" font-stretch="normal" font-size="110" text-anchor="start" direction="ltr" writing-mode="lr-tb" unicode-bidi="normal" text-decoration="none" transform="matrix(1 0 0 1 1505.26 273)">Model</text><text fill="#123A62" fill-opacity="1" font-family="Aptos,Aptos_MSFontService,sans-serif" font-style="normal" font-variant="normal" font-weight="700" font-stretch="normal" font-size="110" text-anchor="start" direction="ltr" writing-mode="lr-tb" unicode-bidi="normal" text-decoration="none" transform="matrix(1 0 0 1 1817.5 273)">-</text><text fill="#123A62" fill-opacity="1" font-family="Aptos,Aptos_MSFontService,sans-serif" font-style="normal" font-variant="normal" font-weight="700" font-stretch="normal" font-size="110" text-anchor="start" direction="ltr" writing-mode="lr-tb" unicode-bidi="normal" text-decoration="none" transform="matrix(1 0 0 1 1854.74 273)">fidelity ladder</text><path d="M215.5 2046.5 1048.5 413.5 1881.5 2046.5Z" stroke="#123A62" stroke-width="9.16667" stroke-linecap="butt" stroke-linejoin="round" stroke-miterlimit="10" stroke-opacity="1" fill="#E9F3FA" fill-rule="evenodd" fill-opacity="1"/><path d="M648.5 1197.5 1448.5 1197.5" stroke="#123A62" stroke-width="6.875" stroke-linecap="butt" stroke-linejoin="round" stroke-miterlimit="10" stroke-opacity="1" fill="none" fill-rule="evenodd"/><path d="M431.5 1621.5 1664.5 1621.5" stroke="#123A62" stroke-width="6.875" stroke-linecap="butt" stroke-linejoin="round" stroke-miterlimit="10" stroke-opacity="1" fill="none" fill-rule="evenodd"/><text fill="#123A62" fill-opacity="1" font-family="Aptos,Aptos_MSFontService,sans-serif" font-style="normal" font-variant="normal" font-weight="400" font-stretch="normal" font-size="78" text-anchor="start" direction="ltr" writing-mode="lr-tb" unicode-bidi="normal" text-decoration="none" transform="matrix(1 0 0 1 850.094 916)">High fidelity</text><text fill="#123A62" fill-opacity="1" font-family="Aptos,Aptos_MSFontService,sans-serif" font-style="normal" font-variant="normal" font-weight="400" font-stretch="normal" font-size="78" text-anchor="start" direction="ltr" writing-mode="lr-tb" unicode-bidi="normal" text-decoration="none" transform="matrix(1 0 0 1 780.862 1009)">final verification</text><text fill="#123A62" fill-opacity="1" font-family="Aptos,Aptos_MSFontService,sans-serif" font-style="normal" font-variant="normal" font-weight="400" font-stretch="normal" font-size="73" text-anchor="start" direction="ltr" writing-mode="lr-tb" unicode-bidi="normal" text-decoration="none" transform="matrix(1 0 0 1 804.26 1399)">Medium fidelity</text><text fill="#123A62" fill-opacity="1" font-family="Aptos,Aptos_MSFontService,sans-serif" font-style="normal" font-variant="normal" font-weight="400" font-stretch="normal" font-size="73" text-anchor="start" direction="ltr" writing-mode="lr-tb" unicode-bidi="normal" text-decoration="none" transform="matrix(1 0 0 1 527.037 1487)">system loads and control studies</text><text fill="#123A62" fill-opacity="1" font-family="Aptos,Aptos_MSFontService,sans-serif" font-style="normal" font-variant="normal" font-weight="400" font-stretch="normal" font-size="73" text-anchor="start" direction="ltr" writing-mode="lr-tb" unicode-bidi="normal" text-decoration="none" transform="matrix(1 0 0 1 868.966 1803)">Low fidelity</text><text fill="#123A62" fill-opacity="1" font-family="Aptos,Aptos_MSFontService,sans-serif" font-style="normal" font-variant="normal" font-weight="400" font-stretch="normal" font-size="73" text-anchor="start" direction="ltr" writing-mode="lr-tb" unicode-bidi="normal" text-decoration="none" transform="matrix(1 0 0 1 678.78 1891)">fast screening and DOE</text><path d="M2839.5 797.229 2882.15 797.23 2882.15 807.771 2839.5 807.771ZM2876.88 786.688 2908.5 802.501 2876.87 818.313Z" fill="#5A6573" fill-rule="nonzero" fill-opacity="1"/><path d="M3341.77 1023.5 3341.77 1129.15 3331.23 1129.15 3331.23 1023.5ZM3352.31 1123.87 3336.5 1155.5 3320.69 1123.87Z" fill="#5A6573" fill-rule="nonzero" fill-opacity="1"/><path d="M2024.5 653.5C2024.5 635.275 2039.27 620.5 2057.5 620.5L2766.5 620.5C2784.73 620.5 2799.5 635.275 2799.5 653.5L2799.5 950.5C2799.5 968.725 2784.73 983.5 2766.5 983.5L2057.5 983.5C2039.27 983.5 2024.5 968.725 2024.5 950.5Z" stroke="#2D6E9F" stroke-width="9.16667" stroke-linecap="butt" stroke-linejoin="round" stroke-miterlimit="10" stroke-opacity="1" fill="#DDEFF9" fill-rule="evenodd" fill-opacity="1"/><text fill="#2D6E9F" fill-opacity="1" font-family="Aptos,Aptos_MSFontService,sans-serif" font-style="normal" font-variant="normal" font-weight="700" font-stretch="normal" font-size="78" text-anchor="start" direction="ltr" writing-mode="lr-tb" unicode-bidi="normal" text-decoration="none" transform="matrix(1 0 0 1 2089.48 734)">Sample expensive</text><text fill="#2D6E9F" fill-opacity="1" font-family="Aptos,Aptos_MSFontService,sans-serif" font-style="normal" font-variant="normal" font-weight="700" font-stretch="normal" font-size="78" text-anchor="start" direction="ltr" writing-mode="lr-tb" unicode-bidi="normal" text-decoration="none" transform="matrix(1 0 0 1 2253.79 827)">model or </text><text fill="#2D6E9F" fill-opacity="1" font-family="Aptos,Aptos_MSFontService,sans-serif" font-style="normal" font-variant="normal" font-weight="700" font-stretch="normal" font-size="78" text-anchor="start" direction="ltr" writing-mode="lr-tb" unicode-bidi="normal" text-decoration="none" transform="matrix(1 0 0 1 2189.12 921)">experiments</text><path d="M2948.5 653.5C2948.5 635.275 2963.27 620.5 2981.5 620.5L3690.5 620.5C3708.73 620.5 3723.5 635.275 3723.5 653.5L3723.5 950.5C3723.5 968.725 3708.73 983.5 3690.5 983.5L2981.5 983.5C2963.27 983.5 2948.5 968.725 2948.5 950.5Z" stroke="#D97400" stroke-width="9.16667" stroke-linecap="butt" stroke-linejoin="round" stroke-miterlimit="10" stroke-opacity="1" fill="#FFF4CD" fill-rule="evenodd" fill-opacity="1"/><text fill="#D97400" fill-opacity="1" font-family="Aptos,Aptos_MSFontService,sans-serif" font-style="normal" font-variant="normal" font-weight="700" font-stretch="normal" font-size="83" text-anchor="start" direction="ltr" writing-mode="lr-tb" unicode-bidi="normal" text-decoration="none" transform="matrix(1 0 0 1 3008.21 779)">Train and validate</text><text fill="#D97400" fill-opacity="1" font-family="Aptos,Aptos_MSFontService,sans-serif" font-style="normal" font-variant="normal" font-weight="700" font-stretch="normal" font-size="83" text-anchor="start" direction="ltr" writing-mode="lr-tb" unicode-bidi="normal" text-decoration="none" transform="matrix(1 0 0 1 3156.32 878)">surrogate</text><path d="M2948.5 1225.5C2948.5 1207.27 2963.27 1192.5 2981.5 1192.5L3690.5 1192.5C3708.73 1192.5 3723.5 1207.27 3723.5 1225.5L3723.5 1522.5C3723.5 1540.73 3708.73 1555.5 3690.5 1555.5L2981.5 1555.5C2963.27 1555.5 2948.5 1540.73 2948.5 1522.5Z" stroke="#7C3AED" stroke-width="9.16667" stroke-linecap="butt" stroke-linejoin="round" stroke-miterlimit="10" stroke-opacity="1" fill="#F3E8FF" fill-rule="evenodd" fill-opacity="1"/><text fill="#7C3AED" fill-opacity="1" font-family="Aptos,Aptos_MSFontService,sans-serif" font-style="normal" font-variant="normal" font-weight="700" font-stretch="normal" font-size="83" text-anchor="start" direction="ltr" writing-mode="lr-tb" unicode-bidi="normal" text-decoration="none" transform="matrix(1 0 0 1 3056.39 1350)">Optimize using</text><text fill="#7C3AED" fill-opacity="1" font-family="Aptos,Aptos_MSFontService,sans-serif" font-style="normal" font-variant="normal" font-weight="700" font-stretch="normal" font-size="83" text-anchor="start" direction="ltr" writing-mode="lr-tb" unicode-bidi="normal" text-decoration="none" transform="matrix(1 0 0 1 3156.33 1449)">surrogate</text><path d="M2024.5 1225.5C2024.5 1207.27 2039.27 1192.5 2057.5 1192.5L2766.5 1192.5C2784.73 1192.5 2799.5 1207.27 2799.5 1225.5L2799.5 1522.5C2799.5 1540.73 2784.73 1555.5 2766.5 1555.5L2057.5 1555.5C2039.27 1555.5 2024.5 1540.73 2024.5 1522.5Z" stroke="#22875A" stroke-width="9.16667" stroke-linecap="butt" stroke-linejoin="round" stroke-miterlimit="10" stroke-opacity="1" fill="#E7F7ED" fill-rule="evenodd" fill-opacity="1"/><text fill="#22875A" fill-opacity="1" font-family="Aptos,Aptos_MSFontService,sans-serif" font-style="normal" font-variant="normal" font-weight="700" font-stretch="normal" font-size="73" text-anchor="start" direction="ltr" writing-mode="lr-tb" unicode-bidi="normal" text-decoration="none" transform="matrix(1 0 0 1 2062.05 1353)">Verify candidate with</text><text fill="#22875A" fill-opacity="1" font-family="Aptos,Aptos_MSFontService,sans-serif" font-style="normal" font-variant="normal" font-weight="700" font-stretch="normal" font-size="73" text-anchor="start" direction="ltr" writing-mode="lr-tb" unicode-bidi="normal" text-decoration="none" transform="matrix(1 0 0 1 2065.6 1441)">higher</text><text fill="#22875A" fill-opacity="1" font-family="Aptos,Aptos_MSFontService,sans-serif" font-style="normal" font-variant="normal" font-weight="700" font-stretch="normal" font-size="73" text-anchor="start" direction="ltr" writing-mode="lr-tb" unicode-bidi="normal" text-decoration="none" transform="matrix(1 0 0 1 2273.57 1441)">-</text><text fill="#22875A" fill-opacity="1" font-family="Aptos,Aptos_MSFontService,sans-serif" font-style="normal" font-variant="normal" font-weight="700" font-stretch="normal" font-size="73" text-anchor="start" direction="ltr" writing-mode="lr-tb" unicode-bidi="normal" text-decoration="none" transform="matrix(1 0 0 1 2298.78 1441)">fidelity model</text><path d="M2001.5 1641.55C2001.5 1623.3 2016.3 1608.5 2034.55 1608.5L3717.45 1608.5C3735.7 1608.5 3750.5 1623.3 3750.5 1641.55L3750.5 1846.45C3750.5 1864.7 3735.7 1879.5 3717.45 1879.5L2034.55 1879.5C2016.3 1879.5 2001.5 1864.7 2001.5 1846.45Z" stroke="#B93340" stroke-width="7.33333" stroke-linecap="butt" stroke-linejoin="round" stroke-miterlimit="10" stroke-opacity="1" fill="#FFF1F2" fill-rule="evenodd" fill-opacity="1"/><text fill="#B93340" fill-opacity="1" font-family="Aptos,Aptos_MSFontService,sans-serif" font-style="normal" font-variant="normal" font-weight="400" font-stretch="normal" font-size="73" text-anchor="start" direction="ltr" writing-mode="lr-tb" unicode-bidi="normal" text-decoration="none" transform="matrix(1 0 0 1 2028.03 1723)">Use surrogates to reduce cost, not to avoid validation.</text><text fill="#B93340" fill-opacity="1" font-family="Aptos,Aptos_MSFontService,sans-serif" font-style="normal" font-variant="normal" font-weight="400" font-stretch="normal" font-size="73" text-anchor="start" direction="ltr" writing-mode="lr-tb" unicode-bidi="normal" text-decoration="none" transform="matrix(1 0 0 1 2205.79 1811)">Accuracy near the optimizer matters most.</text><path d="M2086.5 314.5 2086.5 2145.5" stroke="#D9DEE5" stroke-width="4.58333" stroke-linecap="butt" stroke-linejoin="round" stroke-miterlimit="10" stroke-opacity="0.701961" fill="none" fill-rule="evenodd"/><path d="M2.75681e-05-5.27083 42.646-5.27061 42.6459 5.27106-2.75681e-05 5.27083ZM37.3752-15.8123 69.0001 0.000360892 37.375 15.8127Z" fill="#5A6573" fill-rule="nonzero" fill-opacity="1" transform="matrix(-1 0 0 1 2908.5 1390.5)"/><path d="M2425.23 1158.5 2425.23 1052.85 2435.77 1052.85 2435.77 1158.5ZM2414.69 1058.12 2430.5 1026.5 2446.31 1058.12Z" fill="#5A6573" fill-rule="nonzero" fill-opacity="1"/></g></g></svg>