<svg width="3992" height="1490" xmlns="http://www.w3.org/2000/svg" xmlns:xlink="http://www.w3.org/1999/xlink" xml:space="preserve" overflow="hidden"><defs><filter id="fx0" x="-10%" y="-10%" width="120%" height="120%" filterUnits="userSpaceOnUse" primitiveUnits="userSpaceOnUse"><feComponentTransfer color-interpolation-filters="sRGB"><feFuncR type="discrete" tableValues="0.815686 0.815686"/><feFuncG type="discrete" tableValues="0.843137 0.843137"/><feFuncB type="discrete" tableValues="0.870588 0.870588"/><feFuncA type="linear" slope="0.180392" intercept="0.000000"/></feComponentTransfer><feGaussianBlur stdDeviation="3.055556 3.055556"/></filter><filter id="fx1" x="-10%" y="-10%" width="120%" height="120%" filterUnits="userSpaceOnUse" primitiveUnits="userSpaceOnUse"><feComponentTransfer color-interpolation-filters="sRGB"><feFuncR type="discrete" tableValues="0.815686 0.815686"/><feFuncG type="discrete" tableValues="0.843137 0.843137"/><feFuncB type="discrete" tableValues="0.870588 0.870588"/><feFuncA type="linear" slope="0.180392" intercept="0.000000"/></feComponentTransfer><feGaussianBlur stdDeviation="3.055556 3.055556"/></filter><filter id="fx2" x="-10%" y="-10%" width="120%" height="120%" filterUnits="userSpaceOnUse" primitiveUnits="userSpaceOnUse"><feComponentTransfer color-interpolation-filters="sRGB"><feFuncR type="discrete" tableValues="0.815686 0.815686"/><feFuncG type="discrete" tableValues="0.843137 0.843137"/><feFuncB type="discrete" tableValues="0.870588 0.870588"/><feFuncA type="linear" slope="0.180392" intercept="0.000000"/></feComponentTransfer><feGaussianBlur stdDeviation="3.055556 3.055556"/></filter><filter id="fx3" x="-10%" y="-10%" width="120%" height="120%" filterUnits="userSpaceOnUse" primitiveUnits="userSpaceOnUse"><feComponentTransfer color-interpolation-filters="sRGB"><feFuncR type="discrete" tableValues="0.815686 0.815686"/><feFuncG type="discrete" tableValues="0.843137 0.843137"/><feFuncB type="discrete" tableValues="0.870588 0.870588"/><feFuncA type="linear" slope="0.180392" intercept="0.000000"/></feComponentTransfer><feGaussianBlur stdDeviation="3.055556 3.055556"/></filter><filter id="fx4" x="-10%" y="-10%" width="120%" height="120%" filterUnits="userSpaceOnUse" primitiveUnits="userSpaceOnUse"><feComponentTransfer color-interpolation-filters="sRGB"><feFuncR type="discrete" tableValues="0.815686 0.815686"/><feFuncG type="discrete" tableValues="0.843137 0.843137"/><feFuncB type="discrete" tableValues="0.870588 0.870588"/><feFuncA type="linear" slope="0.180392" intercept="0.000000"/></feComponentTransfer><feGaussianBlur stdDeviation="3.055556 3.055556"/></filter><filter id="fx5" x="-10%" y="-10%" width="120%" height="120%" filterUnits="userSpaceOnUse" primitiveUnits="userSpaceOnUse"><feComponentTransfer color-interpolation-filters="sRGB"><feFuncR type="discrete" tableValues="0.815686 0.815686"/><feFuncG type="discrete" tableValues="0.843137 0.843137"/><feFuncB type="discrete" tableValues="0.870588 0.870588"/><feFuncA type="linear" slope="0.180392" intercept="0.000000"/></feComponentTransfer><feGaussianBlur stdDeviation="3.055556 3.055556"/></filter><filter id="fx6" x="-10%" y="-10%" width="120%" height="120%" filterUnits="userSpaceOnUse" primitiveUnits="userSpaceOnUse"><feComponentTransfer color-interpolation-filters="sRGB"><feFuncR type="discrete" tableValues="0.815686 0.815686"/><feFuncG type="discrete" tableValues="0.843137 0.843137"/><feFuncB type="discrete" tableValues="0.870588 0.870588"/><feFuncA type="linear" slope="0.180392" intercept="0.000000"/></feComponentTransfer><feGaussianBlur stdDeviation="3.055556 3.055556"/></filter><filter id="fx7" x="-10%" y="-10%" width="120%" height="120%" filterUnits="userSpaceOnUse" primitiveUnits="userSpaceOnUse"><feComponentTransfer color-interpolation-filters="sRGB"><feFuncR type="discrete" tableValues="0.815686 0.815686"/><feFuncG type="discrete" tableValues="0.843137 0.843137"/><feFuncB type="discrete" tableValues="0.870588 0.870588"/><feFuncA type="linear" slope="0.180392" intercept="0.000000"/></feComponentTransfer><feGaussianBlur stdDeviation="3.055556 3.055556"/></filter><clipPath id="clip8"><path d="M175.859 512.5C161.301 512.5 149.5 524.301 149.5 538.859L149.5 888.141C149.5 902.699 161.301 914.5 175.859 914.5L1063.14 914.5C1077.7 914.5 1089.5 902.699 1089.5 888.141L1089.5 538.859C1089.5 524.301 1077.7 512.5 1063.14 512.5ZM142 215 4134 215 4134 1705 142 1705Z" fill-rule="evenodd" clip-rule="evenodd"/></clipPath><clipPath id="clip9"><path d="M1174.86 512.5C1160.3 512.5 1148.5 524.301 1148.5 538.859L1148.5 888.141C1148.5 902.698 1160.3 914.5 1174.86 914.5L2063.14 914.5C2077.7 914.5 2089.5 902.698 2089.5 888.141L2089.5 538.859C2089.5 524.301 2077.7 512.5 2063.14 512.5ZM142 215 4134 215 4134 1705 142 1705Z" fill-rule="evenodd" clip-rule="evenodd"/></clipPath><clipPath id="clip10"><path d="M2178.86 512.5C2164.3 512.5 2152.5 524.301 2152.5 538.859L2152.5 888.141C2152.5 902.699 2164.3 914.5 2178.86 914.5L3066.14 914.5C3080.7 914.5 3092.5 902.699 3092.5 888.141L3092.5 538.859C3092.5 524.301 3080.7 512.5 3066.14 512.5ZM142 215 4134 215 4134 1705 142 1705Z" fill-rule="evenodd" clip-rule="evenodd"/></clipPath><clipPath id="clip11"><path d="M3178.86 512.5C3164.3 512.5 3152.5 524.301 3152.5 538.859L3152.5 888.141C3152.5 902.699 3164.3 914.5 3178.86 914.5L4066.14 914.5C4080.7 914.5 4092.5 902.699 4092.5 888.141L4092.5 538.859C4092.5 524.301 4080.7 512.5 4066.14 512.5ZM142 215 4134 215 4134 1705 142 1705Z" fill-rule="evenodd" clip-rule="evenodd"/></clipPath><clipPath id="clip12"><path d="M305.929 1164.5C291.333 1164.5 279.5 1176.33 279.5 1190.93L279.5 1508.07C279.5 1522.67 291.333 1534.5 305.929 1534.5L1062.07 1534.5C1076.67 1534.5 1088.5 1522.67 1088.5 1508.07L1088.5 1190.93C1088.5 1176.33 1076.67 1164.5 1062.07 1164.5ZM142 215 4134 215 4134 1705 142 1705Z" fill-rule="evenodd" clip-rule="evenodd"/></clipPath><clipPath id="clip13"><path d="M1266.93 1164.5C1252.33 1164.5 1240.5 1176.33 1240.5 1190.93L1240.5 1508.07C1240.5 1522.67 1252.33 1534.5 1266.93 1534.5L2022.07 1534.5C2036.67 1534.5 2048.5 1522.67 2048.5 1508.07L2048.5 1190.93C2048.5 1176.33 2036.67 1164.5 2022.07 1164.5ZM142 215 4134 215 4134 1705 142 1705Z" fill-rule="evenodd" clip-rule="evenodd"/></clipPath><clipPath id="clip14"><path d="M2226.93 1164.5C2212.33 1164.5 2200.5 1176.33 2200.5 1190.93L2200.5 1508.07C2200.5 1522.67 2212.33 1534.5 2226.93 1534.5L2983.07 1534.5C2997.67 1534.5 3009.5 1522.67 3009.5 1508.07L3009.5 1190.93C3009.5 1176.33 2997.67 1164.5 2983.07 1164.5ZM142 215 4134 215 4134 1705 142 1705Z" fill-rule="evenodd" clip-rule="evenodd"/></clipPath><clipPath id="clip15"><path d="M3186.93 1164.5C3172.33 1164.5 3160.5 1176.33 3160.5 1190.93L3160.5 1508.07C3160.5 1522.67 3172.33 1534.5 3186.93 1534.5L3943.07 1534.5C3957.67 1534.5 3969.5 1522.67 3969.5 1508.07L3969.5 1190.93C3969.5 1176.33 3957.67 1164.5 3943.07 1164.5ZM142 215 4134 215 4134 1705 142 1705Z" fill-rule="evenodd" clip-rule="evenodd"/></clipPath></defs><g transform="translate(-142 -215)"><g><path d="M579 247.452C579 232.843 590.843 221 605.452 221L3438.55 221C3453.16 221 3465 232.843 3465 247.452L3465 399.548C3465 414.157 3453.16 426 3438.55 426L605.452 426C590.843 426 579 414.157 579 399.548Z" stroke="#B23A48" stroke-width="8.25" stroke-linecap="butt" stroke-linejoin="round" stroke-miterlimit="10" stroke-opacity="1" fill="#FFFFFF" fill-rule="evenodd" fill-opacity="1"/><text fill="#B23A48" fill-opacity="1" font-family="Aptos,Aptos_MSFontService,sans-serif" font-style="normal" font-variant="normal" font-weight="700" font-stretch="normal" font-size="115" text-anchor="start" direction="ltr" writing-mode="lr-tb" unicode-bidi="normal" text-decoration="none" transform="matrix(1 0 0 1 1110.79 361)">Uncertainty aware control co design</text><path d="M1110.5 713.5 1133.5 713.5" fill="#FFFFFF" fill-rule="evenodd" fill-opacity="0"/><path d="M1106 699.75 1133.5 713.5 1106 727.25Z" fill="#5B6472" fill-rule="nonzero" fill-opacity="1"/><path d="M2110.5 713.5 2136.5 713.5" fill="#FFFFFF" fill-rule="evenodd" fill-opacity="0"/><path d="M2109 699.75 2136.5 713.5 2109 727.25Z" fill="#5B6472" fill-rule="nonzero" fill-opacity="1"/><path d="M3113.5 713.5 3136.5 713.5" fill="#FFFFFF" fill-rule="evenodd" fill-opacity="0"/><path d="M3109 699.75 3136.5 713.5 3109 727.25Z" fill="#5B6472" fill-rule="nonzero" fill-opacity="1"/><g clip-path="url(#clip8)"><g filter="url(#fx0)" transform="translate(147 510)"><g><g><path d="M15.4637 41.8226C15.4637 27.265 27.2649 15.4637 41.8225 15.4637L929.105 15.4637C943.662 15.4637 955.464 27.265 955.464 41.8226L955.464 391.105C955.464 405.662 943.662 417.463 929.105 417.463L41.8225 417.463C27.2649 417.463 15.4637 405.662 15.4637 391.105Z" stroke="#D97706" stroke-width="9" stroke-linecap="butt" stroke-linejoin="round" stroke-miterlimit="10" stroke-opacity="1" fill="#FFF7D6" fill-rule="evenodd" fill-opacity="1"/></g></g></g></g><path d="M149.5 538.859C149.5 524.301 161.301 512.5 175.859 512.5L1063.14 512.5C1077.7 512.5 1089.5 524.301 1089.5 538.859L1089.5 888.141C1089.5 902.699 1077.7 914.5 1063.14 914.5L175.859 914.5C161.301 914.5 149.5 902.699 149.5 888.141Z" stroke="#D97706" stroke-width="9.16667" stroke-linecap="butt" stroke-linejoin="round" stroke-miterlimit="10" stroke-opacity="1" fill="#FFF7D6" fill-rule="evenodd" fill-opacity="1"/><text fill="#D97706" fill-opacity="1" font-family="Aptos,Aptos_MSFontService,sans-serif" font-style="normal" font-variant="normal" font-weight="700" font-stretch="normal" font-size="75" text-anchor="start" direction="ltr" writing-mode="lr-tb" unicode-bidi="normal" text-decoration="none" transform="matrix(1 0 0 1 334.973 647)">Uncertain inputs</text><text fill="#D97706" fill-opacity="1" font-family="Aptos,Aptos_MSFontService,sans-serif" font-style="normal" font-variant="normal" font-weight="700" font-stretch="normal" font-size="75" text-anchor="start" direction="ltr" writing-mode="lr-tb" unicode-bidi="normal" text-decoration="none" transform="matrix(1 0 0 1 211.429 737)">road, wind, waves, load,</text><text fill="#D97706" fill-opacity="1" font-family="Aptos,Aptos_MSFontService,sans-serif" font-style="normal" font-variant="normal" font-weight="700" font-stretch="normal" font-size="75" text-anchor="start" direction="ltr" writing-mode="lr-tb" unicode-bidi="normal" text-decoration="none" transform="matrix(1 0 0 1 306.442 826)">model parameters</text><g clip-path="url(#clip9)"><g filter="url(#fx1)" transform="translate(1146 510)"><g><g><path d="M15.4636 41.8228C15.4636 27.2651 27.265 15.4637 41.8227 15.4637L930.105 15.4637C944.663 15.4637 956.464 27.2651 956.464 41.8228L956.464 391.104C956.464 405.662 944.663 417.464 930.105 417.464L41.8227 417.464C27.265 417.464 15.4636 405.662 15.4636 391.104Z" stroke="#2D6A9F" stroke-width="9" stroke-linecap="butt" stroke-linejoin="round" stroke-miterlimit="10" stroke-opacity="1" fill="#E0F2FE" fill-rule="evenodd" fill-opacity="1"/></g></g></g></g><path d="M1148.5 538.859C1148.5 524.301 1160.3 512.5 1174.86 512.5L2063.14 512.5C2077.7 512.5 2089.5 524.301 2089.5 538.859L2089.5 888.141C2089.5 902.698 2077.7 914.5 2063.14 914.5L1174.86 914.5C1160.3 914.5 1148.5 902.698 1148.5 888.141Z" stroke="#2D6A9F" stroke-width="9.16667" stroke-linecap="butt" stroke-linejoin="round" stroke-miterlimit="10" stroke-opacity="1" fill="#E0F2FE" fill-rule="evenodd" fill-opacity="1"/><text fill="#0B3A66" fill-opacity="1" font-family="Aptos,Aptos_MSFontService,sans-serif" font-style="normal" font-variant="normal" font-weight="700" font-stretch="normal" font-size="80" text-anchor="start" direction="ltr" writing-mode="lr-tb" unicode-bidi="normal" text-decoration="none" transform="matrix(1 0 0 1 1410.38 691)">Scenario or</text><text fill="#0B3A66" fill-opacity="1" font-family="Aptos,Aptos_MSFontService,sans-serif" font-style="normal" font-variant="normal" font-weight="700" font-stretch="normal" font-size="80" text-anchor="start" direction="ltr" writing-mode="lr-tb" unicode-bidi="normal" text-decoration="none" transform="matrix(1 0 0 1 1263.65 787)">probabilistic model</text><g clip-path="url(#clip10)"><g filter="url(#fx2)" transform="translate(2150 510)"><g><g><path d="M15.4636 41.8226C15.4636 27.265 27.2649 15.4637 41.8225 15.4637L929.105 15.4637C943.662 15.4637 955.463 27.265 955.463 41.8226L955.463 391.105C955.463 405.662 943.662 417.463 929.105 417.463L41.8225 417.463C27.2649 417.463 15.4636 405.662 15.4636 391.105Z" stroke="#7C3AED" stroke-width="9" stroke-linecap="butt" stroke-linejoin="round" stroke-miterlimit="10" stroke-opacity="1" fill="#F3E8FF" fill-rule="evenodd" fill-opacity="1"/></g></g></g></g><path d="M2152.5 538.859C2152.5 524.301 2164.3 512.5 2178.86 512.5L3066.14 512.5C3080.7 512.5 3092.5 524.301 3092.5 538.859L3092.5 888.141C3092.5 902.699 3080.7 914.5 3066.14 914.5L2178.86 914.5C2164.3 914.5 2152.5 902.699 2152.5 888.141Z" stroke="#7C3AED" stroke-width="9.16667" stroke-linecap="butt" stroke-linejoin="round" stroke-miterlimit="10" stroke-opacity="1" fill="#F3E8FF" fill-rule="evenodd" fill-opacity="1"/><text fill="#7C3AED" fill-opacity="1" font-family="Aptos,Aptos_MSFontService,sans-serif" font-style="normal" font-variant="normal" font-weight="700" font-stretch="normal" font-size="85" text-anchor="start" direction="ltr" writing-mode="lr-tb" unicode-bidi="normal" text-decoration="none" transform="matrix(1 0 0 1 2385.8 689)">Robust CCD</text><text fill="#7C3AED" fill-opacity="1" font-family="Aptos,Aptos_MSFontService,sans-serif" font-style="normal" font-variant="normal" font-weight="700" font-stretch="normal" font-size="85" text-anchor="start" direction="ltr" writing-mode="lr-tb" unicode-bidi="normal" text-decoration="none" transform="matrix(1 0 0 1 2378.26 791)">optimization</text><g clip-path="url(#clip11)"><g filter="url(#fx3)" transform="translate(3150 510)"><g><g><path d="M15.4636 41.8226C15.4636 27.265 27.2649 15.4637 41.8225 15.4637L929.105 15.4637C943.662 15.4637 955.463 27.265 955.463 41.8226L955.463 391.105C955.463 405.662 943.662 417.463 929.105 417.463L41.8225 417.463C27.2649 417.463 15.4636 405.662 15.4636 391.105Z" stroke="#237A52" stroke-width="9" stroke-linecap="butt" stroke-linejoin="round" stroke-miterlimit="10" stroke-opacity="1" fill="#E8F7EF" fill-rule="evenodd" fill-opacity="1"/></g></g></g></g><path d="M3152.5 538.859C3152.5 524.301 3164.3 512.5 3178.86 512.5L4066.14 512.5C4080.7 512.5 4092.5 524.301 4092.5 538.859L4092.5 888.141C4092.5 902.699 4080.7 914.5 4066.14 914.5L3178.86 914.5C3164.3 914.5 3152.5 902.699 3152.5 888.141Z" stroke="#237A52" stroke-width="9.16667" stroke-linecap="butt" stroke-linejoin="round" stroke-miterlimit="10" stroke-opacity="1" fill="#E8F7EF" fill-rule="evenodd" fill-opacity="1"/><text fill="#237A52" fill-opacity="1" font-family="Aptos,Aptos_MSFontService,sans-serif" font-style="normal" font-variant="normal" font-weight="700" font-stretch="normal" font-size="72" text-anchor="start" direction="ltr" writing-mode="lr-tb" unicode-bidi="normal" text-decoration="none" transform="matrix(1 0 0 1 3353.66 650)">Validated design</text><text fill="#237A52" fill-opacity="1" font-family="Aptos,Aptos_MSFontService,sans-serif" font-style="normal" font-variant="normal" font-weight="700" font-stretch="normal" font-size="72" text-anchor="start" direction="ltr" writing-mode="lr-tb" unicode-bidi="normal" text-decoration="none" transform="matrix(1 0 0 1 3410.79 736)">performance</text><text fill="#237A52" fill-opacity="1" font-family="Aptos,Aptos_MSFontService,sans-serif" font-style="normal" font-variant="normal" font-weight="700" font-stretch="normal" font-size="72" text-anchor="start" direction="ltr" writing-mode="lr-tb" unicode-bidi="normal" text-decoration="none" transform="matrix(1 0 0 1 3433 822)">distribution</text><g clip-path="url(#clip12)"><g filter="url(#fx4)" transform="translate(277 1162)"><g><g><path d="M15.4636 41.8926C15.4636 27.2963 27.2961 15.4637 41.8923 15.4637L798.035 15.4637C812.631 15.4637 824.464 27.2963 824.464 41.8926L824.464 359.035C824.464 373.631 812.631 385.464 798.035 385.464L41.8923 385.464C27.2961 385.464 15.4636 373.631 15.4636 359.035Z" stroke="#0B3A66" stroke-width="9" stroke-linecap="butt" stroke-linejoin="round" stroke-miterlimit="10" stroke-opacity="1" fill="#FFFFFF" fill-rule="evenodd" fill-opacity="1"/></g></g></g></g><path d="M279.5 1190.93C279.5 1176.33 291.333 1164.5 305.929 1164.5L1062.07 1164.5C1076.67 1164.5 1088.5 1176.33 1088.5 1190.93L1088.5 1508.07C1088.5 1522.67 1076.67 1534.5 1062.07 1534.5L305.929 1534.5C291.333 1534.5 279.5 1522.67 279.5 1508.07Z" stroke="#0B3A66" stroke-width="8.70833" stroke-linecap="butt" stroke-linejoin="round" stroke-miterlimit="10" stroke-opacity="1" fill="#FFFFFF" fill-rule="evenodd" fill-opacity="1"/><text fill="#0B3A66" fill-opacity="1" font-family="Aptos,Aptos_MSFontService,sans-serif" font-style="normal" font-variant="normal" font-weight="700" font-stretch="normal" font-size="76" text-anchor="start" direction="ltr" writing-mode="lr-tb" unicode-bidi="normal" text-decoration="none" transform="matrix(1 0 0 1 417.255 1328)">Expected</text><text fill="#0B3A66" fill-opacity="1" font-family="Aptos,Aptos_MSFontService,sans-serif" font-style="normal" font-variant="normal" font-weight="700" font-stretch="normal" font-size="76" text-anchor="start" direction="ltr" writing-mode="lr-tb" unicode-bidi="normal" text-decoration="none" transform="matrix(1 0 0 1 737.722 1328)">-</text><text fill="#0B3A66" fill-opacity="1" font-family="Aptos,Aptos_MSFontService,sans-serif" font-style="normal" font-variant="normal" font-weight="700" font-stretch="normal" font-size="76" text-anchor="start" direction="ltr" writing-mode="lr-tb" unicode-bidi="normal" text-decoration="none" transform="matrix(1 0 0 1 763.503 1328)">value</text><text fill="#0B3A66" fill-opacity="1" font-family="Aptos,Aptos_MSFontService,sans-serif" font-style="normal" font-variant="normal" font-weight="700" font-stretch="normal" font-size="76" text-anchor="start" direction="ltr" writing-mode="lr-tb" unicode-bidi="normal" text-decoration="none" transform="matrix(1 0 0 1 467.809 1419)">optimization</text><g clip-path="url(#clip13)"><g filter="url(#fx5)" transform="translate(1238 1162)"><g><g><path d="M15.4637 41.8926C15.4637 27.2963 27.2963 15.4637 41.8925 15.4637L797.035 15.4637C811.631 15.4637 823.464 27.2963 823.464 41.8926L823.464 359.035C823.464 373.631 811.631 385.464 797.035 385.464L41.8925 385.464C27.2963 385.464 15.4637 373.631 15.4637 359.035Z" stroke="#B23A48" stroke-width="9" stroke-linecap="butt" stroke-linejoin="round" stroke-miterlimit="10" stroke-opacity="1" fill="#FFFFFF" fill-rule="evenodd" fill-opacity="1"/></g></g></g></g><path d="M1240.5 1190.93C1240.5 1176.33 1252.33 1164.5 1266.93 1164.5L2022.07 1164.5C2036.67 1164.5 2048.5 1176.33 2048.5 1190.93L2048.5 1508.07C2048.5 1522.67 2036.67 1534.5 2022.07 1534.5L1266.93 1534.5C1252.33 1534.5 1240.5 1522.67 1240.5 1508.07Z" stroke="#B23A48" stroke-width="8.70833" stroke-linecap="butt" stroke-linejoin="round" stroke-miterlimit="10" stroke-opacity="1" fill="#FFFFFF" fill-rule="evenodd" fill-opacity="1"/><text fill="#B23A48" fill-opacity="1" font-family="Aptos,Aptos_MSFontService,sans-serif" font-style="normal" font-variant="normal" font-weight="700" font-stretch="normal" font-size="76" text-anchor="start" direction="ltr" writing-mode="lr-tb" unicode-bidi="normal" text-decoration="none" transform="matrix(1 0 0 1 1403.73 1328)">Worst</text><text fill="#B23A48" fill-opacity="1" font-family="Aptos,Aptos_MSFontService,sans-serif" font-style="normal" font-variant="normal" font-weight="700" font-stretch="normal" font-size="76" text-anchor="start" direction="ltr" writing-mode="lr-tb" unicode-bidi="normal" text-decoration="none" transform="matrix(1 0 0 1 1608.07 1328)">-</text><text fill="#B23A48" fill-opacity="1" font-family="Aptos,Aptos_MSFontService,sans-serif" font-style="normal" font-variant="normal" font-weight="700" font-stretch="normal" font-size="76" text-anchor="start" direction="ltr" writing-mode="lr-tb" unicode-bidi="normal" text-decoration="none" transform="matrix(1 0 0 1 1633.85 1328)">case or</text><text fill="#B23A48" fill-opacity="1" font-family="Aptos,Aptos_MSFontService,sans-serif" font-style="normal" font-variant="normal" font-weight="700" font-stretch="normal" font-size="76" text-anchor="start" direction="ltr" writing-mode="lr-tb" unicode-bidi="normal" text-decoration="none" transform="matrix(1 0 0 1 1371.53 1419)">min</text><text fill="#B23A48" fill-opacity="1" font-family="Aptos,Aptos_MSFontService,sans-serif" font-style="normal" font-variant="normal" font-weight="700" font-stretch="normal" font-size="76" text-anchor="start" direction="ltr" writing-mode="lr-tb" unicode-bidi="normal" text-decoration="none" transform="matrix(1 0 0 1 1502.15 1419)">-</text><text fill="#B23A48" fill-opacity="1" font-family="Aptos,Aptos_MSFontService,sans-serif" font-style="normal" font-variant="normal" font-weight="700" font-stretch="normal" font-size="76" text-anchor="start" direction="ltr" writing-mode="lr-tb" unicode-bidi="normal" text-decoration="none" transform="matrix(1 0 0 1 1527.93 1419)">max design</text><g clip-path="url(#clip14)"><g filter="url(#fx6)" transform="translate(2198 1162)"><g><g><path d="M15.4634 41.8926C15.4634 27.2963 27.2959 15.4637 41.8921 15.4637L798.035 15.4637C812.631 15.4637 824.464 27.2963 824.464 41.8926L824.464 359.035C824.464 373.631 812.631 385.464 798.035 385.464L41.8921 385.464C27.2959 385.464 15.4634 373.631 15.4634 359.035Z" stroke="#D97706" stroke-width="9" stroke-linecap="butt" stroke-linejoin="round" stroke-miterlimit="10" stroke-opacity="1" fill="#FFFFFF" fill-rule="evenodd" fill-opacity="1"/></g></g></g></g><path d="M2200.5 1190.93C2200.5 1176.33 2212.33 1164.5 2226.93 1164.5L2983.07 1164.5C2997.67 1164.5 3009.5 1176.33 3009.5 1190.93L3009.5 1508.07C3009.5 1522.67 2997.67 1534.5 2983.07 1534.5L2226.93 1534.5C2212.33 1534.5 2200.5 1522.67 2200.5 1508.07Z" stroke="#D97706" stroke-width="8.70833" stroke-linecap="butt" stroke-linejoin="round" stroke-miterlimit="10" stroke-opacity="1" fill="#FFFFFF" fill-rule="evenodd" fill-opacity="1"/><text fill="#D97706" fill-opacity="1" font-family="Aptos,Aptos_MSFontService,sans-serif" font-style="normal" font-variant="normal" font-weight="700" font-stretch="normal" font-size="66" text-anchor="start" direction="ltr" writing-mode="lr-tb" unicode-bidi="normal" text-decoration="none" transform="matrix(1 0 0 1 2312.5 1331)">Chance constraints</text><text fill="#D97706" fill-opacity="1" font-family="Aptos,Aptos_MSFontService,sans-serif" font-style="normal" font-variant="normal" font-weight="700" font-stretch="normal" font-size="66" text-anchor="start" direction="ltr" writing-mode="lr-tb" unicode-bidi="normal" text-decoration="none" transform="matrix(1 0 0 1 2337.22 1409)">P(g(x, ξ) ≤ 0) ≥ 1 − ε</text><g clip-path="url(#clip15)"><g filter="url(#fx7)" transform="translate(3158 1162)"><g><g><path d="M15.4636 41.8926C15.4636 27.2963 27.2962 15.4637 41.8924 15.4637L798.035 15.4637C812.631 15.4637 824.464 27.2963 824.464 41.8926L824.464 359.035C824.464 373.631 812.631 385.464 798.035 385.464L41.8924 385.464C27.2962 385.464 15.4636 373.631 15.4636 359.035Z" stroke="#7C3AED" stroke-width="9" stroke-linecap="butt" stroke-linejoin="round" stroke-miterlimit="10" stroke-opacity="1" fill="#FFFFFF" fill-rule="evenodd" fill-opacity="1"/></g></g></g></g><path d="M3160.5 1190.93C3160.5 1176.33 3172.33 1164.5 3186.93 1164.5L3943.07 1164.5C3957.67 1164.5 3969.5 1176.33 3969.5 1190.93L3969.5 1508.07C3969.5 1522.67 3957.67 1534.5 3943.07 1534.5L3186.93 1534.5C3172.33 1534.5 3160.5 1522.67 3160.5 1508.07Z" stroke="#7C3AED" stroke-width="8.70833" stroke-linecap="butt" stroke-linejoin="round" stroke-miterlimit="10" stroke-opacity="1" fill="#FFFFFF" fill-rule="evenodd" fill-opacity="1"/><text fill="#7C3AED" fill-opacity="1" font-family="Aptos,Aptos_MSFontService,sans-serif" font-style="normal" font-variant="normal" font-weight="700" font-stretch="normal" font-size="76" text-anchor="start" direction="ltr" writing-mode="lr-tb" unicode-bidi="normal" text-decoration="none" transform="matrix(1 0 0 1 3312.03 1328)">Risk measures</text><text fill="#7C3AED" fill-opacity="1" font-family="Aptos,Aptos_MSFontService,sans-serif" font-style="normal" font-variant="normal" font-weight="700" font-stretch="normal" font-size="76" text-anchor="start" direction="ltr" writing-mode="lr-tb" unicode-bidi="normal" text-decoration="none" transform="matrix(1 0 0 1 3273.44 1419)">variance or CVaR</text><text fill="#5B6472" fill-opacity="1" font-family="Aptos,Aptos_MSFontService,sans-serif" font-style="italic" font-variant="normal" font-weight="400" font-stretch="normal" font-size="68" text-anchor="start" direction="ltr" writing-mode="lr-tb" unicode-bidi="normal" text-decoration="none" transform="matrix(1 0 0 1 829.411 1642)">Goal: design choices that remain reliable when operating conditions and model parameters vary.</text><path d="M0.439861-3.40924 1915.92 243.726 1915.04 250.544-0.439861 3.40924ZM1912.69 232.911 1938.2 250.067 1909.17 260.185Z" fill="#7F7F7F" fill-rule="nonzero" fill-opacity="1" transform="matrix(-1 0 0 1 2622.7 914.5)"/><path d="M0.851627-3.33034 956.549 241.059 954.845 247.719-0.851627 3.33034ZM954.664 229.932 977.9 250.067 947.851 256.575Z" fill="#7F7F7F" fill-rule="nonzero" fill-opacity="1" transform="matrix(-1 0 0 1 2622.4 914.5)"/><path d="M3.42902-0.241338 19.4201 226.965 12.5621 227.448-3.42902 0.241338ZM29.3854 221.669 17.6 250.067 1.95322 223.6Z" fill="#7F7F7F" fill-rule="nonzero" fill-opacity="1" transform="matrix(-1 0 0 1 2622.1 914.5)"/><path d="M2623.38 911.177 3543.93 1155.37 3542.17 1162.01 2621.62 917.822ZM3542.14 1144.23 3565.2 1164.57 3535.09 1170.81Z" fill="#7F7F7F" fill-rule="nonzero" fill-opacity="1"/></g></g></svg>