<svg width="3979" height="1696" xmlns="http://www.w3.org/2000/svg" xmlns:xlink="http://www.w3.org/1999/xlink" xml:space="preserve" overflow="hidden"><defs><filter id="fx0" x="-10%" y="-10%" width="120%" height="120%" filterUnits="userSpaceOnUse" primitiveUnits="userSpaceOnUse"><feComponentTransfer color-interpolation-filters="sRGB"><feFuncR type="discrete" tableValues="0.000000 0.000000"/><feFuncG type="discrete" tableValues="0.000000 0.000000"/><feFuncB type="discrete" tableValues="0.000000 0.000000"/><feFuncA type="linear" slope="0.121569" intercept="0.000000"/></feComponentTransfer><feGaussianBlur stdDeviation="3.055556 3.055556"/></filter><filter id="fx1" x="-10%" y="-10%" width="120%" height="120%" filterUnits="userSpaceOnUse" primitiveUnits="userSpaceOnUse"><feComponentTransfer color-interpolation-filters="sRGB"><feFuncR type="discrete" tableValues="0.000000 0.000000"/><feFuncG type="discrete" tableValues="0.000000 0.000000"/><feFuncB type="discrete" tableValues="0.000000 0.000000"/><feFuncA type="linear" slope="0.121569" intercept="0.000000"/></feComponentTransfer><feGaussianBlur stdDeviation="3.055556 3.055556"/></filter><filter id="fx2" x="-10%" y="-10%" width="120%" height="120%" filterUnits="userSpaceOnUse" primitiveUnits="userSpaceOnUse"><feComponentTransfer color-interpolation-filters="sRGB"><feFuncR type="discrete" tableValues="0.000000 0.000000"/><feFuncG type="discrete" tableValues="0.000000 0.000000"/><feFuncB type="discrete" tableValues="0.000000 0.000000"/><feFuncA type="linear" slope="0.121569" intercept="0.000000"/></feComponentTransfer><feGaussianBlur stdDeviation="3.055556 3.055556"/></filter><filter id="fx3" x="-10%" y="-10%" width="120%" height="120%" filterUnits="userSpaceOnUse" primitiveUnits="userSpaceOnUse"><feComponentTransfer color-interpolation-filters="sRGB"><feFuncR type="discrete" tableValues="0.000000 0.000000"/><feFuncG type="discrete" tableValues="0.000000 0.000000"/><feFuncB type="discrete" tableValues="0.000000 0.000000"/><feFuncA type="linear" slope="0.121569" intercept="0.000000"/></feComponentTransfer><feGaussianBlur stdDeviation="3.055556 3.055556"/></filter><filter id="fx4" x="-10%" y="-10%" width="120%" height="120%" filterUnits="userSpaceOnUse" primitiveUnits="userSpaceOnUse"><feComponentTransfer color-interpolation-filters="sRGB"><feFuncR type="discrete" tableValues="0.000000 0.000000"/><feFuncG type="discrete" tableValues="0.000000 0.000000"/><feFuncB type="discrete" tableValues="0.000000 0.000000"/><feFuncA type="linear" slope="0.121569" intercept="0.000000"/></feComponentTransfer><feGaussianBlur stdDeviation="3.055556 3.055556"/></filter><filter id="fx5" x="-10%" y="-10%" width="120%" height="120%" filterUnits="userSpaceOnUse" primitiveUnits="userSpaceOnUse"><feComponentTransfer color-interpolation-filters="sRGB"><feFuncR type="discrete" tableValues="0.000000 0.000000"/><feFuncG type="discrete" tableValues="0.000000 0.000000"/><feFuncB type="discrete" tableValues="0.000000 0.000000"/><feFuncA type="linear" slope="0.121569" intercept="0.000000"/></feComponentTransfer><feGaussianBlur stdDeviation="3.055556 3.055556"/></filter><clipPath id="clip6"><path d="M274.368 710C259.805 710 248 721.805 248 736.368L248 1095.63C248 1110.19 259.805 1122 274.368 1122L801.632 1122C816.195 1122 828 1110.19 828 1095.63L828 736.368C828 721.805 816.195 710 801.632 710ZM233 206 4212 206 4212 1902 233 1902Z" fill-rule="evenodd" clip-rule="evenodd"/></clipPath><clipPath id="clip7"><path d="M947.368 710C932.805 710 921 721.805 921 736.368L921 1095.63C921 1110.19 932.805 1122 947.368 1122L1475.63 1122C1490.19 1122 1502 1110.19 1502 1095.63L1502 736.368C1502 721.805 1490.19 710 1475.63 710ZM233 206 4212 206 4212 1902 233 1902Z" fill-rule="evenodd" clip-rule="evenodd"/></clipPath><clipPath id="clip8"><path d="M1620.37 710C1605.81 710 1594 721.805 1594 736.368L1594 1095.63C1594 1110.19 1605.81 1122 1620.37 1122L2148.63 1122C2163.19 1122 2175 1110.19 2175 1095.63L2175 736.368C2175 721.805 2163.19 710 2148.63 710ZM233 206 4212 206 4212 1902 233 1902Z" fill-rule="evenodd" clip-rule="evenodd"/></clipPath><clipPath id="clip9"><path d="M2293.37 710C2278.81 710 2267 721.805 2267 736.368L2267 1095.63C2267 1110.19 2278.81 1122 2293.37 1122L2821.63 1122C2836.19 1122 2848 1110.19 2848 1095.63L2848 736.368C2848 721.805 2836.19 710 2821.63 710ZM233 206 4212 206 4212 1902 233 1902Z" fill-rule="evenodd" clip-rule="evenodd"/></clipPath><clipPath id="clip10"><path d="M2966.37 710C2951.81 710 2940 721.805 2940 736.368L2940 1095.63C2940 1110.19 2951.81 1122 2966.37 1122L3494.63 1122C3509.19 1122 3521 1110.19 3521 1095.63L3521 736.368C3521 721.805 3509.19 710 3494.63 710ZM233 206 4212 206 4212 1902 233 1902Z" fill-rule="evenodd" clip-rule="evenodd"/></clipPath><clipPath id="clip11"><path d="M3640.37 710C3625.8 710 3614 721.805 3614 736.368L3614 1095.63C3614 1110.19 3625.8 1122 3640.37 1122L4167.63 1122C4182.19 1122 4194 1110.19 4194 1095.63L4194 736.368C4194 721.805 4182.19 710 4167.63 710ZM233 206 4212 206 4212 1902 233 1902Z" fill-rule="evenodd" clip-rule="evenodd"/></clipPath></defs><g transform="translate(-233 -206)"><g><path d="M248.5 237.857C248.5 223.301 260.301 211.5 274.858 211.5L4139.14 211.5C4153.7 211.5 4165.5 223.301 4165.5 237.857L4165.5 442.142C4165.5 456.699 4153.7 468.5 4139.14 468.5L274.858 468.5C260.301 468.5 248.5 456.699 248.5 442.142Z" stroke="#2D6A9F" stroke-width="6.875" stroke-linecap="butt" stroke-linejoin="round" stroke-miterlimit="10" stroke-opacity="1" fill="#FFFFFF" fill-rule="evenodd" fill-opacity="1"/><text fill="#123B63" fill-opacity="1" font-family="Aptos Display,Aptos Display_MSFontService,sans-serif" font-style="normal" font-variant="normal" font-weight="700" font-stretch="normal" font-size="110" text-anchor="start" direction="ltr" writing-mode="lr-tb" unicode-bidi="normal" text-decoration="none" transform="matrix(1 0 0 1 1270.27 373)">Chapter 8: From CCD Theory to Practice</text><text fill="#1F2937" fill-opacity="1" font-family="Aptos,Aptos_MSFontService,sans-serif" font-style="normal" font-variant="normal" font-weight="400" font-stretch="normal" font-size="73" text-anchor="start" direction="ltr" writing-mode="lr-tb" unicode-bidi="normal" text-decoration="none" transform="matrix(1 0 0 1 570.304 596)">A complete workflow: formulate, optimize, verify, and translate results into credible hardware decisions.</text><g clip-path="url(#clip6)"><g filter="url(#fx0)" transform="translate(235 697)"><g><g><path d="M16.2407 42.6084C16.2407 28.0459 28.046 16.2407 42.6084 16.2407L569.873 16.2407C584.436 16.2407 596.241 28.0459 596.241 42.6084L596.241 401.873C596.241 416.436 584.436 428.241 569.873 428.241L42.6084 428.241C28.046 428.241 16.2407 416.436 16.2407 401.873Z" stroke="#123B63" stroke-width="10" stroke-linecap="butt" stroke-linejoin="round" stroke-miterlimit="10" stroke-opacity="1" fill="#EAF2F8" fill-rule="evenodd" fill-opacity="1"/></g></g></g></g><path d="M248 736.367C248 721.805 259.805 710 274.368 710L801.632 710C816.195 710 828 721.805 828 736.367L828 1095.63C828 1110.19 816.195 1122 801.632 1122L274.368 1122C259.805 1122 248 1110.19 248 1095.63Z" stroke="#123B63" stroke-width="10.0833" stroke-linecap="butt" stroke-linejoin="round" stroke-miterlimit="10" stroke-opacity="1" fill="#EAF2F8" fill-rule="evenodd" fill-opacity="1"/><text fill="#123B63" fill-opacity="1" font-family="Aptos Display,Aptos Display_MSFontService,sans-serif" font-style="normal" font-variant="normal" font-weight="700" font-stretch="normal" font-size="69" text-anchor="start" direction="ltr" writing-mode="lr-tb" unicode-bidi="normal" text-decoration="none" transform="matrix(1 0 0 1 407.848 896)">Dynamic</text><text fill="#123B63" fill-opacity="1" font-family="Aptos Display,Aptos Display_MSFontService,sans-serif" font-style="normal" font-variant="normal" font-weight="700" font-stretch="normal" font-size="69" text-anchor="start" direction="ltr" writing-mode="lr-tb" unicode-bidi="normal" text-decoration="none" transform="matrix(1 0 0 1 401.546 979)">modeling</text><path d="M844.5 911.917 887.583 911.917 887.583 921.083 844.5 921.083ZM883 902.75 910.5 916.5 883 930.25Z" fill="#5B6775" fill-rule="nonzero" fill-opacity="1"/><g clip-path="url(#clip7)"><g filter="url(#fx1)" transform="translate(908 697)"><g><g><path d="M16.2408 42.6088C16.2408 28.0461 28.0461 16.2407 42.6088 16.2407L570.873 16.2407C585.435 16.2407 597.241 28.0461 597.241 42.6088L597.241 401.873C597.241 416.436 585.435 428.241 570.873 428.241L42.6088 428.241C28.0461 428.241 16.2408 416.436 16.2408 401.873Z" stroke="#D97904" stroke-width="10" stroke-linecap="butt" stroke-linejoin="round" stroke-miterlimit="10" stroke-opacity="1" fill="#FFF4CC" fill-rule="evenodd" fill-opacity="1"/></g></g></g></g><path d="M921 736.368C921 721.805 932.805 710 947.368 710L1475.63 710C1490.19 710 1502 721.805 1502 736.368L1502 1095.63C1502 1110.19 1490.19 1122 1475.63 1122L947.368 1122C932.805 1122 921 1110.19 921 1095.63Z" stroke="#D97904" stroke-width="10.0833" stroke-linecap="butt" stroke-linejoin="round" stroke-miterlimit="10" stroke-opacity="1" fill="#FFF4CC" fill-rule="evenodd" fill-opacity="1"/><text fill="#D97904" fill-opacity="1" font-family="Aptos Display,Aptos Display_MSFontService,sans-serif" font-style="normal" font-variant="normal" font-weight="700" font-stretch="normal" font-size="69" text-anchor="start" direction="ltr" writing-mode="lr-tb" unicode-bidi="normal" text-decoration="none" transform="matrix(1 0 0 1 1141.66 896)">CCD</text><text fill="#D97904" fill-opacity="1" font-family="Aptos Display,Aptos Display_MSFontService,sans-serif" font-style="normal" font-variant="normal" font-weight="700" font-stretch="normal" font-size="69" text-anchor="start" direction="ltr" writing-mode="lr-tb" unicode-bidi="normal" text-decoration="none" transform="matrix(1 0 0 1 1039.71 979)">formulation</text><path d="M1513.5 911.917 1556.58 911.917 1556.58 921.083 1513.5 921.083ZM1552 902.75 1579.5 916.5 1552 930.25Z" fill="#5B6775" fill-rule="nonzero" fill-opacity="1"/><g clip-path="url(#clip8)"><g filter="url(#fx2)" transform="translate(1581 697)"><g><g><path d="M16.2408 42.6088C16.2408 28.0461 28.0462 16.2407 42.6089 16.2407L570.873 16.2407C585.435 16.2407 597.241 28.0461 597.241 42.6088L597.241 401.873C597.241 416.436 585.435 428.241 570.873 428.241L42.6089 428.241C28.0462 428.241 16.2408 416.436 16.2408 401.873Z" stroke="#1F8A52" stroke-width="10" stroke-linecap="butt" stroke-linejoin="round" stroke-miterlimit="10" stroke-opacity="1" fill="#EAF7EF" fill-rule="evenodd" fill-opacity="1"/></g></g></g></g><path d="M1594 736.368C1594 721.805 1605.81 710 1620.37 710L2148.63 710C2163.19 710 2175 721.805 2175 736.368L2175 1095.63C2175 1110.19 2163.19 1122 2148.63 1122L1620.37 1122C1605.81 1122 1594 1110.19 1594 1095.63Z" stroke="#1F8A52" stroke-width="10.0833" stroke-linecap="butt" stroke-linejoin="round" stroke-miterlimit="10" stroke-opacity="1" fill="#EAF7EF" fill-rule="evenodd" fill-opacity="1"/><text fill="#1F8A52" fill-opacity="1" font-family="Aptos Display,Aptos Display_MSFontService,sans-serif" font-style="normal" font-variant="normal" font-weight="700" font-stretch="normal" font-size="69" text-anchor="start" direction="ltr" writing-mode="lr-tb" unicode-bidi="normal" text-decoration="none" transform="matrix(1 0 0 1 1702.24 896)">Architecture</text><text fill="#1F8A52" fill-opacity="1" font-family="Aptos Display,Aptos Display_MSFontService,sans-serif" font-style="normal" font-variant="normal" font-weight="700" font-stretch="normal" font-size="69" text-anchor="start" direction="ltr" writing-mode="lr-tb" unicode-bidi="normal" text-decoration="none" transform="matrix(1 0 0 1 1748.53 979)">selection</text><path d="M2190.5 911.917 2233.58 911.917 2233.58 921.083 2190.5 921.083ZM2229 902.75 2256.5 916.5 2229 930.25Z" fill="#5B6775" fill-rule="nonzero" fill-opacity="1"/><g clip-path="url(#clip9)"><g filter="url(#fx3)" transform="translate(2254 697)"><g><g><path d="M16.241 42.6088C16.241 28.0461 28.0463 16.2407 42.609 16.2407L570.873 16.2407C585.435 16.2407 597.241 28.0461 597.241 42.6088L597.241 401.873C597.241 416.436 585.435 428.241 570.873 428.241L42.609 428.241C28.0463 428.241 16.241 416.436 16.241 401.873Z" stroke="#7A3FF2" stroke-width="10" stroke-linecap="butt" stroke-linejoin="round" stroke-miterlimit="10" stroke-opacity="1" fill="#F3E9FF" fill-rule="evenodd" fill-opacity="1"/></g></g></g></g><path d="M2267 736.368C2267 721.805 2278.81 710 2293.37 710L2821.63 710C2836.19 710 2848 721.805 2848 736.368L2848 1095.63C2848 1110.19 2836.19 1122 2821.63 1122L2293.37 1122C2278.81 1122 2267 1110.19 2267 1095.63Z" stroke="#7A3FF2" stroke-width="10.0833" stroke-linecap="butt" stroke-linejoin="round" stroke-miterlimit="10" stroke-opacity="1" fill="#F3E9FF" fill-rule="evenodd" fill-opacity="1"/><text fill="#7A3FF2" fill-opacity="1" font-family="Aptos Display,Aptos Display_MSFontService,sans-serif" font-style="normal" font-variant="normal" font-weight="700" font-stretch="normal" font-size="69" text-anchor="start" direction="ltr" writing-mode="lr-tb" unicode-bidi="normal" text-decoration="none" transform="matrix(1 0 0 1 2403.96 896)">Numerical</text><text fill="#7A3FF2" fill-opacity="1" font-family="Aptos Display,Aptos Display_MSFontService,sans-serif" font-style="normal" font-variant="normal" font-weight="700" font-stretch="normal" font-size="69" text-anchor="start" direction="ltr" writing-mode="lr-tb" unicode-bidi="normal" text-decoration="none" transform="matrix(1 0 0 1 2374.56 979)">optimization</text><g clip-path="url(#clip10)"><g filter="url(#fx4)" transform="translate(2927 697)"><g><g><path d="M16.241 42.6088C16.241 28.0461 28.0463 16.2407 42.609 16.2407L570.873 16.2407C585.435 16.2407 597.241 28.0461 597.241 42.6088L597.241 401.873C597.241 416.436 585.435 428.241 570.873 428.241L42.609 428.241C28.0463 428.241 16.241 416.436 16.241 401.873Z" stroke="#2D6A9F" stroke-width="10" stroke-linecap="butt" stroke-linejoin="round" stroke-miterlimit="10" stroke-opacity="1" fill="#EAF2F8" fill-rule="evenodd" fill-opacity="1"/></g></g></g></g><path d="M2940 736.368C2940 721.805 2951.81 710 2966.37 710L3494.63 710C3509.19 710 3521 721.805 3521 736.368L3521 1095.63C3521 1110.19 3509.19 1122 3494.63 1122L2966.37 1122C2951.81 1122 2940 1110.19 2940 1095.63Z" stroke="#2D6A9F" stroke-width="10.0833" stroke-linecap="butt" stroke-linejoin="round" stroke-miterlimit="10" stroke-opacity="1" fill="#EAF2F8" fill-rule="evenodd" fill-opacity="1"/><text fill="#2D6A9F" fill-opacity="1" font-family="Aptos Display,Aptos Display_MSFontService,sans-serif" font-style="normal" font-variant="normal" font-weight="700" font-stretch="normal" font-size="64" text-anchor="start" direction="ltr" writing-mode="lr-tb" unicode-bidi="normal" text-decoration="none" transform="matrix(1 0 0 1 3045.64 898)">Robustness +</text><text fill="#2D6A9F" fill-opacity="1" font-family="Aptos Display,Aptos Display_MSFontService,sans-serif" font-style="normal" font-variant="normal" font-weight="700" font-stretch="normal" font-size="64" text-anchor="start" direction="ltr" writing-mode="lr-tb" unicode-bidi="normal" text-decoration="none" transform="matrix(1 0 0 1 3043.07 975)">model fidelity</text><path d="M3533.5 911.917 3576.58 911.917 3576.58 921.083 3533.5 921.083ZM3572 902.75 3599.5 916.5 3572 930.25Z" fill="#5B6775" fill-rule="nonzero" fill-opacity="1"/><g clip-path="url(#clip11)"><g filter="url(#fx5)" transform="translate(3601 697)"><g><g><path d="M16.2407 42.6084C16.2407 28.0459 28.0459 16.2407 42.6084 16.2407L569.873 16.2407C584.436 16.2407 596.241 28.0459 596.241 42.6084L596.241 401.873C596.241 416.436 584.436 428.241 569.873 428.241L42.6084 428.241C28.0459 428.241 16.2407 416.436 16.2407 401.873Z" stroke="#B93445" stroke-width="10" stroke-linecap="butt" stroke-linejoin="round" stroke-miterlimit="10" stroke-opacity="1" fill="#FFF0F2" fill-rule="evenodd" fill-opacity="1"/></g></g></g></g><path d="M3614 736.367C3614 721.805 3625.8 710 3640.37 710L4167.63 710C4182.19 710 4194 721.805 4194 736.367L4194 1095.63C4194 1110.19 4182.19 1122 4167.63 1122L3640.37 1122C3625.8 1122 3614 1110.19 3614 1095.63Z" stroke="#B93445" stroke-width="10.0833" stroke-linecap="butt" stroke-linejoin="round" stroke-miterlimit="10" stroke-opacity="1" fill="#FFF0F2" fill-rule="evenodd" fill-opacity="1"/><text fill="#B93445" fill-opacity="1" font-family="Aptos Display,Aptos Display_MSFontService,sans-serif" font-style="normal" font-variant="normal" font-weight="700" font-stretch="normal" font-size="64" text-anchor="start" direction="ltr" writing-mode="lr-tb" unicode-bidi="normal" text-decoration="none" transform="matrix(1 0 0 1 3743.98 898)">Validation +</text><text fill="#B93445" fill-opacity="1" font-family="Aptos Display,Aptos Display_MSFontService,sans-serif" font-style="normal" font-variant="normal" font-weight="700" font-stretch="normal" font-size="64" text-anchor="start" direction="ltr" writing-mode="lr-tb" unicode-bidi="normal" text-decoration="none" transform="matrix(1 0 0 1 3774.98 975)">hardware</text><path d="M2223.08 1145.5 2223.08 1271.58 2213.92 1271.58 2213.92 1145.5ZM2232.25 1267 2218.5 1294.5 2204.75 1267Z" fill="#5B6775" fill-rule="nonzero" fill-opacity="1"/><path d="M528.5 1361.87C528.5 1347.31 540.308 1335.5 554.874 1335.5L3845.13 1335.5C3859.69 1335.5 3871.5 1347.31 3871.5 1361.87L3871.5 1731.13C3871.5 1745.69 3859.69 1757.5 3845.13 1757.5L554.874 1757.5C540.308 1757.5 528.5 1745.69 528.5 1731.13Z" stroke="#1F8A52" stroke-width="9.16667" stroke-linecap="butt" stroke-linejoin="round" stroke-miterlimit="10" stroke-opacity="1" fill="#FFFFFF" fill-rule="evenodd" fill-opacity="1"/><text fill="#1F8A52" fill-opacity="1" font-family="Aptos Display,Aptos Display_MSFontService,sans-serif" font-style="normal" font-variant="normal" font-weight="700" font-stretch="normal" font-size="96" text-anchor="start" direction="ltr" writing-mode="lr-tb" unicode-bidi="normal" text-decoration="none" transform="matrix(1 0 0 1 1789.67 1491)">Credible CCD result</text><text fill="#1F8A52" fill-opacity="1" font-family="Aptos,Aptos_MSFontService,sans-serif" font-style="normal" font-variant="normal" font-weight="400" font-stretch="normal" font-size="55" text-anchor="start" direction="ltr" writing-mode="lr-tb" unicode-bidi="normal" text-decoration="none" transform="matrix(1 0 0 1 774.148 1608)">not only a low objective value </text><text fill="#1F8A52" fill-opacity="1" font-family="Aptos,Aptos_MSFontService,sans-serif" font-style="normal" font-variant="normal" font-weight="400" font-stretch="normal" font-size="55" text-anchor="start" direction="ltr" writing-mode="lr-tb" unicode-bidi="normal" text-decoration="none" transform="matrix(1 0 0 1 1478.74 1608)">—</text><text fill="#1F8A52" fill-opacity="1" font-family="Aptos,Aptos_MSFontService,sans-serif" font-style="normal" font-variant="normal" font-weight="400" font-stretch="normal" font-size="55" text-anchor="start" direction="ltr" writing-mode="lr-tb" unicode-bidi="normal" text-decoration="none" transform="matrix(1 0 0 1 1540.62 1608)">it must be converged, physically realistic, robust to uncertainty, and validated at the right </text><text fill="#1F8A52" fill-opacity="1" font-family="Aptos,Aptos_MSFontService,sans-serif" font-style="normal" font-variant="normal" font-weight="400" font-stretch="normal" font-size="55" text-anchor="start" direction="ltr" writing-mode="lr-tb" unicode-bidi="normal" text-decoration="none" transform="matrix(1 0 0 1 2115.46 1660)">fidelity.</text><text fill="#5B6775" fill-opacity="1" font-family="Aptos,Aptos_MSFontService,sans-serif" font-style="italic" font-variant="normal" font-weight="400" font-stretch="normal" font-size="64" text-anchor="start" direction="ltr" writing-mode="lr-tb" unicode-bidi="normal" text-decoration="none" transform="matrix(1 0 0 1 1064.96 1844)">Chapter 8 integrates the full CCD workflow from formulation to validated hardware.</text><path d="M2863.5 906.917 2906.58 906.917 2906.58 916.084 2863.5 916.083ZM2902 897.75 2929.5 911.5 2902 925.25Z" fill="#5B6775" fill-rule="nonzero" fill-opacity="1"/></g></g></svg>