<svg width="3777" height="1609" xmlns="http://www.w3.org/2000/svg" xmlns:xlink="http://www.w3.org/1999/xlink" xml:space="preserve" overflow="hidden"><defs><filter id="fx0" x="-10%" y="-10%" width="120%" height="120%" filterUnits="userSpaceOnUse" primitiveUnits="userSpaceOnUse"><feComponentTransfer color-interpolation-filters="sRGB"><feFuncR type="discrete" tableValues="0.850980 0.850980"/><feFuncG type="discrete" tableValues="0.866667 0.866667"/><feFuncB type="discrete" tableValues="0.890196 0.890196"/><feFuncA type="linear" slope="0.121569" intercept="0.000000"/></feComponentTransfer><feGaussianBlur stdDeviation="1.527778 1.527778"/></filter><filter id="fx1" x="-10%" y="-10%" width="120%" height="120%" filterUnits="userSpaceOnUse" primitiveUnits="userSpaceOnUse"><feComponentTransfer color-interpolation-filters="sRGB"><feFuncR type="discrete" tableValues="0.850980 0.850980"/><feFuncG type="discrete" tableValues="0.866667 0.866667"/><feFuncB type="discrete" tableValues="0.890196 0.890196"/><feFuncA type="linear" slope="0.121569" intercept="0.000000"/></feComponentTransfer><feGaussianBlur stdDeviation="1.527778 1.527778"/></filter><filter id="fx2" x="-10%" y="-10%" width="120%" height="120%" filterUnits="userSpaceOnUse" primitiveUnits="userSpaceOnUse"><feComponentTransfer color-interpolation-filters="sRGB"><feFuncR type="discrete" tableValues="0.850980 0.850980"/><feFuncG type="discrete" tableValues="0.866667 0.866667"/><feFuncB type="discrete" tableValues="0.890196 0.890196"/><feFuncA type="linear" slope="0.121569" intercept="0.000000"/></feComponentTransfer><feGaussianBlur stdDeviation="1.527778 1.527778"/></filter><filter id="fx3" x="-10%" y="-10%" width="120%" height="120%" filterUnits="userSpaceOnUse" primitiveUnits="userSpaceOnUse"><feComponentTransfer color-interpolation-filters="sRGB"><feFuncR type="discrete" tableValues="0.850980 0.850980"/><feFuncG type="discrete" tableValues="0.866667 0.866667"/><feFuncB type="discrete" tableValues="0.890196 0.890196"/><feFuncA type="linear" slope="0.121569" intercept="0.000000"/></feComponentTransfer><feGaussianBlur stdDeviation="1.527778 1.527778"/></filter><filter id="fx4" x="-10%" y="-10%" width="120%" height="120%" filterUnits="userSpaceOnUse" primitiveUnits="userSpaceOnUse"><feComponentTransfer color-interpolation-filters="sRGB"><feFuncR type="discrete" tableValues="0.850980 0.850980"/><feFuncG type="discrete" tableValues="0.866667 0.866667"/><feFuncB type="discrete" tableValues="0.890196 0.890196"/><feFuncA type="linear" slope="0.121569" intercept="0.000000"/></feComponentTransfer><feGaussianBlur stdDeviation="1.527778 1.527778"/></filter><filter id="fx5" x="-10%" y="-10%" width="120%" height="120%" filterUnits="userSpaceOnUse" primitiveUnits="userSpaceOnUse"><feComponentTransfer color-interpolation-filters="sRGB"><feFuncR type="discrete" tableValues="0.850980 0.850980"/><feFuncG type="discrete" tableValues="0.866667 0.866667"/><feFuncB type="discrete" tableValues="0.890196 0.890196"/><feFuncA type="linear" slope="0.121569" intercept="0.000000"/></feComponentTransfer><feGaussianBlur stdDeviation="1.527778 1.527778"/></filter><filter id="fx6" x="-10%" y="-10%" width="120%" height="120%" filterUnits="userSpaceOnUse" primitiveUnits="userSpaceOnUse"><feComponentTransfer color-interpolation-filters="sRGB"><feFuncR type="discrete" tableValues="0.850980 0.850980"/><feFuncG type="discrete" tableValues="0.866667 0.866667"/><feFuncB type="discrete" tableValues="0.890196 0.890196"/><feFuncA type="linear" slope="0.121569" intercept="0.000000"/></feComponentTransfer><feGaussianBlur stdDeviation="1.527778 1.527778"/></filter><clipPath id="clip7"><path d="M816.47 99.4999C798.261 99.4999 783.5 114.261 783.5 132.47L783.5 277.53C783.5 295.739 798.261 310.5 816.47 310.5L3340.53 310.5C3358.74 310.5 3373.5 295.739 3373.5 277.53L3373.5 132.47C3373.5 114.261 3358.74 99.4999 3340.53 99.4999ZM187 91 3964 91 3964 1700 187 1700Z" fill-rule="evenodd" clip-rule="evenodd"/></clipPath><clipPath id="clip8"><path d="M260.767 436.5C240.737 436.5 224.5 452.737 224.5 472.767L224.5 822.233C224.5 842.263 240.737 858.5 260.767 858.5L815.234 858.5C835.263 858.5 851.5 842.263 851.5 822.233L851.5 472.767C851.5 452.737 835.263 436.5 815.234 436.5ZM187 91 3964 91 3964 1700 187 1700Z" fill-rule="evenodd" clip-rule="evenodd"/></clipPath><clipPath id="clip9"><path d="M1006.77 436.5C986.737 436.5 970.5 452.737 970.5 472.767L970.5 822.233C970.5 842.263 986.737 858.5 1006.77 858.5L1561.23 858.5C1581.26 858.5 1597.5 842.263 1597.5 822.233L1597.5 472.767C1597.5 452.737 1581.26 436.5 1561.23 436.5ZM187 91 3964 91 3964 1700 187 1700Z" fill-rule="evenodd" clip-rule="evenodd"/></clipPath><clipPath id="clip10"><path d="M1752.77 436.5C1732.74 436.5 1716.5 452.737 1716.5 472.767L1716.5 822.233C1716.5 842.263 1732.74 858.5 1752.77 858.5L2307.23 858.5C2327.26 858.5 2343.5 842.263 2343.5 822.233L2343.5 472.767C2343.5 452.737 2327.26 436.5 2307.23 436.5ZM187 91 3964 91 3964 1700 187 1700Z" fill-rule="evenodd" clip-rule="evenodd"/></clipPath><clipPath id="clip11"><path d="M2498.77 436.5C2478.74 436.5 2462.5 452.737 2462.5 472.767L2462.5 822.233C2462.5 842.263 2478.74 858.5 2498.77 858.5L3053.23 858.5C3073.26 858.5 3089.5 842.263 3089.5 822.233L3089.5 472.767C3089.5 452.737 3073.26 436.5 3053.23 436.5ZM187 91 3964 91 3964 1700 187 1700Z" fill-rule="evenodd" clip-rule="evenodd"/></clipPath><clipPath id="clip12"><path d="M3244.77 436.5C3224.74 436.5 3208.5 452.737 3208.5 472.767L3208.5 822.233C3208.5 842.263 3224.74 858.5 3244.77 858.5L3799.23 858.5C3819.26 858.5 3835.5 842.263 3835.5 822.233L3835.5 472.767C3835.5 452.737 3819.26 436.5 3799.23 436.5ZM187 91 3964 91 3964 1700 187 1700Z" fill-rule="evenodd" clip-rule="evenodd"/></clipPath><clipPath id="clip13"><path d="M234.045 1238.5C212.205 1238.5 194.5 1256.21 194.5 1278.05L194.5 1633.95C194.5 1655.79 212.205 1673.5 234.045 1673.5L3900.95 1673.5C3922.79 1673.5 3940.5 1655.79 3940.5 1633.95L3940.5 1278.05C3940.5 1256.21 3922.79 1238.5 3900.95 1238.5ZM187 91 3964 91 3964 1700 187 1700Z" fill-rule="evenodd" clip-rule="evenodd"/></clipPath></defs><g transform="translate(-187 -91)"><g><g clip-path="url(#clip7)"><g filter="url(#fx0)" transform="translate(786 102)"><g><g><path d="M10.4635 43.4335C10.4635 25.2247 25.2246 10.4635 43.4333 10.4635L2567.49 10.4635C2585.7 10.4635 2600.46 25.2247 2600.46 43.4335L2600.46 188.493C2600.46 206.702 2585.7 221.464 2567.49 221.464L43.4333 221.464C25.2246 221.464 10.4635 206.702 10.4635 188.493Z" stroke="#2E8B57" stroke-width="9" stroke-linecap="butt" stroke-linejoin="round" stroke-miterlimit="10" stroke-opacity="1" fill="#FFFFFF" fill-rule="evenodd" fill-opacity="1"/></g></g></g></g><path d="M783.5 132.47C783.5 114.261 798.261 99.4998 816.47 99.4998L3340.53 99.4998C3358.74 99.4998 3373.5 114.261 3373.5 132.47L3373.5 277.53C3373.5 295.739 3358.74 310.5 3340.53 310.5L816.47 310.5C798.261 310.5 783.5 295.739 783.5 277.53Z" stroke="#2E8B57" stroke-width="9.16667" stroke-linecap="butt" stroke-linejoin="round" stroke-miterlimit="10" stroke-opacity="1" fill="#FFFFFF" fill-rule="evenodd" fill-opacity="1"/><text fill="#2E8B57" fill-opacity="1" font-family="Aptos,Aptos_MSFontService,sans-serif" font-style="normal" font-variant="normal" font-weight="700" font-stretch="normal" font-size="92" text-anchor="start" direction="ltr" writing-mode="lr-tb" unicode-bidi="normal" text-decoration="none" transform="matrix(1 0 0 1 956.312 228)">From optimization results to implementable hardware</text><g clip-path="url(#clip8)"><g filter="url(#fx1)" transform="translate(227 439)"><g><g><path d="M10.4636 46.7301C10.4636 26.7007 26.7006 10.4637 46.73 10.4637L601.197 10.4637C621.227 10.4637 637.464 26.7007 637.464 46.7301L637.464 396.197C637.464 416.226 621.227 432.463 601.197 432.463L46.73 432.463C26.7006 432.463 10.4636 416.226 10.4636 396.197Z" stroke="#0B3D66" stroke-width="9" stroke-linecap="butt" stroke-linejoin="round" stroke-miterlimit="10" stroke-opacity="1" fill="#EAF4FB" fill-rule="evenodd" fill-opacity="1"/></g></g></g></g><path d="M224.5 472.767C224.5 452.737 240.737 436.5 260.766 436.5L815.234 436.5C835.263 436.5 851.5 452.737 851.5 472.767L851.5 822.233C851.5 842.263 835.263 858.5 815.234 858.5L260.766 858.5C240.737 858.5 224.5 842.263 224.5 822.233Z" stroke="#0B3D66" stroke-width="9.16667" stroke-linecap="butt" stroke-linejoin="round" stroke-miterlimit="10" stroke-opacity="1" fill="#EAF4FB" fill-rule="evenodd" fill-opacity="1"/><text fill="#0B3D66" fill-opacity="1" font-family="Aptos,Aptos_MSFontService,sans-serif" font-style="normal" font-variant="normal" font-weight="700" font-stretch="normal" font-size="64" text-anchor="start" direction="ltr" writing-mode="lr-tb" unicode-bidi="normal" text-decoration="none" transform="matrix(1 0 0 1 348.631 629)">Optimization</text><text fill="#0B3D66" fill-opacity="1" font-family="Aptos,Aptos_MSFontService,sans-serif" font-style="normal" font-variant="normal" font-weight="700" font-stretch="normal" font-size="64" text-anchor="start" direction="ltr" writing-mode="lr-tb" unicode-bidi="normal" text-decoration="none" transform="matrix(1 0 0 1 452.604 706)">result</text><g clip-path="url(#clip9)"><g filter="url(#fx2)" transform="translate(973 439)"><g><g><path d="M10.4635 46.7301C10.4635 26.7007 26.7005 10.4637 46.7299 10.4637L601.197 10.4637C621.226 10.4637 637.463 26.7007 637.463 46.7301L637.463 396.197C637.463 416.226 621.226 432.463 601.197 432.463L46.7299 432.463C26.7005 432.463 10.4635 416.226 10.4635 396.197Z" stroke="#D87300" stroke-width="9" stroke-linecap="butt" stroke-linejoin="round" stroke-miterlimit="10" stroke-opacity="1" fill="#FFF5D9" fill-rule="evenodd" fill-opacity="1"/></g></g></g></g><path d="M970.5 472.767C970.5 452.737 986.737 436.5 1006.77 436.5L1561.23 436.5C1581.26 436.5 1597.5 452.737 1597.5 472.767L1597.5 822.233C1597.5 842.263 1581.26 858.5 1561.23 858.5L1006.77 858.5C986.737 858.5 970.5 842.263 970.5 822.233Z" stroke="#D87300" stroke-width="9.16667" stroke-linecap="butt" stroke-linejoin="round" stroke-miterlimit="10" stroke-opacity="1" fill="#FFF5D9" fill-rule="evenodd" fill-opacity="1"/><text fill="#D87300" fill-opacity="1" font-family="Aptos,Aptos_MSFontService,sans-serif" font-style="normal" font-variant="normal" font-weight="700" font-stretch="normal" font-size="64" text-anchor="start" direction="ltr" writing-mode="lr-tb" unicode-bidi="normal" text-decoration="none" transform="matrix(1 0 0 1 1134.52 629)">Controller</text><text fill="#D87300" fill-opacity="1" font-family="Aptos,Aptos_MSFontService,sans-serif" font-style="normal" font-variant="normal" font-weight="700" font-stretch="normal" font-size="64" text-anchor="start" direction="ltr" writing-mode="lr-tb" unicode-bidi="normal" text-decoration="none" transform="matrix(1 0 0 1 1049.34 706)">implementation</text><g clip-path="url(#clip10)"><g filter="url(#fx3)" transform="translate(1719 439)"><g><g><path d="M10.4635 46.7301C10.4635 26.7007 26.7005 10.4637 46.7299 10.4637L601.197 10.4637C621.226 10.4637 637.463 26.7007 637.463 46.7301L637.463 396.197C637.463 416.226 621.226 432.463 601.197 432.463L46.7299 432.463C26.7005 432.463 10.4635 416.226 10.4635 396.197Z" stroke="#2F6EA6" stroke-width="9" stroke-linecap="butt" stroke-linejoin="round" stroke-miterlimit="10" stroke-opacity="1" fill="#EAF4FB" fill-rule="evenodd" fill-opacity="1"/></g></g></g></g><path d="M1716.5 472.767C1716.5 452.737 1732.74 436.5 1752.77 436.5L2307.23 436.5C2327.26 436.5 2343.5 452.737 2343.5 472.767L2343.5 822.233C2343.5 842.263 2327.26 858.5 2307.23 858.5L1752.77 858.5C1732.74 858.5 1716.5 842.263 1716.5 822.233Z" stroke="#2F6EA6" stroke-width="9.16667" stroke-linecap="butt" stroke-linejoin="round" stroke-miterlimit="10" stroke-opacity="1" fill="#EAF4FB" fill-rule="evenodd" fill-opacity="1"/><text fill="#2F6EA6" fill-opacity="1" font-family="Aptos,Aptos_MSFontService,sans-serif" font-style="normal" font-variant="normal" font-weight="700" font-stretch="normal" font-size="64" text-anchor="start" direction="ltr" writing-mode="lr-tb" unicode-bidi="normal" text-decoration="none" transform="matrix(1 0 0 1 1790.74 590)">Software</text><text fill="#2F6EA6" fill-opacity="1" font-family="Aptos,Aptos_MSFontService,sans-serif" font-style="normal" font-variant="normal" font-weight="700" font-stretch="normal" font-size="64" text-anchor="start" direction="ltr" writing-mode="lr-tb" unicode-bidi="normal" text-decoration="none" transform="matrix(1 0 0 1 2052.84 590)">-</text><text fill="#2F6EA6" fill-opacity="1" font-family="Aptos,Aptos_MSFontService,sans-serif" font-style="normal" font-variant="normal" font-weight="700" font-stretch="normal" font-size="64" text-anchor="start" direction="ltr" writing-mode="lr-tb" unicode-bidi="normal" text-decoration="none" transform="matrix(1 0 0 1 2074.61 590)">in</text><text fill="#2F6EA6" fill-opacity="1" font-family="Aptos,Aptos_MSFontService,sans-serif" font-style="normal" font-variant="normal" font-weight="700" font-stretch="normal" font-size="64" text-anchor="start" direction="ltr" writing-mode="lr-tb" unicode-bidi="normal" text-decoration="none" transform="matrix(1 0 0 1 2129.04 590)">-</text><text fill="#2F6EA6" fill-opacity="1" font-family="Aptos,Aptos_MSFontService,sans-serif" font-style="normal" font-variant="normal" font-weight="700" font-stretch="normal" font-size="64" text-anchor="start" direction="ltr" writing-mode="lr-tb" unicode-bidi="normal" text-decoration="none" transform="matrix(1 0 0 1 2150.81 590)">the</text><text fill="#2F6EA6" fill-opacity="1" font-family="Aptos,Aptos_MSFontService,sans-serif" font-style="normal" font-variant="normal" font-weight="700" font-stretch="normal" font-size="64" text-anchor="start" direction="ltr" writing-mode="lr-tb" unicode-bidi="normal" text-decoration="none" transform="matrix(1 0 0 1 2246.49 590)">-</text><text fill="#2F6EA6" fill-opacity="1" font-family="Aptos,Aptos_MSFontService,sans-serif" font-style="normal" font-variant="normal" font-weight="700" font-stretch="normal" font-size="64" text-anchor="start" direction="ltr" writing-mode="lr-tb" unicode-bidi="normal" text-decoration="none" transform="matrix(1 0 0 1 1964.47 667)">loop</text><text fill="#2F6EA6" fill-opacity="1" font-family="Aptos,Aptos_MSFontService,sans-serif" font-style="normal" font-variant="normal" font-weight="700" font-stretch="normal" font-size="64" text-anchor="start" direction="ltr" writing-mode="lr-tb" unicode-bidi="normal" text-decoration="none" transform="matrix(1 0 0 1 1788.75 744)">and Monte Carlo</text><g clip-path="url(#clip11)"><g filter="url(#fx4)" transform="translate(2465 439)"><g><g><path d="M10.4639 46.7301C10.4639 26.7007 26.7009 10.4637 46.7303 10.4637L601.197 10.4637C621.227 10.4637 637.464 26.7007 637.464 46.7301L637.464 396.197C637.464 416.226 621.227 432.463 601.197 432.463L46.7303 432.463C26.7009 432.463 10.4639 416.226 10.4639 396.197Z" stroke="#7A35E8" stroke-width="9" stroke-linecap="butt" stroke-linejoin="round" stroke-miterlimit="10" stroke-opacity="1" fill="#F4E8FF" fill-rule="evenodd" fill-opacity="1"/></g></g></g></g><path d="M2462.5 472.767C2462.5 452.737 2478.74 436.5 2498.77 436.5L3053.23 436.5C3073.26 436.5 3089.5 452.737 3089.5 472.767L3089.5 822.233C3089.5 842.263 3073.26 858.5 3053.23 858.5L2498.77 858.5C2478.74 858.5 2462.5 842.263 2462.5 822.233Z" stroke="#7A35E8" stroke-width="9.16667" stroke-linecap="butt" stroke-linejoin="round" stroke-miterlimit="10" stroke-opacity="1" fill="#F4E8FF" fill-rule="evenodd" fill-opacity="1"/><text fill="#7A35E8" fill-opacity="1" font-family="Aptos,Aptos_MSFontService,sans-serif" font-style="normal" font-variant="normal" font-weight="700" font-stretch="normal" font-size="64" text-anchor="start" direction="ltr" writing-mode="lr-tb" unicode-bidi="normal" text-decoration="none" transform="matrix(1 0 0 1 2525.13 590)">Hardware</text><text fill="#7A35E8" fill-opacity="1" font-family="Aptos,Aptos_MSFontService,sans-serif" font-style="normal" font-variant="normal" font-weight="700" font-stretch="normal" font-size="64" text-anchor="start" direction="ltr" writing-mode="lr-tb" unicode-bidi="normal" text-decoration="none" transform="matrix(1 0 0 1 2810.05 590)">-</text><text fill="#7A35E8" fill-opacity="1" font-family="Aptos,Aptos_MSFontService,sans-serif" font-style="normal" font-variant="normal" font-weight="700" font-stretch="normal" font-size="64" text-anchor="start" direction="ltr" writing-mode="lr-tb" unicode-bidi="normal" text-decoration="none" transform="matrix(1 0 0 1 2831.82 590)">in</text><text fill="#7A35E8" fill-opacity="1" font-family="Aptos,Aptos_MSFontService,sans-serif" font-style="normal" font-variant="normal" font-weight="700" font-stretch="normal" font-size="64" text-anchor="start" direction="ltr" writing-mode="lr-tb" unicode-bidi="normal" text-decoration="none" transform="matrix(1 0 0 1 2886.25 590)">-</text><text fill="#7A35E8" fill-opacity="1" font-family="Aptos,Aptos_MSFontService,sans-serif" font-style="normal" font-variant="normal" font-weight="700" font-stretch="normal" font-size="64" text-anchor="start" direction="ltr" writing-mode="lr-tb" unicode-bidi="normal" text-decoration="none" transform="matrix(1 0 0 1 2908.02 590)">the</text><text fill="#7A35E8" fill-opacity="1" font-family="Aptos,Aptos_MSFontService,sans-serif" font-style="normal" font-variant="normal" font-weight="700" font-stretch="normal" font-size="64" text-anchor="start" direction="ltr" writing-mode="lr-tb" unicode-bidi="normal" text-decoration="none" transform="matrix(1 0 0 1 3003.7 590)">-</text><text fill="#7A35E8" fill-opacity="1" font-family="Aptos,Aptos_MSFontService,sans-serif" font-style="normal" font-variant="normal" font-weight="700" font-stretch="normal" font-size="64" text-anchor="start" direction="ltr" writing-mode="lr-tb" unicode-bidi="normal" text-decoration="none" transform="matrix(1 0 0 1 2710.27 667)">loop</text><text fill="#7A35E8" fill-opacity="1" font-family="Aptos,Aptos_MSFontService,sans-serif" font-style="normal" font-variant="normal" font-weight="700" font-stretch="normal" font-size="64" text-anchor="start" direction="ltr" writing-mode="lr-tb" unicode-bidi="normal" text-decoration="none" transform="matrix(1 0 0 1 2515.05 744)">and bench testing</text><g clip-path="url(#clip12)"><g filter="url(#fx5)" transform="translate(3211 439)"><g><g><path d="M10.4636 46.7301C10.4636 26.7007 26.7007 10.4637 46.7301 10.4637L601.197 10.4637C621.227 10.4637 637.464 26.7007 637.464 46.7301L637.464 396.197C637.464 416.226 621.227 432.463 601.197 432.463L46.7301 432.463C26.7007 432.463 10.4636 416.226 10.4636 396.197Z" stroke="#2E8B57" stroke-width="9" stroke-linecap="butt" stroke-linejoin="round" stroke-miterlimit="10" stroke-opacity="1" fill="#E8F5EE" fill-rule="evenodd" fill-opacity="1"/></g></g></g></g><path d="M3208.5 472.767C3208.5 452.737 3224.74 436.5 3244.77 436.5L3799.23 436.5C3819.26 436.5 3835.5 452.737 3835.5 472.767L3835.5 822.233C3835.5 842.263 3819.26 858.5 3799.23 858.5L3244.77 858.5C3224.74 858.5 3208.5 842.263 3208.5 822.233Z" stroke="#2E8B57" stroke-width="9.16667" stroke-linecap="butt" stroke-linejoin="round" stroke-miterlimit="10" stroke-opacity="1" fill="#E8F5EE" fill-rule="evenodd" fill-opacity="1"/><text fill="#2E8B57" fill-opacity="1" font-family="Aptos,Aptos_MSFontService,sans-serif" font-style="normal" font-variant="normal" font-weight="700" font-stretch="normal" font-size="64" text-anchor="start" direction="ltr" writing-mode="lr-tb" unicode-bidi="normal" text-decoration="none" transform="matrix(1 0 0 1 3342.02 629)">Prototype or</text><text fill="#2E8B57" fill-opacity="1" font-family="Aptos,Aptos_MSFontService,sans-serif" font-style="normal" font-variant="normal" font-weight="700" font-stretch="normal" font-size="64" text-anchor="start" direction="ltr" writing-mode="lr-tb" unicode-bidi="normal" text-decoration="none" transform="matrix(1 0 0 1 3304.23 706)">field validation</text><path d="M868.5 642.917 921.583 642.917 921.583 652.084 868.5 652.083ZM917 633.75 944.5 647.5 917 661.25Z" fill="#5A6778" fill-rule="nonzero" fill-opacity="1"/><path d="M1614.5 642.917 1667.58 642.917 1667.58 652.084 1614.5 652.083ZM1663 633.75 1690.5 647.5 1663 661.25Z" fill="#5A6778" fill-rule="nonzero" fill-opacity="1"/><path d="M2360.5 642.917 2412.58 642.917 2412.58 652.084 2360.5 652.083ZM2408 633.75 2435.5 647.5 2408 661.25Z" fill="#5A6778" fill-rule="nonzero" fill-opacity="1"/><path d="M3105.5 642.917 3158.58 642.917 3158.58 652.084 3105.5 652.083ZM3154 633.75 3181.5 647.5 3154 661.25Z" fill="#5A6778" fill-rule="nonzero" fill-opacity="1"/><path d="M538 1089 3521 1089" stroke="#B7C0CA" stroke-width="5.72917" stroke-linecap="butt" stroke-linejoin="round" stroke-miterlimit="10" stroke-opacity="1" fill="none" fill-rule="evenodd"/><path d="M538.5 884.5 538.501 1089.5" stroke="#B7C0CA" stroke-width="4.58333" stroke-linecap="butt" stroke-linejoin="round" stroke-miterlimit="10" stroke-opacity="1" fill="none" fill-rule="evenodd"/><path d="M1284.5 884.5 1284.5 1089.5" stroke="#B7C0CA" stroke-width="4.58333" stroke-linecap="butt" stroke-linejoin="round" stroke-miterlimit="10" stroke-opacity="1" fill="none" fill-rule="evenodd"/><path d="M2030.5 884.5 2030.5 1089.5" stroke="#B7C0CA" stroke-width="4.58333" stroke-linecap="butt" stroke-linejoin="round" stroke-miterlimit="10" stroke-opacity="1" fill="none" fill-rule="evenodd"/><path d="M2775.5 884.5 2775.5 1089.5" stroke="#B7C0CA" stroke-width="4.58333" stroke-linecap="butt" stroke-linejoin="round" stroke-miterlimit="10" stroke-opacity="1" fill="none" fill-rule="evenodd"/><path d="M3521.5 884.5 3521.5 1089.5" stroke="#B7C0CA" stroke-width="4.58333" stroke-linecap="butt" stroke-linejoin="round" stroke-miterlimit="10" stroke-opacity="1" fill="none" fill-rule="evenodd"/><path d="M2034.12 1109 2034.13 1215.08 2025.88 1215.08 2025.87 1109ZM2043.75 1210.5 2030 1238 2016.25 1210.5Z" fill="#5A6778" fill-rule="nonzero" fill-opacity="1"/><g clip-path="url(#clip13)"><g filter="url(#fx6)" transform="translate(197 1241)"><g><g><path d="M10.4637 50.0091C10.4637 28.1687 28.1687 10.4636 50.0089 10.4636L3716.92 10.4636C3738.76 10.4636 3756.46 28.1687 3756.46 50.0091L3756.46 405.918C3756.46 427.758 3738.76 445.463 3716.92 445.463L50.0089 445.463C28.1687 445.463 10.4637 427.758 10.4637 405.918Z" stroke="#C72B3A" stroke-width="9" stroke-linecap="butt" stroke-linejoin="round" stroke-miterlimit="10" stroke-opacity="1" fill="#FFF1F2" fill-rule="evenodd" fill-opacity="1"/></g></g></g></g><path d="M194.5 1278.05C194.5 1256.21 212.205 1238.5 234.045 1238.5L3900.95 1238.5C3922.79 1238.5 3940.5 1256.21 3940.5 1278.05L3940.5 1633.95C3940.5 1655.79 3922.79 1673.5 3900.95 1673.5L234.045 1673.5C212.205 1673.5 194.5 1655.79 194.5 1633.95Z" stroke="#C72B3A" stroke-width="9.16667" stroke-linecap="butt" stroke-linejoin="round" stroke-miterlimit="10" stroke-opacity="1" fill="#FFF1F2" fill-rule="evenodd" fill-opacity="1"/><text fill="#C72B3A" fill-opacity="1" font-family="Aptos,Aptos_MSFontService,sans-serif" font-style="normal" font-variant="normal" font-weight="700" font-stretch="normal" font-size="70" text-anchor="start" direction="ltr" writing-mode="lr-tb" unicode-bidi="normal" text-decoration="none" transform="matrix(1 0 0 1 399.323 1436)">Implementation constraints belong in the CCD model   :     </text><text fill="#C72B3A" fill-opacity="1" font-family="Aptos,Aptos_MSFontService,sans-serif" font-style="normal" font-variant="normal" font-weight="400" font-stretch="normal" font-size="70" text-anchor="start" direction="ltr" writing-mode="lr-tb" unicode-bidi="normal" text-decoration="none" transform="matrix(1 0 0 1 2219.3 1436)">actuator force, power, bandwidth, sampling, delay</text><text fill="#C72B3A" fill-opacity="1" font-family="Aptos,Aptos_MSFontService,sans-serif" font-style="normal" font-variant="normal" font-weight="400" font-stretch="normal" font-size="70" text-anchor="start" direction="ltr" writing-mode="lr-tb" unicode-bidi="normal" text-decoration="none" transform="matrix(1 0 0 1 3714.79 1436)">, </text><text fill="#C72B3A" fill-opacity="1" font-family="Aptos,Aptos_MSFontService,sans-serif" font-style="normal" font-variant="normal" font-weight="400" font-stretch="normal" font-size="70" text-anchor="start" direction="ltr" writing-mode="lr-tb" unicode-bidi="normal" text-decoration="none" transform="matrix(1 0 0 1 524.975 1520)">sensor noise, estimator dynamics, saturation, thermal limits, fault handling, and </text><text fill="#C72B3A" fill-opacity="1" font-family="Aptos,Aptos_MSFontService,sans-serif" font-style="normal" font-variant="normal" font-weight="400" font-stretch="normal" font-size="70" text-anchor="start" direction="ltr" writing-mode="lr-tb" unicode-bidi="normal" text-decoration="none" transform="matrix(1 0 0 1 2934.64 1520)">passive safe  behavior</text><text fill="#C72B3A" fill-opacity="1" font-family="Aptos,Aptos_MSFontService,sans-serif" font-style="normal" font-variant="normal" font-weight="400" font-stretch="normal" font-size="70" text-anchor="start" direction="ltr" writing-mode="lr-tb" unicode-bidi="normal" text-decoration="none" transform="matrix(1 0 0 1 3589.14 1520)">.</text><text fill="#667085" fill-opacity="1" font-family="Aptos,Aptos_MSFontService,sans-serif" font-style="italic" font-variant="normal" font-weight="400" font-stretch="normal" font-size="53" text-anchor="start" direction="ltr" writing-mode="lr-tb" unicode-bidi="normal" text-decoration="none" transform="matrix(1 0 0 1 1847.48 389)">Implementation path</text></g></g></svg>