<svg width="3932" height="1604" xmlns="http://www.w3.org/2000/svg" xmlns:xlink="http://www.w3.org/1999/xlink" xml:space="preserve" overflow="hidden"><g transform="translate(-174 -110)"><g><path d="M1023.5 142.823C1023.5 128.285 1035.28 116.5 1049.82 116.5L3340.18 116.5C3354.71 116.5 3366.5 128.285 3366.5 142.823L3366.5 294.177C3366.5 308.715 3354.71 320.5 3340.18 320.5L1049.82 320.5C1035.28 320.5 1023.5 308.715 1023.5 294.177Z" stroke="#0F3A63" stroke-width="9.16667" stroke-linecap="butt" stroke-linejoin="round" stroke-miterlimit="10" stroke-opacity="1" fill="#FFFFFF" fill-rule="evenodd" fill-opacity="1"/><text fill="#0F3A63" fill-opacity="1" font-family="Aptos Display,Aptos Display_MSFontService,sans-serif" font-style="normal" font-variant="normal" font-weight="700" font-stretch="normal" font-size="96" text-anchor="start" direction="ltr" writing-mode="lr-tb" unicode-bidi="normal" text-decoration="none" transform="matrix(1 0 0 1 1583.53 249)">Practical CCD study workflow</text><path d="M898.5 663.917 941.583 663.917 941.583 673.084 898.5 673.083ZM937 654.75 964.5 668.5 937 682.25Z" fill="#5B6673" fill-rule="nonzero" fill-opacity="1"/><path d="M1700.5 663.917 1746.58 663.917 1746.58 673.084 1700.5 673.083ZM1742 654.75 1769.5 668.5 1742 682.25Z" fill="#5B6673" fill-rule="nonzero" fill-opacity="1"/><path d="M2505.5 663.917 2551.58 663.917 2551.58 673.084 2505.5 673.083ZM2547 654.75 2574.5 668.5 2547 682.25Z" fill="#5B6673" fill-rule="nonzero" fill-opacity="1"/><path d="M3310.5 663.917 3356.58 663.917 3356.58 673.084 3310.5 673.083ZM3352 654.75 3379.5 668.5 3352 682.25Z" fill="#5B6673" fill-rule="nonzero" fill-opacity="1"/><path d="M3754.08 842.5 3754.08 930.583 3744.92 930.583 3744.92 842.5ZM3763.25 926 3749.5 953.5 3735.75 926Z" fill="#5B6673" fill-rule="nonzero" fill-opacity="1"/><path d="M182.5 538.858C182.5 524.301 194.301 512.5 208.858 512.5L855.142 512.5C869.699 512.5 881.5 524.301 881.5 538.858L881.5 799.142C881.5 813.699 869.699 825.5 855.142 825.5L208.858 825.5C194.301 825.5 182.5 813.699 182.5 799.142Z" stroke="#0F3A63" stroke-width="9.16667" stroke-linecap="butt" stroke-linejoin="round" stroke-miterlimit="10" stroke-opacity="1" fill="#EAF4FC" fill-rule="evenodd" fill-opacity="1"/><text fill="#0F3A63" fill-opacity="1" font-family="Aptos Display,Aptos Display_MSFontService,sans-serif" font-style="normal" font-variant="normal" font-weight="700" font-stretch="normal" font-size="62" text-anchor="start" direction="ltr" writing-mode="lr-tb" unicode-bidi="normal" text-decoration="none" transform="matrix(1 0 0 1 296.118 651)">1. Define mission,</text><text fill="#0F3A63" fill-opacity="1" font-family="Aptos Display,Aptos Display_MSFontService,sans-serif" font-style="normal" font-variant="normal" font-weight="700" font-stretch="normal" font-size="62" text-anchor="start" direction="ltr" writing-mode="lr-tb" unicode-bidi="normal" text-decoration="none" transform="matrix(1 0 0 1 289.586 725)">metrics, baselines</text><path d="M983.5 538.858C983.5 524.301 995.301 512.5 1009.86 512.5L1657.14 512.5C1671.7 512.5 1683.5 524.301 1683.5 538.858L1683.5 799.142C1683.5 813.699 1671.7 825.5 1657.14 825.5L1009.86 825.5C995.301 825.5 983.5 813.699 983.5 799.142Z" stroke="#D97706" stroke-width="9.16667" stroke-linecap="butt" stroke-linejoin="round" stroke-miterlimit="10" stroke-opacity="1" fill="#FFF4D6" fill-rule="evenodd" fill-opacity="1"/><text fill="#D97706" fill-opacity="1" font-family="Aptos Display,Aptos Display_MSFontService,sans-serif" font-style="normal" font-variant="normal" font-weight="700" font-stretch="normal" font-size="62" text-anchor="start" direction="ltr" writing-mode="lr-tb" unicode-bidi="normal" text-decoration="none" transform="matrix(1 0 0 1 1067.77 651)">2. Choose variables,</text><text fill="#D97706" fill-opacity="1" font-family="Aptos Display,Aptos Display_MSFontService,sans-serif" font-style="normal" font-variant="normal" font-weight="700" font-stretch="normal" font-size="62" text-anchor="start" direction="ltr" writing-mode="lr-tb" unicode-bidi="normal" text-decoration="none" transform="matrix(1 0 0 1 1059.75 725)">architecture, models</text><path d="M1789.5 538.858C1789.5 524.301 1801.3 512.5 1815.86 512.5L2462.14 512.5C2476.7 512.5 2488.5 524.301 2488.5 538.858L2488.5 799.142C2488.5 813.699 2476.7 825.5 2462.14 825.5L1815.86 825.5C1801.3 825.5 1789.5 813.699 1789.5 799.142Z" stroke="#26825A" stroke-width="9.16667" stroke-linecap="butt" stroke-linejoin="round" stroke-miterlimit="10" stroke-opacity="1" fill="#EAF7EF" fill-rule="evenodd" fill-opacity="1"/><text fill="#26825A" fill-opacity="1" font-family="Aptos Display,Aptos Display_MSFontService,sans-serif" font-style="normal" font-variant="normal" font-weight="700" font-stretch="normal" font-size="62" text-anchor="start" direction="ltr" writing-mode="lr-tb" unicode-bidi="normal" text-decoration="none" transform="matrix(1 0 0 1 1899.36 651)">3. Select CCD and</text><text fill="#26825A" fill-opacity="1" font-family="Aptos Display,Aptos Display_MSFontService,sans-serif" font-style="normal" font-variant="normal" font-weight="700" font-stretch="normal" font-size="62" text-anchor="start" direction="ltr" writing-mode="lr-tb" unicode-bidi="normal" text-decoration="none" transform="matrix(1 0 0 1 1881.99 725)">numerical methods</text><path d="M2594.5 538.858C2594.5 524.301 2606.3 512.5 2620.86 512.5L3267.14 512.5C3281.7 512.5 3293.5 524.301 3293.5 538.858L3293.5 799.142C3293.5 813.699 3281.7 825.5 3267.14 825.5L2620.86 825.5C2606.3 825.5 2594.5 813.699 2594.5 799.142Z" stroke="#7C3AED" stroke-width="9.16667" stroke-linecap="butt" stroke-linejoin="round" stroke-miterlimit="10" stroke-opacity="1" fill="#F5E8F8" fill-rule="evenodd" fill-opacity="1"/><text fill="#7C3AED" fill-opacity="1" font-family="Aptos Display,Aptos Display_MSFontService,sans-serif" font-style="normal" font-variant="normal" font-weight="700" font-stretch="normal" font-size="62" text-anchor="start" direction="ltr" writing-mode="lr-tb" unicode-bidi="normal" text-decoration="none" transform="matrix(1 0 0 1 2705.39 651)">4. Solve and verify</text><text fill="#7C3AED" fill-opacity="1" font-family="Aptos Display,Aptos Display_MSFontService,sans-serif" font-style="normal" font-variant="normal" font-weight="700" font-stretch="normal" font-size="62" text-anchor="start" direction="ltr" writing-mode="lr-tb" unicode-bidi="normal" text-decoration="none" transform="matrix(1 0 0 1 2775.82 725)">convergence</text><path d="M3399.5 538.858C3399.5 524.301 3411.3 512.5 3425.86 512.5L4073.14 512.5C4087.7 512.5 4099.5 524.301 4099.5 538.858L4099.5 799.142C4099.5 813.699 4087.7 825.5 4073.14 825.5L3425.86 825.5C3411.3 825.5 3399.5 813.699 3399.5 799.142Z" stroke="#5B6673" stroke-width="9.16667" stroke-linecap="butt" stroke-linejoin="round" stroke-miterlimit="10" stroke-opacity="1" fill="#F3F4F6" fill-rule="evenodd" fill-opacity="1"/><text fill="#5B6673" fill-opacity="1" font-family="Aptos Display,Aptos Display_MSFontService,sans-serif" font-style="normal" font-variant="normal" font-weight="700" font-stretch="normal" font-size="62" text-anchor="start" direction="ltr" writing-mode="lr-tb" unicode-bidi="normal" text-decoration="none" transform="matrix(1 0 0 1 3625.58 651)">5. Screen</text><text fill="#5B6673" fill-opacity="1" font-family="Aptos Display,Aptos Display_MSFontService,sans-serif" font-style="normal" font-variant="normal" font-weight="700" font-stretch="normal" font-size="62" text-anchor="start" direction="ltr" writing-mode="lr-tb" unicode-bidi="normal" text-decoration="none" transform="matrix(1 0 0 1 3626.77 725)">solutions</text><path d="M3058.5 1006.94C3058.5 992.339 3070.34 980.5 3084.94 980.5L3907.06 980.5C3921.66 980.5 3933.5 992.339 3933.5 1006.94L3933.5 1268.06C3933.5 1282.66 3921.66 1294.5 3907.06 1294.5L3084.94 1294.5C3070.34 1294.5 3058.5 1282.66 3058.5 1268.06Z" stroke="#134E83" stroke-width="9.16667" stroke-linecap="butt" stroke-linejoin="round" stroke-miterlimit="10" stroke-opacity="1" fill="#EAF4FC" fill-rule="evenodd" fill-opacity="1"/><text fill="#134E83" fill-opacity="1" font-family="Aptos Display,Aptos Display_MSFontService,sans-serif" font-style="normal" font-variant="normal" font-weight="700" font-stretch="normal" font-size="64" text-anchor="start" direction="ltr" writing-mode="lr-tb" unicode-bidi="normal" text-decoration="none" transform="matrix(1 0 0 1 3203.04 1119)">6. Assess uncertainty</text><text fill="#134E83" fill-opacity="1" font-family="Aptos Display,Aptos Display_MSFontService,sans-serif" font-style="normal" font-variant="normal" font-weight="700" font-stretch="normal" font-size="64" text-anchor="start" direction="ltr" writing-mode="lr-tb" unicode-bidi="normal" text-decoration="none" transform="matrix(1 0 0 1 3285.22 1196)">and robustness</text><path d="M1755.5 1006.94C1755.5 992.338 1767.34 980.5 1781.94 980.5L2669.06 980.5C2683.66 980.5 2695.5 992.338 2695.5 1006.94L2695.5 1268.06C2695.5 1282.66 2683.66 1294.5 2669.06 1294.5L1781.94 1294.5C1767.34 1294.5 1755.5 1282.66 1755.5 1268.06Z" stroke="#D97706" stroke-width="9.16667" stroke-linecap="butt" stroke-linejoin="round" stroke-miterlimit="10" stroke-opacity="1" fill="#FFF4D6" fill-rule="evenodd" fill-opacity="1"/><text fill="#D97706" fill-opacity="1" font-family="Aptos Display,Aptos Display_MSFontService,sans-serif" font-style="normal" font-variant="normal" font-weight="700" font-stretch="normal" font-size="69" text-anchor="start" direction="ltr" writing-mode="lr-tb" unicode-bidi="normal" text-decoration="none" transform="matrix(1 0 0 1 1990.4 1117)">7. Cross</text><text fill="#D97706" fill-opacity="1" font-family="Aptos Display,Aptos Display_MSFontService,sans-serif" font-style="normal" font-variant="normal" font-weight="700" font-stretch="normal" font-size="69" text-anchor="start" direction="ltr" writing-mode="lr-tb" unicode-bidi="normal" text-decoration="none" transform="matrix(1 0 0 1 2231.07 1117)">-</text><text fill="#D97706" fill-opacity="1" font-family="Aptos Display,Aptos Display_MSFontService,sans-serif" font-style="normal" font-variant="normal" font-weight="700" font-stretch="normal" font-size="69" text-anchor="start" direction="ltr" writing-mode="lr-tb" unicode-bidi="normal" text-decoration="none" transform="matrix(1 0 0 1 2256.28 1117)">fidelity</text><text fill="#D97706" fill-opacity="1" font-family="Aptos Display,Aptos Display_MSFontService,sans-serif" font-style="normal" font-variant="normal" font-weight="700" font-stretch="normal" font-size="69" text-anchor="start" direction="ltr" writing-mode="lr-tb" unicode-bidi="normal" text-decoration="none" transform="matrix(1 0 0 1 2080.95 1200)">validation</text><path d="M468.5 1006.94C468.5 992.338 480.339 980.5 494.942 980.5L1382.06 980.5C1396.66 980.5 1408.5 992.338 1408.5 1006.94L1408.5 1268.06C1408.5 1282.66 1396.66 1294.5 1382.06 1294.5L494.942 1294.5C480.339 1294.5 468.5 1282.66 468.5 1268.06Z" stroke="#26825A" stroke-width="9.16667" stroke-linecap="butt" stroke-linejoin="round" stroke-miterlimit="10" stroke-opacity="1" fill="#EAF7EF" fill-rule="evenodd" fill-opacity="1"/><text fill="#26825A" fill-opacity="1" font-family="Aptos Display,Aptos Display_MSFontService,sans-serif" font-style="normal" font-variant="normal" font-weight="700" font-stretch="normal" font-size="64" text-anchor="start" direction="ltr" writing-mode="lr-tb" unicode-bidi="normal" text-decoration="none" transform="matrix(1 0 0 1 709.408 1119)">8. Controller and</text><text fill="#26825A" fill-opacity="1" font-family="Aptos Display,Aptos Display_MSFontService,sans-serif" font-style="normal" font-variant="normal" font-weight="700" font-stretch="normal" font-size="64" text-anchor="start" direction="ltr" writing-mode="lr-tb" unicode-bidi="normal" text-decoration="none" transform="matrix(1 0 0 1 659.633 1196)">hardware realization</text><path d="M987.5 1418.86C987.5 1404.3 999.301 1392.5 1013.86 1392.5L3387.14 1392.5C3401.7 1392.5 3413.5 1404.3 3413.5 1418.86L3413.5 1679.14C3413.5 1693.7 3401.7 1705.5 3387.14 1705.5L1013.86 1705.5C999.301 1705.5 987.5 1693.7 987.5 1679.14Z" stroke="#B23A48" stroke-width="9.16667" stroke-linecap="butt" stroke-linejoin="round" stroke-miterlimit="10" stroke-opacity="1" fill="#FFF1F3" fill-rule="evenodd" fill-opacity="1"/><text fill="#B23A48" fill-opacity="1" font-family="Aptos Display,Aptos Display_MSFontService,sans-serif" font-style="normal" font-variant="normal" font-weight="700" font-stretch="normal" font-size="64" text-anchor="start" direction="ltr" writing-mode="lr-tb" unicode-bidi="normal" text-decoration="none" transform="matrix(1 0 0 1 1647.4 1530)">9. Publish a reproducible design package</text><text fill="#B23A48" fill-opacity="1" font-family="Aptos Display,Aptos Display_MSFontService,sans-serif" font-style="normal" font-variant="normal" font-weight="700" font-stretch="normal" font-size="64" text-anchor="start" direction="ltr" writing-mode="lr-tb" unicode-bidi="normal" text-decoration="none" transform="matrix(1 0 0 1 1491.98 1607)">models, code, data, settings, results, and limitations</text><path d="M1.2531e-05-4.58333 109.083-4.58303 109.083 4.58363-1.2531e-05 4.58333ZM104.5-13.7497 132 0.000360892 104.5 13.7503Z" fill="#5B6673" fill-rule="nonzero" fill-opacity="1" transform="matrix(-1 0 0 1 2936.5 1152.5)"/><path d="M1.2531e-05-4.58333 109.083-4.58303 109.083 4.58363-1.2531e-05 4.58333ZM104.5-13.7497 132 0.000360892 104.5 13.7503Z" fill="#5B6673" fill-rule="nonzero" fill-opacity="1" transform="matrix(-1 0 0 1 1620.5 1152.5)"/></g></g></svg>