<svg width="3800" height="1622" xmlns="http://www.w3.org/2000/svg" xmlns:xlink="http://www.w3.org/1999/xlink" xml:space="preserve" overflow="hidden"><defs><filter id="fx0" x="-10%" y="-10%" width="120%" height="120%" filterUnits="userSpaceOnUse" primitiveUnits="userSpaceOnUse"><feComponentTransfer color-interpolation-filters="sRGB"><feFuncR type="discrete" tableValues="0.000000 0.000000"/><feFuncG type="discrete" tableValues="0.000000 0.000000"/><feFuncB type="discrete" tableValues="0.000000 0.000000"/><feFuncA type="linear" slope="0.101961" intercept="0.000000"/></feComponentTransfer><feGaussianBlur stdDeviation="1.527778 1.527778"/></filter><filter id="fx1" x="-10%" y="-10%" width="120%" height="120%" filterUnits="userSpaceOnUse" primitiveUnits="userSpaceOnUse"><feComponentTransfer color-interpolation-filters="sRGB"><feFuncR type="discrete" tableValues="0.000000 0.000000"/><feFuncG type="discrete" tableValues="0.000000 0.000000"/><feFuncB type="discrete" tableValues="0.000000 0.000000"/><feFuncA type="linear" slope="0.101961" intercept="0.000000"/></feComponentTransfer><feGaussianBlur stdDeviation="1.527778 1.527778"/></filter><filter id="fx2" x="-10%" y="-10%" width="120%" height="120%" filterUnits="userSpaceOnUse" primitiveUnits="userSpaceOnUse"><feComponentTransfer color-interpolation-filters="sRGB"><feFuncR type="discrete" tableValues="0.000000 0.000000"/><feFuncG type="discrete" tableValues="0.000000 0.000000"/><feFuncB type="discrete" tableValues="0.000000 0.000000"/><feFuncA type="linear" slope="0.101961" intercept="0.000000"/></feComponentTransfer><feGaussianBlur stdDeviation="1.527778 1.527778"/></filter><filter id="fx3" x="-10%" y="-10%" width="120%" height="120%" filterUnits="userSpaceOnUse" primitiveUnits="userSpaceOnUse"><feComponentTransfer color-interpolation-filters="sRGB"><feFuncR type="discrete" tableValues="0.000000 0.000000"/><feFuncG type="discrete" tableValues="0.000000 0.000000"/><feFuncB type="discrete" tableValues="0.000000 0.000000"/><feFuncA type="linear" slope="0.101961" intercept="0.000000"/></feComponentTransfer><feGaussianBlur stdDeviation="1.527778 1.527778"/></filter><filter id="fx4" x="-10%" y="-10%" width="120%" height="120%" filterUnits="userSpaceOnUse" primitiveUnits="userSpaceOnUse"><feComponentTransfer color-interpolation-filters="sRGB"><feFuncR type="discrete" tableValues="0.000000 0.000000"/><feFuncG type="discrete" tableValues="0.000000 0.000000"/><feFuncB type="discrete" tableValues="0.000000 0.000000"/><feFuncA type="linear" slope="0.101961" intercept="0.000000"/></feComponentTransfer><feGaussianBlur stdDeviation="1.527778 1.527778"/></filter><clipPath id="clip5"><path d="M224.867 614.5C210.305 614.5 198.5 626.305 198.5 640.868L198.5 1089.13C198.5 1103.69 210.305 1115.5 224.867 1115.5L1004.13 1115.5C1018.69 1115.5 1030.5 1103.69 1030.5 1089.13L1030.5 640.868C1030.5 626.305 1018.69 614.5 1004.13 614.5ZM192 325 3992 325 3992 1947 192 1947Z" fill-rule="evenodd" clip-rule="evenodd"/></clipPath><clipPath id="clip6"><path d="M1141.87 614.5C1127.31 614.5 1115.5 626.305 1115.5 640.868L1115.5 1089.13C1115.5 1103.69 1127.31 1115.5 1141.87 1115.5L1914.13 1115.5C1928.69 1115.5 1940.5 1103.69 1940.5 1089.13L1940.5 640.868C1940.5 626.305 1928.69 614.5 1914.13 614.5ZM192 325 3992 325 3992 1947 192 1947Z" fill-rule="evenodd" clip-rule="evenodd"/></clipPath><clipPath id="clip7"><path d="M2052.87 614.5C2038.31 614.5 2026.5 626.305 2026.5 640.868L2026.5 1089.13C2026.5 1103.69 2038.31 1115.5 2052.87 1115.5L2825.13 1115.5C2839.69 1115.5 2851.5 1103.69 2851.5 1089.13L2851.5 640.868C2851.5 626.305 2839.69 614.5 2825.13 614.5ZM192 325 3992 325 3992 1947 192 1947Z" fill-rule="evenodd" clip-rule="evenodd"/></clipPath><clipPath id="clip8"><path d="M2963.87 614.5C2949.3 614.5 2937.5 626.305 2937.5 640.867L2937.5 1089.13C2937.5 1103.69 2949.3 1115.5 2963.87 1115.5L3941.13 1115.5C3955.7 1115.5 3967.5 1103.69 3967.5 1089.13L3967.5 640.867C3967.5 626.305 3955.7 614.5 3941.13 614.5ZM192 325 3992 325 3992 1947 192 1947Z" fill-rule="evenodd" clip-rule="evenodd"/></clipPath><clipPath id="clip9"><path d="M1531.48 1181C1516.85 1181 1505 1192.85 1505 1207.48L1505 1432.52C1505 1447.15 1516.85 1459 1531.48 1459L2507.52 1459C2522.15 1459 2534 1447.15 2534 1432.52L2534 1207.48C2534 1192.85 2522.15 1181 2507.52 1181ZM192 325 3992 325 3992 1947 192 1947Z" fill-rule="evenodd" clip-rule="evenodd"/></clipPath></defs><g transform="translate(-192 -325)"><g><path d="M1044.5 860.917 1074.58 860.917 1074.58 870.084 1044.5 870.083ZM1070 851.75 1097.5 865.5 1070 879.25Z" fill="#5B6675" fill-rule="nonzero" fill-opacity="1"/><path d="M1951.5 860.917 1994.58 860.917 1994.58 870.084 1951.5 870.083ZM1990 851.75 2017.5 865.5 1990 879.25Z" fill="#5B6675" fill-rule="nonzero" fill-opacity="1"/><path d="M2862.5 860.917 2899.58 860.917 2899.58 870.084 2862.5 870.083ZM2895 851.75 2922.5 865.5 2895 879.25Z" fill="#5B6675" fill-rule="nonzero" fill-opacity="1"/><path d="M2020.5 1205.06 2403.58 1205.06 2403.58 1211.94 2020.5 1211.94ZM2399 1194.75 2426.5 1208.5 2399 1222.25Z" fill="#5B6675" fill-rule="nonzero" fill-opacity="1"/><path d="M894.5 359.951C894.5 345.342 906.342 333.5 920.951 333.5L3525.05 333.5C3539.66 333.5 3551.5 345.342 3551.5 359.951L3551.5 512.049C3551.5 526.658 3539.66 538.5 3525.05 538.5L920.951 538.5C906.342 538.5 894.5 526.658 894.5 512.049Z" stroke="#133D63" stroke-width="9.16667" stroke-linecap="butt" stroke-linejoin="round" stroke-miterlimit="10" stroke-opacity="1" fill="#FFFFFF" fill-rule="evenodd" fill-opacity="1"/><text fill="#133D63" fill-opacity="1" font-family="Aptos,Aptos_MSFontService,sans-serif" font-style="normal" font-variant="normal" font-weight="700" font-stretch="normal" font-size="94" text-anchor="start" direction="ltr" writing-mode="lr-tb" unicode-bidi="normal" text-decoration="none" transform="matrix(1 0 0 1 1148.19 466)">Larger application: hybrid offshore wind wave CCD</text><g clip-path="url(#clip5)"><g filter="url(#fx0)" transform="translate(201 617)"><g><g><path d="M10.4635 36.8314C10.4635 22.2689 22.2686 10.4637 36.8311 10.4637L816.096 10.4637C830.659 10.4637 842.464 22.2689 842.464 36.8314L842.464 485.096C842.464 499.658 830.659 511.464 816.096 511.464L36.8311 511.464C22.2686 511.464 10.4635 499.658 10.4635 485.096Z" stroke="#2C6E9F" stroke-width="9" stroke-linecap="butt" stroke-linejoin="round" stroke-miterlimit="10" stroke-opacity="1" fill="#EAF4FC" fill-rule="evenodd" fill-opacity="1"/></g></g></g></g><path d="M198.5 640.868C198.5 626.305 210.305 614.5 224.867 614.5L1004.13 614.5C1018.69 614.5 1030.5 626.305 1030.5 640.868L1030.5 1089.13C1030.5 1103.69 1018.69 1115.5 1004.13 1115.5L224.867 1115.5C210.305 1115.5 198.5 1103.69 198.5 1089.13Z" stroke="#2C6E9F" stroke-width="9.16667" stroke-linecap="butt" stroke-linejoin="round" stroke-miterlimit="10" stroke-opacity="1" fill="#EAF4FC" fill-rule="evenodd" fill-opacity="1"/><text fill="#133D63" fill-opacity="1" font-family="Aptos,Aptos_MSFontService,sans-serif" font-style="normal" font-variant="normal" font-weight="700" font-stretch="normal" font-size="72" text-anchor="start" direction="ltr" writing-mode="lr-tb" unicode-bidi="normal" text-decoration="none" transform="matrix(1 0 0 1 404.399 801)">Environment</text><text fill="#133D63" fill-opacity="1" font-family="Aptos,Aptos_MSFontService,sans-serif" font-style="normal" font-variant="normal" font-weight="700" font-stretch="normal" font-size="72" text-anchor="start" direction="ltr" writing-mode="lr-tb" unicode-bidi="normal" text-decoration="none" transform="matrix(1 0 0 1 402.52 888)">wind, waves,</text><text fill="#133D63" fill-opacity="1" font-family="Aptos,Aptos_MSFontService,sans-serif" font-style="normal" font-variant="normal" font-weight="700" font-stretch="normal" font-size="72" text-anchor="start" direction="ltr" writing-mode="lr-tb" unicode-bidi="normal" text-decoration="none" transform="matrix(1 0 0 1 268.159 975)">current, grid demand</text><g clip-path="url(#clip6)"><g filter="url(#fx1)" transform="translate(1118 617)"><g><g><path d="M10.4636 36.8314C10.4636 22.269 22.2688 10.4637 36.8313 10.4637L809.096 10.4637C823.658 10.4637 835.464 22.269 835.464 36.8314L835.464 485.096C835.464 499.658 823.658 511.464 809.096 511.464L36.8313 511.464C22.2688 511.464 10.4636 499.658 10.4636 485.096Z" stroke="#0E365B" stroke-width="9" stroke-linecap="butt" stroke-linejoin="round" stroke-miterlimit="10" stroke-opacity="1" fill="#F8FAFC" fill-rule="evenodd" fill-opacity="1"/></g></g></g></g><path d="M1115.5 640.868C1115.5 626.305 1127.31 614.5 1141.87 614.5L1914.13 614.5C1928.69 614.5 1940.5 626.305 1940.5 640.868L1940.5 1089.13C1940.5 1103.69 1928.69 1115.5 1914.13 1115.5L1141.87 1115.5C1127.31 1115.5 1115.5 1103.69 1115.5 1089.13Z" stroke="#0E365B" stroke-width="9.16667" stroke-linecap="butt" stroke-linejoin="round" stroke-miterlimit="10" stroke-opacity="1" fill="#F8FAFC" fill-rule="evenodd" fill-opacity="1"/><text fill="#133D63" fill-opacity="1" font-family="Aptos,Aptos_MSFontService,sans-serif" font-style="normal" font-variant="normal" font-weight="700" font-stretch="normal" font-size="70" text-anchor="start" direction="ltr" writing-mode="lr-tb" unicode-bidi="normal" text-decoration="none" transform="matrix(1 0 0 1 1304.45 761)">Physical plant</text><text fill="#133D63" fill-opacity="1" font-family="Aptos,Aptos_MSFontService,sans-serif" font-style="normal" font-variant="normal" font-weight="700" font-stretch="normal" font-size="70" text-anchor="start" direction="ltr" writing-mode="lr-tb" unicode-bidi="normal" text-decoration="none" transform="matrix(1 0 0 1 1285.82 845)">rotor and tower</text><text fill="#133D63" fill-opacity="1" font-family="Aptos,Aptos_MSFontService,sans-serif" font-style="normal" font-variant="normal" font-weight="700" font-stretch="normal" font-size="70" text-anchor="start" direction="ltr" writing-mode="lr-tb" unicode-bidi="normal" text-decoration="none" transform="matrix(1 0 0 1 1221.65 929)">platform and WECs</text><text fill="#133D63" fill-opacity="1" font-family="Aptos,Aptos_MSFontService,sans-serif" font-style="normal" font-variant="normal" font-weight="700" font-stretch="normal" font-size="70" text-anchor="start" direction="ltr" writing-mode="lr-tb" unicode-bidi="normal" text-decoration="none" transform="matrix(1 0 0 1 1396.69 1012)">mooring</text><g clip-path="url(#clip7)"><g filter="url(#fx2)" transform="translate(2029 617)"><g><g><path d="M10.4635 36.8314C10.4635 22.269 22.2687 10.4637 36.8312 10.4637L809.096 10.4637C823.658 10.4637 835.464 22.269 835.464 36.8314L835.464 485.096C835.464 499.658 823.658 511.464 809.096 511.464L36.8312 511.464C22.2687 511.464 10.4635 499.658 10.4635 485.096Z" stroke="#D97000" stroke-width="9" stroke-linecap="butt" stroke-linejoin="round" stroke-miterlimit="10" stroke-opacity="1" fill="#FFF4DF" fill-rule="evenodd" fill-opacity="1"/></g></g></g></g><path d="M2026.5 640.868C2026.5 626.305 2038.31 614.5 2052.87 614.5L2825.13 614.5C2839.69 614.5 2851.5 626.305 2851.5 640.868L2851.5 1089.13C2851.5 1103.69 2839.69 1115.5 2825.13 1115.5L2052.87 1115.5C2038.31 1115.5 2026.5 1103.69 2026.5 1089.13Z" stroke="#D97000" stroke-width="9.16667" stroke-linecap="butt" stroke-linejoin="round" stroke-miterlimit="10" stroke-opacity="1" fill="#FFF4DF" fill-rule="evenodd" fill-opacity="1"/><text fill="#D97000" fill-opacity="1" font-family="Aptos,Aptos_MSFontService,sans-serif" font-style="normal" font-variant="normal" font-weight="700" font-stretch="normal" font-size="70" text-anchor="start" direction="ltr" writing-mode="lr-tb" unicode-bidi="normal" text-decoration="none" transform="matrix(1 0 0 1 2257.82 761)">Controllers</text><text fill="#D97000" fill-opacity="1" font-family="Aptos,Aptos_MSFontService,sans-serif" font-style="normal" font-variant="normal" font-weight="700" font-stretch="normal" font-size="70" text-anchor="start" direction="ltr" writing-mode="lr-tb" unicode-bidi="normal" text-decoration="none" transform="matrix(1 0 0 1 2176.46 845)">pitch and torque</text><text fill="#D97000" fill-opacity="1" font-family="Aptos,Aptos_MSFontService,sans-serif" font-style="normal" font-variant="normal" font-weight="700" font-stretch="normal" font-size="70" text-anchor="start" direction="ltr" writing-mode="lr-tb" unicode-bidi="normal" text-decoration="none" transform="matrix(1 0 0 1 2252.87 929)">PTO control</text><text fill="#D97000" fill-opacity="1" font-family="Aptos,Aptos_MSFontService,sans-serif" font-style="normal" font-variant="normal" font-weight="700" font-stretch="normal" font-size="70" text-anchor="start" direction="ltr" writing-mode="lr-tb" unicode-bidi="normal" text-decoration="none" transform="matrix(1 0 0 1 2129.23 1013)">supervisory control</text><g clip-path="url(#clip8)"><g filter="url(#fx3)" transform="translate(2940 617)"><g><g><path d="M10.4634 36.831C10.4634 22.2688 22.2684 10.4637 36.8307 10.4637L1014.1 10.4637C1028.66 10.4637 1040.46 22.2688 1040.46 36.831L1040.46 485.096C1040.46 499.659 1028.66 511.464 1014.1 511.464L36.8307 511.464C22.2684 511.464 10.4634 499.659 10.4634 485.096Z" stroke="#2F855A" stroke-width="9" stroke-linecap="butt" stroke-linejoin="round" stroke-miterlimit="10" stroke-opacity="1" fill="#EAF7EF" fill-rule="evenodd" fill-opacity="1"/></g></g></g></g><path d="M2937.5 640.867C2937.5 626.305 2949.3 614.5 2963.87 614.5L3941.13 614.5C3955.7 614.5 3967.5 626.305 3967.5 640.867L3967.5 1089.13C3967.5 1103.69 3955.7 1115.5 3941.13 1115.5L2963.87 1115.5C2949.3 1115.5 2937.5 1103.69 2937.5 1089.13Z" stroke="#2F855A" stroke-width="9.16667" stroke-linecap="butt" stroke-linejoin="round" stroke-miterlimit="10" stroke-opacity="1" fill="#EAF7EF" fill-rule="evenodd" fill-opacity="1"/><text fill="#2F855A" fill-opacity="1" font-family="Aptos,Aptos_MSFontService,sans-serif" font-style="normal" font-variant="normal" font-weight="700" font-stretch="normal" font-size="71" text-anchor="start" direction="ltr" writing-mode="lr-tb" unicode-bidi="normal" text-decoration="none" transform="matrix(1 0 0 1 3198.89 760)">System outputs</text><text fill="#2F855A" fill-opacity="1" font-family="Aptos,Aptos_MSFontService,sans-serif" font-style="normal" font-variant="normal" font-weight="700" font-stretch="normal" font-size="71" text-anchor="start" direction="ltr" writing-mode="lr-tb" unicode-bidi="normal" text-decoration="none" transform="matrix(1 0 0 1 3154.27 845)">energy and motion</text><text fill="#2F855A" fill-opacity="1" font-family="Aptos,Aptos_MSFontService,sans-serif" font-style="normal" font-variant="normal" font-weight="700" font-stretch="normal" font-size="71" text-anchor="start" direction="ltr" writing-mode="lr-tb" unicode-bidi="normal" text-decoration="none" transform="matrix(1 0 0 1 3070.35 930)">loads and power quality</text><text fill="#2F855A" fill-opacity="1" font-family="Aptos,Aptos_MSFontService,sans-serif" font-style="normal" font-variant="normal" font-weight="700" font-stretch="normal" font-size="71" text-anchor="start" direction="ltr" writing-mode="lr-tb" unicode-bidi="normal" text-decoration="none" transform="matrix(1 0 0 1 3300.37 1014)">reliability</text><g clip-path="url(#clip9)"><g filter="url(#fx4)" transform="translate(1508 1184)"><g><g><path d="M9.9635 36.4406C9.9635 21.8178 21.8175 9.96375 36.4402 9.96375L1012.49 9.96375C1027.11 9.96375 1038.96 21.8178 1038.96 36.4406L1038.96 261.487C1038.96 276.109 1027.11 287.964 1012.49 287.964L36.4402 287.964C21.8175 287.964 9.9635 276.109 9.9635 261.487Z" stroke="#133D63" stroke-width="8" stroke-linecap="butt" stroke-linejoin="round" stroke-miterlimit="10" stroke-opacity="1" fill="#FFFFFF" fill-rule="evenodd" fill-opacity="1"/></g></g></g></g><path d="M1505 1207.48C1505 1192.85 1516.85 1181 1531.48 1181L2507.52 1181C2522.15 1181 2534 1192.85 2534 1207.48L2534 1432.52C2534 1447.15 2522.15 1459 2507.52 1459L1531.48 1459C1516.85 1459 1505 1447.15 1505 1432.52Z" stroke="#133D63" stroke-width="8.25" stroke-linecap="butt" stroke-linejoin="round" stroke-miterlimit="10" stroke-opacity="1" fill="#FFFFFF" fill-rule="evenodd" fill-opacity="1"/><text fill="#133D63" fill-opacity="1" font-family="Aptos,Aptos_MSFontService,sans-serif" font-style="normal" font-variant="normal" font-weight="700" font-stretch="normal" font-size="62" text-anchor="start" direction="ltr" writing-mode="lr-tb" unicode-bidi="normal" text-decoration="none" transform="matrix(1 0 0 1 1729.61 1266)">CCD design problem</text><text fill="#133D63" fill-opacity="1" font-family="Aptos,Aptos_MSFontService,sans-serif" font-style="normal" font-variant="normal" font-weight="700" font-stretch="normal" font-size="62" text-anchor="start" direction="ltr" writing-mode="lr-tb" unicode-bidi="normal" text-decoration="none" transform="matrix(1 0 0 1 1619.59 1340)">coordinate plant and control </text><text fill="#133D63" fill-opacity="1" font-family="Aptos,Aptos_MSFontService,sans-serif" font-style="normal" font-variant="normal" font-weight="700" font-stretch="normal" font-size="62" text-anchor="start" direction="ltr" writing-mode="lr-tb" unicode-bidi="normal" text-decoration="none" transform="matrix(1 0 0 1 1908.45 1415)">choices</text><path d="M271.5 1553.93C271.5 1539.33 283.334 1527.5 297.932 1527.5L1056.07 1527.5C1070.67 1527.5 1082.5 1539.33 1082.5 1553.93L1082.5 1914.07C1082.5 1928.67 1070.67 1940.5 1056.07 1940.5L297.932 1940.5C283.334 1940.5 271.5 1928.67 271.5 1914.07Z" stroke="#0E365B" stroke-width="9.16667" stroke-linecap="butt" stroke-linejoin="round" stroke-miterlimit="10" stroke-opacity="1" fill="#FFFFFF" fill-rule="evenodd" fill-opacity="1"/><text fill="#133D63" fill-opacity="1" font-family="Aptos,Aptos_MSFontService,sans-serif" font-style="normal" font-variant="normal" font-weight="400" font-stretch="normal" font-size="65" text-anchor="start" direction="ltr" writing-mode="lr-tb" unicode-bidi="normal" text-decoration="none" transform="matrix(1 0 0 1 460.797 1637)">Plant decisions</text><text fill="#133D63" fill-opacity="1" font-family="Aptos,Aptos_MSFontService,sans-serif" font-style="normal" font-variant="normal" font-weight="400" font-stretch="normal" font-size="65" text-anchor="start" direction="ltr" writing-mode="lr-tb" unicode-bidi="normal" text-decoration="none" transform="matrix(1 0 0 1 385.011 1715)">platform dimensions</text><text fill="#133D63" fill-opacity="1" font-family="Aptos,Aptos_MSFontService,sans-serif" font-style="normal" font-variant="normal" font-weight="400" font-stretch="normal" font-size="65" text-anchor="start" direction="ltr" writing-mode="lr-tb" unicode-bidi="normal" text-decoration="none" transform="matrix(1 0 0 1 327.261 1793)">WEC size and placement</text><text fill="#133D63" fill-opacity="1" font-family="Aptos,Aptos_MSFontService,sans-serif" font-style="normal" font-variant="normal" font-weight="400" font-stretch="normal" font-size="65" text-anchor="start" direction="ltr" writing-mode="lr-tb" unicode-bidi="normal" text-decoration="none" transform="matrix(1 0 0 1 534.245 1871)">PTO rating</text><path d="M1139.5 1553.93C1139.5 1539.33 1151.33 1527.5 1165.93 1527.5L1924.07 1527.5C1938.67 1527.5 1950.5 1539.33 1950.5 1553.93L1950.5 1914.07C1950.5 1928.67 1938.67 1940.5 1924.07 1940.5L1165.93 1940.5C1151.33 1940.5 1139.5 1928.67 1139.5 1914.07Z" stroke="#D97000" stroke-width="9.16667" stroke-linecap="butt" stroke-linejoin="round" stroke-miterlimit="10" stroke-opacity="1" fill="#FFFFFF" fill-rule="evenodd" fill-opacity="1"/><text fill="#D97000" fill-opacity="1" font-family="Aptos,Aptos_MSFontService,sans-serif" font-style="normal" font-variant="normal" font-weight="400" font-stretch="normal" font-size="65" text-anchor="start" direction="ltr" writing-mode="lr-tb" unicode-bidi="normal" text-decoration="none" transform="matrix(1 0 0 1 1295.63 1637)">Control decisions</text><text fill="#D97000" fill-opacity="1" font-family="Aptos,Aptos_MSFontService,sans-serif" font-style="normal" font-variant="normal" font-weight="400" font-stretch="normal" font-size="65" text-anchor="start" direction="ltr" writing-mode="lr-tb" unicode-bidi="normal" text-decoration="none" transform="matrix(1 0 0 1 1283.02 1715)">gains and horizons</text><text fill="#D97000" fill-opacity="1" font-family="Aptos,Aptos_MSFontService,sans-serif" font-style="normal" font-variant="normal" font-weight="400" font-stretch="normal" font-size="65" text-anchor="start" direction="ltr" writing-mode="lr-tb" unicode-bidi="normal" text-decoration="none" transform="matrix(1 0 0 1 1400.84 1793)">force laws</text><text fill="#D97000" fill-opacity="1" font-family="Aptos,Aptos_MSFontService,sans-serif" font-style="normal" font-variant="normal" font-weight="400" font-stretch="normal" font-size="65" text-anchor="start" direction="ltr" writing-mode="lr-tb" unicode-bidi="normal" text-decoration="none" transform="matrix(1 0 0 1 1257.86 1871)">energy management</text><path d="M2006.5 1553.93C2006.5 1539.33 2018.33 1527.5 2032.93 1527.5L2792.07 1527.5C2806.67 1527.5 2818.5 1539.33 2818.5 1553.93L2818.5 1914.07C2818.5 1928.67 2806.67 1940.5 2792.07 1940.5L2032.93 1940.5C2018.33 1940.5 2006.5 1928.67 2006.5 1914.07Z" stroke="#B73546" stroke-width="9.16667" stroke-linecap="butt" stroke-linejoin="round" stroke-miterlimit="10" stroke-opacity="1" fill="#FFFFFF" fill-rule="evenodd" fill-opacity="1"/><text fill="#B73546" fill-opacity="1" font-family="Aptos,Aptos_MSFontService,sans-serif" font-style="normal" font-variant="normal" font-weight="400" font-stretch="normal" font-size="66" text-anchor="start" direction="ltr" writing-mode="lr-tb" unicode-bidi="normal" text-decoration="none" transform="matrix(1 0 0 1 2245.46 1675)">Constraints</text><text fill="#B73546" fill-opacity="1" font-family="Aptos,Aptos_MSFontService,sans-serif" font-style="normal" font-variant="normal" font-weight="400" font-stretch="normal" font-size="66" text-anchor="start" direction="ltr" writing-mode="lr-tb" unicode-bidi="normal" text-decoration="none" transform="matrix(1 0 0 1 2093.68 1755)">loads, stroke, stability,</text><text fill="#B73546" fill-opacity="1" font-family="Aptos,Aptos_MSFontService,sans-serif" font-style="normal" font-variant="normal" font-weight="400" font-stretch="normal" font-size="66" text-anchor="start" direction="ltr" writing-mode="lr-tb" unicode-bidi="normal" text-decoration="none" transform="matrix(1 0 0 1 2212 1835)">power, fatigue</text><path d="M2871.5 1553.93C2871.5 1539.33 2883.33 1527.5 2897.93 1527.5L3657.07 1527.5C3671.67 1527.5 3683.5 1539.33 3683.5 1553.93L3683.5 1914.07C3683.5 1928.67 3671.67 1940.5 3657.07 1940.5L2897.93 1940.5C2883.33 1940.5 2871.5 1928.67 2871.5 1914.07Z" stroke="#7C3AED" stroke-width="9.16667" stroke-linecap="butt" stroke-linejoin="round" stroke-miterlimit="10" stroke-opacity="1" fill="#FFFFFF" fill-rule="evenodd" fill-opacity="1"/><text fill="#7C3AED" fill-opacity="1" font-family="Aptos,Aptos_MSFontService,sans-serif" font-style="normal" font-variant="normal" font-weight="400" font-stretch="normal" font-size="68" text-anchor="start" direction="ltr" writing-mode="lr-tb" unicode-bidi="normal" text-decoration="none" transform="matrix(1 0 0 1 3121.12 1674)">Objectives</text><text fill="#7C3AED" fill-opacity="1" font-family="Aptos,Aptos_MSFontService,sans-serif" font-style="normal" font-variant="normal" font-weight="400" font-stretch="normal" font-size="68" text-anchor="start" direction="ltr" writing-mode="lr-tb" unicode-bidi="normal" text-decoration="none" transform="matrix(1 0 0 1 3035.87 1755)">AEP, cost, loads,</text><text fill="#7C3AED" fill-opacity="1" font-family="Aptos,Aptos_MSFontService,sans-serif" font-style="normal" font-variant="normal" font-weight="400" font-stretch="normal" font-size="68" text-anchor="start" direction="ltr" writing-mode="lr-tb" unicode-bidi="normal" text-decoration="none" transform="matrix(1 0 0 1 3112.55 1836)">robustness</text></g></g></svg>