<?xml version="1.0" encoding="utf-8" standalone="no"?>
<!DOCTYPE svg PUBLIC "-//W3C//DTD SVG 1.1//EN"
  "http://www.w3.org/Graphics/SVG/1.1/DTD/svg11.dtd">
<svg xmlns:xlink="http://www.w3.org/1999/xlink" width="544.5pt" height="363.672pt" viewBox="0 0 544.5 363.672" xmlns="http://www.w3.org/2000/svg" version="1.1">
 <metadata>
  <rdf:RDF xmlns:dc="http://purl.org/dc/elements/1.1/" xmlns:cc="http://creativecommons.org/ns#" xmlns:rdf="http://www.w3.org/1999/02/22-rdf-syntax-ns#">
   <cc:Work>
    <dc:type rdf:resource="http://purl.org/dc/dcmitype/StillImage"/>
    <dc:date>2026-07-17T17:25:13.993589</dc:date>
    <dc:format>image/svg+xml</dc:format>
    <dc:creator>
     <cc:Agent>
      <dc:title>Matplotlib v3.10.8, https://matplotlib.org/</dc:title>
     </cc:Agent>
    </dc:creator>
   </cc:Work>
  </rdf:RDF>
 </metadata>
 <defs>
  <style type="text/css">*{stroke-linejoin: round; stroke-linecap: butt}</style>
 </defs>
 <g id="figure_1">
  <g id="patch_1">
   <path d="M 0 363.672 
L 544.5 363.672 
L 544.5 0 
L 0 0 
z
" style="fill: #ffffff"/>
  </g>
  <g id="axes_1">
   <g id="line2d_1">
    <path d="M 60.21 321.5448 
L 484.29 321.5448 
" clip-path="url(#p9bdaf6c1a1)" style="fill: none; stroke: #1f2933; stroke-width: 2; stroke-linecap: square"/>
   </g>
   <g id="line2d_2">
    <path d="M 60.21 321.5448 
L 68.725663 318.76054 
L 73.83506 317.333225 
L 77.241325 316.552136 
L 80.64759 315.938722 
L 84.053855 315.513584 
L 87.46012 315.291001 
L 90.866386 315.278447 
L 94.272651 315.476344 
L 97.678916 315.878046 
L 101.085181 316.470063 
L 104.491446 317.23251 
L 109.600843 318.63837 
L 116.413373 320.832446 
L 126.632169 324.205569 
L 131.741566 325.653661 
L 135.147831 326.45302 
L 138.554096 327.08754 
L 141.960361 327.535912 
L 145.366627 327.783075 
L 148.772892 327.820731 
L 152.179157 327.647614 
L 155.585422 327.269538 
L 158.991687 326.6992 
L 162.397952 325.955756 
L 167.507349 324.572019 
L 174.31988 322.3931 
L 184.538675 319.008786 
L 189.648072 317.540605 
L 193.054337 316.723355 
L 196.460602 316.06803 
L 199.866867 315.596638 
L 203.273133 315.325011 
L 206.679398 315.262272 
L 210.085663 315.410526 
L 213.491928 315.764797 
L 216.898193 316.313184 
L 220.304458 317.037272 
L 225.413855 318.39823 
L 232.226386 320.560957 
L 244.148313 324.476775 
L 249.257711 325.878033 
L 252.663976 326.63651 
L 256.070241 327.223985 
L 259.476506 327.620729 
L 262.882771 327.813417 
L 266.289036 327.795578 
L 269.695301 327.56781 
L 273.101566 327.137764 
L 276.507831 326.519882 
L 281.617229 325.287818 
L 286.726627 323.773905 
L 296.945422 320.369162 
L 303.757952 318.23121 
L 308.867349 316.903732 
L 312.273614 316.20774 
L 315.67988 315.690989 
L 319.086145 315.370835 
L 322.49241 315.258029 
L 325.898675 315.35636 
L 329.30494 315.662525 
L 332.711205 316.166243 
L 336.11747 316.850596 
L 341.226867 318.164066 
L 346.336265 319.732106 
L 363.36759 325.223791 
L 368.476988 326.470993 
L 371.883253 327.101094 
L 375.289518 327.544592 
L 378.695783 327.78659 
L 382.102048 327.818962 
L 385.508313 327.640621 
L 388.914578 327.257556 
L 392.320843 326.682631 
L 395.727108 325.935157 
L 400.836506 324.546707 
L 407.649036 322.364511 
L 417.867831 318.98242 
L 422.977229 317.518411 
L 426.383494 316.704895 
L 429.789759 316.053924 
L 433.196024 315.58736 
L 436.602289 315.320873 
L 440.008554 315.263413 
L 443.414819 315.416908 
L 446.821084 315.776204 
L 450.227349 316.329235 
L 453.633614 317.057427 
L 458.743012 318.423234 
L 465.555542 320.589455 
L 477.47747 324.50226 
L 482.586867 325.898886 
L 484.29 326.296119 
L 484.29 326.296119 
" clip-path="url(#p9bdaf6c1a1)" style="fill: none; stroke: #5b6573; stroke-width: 1.4; stroke-linecap: square"/>
   </g>
   <g id="patch_2">
    <path d="M 180.0126 116.172864 
L 364.4874 116.172864 
Q 368.7282 116.172864 368.7282 113.378688 
L 368.7282 75.657312 
Q 368.7282 72.863136 364.4874 72.863136 
L 180.0126 72.863136 
Q 175.7718 72.863136 175.7718 75.657312 
L 175.7718 113.378688 
Q 175.7718 116.172864 180.0126 116.172864 
z
" clip-path="url(#p9bdaf6c1a1)" style="fill: #eaf2f8; stroke: #123b63; stroke-width: 1.8; stroke-linejoin: miter"/>
   </g>
   <g id="patch_3">
    <path d="M 198.5661 280.330704 
L 345.9339 280.330704 
Q 350.1747 280.330704 350.1747 277.536528 
L 350.1747 241.561512 
Q 350.1747 238.767336 345.9339 238.767336 
L 198.5661 238.767336 
Q 194.3253 238.767336 194.3253 241.561512 
L 194.3253 277.536528 
Q 194.3253 280.330704 198.5661 280.330704 
z
" clip-path="url(#p9bdaf6c1a1)" style="fill: #f4f4f5; stroke: #5b6573; stroke-width: 1.8; stroke-linejoin: miter"/>
   </g>
   <g id="line2d_3">
    <path d="M 272.25 314.55936 
L 272.25 281.37852 
" clip-path="url(#p9bdaf6c1a1)" style="fill: none; stroke: #2d6a9f; stroke-width: 2; stroke-linecap: square"/>
   </g>
   <g id="line2d_4">
    <path d="M 203.337 239.46588 
L 203.337 117.22068 
" clip-path="url(#p9bdaf6c1a1)" style="fill: none; stroke: #123b63; stroke-width: 2.2; stroke-linecap: square"/>
   </g>
   <g id="line2d_5">
    <path d="M 272.25 239.46588 
L 272.25 117.22068 
" clip-path="url(#p9bdaf6c1a1)" style="fill: none; stroke: #d97706; stroke-width: 2.2; stroke-linecap: square"/>
   </g>
   <g id="line2d_6">
    <path d="M 341.163 239.46588 
L 341.163 117.22068 
" clip-path="url(#p9bdaf6c1a1)" style="fill: none; stroke: #2f855a; stroke-width: 2.2; stroke-linecap: square"/>
   </g>
   <g id="patch_4">
    <path d="M 39.5361 137.129184 
L 144.4959 137.129184 
Q 148.7367 137.129184 148.7367 134.335008 
L 148.7367 87.881832 
Q 148.7367 85.087656 144.4959 85.087656 
L 39.5361 85.087656 
Q 35.2953 85.087656 35.2953 87.881832 
L 35.2953 134.335008 
Q 35.2953 137.129184 39.5361 137.129184 
z
" clip-path="url(#p9bdaf6c1a1)" style="fill: #ffffff; stroke: #2d6a9f; stroke-width: 1.8; stroke-linejoin: miter"/>
   </g>
   <g id="patch_5">
    <path d="M 39.5361 224.447184 
L 144.4959 224.447184 
Q 148.7367 224.447184 148.7367 221.653008 
L 148.7367 175.199832 
Q 148.7367 172.405656 144.4959 172.405656 
L 39.5361 172.405656 
Q 35.2953 172.405656 35.2953 175.199832 
L 35.2953 221.653008 
Q 35.2953 224.447184 39.5361 224.447184 
z
" clip-path="url(#p9bdaf6c1a1)" style="fill: #ffffff; stroke: #2f855a; stroke-width: 1.8; stroke-linejoin: miter"/>
   </g>
   <g id="text_1">
    <!-- road $z_r(t)$ -->
    <g style="fill: #5b6573" transform="translate(419.6365 337.26204) scale(0.1 -0.1)">
     <defs>
      <path id="DejaVuSans-72" d="M 2631 2963 
Q 2534 3019 2420 3045 
Q 2306 3072 2169 3072 
Q 1681 3072 1420 2755 
Q 1159 2438 1159 1844 
L 1159 0 
L 581 0 
L 581 3500 
L 1159 3500 
L 1159 2956 
Q 1341 3275 1631 3429 
Q 1922 3584 2338 3584 
Q 2397 3584 2469 3576 
Q 2541 3569 2628 3553 
L 2631 2963 
z
" transform="scale(0.015625)"/>
      <path id="DejaVuSans-6f" d="M 1959 3097 
Q 1497 3097 1228 2736 
Q 959 2375 959 1747 
Q 959 1119 1226 758 
Q 1494 397 1959 397 
Q 2419 397 2687 759 
Q 2956 1122 2956 1747 
Q 2956 2369 2687 2733 
Q 2419 3097 1959 3097 
z
M 1959 3584 
Q 2709 3584 3137 3096 
Q 3566 2609 3566 1747 
Q 3566 888 3137 398 
Q 2709 -91 1959 -91 
Q 1206 -91 779 398 
Q 353 888 353 1747 
Q 353 2609 779 3096 
Q 1206 3584 1959 3584 
z
" transform="scale(0.015625)"/>
      <path id="DejaVuSans-61" d="M 2194 1759 
Q 1497 1759 1228 1600 
Q 959 1441 959 1056 
Q 959 750 1161 570 
Q 1363 391 1709 391 
Q 2188 391 2477 730 
Q 2766 1069 2766 1631 
L 2766 1759 
L 2194 1759 
z
M 3341 1997 
L 3341 0 
L 2766 0 
L 2766 531 
Q 2569 213 2275 61 
Q 1981 -91 1556 -91 
Q 1019 -91 701 211 
Q 384 513 384 1019 
Q 384 1609 779 1909 
Q 1175 2209 1959 2209 
L 2766 2209 
L 2766 2266 
Q 2766 2663 2505 2880 
Q 2244 3097 1772 3097 
Q 1472 3097 1187 3025 
Q 903 2953 641 2809 
L 641 3341 
Q 956 3463 1253 3523 
Q 1550 3584 1831 3584 
Q 2591 3584 2966 3190 
Q 3341 2797 3341 1997 
z
" transform="scale(0.015625)"/>
      <path id="DejaVuSans-64" d="M 2906 2969 
L 2906 4863 
L 3481 4863 
L 3481 0 
L 2906 0 
L 2906 525 
Q 2725 213 2448 61 
Q 2172 -91 1784 -91 
Q 1150 -91 751 415 
Q 353 922 353 1747 
Q 353 2572 751 3078 
Q 1150 3584 1784 3584 
Q 2172 3584 2448 3432 
Q 2725 3281 2906 2969 
z
M 947 1747 
Q 947 1113 1208 752 
Q 1469 391 1925 391 
Q 2381 391 2643 752 
Q 2906 1113 2906 1747 
Q 2906 2381 2643 2742 
Q 2381 3103 1925 3103 
Q 1469 3103 1208 2742 
Q 947 2381 947 1747 
z
" transform="scale(0.015625)"/>
      <path id="DejaVuSans-20" transform="scale(0.015625)"/>
      <path id="DejaVuSans-Oblique-7a" d="M 744 3500 
L 3475 3500 
L 3372 2975 
L 738 459 
L 2913 459 
L 2822 0 
L -19 0 
L 84 525 
L 2719 3041 
L 653 3041 
L 744 3500 
z
" transform="scale(0.015625)"/>
      <path id="DejaVuSans-Oblique-72" d="M 2853 2969 
Q 2766 3016 2653 3041 
Q 2541 3066 2413 3066 
Q 1953 3066 1609 2717 
Q 1266 2369 1153 1784 
L 800 0 
L 225 0 
L 909 3500 
L 1484 3500 
L 1375 2956 
Q 1603 3259 1920 3421 
Q 2238 3584 2597 3584 
Q 2691 3584 2781 3573 
Q 2872 3563 2963 3538 
L 2853 2969 
z
" transform="scale(0.015625)"/>
      <path id="DejaVuSans-28" d="M 1984 4856 
Q 1566 4138 1362 3434 
Q 1159 2731 1159 2009 
Q 1159 1288 1364 580 
Q 1569 -128 1984 -844 
L 1484 -844 
Q 1016 -109 783 600 
Q 550 1309 550 2009 
Q 550 2706 781 3412 
Q 1013 4119 1484 4856 
L 1984 4856 
z
" transform="scale(0.015625)"/>
      <path id="DejaVuSans-Oblique-74" d="M 2706 3500 
L 2619 3053 
L 1472 3053 
L 1100 1153 
Q 1081 1047 1072 975 
Q 1063 903 1063 863 
Q 1063 663 1183 572 
Q 1303 481 1569 481 
L 2150 481 
L 2053 0 
L 1503 0 
Q 991 0 739 200 
Q 488 400 488 806 
Q 488 878 497 964 
Q 506 1050 525 1153 
L 897 3053 
L 409 3053 
L 500 3500 
L 978 3500 
L 1172 4494 
L 1747 4494 
L 1556 3500 
L 2706 3500 
z
" transform="scale(0.015625)"/>
      <path id="DejaVuSans-29" d="M 513 4856 
L 1013 4856 
Q 1481 4119 1714 3412 
Q 1947 2706 1947 2009 
Q 1947 1309 1714 600 
Q 1481 -109 1013 -844 
L 513 -844 
Q 928 -128 1133 580 
Q 1338 1288 1338 2009 
Q 1338 2731 1133 3434 
Q 928 4138 513 4856 
z
" transform="scale(0.015625)"/>
     </defs>
     <use xlink:href="#DejaVuSans-72" transform="translate(0 0.015625)"/>
     <use xlink:href="#DejaVuSans-6f" transform="translate(41.113281 0.015625)"/>
     <use xlink:href="#DejaVuSans-61" transform="translate(102.294922 0.015625)"/>
     <use xlink:href="#DejaVuSans-64" transform="translate(163.574219 0.015625)"/>
     <use xlink:href="#DejaVuSans-20" transform="translate(227.050781 0.015625)"/>
     <use xlink:href="#DejaVuSans-Oblique-7a" transform="translate(258.837891 0.015625)"/>
     <use xlink:href="#DejaVuSans-Oblique-72" transform="translate(311.328125 -16.390625) scale(0.7)"/>
     <use xlink:href="#DejaVuSans-28" transform="translate(342.841797 0.015625)"/>
     <use xlink:href="#DejaVuSans-Oblique-74" transform="translate(381.855469 0.015625)"/>
     <use xlink:href="#DejaVuSans-29" transform="translate(421.064453 0.015625)"/>
    </g>
   </g>
   <g id="text_2">
    <!-- Sprung mass $m_s$ -->
    <g style="fill: #123b63" transform="translate(218.01 90.932437) scale(0.12 -0.12)">
     <defs>
      <path id="DejaVuSans-Bold-53" d="M 3834 4519 
L 3834 3531 
Q 3450 3703 3084 3790 
Q 2719 3878 2394 3878 
Q 1963 3878 1756 3759 
Q 1550 3641 1550 3391 
Q 1550 3203 1689 3098 
Q 1828 2994 2194 2919 
L 2706 2816 
Q 3484 2659 3812 2340 
Q 4141 2022 4141 1434 
Q 4141 663 3683 286 
Q 3225 -91 2284 -91 
Q 1841 -91 1394 -6 
Q 947 78 500 244 
L 500 1259 
Q 947 1022 1364 901 
Q 1781 781 2169 781 
Q 2563 781 2772 912 
Q 2981 1044 2981 1288 
Q 2981 1506 2839 1625 
Q 2697 1744 2272 1838 
L 1806 1941 
Q 1106 2091 782 2419 
Q 459 2747 459 3303 
Q 459 4000 909 4375 
Q 1359 4750 2203 4750 
Q 2588 4750 2994 4692 
Q 3400 4634 3834 4519 
z
" transform="scale(0.015625)"/>
      <path id="DejaVuSans-Bold-70" d="M 1656 506 
L 1656 -1331 
L 538 -1331 
L 538 3500 
L 1656 3500 
L 1656 2988 
Q 1888 3294 2169 3439 
Q 2450 3584 2816 3584 
Q 3463 3584 3878 3070 
Q 4294 2556 4294 1747 
Q 4294 938 3878 423 
Q 3463 -91 2816 -91 
Q 2450 -91 2169 54 
Q 1888 200 1656 506 
z
M 2400 2772 
Q 2041 2772 1848 2508 
Q 1656 2244 1656 1747 
Q 1656 1250 1848 986 
Q 2041 722 2400 722 
Q 2759 722 2948 984 
Q 3138 1247 3138 1747 
Q 3138 2247 2948 2509 
Q 2759 2772 2400 2772 
z
" transform="scale(0.015625)"/>
      <path id="DejaVuSans-Bold-72" d="M 3138 2547 
Q 2991 2616 2845 2648 
Q 2700 2681 2553 2681 
Q 2122 2681 1889 2404 
Q 1656 2128 1656 1613 
L 1656 0 
L 538 0 
L 538 3500 
L 1656 3500 
L 1656 2925 
Q 1872 3269 2151 3426 
Q 2431 3584 2822 3584 
Q 2878 3584 2943 3579 
Q 3009 3575 3134 3559 
L 3138 2547 
z
" transform="scale(0.015625)"/>
      <path id="DejaVuSans-Bold-75" d="M 500 1363 
L 500 3500 
L 1625 3500 
L 1625 3150 
Q 1625 2866 1622 2436 
Q 1619 2006 1619 1863 
Q 1619 1441 1641 1255 
Q 1663 1069 1716 984 
Q 1784 875 1895 815 
Q 2006 756 2150 756 
Q 2500 756 2700 1025 
Q 2900 1294 2900 1772 
L 2900 3500 
L 4019 3500 
L 4019 0 
L 2900 0 
L 2900 506 
Q 2647 200 2364 54 
Q 2081 -91 1741 -91 
Q 1134 -91 817 281 
Q 500 653 500 1363 
z
" transform="scale(0.015625)"/>
      <path id="DejaVuSans-Bold-6e" d="M 4056 2131 
L 4056 0 
L 2931 0 
L 2931 347 
L 2931 1631 
Q 2931 2084 2911 2256 
Q 2891 2428 2841 2509 
Q 2775 2619 2662 2680 
Q 2550 2741 2406 2741 
Q 2056 2741 1856 2470 
Q 1656 2200 1656 1722 
L 1656 0 
L 538 0 
L 538 3500 
L 1656 3500 
L 1656 2988 
Q 1909 3294 2193 3439 
Q 2478 3584 2822 3584 
Q 3428 3584 3742 3212 
Q 4056 2841 4056 2131 
z
" transform="scale(0.015625)"/>
      <path id="DejaVuSans-Bold-67" d="M 2919 594 
Q 2688 288 2409 144 
Q 2131 0 1766 0 
Q 1125 0 706 504 
Q 288 1009 288 1791 
Q 288 2575 706 3076 
Q 1125 3578 1766 3578 
Q 2131 3578 2409 3434 
Q 2688 3291 2919 2981 
L 2919 3500 
L 4044 3500 
L 4044 353 
Q 4044 -491 3511 -936 
Q 2978 -1381 1966 -1381 
Q 1638 -1381 1331 -1331 
Q 1025 -1281 716 -1178 
L 716 -306 
Q 1009 -475 1290 -558 
Q 1572 -641 1856 -641 
Q 2406 -641 2662 -400 
Q 2919 -159 2919 353 
L 2919 594 
z
M 2181 2772 
Q 1834 2772 1640 2515 
Q 1447 2259 1447 1791 
Q 1447 1309 1634 1061 
Q 1822 813 2181 813 
Q 2531 813 2725 1069 
Q 2919 1325 2919 1791 
Q 2919 2259 2725 2515 
Q 2531 2772 2181 2772 
z
" transform="scale(0.015625)"/>
      <path id="DejaVuSans-Bold-20" transform="scale(0.015625)"/>
      <path id="DejaVuSans-Bold-6d" d="M 3781 2919 
Q 3994 3244 4286 3414 
Q 4578 3584 4928 3584 
Q 5531 3584 5847 3212 
Q 6163 2841 6163 2131 
L 6163 0 
L 5038 0 
L 5038 1825 
Q 5041 1866 5042 1909 
Q 5044 1953 5044 2034 
Q 5044 2406 4934 2573 
Q 4825 2741 4581 2741 
Q 4263 2741 4089 2478 
Q 3916 2216 3909 1719 
L 3909 0 
L 2784 0 
L 2784 1825 
Q 2784 2406 2684 2573 
Q 2584 2741 2328 2741 
Q 2006 2741 1831 2477 
Q 1656 2213 1656 1722 
L 1656 0 
L 531 0 
L 531 3500 
L 1656 3500 
L 1656 2988 
Q 1863 3284 2130 3434 
Q 2397 3584 2719 3584 
Q 3081 3584 3359 3409 
Q 3638 3234 3781 2919 
z
" transform="scale(0.015625)"/>
      <path id="DejaVuSans-Bold-61" d="M 2106 1575 
Q 1756 1575 1579 1456 
Q 1403 1338 1403 1106 
Q 1403 894 1545 773 
Q 1688 653 1941 653 
Q 2256 653 2472 879 
Q 2688 1106 2688 1447 
L 2688 1575 
L 2106 1575 
z
M 3816 1997 
L 3816 0 
L 2688 0 
L 2688 519 
Q 2463 200 2181 54 
Q 1900 -91 1497 -91 
Q 953 -91 614 226 
Q 275 544 275 1050 
Q 275 1666 698 1953 
Q 1122 2241 2028 2241 
L 2688 2241 
L 2688 2328 
Q 2688 2594 2478 2717 
Q 2269 2841 1825 2841 
Q 1466 2841 1156 2769 
Q 847 2697 581 2553 
L 581 3406 
Q 941 3494 1303 3539 
Q 1666 3584 2028 3584 
Q 2975 3584 3395 3211 
Q 3816 2838 3816 1997 
z
" transform="scale(0.015625)"/>
      <path id="DejaVuSans-Bold-73" d="M 3272 3391 
L 3272 2541 
Q 2913 2691 2578 2766 
Q 2244 2841 1947 2841 
Q 1628 2841 1473 2761 
Q 1319 2681 1319 2516 
Q 1319 2381 1436 2309 
Q 1553 2238 1856 2203 
L 2053 2175 
Q 2913 2066 3209 1816 
Q 3506 1566 3506 1031 
Q 3506 472 3093 190 
Q 2681 -91 1863 -91 
Q 1516 -91 1145 -36 
Q 775 19 384 128 
L 384 978 
Q 719 816 1070 734 
Q 1422 653 1784 653 
Q 2113 653 2278 743 
Q 2444 834 2444 1013 
Q 2444 1163 2330 1236 
Q 2216 1309 1875 1350 
L 1678 1375 
Q 931 1469 631 1722 
Q 331 1975 331 2491 
Q 331 3047 712 3315 
Q 1094 3584 1881 3584 
Q 2191 3584 2531 3537 
Q 2872 3491 3272 3391 
z
" transform="scale(0.015625)"/>
      <path id="DejaVuSans-Oblique-6d" d="M 5747 2113 
L 5338 0 
L 4763 0 
L 5166 2094 
Q 5191 2228 5203 2325 
Q 5216 2422 5216 2491 
Q 5216 2772 5059 2928 
Q 4903 3084 4622 3084 
Q 4203 3084 3875 2770 
Q 3547 2456 3450 1953 
L 3066 0 
L 2491 0 
L 2900 2094 
Q 2925 2209 2937 2307 
Q 2950 2406 2950 2484 
Q 2950 2769 2794 2926 
Q 2638 3084 2363 3084 
Q 1938 3084 1609 2770 
Q 1281 2456 1184 1953 
L 800 0 
L 225 0 
L 909 3500 
L 1484 3500 
L 1375 2956 
Q 1609 3263 1923 3423 
Q 2238 3584 2597 3584 
Q 2978 3584 3223 3384 
Q 3469 3184 3519 2828 
Q 3781 3197 4126 3390 
Q 4472 3584 4856 3584 
Q 5306 3584 5551 3325 
Q 5797 3066 5797 2591 
Q 5797 2488 5784 2364 
Q 5772 2241 5747 2113 
z
" transform="scale(0.015625)"/>
      <path id="DejaVuSans-Oblique-73" d="M 3200 3397 
L 3091 2853 
Q 2863 2978 2609 3040 
Q 2356 3103 2088 3103 
Q 1634 3103 1373 2948 
Q 1113 2794 1113 2528 
Q 1113 2219 1719 2053 
Q 1766 2041 1788 2034 
L 1972 1978 
Q 2547 1819 2739 1644 
Q 2931 1469 2931 1166 
Q 2931 609 2489 259 
Q 2047 -91 1331 -91 
Q 1053 -91 747 -37 
Q 441 16 72 128 
L 184 722 
Q 500 559 806 475 
Q 1113 391 1394 391 
Q 1816 391 2080 572 
Q 2344 753 2344 1031 
Q 2344 1331 1650 1516 
L 1591 1531 
L 1394 1581 
Q 956 1697 753 1886 
Q 550 2075 550 2369 
Q 550 2928 970 3256 
Q 1391 3584 2113 3584 
Q 2397 3584 2667 3537 
Q 2938 3491 3200 3397 
z
" transform="scale(0.015625)"/>
     </defs>
     <use xlink:href="#DejaVuSans-Bold-53" transform="translate(0 0.78125)"/>
     <use xlink:href="#DejaVuSans-Bold-70" transform="translate(72.021484 0.78125)"/>
     <use xlink:href="#DejaVuSans-Bold-72" transform="translate(143.603516 0.78125)"/>
     <use xlink:href="#DejaVuSans-Bold-75" transform="translate(192.919922 0.78125)"/>
     <use xlink:href="#DejaVuSans-Bold-6e" transform="translate(264.111328 0.78125)"/>
     <use xlink:href="#DejaVuSans-Bold-67" transform="translate(335.302734 0.78125)"/>
     <use xlink:href="#DejaVuSans-Bold-20" transform="translate(406.884766 0.78125)"/>
     <use xlink:href="#DejaVuSans-Bold-6d" transform="translate(441.699219 0.78125)"/>
     <use xlink:href="#DejaVuSans-Bold-61" transform="translate(545.898438 0.78125)"/>
     <use xlink:href="#DejaVuSans-Bold-73" transform="translate(613.378906 0.78125)"/>
     <use xlink:href="#DejaVuSans-Bold-73" transform="translate(672.900391 0.78125)"/>
     <use xlink:href="#DejaVuSans-Bold-20" transform="translate(732.421875 0.78125)"/>
     <use xlink:href="#DejaVuSans-Oblique-6d" transform="translate(767.236328 0.78125)"/>
     <use xlink:href="#DejaVuSans-Oblique-73" transform="translate(864.648438 -15.625) scale(0.7)"/>
    </g>
    <!-- vehicle body -->
    <g style="fill: #123b63" transform="translate(229.545938 104.514187) scale(0.12 -0.12)">
     <defs>
      <path id="DejaVuSans-Bold-76" d="M 97 3500 
L 1216 3500 
L 2088 1081 
L 2956 3500 
L 4078 3500 
L 2700 0 
L 1472 0 
L 97 3500 
z
" transform="scale(0.015625)"/>
      <path id="DejaVuSans-Bold-65" d="M 4031 1759 
L 4031 1441 
L 1416 1441 
Q 1456 1047 1700 850 
Q 1944 653 2381 653 
Q 2734 653 3104 758 
Q 3475 863 3866 1075 
L 3866 213 
Q 3469 63 3072 -14 
Q 2675 -91 2278 -91 
Q 1328 -91 801 392 
Q 275 875 275 1747 
Q 275 2603 792 3093 
Q 1309 3584 2216 3584 
Q 3041 3584 3536 3087 
Q 4031 2591 4031 1759 
z
M 2881 2131 
Q 2881 2450 2695 2645 
Q 2509 2841 2209 2841 
Q 1884 2841 1681 2658 
Q 1478 2475 1428 2131 
L 2881 2131 
z
" transform="scale(0.015625)"/>
      <path id="DejaVuSans-Bold-68" d="M 4056 2131 
L 4056 0 
L 2931 0 
L 2931 347 
L 2931 1625 
Q 2931 2084 2911 2256 
Q 2891 2428 2841 2509 
Q 2775 2619 2662 2680 
Q 2550 2741 2406 2741 
Q 2056 2741 1856 2470 
Q 1656 2200 1656 1722 
L 1656 0 
L 538 0 
L 538 4863 
L 1656 4863 
L 1656 2988 
Q 1909 3294 2193 3439 
Q 2478 3584 2822 3584 
Q 3428 3584 3742 3212 
Q 4056 2841 4056 2131 
z
" transform="scale(0.015625)"/>
      <path id="DejaVuSans-Bold-69" d="M 538 3500 
L 1656 3500 
L 1656 0 
L 538 0 
L 538 3500 
z
M 538 4863 
L 1656 4863 
L 1656 3950 
L 538 3950 
L 538 4863 
z
" transform="scale(0.015625)"/>
      <path id="DejaVuSans-Bold-63" d="M 3366 3391 
L 3366 2478 
Q 3138 2634 2908 2709 
Q 2678 2784 2431 2784 
Q 1963 2784 1702 2511 
Q 1441 2238 1441 1747 
Q 1441 1256 1702 982 
Q 1963 709 2431 709 
Q 2694 709 2930 787 
Q 3166 866 3366 1019 
L 3366 103 
Q 3103 6 2833 -42 
Q 2563 -91 2291 -91 
Q 1344 -91 809 395 
Q 275 881 275 1747 
Q 275 2613 809 3098 
Q 1344 3584 2291 3584 
Q 2566 3584 2833 3536 
Q 3100 3488 3366 3391 
z
" transform="scale(0.015625)"/>
      <path id="DejaVuSans-Bold-6c" d="M 538 4863 
L 1656 4863 
L 1656 0 
L 538 0 
L 538 4863 
z
" transform="scale(0.015625)"/>
      <path id="DejaVuSans-Bold-62" d="M 2400 722 
Q 2759 722 2948 984 
Q 3138 1247 3138 1747 
Q 3138 2247 2948 2509 
Q 2759 2772 2400 2772 
Q 2041 2772 1848 2508 
Q 1656 2244 1656 1747 
Q 1656 1250 1848 986 
Q 2041 722 2400 722 
z
M 1656 2988 
Q 1888 3294 2169 3439 
Q 2450 3584 2816 3584 
Q 3463 3584 3878 3070 
Q 4294 2556 4294 1747 
Q 4294 938 3878 423 
Q 3463 -91 2816 -91 
Q 2450 -91 2169 54 
Q 1888 200 1656 506 
L 1656 0 
L 538 0 
L 538 4863 
L 1656 4863 
L 1656 2988 
z
" transform="scale(0.015625)"/>
      <path id="DejaVuSans-Bold-6f" d="M 2203 2784 
Q 1831 2784 1636 2517 
Q 1441 2250 1441 1747 
Q 1441 1244 1636 976 
Q 1831 709 2203 709 
Q 2569 709 2762 976 
Q 2956 1244 2956 1747 
Q 2956 2250 2762 2517 
Q 2569 2784 2203 2784 
z
M 2203 3584 
Q 3106 3584 3614 3096 
Q 4122 2609 4122 1747 
Q 4122 884 3614 396 
Q 3106 -91 2203 -91 
Q 1297 -91 786 396 
Q 275 884 275 1747 
Q 275 2609 786 3096 
Q 1297 3584 2203 3584 
z
" transform="scale(0.015625)"/>
      <path id="DejaVuSans-Bold-64" d="M 2919 2988 
L 2919 4863 
L 4044 4863 
L 4044 0 
L 2919 0 
L 2919 506 
Q 2688 197 2409 53 
Q 2131 -91 1766 -91 
Q 1119 -91 703 423 
Q 288 938 288 1747 
Q 288 2556 703 3070 
Q 1119 3584 1766 3584 
Q 2128 3584 2408 3439 
Q 2688 3294 2919 2988 
z
M 2181 722 
Q 2541 722 2730 984 
Q 2919 1247 2919 1747 
Q 2919 2247 2730 2509 
Q 2541 2772 2181 2772 
Q 1825 2772 1636 2509 
Q 1447 2247 1447 1747 
Q 1447 1247 1636 984 
Q 1825 722 2181 722 
z
" transform="scale(0.015625)"/>
      <path id="DejaVuSans-Bold-79" d="M 78 3500 
L 1197 3500 
L 2138 1125 
L 2938 3500 
L 4056 3500 
L 2584 -331 
Q 2363 -916 2067 -1148 
Q 1772 -1381 1288 -1381 
L 641 -1381 
L 641 -647 
L 991 -647 
Q 1275 -647 1404 -556 
Q 1534 -466 1606 -231 
L 1638 -134 
L 78 3500 
z
" transform="scale(0.015625)"/>
     </defs>
     <use xlink:href="#DejaVuSans-Bold-76"/>
     <use xlink:href="#DejaVuSans-Bold-65" transform="translate(65.185547 0)"/>
     <use xlink:href="#DejaVuSans-Bold-68" transform="translate(133.007812 0)"/>
     <use xlink:href="#DejaVuSans-Bold-69" transform="translate(204.199219 0)"/>
     <use xlink:href="#DejaVuSans-Bold-63" transform="translate(238.476562 0)"/>
     <use xlink:href="#DejaVuSans-Bold-6c" transform="translate(297.753906 0)"/>
     <use xlink:href="#DejaVuSans-Bold-65" transform="translate(332.03125 0)"/>
     <use xlink:href="#DejaVuSans-Bold-20" transform="translate(399.853516 0)"/>
     <use xlink:href="#DejaVuSans-Bold-62" transform="translate(434.667969 0)"/>
     <use xlink:href="#DejaVuSans-Bold-6f" transform="translate(506.25 0)"/>
     <use xlink:href="#DejaVuSans-Bold-64" transform="translate(574.951172 0)"/>
     <use xlink:href="#DejaVuSans-Bold-79" transform="translate(646.533203 0)"/>
    </g>
   </g>
   <g id="text_3">
    <!-- Unsprung mass $m_u$ -->
    <g style="fill: #1f2933" transform="translate(212.286 256.130267) scale(0.114 -0.114)">
     <defs>
      <path id="DejaVuSans-Bold-55" d="M 588 4666 
L 1791 4666 
L 1791 1869 
Q 1791 1291 1980 1042 
Q 2169 794 2597 794 
Q 3028 794 3217 1042 
Q 3406 1291 3406 1869 
L 3406 4666 
L 4609 4666 
L 4609 1869 
Q 4609 878 4112 393 
Q 3616 -91 2597 -91 
Q 1581 -91 1084 393 
Q 588 878 588 1869 
L 588 4666 
z
" transform="scale(0.015625)"/>
      <path id="DejaVuSans-Oblique-75" d="M 428 1388 
L 838 3500 
L 1416 3500 
L 1006 1409 
Q 975 1256 961 1147 
Q 947 1038 947 966 
Q 947 700 1109 554 
Q 1272 409 1569 409 
Q 2031 409 2368 721 
Q 2706 1034 2809 1563 
L 3194 3500 
L 3769 3500 
L 3091 0 
L 2516 0 
L 2631 550 
Q 2388 244 2052 76 
Q 1716 -91 1338 -91 
Q 878 -91 622 161 
Q 366 413 366 863 
Q 366 956 381 1097 
Q 397 1238 428 1388 
z
" transform="scale(0.015625)"/>
     </defs>
     <use xlink:href="#DejaVuSans-Bold-55" transform="translate(0 0.09375)"/>
     <use xlink:href="#DejaVuSans-Bold-6e" transform="translate(81.201172 0.09375)"/>
     <use xlink:href="#DejaVuSans-Bold-73" transform="translate(152.392578 0.09375)"/>
     <use xlink:href="#DejaVuSans-Bold-70" transform="translate(211.914062 0.09375)"/>
     <use xlink:href="#DejaVuSans-Bold-72" transform="translate(283.496094 0.09375)"/>
     <use xlink:href="#DejaVuSans-Bold-75" transform="translate(332.8125 0.09375)"/>
     <use xlink:href="#DejaVuSans-Bold-6e" transform="translate(404.003906 0.09375)"/>
     <use xlink:href="#DejaVuSans-Bold-67" transform="translate(475.195312 0.09375)"/>
     <use xlink:href="#DejaVuSans-Bold-20" transform="translate(546.777344 0.09375)"/>
     <use xlink:href="#DejaVuSans-Bold-6d" transform="translate(581.591797 0.09375)"/>
     <use xlink:href="#DejaVuSans-Bold-61" transform="translate(685.791016 0.09375)"/>
     <use xlink:href="#DejaVuSans-Bold-73" transform="translate(753.271484 0.09375)"/>
     <use xlink:href="#DejaVuSans-Bold-73" transform="translate(812.792969 0.09375)"/>
     <use xlink:href="#DejaVuSans-Bold-20" transform="translate(872.314453 0.09375)"/>
     <use xlink:href="#DejaVuSans-Oblique-6d" transform="translate(907.128906 0.09375)"/>
     <use xlink:href="#DejaVuSans-Oblique-75" transform="translate(1004.541016 -16.3125) scale(0.7)"/>
    </g>
    <!-- wheel assembly -->
    <g style="fill: #1f2933" transform="translate(221.068453 269.032929) scale(0.114 -0.114)">
     <defs>
      <path id="DejaVuSans-Bold-77" d="M 225 3500 
L 1313 3500 
L 1900 1088 
L 2491 3500 
L 3425 3500 
L 4013 1113 
L 4603 3500 
L 5691 3500 
L 4769 0 
L 3547 0 
L 2956 2406 
L 2369 0 
L 1147 0 
L 225 3500 
z
" transform="scale(0.015625)"/>
     </defs>
     <use xlink:href="#DejaVuSans-Bold-77"/>
     <use xlink:href="#DejaVuSans-Bold-68" transform="translate(92.382812 0)"/>
     <use xlink:href="#DejaVuSans-Bold-65" transform="translate(163.574219 0)"/>
     <use xlink:href="#DejaVuSans-Bold-65" transform="translate(231.396484 0)"/>
     <use xlink:href="#DejaVuSans-Bold-6c" transform="translate(299.21875 0)"/>
     <use xlink:href="#DejaVuSans-Bold-20" transform="translate(333.496094 0)"/>
     <use xlink:href="#DejaVuSans-Bold-61" transform="translate(368.310547 0)"/>
     <use xlink:href="#DejaVuSans-Bold-73" transform="translate(435.791016 0)"/>
     <use xlink:href="#DejaVuSans-Bold-73" transform="translate(495.3125 0)"/>
     <use xlink:href="#DejaVuSans-Bold-65" transform="translate(554.833984 0)"/>
     <use xlink:href="#DejaVuSans-Bold-6d" transform="translate(622.65625 0)"/>
     <use xlink:href="#DejaVuSans-Bold-62" transform="translate(726.855469 0)"/>
     <use xlink:href="#DejaVuSans-Bold-6c" transform="translate(798.4375 0)"/>
     <use xlink:href="#DejaVuSans-Bold-79" transform="translate(832.714844 0)"/>
    </g>
   </g>
   <g id="text_4">
    <!-- tire stiffness $k_t$ -->
    <g style="fill: #2d6a9f" transform="translate(285.5025 301.463526) scale(0.095 -0.095)">
     <defs>
      <path id="DejaVuSans-74" d="M 1172 4494 
L 1172 3500 
L 2356 3500 
L 2356 3053 
L 1172 3053 
L 1172 1153 
Q 1172 725 1289 603 
Q 1406 481 1766 481 
L 2356 481 
L 2356 0 
L 1766 0 
Q 1100 0 847 248 
Q 594 497 594 1153 
L 594 3053 
L 172 3053 
L 172 3500 
L 594 3500 
L 594 4494 
L 1172 4494 
z
" transform="scale(0.015625)"/>
      <path id="DejaVuSans-69" d="M 603 3500 
L 1178 3500 
L 1178 0 
L 603 0 
L 603 3500 
z
M 603 4863 
L 1178 4863 
L 1178 4134 
L 603 4134 
L 603 4863 
z
" transform="scale(0.015625)"/>
      <path id="DejaVuSans-65" d="M 3597 1894 
L 3597 1613 
L 953 1613 
Q 991 1019 1311 708 
Q 1631 397 2203 397 
Q 2534 397 2845 478 
Q 3156 559 3463 722 
L 3463 178 
Q 3153 47 2828 -22 
Q 2503 -91 2169 -91 
Q 1331 -91 842 396 
Q 353 884 353 1716 
Q 353 2575 817 3079 
Q 1281 3584 2069 3584 
Q 2775 3584 3186 3129 
Q 3597 2675 3597 1894 
z
M 3022 2063 
Q 3016 2534 2758 2815 
Q 2500 3097 2075 3097 
Q 1594 3097 1305 2825 
Q 1016 2553 972 2059 
L 3022 2063 
z
" transform="scale(0.015625)"/>
      <path id="DejaVuSans-73" d="M 2834 3397 
L 2834 2853 
Q 2591 2978 2328 3040 
Q 2066 3103 1784 3103 
Q 1356 3103 1142 2972 
Q 928 2841 928 2578 
Q 928 2378 1081 2264 
Q 1234 2150 1697 2047 
L 1894 2003 
Q 2506 1872 2764 1633 
Q 3022 1394 3022 966 
Q 3022 478 2636 193 
Q 2250 -91 1575 -91 
Q 1294 -91 989 -36 
Q 684 19 347 128 
L 347 722 
Q 666 556 975 473 
Q 1284 391 1588 391 
Q 1994 391 2212 530 
Q 2431 669 2431 922 
Q 2431 1156 2273 1281 
Q 2116 1406 1581 1522 
L 1381 1569 
Q 847 1681 609 1914 
Q 372 2147 372 2553 
Q 372 3047 722 3315 
Q 1072 3584 1716 3584 
Q 2034 3584 2315 3537 
Q 2597 3491 2834 3397 
z
" transform="scale(0.015625)"/>
      <path id="DejaVuSans-66" d="M 2375 4863 
L 2375 4384 
L 1825 4384 
Q 1516 4384 1395 4259 
Q 1275 4134 1275 3809 
L 1275 3500 
L 2222 3500 
L 2222 3053 
L 1275 3053 
L 1275 0 
L 697 0 
L 697 3053 
L 147 3053 
L 147 3500 
L 697 3500 
L 697 3744 
Q 697 4328 969 4595 
Q 1241 4863 1831 4863 
L 2375 4863 
z
" transform="scale(0.015625)"/>
      <path id="DejaVuSans-6e" d="M 3513 2113 
L 3513 0 
L 2938 0 
L 2938 2094 
Q 2938 2591 2744 2837 
Q 2550 3084 2163 3084 
Q 1697 3084 1428 2787 
Q 1159 2491 1159 1978 
L 1159 0 
L 581 0 
L 581 3500 
L 1159 3500 
L 1159 2956 
Q 1366 3272 1645 3428 
Q 1925 3584 2291 3584 
Q 2894 3584 3203 3211 
Q 3513 2838 3513 2113 
z
" transform="scale(0.015625)"/>
      <path id="DejaVuSans-Oblique-6b" d="M 1172 4863 
L 1747 4863 
L 1197 2028 
L 3169 3500 
L 3916 3500 
L 1716 1825 
L 3322 0 
L 2625 0 
L 1131 1709 
L 800 0 
L 225 0 
L 1172 4863 
z
" transform="scale(0.015625)"/>
     </defs>
     <use xlink:href="#DejaVuSans-74" transform="translate(0 0.015625)"/>
     <use xlink:href="#DejaVuSans-69" transform="translate(39.208984 0.015625)"/>
     <use xlink:href="#DejaVuSans-72" transform="translate(66.992188 0.015625)"/>
     <use xlink:href="#DejaVuSans-65" transform="translate(108.105469 0.015625)"/>
     <use xlink:href="#DejaVuSans-20" transform="translate(169.628906 0.015625)"/>
     <use xlink:href="#DejaVuSans-73" transform="translate(201.416016 0.015625)"/>
     <use xlink:href="#DejaVuSans-74" transform="translate(253.515625 0.015625)"/>
     <use xlink:href="#DejaVuSans-69" transform="translate(292.724609 0.015625)"/>
     <use xlink:href="#DejaVuSans-66" transform="translate(320.507812 0.015625)"/>
     <use xlink:href="#DejaVuSans-66" transform="translate(355.712891 0.015625)"/>
     <use xlink:href="#DejaVuSans-6e" transform="translate(390.917969 0.015625)"/>
     <use xlink:href="#DejaVuSans-65" transform="translate(454.296875 0.015625)"/>
     <use xlink:href="#DejaVuSans-73" transform="translate(515.820312 0.015625)"/>
     <use xlink:href="#DejaVuSans-73" transform="translate(567.919922 0.015625)"/>
     <use xlink:href="#DejaVuSans-20" transform="translate(620.019531 0.015625)"/>
     <use xlink:href="#DejaVuSans-Oblique-6b" transform="translate(651.806641 0.015625)"/>
     <use xlink:href="#DejaVuSans-Oblique-74" transform="translate(709.716797 -16.390625) scale(0.7)"/>
    </g>
   </g>
   <g id="text_5">
    <g id="patch_6">
     <path d="M 210.05 201.69864 
L 210.05 158.48064 
Q 210.05 156.52064 208.09 156.52064 
L 198.584 156.52064 
Q 196.624 156.52064 196.624 158.48064 
L 196.624 201.69864 
Q 196.624 203.65864 198.584 203.65864 
L 208.09 203.65864 
Q 210.05 203.65864 210.05 201.69864 
z
" style="fill: #ffffff; stroke: #123b63; stroke-width: 0.8; stroke-linejoin: miter"/>
    </g>
    <!-- spring $k_s$ -->
    <g style="fill: #123b63" transform="translate(206.032 201.69864) rotate(-90) scale(0.098 -0.098)">
     <defs>
      <path id="DejaVuSans-70" d="M 1159 525 
L 1159 -1331 
L 581 -1331 
L 581 3500 
L 1159 3500 
L 1159 2969 
Q 1341 3281 1617 3432 
Q 1894 3584 2278 3584 
Q 2916 3584 3314 3078 
Q 3713 2572 3713 1747 
Q 3713 922 3314 415 
Q 2916 -91 2278 -91 
Q 1894 -91 1617 61 
Q 1341 213 1159 525 
z
M 3116 1747 
Q 3116 2381 2855 2742 
Q 2594 3103 2138 3103 
Q 1681 3103 1420 2742 
Q 1159 2381 1159 1747 
Q 1159 1113 1420 752 
Q 1681 391 2138 391 
Q 2594 391 2855 752 
Q 3116 1113 3116 1747 
z
" transform="scale(0.015625)"/>
      <path id="DejaVuSans-67" d="M 2906 1791 
Q 2906 2416 2648 2759 
Q 2391 3103 1925 3103 
Q 1463 3103 1205 2759 
Q 947 2416 947 1791 
Q 947 1169 1205 825 
Q 1463 481 1925 481 
Q 2391 481 2648 825 
Q 2906 1169 2906 1791 
z
M 3481 434 
Q 3481 -459 3084 -895 
Q 2688 -1331 1869 -1331 
Q 1566 -1331 1297 -1286 
Q 1028 -1241 775 -1147 
L 775 -588 
Q 1028 -725 1275 -790 
Q 1522 -856 1778 -856 
Q 2344 -856 2625 -561 
Q 2906 -266 2906 331 
L 2906 616 
Q 2728 306 2450 153 
Q 2172 0 1784 0 
Q 1141 0 747 490 
Q 353 981 353 1791 
Q 353 2603 747 3093 
Q 1141 3584 1784 3584 
Q 2172 3584 2450 3431 
Q 2728 3278 2906 2969 
L 2906 3500 
L 3481 3500 
L 3481 434 
z
" transform="scale(0.015625)"/>
     </defs>
     <use xlink:href="#DejaVuSans-73" transform="translate(0 0.015625)"/>
     <use xlink:href="#DejaVuSans-70" transform="translate(52.099609 0.015625)"/>
     <use xlink:href="#DejaVuSans-72" transform="translate(115.576172 0.015625)"/>
     <use xlink:href="#DejaVuSans-69" transform="translate(156.689453 0.015625)"/>
     <use xlink:href="#DejaVuSans-6e" transform="translate(184.472656 0.015625)"/>
     <use xlink:href="#DejaVuSans-67" transform="translate(247.851562 0.015625)"/>
     <use xlink:href="#DejaVuSans-20" transform="translate(311.328125 0.015625)"/>
     <use xlink:href="#DejaVuSans-Oblique-6b" transform="translate(343.115234 0.015625)"/>
     <use xlink:href="#DejaVuSans-Oblique-73" transform="translate(401.025391 -16.390625) scale(0.7)"/>
    </g>
   </g>
   <g id="text_6">
    <g id="patch_7">
     <path d="M 278.963 205.32464 
L 278.963 154.85464 
Q 278.963 152.89464 277.003 152.89464 
L 267.497 152.89464 
Q 265.537 152.89464 265.537 154.85464 
L 265.537 205.32464 
Q 265.537 207.28464 267.497 207.28464 
L 277.003 207.28464 
Q 278.963 207.28464 278.963 205.32464 
z
" style="fill: #ffffff; stroke: #d97706; stroke-width: 0.8; stroke-linejoin: miter"/>
    </g>
    <!-- damper $c_s$ -->
    <g style="fill: #d97706" transform="translate(274.945 205.32464) rotate(-90) scale(0.098 -0.098)">
     <defs>
      <path id="DejaVuSans-6d" d="M 3328 2828 
Q 3544 3216 3844 3400 
Q 4144 3584 4550 3584 
Q 5097 3584 5394 3201 
Q 5691 2819 5691 2113 
L 5691 0 
L 5113 0 
L 5113 2094 
Q 5113 2597 4934 2840 
Q 4756 3084 4391 3084 
Q 3944 3084 3684 2787 
Q 3425 2491 3425 1978 
L 3425 0 
L 2847 0 
L 2847 2094 
Q 2847 2600 2669 2842 
Q 2491 3084 2119 3084 
Q 1678 3084 1418 2786 
Q 1159 2488 1159 1978 
L 1159 0 
L 581 0 
L 581 3500 
L 1159 3500 
L 1159 2956 
Q 1356 3278 1631 3431 
Q 1906 3584 2284 3584 
Q 2666 3584 2933 3390 
Q 3200 3197 3328 2828 
z
" transform="scale(0.015625)"/>
      <path id="DejaVuSans-Oblique-63" d="M 3431 3366 
L 3316 2797 
Q 3109 2947 2876 3022 
Q 2644 3097 2394 3097 
Q 2119 3097 1870 3000 
Q 1622 2903 1453 2725 
Q 1184 2453 1037 2087 
Q 891 1722 891 1331 
Q 891 859 1127 628 
Q 1363 397 1844 397 
Q 2081 397 2348 469 
Q 2616 541 2906 684 
L 2797 116 
Q 2547 13 2283 -39 
Q 2019 -91 1741 -91 
Q 1044 -91 669 257 
Q 294 606 294 1253 
Q 294 1797 489 2255 
Q 684 2713 1069 3078 
Q 1331 3328 1684 3456 
Q 2038 3584 2456 3584 
Q 2700 3584 2940 3529 
Q 3181 3475 3431 3366 
z
" transform="scale(0.015625)"/>
     </defs>
     <use xlink:href="#DejaVuSans-64" transform="translate(0 0.015625)"/>
     <use xlink:href="#DejaVuSans-61" transform="translate(63.476562 0.015625)"/>
     <use xlink:href="#DejaVuSans-6d" transform="translate(124.755859 0.015625)"/>
     <use xlink:href="#DejaVuSans-70" transform="translate(222.167969 0.015625)"/>
     <use xlink:href="#DejaVuSans-65" transform="translate(285.644531 0.015625)"/>
     <use xlink:href="#DejaVuSans-72" transform="translate(347.167969 0.015625)"/>
     <use xlink:href="#DejaVuSans-20" transform="translate(388.28125 0.015625)"/>
     <use xlink:href="#DejaVuSans-Oblique-63" transform="translate(420.068359 0.015625)"/>
     <use xlink:href="#DejaVuSans-Oblique-73" transform="translate(475.048828 -16.390625) scale(0.7)"/>
    </g>
   </g>
   <g id="text_7">
    <g id="patch_8">
     <path d="M 347.865281 210.91064 
L 347.865281 149.26864 
Q 347.865281 147.30864 345.905281 147.30864 
L 336.420719 147.30864 
Q 334.460719 147.30864 334.460719 149.26864 
L 334.460719 210.91064 
Q 334.460719 212.87064 336.420719 212.87064 
L 345.905281 212.87064 
Q 347.865281 212.87064 347.865281 210.91064 
z
" style="fill: #ffffff; stroke: #2f855a; stroke-width: 0.8; stroke-linejoin: miter"/>
    </g>
    <!-- actuator $F(t)$ -->
    <g style="fill: #2f855a" transform="translate(343.867188 210.91064) rotate(-90) scale(0.098 -0.098)">
     <defs>
      <path id="DejaVuSans-63" d="M 3122 3366 
L 3122 2828 
Q 2878 2963 2633 3030 
Q 2388 3097 2138 3097 
Q 1578 3097 1268 2742 
Q 959 2388 959 1747 
Q 959 1106 1268 751 
Q 1578 397 2138 397 
Q 2388 397 2633 464 
Q 2878 531 3122 666 
L 3122 134 
Q 2881 22 2623 -34 
Q 2366 -91 2075 -91 
Q 1284 -91 818 406 
Q 353 903 353 1747 
Q 353 2603 823 3093 
Q 1294 3584 2113 3584 
Q 2378 3584 2631 3529 
Q 2884 3475 3122 3366 
z
" transform="scale(0.015625)"/>
      <path id="DejaVuSans-75" d="M 544 1381 
L 544 3500 
L 1119 3500 
L 1119 1403 
Q 1119 906 1312 657 
Q 1506 409 1894 409 
Q 2359 409 2629 706 
Q 2900 1003 2900 1516 
L 2900 3500 
L 3475 3500 
L 3475 0 
L 2900 0 
L 2900 538 
Q 2691 219 2414 64 
Q 2138 -91 1772 -91 
Q 1169 -91 856 284 
Q 544 659 544 1381 
z
M 1991 3584 
L 1991 3584 
z
" transform="scale(0.015625)"/>
      <path id="DejaVuSans-Oblique-46" d="M 1081 4666 
L 3756 4666 
L 3653 4134 
L 1606 4134 
L 1338 2759 
L 3188 2759 
L 3084 2228 
L 1234 2228 
L 800 0 
L 172 0 
L 1081 4666 
z
" transform="scale(0.015625)"/>
     </defs>
     <use xlink:href="#DejaVuSans-61" transform="translate(0 0.125)"/>
     <use xlink:href="#DejaVuSans-63" transform="translate(61.279297 0.125)"/>
     <use xlink:href="#DejaVuSans-74" transform="translate(116.259766 0.125)"/>
     <use xlink:href="#DejaVuSans-75" transform="translate(155.46875 0.125)"/>
     <use xlink:href="#DejaVuSans-61" transform="translate(218.847656 0.125)"/>
     <use xlink:href="#DejaVuSans-74" transform="translate(280.126953 0.125)"/>
     <use xlink:href="#DejaVuSans-6f" transform="translate(319.335938 0.125)"/>
     <use xlink:href="#DejaVuSans-72" transform="translate(380.517578 0.125)"/>
     <use xlink:href="#DejaVuSans-20" transform="translate(421.630859 0.125)"/>
     <use xlink:href="#DejaVuSans-Oblique-46" transform="translate(453.417969 0.125)"/>
     <use xlink:href="#DejaVuSans-28" transform="translate(510.9375 0.125)"/>
     <use xlink:href="#DejaVuSans-Oblique-74" transform="translate(549.951172 0.125)"/>
     <use xlink:href="#DejaVuSans-29" transform="translate(589.160156 0.125)"/>
    </g>
   </g>
   <g id="patch_9">
    <path d="M 420.678 102.998249 
Q 420.678 84.042163 420.678 66.427719 
" clip-path="url(#p9bdaf6c1a1)" style="fill: none; stroke: #123b63; stroke-width: 1.2; stroke-linecap: round"/>
    <path d="M 417.678 72.427719 
L 420.678 66.427719 
L 423.678 72.427719 
z
" clip-path="url(#p9bdaf6c1a1)" style="fill: #123b63; stroke: #123b63; stroke-width: 1.2; stroke-linecap: round"/>
   </g>
   <g id="text_8">
    <!-- $z_s(t)$ -->
    <g style="fill: #123b63" transform="translate(431.28 85.052855) scale(0.1 -0.1)">
     <use xlink:href="#DejaVuSans-Oblique-7a" transform="translate(0 0.125)"/>
     <use xlink:href="#DejaVuSans-Oblique-73" transform="translate(52.490234 -16.28125) scale(0.7)"/>
     <use xlink:href="#DejaVuSans-28" transform="translate(91.694336 0.125)"/>
     <use xlink:href="#DejaVuSans-Oblique-74" transform="translate(130.708008 0.125)"/>
     <use xlink:href="#DejaVuSans-29" transform="translate(169.916992 0.125)"/>
    </g>
   </g>
   <g id="patch_10">
    <path d="M 420.678 265.405039 
Q 420.678 248.194388 420.678 232.325378 
" clip-path="url(#p9bdaf6c1a1)" style="fill: none; stroke: #5b6573; stroke-width: 1.2; stroke-linecap: round"/>
    <path d="M 417.678 238.325378 
L 420.678 232.325378 
L 423.678 238.325378 
z
" clip-path="url(#p9bdaf6c1a1)" style="fill: #5b6573; stroke: #5b6573; stroke-width: 1.2; stroke-linecap: round"/>
   </g>
   <g id="text_9">
    <!-- $z_u(t)$ -->
    <g style="fill: #5b6573" transform="translate(431.28 252.703415) scale(0.1 -0.1)">
     <use xlink:href="#DejaVuSans-Oblique-7a" transform="translate(0 0.125)"/>
     <use xlink:href="#DejaVuSans-Oblique-75" transform="translate(52.490234 -16.28125) scale(0.7)"/>
     <use xlink:href="#DejaVuSans-28" transform="translate(99.589844 0.125)"/>
     <use xlink:href="#DejaVuSans-Oblique-74" transform="translate(138.603516 0.125)"/>
     <use xlink:href="#DejaVuSans-29" transform="translate(177.8125 0.125)"/>
    </g>
   </g>
   <g id="text_10">
    <!-- Plant variables -->
    <g style="fill: #123b63" transform="translate(57.640875 103.250356) scale(0.093 -0.093)">
     <defs>
      <path id="DejaVuSans-50" d="M 1259 4147 
L 1259 2394 
L 2053 2394 
Q 2494 2394 2734 2622 
Q 2975 2850 2975 3272 
Q 2975 3691 2734 3919 
Q 2494 4147 2053 4147 
L 1259 4147 
z
M 628 4666 
L 2053 4666 
Q 2838 4666 3239 4311 
Q 3641 3956 3641 3272 
Q 3641 2581 3239 2228 
Q 2838 1875 2053 1875 
L 1259 1875 
L 1259 0 
L 628 0 
L 628 4666 
z
" transform="scale(0.015625)"/>
      <path id="DejaVuSans-6c" d="M 603 4863 
L 1178 4863 
L 1178 0 
L 603 0 
L 603 4863 
z
" transform="scale(0.015625)"/>
      <path id="DejaVuSans-76" d="M 191 3500 
L 800 3500 
L 1894 563 
L 2988 3500 
L 3597 3500 
L 2284 0 
L 1503 0 
L 191 3500 
z
" transform="scale(0.015625)"/>
      <path id="DejaVuSans-62" d="M 3116 1747 
Q 3116 2381 2855 2742 
Q 2594 3103 2138 3103 
Q 1681 3103 1420 2742 
Q 1159 2381 1159 1747 
Q 1159 1113 1420 752 
Q 1681 391 2138 391 
Q 2594 391 2855 752 
Q 3116 1113 3116 1747 
z
M 1159 2969 
Q 1341 3281 1617 3432 
Q 1894 3584 2278 3584 
Q 2916 3584 3314 3078 
Q 3713 2572 3713 1747 
Q 3713 922 3314 415 
Q 2916 -91 2278 -91 
Q 1894 -91 1617 61 
Q 1341 213 1159 525 
L 1159 0 
L 581 0 
L 581 4863 
L 1159 4863 
L 1159 2969 
z
" transform="scale(0.015625)"/>
     </defs>
     <use xlink:href="#DejaVuSans-50"/>
     <use xlink:href="#DejaVuSans-6c" transform="translate(60.302734 0)"/>
     <use xlink:href="#DejaVuSans-61" transform="translate(88.085938 0)"/>
     <use xlink:href="#DejaVuSans-6e" transform="translate(149.365234 0)"/>
     <use xlink:href="#DejaVuSans-74" transform="translate(212.744141 0)"/>
     <use xlink:href="#DejaVuSans-20" transform="translate(251.953125 0)"/>
     <use xlink:href="#DejaVuSans-76" transform="translate(283.740234 0)"/>
     <use xlink:href="#DejaVuSans-61" transform="translate(342.919922 0)"/>
     <use xlink:href="#DejaVuSans-72" transform="translate(404.199219 0)"/>
     <use xlink:href="#DejaVuSans-69" transform="translate(445.3125 0)"/>
     <use xlink:href="#DejaVuSans-61" transform="translate(473.095703 0)"/>
     <use xlink:href="#DejaVuSans-62" transform="translate(534.375 0)"/>
     <use xlink:href="#DejaVuSans-6c" transform="translate(597.851562 0)"/>
     <use xlink:href="#DejaVuSans-65" transform="translate(625.634766 0)"/>
     <use xlink:href="#DejaVuSans-73" transform="translate(687.158203 0)"/>
    </g>
    <!-- $k_s, c_s$, geometry, -->
    <g style="fill: #123b63" transform="translate(53.7465 113.666065) scale(0.093 -0.093)">
     <defs>
      <path id="DejaVuSans-2c" d="M 750 794 
L 1409 794 
L 1409 256 
L 897 -744 
L 494 -744 
L 750 256 
L 750 794 
z
" transform="scale(0.015625)"/>
      <path id="DejaVuSans-79" d="M 2059 -325 
Q 1816 -950 1584 -1140 
Q 1353 -1331 966 -1331 
L 506 -1331 
L 506 -850 
L 844 -850 
Q 1081 -850 1212 -737 
Q 1344 -625 1503 -206 
L 1606 56 
L 191 3500 
L 800 3500 
L 1894 763 
L 2988 3500 
L 3597 3500 
L 2059 -325 
z
" transform="scale(0.015625)"/>
     </defs>
     <use xlink:href="#DejaVuSans-Oblique-6b" transform="translate(0 0.015625)"/>
     <use xlink:href="#DejaVuSans-Oblique-73" transform="translate(57.910156 -16.390625) scale(0.7)"/>
     <use xlink:href="#DejaVuSans-2c" transform="translate(97.114258 0.015625)"/>
     <use xlink:href="#DejaVuSans-Oblique-63" transform="translate(148.383789 0.015625)"/>
     <use xlink:href="#DejaVuSans-Oblique-73" transform="translate(203.364258 -16.390625) scale(0.7)"/>
     <use xlink:href="#DejaVuSans-2c" transform="translate(242.568359 0.015625)"/>
     <use xlink:href="#DejaVuSans-20" transform="translate(274.355469 0.015625)"/>
     <use xlink:href="#DejaVuSans-67" transform="translate(306.142578 0.015625)"/>
     <use xlink:href="#DejaVuSans-65" transform="translate(369.619141 0.015625)"/>
     <use xlink:href="#DejaVuSans-6f" transform="translate(431.142578 0.015625)"/>
     <use xlink:href="#DejaVuSans-6d" transform="translate(492.324219 0.015625)"/>
     <use xlink:href="#DejaVuSans-65" transform="translate(589.736328 0.015625)"/>
     <use xlink:href="#DejaVuSans-74" transform="translate(651.259766 0.015625)"/>
     <use xlink:href="#DejaVuSans-72" transform="translate(690.46875 0.015625)"/>
     <use xlink:href="#DejaVuSans-79" transform="translate(731.582031 0.015625)"/>
     <use xlink:href="#DejaVuSans-2c" transform="translate(790.761719 0.015625)"/>
    </g>
    <!-- component sizing -->
    <g style="fill: #123b63" transform="translate(50.886023 124.098922) scale(0.093 -0.093)">
     <defs>
      <path id="DejaVuSans-7a" d="M 353 3500 
L 3084 3500 
L 3084 2975 
L 922 459 
L 3084 459 
L 3084 0 
L 275 0 
L 275 525 
L 2438 3041 
L 353 3041 
L 353 3500 
z
" transform="scale(0.015625)"/>
     </defs>
     <use xlink:href="#DejaVuSans-63"/>
     <use xlink:href="#DejaVuSans-6f" transform="translate(54.980469 0)"/>
     <use xlink:href="#DejaVuSans-6d" transform="translate(116.162109 0)"/>
     <use xlink:href="#DejaVuSans-70" transform="translate(213.574219 0)"/>
     <use xlink:href="#DejaVuSans-6f" transform="translate(277.050781 0)"/>
     <use xlink:href="#DejaVuSans-6e" transform="translate(338.232422 0)"/>
     <use xlink:href="#DejaVuSans-65" transform="translate(401.611328 0)"/>
     <use xlink:href="#DejaVuSans-6e" transform="translate(463.134766 0)"/>
     <use xlink:href="#DejaVuSans-74" transform="translate(526.513672 0)"/>
     <use xlink:href="#DejaVuSans-20" transform="translate(565.722656 0)"/>
     <use xlink:href="#DejaVuSans-73" transform="translate(597.509766 0)"/>
     <use xlink:href="#DejaVuSans-69" transform="translate(649.609375 0)"/>
     <use xlink:href="#DejaVuSans-7a" transform="translate(677.392578 0)"/>
     <use xlink:href="#DejaVuSans-69" transform="translate(729.882812 0)"/>
     <use xlink:href="#DejaVuSans-6e" transform="translate(757.666016 0)"/>
     <use xlink:href="#DejaVuSans-67" transform="translate(821.044922 0)"/>
    </g>
   </g>
   <g id="text_11">
    <!-- Control variables -->
    <g style="fill: #2f855a" transform="translate(49.579281 189.987982) scale(0.1 -0.1)">
     <defs>
      <path id="DejaVuSans-43" d="M 4122 4306 
L 4122 3641 
Q 3803 3938 3442 4084 
Q 3081 4231 2675 4231 
Q 1875 4231 1450 3742 
Q 1025 3253 1025 2328 
Q 1025 1406 1450 917 
Q 1875 428 2675 428 
Q 3081 428 3442 575 
Q 3803 722 4122 1019 
L 4122 359 
Q 3791 134 3420 21 
Q 3050 -91 2638 -91 
Q 1578 -91 968 557 
Q 359 1206 359 2328 
Q 359 3453 968 4101 
Q 1578 4750 2638 4750 
Q 3056 4750 3426 4639 
Q 3797 4528 4122 4306 
z
" transform="scale(0.015625)"/>
     </defs>
     <use xlink:href="#DejaVuSans-43"/>
     <use xlink:href="#DejaVuSans-6f" transform="translate(69.824219 0)"/>
     <use xlink:href="#DejaVuSans-6e" transform="translate(131.005859 0)"/>
     <use xlink:href="#DejaVuSans-74" transform="translate(194.384766 0)"/>
     <use xlink:href="#DejaVuSans-72" transform="translate(233.59375 0)"/>
     <use xlink:href="#DejaVuSans-6f" transform="translate(272.457031 0)"/>
     <use xlink:href="#DejaVuSans-6c" transform="translate(333.638672 0)"/>
     <use xlink:href="#DejaVuSans-20" transform="translate(361.421875 0)"/>
     <use xlink:href="#DejaVuSans-76" transform="translate(393.208984 0)"/>
     <use xlink:href="#DejaVuSans-61" transform="translate(452.388672 0)"/>
     <use xlink:href="#DejaVuSans-72" transform="translate(513.667969 0)"/>
     <use xlink:href="#DejaVuSans-69" transform="translate(554.78125 0)"/>
     <use xlink:href="#DejaVuSans-61" transform="translate(582.564453 0)"/>
     <use xlink:href="#DejaVuSans-62" transform="translate(643.84375 0)"/>
     <use xlink:href="#DejaVuSans-6c" transform="translate(707.320312 0)"/>
     <use xlink:href="#DejaVuSans-65" transform="translate(735.103516 0)"/>
     <use xlink:href="#DejaVuSans-73" transform="translate(796.626953 0)"/>
    </g>
    <!-- feedback gains, MPC -->
    <g style="fill: #2f855a" transform="translate(40.057406 201.185795) scale(0.1 -0.1)">
     <defs>
      <path id="DejaVuSans-6b" d="M 581 4863 
L 1159 4863 
L 1159 1991 
L 2875 3500 
L 3609 3500 
L 1753 1863 
L 3688 0 
L 2938 0 
L 1159 1709 
L 1159 0 
L 581 0 
L 581 4863 
z
" transform="scale(0.015625)"/>
      <path id="DejaVuSans-4d" d="M 628 4666 
L 1569 4666 
L 2759 1491 
L 3956 4666 
L 4897 4666 
L 4897 0 
L 4281 0 
L 4281 4097 
L 3078 897 
L 2444 897 
L 1241 4097 
L 1241 0 
L 628 0 
L 628 4666 
z
" transform="scale(0.015625)"/>
     </defs>
     <use xlink:href="#DejaVuSans-66"/>
     <use xlink:href="#DejaVuSans-65" transform="translate(35.205078 0)"/>
     <use xlink:href="#DejaVuSans-65" transform="translate(96.728516 0)"/>
     <use xlink:href="#DejaVuSans-64" transform="translate(158.251953 0)"/>
     <use xlink:href="#DejaVuSans-62" transform="translate(221.728516 0)"/>
     <use xlink:href="#DejaVuSans-61" transform="translate(285.205078 0)"/>
     <use xlink:href="#DejaVuSans-63" transform="translate(346.484375 0)"/>
     <use xlink:href="#DejaVuSans-6b" transform="translate(401.464844 0)"/>
     <use xlink:href="#DejaVuSans-20" transform="translate(459.375 0)"/>
     <use xlink:href="#DejaVuSans-67" transform="translate(491.162109 0)"/>
     <use xlink:href="#DejaVuSans-61" transform="translate(554.638672 0)"/>
     <use xlink:href="#DejaVuSans-69" transform="translate(615.917969 0)"/>
     <use xlink:href="#DejaVuSans-6e" transform="translate(643.701172 0)"/>
     <use xlink:href="#DejaVuSans-73" transform="translate(707.080078 0)"/>
     <use xlink:href="#DejaVuSans-2c" transform="translate(759.179688 0)"/>
     <use xlink:href="#DejaVuSans-20" transform="translate(790.966797 0)"/>
     <use xlink:href="#DejaVuSans-4d" transform="translate(822.753906 0)"/>
     <use xlink:href="#DejaVuSans-50" transform="translate(909.033203 0)"/>
     <use xlink:href="#DejaVuSans-43" transform="translate(969.335938 0)"/>
    </g>
    <!-- weights, force limits -->
    <g style="fill: #2f855a" transform="translate(41.595688 212.383607) scale(0.1 -0.1)">
     <defs>
      <path id="DejaVuSans-77" d="M 269 3500 
L 844 3500 
L 1563 769 
L 2278 3500 
L 2956 3500 
L 3675 769 
L 4391 3500 
L 4966 3500 
L 4050 0 
L 3372 0 
L 2619 2869 
L 1863 0 
L 1184 0 
L 269 3500 
z
" transform="scale(0.015625)"/>
      <path id="DejaVuSans-68" d="M 3513 2113 
L 3513 0 
L 2938 0 
L 2938 2094 
Q 2938 2591 2744 2837 
Q 2550 3084 2163 3084 
Q 1697 3084 1428 2787 
Q 1159 2491 1159 1978 
L 1159 0 
L 581 0 
L 581 4863 
L 1159 4863 
L 1159 2956 
Q 1366 3272 1645 3428 
Q 1925 3584 2291 3584 
Q 2894 3584 3203 3211 
Q 3513 2838 3513 2113 
z
" transform="scale(0.015625)"/>
     </defs>
     <use xlink:href="#DejaVuSans-77"/>
     <use xlink:href="#DejaVuSans-65" transform="translate(81.787109 0)"/>
     <use xlink:href="#DejaVuSans-69" transform="translate(143.310547 0)"/>
     <use xlink:href="#DejaVuSans-67" transform="translate(171.09375 0)"/>
     <use xlink:href="#DejaVuSans-68" transform="translate(234.570312 0)"/>
     <use xlink:href="#DejaVuSans-74" transform="translate(297.949219 0)"/>
     <use xlink:href="#DejaVuSans-73" transform="translate(337.158203 0)"/>
     <use xlink:href="#DejaVuSans-2c" transform="translate(389.257812 0)"/>
     <use xlink:href="#DejaVuSans-20" transform="translate(421.044922 0)"/>
     <use xlink:href="#DejaVuSans-66" transform="translate(452.832031 0)"/>
     <use xlink:href="#DejaVuSans-6f" transform="translate(488.037109 0)"/>
     <use xlink:href="#DejaVuSans-72" transform="translate(549.21875 0)"/>
     <use xlink:href="#DejaVuSans-63" transform="translate(588.082031 0)"/>
     <use xlink:href="#DejaVuSans-65" transform="translate(643.0625 0)"/>
     <use xlink:href="#DejaVuSans-20" transform="translate(704.585938 0)"/>
     <use xlink:href="#DejaVuSans-6c" transform="translate(736.373047 0)"/>
     <use xlink:href="#DejaVuSans-69" transform="translate(764.15625 0)"/>
     <use xlink:href="#DejaVuSans-6d" transform="translate(791.939453 0)"/>
     <use xlink:href="#DejaVuSans-69" transform="translate(889.351562 0)"/>
     <use xlink:href="#DejaVuSans-74" transform="translate(917.134766 0)"/>
     <use xlink:href="#DejaVuSans-73" transform="translate(956.34375 0)"/>
    </g>
   </g>
   <g id="patch_11">
    <path d="M 149.523632 111.207122 
Q 162.256092 105.868568 173.957482 100.962328 
" clip-path="url(#p9bdaf6c1a1)" style="fill: none; stroke: #2d6a9f; stroke-linecap: round"/>
    <path d="M 167.264162 100.515718 
L 173.957482 100.962328 
L 169.584202 106.049018 
z
" clip-path="url(#p9bdaf6c1a1)" style="fill: #2d6a9f; stroke: #2d6a9f; stroke-linecap: round"/>
   </g>
   <g id="patch_12">
    <path d="M 149.671169 199.153573 
Q 171.530845 197.553251 192.27547 196.034562 
" clip-path="url(#p9bdaf6c1a1)" style="fill: none; stroke: #2f855a; stroke-linecap: round"/>
    <path d="M 186.072444 193.480649 
L 192.27547 196.034562 
L 186.510525 199.464635 
z
" clip-path="url(#p9bdaf6c1a1)" style="fill: #2f855a; stroke: #2f855a; stroke-linecap: round"/>
   </g>
  </g>
 </g>
 <defs>
  <clipPath id="p9bdaf6c1a1">
   <rect x="7.2" y="7.2" width="530.1" height="349.272"/>
  </clipPath>
 </defs>
</svg>
