<svg width="3722" height="1865" xmlns="http://www.w3.org/2000/svg" xmlns:xlink="http://www.w3.org/1999/xlink" xml:space="preserve" overflow="hidden"><g transform="translate(-334 -110)"><g><path d="M343.5 156.503C343.5 134.41 361.41 116.5 383.502 116.5L4009.5 116.5C4031.59 116.5 4049.5 134.41 4049.5 156.503L4049.5 316.497C4049.5 338.59 4031.59 356.5 4009.5 356.5L383.502 356.5C361.41 356.5 343.5 338.59 343.5 316.497Z" stroke="#D97706" stroke-width="9.16667" stroke-linecap="butt" stroke-linejoin="round" stroke-miterlimit="10" stroke-opacity="1" fill="#FFFFFF" fill-rule="evenodd" fill-opacity="1"/><text fill="#D97706" fill-opacity="1" font-family="Aptos,Aptos_MSFontService,sans-serif" font-style="normal" font-variant="normal" font-weight="700" font-stretch="normal" font-size="119" text-anchor="start" direction="ltr" writing-mode="lr-tb" unicode-bidi="normal" text-decoration="none" transform="matrix(1 0 0 1 679.33 274)">Two common decision representations in control design</text><path d="M1156.04 1332 1156.04 1421.79 1145.96 1421.79 1145.96 1332ZM1166.13 1416.75 1151 1447 1135.88 1416.75Z" fill="#5B677A" fill-rule="nonzero" fill-opacity="1"/><path d="M3245.04 1332 3245.04 1421.79 3234.96 1421.79 3234.96 1332ZM3255.12 1416.75 3240 1447 3224.88 1416.75Z" fill="#5B677A" fill-rule="nonzero" fill-opacity="1"/><path d="M343.5 577.17C343.5 496.719 408.718 431.5 489.17 431.5L1814.83 431.5C1895.28 431.5 1960.5 496.719 1960.5 577.17L1960.5 1159.83C1960.5 1240.28 1895.28 1305.5 1814.83 1305.5L489.17 1305.5C408.718 1305.5 343.5 1240.28 343.5 1159.83Z" stroke="#123B63" stroke-width="9.16667" stroke-linecap="butt" stroke-linejoin="round" stroke-miterlimit="10" stroke-opacity="1" fill="#EAF2F8" fill-rule="evenodd" fill-opacity="1"/><path d="M2432.5 577.17C2432.5 496.719 2497.72 431.5 2578.17 431.5L3903.83 431.5C3984.28 431.5 4049.5 496.719 4049.5 577.17L4049.5 1159.83C4049.5 1240.28 3984.28 1305.5 3903.83 1305.5L2578.17 1305.5C2497.72 1305.5 2432.5 1240.28 2432.5 1159.83Z" stroke="#2F855A" stroke-width="9.16667" stroke-linecap="butt" stroke-linejoin="round" stroke-miterlimit="10" stroke-opacity="1" fill="#EAF7EF" fill-rule="evenodd" fill-opacity="1"/><path d="M452.5 1525.33C452.5 1493.39 478.393 1467.5 510.334 1467.5L1796.67 1467.5C1828.61 1467.5 1854.5 1493.39 1854.5 1525.33L1854.5 1756.67C1854.5 1788.61 1828.61 1814.5 1796.67 1814.5L510.334 1814.5C478.393 1814.5 452.5 1788.61 452.5 1756.67Z" stroke="#2B6CB0" stroke-width="9.16667" stroke-linecap="butt" stroke-linejoin="round" stroke-miterlimit="10" stroke-opacity="1" fill="#FFFFFF" fill-rule="evenodd" fill-opacity="1"/><path d="M2537.5 1525.33C2537.5 1493.39 2563.39 1467.5 2595.33 1467.5L3882.67 1467.5C3914.61 1467.5 3940.5 1493.39 3940.5 1525.33L3940.5 1756.67C3940.5 1788.61 3914.61 1814.5 3882.67 1814.5L2595.33 1814.5C2563.39 1814.5 2537.5 1788.61 2537.5 1756.67Z" stroke="#2F855A" stroke-width="9.16667" stroke-linecap="butt" stroke-linejoin="round" stroke-miterlimit="10" stroke-opacity="1" fill="#FFFFFF" fill-rule="evenodd" fill-opacity="1"/><text fill="#123B63" fill-opacity="1" font-family="Aptos,Aptos_MSFontService,sans-serif" font-style="normal" font-variant="normal" font-weight="700" font-stretch="normal" font-size="92" text-anchor="start" direction="ltr" writing-mode="lr-tb" unicode-bidi="normal" text-decoration="none" transform="matrix(1 0 0 1 509.013 651)">Control trajectory optimization</text><text fill="#123B63" fill-opacity="1" font-family="Aptos,Aptos_MSFontService,sans-serif" font-style="normal" font-variant="normal" font-weight="700" font-stretch="normal" font-size="83" text-anchor="start" direction="ltr" writing-mode="lr-tb" unicode-bidi="normal" text-decoration="none" transform="matrix(1 0 0 1 814.046 845)">Decision variable:</text><text fill="#123B63" fill-opacity="1" font-family="Aptos,Aptos_MSFontService,sans-serif" font-style="normal" font-variant="normal" font-weight="700" font-stretch="normal" font-size="83" text-anchor="start" direction="ltr" writing-mode="lr-tb" unicode-bidi="normal" text-decoration="none" transform="matrix(1 0 0 1 737.848 944)">u(t) or sampled values</text><text fill="#123B63" fill-opacity="1" font-family="Aptos,Aptos_MSFontService,sans-serif" font-style="normal" font-variant="normal" font-weight="700" font-stretch="normal" font-size="83" text-anchor="start" direction="ltr" writing-mode="lr-tb" unicode-bidi="normal" text-decoration="none" transform="matrix(1 0 0 1 997.219 1043)">u₀, u₁, …</text><text fill="#123B63" fill-opacity="1" font-family="Aptos,Aptos_MSFontService,sans-serif" font-style="normal" font-variant="normal" font-weight="700" font-stretch="normal" font-size="78" text-anchor="start" direction="ltr" writing-mode="lr-tb" unicode-bidi="normal" text-decoration="none" transform="matrix(1 0 0 1 665.362 1225)">Common in optimal control</text><text fill="#2F855A" fill-opacity="1" font-family="Aptos,Aptos_MSFontService,sans-serif" font-style="normal" font-variant="normal" font-weight="700" font-stretch="normal" font-size="87" text-anchor="start" direction="ltr" writing-mode="lr-tb" unicode-bidi="normal" text-decoration="none" transform="matrix(1 0 0 1 2563.25 648)">Controller parameter optimization</text><text fill="#2F855A" fill-opacity="1" font-family="Aptos,Aptos_MSFontService,sans-serif" font-style="normal" font-variant="normal" font-weight="700" font-stretch="normal" font-size="76" text-anchor="start" direction="ltr" writing-mode="lr-tb" unicode-bidi="normal" text-decoration="none" transform="matrix(1 0 0 1 2931.56 866)">Decision variable:</text><text fill="#2F855A" fill-opacity="1" font-family="Aptos,Aptos_MSFontService,sans-serif" font-style="normal" font-variant="normal" font-weight="700" font-stretch="normal" font-size="76" text-anchor="start" direction="ltr" writing-mode="lr-tb" unicode-bidi="normal" text-decoration="none" transform="matrix(1 0 0 1 2715.25 957)">controller gains or coefficients</text><text fill="#2F855A" fill-opacity="1" font-family="Aptos,Aptos_MSFontService,sans-serif" font-style="normal" font-variant="normal" font-weight="700" font-stretch="normal" font-size="76" text-anchor="start" direction="ltr" writing-mode="lr-tb" unicode-bidi="normal" text-decoration="none" transform="matrix(1 0 0 1 2657.15 1047)">Kp, Ki, Kd, or state</text><text fill="#2F855A" fill-opacity="1" font-family="Aptos,Aptos_MSFontService,sans-serif" font-style="normal" font-variant="normal" font-weight="700" font-stretch="normal" font-size="76" text-anchor="start" direction="ltr" writing-mode="lr-tb" unicode-bidi="normal" text-decoration="none" transform="matrix(1 0 0 1 3279.98 1047)">-</text><text fill="#2F855A" fill-opacity="1" font-family="Aptos,Aptos_MSFontService,sans-serif" font-style="normal" font-variant="normal" font-weight="700" font-stretch="normal" font-size="76" text-anchor="start" direction="ltr" writing-mode="lr-tb" unicode-bidi="normal" text-decoration="none" transform="matrix(1 0 0 1 3305.76 1047)">feedback gains</text><text fill="#2F855A" fill-opacity="1" font-family="Aptos,Aptos_MSFontService,sans-serif" font-style="normal" font-variant="normal" font-weight="700" font-stretch="normal" font-size="78" text-anchor="start" direction="ltr" writing-mode="lr-tb" unicode-bidi="normal" text-decoration="none" transform="matrix(1 0 0 1 2770.66 1225)">Common in feedback CCD</text><text fill="#123B63" fill-opacity="1" font-family="Aptos,Aptos_MSFontService,sans-serif" font-style="normal" font-variant="normal" font-weight="400" font-stretch="normal" font-size="83" text-anchor="start" direction="ltr" writing-mode="lr-tb" unicode-bidi="normal" text-decoration="none" transform="matrix(1 0 0 1 710.588 1619)">Flexible, but may be hard</text><text fill="#123B63" fill-opacity="1" font-family="Aptos,Aptos_MSFontService,sans-serif" font-style="normal" font-variant="normal" font-weight="400" font-stretch="normal" font-size="83" text-anchor="start" direction="ltr" writing-mode="lr-tb" unicode-bidi="normal" text-decoration="none" transform="matrix(1 0 0 1 774.48 1718)">to implement directly</text><text fill="#2F855A" fill-opacity="1" font-family="Aptos,Aptos_MSFontService,sans-serif" font-style="normal" font-variant="normal" font-weight="400" font-stretch="normal" font-size="83" text-anchor="start" direction="ltr" writing-mode="lr-tb" unicode-bidi="normal" text-decoration="none" transform="matrix(1 0 0 1 2821.65 1619)">Directly implementable</text><text fill="#2F855A" fill-opacity="1" font-family="Aptos,Aptos_MSFontService,sans-serif" font-style="normal" font-variant="normal" font-weight="400" font-stretch="normal" font-size="83" text-anchor="start" direction="ltr" writing-mode="lr-tb" unicode-bidi="normal" text-decoration="none" transform="matrix(1 0 0 1 2894.18 1718)">controller structure</text><text fill="#5B677A" fill-opacity="1" font-family="Aptos,Aptos_MSFontService,sans-serif" font-style="italic" font-variant="normal" font-weight="400" font-stretch="normal" font-size="69" text-anchor="start" direction="ltr" writing-mode="lr-tb" unicode-bidi="normal" text-decoration="none" transform="matrix(1 0 0 1 723.502 1912)">Choose the decision representation that matches the control architecture and implementation goal.</text></g></g></svg>