<svg width="3781" height="1426" xmlns="http://www.w3.org/2000/svg" xmlns:xlink="http://www.w3.org/1999/xlink" xml:space="preserve" overflow="hidden"><g transform="translate(-275 -540)"><g><path d="M1115 582.334C1115 561.715 1131.71 545 1152.33 545L3246.67 545C3267.29 545 3284 561.715 3284 582.334L3284 731.666C3284 752.285 3267.29 769 3246.67 769L1152.33 769C1131.71 769 1115 752.285 1115 731.666Z" stroke="#123A63" stroke-width="8.25" stroke-linecap="butt" stroke-linejoin="round" stroke-miterlimit="10" stroke-opacity="1" fill="#FFFFFF" fill-rule="evenodd" fill-opacity="1"/><text fill="#123A63" fill-opacity="1" font-family="Aptos Display,Aptos Display_MSFontService,sans-serif" font-style="normal" font-variant="normal" font-weight="700" font-stretch="normal" font-size="117" text-anchor="start" direction="ltr" writing-mode="lr-tb" unicode-bidi="normal" text-decoration="none" transform="matrix(1 0 0 1 1343.02 687)">Open</text><text fill="#123A63" fill-opacity="1" font-family="Aptos Display,Aptos Display_MSFontService,sans-serif" font-style="normal" font-variant="normal" font-weight="700" font-stretch="normal" font-size="117" text-anchor="start" direction="ltr" writing-mode="lr-tb" unicode-bidi="normal" text-decoration="none" transform="matrix(1 0 0 1 1611.14 687)">-</text><text fill="#123A63" fill-opacity="1" font-family="Aptos Display,Aptos Display_MSFontService,sans-serif" font-style="normal" font-variant="normal" font-weight="700" font-stretch="normal" font-size="117" text-anchor="start" direction="ltr" writing-mode="lr-tb" unicode-bidi="normal" text-decoration="none" transform="matrix(1 0 0 1 1653.54 687)">loop optimal control (OLOC)</text><path d="M1231.5 1058 1461 1058 1461 1069 1231.5 1069ZM1455.5 1047 1488.5 1063.5 1455.5 1080Z" fill="#5F6B7A" fill-rule="nonzero" fill-opacity="1"/><path d="M2538.5 1058 2758 1058 2758 1069 2538.5 1069ZM2752.5 1047 2785.5 1063.5 2752.5 1080Z" fill="#5F6B7A" fill-rule="nonzero" fill-opacity="1"/><path d="M281 899.501C281 854.489 317.489 818 362.501 818L1149.5 818C1194.51 818 1231 854.489 1231 899.501L1231 1225.5C1231 1270.51 1194.51 1307 1149.5 1307L362.501 1307C317.489 1307 281 1270.51 281 1225.5Z" stroke="#1F6EA5" stroke-width="10.0833" stroke-linecap="butt" stroke-linejoin="round" stroke-miterlimit="10" stroke-opacity="1" fill="#EAF6FD" fill-rule="evenodd" fill-opacity="1"/><text fill="#123A63" fill-opacity="1" font-family="Aptos,Aptos_MSFontService,sans-serif" font-style="normal" font-variant="normal" font-weight="700" font-stretch="normal" font-size="83" text-anchor="start" direction="ltr" writing-mode="lr-tb" unicode-bidi="normal" text-decoration="none" transform="matrix(1 0 0 1 541.727 1000)">Initial state</text><text fill="#123A63" fill-opacity="1" font-family="Aptos,Aptos_MSFontService,sans-serif" font-style="normal" font-variant="normal" font-weight="700" font-stretch="normal" font-size="83" text-anchor="start" direction="ltr" writing-mode="lr-tb" unicode-bidi="normal" text-decoration="none" transform="matrix(1 0 0 1 492.548 1082)">and predicted</text><text fill="#123A63" fill-opacity="1" font-family="Aptos,Aptos_MSFontService,sans-serif" font-style="normal" font-variant="normal" font-weight="700" font-stretch="normal" font-size="83" text-anchor="start" direction="ltr" writing-mode="lr-tb" unicode-bidi="normal" text-decoration="none" transform="matrix(1 0 0 1 505.381 1164)">disturbances</text><path d="M1485 899.502C1485 854.49 1521.49 818 1566.5 818L2452.5 818C2497.51 818 2534 854.49 2534 899.502L2534 1225.5C2534 1270.51 2497.51 1307 2452.5 1307L1566.5 1307C1521.49 1307 1485 1270.51 1485 1225.5Z" stroke="#123A63" stroke-width="10.0833" stroke-linecap="butt" stroke-linejoin="round" stroke-miterlimit="10" stroke-opacity="1" fill="#F0F7FB" fill-rule="evenodd" fill-opacity="1"/><text fill="#182436" fill-opacity="1" font-family="Aptos,Aptos_MSFontService,sans-serif" font-style="normal" font-variant="normal" font-weight="700" font-stretch="normal" font-size="78" text-anchor="start" direction="ltr" writing-mode="lr-tb" unicode-bidi="normal" text-decoration="none" transform="matrix(1 0 0 1 1607.81 1041)">Optimize an open</text><text fill="#182436" fill-opacity="1" font-family="Aptos,Aptos_MSFontService,sans-serif" font-style="normal" font-variant="normal" font-weight="700" font-stretch="normal" font-size="78" text-anchor="start" direction="ltr" writing-mode="lr-tb" unicode-bidi="normal" text-decoration="none" transform="matrix(1 0 0 1 2227.11 1041)">-</text><text fill="#182436" fill-opacity="1" font-family="Aptos,Aptos_MSFontService,sans-serif" font-style="normal" font-variant="normal" font-weight="700" font-stretch="normal" font-size="78" text-anchor="start" direction="ltr" writing-mode="lr-tb" unicode-bidi="normal" text-decoration="none" transform="matrix(1 0 0 1 2253.46 1041)">loop</text><text fill="#182436" fill-opacity="1" font-family="Aptos,Aptos_MSFontService,sans-serif" font-style="normal" font-variant="normal" font-weight="700" font-stretch="normal" font-size="78" text-anchor="start" direction="ltr" writing-mode="lr-tb" unicode-bidi="normal" text-decoration="none" transform="matrix(1 0 0 1 1634.51 1122)">control trajectory u(t)</text><path d="M2785 899.501C2785 854.49 2821.49 818 2866.5 818L3799.5 818C3844.51 818 3881 854.49 3881 899.501L3881 1225.5C3881 1270.51 3844.51 1307 3799.5 1307L2866.5 1307C2821.49 1307 2785 1270.51 2785 1225.5Z" stroke="#1B7B47" stroke-width="10.0833" stroke-linecap="butt" stroke-linejoin="round" stroke-miterlimit="10" stroke-opacity="1" fill="#ECF8F1" fill-rule="evenodd" fill-opacity="1"/><text fill="#182436" fill-opacity="1" font-family="Aptos,Aptos_MSFontService,sans-serif" font-style="normal" font-variant="normal" font-weight="700" font-stretch="normal" font-size="87" text-anchor="start" direction="ltr" writing-mode="lr-tb" unicode-bidi="normal" text-decoration="none" transform="matrix(1 0 0 1 3029.06 1039)">Predicted plant</text><text fill="#182436" fill-opacity="1" font-family="Aptos,Aptos_MSFontService,sans-serif" font-style="normal" font-variant="normal" font-weight="700" font-stretch="normal" font-size="87" text-anchor="start" direction="ltr" writing-mode="lr-tb" unicode-bidi="normal" text-decoration="none" transform="matrix(1 0 0 1 3076.84 1129)">response x(t)</text><path d="M347 1706.67C347 1678.69 369.685 1656 397.668 1656L4001.33 1656C4029.32 1656 4052 1678.69 4052 1706.67L4052 1909.33C4052 1937.31 4029.32 1960 4001.33 1960L397.668 1960C369.685 1960 347 1937.31 347 1909.33Z" stroke="#C73445" stroke-width="7.79167" stroke-linecap="butt" stroke-linejoin="round" stroke-miterlimit="10" stroke-opacity="1" fill="#FFFFFF" fill-rule="evenodd" fill-opacity="1"/><text fill="#C73445" fill-opacity="1" font-family="Aptos,Aptos_MSFontService,sans-serif" font-style="normal" font-variant="normal" font-weight="400" font-stretch="normal" font-size="73" text-anchor="start" direction="ltr" writing-mode="lr-tb" unicode-bidi="normal" text-decoration="none" transform="matrix(1 0 0 1 1069.98 1788)">The optimized control sequence is </text><text fill="#C73445" fill-opacity="1" font-family="Aptos,Aptos_MSFontService,sans-serif" font-style="normal" font-variant="normal" font-weight="400" font-stretch="normal" font-size="73" text-anchor="start" direction="ltr" writing-mode="lr-tb" unicode-bidi="normal" text-decoration="none" transform="matrix(1 0 0 1 2164.43 1788)">planned in advance</text><text fill="#C73445" fill-opacity="1" font-family="Aptos,Aptos_MSFontService,sans-serif" font-style="normal" font-variant="normal" font-weight="400" font-stretch="normal" font-size="73" text-anchor="start" direction="ltr" writing-mode="lr-tb" unicode-bidi="normal" text-decoration="none" transform="matrix(1 0 0 1 2797.25 1788)">and then applied</text><text fill="#C73445" fill-opacity="1" font-family="Aptos,Aptos_MSFontService,sans-serif" font-style="normal" font-variant="normal" font-weight="400" font-stretch="normal" font-size="73" text-anchor="start" direction="ltr" writing-mode="lr-tb" unicode-bidi="normal" text-decoration="none" transform="matrix(1 0 0 1 1363.66 1869)">without using new measurements during the horizon.</text><text fill="#6C7785" fill-opacity="1" font-family="Aptos,Aptos_MSFontService,sans-serif" font-style="italic" font-variant="normal" font-weight="400" font-stretch="normal" font-size="57" text-anchor="start" direction="ltr" writing-mode="lr-tb" unicode-bidi="normal" text-decoration="none" transform="matrix(1 0 0 1 1662.78 1471)">planned once, then applied over the horizon</text><path d="M594.5 1601.5 3805.5 1601.5" stroke="#DDE5EE" stroke-width="5.04167" stroke-linecap="butt" stroke-linejoin="round" stroke-miterlimit="10" stroke-opacity="1" fill="none" fill-rule="evenodd"/></g></g></svg>