<svg width="3759" height="1283" xmlns="http://www.w3.org/2000/svg" xmlns:xlink="http://www.w3.org/1999/xlink" xml:space="preserve" overflow="hidden"><g transform="translate(-242 -440)"><g><path d="M248.5 482.169C248.5 462.469 264.469 446.5 284.168 446.5L3957.83 446.5C3977.53 446.5 3993.5 462.469 3993.5 482.169L3993.5 624.831C3993.5 644.53 3977.53 660.5 3957.83 660.5L284.168 660.5C264.469 660.5 248.5 644.53 248.5 624.831Z" stroke="#123E67" stroke-width="6.875" stroke-linecap="butt" stroke-linejoin="round" stroke-miterlimit="10" stroke-opacity="1" fill="#FFFFFF" fill-rule="evenodd" fill-opacity="1"/><text fill="#123E67" fill-opacity="1" font-family="Aptos Display,Aptos Display_MSFontService,sans-serif" font-style="normal" font-variant="normal" font-weight="700" font-stretch="normal" font-size="101" text-anchor="start" direction="ltr" writing-mode="lr-tb" unicode-bidi="normal" text-decoration="none" transform="matrix(1 0 0 1 874.523 585)">Moving from OLOC solutions to implementable controllers</text><path d="M1082.5 1076 1160.5 1076 1160.5 1054.5 1203.5 1097.5 1160.5 1140.5 1160.5 1119 1082.5 1119Z" stroke="#5A6470" stroke-width="4.58333" stroke-linecap="butt" stroke-linejoin="miter" stroke-miterlimit="8" stroke-opacity="0" fill="#5A6470" fill-rule="evenodd" fill-opacity="1"/><path d="M2081.5 1076 2157.5 1076 2157.5 1054.5 2200.5 1097.5 2157.5 1140.5 2157.5 1119 2081.5 1119Z" stroke="#5A6470" stroke-width="4.58333" stroke-linecap="butt" stroke-linejoin="miter" stroke-miterlimit="8" stroke-opacity="0" fill="#5A6470" fill-rule="evenodd" fill-opacity="1"/><path d="M3064.5 1076 3143.5 1076 3143.5 1054.5 3186.5 1097.5 3143.5 1140.5 3143.5 1119 3064.5 1119Z" stroke="#5A6470" stroke-width="4.58333" stroke-linecap="butt" stroke-linejoin="miter" stroke-miterlimit="8" stroke-opacity="0" fill="#5A6470" fill-rule="evenodd" fill-opacity="1"/><path d="M248.5 905.668C248.5 852.556 291.556 809.5 344.668 809.5L960.332 809.5C1013.44 809.5 1056.5 852.556 1056.5 905.668L1056.5 1290.33C1056.5 1343.44 1013.44 1386.5 960.332 1386.5L344.668 1386.5C291.556 1386.5 248.5 1343.44 248.5 1290.33Z" stroke="#0B3D69" stroke-width="8.70833" stroke-linecap="butt" stroke-linejoin="round" stroke-miterlimit="10" stroke-opacity="1" fill="#E9F3FB" fill-rule="evenodd" fill-opacity="1"/><text fill="#0B3D69" fill-opacity="1" font-family="Aptos,Aptos_MSFontService,sans-serif" font-style="normal" font-variant="normal" font-weight="700" font-stretch="normal" font-size="78" text-anchor="start" direction="ltr" writing-mode="lr-tb" unicode-bidi="normal" text-decoration="none" transform="matrix(1 0 0 1 541.372 936)">Step 1</text><text fill="#0B3D69" fill-opacity="1" font-family="Aptos,Aptos_MSFontService,sans-serif" font-style="normal" font-variant="normal" font-weight="700" font-stretch="normal" font-size="78" text-anchor="start" direction="ltr" writing-mode="lr-tb" unicode-bidi="normal" text-decoration="none" transform="matrix(1 0 0 1 390.053 1028)">Solve an OLOC </text><text fill="#0B3D69" fill-opacity="1" font-family="Aptos,Aptos_MSFontService,sans-serif" font-style="normal" font-variant="normal" font-weight="700" font-stretch="normal" font-size="78" text-anchor="start" direction="ltr" writing-mode="lr-tb" unicode-bidi="normal" text-decoration="none" transform="matrix(1 0 0 1 501.795 1123)">problem</text><text fill="#0B3D69" fill-opacity="1" font-family="Aptos,Aptos_MSFontService,sans-serif" font-style="normal" font-variant="normal" font-weight="700" font-stretch="normal" font-size="78" text-anchor="start" direction="ltr" writing-mode="lr-tb" unicode-bidi="normal" text-decoration="none" transform="matrix(1 0 0 1 400.274 1215)">for insight or a </text><text fill="#0B3D69" fill-opacity="1" font-family="Aptos,Aptos_MSFontService,sans-serif" font-style="normal" font-variant="normal" font-weight="700" font-stretch="normal" font-size="78" text-anchor="start" direction="ltr" writing-mode="lr-tb" unicode-bidi="normal" text-decoration="none" transform="matrix(1 0 0 1 448.949 1310)">benchmark</text><path d="M1238.5 905.668C1238.5 852.556 1281.56 809.5 1334.67 809.5L1950.33 809.5C2003.44 809.5 2046.5 852.556 2046.5 905.668L2046.5 1290.33C2046.5 1343.44 2003.44 1386.5 1950.33 1386.5L1334.67 1386.5C1281.56 1386.5 1238.5 1343.44 1238.5 1290.33Z" stroke="#D97706" stroke-width="8.70833" stroke-linecap="butt" stroke-linejoin="round" stroke-miterlimit="10" stroke-opacity="1" fill="#FFF5DC" fill-rule="evenodd" fill-opacity="1"/><text fill="#D97706" fill-opacity="1" font-family="Aptos,Aptos_MSFontService,sans-serif" font-style="normal" font-variant="normal" font-weight="700" font-stretch="normal" font-size="78" text-anchor="start" direction="ltr" writing-mode="lr-tb" unicode-bidi="normal" text-decoration="none" transform="matrix(1 0 0 1 1531.37 982)">Step 2</text><text fill="#D97706" fill-opacity="1" font-family="Aptos,Aptos_MSFontService,sans-serif" font-style="normal" font-variant="normal" font-weight="700" font-stretch="normal" font-size="78" text-anchor="start" direction="ltr" writing-mode="lr-tb" unicode-bidi="normal" text-decoration="none" transform="matrix(1 0 0 1 1283.6 1075)">Interpret the control</text><text fill="#D97706" fill-opacity="1" font-family="Aptos,Aptos_MSFontService,sans-serif" font-style="normal" font-variant="normal" font-weight="700" font-stretch="normal" font-size="78" text-anchor="start" direction="ltr" writing-mode="lr-tb" unicode-bidi="normal" text-decoration="none" transform="matrix(1 0 0 1 1436.52 1169)">pattern and </text><text fill="#D97706" fill-opacity="1" font-family="Aptos,Aptos_MSFontService,sans-serif" font-style="normal" font-variant="normal" font-weight="700" font-stretch="normal" font-size="78" text-anchor="start" direction="ltr" writing-mode="lr-tb" unicode-bidi="normal" text-decoration="none" transform="matrix(1 0 0 1 1477.79 1262)">structure</text><path d="M2228.5 905.668C2228.5 852.556 2271.56 809.5 2324.67 809.5L2940.33 809.5C2993.44 809.5 3036.5 852.556 3036.5 905.668L3036.5 1290.33C3036.5 1343.44 2993.44 1386.5 2940.33 1386.5L2324.67 1386.5C2271.56 1386.5 2228.5 1343.44 2228.5 1290.33Z" stroke="#23865A" stroke-width="8.70833" stroke-linecap="butt" stroke-linejoin="round" stroke-miterlimit="10" stroke-opacity="1" fill="#EAF7EF" fill-rule="evenodd" fill-opacity="1"/><text fill="#23865A" fill-opacity="1" font-family="Aptos,Aptos_MSFontService,sans-serif" font-style="normal" font-variant="normal" font-weight="700" font-stretch="normal" font-size="78" text-anchor="start" direction="ltr" writing-mode="lr-tb" unicode-bidi="normal" text-decoration="none" transform="matrix(1 0 0 1 2521.36 982)">Step 3</text><text fill="#23865A" fill-opacity="1" font-family="Aptos,Aptos_MSFontService,sans-serif" font-style="normal" font-variant="normal" font-weight="700" font-stretch="normal" font-size="78" text-anchor="start" direction="ltr" writing-mode="lr-tb" unicode-bidi="normal" text-decoration="none" transform="matrix(1 0 0 1 2283.19 1075)">Choose a realizable</text><text fill="#23865A" fill-opacity="1" font-family="Aptos,Aptos_MSFontService,sans-serif" font-style="normal" font-variant="normal" font-weight="700" font-stretch="normal" font-size="78" text-anchor="start" direction="ltr" writing-mode="lr-tb" unicode-bidi="normal" text-decoration="none" transform="matrix(1 0 0 1 2465.63 1169)">feedback </text><text fill="#23865A" fill-opacity="1" font-family="Aptos,Aptos_MSFontService,sans-serif" font-style="normal" font-variant="normal" font-weight="700" font-stretch="normal" font-size="78" text-anchor="start" direction="ltr" writing-mode="lr-tb" unicode-bidi="normal" text-decoration="none" transform="matrix(1 0 0 1 2413.1 1262)">architecture</text><path d="M3218.5 905.668C3218.5 852.556 3261.56 809.5 3314.67 809.5L3897.33 809.5C3950.44 809.5 3993.5 852.556 3993.5 905.668L3993.5 1290.33C3993.5 1343.44 3950.44 1386.5 3897.33 1386.5L3314.67 1386.5C3261.56 1386.5 3218.5 1343.44 3218.5 1290.33Z" stroke="#7C3AED" stroke-width="8.70833" stroke-linecap="butt" stroke-linejoin="round" stroke-miterlimit="10" stroke-opacity="1" fill="#F4E8FA" fill-rule="evenodd" fill-opacity="1"/><text fill="#7C3AED" fill-opacity="1" font-family="Aptos,Aptos_MSFontService,sans-serif" font-style="normal" font-variant="normal" font-weight="700" font-stretch="normal" font-size="78" text-anchor="start" direction="ltr" writing-mode="lr-tb" unicode-bidi="normal" text-decoration="none" transform="matrix(1 0 0 1 3494.87 1029)">Step 4</text><text fill="#7C3AED" fill-opacity="1" font-family="Aptos,Aptos_MSFontService,sans-serif" font-style="normal" font-variant="normal" font-weight="700" font-stretch="normal" font-size="78" text-anchor="start" direction="ltr" writing-mode="lr-tb" unicode-bidi="normal" text-decoration="none" transform="matrix(1 0 0 1 3349.44 1122)">Co</text><text fill="#7C3AED" fill-opacity="1" font-family="Aptos,Aptos_MSFontService,sans-serif" font-style="normal" font-variant="normal" font-weight="700" font-stretch="normal" font-size="78" text-anchor="start" direction="ltr" writing-mode="lr-tb" unicode-bidi="normal" text-decoration="none" transform="matrix(1 0 0 1 3449.13 1122)">-</text><text fill="#7C3AED" fill-opacity="1" font-family="Aptos,Aptos_MSFontService,sans-serif" font-style="normal" font-variant="normal" font-weight="700" font-stretch="normal" font-size="78" text-anchor="start" direction="ltr" writing-mode="lr-tb" unicode-bidi="normal" text-decoration="none" transform="matrix(1 0 0 1 3475.48 1122)">design and</text><text fill="#7C3AED" fill-opacity="1" font-family="Aptos,Aptos_MSFontService,sans-serif" font-style="normal" font-variant="normal" font-weight="700" font-stretch="normal" font-size="78" text-anchor="start" direction="ltr" writing-mode="lr-tb" unicode-bidi="normal" text-decoration="none" transform="matrix(1 0 0 1 3463.75 1216)">validate</text><path d="M413 1482.67C413 1456.89 433.894 1436 459.668 1436L3946.33 1436C3972.11 1436 3993 1456.89 3993 1482.67L3993 1669.33C3993 1695.11 3972.11 1716 3946.33 1716L459.668 1716C433.894 1716 413 1695.11 413 1669.33Z" stroke="#C73648" stroke-width="6.41667" stroke-linecap="butt" stroke-linejoin="round" stroke-miterlimit="10" stroke-opacity="1" fill="#FFF0F2" fill-rule="evenodd" fill-opacity="1"/><text fill="#C73648" fill-opacity="1" font-family="Aptos,Aptos_MSFontService,sans-serif" font-style="normal" font-variant="normal" font-weight="400" font-stretch="normal" font-size="73" text-anchor="start" direction="ltr" writing-mode="lr-tb" unicode-bidi="normal" text-decoration="none" transform="matrix(1 0 0 1 491.413 1556)">OLOC often provides a useful ideal reference, but a real controller must work with limited measurements and </text><text fill="#C73648" fill-opacity="1" font-family="Aptos,Aptos_MSFontService,sans-serif" font-style="normal" font-variant="normal" font-weight="400" font-stretch="normal" font-size="73" text-anchor="start" direction="ltr" writing-mode="lr-tb" unicode-bidi="normal" text-decoration="none" transform="matrix(1 0 0 1 1745.87 1644)">uncertain future information.</text><text fill="#667085" fill-opacity="1" font-family="Aptos,Aptos_MSFontService,sans-serif" font-style="italic" font-variant="normal" font-weight="400" font-stretch="normal" font-size="60" text-anchor="start" direction="ltr" writing-mode="lr-tb" unicode-bidi="normal" text-decoration="none" transform="matrix(1 0 0 1 1376.4 753)">Open</text><text fill="#667085" fill-opacity="1" font-family="Aptos,Aptos_MSFontService,sans-serif" font-style="italic" font-variant="normal" font-weight="400" font-stretch="normal" font-size="60" text-anchor="start" direction="ltr" writing-mode="lr-tb" unicode-bidi="normal" text-decoration="none" transform="matrix(1 0 0 1 1517.34 753)">-</text><text fill="#667085" fill-opacity="1" font-family="Aptos,Aptos_MSFontService,sans-serif" font-style="italic" font-variant="normal" font-weight="400" font-stretch="normal" font-size="60" text-anchor="start" direction="ltr" writing-mode="lr-tb" unicode-bidi="normal" text-decoration="none" transform="matrix(1 0 0 1 1537.39 753)">loop optimal control </text><text fill="#667085" fill-opacity="1" font-family="Aptos,Aptos_MSFontService,sans-serif" font-style="italic" font-variant="normal" font-weight="400" font-stretch="normal" font-size="60" text-anchor="start" direction="ltr" writing-mode="lr-tb" unicode-bidi="normal" text-decoration="none" transform="matrix(1 0 0 1 2067.15 753)">→ implementable closed loop  control</text></g></g></svg>