<svg width="3832" height="1889" xmlns="http://www.w3.org/2000/svg" xmlns:xlink="http://www.w3.org/1999/xlink" xml:space="preserve" overflow="hidden"><g transform="translate(-412 -462)"><g><path d="M872 509.637C872 487.746 889.746 470 911.637 470L3488.36 470C3510.25 470 3528 487.746 3528 509.637L3528 648.363C3528 670.254 3510.25 688 3488.36 688L911.637 688C889.746 688 872 670.254 872 648.363Z" stroke="#B73A4A" stroke-width="10.3125" stroke-linecap="butt" stroke-linejoin="round" stroke-miterlimit="10" stroke-opacity="1" fill="#FFFFFF" fill-rule="evenodd" fill-opacity="1"/><text fill="#B73A4A" fill-opacity="1" font-family="Arial,Arial_MSFontService,sans-serif" font-style="normal" font-variant="normal" font-weight="700" font-stretch="normal" font-size="105" text-anchor="start" direction="ltr" writing-mode="lr-tb" unicode-bidi="normal" text-decoration="none" transform="matrix(1 0 0 1 1095.42 619)">Why perfect future information is unrealistic</text><path d="M413.5 1431 3907 1431 3907 1442 413.5 1442ZM3901.5 1420 3934.5 1436.5 3901.5 1453Z" fill="#5B6573" fill-rule="nonzero" fill-opacity="1"/><text fill="#5B6573" fill-opacity="1" font-family="Arial,Arial_MSFontService,sans-serif" font-style="normal" font-variant="normal" font-weight="400" font-stretch="normal" font-size="73" text-anchor="start" direction="ltr" writing-mode="lr-tb" unicode-bidi="normal" text-decoration="none" transform="matrix(1 0 0 1 4009.5 1433)">time</text><path d="M809 1353 809 1518" stroke="#5B6573" stroke-width="8.25" stroke-linecap="butt" stroke-linejoin="round" stroke-miterlimit="10" stroke-opacity="1" fill="none" fill-rule="evenodd"/><text fill="#5B6573" fill-opacity="1" font-family="Arial,Arial_MSFontService,sans-serif" font-style="normal" font-variant="normal" font-weight="400" font-stretch="normal" font-size="69" text-anchor="start" direction="ltr" writing-mode="lr-tb" unicode-bidi="normal" text-decoration="none" transform="matrix(1 0 0 1 745.193 1633)">now</text><path d="M1865 1353 1865 1518" stroke="#5B6573" stroke-width="8.25" stroke-linecap="butt" stroke-linejoin="round" stroke-miterlimit="10" stroke-opacity="1" fill="none" fill-rule="evenodd"/><text fill="#5B6573" fill-opacity="1" font-family="Arial,Arial_MSFontService,sans-serif" font-style="normal" font-variant="normal" font-weight="400" font-stretch="normal" font-size="69" text-anchor="start" direction="ltr" writing-mode="lr-tb" unicode-bidi="normal" text-decoration="none" transform="matrix(1 0 0 1 1698.07 1633)">near future</text><path d="M3119 1353 3119 1518" stroke="#5B6573" stroke-width="8.25" stroke-linecap="butt" stroke-linejoin="round" stroke-miterlimit="10" stroke-opacity="1" fill="none" fill-rule="evenodd"/><text fill="#5B6573" fill-opacity="1" font-family="Arial,Arial_MSFontService,sans-serif" font-style="normal" font-variant="normal" font-weight="400" font-stretch="normal" font-size="69" text-anchor="start" direction="ltr" writing-mode="lr-tb" unicode-bidi="normal" text-decoration="none" transform="matrix(1 0 0 1 2981 1633)">far future</text><path d="M528 815.53C528 793.698 545.698 776 567.53 776L1577.47 776C1599.3 776 1617 793.698 1617 815.53L1617 1072.47C1617 1094.3 1599.3 1112 1577.47 1112L567.53 1112C545.698 1112 528 1094.3 528 1072.47Z" stroke="#2F6EA7" stroke-width="10.3125" stroke-linecap="butt" stroke-linejoin="round" stroke-miterlimit="10" stroke-opacity="1" fill="#EAF5FF" fill-rule="evenodd" fill-opacity="1"/><text fill="#0B3A66" fill-opacity="1" font-family="Arial,Arial_MSFontService,sans-serif" font-style="normal" font-variant="normal" font-weight="400" font-stretch="normal" font-size="83" text-anchor="start" direction="ltr" writing-mode="lr-tb" unicode-bidi="normal" text-decoration="none" transform="matrix(1 0 0 1 703.541 925)">Known or measured</text><text fill="#0B3A66" fill-opacity="1" font-family="Arial,Arial_MSFontService,sans-serif" font-style="normal" font-variant="normal" font-weight="400" font-stretch="normal" font-size="83" text-anchor="start" direction="ltr" writing-mode="lr-tb" unicode-bidi="normal" text-decoration="none" transform="matrix(1 0 0 1 763.125 1024)">initial information</text><path d="M1700 815.53C1700 793.698 1717.7 776 1739.53 776L2683.47 776C2705.3 776 2723 793.698 2723 815.53L2723 1072.47C2723 1094.3 2705.3 1112 2683.47 1112L1739.53 1112C1717.7 1112 1700 1094.3 1700 1072.47Z" stroke="#D97706" stroke-width="10.3125" stroke-linecap="butt" stroke-linejoin="round" stroke-miterlimit="10" stroke-opacity="1" fill="#FFF4D6" fill-rule="evenodd" fill-opacity="1"/><text fill="#D97706" fill-opacity="1" font-family="Arial,Arial_MSFontService,sans-serif" font-style="normal" font-variant="normal" font-weight="400" font-stretch="normal" font-size="83" text-anchor="start" direction="ltr" writing-mode="lr-tb" unicode-bidi="normal" text-decoration="none" transform="matrix(1 0 0 1 1812.25 925)">Forecast or prediction</text><text fill="#D97706" fill-opacity="1" font-family="Arial,Arial_MSFontService,sans-serif" font-style="normal" font-variant="normal" font-weight="400" font-stretch="normal" font-size="83" text-anchor="start" direction="ltr" writing-mode="lr-tb" unicode-bidi="normal" text-decoration="none" transform="matrix(1 0 0 1 1924.54 1024)">with uncertainty</text><path d="M2864 815.53C2864 793.698 2881.7 776 2903.53 776L3874.47 776C3896.3 776 3914 793.698 3914 815.53L3914 1072.47C3914 1094.3 3896.3 1112 3874.47 1112L2903.53 1112C2881.7 1112 2864 1094.3 2864 1072.47Z" stroke="#7A3FF2" stroke-width="10.3125" stroke-linecap="butt" stroke-linejoin="round" stroke-miterlimit="10" stroke-opacity="1" fill="#F7E8FF" fill-rule="evenodd" fill-opacity="1"/><text fill="#7A3FF2" fill-opacity="1" font-family="Arial,Arial_MSFontService,sans-serif" font-style="normal" font-variant="normal" font-weight="400" font-stretch="normal" font-size="83" text-anchor="start" direction="ltr" writing-mode="lr-tb" unicode-bidi="normal" text-decoration="none" transform="matrix(1 0 0 1 3005.64 925)">Truly unknown future</text><text fill="#7A3FF2" fill-opacity="1" font-family="Arial,Arial_MSFontService,sans-serif" font-style="normal" font-variant="normal" font-weight="400" font-stretch="normal" font-size="83" text-anchor="start" direction="ltr" writing-mode="lr-tb" unicode-bidi="normal" text-decoration="none" transform="matrix(1 0 0 1 2965.14 1024)">disturbances and noise</text><path d="M1061.08 1112.5 1061.08 1330.58 1051.92 1330.58 1051.92 1112.5ZM1070.25 1326 1056.5 1353.5 1042.75 1326Z" fill="#0B3A66" fill-rule="nonzero" fill-opacity="1"/><path d="M2216.08 1112.5 2216.08 1330.58 2206.92 1330.58 2206.92 1112.5ZM2225.25 1326 2211.5 1353.5 2197.75 1326Z" fill="#D97706" fill-rule="nonzero" fill-opacity="1"/><path d="M3388.08 1112.5 3388.08 1330.58 3378.92 1330.58 3378.92 1112.5ZM3397.25 1326 3383.5 1353.5 3369.75 1326Z" fill="#7A3FF2" fill-rule="nonzero" fill-opacity="1"/><path d="M578.5 1832.45C578.5 1814.25 593.253 1799.5 611.452 1799.5L3828.55 1799.5C3846.75 1799.5 3861.5 1814.25 3861.5 1832.45L3861.5 2112.55C3861.5 2130.75 3846.75 2145.5 3828.55 2145.5L611.452 2145.5C593.253 2145.5 578.5 2130.75 578.5 2112.55Z" stroke="#B73A4A" stroke-width="9.16667" stroke-linecap="butt" stroke-linejoin="round" stroke-miterlimit="10" stroke-opacity="1" fill="#FFF2F4" fill-rule="evenodd" fill-opacity="1"/><text fill="#B73A4A" fill-opacity="1" font-family="Arial,Arial_MSFontService,sans-serif" font-style="normal" font-variant="normal" font-weight="400" font-stretch="normal" font-size="80" text-anchor="start" direction="ltr" writing-mode="lr-tb" unicode-bidi="normal" text-decoration="none" transform="matrix(1 0 0 1 1027.01 1952)">An OLOC solution can perform very well for the predicted scenario,</text><text fill="#B73A4A" fill-opacity="1" font-family="Arial,Arial_MSFontService,sans-serif" font-style="normal" font-variant="normal" font-weight="400" font-stretch="normal" font-size="80" text-anchor="start" direction="ltr" writing-mode="lr-tb" unicode-bidi="normal" text-decoration="none" transform="matrix(1 0 0 1 995.935 2048)">but may degrade when realized disturbances differ from the forecast.</text><text fill="#6B7280" fill-opacity="1" font-family="Arial,Arial_MSFontService,sans-serif" font-style="italic" font-variant="normal" font-weight="400" font-stretch="normal" font-size="62" text-anchor="start" direction="ltr" writing-mode="lr-tb" unicode-bidi="normal" text-decoration="none" transform="matrix(1 0 0 1 1214.47 2297)">Prediction becomes less reliable as the decision horizon moves forward.</text></g></g></svg>