<svg width="3854" height="2196" xmlns="http://www.w3.org/2000/svg" xmlns:xlink="http://www.w3.org/1999/xlink" xml:space="preserve" overflow="hidden"><g transform="translate(-174 -100)"><g><path d="M990.5 165.808C990.5 133.053 1017.05 106.5 1049.81 106.5L3357.19 106.5C3389.95 106.5 3416.5 133.053 3416.5 165.808L3416.5 304.192C3416.5 336.947 3389.95 363.5 3357.19 363.5L1049.81 363.5C1017.05 363.5 990.5 336.947 990.5 304.192Z" stroke="#7C3AED" stroke-width="9.16667" stroke-linecap="butt" stroke-linejoin="round" stroke-miterlimit="10" stroke-opacity="1" fill="#FFFFFF" fill-rule="evenodd" fill-opacity="1"/><text fill="#7C3AED" fill-opacity="1" font-family="Aptos,Aptos_MSFontService,sans-serif" font-style="normal" font-variant="normal" font-weight="700" font-stretch="normal" font-size="115" text-anchor="start" direction="ltr" writing-mode="lr-tb" unicode-bidi="normal" text-decoration="none" transform="matrix(1 0 0 1 1399.36 262)">Model predictive control (MPC)</text><text fill="#5A6472" fill-opacity="1" font-family="Aptos,Aptos_MSFontService,sans-serif" font-style="normal" font-variant="normal" font-weight="400" font-stretch="normal" font-size="69" text-anchor="start" direction="ltr" writing-mode="lr-tb" unicode-bidi="normal" text-decoration="none" transform="matrix(1 0 0 1 837.421 487)">Receding</text><text fill="#5A6472" fill-opacity="1" font-family="Aptos,Aptos_MSFontService,sans-serif" font-style="normal" font-variant="normal" font-weight="400" font-stretch="normal" font-size="69" text-anchor="start" direction="ltr" writing-mode="lr-tb" unicode-bidi="normal" text-decoration="none" transform="matrix(1 0 0 1 1113.57 487)">-</text><text fill="#5A6472" fill-opacity="1" font-family="Aptos,Aptos_MSFontService,sans-serif" font-style="normal" font-variant="normal" font-weight="400" font-stretch="normal" font-size="69" text-anchor="start" direction="ltr" writing-mode="lr-tb" unicode-bidi="normal" text-decoration="none" transform="matrix(1 0 0 1 1137.06 487)">horizon logic: solve a finite</text><text fill="#5A6472" fill-opacity="1" font-family="Aptos,Aptos_MSFontService,sans-serif" font-style="normal" font-variant="normal" font-weight="400" font-stretch="normal" font-size="69" text-anchor="start" direction="ltr" writing-mode="lr-tb" unicode-bidi="normal" text-decoration="none" transform="matrix(1 0 0 1 1914.76 487)">-</text><text fill="#5A6472" fill-opacity="1" font-family="Aptos,Aptos_MSFontService,sans-serif" font-style="normal" font-variant="normal" font-weight="400" font-stretch="normal" font-size="69" text-anchor="start" direction="ltr" writing-mode="lr-tb" unicode-bidi="normal" text-decoration="none" transform="matrix(1 0 0 1 1938.25 487)">horizon problem, apply only the first input, then repeat.</text><path d="M545.5 1827.92 3657.59 1827.92 3657.59 1837.08 545.5 1837.08ZM3653 1818.75 3680.5 1832.5 3653 1846.25Z" fill="#5A6472" fill-rule="nonzero" fill-opacity="1"/><path d="M809.5 1779.5 809.5 1884.5" stroke="#5A6472" stroke-width="5.04167" stroke-linecap="butt" stroke-linejoin="round" stroke-miterlimit="10" stroke-opacity="1" fill="none" fill-rule="evenodd"/><text fill="#5A6472" fill-opacity="1" font-family="Aptos,Aptos_MSFontService,sans-serif" font-style="normal" font-variant="normal" font-weight="400" font-stretch="normal" font-size="55" text-anchor="start" direction="ltr" writing-mode="lr-tb" unicode-bidi="normal" text-decoration="none" transform="matrix(1 0 0 1 795.036 1963)">k</text><path d="M1320.5 1779.5 1320.5 1884.5" stroke="#5A6472" stroke-width="5.04167" stroke-linecap="butt" stroke-linejoin="round" stroke-miterlimit="10" stroke-opacity="1" fill="none" fill-rule="evenodd"/><text fill="#5A6472" fill-opacity="1" font-family="Aptos,Aptos_MSFontService,sans-serif" font-style="normal" font-variant="normal" font-weight="400" font-stretch="normal" font-size="55" text-anchor="start" direction="ltr" writing-mode="lr-tb" unicode-bidi="normal" text-decoration="none" transform="matrix(1 0 0 1 1277.32 1963)">k+1</text><path d="M1832.5 1779.5 1832.5 1884.5" stroke="#5A6472" stroke-width="5.04167" stroke-linecap="butt" stroke-linejoin="round" stroke-miterlimit="10" stroke-opacity="1" fill="none" fill-rule="evenodd"/><text fill="#5A6472" fill-opacity="1" font-family="Aptos,Aptos_MSFontService,sans-serif" font-style="normal" font-variant="normal" font-weight="400" font-stretch="normal" font-size="55" text-anchor="start" direction="ltr" writing-mode="lr-tb" unicode-bidi="normal" text-decoration="none" transform="matrix(1 0 0 1 1788.82 1963)">k+2</text><path d="M2343.5 1779.5 2343.5 1884.5" stroke="#5A6472" stroke-width="5.04167" stroke-linecap="butt" stroke-linejoin="round" stroke-miterlimit="10" stroke-opacity="1" fill="none" fill-rule="evenodd"/><text fill="#5A6472" fill-opacity="1" font-family="Aptos,Aptos_MSFontService,sans-serif" font-style="normal" font-variant="normal" font-weight="400" font-stretch="normal" font-size="55" text-anchor="start" direction="ltr" writing-mode="lr-tb" unicode-bidi="normal" text-decoration="none" transform="matrix(1 0 0 1 2300.32 1963)">k+3</text><path d="M2855.5 1779.5 2855.5 1884.5" stroke="#5A6472" stroke-width="5.04167" stroke-linecap="butt" stroke-linejoin="round" stroke-miterlimit="10" stroke-opacity="1" fill="none" fill-rule="evenodd"/><text fill="#5A6472" fill-opacity="1" font-family="Aptos,Aptos_MSFontService,sans-serif" font-style="normal" font-variant="normal" font-weight="400" font-stretch="normal" font-size="55" text-anchor="start" direction="ltr" writing-mode="lr-tb" unicode-bidi="normal" text-decoration="none" transform="matrix(1 0 0 1 2811.82 1963)">k+4</text><path d="M3366.5 1779.5 3366.5 1884.5" stroke="#5A6472" stroke-width="5.04167" stroke-linecap="butt" stroke-linejoin="round" stroke-miterlimit="10" stroke-opacity="1" fill="none" fill-rule="evenodd"/><text fill="#5A6472" fill-opacity="1" font-family="Aptos,Aptos_MSFontService,sans-serif" font-style="normal" font-variant="normal" font-weight="400" font-stretch="normal" font-size="55" text-anchor="start" direction="ltr" writing-mode="lr-tb" unicode-bidi="normal" text-decoration="none" transform="matrix(1 0 0 1 3323.32 1963)">k+5</text><text fill="#5A6472" fill-opacity="1" font-family="Aptos,Aptos_MSFontService,sans-serif" font-style="normal" font-variant="normal" font-weight="400" font-stretch="normal" font-size="55" text-anchor="start" direction="ltr" writing-mode="lr-tb" unicode-bidi="normal" text-decoration="none" transform="matrix(1 0 0 1 3729.27 1854)">time</text><path d="M431.979 865 431.979 1007.08 426.021 1007.08 426.021 865ZM442.75 1002.5 429 1030 415.25 1002.5Z" fill="#5A6472" fill-rule="nonzero" fill-opacity="1"/><path d="M431.979 1218 431.979 1360.08 426.021 1360.08 426.021 1218ZM442.75 1355.5 429 1383 415.25 1355.5Z" fill="#5A6472" fill-rule="nonzero" fill-opacity="1"/><text fill="#5A6472" fill-opacity="1" font-family="Aptos,Aptos_MSFontService,sans-serif" font-style="normal" font-variant="normal" font-weight="400" font-stretch="normal" font-size="50" text-anchor="start" direction="ltr" writing-mode="lr-tb" unicode-bidi="normal" text-decoration="none" transform="matrix(1 0 0 1 430.386 1321)">repeat with new measurement</text><path d="M182.5 736.844C182.5 704.069 209.069 677.5 241.844 677.5L558.156 677.5C590.931 677.5 617.5 704.069 617.5 736.844L617.5 829.157C617.5 861.931 590.931 888.501 558.156 888.501L241.844 888.5C209.069 888.5 182.5 861.931 182.5 829.156Z" stroke="#1F5F9F" stroke-width="9.16667" stroke-linecap="butt" stroke-linejoin="round" stroke-miterlimit="10" stroke-opacity="1" fill="#FFFFFF" fill-rule="evenodd" fill-opacity="1"/><text fill="#1F5F9F" fill-opacity="1" font-family="Aptos,Aptos_MSFontService,sans-serif" font-style="normal" font-variant="normal" font-weight="700" font-stretch="normal" font-size="69" text-anchor="start" direction="ltr" writing-mode="lr-tb" unicode-bidi="normal" text-decoration="none" transform="matrix(1 0 0 1 302.763 797)">time k</text><path d="M809.5 736.844C809.5 704.069 836.069 677.5 868.844 677.5L2284.16 677.5C2316.93 677.5 2343.5 704.069 2343.5 736.844L2343.5 829.156C2343.5 861.931 2316.93 888.5 2284.16 888.5L868.844 888.5C836.069 888.5 809.5 861.931 809.5 829.156Z" stroke="#1F5F9F" stroke-width="9.16667" stroke-linecap="butt" stroke-linejoin="round" stroke-miterlimit="10" stroke-opacity="1" fill="#EAF4FF" fill-rule="evenodd" fill-opacity="1"/><rect x="820.5" y="688.5" width="488" height="188" stroke="#1F5F9F" stroke-width="4.58333" stroke-linecap="butt" stroke-linejoin="round" stroke-miterlimit="10" stroke-opacity="0" fill="#1F5F9F" fill-opacity="0.180392"/><text fill="#1F5F9F" fill-opacity="1" font-family="Aptos,Aptos_MSFontService,sans-serif" font-style="normal" font-variant="normal" font-weight="700" font-stretch="normal" font-size="60" text-anchor="start" direction="ltr" writing-mode="lr-tb" unicode-bidi="normal" text-decoration="none" transform="matrix(1 0 0 1 957.401 802)">apply u</text><text fill="#1F5F9F" fill-opacity="1" font-family="Segoe UI Symbol,Segoe UI Symbol_MSFontService,sans-serif" font-style="normal" font-variant="normal" font-weight="700" font-stretch="normal" font-size="60" text-anchor="start" direction="ltr" writing-mode="lr-tb" unicode-bidi="normal" text-decoration="none" transform="matrix(1 0 0 1 1153.34 802)">ₖ</text><text fill="#1F5F9F" fill-opacity="1" font-family="Aptos,Aptos_MSFontService,sans-serif" font-style="normal" font-variant="normal" font-weight="400" font-stretch="normal" font-size="60" text-anchor="start" direction="ltr" writing-mode="lr-tb" unicode-bidi="normal" text-decoration="none" transform="matrix(1 0 0 1 1595.88 801)">prediction horizon</text><text fill="#1F5F9F" fill-opacity="1" font-family="Aptos,Aptos_MSFontService,sans-serif" font-style="normal" font-variant="normal" font-weight="400" font-stretch="normal" font-size="50" text-anchor="start" direction="ltr" writing-mode="lr-tb" unicode-bidi="normal" text-decoration="none" transform="matrix(1 0 0 1 716.982 656)">measure</text><path d="M182.5 1089.84C182.5 1057.07 209.069 1030.5 241.844 1030.5L558.156 1030.5C590.931 1030.5 617.5 1057.07 617.5 1089.84L617.5 1182.16C617.5 1214.93 590.931 1241.5 558.156 1241.5L241.844 1241.5C209.069 1241.5 182.5 1214.93 182.5 1182.16Z" stroke="#D97706" stroke-width="9.16667" stroke-linecap="butt" stroke-linejoin="round" stroke-miterlimit="10" stroke-opacity="1" fill="#FFFFFF" fill-rule="evenodd" fill-opacity="1"/><text fill="#D97706" fill-opacity="1" font-family="Aptos,Aptos_MSFontService,sans-serif" font-style="normal" font-variant="normal" font-weight="700" font-stretch="normal" font-size="69" text-anchor="start" direction="ltr" writing-mode="lr-tb" unicode-bidi="normal" text-decoration="none" transform="matrix(1 0 0 1 266.097 1150)">time k+1</text><path d="M1320.5 1089.84C1320.5 1057.07 1347.07 1030.5 1379.84 1030.5L2796.16 1030.5C2828.93 1030.5 2855.5 1057.07 2855.5 1089.84L2855.5 1182.16C2855.5 1214.93 2828.93 1241.5 2796.16 1241.5L1379.84 1241.5C1347.07 1241.5 1320.5 1214.93 1320.5 1182.16Z" stroke="#D97706" stroke-width="9.16667" stroke-linecap="butt" stroke-linejoin="round" stroke-miterlimit="10" stroke-opacity="1" fill="#FFF3DE" fill-rule="evenodd" fill-opacity="1"/><rect x="1332.5" y="1041.5" width="488" height="188" stroke="#D97706" stroke-width="4.58333" stroke-linecap="butt" stroke-linejoin="round" stroke-miterlimit="10" stroke-opacity="0" fill="#D97706" fill-opacity="0.180392"/><text fill="#D97706" fill-opacity="1" font-family="Aptos,Aptos_MSFontService,sans-serif" font-style="normal" font-variant="normal" font-weight="700" font-stretch="normal" font-size="60" text-anchor="start" direction="ltr" writing-mode="lr-tb" unicode-bidi="normal" text-decoration="none" transform="matrix(1 0 0 1 1446.27 1155)">apply u</text><text fill="#D97706" fill-opacity="1" font-family="Segoe UI Symbol,Segoe UI Symbol_MSFontService,sans-serif" font-style="normal" font-variant="normal" font-weight="700" font-stretch="normal" font-size="60" text-anchor="start" direction="ltr" writing-mode="lr-tb" unicode-bidi="normal" text-decoration="none" transform="matrix(1 0 0 1 1642.21 1155)">ₖ</text><text fill="#D97706" fill-opacity="1" font-family="Cambria Math,Cambria Math_MSFontService,sans-serif" font-style="normal" font-variant="normal" font-weight="700" font-stretch="normal" font-size="60" text-anchor="start" direction="ltr" writing-mode="lr-tb" unicode-bidi="normal" text-decoration="none" transform="matrix(1 0 0 1 1659.97 1155)">₊</text><text fill="#D97706" fill-opacity="1" font-family="Aptos,Aptos_MSFontService,sans-serif" font-style="normal" font-variant="normal" font-weight="700" font-stretch="normal" font-size="60" text-anchor="start" direction="ltr" writing-mode="lr-tb" unicode-bidi="normal" text-decoration="none" transform="matrix(1 0 0 1 1684.03 1155)">₁</text><text fill="#D97706" fill-opacity="1" font-family="Aptos,Aptos_MSFontService,sans-serif" font-style="normal" font-variant="normal" font-weight="400" font-stretch="normal" font-size="60" text-anchor="start" direction="ltr" writing-mode="lr-tb" unicode-bidi="normal" text-decoration="none" transform="matrix(1 0 0 1 2107.38 1154)">prediction horizon</text><text fill="#D97706" fill-opacity="1" font-family="Aptos,Aptos_MSFontService,sans-serif" font-style="normal" font-variant="normal" font-weight="400" font-stretch="normal" font-size="50" text-anchor="start" direction="ltr" writing-mode="lr-tb" unicode-bidi="normal" text-decoration="none" transform="matrix(1 0 0 1 1228.48 1010)">measure</text><path d="M182.5 1442.84C182.5 1410.07 209.069 1383.5 241.844 1383.5L558.156 1383.5C590.931 1383.5 617.5 1410.07 617.5 1442.84L617.5 1535.16C617.5 1567.93 590.931 1594.5 558.156 1594.5L241.844 1594.5C209.069 1594.5 182.5 1567.93 182.5 1535.16Z" stroke="#16834A" stroke-width="9.16667" stroke-linecap="butt" stroke-linejoin="round" stroke-miterlimit="10" stroke-opacity="1" fill="#FFFFFF" fill-rule="evenodd" fill-opacity="1"/><text fill="#16834A" fill-opacity="1" font-family="Aptos,Aptos_MSFontService,sans-serif" font-style="normal" font-variant="normal" font-weight="700" font-stretch="normal" font-size="69" text-anchor="start" direction="ltr" writing-mode="lr-tb" unicode-bidi="normal" text-decoration="none" transform="matrix(1 0 0 1 266.097 1503)">time k+2</text><path d="M1832.5 1442.84C1832.5 1410.07 1859.07 1383.5 1891.84 1383.5L3307.16 1383.5C3339.93 1383.5 3366.5 1410.07 3366.5 1442.84L3366.5 1535.16C3366.5 1567.93 3339.93 1594.5 3307.16 1594.5L1891.84 1594.5C1859.07 1594.5 1832.5 1567.93 1832.5 1535.16Z" stroke="#16834A" stroke-width="9.16667" stroke-linecap="butt" stroke-linejoin="round" stroke-miterlimit="10" stroke-opacity="1" fill="#EAF8EF" fill-rule="evenodd" fill-opacity="1"/><rect x="1843.5" y="1394.5" width="488" height="188" stroke="#16834A" stroke-width="4.58333" stroke-linecap="butt" stroke-linejoin="round" stroke-miterlimit="10" stroke-opacity="0" fill="#16834A" fill-opacity="0.180392"/><text fill="#16834A" fill-opacity="1" font-family="Aptos,Aptos_MSFontService,sans-serif" font-style="normal" font-variant="normal" font-weight="700" font-stretch="normal" font-size="60" text-anchor="start" direction="ltr" writing-mode="lr-tb" unicode-bidi="normal" text-decoration="none" transform="matrix(1 0 0 1 1957.77 1509)">apply u</text><text fill="#16834A" fill-opacity="1" font-family="Segoe UI Symbol,Segoe UI Symbol_MSFontService,sans-serif" font-style="normal" font-variant="normal" font-weight="700" font-stretch="normal" font-size="60" text-anchor="start" direction="ltr" writing-mode="lr-tb" unicode-bidi="normal" text-decoration="none" transform="matrix(1 0 0 1 2153.71 1509)">ₖ</text><text fill="#16834A" fill-opacity="1" font-family="Cambria Math,Cambria Math_MSFontService,sans-serif" font-style="normal" font-variant="normal" font-weight="700" font-stretch="normal" font-size="60" text-anchor="start" direction="ltr" writing-mode="lr-tb" unicode-bidi="normal" text-decoration="none" transform="matrix(1 0 0 1 2171.47 1509)">₊</text><text fill="#16834A" fill-opacity="1" font-family="Aptos,Aptos_MSFontService,sans-serif" font-style="normal" font-variant="normal" font-weight="700" font-stretch="normal" font-size="60" text-anchor="start" direction="ltr" writing-mode="lr-tb" unicode-bidi="normal" text-decoration="none" transform="matrix(1 0 0 1 2195.53 1509)">₂</text><text fill="#16834A" fill-opacity="1" font-family="Aptos,Aptos_MSFontService,sans-serif" font-style="normal" font-variant="normal" font-weight="400" font-stretch="normal" font-size="60" text-anchor="start" direction="ltr" writing-mode="lr-tb" unicode-bidi="normal" text-decoration="none" transform="matrix(1 0 0 1 2618.88 1508)">prediction horizon</text><text fill="#16834A" fill-opacity="1" font-family="Aptos,Aptos_MSFontService,sans-serif" font-style="normal" font-variant="normal" font-weight="400" font-stretch="normal" font-size="50" text-anchor="start" direction="ltr" writing-mode="lr-tb" unicode-bidi="normal" text-decoration="none" transform="matrix(1 0 0 1 1739.98 1363)">measure</text><path d="M429.5 2155.78C429.5 2123.04 456.038 2096.5 488.775 2096.5L3885.22 2096.5C3917.96 2096.5 3944.5 2123.04 3944.5 2155.78L3944.5 2228.22C3944.5 2260.96 3917.96 2287.5 3885.22 2287.5L488.775 2287.5C456.038 2287.5 429.5 2260.96 429.5 2228.22Z" stroke="#C02636" stroke-width="9.16667" stroke-linecap="butt" stroke-linejoin="round" stroke-miterlimit="10" stroke-opacity="1" fill="#FFF0F2" fill-rule="evenodd" fill-opacity="1"/><text fill="#C02636" fill-opacity="1" font-family="Aptos,Aptos_MSFontService,sans-serif" font-style="normal" font-variant="normal" font-weight="700" font-stretch="normal" font-size="69" text-anchor="start" direction="ltr" writing-mode="lr-tb" unicode-bidi="normal" text-decoration="none" transform="matrix(1 0 0 1 822.559 2210)">At each step, MPC solves a new optimal control problem using the latest state estimate.</text></g></g></svg>