<svg width="3694" height="1710" xmlns="http://www.w3.org/2000/svg" xmlns:xlink="http://www.w3.org/1999/xlink" xml:space="preserve" overflow="hidden"><g transform="translate(-247 -430)"><g><path d="M1122 1081.96 1172.79 1081.96 1172.79 1092.04 1122 1092.04ZM1167.75 1071.88 1198 1087 1167.75 1102.13Z" fill="#5A6673" fill-rule="nonzero" fill-opacity="1"/><path d="M2063 1081.96 2116.79 1081.96 2116.79 1092.04 2063 1092.04ZM2111.75 1071.88 2142 1087 2111.75 1102.13Z" fill="#5A6673" fill-rule="nonzero" fill-opacity="1"/><path d="M3006 1081.96 3056.79 1081.96 3056.79 1092.04 3006 1092.04ZM3051.75 1071.88 3082 1087 3051.75 1102.13Z" fill="#5A6673" fill-rule="nonzero" fill-opacity="1"/><path d="M4.1236-0.107576 6.52605 91.9834-1.72114 92.1985-4.1236 0.107576ZM16.0282 87.1506 3.0001 115-11.4624 87.8677Z" fill="#5A6673" fill-rule="nonzero" fill-opacity="1" transform="matrix(-1 0 0 1 683 1388)"/><path d="M1628.12 1387.89 1630.53 1479.98 1622.28 1480.2 1619.88 1388.11ZM1640.03 1475.15 1627 1503 1612.54 1475.87Z" fill="#5A6673" fill-rule="nonzero" fill-opacity="1"/><path d="M4.1236-0.107576 6.52605 91.9834-1.72114 92.1985-4.1236 0.107576ZM16.0282 87.1506 3.0001 115-11.4624 87.8677Z" fill="#5A6673" fill-rule="nonzero" fill-opacity="1" transform="matrix(-1 0 0 1 2567 1388)"/><path d="M3512.12 1387.89 3514.53 1479.98 3506.28 1480.2 3503.88 1388.11ZM3524.03 1475.15 3511 1503 3496.54 1475.87Z" fill="#5A6673" fill-rule="nonzero" fill-opacity="1"/><path d="M801.5 462.859C801.5 448.301 813.301 436.5 827.858 436.5L3573.14 436.5C3587.7 436.5 3599.5 448.301 3599.5 462.859L3599.5 723.141C3599.5 737.699 3587.7 749.5 3573.14 749.5L827.858 749.5C813.301 749.5 801.5 737.699 801.5 723.141Z" stroke="#0B3D6E" stroke-width="10.5417" stroke-linecap="butt" stroke-linejoin="round" stroke-miterlimit="10" stroke-opacity="1" fill="#FFFFFF" fill-rule="evenodd" fill-opacity="1"/><text fill="#0B3D6E" fill-opacity="1" font-family="Aptos Display,Aptos Display_MSFontService,sans-serif" font-style="normal" font-variant="normal" font-weight="400" font-stretch="normal" font-size="87" text-anchor="start" direction="ltr" writing-mode="lr-tb" unicode-bidi="normal" text-decoration="none" transform="matrix(1 0 0 1 1142.45 568)">Optimal control and closed loop CCD ask a central question</text><text fill="#0B3D6E" fill-opacity="1" font-family="Aptos Display,Aptos Display_MSFontService,sans-serif" font-style="normal" font-variant="normal" font-weight="400" font-stretch="normal" font-size="87" text-anchor="start" direction="ltr" writing-mode="lr-tb" unicode-bidi="normal" text-decoration="none" transform="matrix(1 0 0 1 3236.35 568)">:</text><text fill="#0B3D6E" fill-opacity="1" font-family="Aptos Display,Aptos Display_MSFontService,sans-serif" font-style="normal" font-variant="normal" font-weight="400" font-stretch="normal" font-size="87" text-anchor="start" direction="ltr" writing-mode="lr-tb" unicode-bidi="normal" text-decoration="none" transform="matrix(1 0 0 1 1215.1 673)">What control information is available when we optimize?</text><path d="M257.5 841.922C257.5 827.329 269.329 815.5 283.922 815.5L1083.08 815.5C1097.67 815.5 1109.5 827.329 1109.5 841.922L1109.5 1334.08C1109.5 1348.67 1097.67 1360.5 1083.08 1360.5L283.922 1360.5C269.329 1360.5 257.5 1348.67 257.5 1334.08Z" stroke="#0B3D6E" stroke-width="10.5417" stroke-linecap="butt" stroke-linejoin="round" stroke-miterlimit="10" stroke-opacity="1" fill="#EAF4FF" fill-rule="evenodd" fill-opacity="1"/><text fill="#1F2A36" fill-opacity="1" font-family="Aptos Display,Aptos Display_MSFontService,sans-serif" font-style="normal" font-variant="normal" font-weight="700" font-stretch="normal" font-size="101" text-anchor="start" direction="ltr" writing-mode="lr-tb" unicode-bidi="normal" text-decoration="none" transform="matrix(1 0 0 1 454.506 1059)">Open</text><text fill="#1F2A36" fill-opacity="1" font-family="Aptos Display,Aptos Display_MSFontService,sans-serif" font-style="normal" font-variant="normal" font-weight="700" font-stretch="normal" font-size="101" text-anchor="start" direction="ltr" writing-mode="lr-tb" unicode-bidi="normal" text-decoration="none" transform="matrix(1 0 0 1 685.965 1059)">-</text><text fill="#1F2A36" fill-opacity="1" font-family="Aptos Display,Aptos Display_MSFontService,sans-serif" font-style="normal" font-variant="normal" font-weight="700" font-stretch="normal" font-size="101" text-anchor="start" direction="ltr" writing-mode="lr-tb" unicode-bidi="normal" text-decoration="none" transform="matrix(1 0 0 1 722.631 1059)">loop</text><text fill="#1F2A36" fill-opacity="1" font-family="Aptos Display,Aptos Display_MSFontService,sans-serif" font-style="normal" font-variant="normal" font-weight="700" font-stretch="normal" font-size="101" text-anchor="start" direction="ltr" writing-mode="lr-tb" unicode-bidi="normal" text-decoration="none" transform="matrix(1 0 0 1 355.208 1180)">optimal control</text><path d="M1198.5 841.921C1198.5 827.329 1210.33 815.5 1224.92 815.5L2023.08 815.5C2037.67 815.5 2049.5 827.329 2049.5 841.921L2049.5 1334.08C2049.5 1348.67 2037.67 1360.5 2023.08 1360.5L1224.92 1360.5C1210.33 1360.5 1198.5 1348.67 1198.5 1334.08Z" stroke="#D66B00" stroke-width="10.5417" stroke-linecap="butt" stroke-linejoin="round" stroke-miterlimit="10" stroke-opacity="1" fill="#FFF5D6" fill-rule="evenodd" fill-opacity="1"/><text fill="#1F2A36" fill-opacity="1" font-family="Aptos Display,Aptos Display_MSFontService,sans-serif" font-style="normal" font-variant="normal" font-weight="700" font-stretch="normal" font-size="87" text-anchor="start" direction="ltr" writing-mode="lr-tb" unicode-bidi="normal" text-decoration="none" transform="matrix(1 0 0 1 1295.58 1011)">Control trajectory</text><text fill="#1F2A36" fill-opacity="1" font-family="Aptos Display,Aptos Display_MSFontService,sans-serif" font-style="normal" font-variant="normal" font-weight="700" font-stretch="normal" font-size="87" text-anchor="start" direction="ltr" writing-mode="lr-tb" unicode-bidi="normal" text-decoration="none" transform="matrix(1 0 0 1 1380.74 1116)">vs. controller</text><text fill="#1F2A36" fill-opacity="1" font-family="Aptos Display,Aptos Display_MSFontService,sans-serif" font-style="normal" font-variant="normal" font-weight="700" font-stretch="normal" font-size="87" text-anchor="start" direction="ltr" writing-mode="lr-tb" unicode-bidi="normal" text-decoration="none" transform="matrix(1 0 0 1 1410.62 1220)">parameters</text><path d="M2142.5 841.921C2142.5 827.329 2154.33 815.5 2168.92 815.5L2967.08 815.5C2981.67 815.5 2993.5 827.329 2993.5 841.921L2993.5 1334.08C2993.5 1348.67 2981.67 1360.5 2967.08 1360.5L2168.92 1360.5C2154.33 1360.5 2142.5 1348.67 2142.5 1334.08Z" stroke="#167A46" stroke-width="10.5417" stroke-linecap="butt" stroke-linejoin="round" stroke-miterlimit="10" stroke-opacity="1" fill="#EAF7EF" fill-rule="evenodd" fill-opacity="1"/><text fill="#1F2A36" fill-opacity="1" font-family="Aptos Display,Aptos Display_MSFontService,sans-serif" font-style="normal" font-variant="normal" font-weight="700" font-stretch="normal" font-size="92" text-anchor="start" direction="ltr" writing-mode="lr-tb" unicode-bidi="normal" text-decoration="none" transform="matrix(1 0 0 1 2377.83 1007)">Feedback</text><text fill="#1F2A36" fill-opacity="1" font-family="Aptos Display,Aptos Display_MSFontService,sans-serif" font-style="normal" font-variant="normal" font-weight="700" font-stretch="normal" font-size="92" text-anchor="start" direction="ltr" writing-mode="lr-tb" unicode-bidi="normal" text-decoration="none" transform="matrix(1 0 0 1 2375.54 1117)">controller</text><text fill="#1F2A36" fill-opacity="1" font-family="Aptos Display,Aptos Display_MSFontService,sans-serif" font-style="normal" font-variant="normal" font-weight="700" font-stretch="normal" font-size="92" text-anchor="start" direction="ltr" writing-mode="lr-tb" unicode-bidi="normal" text-decoration="none" transform="matrix(1 0 0 1 2375.77 1227)">co</text><text fill="#1F2A36" fill-opacity="1" font-family="Aptos Display,Aptos Display_MSFontService,sans-serif" font-style="normal" font-variant="normal" font-weight="700" font-stretch="normal" font-size="92" text-anchor="start" direction="ltr" writing-mode="lr-tb" unicode-bidi="normal" text-decoration="none" transform="matrix(1 0 0 1 2470.87 1227)">-</text><text fill="#1F2A36" fill-opacity="1" font-family="Aptos Display,Aptos Display_MSFontService,sans-serif" font-style="normal" font-variant="normal" font-weight="700" font-stretch="normal" font-size="92" text-anchor="start" direction="ltr" writing-mode="lr-tb" unicode-bidi="normal" text-decoration="none" transform="matrix(1 0 0 1 2504.1 1227)">design</text><path d="M3082.5 841.922C3082.5 827.329 3094.33 815.5 3108.92 815.5L3908.08 815.5C3922.67 815.5 3934.5 827.329 3934.5 841.922L3934.5 1334.08C3934.5 1348.67 3922.67 1360.5 3908.08 1360.5L3108.92 1360.5C3094.33 1360.5 3082.5 1348.67 3082.5 1334.08Z" stroke="#6B35E8" stroke-width="10.5417" stroke-linecap="butt" stroke-linejoin="round" stroke-miterlimit="10" stroke-opacity="1" fill="#F7EAF8" fill-rule="evenodd" fill-opacity="1"/><text fill="#1F2A36" fill-opacity="1" font-family="Aptos Display,Aptos Display_MSFontService,sans-serif" font-style="normal" font-variant="normal" font-weight="700" font-stretch="normal" font-size="80" text-anchor="start" direction="ltr" writing-mode="lr-tb" unicode-bidi="normal" text-decoration="none" transform="matrix(1 0 0 1 3223.29 969)">Model predictive</text><text fill="#1F2A36" fill-opacity="1" font-family="Aptos Display,Aptos Display_MSFontService,sans-serif" font-style="normal" font-variant="normal" font-weight="700" font-stretch="normal" font-size="80" text-anchor="start" direction="ltr" writing-mode="lr-tb" unicode-bidi="normal" text-decoration="none" transform="matrix(1 0 0 1 3268.73 1065)">control (MPC)</text><text fill="#1F2A36" fill-opacity="1" font-family="Aptos Display,Aptos Display_MSFontService,sans-serif" font-style="normal" font-variant="normal" font-weight="700" font-stretch="normal" font-size="80" text-anchor="start" direction="ltr" writing-mode="lr-tb" unicode-bidi="normal" text-decoration="none" transform="matrix(1 0 0 1 3444.29 1162)">and</text><text fill="#1F2A36" fill-opacity="1" font-family="Aptos Display,Aptos Display_MSFontService,sans-serif" font-style="normal" font-variant="normal" font-weight="700" font-stretch="normal" font-size="80" text-anchor="start" direction="ltr" writing-mode="lr-tb" unicode-bidi="normal" text-decoration="none" transform="matrix(1 0 0 1 3235.5 1258)">implementation</text><path d="M350.5 1547.9C350.5 1533.32 362.32 1521.5 376.901 1521.5L1023.1 1521.5C1037.68 1521.5 1049.5 1533.32 1049.5 1547.9L1049.5 1858.1C1049.5 1872.68 1037.68 1884.5 1023.1 1884.5L376.901 1884.5C362.32 1884.5 350.5 1872.68 350.5 1858.1Z" stroke="#0B3D6E" stroke-width="10.5417" stroke-linecap="butt" stroke-linejoin="round" stroke-miterlimit="10" stroke-opacity="1" fill="#FFFFFF" fill-rule="evenodd" fill-opacity="1"/><text fill="#0B3D6E" fill-opacity="1" font-family="Aptos Display,Aptos Display_MSFontService,sans-serif" font-style="normal" font-variant="normal" font-weight="400" font-stretch="normal" font-size="78" text-anchor="start" direction="ltr" writing-mode="lr-tb" unicode-bidi="normal" text-decoration="none" transform="matrix(1 0 0 1 571.565 1681)">planned</text><text fill="#0B3D6E" fill-opacity="1" font-family="Aptos Display,Aptos Display_MSFontService,sans-serif" font-style="normal" font-variant="normal" font-weight="400" font-stretch="normal" font-size="78" text-anchor="start" direction="ltr" writing-mode="lr-tb" unicode-bidi="normal" text-decoration="none" transform="matrix(1 0 0 1 488.4 1774)">control signal</text><path d="M1290.5 1547.9C1290.5 1533.32 1302.32 1521.5 1316.9 1521.5L1964.1 1521.5C1978.68 1521.5 1990.5 1533.32 1990.5 1547.9L1990.5 1858.1C1990.5 1872.68 1978.68 1884.5 1964.1 1884.5L1316.9 1884.5C1302.32 1884.5 1290.5 1872.68 1290.5 1858.1Z" stroke="#D66B00" stroke-width="10.5417" stroke-linecap="butt" stroke-linejoin="round" stroke-miterlimit="10" stroke-opacity="1" fill="#FFFFFF" fill-rule="evenodd" fill-opacity="1"/><text fill="#D66B00" fill-opacity="1" font-family="Aptos Display,Aptos Display_MSFontService,sans-serif" font-style="normal" font-variant="normal" font-weight="400" font-stretch="normal" font-size="76" text-anchor="start" direction="ltr" writing-mode="lr-tb" unicode-bidi="normal" text-decoration="none" transform="matrix(1 0 0 1 1448.44 1682)">what exactly</text><text fill="#D66B00" fill-opacity="1" font-family="Aptos Display,Aptos Display_MSFontService,sans-serif" font-style="normal" font-variant="normal" font-weight="400" font-stretch="normal" font-size="76" text-anchor="start" direction="ltr" writing-mode="lr-tb" unicode-bidi="normal" text-decoration="none" transform="matrix(1 0 0 1 1438.72 1773)">is optimized?</text><path d="M2234.5 1547.9C2234.5 1533.32 2246.32 1521.5 2260.9 1521.5L2908.1 1521.5C2922.68 1521.5 2934.5 1533.32 2934.5 1547.9L2934.5 1858.1C2934.5 1872.68 2922.68 1884.5 2908.1 1884.5L2260.9 1884.5C2246.32 1884.5 2234.5 1872.68 2234.5 1858.1Z" stroke="#167A46" stroke-width="10.5417" stroke-linecap="butt" stroke-linejoin="round" stroke-miterlimit="10" stroke-opacity="1" fill="#FFFFFF" fill-rule="evenodd" fill-opacity="1"/><text fill="#167A46" fill-opacity="1" font-family="Aptos Display,Aptos Display_MSFontService,sans-serif" font-style="normal" font-variant="normal" font-weight="400" font-stretch="normal" font-size="76" text-anchor="start" direction="ltr" writing-mode="lr-tb" unicode-bidi="normal" text-decoration="none" transform="matrix(1 0 0 1 2430.28 1682)">measured</text><text fill="#167A46" fill-opacity="1" font-family="Aptos Display,Aptos Display_MSFontService,sans-serif" font-style="normal" font-variant="normal" font-weight="400" font-stretch="normal" font-size="76" text-anchor="start" direction="ltr" writing-mode="lr-tb" unicode-bidi="normal" text-decoration="none" transform="matrix(1 0 0 1 2324.63 1773)">state information</text><path d="M3175.5 1547.9C3175.5 1533.32 3187.32 1521.5 3201.9 1521.5L3848.1 1521.5C3862.68 1521.5 3874.5 1533.32 3874.5 1547.9L3874.5 1858.1C3874.5 1872.68 3862.68 1884.5 3848.1 1884.5L3201.9 1884.5C3187.32 1884.5 3175.5 1872.68 3175.5 1858.1Z" stroke="#6B35E8" stroke-width="10.5417" stroke-linecap="butt" stroke-linejoin="round" stroke-miterlimit="10" stroke-opacity="1" fill="#FFFFFF" fill-rule="evenodd" fill-opacity="1"/><text fill="#6B35E8" fill-opacity="1" font-family="Aptos Display,Aptos Display_MSFontService,sans-serif" font-style="normal" font-variant="normal" font-weight="400" font-stretch="normal" font-size="72" text-anchor="start" direction="ltr" writing-mode="lr-tb" unicode-bidi="normal" text-decoration="none" transform="matrix(1 0 0 1 3342.93 1682)">re</text><text fill="#6B35E8" fill-opacity="1" font-family="Aptos Display,Aptos Display_MSFontService,sans-serif" font-style="normal" font-variant="normal" font-weight="400" font-stretch="normal" font-size="72" text-anchor="start" direction="ltr" writing-mode="lr-tb" unicode-bidi="normal" text-decoration="none" transform="matrix(1 0 0 1 3399.88 1682)">-</text><text fill="#6B35E8" fill-opacity="1" font-family="Aptos Display,Aptos Display_MSFontService,sans-serif" font-style="normal" font-variant="normal" font-weight="400" font-stretch="normal" font-size="72" text-anchor="start" direction="ltr" writing-mode="lr-tb" unicode-bidi="normal" text-decoration="none" transform="matrix(1 0 0 1 3425.09 1682)">optimizes</text><text fill="#6B35E8" fill-opacity="1" font-family="Aptos Display,Aptos Display_MSFontService,sans-serif" font-style="normal" font-variant="normal" font-weight="400" font-stretch="normal" font-size="72" text-anchor="start" direction="ltr" writing-mode="lr-tb" unicode-bidi="normal" text-decoration="none" transform="matrix(1 0 0 1 3263.71 1769)">as new data arrive</text><path d="M554.5 1993.9C554.5 1979.32 566.32 1967.5 580.901 1967.5L3835.1 1967.5C3849.68 1967.5 3861.5 1979.32 3861.5 1993.9L3861.5 2106.1C3861.5 2120.68 3849.68 2132.5 3835.1 2132.5L580.901 2132.5C566.32 2132.5 554.5 2120.68 554.5 2106.1Z" stroke="#D5E6F5" stroke-width="10.5417" stroke-linecap="butt" stroke-linejoin="round" stroke-miterlimit="10" stroke-opacity="1" fill="#F3F8FC" fill-rule="evenodd" fill-opacity="1"/><text fill="#0B3D6E" fill-opacity="1" font-family="Aptos Display,Aptos Display_MSFontService,sans-serif" font-style="normal" font-variant="normal" font-weight="400" font-stretch="normal" font-size="66" text-anchor="start" direction="ltr" writing-mode="lr-tb" unicode-bidi="normal" text-decoration="none" transform="matrix(1 0 0 1 876.459 2070)">Progression: from a fixed plant </text><text fill="#0B3D6E" fill-opacity="1" font-family="Aptos Display,Aptos Display_MSFontService,sans-serif" font-style="normal" font-variant="normal" font-weight="400" font-stretch="normal" font-size="66" text-anchor="start" direction="ltr" writing-mode="lr-tb" unicode-bidi="normal" text-decoration="none" transform="matrix(1 0 0 1 1693.76 2070)">-</text><text fill="#0B3D6E" fill-opacity="1" font-family="Aptos Display,Aptos Display_MSFontService,sans-serif" font-style="normal" font-variant="normal" font-weight="400" font-stretch="normal" font-size="66" text-anchor="start" direction="ltr" writing-mode="lr-tb" unicode-bidi="normal" text-decoration="none" transform="matrix(1 0 0 1 1716.68 2070)">&gt; optimized controller structure </text><text fill="#0B3D6E" fill-opacity="1" font-family="Aptos Display,Aptos Display_MSFontService,sans-serif" font-style="normal" font-variant="normal" font-weight="400" font-stretch="normal" font-size="66" text-anchor="start" direction="ltr" writing-mode="lr-tb" unicode-bidi="normal" text-decoration="none" transform="matrix(1 0 0 1 2568.37 2070)">--</text><text fill="#0B3D6E" fill-opacity="1" font-family="Aptos Display,Aptos Display_MSFontService,sans-serif" font-style="normal" font-variant="normal" font-weight="400" font-stretch="normal" font-size="66" text-anchor="start" direction="ltr" writing-mode="lr-tb" unicode-bidi="normal" text-decoration="none" transform="matrix(1 0 0 1 2614.21 2070)">&gt; feedback aware implementation</text><text fill="#0B3D6E" fill-opacity="1" font-family="Aptos Display,Aptos Display_MSFontService,sans-serif" font-style="normal" font-variant="normal" font-weight="400" font-stretch="normal" font-size="66" text-anchor="start" direction="ltr" writing-mode="lr-tb" unicode-bidi="normal" text-decoration="none" transform="matrix(1 0 0 1 3522.33 2070)">.</text></g></g></svg>