<svg width="3762" height="2328" xmlns="http://www.w3.org/2000/svg" xmlns:xlink="http://www.w3.org/1999/xlink" xml:space="preserve" overflow="hidden"><g transform="translate(-330 -59)"><g><path d="M644 113.667C644 87.3414 665.341 66 691.667 66L3714.33 66C3740.66 66 3762 87.3414 3762 113.667L3762 282.333C3762 308.659 3740.66 330 3714.33 330L691.667 330C665.341 330 644 308.659 644 282.333Z" stroke="#7C3AED" stroke-width="10.0833" stroke-linecap="butt" stroke-linejoin="round" stroke-miterlimit="10" stroke-opacity="1" fill="#FFFFFF" fill-rule="evenodd" fill-opacity="1"/><text fill="#7C3AED" fill-opacity="1" font-family="Aptos,Aptos_MSFontService,sans-serif" font-style="normal" font-variant="normal" font-weight="700" font-stretch="normal" font-size="101" text-anchor="start" direction="ltr" writing-mode="lr-tb" unicode-bidi="normal" text-decoration="none" transform="matrix(1 0 0 1 825.092 228)">Continuous trajectories become sampled decision variables</text><text fill="#5B6470" fill-opacity="1" font-family="Aptos,Aptos_MSFontService,sans-serif" font-style="normal" font-variant="normal" font-weight="400" font-stretch="normal" font-size="62" text-anchor="start" direction="ltr" writing-mode="lr-tb" unicode-bidi="normal" text-decoration="none" transform="matrix(1 0 0 1 1196.28 394)">Time discretization replaces a function of time with values on a finite mesh.</text><text fill="#0F3A63" fill-opacity="1" font-family="Aptos,Aptos_MSFontService,sans-serif" font-style="italic" font-variant="normal" font-weight="400" font-stretch="normal" font-size="60" text-anchor="start" direction="ltr" writing-mode="lr-tb" unicode-bidi="normal" text-decoration="none" transform="matrix(1 0 0 1 412.592 547)">continuous control trajectory  u(t)</text><path d="M330.5 1662 3998.99 1662 3998.99 1673 330.5 1673ZM3993.5 1651 4026.5 1667.5 3993.5 1684Z" fill="#5B6470" fill-rule="nonzero" fill-opacity="1"/><text fill="#5B6470" fill-opacity="1" font-family="Aptos,Aptos_MSFontService,sans-serif" font-style="italic" font-variant="normal" font-weight="400" font-stretch="normal" font-size="57" text-anchor="start" direction="ltr" writing-mode="lr-tb" unicode-bidi="normal" text-decoration="none" transform="matrix(1 0 0 1 3913.25 1782)">time</text><path d="M515.938 1267.5 515.938 1531.58 509.063 1531.58 509.063 1267.5ZM526.25 1527 512.5 1554.5 498.75 1527Z" fill="#2167A8" fill-rule="nonzero" fill-opacity="1"/><path d="M512.5 1601.5 512.5 1742.5" stroke="#5B6470" stroke-width="7.33333" stroke-linecap="butt" stroke-linejoin="round" stroke-miterlimit="10" stroke-opacity="1" fill="none" fill-rule="evenodd"/><path d="M1142.94 1020.5 1142.94 1531.58 1136.06 1531.58 1136.06 1020.5ZM1153.25 1527 1139.5 1554.5 1125.75 1527Z" fill="#2167A8" fill-rule="nonzero" fill-opacity="1"/><path d="M1139.5 1601.5 1139.5 1742.5" stroke="#5B6470" stroke-width="7.33333" stroke-linecap="butt" stroke-linejoin="round" stroke-miterlimit="10" stroke-opacity="1" fill="none" fill-rule="evenodd"/><path d="M1769.94 878.5 1769.94 1531.58 1763.06 1531.58 1763.06 878.5ZM1780.25 1527 1766.5 1554.5 1752.75 1527Z" fill="#2167A8" fill-rule="nonzero" fill-opacity="1"/><path d="M1766.5 1601.5 1766.5 1742.5" stroke="#5B6470" stroke-width="7.33333" stroke-linecap="butt" stroke-linejoin="round" stroke-miterlimit="10" stroke-opacity="1" fill="none" fill-rule="evenodd"/><path d="M2396.94 1033.5 2396.94 1531.58 2390.06 1531.58 2390.06 1033.5ZM2407.25 1527 2393.5 1554.5 2379.75 1527Z" fill="#2167A8" fill-rule="nonzero" fill-opacity="1"/><path d="M2393.5 1601.5 2393.5 1742.5" stroke="#5B6470" stroke-width="7.33333" stroke-linecap="butt" stroke-linejoin="round" stroke-miterlimit="10" stroke-opacity="1" fill="none" fill-rule="evenodd"/><path d="M3023.94 1247.5 3023.94 1531.58 3017.06 1531.58 3017.06 1247.5ZM3034.25 1527 3020.5 1554.5 3006.75 1527Z" fill="#2167A8" fill-rule="nonzero" fill-opacity="1"/><path d="M3020.5 1601.5 3020.5 1742.5" stroke="#5B6470" stroke-width="7.33333" stroke-linecap="butt" stroke-linejoin="round" stroke-miterlimit="10" stroke-opacity="1" fill="none" fill-rule="evenodd"/><path d="M3650.94 1439.5 3650.94 1531.58 3644.06 1531.58 3644.06 1439.5ZM3661.25 1527 3647.5 1554.5 3633.75 1527Z" fill="#2167A8" fill-rule="nonzero" fill-opacity="1"/><path d="M3647.5 1601.5 3647.5 1742.5" stroke="#5B6470" stroke-width="7.33333" stroke-linecap="butt" stroke-linejoin="round" stroke-miterlimit="10" stroke-opacity="1" fill="none" fill-rule="evenodd"/><path d="M512.5 1214.5 1139.5 1214.5" stroke="#0F3A63" stroke-width="14.6667" stroke-linecap="butt" stroke-linejoin="round" stroke-miterlimit="10" stroke-opacity="1" fill="none" fill-rule="evenodd"/><path d="M1139.5 967.5 1766.5 967.501" stroke="#0F3A63" stroke-width="14.6667" stroke-linecap="butt" stroke-linejoin="round" stroke-miterlimit="10" stroke-opacity="1" fill="none" fill-rule="evenodd"/><path d="M1766.5 825.5 2393.5 980.5" stroke="#0F3A63" stroke-width="14.6667" stroke-linecap="butt" stroke-linejoin="round" stroke-miterlimit="10" stroke-opacity="1" fill="none" fill-rule="evenodd"/><path d="M2393.5 980.5 3020.5 1195.5" stroke="#0F3A63" stroke-width="14.6667" stroke-linecap="butt" stroke-linejoin="round" stroke-miterlimit="10" stroke-opacity="1" fill="none" fill-rule="evenodd"/><path d="M3020.5 1195.5 3647.5 1386.5" stroke="#0F3A63" stroke-width="14.6667" stroke-linecap="butt" stroke-linejoin="round" stroke-miterlimit="10" stroke-opacity="1" fill="none" fill-rule="evenodd"/><path d="M483 1214C483 1198.54 495.76 1186 511.5 1186 527.24 1186 540 1198.54 540 1214 540 1229.46 527.24 1242 511.5 1242 495.76 1242 483 1229.46 483 1214Z" stroke="#0F3A63" stroke-width="1.83333" stroke-linecap="butt" stroke-linejoin="round" stroke-miterlimit="10" stroke-opacity="1" fill="#0F3A63" fill-rule="evenodd" fill-opacity="1"/><text fill="#0F3A63" fill-opacity="1" font-family="Aptos,Aptos_MSFontService,sans-serif" font-style="italic" font-variant="normal" font-weight="400" font-stretch="normal" font-size="69" text-anchor="start" direction="ltr" writing-mode="lr-tb" unicode-bidi="normal" text-decoration="none" transform="matrix(1 0 0 1 480.849 1060)">u₀</text><text fill="#5B6470" fill-opacity="1" font-family="Aptos,Aptos_MSFontService,sans-serif" font-style="italic" font-variant="normal" font-weight="400" font-stretch="normal" font-size="64" text-anchor="start" direction="ltr" writing-mode="lr-tb" unicode-bidi="normal" text-decoration="none" transform="matrix(1 0 0 1 492.238 1847)">t₀</text><path d="M1110 967C1110 951.536 1122.76 939 1138.5 939 1154.24 939 1167 951.536 1167 967 1167 982.464 1154.24 995 1138.5 995 1122.76 995 1110 982.464 1110 967Z" stroke="#0F3A63" stroke-width="1.83333" stroke-linecap="butt" stroke-linejoin="round" stroke-miterlimit="10" stroke-opacity="1" fill="#0F3A63" fill-rule="evenodd" fill-opacity="1"/><text fill="#0F3A63" fill-opacity="1" font-family="Aptos,Aptos_MSFontService,sans-serif" font-style="italic" font-variant="normal" font-weight="400" font-stretch="normal" font-size="69" text-anchor="start" direction="ltr" writing-mode="lr-tb" unicode-bidi="normal" text-decoration="none" transform="matrix(1 0 0 1 1107.85 812)">u₁</text><text fill="#5B6470" fill-opacity="1" font-family="Aptos,Aptos_MSFontService,sans-serif" font-style="italic" font-variant="normal" font-weight="400" font-stretch="normal" font-size="64" text-anchor="start" direction="ltr" writing-mode="lr-tb" unicode-bidi="normal" text-decoration="none" transform="matrix(1 0 0 1 1119.24 1847)">t₁</text><path d="M1737 825C1737 809.536 1749.76 797 1765.5 797 1781.24 797 1794 809.536 1794 825 1794 840.464 1781.24 853 1765.5 853 1749.76 853 1737 840.464 1737 825Z" stroke="#0F3A63" stroke-width="1.83333" stroke-linecap="butt" stroke-linejoin="round" stroke-miterlimit="10" stroke-opacity="1" fill="#0F3A63" fill-rule="evenodd" fill-opacity="1"/><text fill="#0F3A63" fill-opacity="1" font-family="Aptos,Aptos_MSFontService,sans-serif" font-style="italic" font-variant="normal" font-weight="400" font-stretch="normal" font-size="69" text-anchor="start" direction="ltr" writing-mode="lr-tb" unicode-bidi="normal" text-decoration="none" transform="matrix(1 0 0 1 1734.85 670)">u₂</text><text fill="#5B6470" fill-opacity="1" font-family="Aptos,Aptos_MSFontService,sans-serif" font-style="italic" font-variant="normal" font-weight="400" font-stretch="normal" font-size="64" text-anchor="start" direction="ltr" writing-mode="lr-tb" unicode-bidi="normal" text-decoration="none" transform="matrix(1 0 0 1 1746.24 1847)">t₂</text><path d="M2364 980C2364 964.536 2376.76 952 2392.5 952 2408.24 952 2421 964.536 2421 980 2421 995.464 2408.24 1008 2392.5 1008 2376.76 1008 2364 995.464 2364 980Z" stroke="#0F3A63" stroke-width="1.83333" stroke-linecap="butt" stroke-linejoin="round" stroke-miterlimit="10" stroke-opacity="1" fill="#0F3A63" fill-rule="evenodd" fill-opacity="1"/><text fill="#0F3A63" fill-opacity="1" font-family="Aptos,Aptos_MSFontService,sans-serif" font-style="italic" font-variant="normal" font-weight="400" font-stretch="normal" font-size="69" text-anchor="start" direction="ltr" writing-mode="lr-tb" unicode-bidi="normal" text-decoration="none" transform="matrix(1 0 0 1 2361.85 825)">u₃</text><text fill="#5B6470" fill-opacity="1" font-family="Aptos,Aptos_MSFontService,sans-serif" font-style="italic" font-variant="normal" font-weight="400" font-stretch="normal" font-size="64" text-anchor="start" direction="ltr" writing-mode="lr-tb" unicode-bidi="normal" text-decoration="none" transform="matrix(1 0 0 1 2373.24 1847)">t₃</text><path d="M2991 1195C2991 1179.54 3003.76 1167 3019.5 1167 3035.24 1167 3048 1179.54 3048 1195 3048 1210.46 3035.24 1223 3019.5 1223 3003.76 1223 2991 1210.46 2991 1195Z" stroke="#0F3A63" stroke-width="1.83333" stroke-linecap="butt" stroke-linejoin="round" stroke-miterlimit="10" stroke-opacity="1" fill="#0F3A63" fill-rule="evenodd" fill-opacity="1"/><text fill="#0F3A63" fill-opacity="1" font-family="Aptos,Aptos_MSFontService,sans-serif" font-style="italic" font-variant="normal" font-weight="400" font-stretch="normal" font-size="69" text-anchor="start" direction="ltr" writing-mode="lr-tb" unicode-bidi="normal" text-decoration="none" transform="matrix(1 0 0 1 2879.95 1122)">u₄</text><text fill="#5B6470" fill-opacity="1" font-family="Aptos,Aptos_MSFontService,sans-serif" font-style="italic" font-variant="normal" font-weight="400" font-stretch="normal" font-size="64" text-anchor="start" direction="ltr" writing-mode="lr-tb" unicode-bidi="normal" text-decoration="none" transform="matrix(1 0 0 1 3000.24 1847)">t₄</text><path d="M3618 1386C3618 1370.54 3630.76 1358 3646.5 1358 3662.24 1358 3675 1370.54 3675 1386 3675 1401.46 3662.24 1414 3646.5 1414 3630.76 1414 3618 1401.46 3618 1386Z" stroke="#0F3A63" stroke-width="1.83333" stroke-linecap="butt" stroke-linejoin="round" stroke-miterlimit="10" stroke-opacity="1" fill="#0F3A63" fill-rule="evenodd" fill-opacity="1"/><text fill="#0F3A63" fill-opacity="1" font-family="Aptos,Aptos_MSFontService,sans-serif" font-style="italic" font-variant="normal" font-weight="400" font-stretch="normal" font-size="69" text-anchor="start" direction="ltr" writing-mode="lr-tb" unicode-bidi="normal" text-decoration="none" transform="matrix(1 0 0 1 3615.85 1231)">u₅</text><text fill="#5B6470" fill-opacity="1" font-family="Aptos,Aptos_MSFontService,sans-serif" font-style="italic" font-variant="normal" font-weight="400" font-stretch="normal" font-size="64" text-anchor="start" direction="ltr" writing-mode="lr-tb" unicode-bidi="normal" text-decoration="none" transform="matrix(1 0 0 1 3627.24 1847)">t₅</text><path d="M2492 527.901C2492 504.207 2511.21 485 2534.9 485L3505.1 485C3528.79 485 3548 504.207 3548 527.901L3548 607.101C3548 630.794 3528.79 650.001 3505.1 650.001L2534.9 650C2511.21 650 2492 630.793 2492 607.099Z" stroke="#2167A8" stroke-width="10.0833" stroke-linecap="butt" stroke-linejoin="round" stroke-miterlimit="10" stroke-opacity="1" fill="#F6FAFF" fill-rule="evenodd" fill-opacity="1"/><text fill="#2167A8" fill-opacity="1" font-family="Aptos,Aptos_MSFontService,sans-serif" font-style="normal" font-variant="normal" font-weight="700" font-stretch="normal" font-size="62" text-anchor="start" direction="ltr" writing-mode="lr-tb" unicode-bidi="normal" text-decoration="none" transform="matrix(1 0 0 1 2699.77 586)">sample at mesh points</text><path d="M3023.21 663 3023.21 1115.08 3016.79 1115.08 3016.79 663ZM3033.75 1110.5 3020 1138 3006.25 1110.5Z" fill="#2167A8" fill-rule="nonzero" fill-opacity="1"/><path d="M941 2029.84C941 2006.18 960.181 1987 983.842 1987L3422.16 1987C3445.82 1987 3465 2006.18 3465 2029.84L3465 2234.16C3465 2257.82 3445.82 2277 3422.16 2277L983.842 2277C960.181 2277 941 2257.82 941 2234.16Z" stroke="#7C3AED" stroke-width="10.0833" stroke-linecap="butt" stroke-linejoin="round" stroke-miterlimit="10" stroke-opacity="1" fill="#F3ECFF" fill-rule="evenodd" fill-opacity="1"/><text fill="#7C3AED" fill-opacity="1" font-family="Aptos,Aptos_MSFontService,sans-serif" font-style="normal" font-variant="normal" font-weight="700" font-stretch="normal" font-size="60" text-anchor="start" direction="ltr" writing-mode="lr-tb" unicode-bidi="normal" text-decoration="none" transform="matrix(1 0 0 1 999.808 2158)">Decision</text><text fill="#7C3AED" fill-opacity="1" font-family="Aptos,Aptos_MSFontService,sans-serif" font-style="normal" font-variant="normal" font-weight="700" font-stretch="normal" font-size="60" text-anchor="start" direction="ltr" writing-mode="lr-tb" unicode-bidi="normal" text-decoration="none" transform="matrix(1 0 0 1 1239.86 2158)">-</text><text fill="#7C3AED" fill-opacity="1" font-family="Aptos,Aptos_MSFontService,sans-serif" font-style="normal" font-variant="normal" font-weight="700" font-stretch="normal" font-size="60" text-anchor="start" direction="ltr" writing-mode="lr-tb" unicode-bidi="normal" text-decoration="none" transform="matrix(1 0 0 1 1259.91 2158)">variable vector</text><text fill="#7C3AED" fill-opacity="1" font-family="Aptos,Aptos_MSFontService,sans-serif" font-style="normal" font-variant="normal" font-weight="700" font-stretch="normal" font-size="96" text-anchor="start" direction="ltr" writing-mode="lr-tb" unicode-bidi="normal" text-decoration="none" transform="matrix(1 0 0 1 2086.79 2158)">U = </text><path d="M2932.51 2086.31 2953.41 2086.31 2953.41 2175.7 2932.51 2175.7 2932.51 2172.09 2945.63 2172.09 2945.63 2089.92 2932.51 2089.92ZM2255.03 2086.31 2275.94 2086.31 2275.94 2089.92 2262.81 2089.92 2262.81 2172.09 2275.94 2172.09 2275.94 2175.7 2255.03 2175.7Z" fill="#7C3AED" fill-rule="evenodd" fill-opacity="1"/><text fill="#7C3AED" fill-opacity="1" font-family="Cambria Math,Cambria Math_MSFontService,sans-serif" font-style="normal" font-variant="normal" font-weight="400" font-stretch="normal" font-size="96" text-anchor="start" direction="ltr" writing-mode="lr-tb" unicode-bidi="normal" text-decoration="none" transform="matrix(1 0 0 1 2278.03 2158)">𝒖</text><text fill="#7C3AED" fill-opacity="1" font-family="Cambria Math,Cambria Math_MSFontService,sans-serif" font-style="normal" font-variant="normal" font-weight="400" font-stretch="normal" font-size="70" text-anchor="start" direction="ltr" writing-mode="lr-tb" unicode-bidi="normal" text-decoration="none" transform="matrix(1 0 0 1 2339.91 2178)">𝟎</text><text fill="#7C3AED" fill-opacity="1" font-family="Cambria Math,Cambria Math_MSFontService,sans-serif" font-style="normal" font-variant="normal" font-weight="400" font-stretch="normal" font-size="96" text-anchor="start" direction="ltr" writing-mode="lr-tb" unicode-bidi="normal" text-decoration="none" transform="matrix(1 0 0 1 2385.72 2158)"> </text><text fill="#7C3AED" fill-opacity="1" font-family="Cambria Math,Cambria Math_MSFontService,sans-serif" font-style="normal" font-variant="normal" font-weight="400" font-stretch="normal" font-size="96" text-anchor="start" direction="ltr" writing-mode="lr-tb" unicode-bidi="normal" text-decoration="none" transform="matrix(1 0 0 1 2406.91 2158)"> </text><text fill="#7C3AED" fill-opacity="1" font-family="Cambria Math,Cambria Math_MSFontService,sans-serif" font-style="normal" font-variant="normal" font-weight="400" font-stretch="normal" font-size="96" text-anchor="start" direction="ltr" writing-mode="lr-tb" unicode-bidi="normal" text-decoration="none" transform="matrix(1 0 0 1 2428.11 2158)">𝒖</text><text fill="#7C3AED" fill-opacity="1" font-family="Cambria Math,Cambria Math_MSFontService,sans-serif" font-style="normal" font-variant="normal" font-weight="400" font-stretch="normal" font-size="70" text-anchor="start" direction="ltr" writing-mode="lr-tb" unicode-bidi="normal" text-decoration="none" transform="matrix(1 0 0 1 2489.99 2178)">𝟏</text><text fill="#7C3AED" fill-opacity="1" font-family="Cambria Math,Cambria Math_MSFontService,sans-serif" font-style="normal" font-variant="normal" font-weight="400" font-stretch="normal" font-size="96" text-anchor="start" direction="ltr" writing-mode="lr-tb" unicode-bidi="normal" text-decoration="none" transform="matrix(1 0 0 1 2535.8 2158)"> </text><text fill="#7C3AED" fill-opacity="1" font-family="Cambria Math,Cambria Math_MSFontService,sans-serif" font-style="normal" font-variant="normal" font-weight="400" font-stretch="normal" font-size="96" text-anchor="start" direction="ltr" writing-mode="lr-tb" unicode-bidi="normal" text-decoration="none" transform="matrix(1 0 0 1 2557 2158)"> </text><text fill="#7C3AED" fill-opacity="1" font-family="Cambria Math,Cambria Math_MSFontService,sans-serif" font-style="normal" font-variant="normal" font-weight="400" font-stretch="normal" font-size="96" text-anchor="start" direction="ltr" writing-mode="lr-tb" unicode-bidi="normal" text-decoration="none" transform="matrix(1 0 0 1 2578.19 2158)">𝒖</text><text fill="#7C3AED" fill-opacity="1" font-family="Cambria Math,Cambria Math_MSFontService,sans-serif" font-style="normal" font-variant="normal" font-weight="400" font-stretch="normal" font-size="70" text-anchor="start" direction="ltr" writing-mode="lr-tb" unicode-bidi="normal" text-decoration="none" transform="matrix(1 0 0 1 2640.07 2178)">𝟐</text><text fill="#7C3AED" fill-opacity="1" font-family="Cambria Math,Cambria Math_MSFontService,sans-serif" font-style="normal" font-variant="normal" font-weight="400" font-stretch="normal" font-size="96" text-anchor="start" direction="ltr" writing-mode="lr-tb" unicode-bidi="normal" text-decoration="none" transform="matrix(1 0 0 1 2693.9 2158)"> </text><text fill="#7C3AED" fill-opacity="1" font-family="Cambria Math,Cambria Math_MSFontService,sans-serif" font-style="normal" font-variant="normal" font-weight="400" font-stretch="normal" font-size="96" text-anchor="start" direction="ltr" writing-mode="lr-tb" unicode-bidi="normal" text-decoration="none" transform="matrix(1 0 0 1 2723.12 2158)">…</text><text fill="#7C3AED" fill-opacity="1" font-family="Cambria Math,Cambria Math_MSFontService,sans-serif" font-style="normal" font-variant="normal" font-weight="400" font-stretch="normal" font-size="96" text-anchor="start" direction="ltr" writing-mode="lr-tb" unicode-bidi="normal" text-decoration="none" transform="matrix(1 0 0 1 2811.35 2158)">𝒖</text><text fill="#7C3AED" fill-opacity="1" font-family="Cambria Math,Cambria Math_MSFontService,sans-serif" font-style="normal" font-variant="normal" font-weight="400" font-stretch="normal" font-size="70" text-anchor="start" direction="ltr" writing-mode="lr-tb" unicode-bidi="normal" text-decoration="none" transform="matrix(1 0 0 1 2873.22 2178)">𝑵</text><text fill="#7C3AED" fill-opacity="1" font-family="Cambria Math,Cambria Math_MSFontService,sans-serif" font-style="normal" font-variant="normal" font-weight="400" font-stretch="normal" font-size="70" text-anchor="start" direction="ltr" writing-mode="lr-tb" unicode-bidi="normal" text-decoration="none" transform="matrix(1 0 0 1 2964.18 2123)">𝑻</text><path d="M2205.12 1829 2205.13 1912.08 2196.88 1912.08 2196.88 1829ZM2214.75 1907.5 2201 1935 2187.25 1907.5Z" fill="#7C3AED" fill-rule="nonzero" fill-opacity="1"/><text fill="#5B6470" fill-opacity="1" font-family="Aptos,Aptos_MSFontService,sans-serif" font-style="normal" font-variant="normal" font-weight="400" font-stretch="normal" font-size="54" text-anchor="start" direction="ltr" writing-mode="lr-tb" unicode-bidi="normal" text-decoration="none" transform="matrix(1 0 0 1 1013.66 2339)">Optimizer changes these sampled values instead of optimizing the entire continuous function directly.</text></g></g></svg>