<svg width="3951" height="1573" xmlns="http://www.w3.org/2000/svg" xmlns:xlink="http://www.w3.org/1999/xlink" xml:space="preserve" overflow="hidden"><defs><filter id="fx0" x="-10%" y="-10%" width="120%" height="120%" filterUnits="userSpaceOnUse" primitiveUnits="userSpaceOnUse"><feComponentTransfer color-interpolation-filters="sRGB"><feFuncR type="discrete" tableValues="0.000000 0.000000"/><feFuncG type="discrete" tableValues="0.000000 0.000000"/><feFuncB type="discrete" tableValues="0.000000 0.000000"/><feFuncA type="linear" slope="0.109804" intercept="0.000000"/></feComponentTransfer><feGaussianBlur stdDeviation="1.527778 1.527778"/></filter><filter id="fx1" x="-10%" y="-10%" width="120%" height="120%" filterUnits="userSpaceOnUse" primitiveUnits="userSpaceOnUse"><feComponentTransfer color-interpolation-filters="sRGB"><feFuncR type="discrete" tableValues="0.000000 0.000000"/><feFuncG type="discrete" tableValues="0.000000 0.000000"/><feFuncB type="discrete" tableValues="0.000000 0.000000"/><feFuncA type="linear" slope="0.109804" intercept="0.000000"/></feComponentTransfer><feGaussianBlur stdDeviation="1.527778 1.527778"/></filter><filter id="fx2" x="-10%" y="-10%" width="120%" height="120%" filterUnits="userSpaceOnUse" primitiveUnits="userSpaceOnUse"><feComponentTransfer color-interpolation-filters="sRGB"><feFuncR type="discrete" tableValues="0.000000 0.000000"/><feFuncG type="discrete" tableValues="0.000000 0.000000"/><feFuncB type="discrete" tableValues="0.000000 0.000000"/><feFuncA type="linear" slope="0.109804" intercept="0.000000"/></feComponentTransfer><feGaussianBlur stdDeviation="1.527778 1.527778"/></filter><clipPath id="clip3"><path d="M264.916 660.5C250.327 660.5 238.5 672.327 238.5 686.916L238.5 1509.08C238.5 1523.67 250.327 1535.5 264.916 1535.5L1202.08 1535.5C1216.67 1535.5 1228.5 1523.67 1228.5 1509.08L1228.5 686.916C1228.5 672.327 1216.67 660.5 1202.08 660.5ZM233 352 4184 352 4184 1925 233 1925Z" fill-rule="evenodd" clip-rule="evenodd"/></clipPath><clipPath id="clip4"><path d="M1729.92 660.5C1715.33 660.5 1703.5 672.327 1703.5 686.916L1703.5 1509.08C1703.5 1523.67 1715.33 1535.5 1729.92 1535.5L2667.08 1535.5C2681.67 1535.5 2693.5 1523.67 2693.5 1509.08L2693.5 686.916C2693.5 672.327 2681.67 660.5 2667.08 660.5ZM233 352 4184 352 4184 1925 233 1925Z" fill-rule="evenodd" clip-rule="evenodd"/></clipPath><clipPath id="clip5"><path d="M3197.92 660.5C3183.33 660.5 3171.5 672.327 3171.5 686.916L3171.5 1509.08C3171.5 1523.67 3183.33 1535.5 3197.92 1535.5L4135.08 1535.5C4149.67 1535.5 4161.5 1523.67 4161.5 1509.08L4161.5 686.916C4161.5 672.327 4149.67 660.5 4135.08 660.5ZM233 352 4184 352 4184 1925 233 1925Z" fill-rule="evenodd" clip-rule="evenodd"/></clipPath></defs><g transform="translate(-233 -352)"><g><path d="M1004 383.03C1004 370.311 1014.31 360 1027.03 360L3372.97 360C3385.69 360 3396 370.311 3396 383.03L3396 540.97C3396 553.689 3385.69 564 3372.97 564L1027.03 564C1014.31 564 1004 553.689 1004 540.97Z" stroke="#D96600" stroke-width="10.0833" stroke-linecap="butt" stroke-linejoin="round" stroke-miterlimit="10" stroke-opacity="1" fill="#FFFFFF" fill-rule="evenodd" fill-opacity="1"/><text fill="#D96600" fill-opacity="1" font-family="Aptos Display,Aptos Display_MSFontService,sans-serif" font-style="normal" font-variant="normal" font-weight="700" font-stretch="normal" font-size="110" text-anchor="start" direction="ltr" writing-mode="lr-tb" unicode-bidi="normal" text-decoration="none" transform="matrix(1 0 0 1 1323.43 495)">Derivative and Gradient Interpretation</text><path d="M1277.5 1092.92 1630.58 1092.92 1630.58 1102.08 1277.5 1102.08ZM1626 1083.75 1653.5 1097.5 1626 1111.25Z" fill="#4B5563" fill-rule="nonzero" fill-opacity="1"/><path d="M2742.5 1092.92 3099.58 1092.92 3099.58 1102.08 2742.5 1102.08ZM3095 1083.75 3122.5 1097.5 3095 1111.25Z" fill="#4B5563" fill-rule="nonzero" fill-opacity="1"/><path d="M410 1626.83C410 1615.88 418.877 1607 429.828 1607L4075.17 1607C4086.12 1607 4095 1615.88 4095 1626.83L4095 1891.17C4095 1902.12 4086.12 1911 4075.17 1911L429.828 1911C418.877 1911 410 1902.12 410 1891.17Z" stroke="#C83242" stroke-width="8.25" stroke-linecap="butt" stroke-linejoin="round" stroke-miterlimit="10" stroke-opacity="1" fill="#FFF2F4" fill-rule="evenodd" fill-opacity="1"/><text fill="#C83242" fill-opacity="1" font-family="Aptos,Aptos_MSFontService,sans-serif" font-style="normal" font-variant="normal" font-weight="700" font-stretch="normal" font-size="92" text-anchor="start" direction="ltr" writing-mode="lr-tb" unicode-bidi="normal" text-decoration="none" transform="matrix(1 0 0 1 584.398 1731)">Optimization uses gradients to decide how a design should change to improve </text><text fill="#C83242" fill-opacity="1" font-family="Aptos,Aptos_MSFontService,sans-serif" font-style="normal" font-variant="normal" font-weight="700" font-stretch="normal" font-size="92" text-anchor="start" direction="ltr" writing-mode="lr-tb" unicode-bidi="normal" text-decoration="none" transform="matrix(1 0 0 1 1914.46 1841)">performance.</text><g clip-path="url(#clip3)"><g filter="url(#fx0)" transform="translate(241 663)"><g><g><path d="M10.4637 36.8797C10.4637 22.2904 22.2906 10.4634 36.8799 10.4634L974.047 10.4634C988.637 10.4634 1000.46 22.2904 1000.46 36.8797L1000.46 859.047C1000.46 873.637 988.637 885.464 974.047 885.464L36.8799 885.464C22.2906 885.464 10.4637 873.637 10.4637 859.047Z" stroke="#0B4D8B" stroke-width="9" stroke-linecap="butt" stroke-linejoin="round" stroke-miterlimit="10" stroke-opacity="1" fill="#EFF7FF" fill-rule="evenodd" fill-opacity="1"/></g></g></g></g><path d="M238.5 686.916C238.5 672.327 250.327 660.5 264.916 660.5L1202.08 660.5C1216.67 660.5 1228.5 672.327 1228.5 686.916L1228.5 1509.08C1228.5 1523.67 1216.67 1535.5 1202.08 1535.5L264.916 1535.5C250.327 1535.5 238.5 1523.67 238.5 1509.08Z" stroke="#0B4D8B" stroke-width="9.16667" stroke-linecap="butt" stroke-linejoin="round" stroke-miterlimit="10" stroke-opacity="1" fill="#EFF7FF" fill-rule="evenodd" fill-opacity="1"/><g clip-path="url(#clip4)"><g filter="url(#fx1)" transform="translate(1706 663)"><g><g><path d="M10.4637 36.8797C10.4637 22.2904 22.2907 10.4634 36.88 10.4634L974.047 10.4634C988.637 10.4634 1000.46 22.2904 1000.46 36.8797L1000.46 859.047C1000.46 873.637 988.637 885.464 974.047 885.464L36.88 885.464C22.2907 885.464 10.4637 873.637 10.4637 859.047Z" stroke="#E87500" stroke-width="9" stroke-linecap="butt" stroke-linejoin="round" stroke-miterlimit="10" stroke-opacity="1" fill="#FFF7DD" fill-rule="evenodd" fill-opacity="1"/></g></g></g></g><path d="M1703.5 686.916C1703.5 672.327 1715.33 660.5 1729.92 660.5L2667.08 660.5C2681.67 660.5 2693.5 672.327 2693.5 686.916L2693.5 1509.08C2693.5 1523.67 2681.67 1535.5 2667.08 1535.5L1729.92 1535.5C1715.33 1535.5 1703.5 1523.67 1703.5 1509.08Z" stroke="#E87500" stroke-width="9.16667" stroke-linecap="butt" stroke-linejoin="round" stroke-miterlimit="10" stroke-opacity="1" fill="#FFF7DD" fill-rule="evenodd" fill-opacity="1"/><g clip-path="url(#clip5)"><g filter="url(#fx2)" transform="translate(3174 663)"><g><g><path d="M10.4636 36.8797C10.4636 22.2904 22.2906 10.4634 36.8799 10.4634L974.047 10.4634C988.637 10.4634 1000.46 22.2904 1000.46 36.8797L1000.46 859.047C1000.46 873.637 988.637 885.464 974.047 885.464L36.8799 885.464C22.2906 885.464 10.4636 873.637 10.4636 859.047Z" stroke="#137D49" stroke-width="9" stroke-linecap="butt" stroke-linejoin="round" stroke-miterlimit="10" stroke-opacity="1" fill="#EDF9F2" fill-rule="evenodd" fill-opacity="1"/></g></g></g></g><path d="M3171.5 686.916C3171.5 672.327 3183.33 660.5 3197.92 660.5L4135.08 660.5C4149.67 660.5 4161.5 672.327 4161.5 686.916L4161.5 1509.08C4161.5 1523.67 4149.67 1535.5 4135.08 1535.5L3197.92 1535.5C3183.33 1535.5 3171.5 1523.67 3171.5 1509.08Z" stroke="#137D49" stroke-width="9.16667" stroke-linecap="butt" stroke-linejoin="round" stroke-miterlimit="10" stroke-opacity="1" fill="#EDF9F2" fill-rule="evenodd" fill-opacity="1"/><text fill="#0B3A66" fill-opacity="1" font-family="Aptos Display,Aptos Display_MSFontService,sans-serif" font-style="normal" font-variant="normal" font-weight="700" font-stretch="normal" font-size="78" text-anchor="start" direction="ltr" writing-mode="lr-tb" unicode-bidi="normal" text-decoration="none" transform="matrix(1 0 0 1 384.404 830)">Single</text><text fill="#0B3A66" fill-opacity="1" font-family="Aptos Display,Aptos Display_MSFontService,sans-serif" font-style="normal" font-variant="normal" font-weight="700" font-stretch="normal" font-size="78" text-anchor="start" direction="ltr" writing-mode="lr-tb" unicode-bidi="normal" text-decoration="none" transform="matrix(1 0 0 1 588.362 830)">-</text><text fill="#0B3A66" fill-opacity="1" font-family="Aptos Display,Aptos Display_MSFontService,sans-serif" font-style="normal" font-variant="normal" font-weight="700" font-stretch="normal" font-size="78" text-anchor="start" direction="ltr" writing-mode="lr-tb" unicode-bidi="normal" text-decoration="none" transform="matrix(1 0 0 1 617.008 830)">variable slope</text><text fill="#0B3A66" fill-opacity="1" font-family="Cambria Math,Cambria Math_MSFontService,sans-serif" font-style="oblique" font-variant="normal" font-weight="400" font-stretch="normal" font-size="138" text-anchor="start" direction="ltr" writing-mode="lr-tb" unicode-bidi="normal" text-decoration="none" transform="matrix(1 0 0 1 568.459 1079)">df/dx</text><text fill="#0B3A66" fill-opacity="1" font-family="Aptos,Aptos_MSFontService,sans-serif" font-style="normal" font-variant="normal" font-weight="700" font-stretch="normal" font-size="71" text-anchor="start" direction="ltr" writing-mode="lr-tb" unicode-bidi="normal" text-decoration="none" transform="matrix(1 0 0 1 446.027 1297)">rate of change of f</text><text fill="#0B3A66" fill-opacity="1" font-family="Aptos,Aptos_MSFontService,sans-serif" font-style="normal" font-variant="normal" font-weight="700" font-stretch="normal" font-size="71" text-anchor="start" direction="ltr" writing-mode="lr-tb" unicode-bidi="normal" text-decoration="none" transform="matrix(1 0 0 1 467.637 1382)">with respect to x</text><text fill="#D96600" fill-opacity="1" font-family="Aptos Display,Aptos Display_MSFontService,sans-serif" font-style="normal" font-variant="normal" font-weight="700" font-stretch="normal" font-size="83" text-anchor="start" direction="ltr" writing-mode="lr-tb" unicode-bidi="normal" text-decoration="none" transform="matrix(1 0 0 1 2046 832)">Gradient</text><text fill="#D96600" fill-opacity="1" font-family="Cambria Math,Cambria Math_MSFontService,sans-serif" font-style="oblique" font-variant="normal" font-weight="400" font-stretch="normal" font-size="138" text-anchor="start" direction="ltr" writing-mode="lr-tb" unicode-bidi="normal" text-decoration="none" transform="matrix(1 0 0 1 2045.4 1072)">∇f(x)</text><text fill="#D96600" fill-opacity="1" font-family="Aptos,Aptos_MSFontService,sans-serif" font-style="normal" font-variant="normal" font-weight="700" font-stretch="normal" font-size="70" text-anchor="start" direction="ltr" writing-mode="lr-tb" unicode-bidi="normal" text-decoration="none" transform="matrix(1 0 0 1 1776.83 1287)">collects partial derivatives</text><text fill="#D96600" fill-opacity="1" font-family="Aptos,Aptos_MSFontService,sans-serif" font-style="normal" font-variant="normal" font-weight="700" font-stretch="normal" font-size="70" text-anchor="start" direction="ltr" writing-mode="lr-tb" unicode-bidi="normal" text-decoration="none" transform="matrix(1 0 0 1 1841.23 1371)">for all design variables</text><text fill="#137D49" fill-opacity="1" font-family="Aptos Display,Aptos Display_MSFontService,sans-serif" font-style="normal" font-variant="normal" font-weight="700" font-stretch="normal" font-size="83" text-anchor="start" direction="ltr" writing-mode="lr-tb" unicode-bidi="normal" text-decoration="none" transform="matrix(1 0 0 1 3425.38 927)">Interpretation</text><text fill="#137D49" fill-opacity="1" font-family="Aptos,Aptos_MSFontService,sans-serif" font-style="normal" font-variant="normal" font-weight="700" font-stretch="normal" font-size="74" text-anchor="start" direction="ltr" writing-mode="lr-tb" unicode-bidi="normal" text-decoration="none" transform="matrix(1 0 0 1 3298.38 1201)">points in the direction</text><text fill="#137D49" fill-opacity="1" font-family="Aptos,Aptos_MSFontService,sans-serif" font-style="normal" font-variant="normal" font-weight="700" font-stretch="normal" font-size="74" text-anchor="start" direction="ltr" writing-mode="lr-tb" unicode-bidi="normal" text-decoration="none" transform="matrix(1 0 0 1 3324.05 1290)">of steepest increase</text><text fill="#4B5563" fill-opacity="1" font-family="Aptos,Aptos_MSFontService,sans-serif" font-style="italic" font-variant="normal" font-weight="400" font-stretch="normal" font-size="55" text-anchor="start" direction="ltr" writing-mode="lr-tb" unicode-bidi="normal" text-decoration="none" transform="matrix(1 0 0 1 1307.97 1076)">one variable</text><text fill="#4B5563" fill-opacity="1" font-family="Aptos,Aptos_MSFontService,sans-serif" font-style="italic" font-variant="normal" font-weight="400" font-stretch="normal" font-size="55" text-anchor="start" direction="ltr" writing-mode="lr-tb" unicode-bidi="normal" text-decoration="none" transform="matrix(1 0 0 1 2753.37 1075)">many variables</text></g></g></svg>