<svg width="3896" height="1769" xmlns="http://www.w3.org/2000/svg" xmlns:xlink="http://www.w3.org/1999/xlink" xml:space="preserve" overflow="hidden"><defs><filter id="fx0" x="-10%" y="-10%" width="120%" height="120%" filterUnits="userSpaceOnUse" primitiveUnits="userSpaceOnUse"><feComponentTransfer color-interpolation-filters="sRGB"><feFuncR type="discrete" tableValues="0.850980 0.850980"/><feFuncG type="discrete" tableValues="0.878431 0.878431"/><feFuncB type="discrete" tableValues="0.909804 0.909804"/><feFuncA type="linear" slope="0.219608" intercept="0.000000"/></feComponentTransfer><feGaussianBlur stdDeviation="1.833333 1.833333"/></filter><filter id="fx1" x="-10%" y="-10%" width="120%" height="120%" filterUnits="userSpaceOnUse" primitiveUnits="userSpaceOnUse"><feComponentTransfer color-interpolation-filters="sRGB"><feFuncR type="discrete" tableValues="0.850980 0.850980"/><feFuncG type="discrete" tableValues="0.878431 0.878431"/><feFuncB type="discrete" tableValues="0.909804 0.909804"/><feFuncA type="linear" slope="0.219608" intercept="0.000000"/></feComponentTransfer><feGaussianBlur stdDeviation="1.833333 1.833333"/></filter><filter id="fx2" x="-10%" y="-10%" width="120%" height="120%" filterUnits="userSpaceOnUse" primitiveUnits="userSpaceOnUse"><feComponentTransfer color-interpolation-filters="sRGB"><feFuncR type="discrete" tableValues="0.850980 0.850980"/><feFuncG type="discrete" tableValues="0.878431 0.878431"/><feFuncB type="discrete" tableValues="0.909804 0.909804"/><feFuncA type="linear" slope="0.219608" intercept="0.000000"/></feComponentTransfer><feGaussianBlur stdDeviation="1.833333 1.833333"/></filter><filter id="fx3" x="-10%" y="-10%" width="120%" height="120%" filterUnits="userSpaceOnUse" primitiveUnits="userSpaceOnUse"><feComponentTransfer color-interpolation-filters="sRGB"><feFuncR type="discrete" tableValues="0.850980 0.850980"/><feFuncG type="discrete" tableValues="0.878431 0.878431"/><feFuncB type="discrete" tableValues="0.909804 0.909804"/><feFuncA type="linear" slope="0.219608" intercept="0.000000"/></feComponentTransfer><feGaussianBlur stdDeviation="1.833333 1.833333"/></filter><clipPath id="clip4"><path d="M260.632 726C238.744 726 221 743.744 221 765.632L221 1363.37C221 1385.26 238.744 1403 260.632 1403L1046.37 1403C1068.26 1403 1086 1385.26 1086 1363.37L1086 765.632C1086 743.744 1068.26 726 1046.37 726ZM215 110 4111 110 4111 1879 215 1879Z" fill-rule="evenodd" clip-rule="evenodd"/></clipPath><clipPath id="clip5"><path d="M1260.63 726C1238.74 726 1221 743.744 1221 765.632L1221 1363.37C1221 1385.26 1238.74 1403 1260.63 1403L2046.37 1403C2068.26 1403 2086 1385.26 2086 1363.37L2086 765.632C2086 743.744 2068.26 726 2046.37 726ZM215 110 4111 110 4111 1879 215 1879Z" fill-rule="evenodd" clip-rule="evenodd"/></clipPath><clipPath id="clip6"><path d="M2260.63 726C2238.74 726 2221 743.744 2221 765.632L2221 1363.37C2221 1385.26 2238.74 1403 2260.63 1403L3046.37 1403C3068.26 1403 3086 1385.26 3086 1363.37L3086 765.632C3086 743.744 3068.26 726 3046.37 726ZM215 110 4111 110 4111 1879 215 1879Z" fill-rule="evenodd" clip-rule="evenodd"/></clipPath><clipPath id="clip7"><path d="M3260.63 726C3238.74 726 3221 743.743 3221 765.631L3221 1363.37C3221 1385.26 3238.74 1403 3260.63 1403L4045.37 1403C4067.26 1403 4085 1385.26 4085 1363.37L4085 765.631C4085 743.743 4067.26 726 4045.37 726ZM215 110 4111 110 4111 1879 215 1879Z" fill-rule="evenodd" clip-rule="evenodd"/></clipPath></defs><g transform="translate(-215 -110)"><g><path d="M799.5 149.449C799.5 131.252 814.252 116.5 832.449 116.5L3571.55 116.5C3589.75 116.5 3604.5 131.252 3604.5 149.449L3604.5 340.551C3604.5 358.748 3589.75 373.5 3571.55 373.5L832.449 373.5C814.252 373.5 799.5 358.748 799.5 340.551Z" stroke="#0B3A66" stroke-width="9.16667" stroke-linecap="butt" stroke-linejoin="round" stroke-miterlimit="10" stroke-opacity="1" fill="#FFFFFF" fill-rule="evenodd" fill-opacity="0"/><text fill="#0B3A66" fill-opacity="1" font-family="Aptos Display,Aptos Display_MSFontService,sans-serif" font-style="normal" font-variant="normal" font-weight="700" font-stretch="normal" font-size="133" text-anchor="start" direction="ltr" writing-mode="lr-tb" unicode-bidi="normal" text-decoration="none" transform="matrix(1 0 0 1 1178.76 287)">Anatomy of an optimization problem</text><text fill="#596579" fill-opacity="1" font-family="Aptos,Aptos_MSFontService,sans-serif" font-style="normal" font-variant="normal" font-weight="700" font-stretch="normal" font-size="73" text-anchor="start" direction="ltr" writing-mode="lr-tb" unicode-bidi="normal" text-decoration="none" transform="matrix(1 0 0 1 1207.01 568)">A complete optimization statement answers four questions:</text><path d="M1135 1058.04 1142.21 1058.04 1142.21 1069.96 1135 1069.96ZM1136.25 1046.12 1172 1064 1136.25 1081.87Z" fill="#5A6472" fill-rule="nonzero" fill-opacity="1"/><path d="M2135 1058.04 2141.21 1058.04 2141.21 1069.96 2135 1069.96ZM2135.25 1046.12 2171 1064 2135.25 1081.87Z" fill="#5A6472" fill-rule="nonzero" fill-opacity="1"/><path d="M3135 1058.04 3141.21 1058.04 3141.21 1069.96 3135 1069.96ZM3135.25 1046.12 3171 1064 3135.25 1081.87Z" fill="#5A6472" fill-rule="nonzero" fill-opacity="1"/><g clip-path="url(#clip4)"><g filter="url(#fx0)" transform="translate(222 727)"><g><g><path d="M11.9637 51.5953C11.9637 29.7073 29.7073 11.9636 51.5953 11.9636L837.332 11.9636C859.22 11.9636 876.964 29.7073 876.964 51.5953L876.964 649.332C876.964 671.22 859.22 688.963 837.332 688.963L51.5953 688.963C29.7073 688.963 11.9637 671.22 11.9637 649.332Z" stroke="#0B3A66" stroke-width="10" stroke-linecap="butt" stroke-linejoin="round" stroke-miterlimit="10" stroke-opacity="1" fill="#EAF3FB" fill-rule="evenodd" fill-opacity="1"/></g></g></g></g><path d="M221 765.632C221 743.744 238.744 726 260.632 726L1046.37 726C1068.26 726 1086 743.744 1086 765.632L1086 1363.37C1086 1385.26 1068.26 1403 1046.37 1403L260.632 1403C238.744 1403 221 1385.26 221 1363.37Z" stroke="#0B3A66" stroke-width="9.625" stroke-linecap="butt" stroke-linejoin="round" stroke-miterlimit="10" stroke-opacity="1" fill="#EAF3FB" fill-rule="evenodd" fill-opacity="1"/><text fill="#0B3A66" fill-opacity="1" font-family="Aptos,Aptos_MSFontService,sans-serif" font-style="normal" font-variant="normal" font-weight="700" font-stretch="normal" font-size="96" text-anchor="start" direction="ltr" writing-mode="lr-tb" unicode-bidi="normal" text-decoration="none" transform="matrix(1 0 0 1 460.327 885)">Decision </text><text fill="#0B3A66" fill-opacity="1" font-family="Aptos,Aptos_MSFontService,sans-serif" font-style="normal" font-variant="normal" font-weight="700" font-stretch="normal" font-size="96" text-anchor="start" direction="ltr" writing-mode="lr-tb" unicode-bidi="normal" text-decoration="none" transform="matrix(1 0 0 1 451.962 989)">variables</text><text fill="#0B3A66" fill-opacity="1" font-family="Aptos,Aptos_MSFontService,sans-serif" font-style="normal" font-variant="normal" font-weight="700" font-stretch="normal" font-size="110" text-anchor="start" direction="ltr" writing-mode="lr-tb" unicode-bidi="normal" text-decoration="none" transform="matrix(1 0 0 1 626.175 1104)">x</text><text fill="#0B3A66" fill-opacity="1" font-family="Aptos,Aptos_MSFontService,sans-serif" font-style="normal" font-variant="normal" font-weight="400" font-stretch="normal" font-size="64" text-anchor="start" direction="ltr" writing-mode="lr-tb" unicode-bidi="normal" text-decoration="none" transform="matrix(1 0 0 1 418.641 1304)">what can change</text><g clip-path="url(#clip5)"><g filter="url(#fx1)" transform="translate(1222 727)"><g><g><path d="M11.9636 51.5953C11.9636 29.7073 29.7073 11.9636 51.5953 11.9636L837.332 11.9636C859.22 11.9636 876.964 29.7073 876.964 51.5953L876.964 649.332C876.964 671.22 859.22 688.963 837.332 688.963L51.5953 688.963C29.7073 688.963 11.9636 671.22 11.9636 649.332Z" stroke="#D97706" stroke-width="10" stroke-linecap="butt" stroke-linejoin="round" stroke-miterlimit="10" stroke-opacity="1" fill="#FFF5D6" fill-rule="evenodd" fill-opacity="1"/></g></g></g></g><path d="M1221 765.632C1221 743.744 1238.74 726 1260.63 726L2046.37 726C2068.26 726 2086 743.744 2086 765.632L2086 1363.37C2086 1385.26 2068.26 1403 2046.37 1403L1260.63 1403C1238.74 1403 1221 1385.26 1221 1363.37Z" stroke="#D97706" stroke-width="9.625" stroke-linecap="butt" stroke-linejoin="round" stroke-miterlimit="10" stroke-opacity="1" fill="#FFF5D6" fill-rule="evenodd" fill-opacity="1"/><text fill="#D97706" fill-opacity="1" font-family="Aptos,Aptos_MSFontService,sans-serif" font-style="normal" font-variant="normal" font-weight="700" font-stretch="normal" font-size="105" text-anchor="start" direction="ltr" writing-mode="lr-tb" unicode-bidi="normal" text-decoration="none" transform="matrix(1 0 0 1 1423.8 925)">Objective</text><text fill="#D97706" fill-opacity="1" font-family="Aptos,Aptos_MSFontService,sans-serif" font-style="normal" font-variant="normal" font-weight="400" font-stretch="normal" font-size="110" text-anchor="start" direction="ltr" writing-mode="lr-tb" unicode-bidi="normal" text-decoration="none" transform="matrix(1 0 0 1 1478.57 1056)">min f(x)</text><text fill="#D97706" fill-opacity="1" font-family="Aptos,Aptos_MSFontService,sans-serif" font-style="normal" font-variant="normal" font-weight="400" font-stretch="normal" font-size="69" text-anchor="start" direction="ltr" writing-mode="lr-tb" unicode-bidi="normal" text-decoration="none" transform="matrix(1 0 0 1 1403.22 1282)">what is improved</text><g clip-path="url(#clip6)"><g filter="url(#fx2)" transform="translate(2222 727)"><g><g><path d="M11.9636 51.5953C11.9636 29.7073 29.7073 11.9636 51.5953 11.9636L837.332 11.9636C859.22 11.9636 876.964 29.7073 876.964 51.5953L876.964 649.332C876.964 671.22 859.22 688.963 837.332 688.963L51.5953 688.963C29.7073 688.963 11.9636 671.22 11.9636 649.332Z" stroke="#7C3AED" stroke-width="10" stroke-linecap="butt" stroke-linejoin="round" stroke-miterlimit="10" stroke-opacity="1" fill="#F6E7F3" fill-rule="evenodd" fill-opacity="1"/></g></g></g></g><path d="M2221 765.632C2221 743.744 2238.74 726 2260.63 726L3046.37 726C3068.26 726 3086 743.744 3086 765.632L3086 1363.37C3086 1385.26 3068.26 1403 3046.37 1403L2260.63 1403C2238.74 1403 2221 1385.26 2221 1363.37Z" stroke="#7C3AED" stroke-width="9.625" stroke-linecap="butt" stroke-linejoin="round" stroke-miterlimit="10" stroke-opacity="1" fill="#F6E7F3" fill-rule="evenodd" fill-opacity="1"/><text fill="#7C3AED" fill-opacity="1" font-family="Aptos,Aptos_MSFontService,sans-serif" font-style="normal" font-variant="normal" font-weight="700" font-stretch="normal" font-size="105" text-anchor="start" direction="ltr" writing-mode="lr-tb" unicode-bidi="normal" text-decoration="none" transform="matrix(1 0 0 1 2372.26 892)">Constraints</text><text fill="#7C3AED" fill-opacity="1" font-family="Aptos,Aptos_MSFontService,sans-serif" font-style="normal" font-variant="normal" font-weight="400" font-stretch="normal" font-size="101" text-anchor="start" direction="ltr" writing-mode="lr-tb" unicode-bidi="normal" text-decoration="none" transform="matrix(1 0 0 1 2502.22 1003)">g(x) ≤ 0</text><text fill="#7C3AED" fill-opacity="1" font-family="Aptos,Aptos_MSFontService,sans-serif" font-style="normal" font-variant="normal" font-weight="400" font-stretch="normal" font-size="101" text-anchor="start" direction="ltr" writing-mode="lr-tb" unicode-bidi="normal" text-decoration="none" transform="matrix(1 0 0 1 2498.79 1111)">h(x) = 0</text><text fill="#7C3AED" fill-opacity="1" font-family="Aptos,Aptos_MSFontService,sans-serif" font-style="normal" font-variant="normal" font-weight="400" font-stretch="normal" font-size="69" text-anchor="start" direction="ltr" writing-mode="lr-tb" unicode-bidi="normal" text-decoration="none" transform="matrix(1 0 0 1 2355.24 1303)">conditions to satisfy</text><g clip-path="url(#clip7)"><g filter="url(#fx3)" transform="translate(3222 727)"><g><g><path d="M11.9636 51.5948C11.9636 29.7071 29.7071 11.9636 51.5948 11.9636L836.333 11.9636C858.22 11.9636 875.964 29.7071 875.964 51.5948L875.964 649.332C875.964 671.22 858.22 688.963 836.333 688.963L51.5948 688.963C29.7071 688.963 11.9636 671.22 11.9636 649.332Z" stroke="#2E8B57" stroke-width="10" stroke-linecap="butt" stroke-linejoin="round" stroke-miterlimit="10" stroke-opacity="1" fill="#EAF6EF" fill-rule="evenodd" fill-opacity="1"/></g></g></g></g><path d="M3221 765.631C3221 743.743 3238.74 726 3260.63 726L4045.37 726C4067.26 726 4085 743.743 4085 765.631L4085 1363.37C4085 1385.26 4067.26 1403 4045.37 1403L3260.63 1403C3238.74 1403 3221 1385.26 3221 1363.37Z" stroke="#2E8B57" stroke-width="9.625" stroke-linecap="butt" stroke-linejoin="round" stroke-miterlimit="10" stroke-opacity="1" fill="#EAF6EF" fill-rule="evenodd" fill-opacity="1"/><text fill="#2E8B57" fill-opacity="1" font-family="Aptos,Aptos_MSFontService,sans-serif" font-style="normal" font-variant="normal" font-weight="700" font-stretch="normal" font-size="96" text-anchor="start" direction="ltr" writing-mode="lr-tb" unicode-bidi="normal" text-decoration="none" transform="matrix(1 0 0 1 3277.36 887)">Feasible </text><text fill="#2E8B57" fill-opacity="1" font-family="Aptos,Aptos_MSFontService,sans-serif" font-style="normal" font-variant="normal" font-weight="700" font-stretch="normal" font-size="96" text-anchor="start" direction="ltr" writing-mode="lr-tb" unicode-bidi="normal" text-decoration="none" transform="matrix(1 0 0 1 3668.48 887)">solution</text><text fill="#2E8B57" fill-opacity="1" font-family="Aptos,Aptos_MSFontService,sans-serif" font-style="normal" font-variant="normal" font-weight="700" font-stretch="normal" font-size="110" text-anchor="start" direction="ltr" writing-mode="lr-tb" unicode-bidi="normal" text-decoration="none" transform="matrix(1 0 0 1 3600.67 1014)">x*</text><text fill="#2E8B57" fill-opacity="1" font-family="Aptos,Aptos_MSFontService,sans-serif" font-style="normal" font-variant="normal" font-weight="400" font-stretch="normal" font-size="64" text-anchor="start" direction="ltr" writing-mode="lr-tb" unicode-bidi="normal" text-decoration="none" transform="matrix(1 0 0 1 3310.38 1236)">best design that satisfies </text><text fill="#2E8B57" fill-opacity="1" font-family="Aptos,Aptos_MSFontService,sans-serif" font-style="normal" font-variant="normal" font-weight="400" font-stretch="normal" font-size="64" text-anchor="start" direction="ltr" writing-mode="lr-tb" unicode-bidi="normal" text-decoration="none" transform="matrix(1 0 0 1 3497.08 1313)">constraints</text><text fill="#C03346" fill-opacity="1" font-family="Aptos,Aptos_MSFontService,sans-serif" font-style="normal" font-variant="normal" font-weight="700" font-stretch="normal" font-size="73" text-anchor="start" direction="ltr" writing-mode="lr-tb" unicode-bidi="normal" text-decoration="none" transform="matrix(1 0 0 1 1780.41 1511)">Optimization formulation</text><path d="M420.5 1580.94C420.5 1566.34 432.338 1554.5 446.94 1554.5L3951.06 1554.5C3965.66 1554.5 3977.5 1566.34 3977.5 1580.94L3977.5 1842.06C3977.5 1856.66 3965.66 1868.5 3951.06 1868.5L446.94 1868.5C432.338 1868.5 420.5 1856.66 420.5 1842.06Z" stroke="#C03346" stroke-width="9.16667" stroke-linecap="butt" stroke-linejoin="round" stroke-miterlimit="10" stroke-opacity="1" fill="#FFF3F5" fill-rule="evenodd" fill-opacity="1"/><text fill="#C03346" fill-opacity="1" font-family="Aptos,Aptos_MSFontService,sans-serif" font-style="normal" font-variant="normal" font-weight="400" font-stretch="normal" font-size="92" text-anchor="start" direction="ltr" writing-mode="lr-tb" unicode-bidi="normal" text-decoration="none" transform="matrix(1 0 0 1 440.802 1686)">A good formulation clearly states </text><text fill="#C03346" fill-opacity="1" font-family="Aptos,Aptos_MSFontService,sans-serif" font-style="normal" font-variant="normal" font-weight="700" font-stretch="normal" font-size="92" text-anchor="start" direction="ltr" writing-mode="lr-tb" unicode-bidi="normal" text-decoration="none" transform="matrix(1 0 0 1 1793.25 1686)">what </text><text fill="#C03346" fill-opacity="1" font-family="Aptos,Aptos_MSFontService,sans-serif" font-style="normal" font-variant="normal" font-weight="700" font-stretch="normal" font-size="92" text-anchor="start" direction="ltr" writing-mode="lr-tb" unicode-bidi="normal" text-decoration="none" transform="matrix(1 0 0 1 2017.84 1686)">can change</text><text fill="#C03346" fill-opacity="1" font-family="Aptos,Aptos_MSFontService,sans-serif" font-style="normal" font-variant="normal" font-weight="400" font-stretch="normal" font-size="92" text-anchor="start" direction="ltr" writing-mode="lr-tb" unicode-bidi="normal" text-decoration="none" transform="matrix(1 0 0 1 2494.34 1686)">, </text><text fill="#C03346" fill-opacity="1" font-family="Aptos,Aptos_MSFontService,sans-serif" font-style="normal" font-variant="normal" font-weight="700" font-stretch="normal" font-size="92" text-anchor="start" direction="ltr" writing-mode="lr-tb" unicode-bidi="normal" text-decoration="none" transform="matrix(1 0 0 1 2539.6 1686)">what is being improved</text><text fill="#C03346" fill-opacity="1" font-family="Aptos,Aptos_MSFontService,sans-serif" font-style="normal" font-variant="normal" font-weight="400" font-stretch="normal" font-size="92" text-anchor="start" direction="ltr" writing-mode="lr-tb" unicode-bidi="normal" text-decoration="none" transform="matrix(1 0 0 1 3497.56 1686)">,   </text><text fill="#C03346" fill-opacity="1" font-family="Aptos,Aptos_MSFontService,sans-serif" font-style="normal" font-variant="normal" font-weight="400" font-stretch="normal" font-size="92" text-anchor="start" direction="ltr" writing-mode="lr-tb" unicode-bidi="normal" text-decoration="none" transform="matrix(1 0 0 1 3580.64 1686)">and </text><text fill="#C03346" fill-opacity="1" font-family="Aptos,Aptos_MSFontService,sans-serif" font-style="normal" font-variant="normal" font-weight="700" font-stretch="normal" font-size="92" text-anchor="start" direction="ltr" writing-mode="lr-tb" unicode-bidi="normal" text-decoration="none" transform="matrix(1 0 0 1 3750.22 1686)">what </text><text fill="#C03346" fill-opacity="1" font-family="Aptos,Aptos_MSFontService,sans-serif" font-style="normal" font-variant="normal" font-weight="700" font-stretch="normal" font-size="92" text-anchor="start" direction="ltr" writing-mode="lr-tb" unicode-bidi="normal" text-decoration="none" transform="matrix(1 0 0 1 1731.17 1796)">must remain satisfied</text><text fill="#C03346" fill-opacity="1" font-family="Aptos,Aptos_MSFontService,sans-serif" font-style="normal" font-variant="normal" font-weight="400" font-stretch="normal" font-size="92" text-anchor="start" direction="ltr" writing-mode="lr-tb" unicode-bidi="normal" text-decoration="none" transform="matrix(1 0 0 1 2639.17 1796)">.</text></g></g></svg>