<svg width="3704" height="2031" xmlns="http://www.w3.org/2000/svg" xmlns:xlink="http://www.w3.org/1999/xlink" xml:space="preserve" overflow="hidden"><defs><filter id="fx0" x="-10%" y="-10%" width="120%" height="120%" filterUnits="userSpaceOnUse" primitiveUnits="userSpaceOnUse"><feComponentTransfer color-interpolation-filters="sRGB"><feFuncR type="discrete" tableValues="0.831373 0.831373"/><feFuncG type="discrete" tableValues="0.866667 0.866667"/><feFuncB type="discrete" tableValues="0.909804 0.909804"/><feFuncA type="linear" slope="0.160784" intercept="0.000000"/></feComponentTransfer><feGaussianBlur stdDeviation="1.527778 1.527778"/></filter><filter id="fx1" x="-10%" y="-10%" width="120%" height="120%" filterUnits="userSpaceOnUse" primitiveUnits="userSpaceOnUse"><feComponentTransfer color-interpolation-filters="sRGB"><feFuncR type="discrete" tableValues="0.831373 0.831373"/><feFuncG type="discrete" tableValues="0.866667 0.866667"/><feFuncB type="discrete" tableValues="0.909804 0.909804"/><feFuncA type="linear" slope="0.180392" intercept="0.000000"/></feComponentTransfer><feGaussianBlur stdDeviation="1.527778 1.527778"/></filter><filter id="fx2" x="-10%" y="-10%" width="120%" height="120%" filterUnits="userSpaceOnUse" primitiveUnits="userSpaceOnUse"><feComponentTransfer color-interpolation-filters="sRGB"><feFuncR type="discrete" tableValues="0.831373 0.831373"/><feFuncG type="discrete" tableValues="0.866667 0.866667"/><feFuncB type="discrete" tableValues="0.909804 0.909804"/><feFuncA type="linear" slope="0.180392" intercept="0.000000"/></feComponentTransfer><feGaussianBlur stdDeviation="1.527778 1.527778"/></filter><filter id="fx3" x="-10%" y="-10%" width="120%" height="120%" filterUnits="userSpaceOnUse" primitiveUnits="userSpaceOnUse"><feComponentTransfer color-interpolation-filters="sRGB"><feFuncR type="discrete" tableValues="0.831373 0.831373"/><feFuncG type="discrete" tableValues="0.866667 0.866667"/><feFuncB type="discrete" tableValues="0.909804 0.909804"/><feFuncA type="linear" slope="0.180392" intercept="0.000000"/></feComponentTransfer><feGaussianBlur stdDeviation="1.527778 1.527778"/></filter><filter id="fx4" x="-10%" y="-10%" width="120%" height="120%" filterUnits="userSpaceOnUse" primitiveUnits="userSpaceOnUse"><feComponentTransfer color-interpolation-filters="sRGB"><feFuncR type="discrete" tableValues="0.831373 0.831373"/><feFuncG type="discrete" tableValues="0.866667 0.866667"/><feFuncB type="discrete" tableValues="0.909804 0.909804"/><feFuncA type="linear" slope="0.180392" intercept="0.000000"/></feComponentTransfer><feGaussianBlur stdDeviation="1.527778 1.527778"/></filter><filter id="fx5" x="-10%" y="-10%" width="120%" height="120%" filterUnits="userSpaceOnUse" primitiveUnits="userSpaceOnUse"><feComponentTransfer color-interpolation-filters="sRGB"><feFuncR type="discrete" tableValues="0.831373 0.831373"/><feFuncG type="discrete" tableValues="0.866667 0.866667"/><feFuncB type="discrete" tableValues="0.909804 0.909804"/><feFuncA type="linear" slope="0.180392" intercept="0.000000"/></feComponentTransfer><feGaussianBlur stdDeviation="1.527778 1.527778"/></filter><filter id="fx6" x="-10%" y="-10%" width="120%" height="120%" filterUnits="userSpaceOnUse" primitiveUnits="userSpaceOnUse"><feComponentTransfer color-interpolation-filters="sRGB"><feFuncR type="discrete" tableValues="0.831373 0.831373"/><feFuncG type="discrete" tableValues="0.866667 0.866667"/><feFuncB type="discrete" tableValues="0.909804 0.909804"/><feFuncA type="linear" slope="0.180392" intercept="0.000000"/></feComponentTransfer><feGaussianBlur stdDeviation="1.527778 1.527778"/></filter><filter id="fx7" x="-10%" y="-10%" width="120%" height="120%" filterUnits="userSpaceOnUse" primitiveUnits="userSpaceOnUse"><feComponentTransfer color-interpolation-filters="sRGB"><feFuncR type="discrete" tableValues="0.831373 0.831373"/><feFuncG type="discrete" tableValues="0.866667 0.866667"/><feFuncB type="discrete" tableValues="0.909804 0.909804"/><feFuncA type="linear" slope="0.180392" intercept="0.000000"/></feComponentTransfer><feGaussianBlur stdDeviation="1.527778 1.527778"/></filter><filter id="fx8" x="-10%" y="-10%" width="120%" height="120%" filterUnits="userSpaceOnUse" primitiveUnits="userSpaceOnUse"><feComponentTransfer color-interpolation-filters="sRGB"><feFuncR type="discrete" tableValues="0.831373 0.831373"/><feFuncG type="discrete" tableValues="0.866667 0.866667"/><feFuncB type="discrete" tableValues="0.909804 0.909804"/><feFuncA type="linear" slope="0.180392" intercept="0.000000"/></feComponentTransfer><feGaussianBlur stdDeviation="1.527778 1.527778"/></filter><clipPath id="clip9"><path d="M946.742 132C930.316 132 917 145.316 917 161.742L917 406.258C917 422.684 930.316 436 946.742 436L3226.26 436C3242.68 436 3256 422.684 3256 406.258L3256 161.742C3256 145.316 3242.68 132 3226.26 132ZM242 123 3946 123 3946 2154 242 2154Z" fill-rule="evenodd" clip-rule="evenodd"/></clipPath><clipPath id="clip10"><path d="M287.638 660C265.746 660 248 677.747 248 699.638L248 1165.36C248 1187.25 265.746 1205 287.638 1205L1099.36 1205C1121.25 1205 1139 1187.25 1139 1165.36L1139 699.638C1139 677.747 1121.25 660 1099.36 660ZM242 123 3946 123 3946 2154 242 2154Z" fill-rule="evenodd" clip-rule="evenodd"/></clipPath><clipPath id="clip11"><path d="M287.6 1733C265.729 1733 248 1750.73 248 1772.6L248 2089.4C248 2111.27 265.729 2129 287.6 2129L1099.4 2129C1121.27 2129 1139 2111.27 1139 2089.4L1139 1772.6C1139 1750.73 1121.27 1733 1099.4 1733ZM242 123 3946 123 3946 2154 242 2154Z" fill-rule="evenodd" clip-rule="evenodd"/></clipPath><clipPath id="clip12"><path d="M1211.64 660C1189.75 660 1172 677.747 1172 699.638L1172 1165.36C1172 1187.25 1189.75 1205 1211.64 1205L2023.36 1205C2045.25 1205 2063 1187.25 2063 1165.36L2063 699.638C2063 677.747 2045.25 660 2023.36 660ZM242 123 3946 123 3946 2154 242 2154Z" fill-rule="evenodd" clip-rule="evenodd"/></clipPath><clipPath id="clip13"><path d="M1211.6 1733C1189.73 1733 1172 1750.73 1172 1772.6L1172 2089.4C1172 2111.27 1189.73 2129 1211.6 2129L2023.4 2129C2045.27 2129 2063 2111.27 2063 2089.4L2063 1772.6C2063 1750.73 2045.27 1733 2023.4 1733ZM242 123 3946 123 3946 2154 242 2154Z" fill-rule="evenodd" clip-rule="evenodd"/></clipPath><clipPath id="clip14"><path d="M2135.64 660C2113.75 660 2096 677.747 2096 699.638L2096 1165.36C2096 1187.25 2113.75 1205 2135.64 1205L2947.36 1205C2969.25 1205 2987 1187.25 2987 1165.36L2987 699.638C2987 677.747 2969.25 660 2947.36 660ZM242 123 3946 123 3946 2154 242 2154Z" fill-rule="evenodd" clip-rule="evenodd"/></clipPath><clipPath id="clip15"><path d="M2135.6 1733C2113.73 1733 2096 1750.73 2096 1772.6L2096 2089.4C2096 2111.27 2113.73 2129 2135.6 2129L2947.4 2129C2969.27 2129 2987 2111.27 2987 2089.4L2987 1772.6C2987 1750.73 2969.27 1733 2947.4 1733ZM242 123 3946 123 3946 2154 242 2154Z" fill-rule="evenodd" clip-rule="evenodd"/></clipPath><clipPath id="clip16"><path d="M3059.64 660C3037.75 660 3020 677.747 3020 699.638L3020 1165.36C3020 1187.25 3037.75 1205 3059.64 1205L3871.36 1205C3893.25 1205 3911 1187.25 3911 1165.36L3911 699.638C3911 677.747 3893.25 660 3871.36 660ZM242 123 3946 123 3946 2154 242 2154Z" fill-rule="evenodd" clip-rule="evenodd"/></clipPath><clipPath id="clip17"><path d="M3059.6 1733C3037.73 1733 3020 1750.73 3020 1772.6L3020 2089.4C3020 2111.27 3037.73 2129 3059.6 2129L3871.4 2129C3893.27 2129 3911 2111.27 3911 2089.4L3911 1772.6C3911 1750.73 3893.27 1733 3871.4 1733ZM242 123 3946 123 3946 2154 242 2154Z" fill-rule="evenodd" clip-rule="evenodd"/></clipPath></defs><g transform="translate(-242 -123)"><g><g clip-path="url(#clip9)"><g filter="url(#fx0)" transform="translate(919 134)"><g><g><path d="M10.9637 40.7052C10.9637 24.2794 24.2794 10.9636 40.7052 10.9636L2320.22 10.9636C2336.65 10.9636 2349.96 24.2794 2349.96 40.7052L2349.96 285.222C2349.96 301.648 2336.65 314.964 2320.22 314.964L40.7052 314.964C24.2794 314.964 10.9637 301.648 10.9637 285.222Z" stroke="#0B3D70" stroke-width="10" stroke-linecap="butt" stroke-linejoin="round" stroke-miterlimit="10" stroke-opacity="1" fill="#FFFFFF" fill-rule="evenodd" fill-opacity="1"/></g></g></g></g><path d="M917 161.742C917 145.316 930.316 132 946.742 132L3226.26 132C3242.68 132 3256 145.316 3256 161.742L3256 406.258C3256 422.684 3242.68 436 3226.26 436L946.742 436C930.316 436 917 422.684 917 406.258Z" stroke="#0B3D70" stroke-width="9.625" stroke-linecap="butt" stroke-linejoin="round" stroke-miterlimit="10" stroke-opacity="1" fill="#FFFFFF" fill-rule="evenodd" fill-opacity="1"/><text fill="#0B3D70" fill-opacity="1" font-family="Aptos Display,Aptos Display_MSFontService,sans-serif" font-style="normal" font-variant="normal" font-weight="700" font-stretch="normal" font-size="147" text-anchor="start" direction="ltr" writing-mode="lr-tb" unicode-bidi="normal" text-decoration="none" transform="matrix(1 0 0 1 1121.29 331)">Notation used in this course</text><path d="M665.5 1652.51 679.497 1652.51 679.497 1238.5 707.49 1238.5 707.49 1652.51 721.487 1652.51 693.493 1680.5Z" stroke="#4E5A66" stroke-width="4.58333" stroke-linecap="butt" stroke-linejoin="miter" stroke-miterlimit="8" stroke-opacity="0" fill="#4E5A66" fill-rule="evenodd" fill-opacity="1"/><path d="M1589.5 1652.51 1603.5 1652.51 1603.5 1238.5 1631.49 1238.5 1631.49 1652.51 1645.49 1652.51 1617.49 1680.5Z" stroke="#4E5A66" stroke-width="4.58333" stroke-linecap="butt" stroke-linejoin="miter" stroke-miterlimit="8" stroke-opacity="0" fill="#4E5A66" fill-rule="evenodd" fill-opacity="1"/><path d="M2513.5 1652.51 2527.5 1652.51 2527.5 1238.5 2555.49 1238.5 2555.49 1652.51 2569.49 1652.51 2541.49 1680.5Z" stroke="#4E5A66" stroke-width="4.58333" stroke-linecap="butt" stroke-linejoin="miter" stroke-miterlimit="8" stroke-opacity="0" fill="#4E5A66" fill-rule="evenodd" fill-opacity="1"/><path d="M3437.5 1652.51 3451.5 1652.51 3451.5 1238.5 3479.49 1238.5 3479.49 1652.51 3493.49 1652.51 3465.49 1680.5Z" stroke="#4E5A66" stroke-width="4.58333" stroke-linecap="butt" stroke-linejoin="miter" stroke-miterlimit="8" stroke-opacity="0" fill="#4E5A66" fill-rule="evenodd" fill-opacity="1"/><g clip-path="url(#clip10)"><g filter="url(#fx1)" transform="translate(250 662)"><g><g><path d="M10.9635 50.6017C10.9635 28.7102 28.71 10.9636 50.6015 10.9636L862.326 10.9636C884.217 10.9636 901.964 28.7102 901.964 50.6017L901.964 516.325C901.964 538.217 884.217 555.963 862.326 555.963L50.6015 555.963C28.71 555.963 10.9635 538.217 10.9635 516.325Z" stroke="#0B3D70" stroke-width="10" stroke-linecap="butt" stroke-linejoin="round" stroke-miterlimit="10" stroke-opacity="1" fill="#EAF4FE" fill-rule="evenodd" fill-opacity="1"/></g></g></g></g><path d="M248 699.638C248 677.747 265.746 660 287.638 660L1099.36 660C1121.25 660 1139 677.747 1139 699.638L1139 1165.36C1139 1187.25 1121.25 1205 1099.36 1205L287.638 1205C265.746 1205 248 1187.25 248 1165.36Z" stroke="#0B3D70" stroke-width="10.0833" stroke-linecap="butt" stroke-linejoin="round" stroke-miterlimit="10" stroke-opacity="1" fill="#EAF4FE" fill-rule="evenodd" fill-opacity="1"/><text fill="#0B3D70" fill-opacity="1" font-family="Aptos,Aptos_MSFontService,sans-serif" font-style="normal" font-variant="normal" font-weight="700" font-stretch="normal" font-size="115" text-anchor="start" direction="ltr" writing-mode="lr-tb" unicode-bidi="normal" text-decoration="none" transform="matrix(1 0 0 1 526.476 921)">Scalar</text><text fill="#0B3D70" fill-opacity="1" font-family="Aptos,Aptos_MSFontService,sans-serif" font-style="italic" font-variant="normal" font-weight="400" font-stretch="normal" font-size="105" text-anchor="start" direction="ltr" writing-mode="lr-tb" unicode-bidi="normal" text-decoration="none" transform="matrix(1 0 0 1 564.747 1050)">m, J, t</text><g clip-path="url(#clip11)"><g filter="url(#fx2)" transform="translate(250 1735)"><g><g><path d="M10.9635 50.5635C10.9635 28.693 28.693 10.9635 50.5635 10.9635L862.363 10.9635C884.234 10.9635 901.964 28.693 901.964 50.5635L901.964 367.363C901.964 389.234 884.234 406.964 862.363 406.964L50.5635 406.964C28.693 406.964 10.9635 389.234 10.9635 367.363Z" stroke="#0B3D70" stroke-width="10" stroke-linecap="butt" stroke-linejoin="round" stroke-miterlimit="10" stroke-opacity="1" fill="#EAF4FE" fill-rule="evenodd" fill-opacity="1"/></g></g></g></g><path d="M248 1772.6C248 1750.73 265.729 1733 287.6 1733L1099.4 1733C1121.27 1733 1139 1750.73 1139 1772.6L1139 2089.4C1139 2111.27 1121.27 2129 1099.4 2129L287.6 2129C265.729 2129 248 2111.27 248 2089.4Z" stroke="#0B3D70" stroke-width="10.0833" stroke-linecap="butt" stroke-linejoin="round" stroke-miterlimit="10" stroke-opacity="1" fill="#EAF4FE" fill-rule="evenodd" fill-opacity="1"/><text fill="#0B3D70" fill-opacity="1" font-family="Aptos,Aptos_MSFontService,sans-serif" font-style="normal" font-variant="normal" font-weight="400" font-stretch="normal" font-size="85" text-anchor="start" direction="ltr" writing-mode="lr-tb" unicode-bidi="normal" text-decoration="none" transform="matrix(1 0 0 1 432.323 1958)">single number</text><g clip-path="url(#clip12)"><g filter="url(#fx3)" transform="translate(1174 662)"><g><g><path d="M10.9635 50.6017C10.9635 28.7102 28.71 10.9636 50.6015 10.9636L862.326 10.9636C884.217 10.9636 901.964 28.7102 901.964 50.6017L901.964 516.325C901.964 538.217 884.217 555.963 862.326 555.963L50.6015 555.963C28.71 555.963 10.9635 538.217 10.9635 516.325Z" stroke="#D66B00" stroke-width="10" stroke-linecap="butt" stroke-linejoin="round" stroke-miterlimit="10" stroke-opacity="1" fill="#FFF7DA" fill-rule="evenodd" fill-opacity="1"/></g></g></g></g><path d="M1172 699.638C1172 677.747 1189.75 660 1211.64 660L2023.36 660C2045.25 660 2063 677.747 2063 699.638L2063 1165.36C2063 1187.25 2045.25 1205 2023.36 1205L1211.64 1205C1189.75 1205 1172 1187.25 1172 1165.36Z" stroke="#D66B00" stroke-width="10.0833" stroke-linecap="butt" stroke-linejoin="round" stroke-miterlimit="10" stroke-opacity="1" fill="#FFF7DA" fill-rule="evenodd" fill-opacity="1"/><text fill="#D66B00" fill-opacity="1" font-family="Aptos,Aptos_MSFontService,sans-serif" font-style="normal" font-variant="normal" font-weight="700" font-stretch="normal" font-size="115" text-anchor="start" direction="ltr" writing-mode="lr-tb" unicode-bidi="normal" text-decoration="none" transform="matrix(1 0 0 1 1446.94 921)">Vector</text><text fill="#D66B00" fill-opacity="1" font-family="Aptos,Aptos_MSFontService,sans-serif" font-style="italic" font-variant="normal" font-weight="400" font-stretch="normal" font-size="105" text-anchor="start" direction="ltr" writing-mode="lr-tb" unicode-bidi="normal" text-decoration="none" transform="matrix(1 0 0 1 1539.93 1050)">x, u</text><g clip-path="url(#clip13)"><g filter="url(#fx4)" transform="translate(1174 1735)"><g><g><path d="M10.9635 50.5635C10.9635 28.693 28.693 10.9635 50.5635 10.9635L862.364 10.9635C884.234 10.9635 901.964 28.693 901.964 50.5635L901.964 367.363C901.964 389.234 884.234 406.964 862.364 406.964L50.5635 406.964C28.693 406.964 10.9635 389.234 10.9635 367.363Z" stroke="#D66B00" stroke-width="10" stroke-linecap="butt" stroke-linejoin="round" stroke-miterlimit="10" stroke-opacity="1" fill="#FFF7DA" fill-rule="evenodd" fill-opacity="1"/></g></g></g></g><path d="M1172 1772.6C1172 1750.73 1189.73 1733 1211.6 1733L2023.4 1733C2045.27 1733 2063 1750.73 2063 1772.6L2063 2089.4C2063 2111.27 2045.27 2129 2023.4 2129L1211.6 2129C1189.73 2129 1172 2111.27 1172 2089.4Z" stroke="#D66B00" stroke-width="10.0833" stroke-linecap="butt" stroke-linejoin="round" stroke-miterlimit="10" stroke-opacity="1" fill="#FFF7DA" fill-rule="evenodd" fill-opacity="1"/><text fill="#D66B00" fill-opacity="1" font-family="Aptos,Aptos_MSFontService,sans-serif" font-style="normal" font-variant="normal" font-weight="400" font-stretch="normal" font-size="85" text-anchor="start" direction="ltr" writing-mode="lr-tb" unicode-bidi="normal" text-decoration="none" transform="matrix(1 0 0 1 1364.91 1907)">ordered list of </text><text fill="#D66B00" fill-opacity="1" font-family="Aptos,Aptos_MSFontService,sans-serif" font-style="normal" font-variant="normal" font-weight="400" font-stretch="normal" font-size="85" text-anchor="start" direction="ltr" writing-mode="lr-tb" unicode-bidi="normal" text-decoration="none" transform="matrix(1 0 0 1 1453 2009)">numbers</text><g clip-path="url(#clip14)"><g filter="url(#fx5)" transform="translate(2098 662)"><g><g><path d="M10.9634 50.6017C10.9634 28.7102 28.7099 10.9636 50.6014 10.9636L862.325 10.9636C884.217 10.9636 901.963 28.7102 901.963 50.6017L901.963 516.325C901.963 538.217 884.217 555.963 862.325 555.963L50.6014 555.963C28.7099 555.963 10.9634 538.217 10.9634 516.325Z" stroke="#0E7C45" stroke-width="10" stroke-linecap="butt" stroke-linejoin="round" stroke-miterlimit="10" stroke-opacity="1" fill="#ECF8F0" fill-rule="evenodd" fill-opacity="1"/></g></g></g></g><path d="M2096 699.638C2096 677.747 2113.75 660 2135.64 660L2947.36 660C2969.25 660 2987 677.747 2987 699.638L2987 1165.36C2987 1187.25 2969.25 1205 2947.36 1205L2135.64 1205C2113.75 1205 2096 1187.25 2096 1165.36Z" stroke="#0E7C45" stroke-width="10.0833" stroke-linecap="butt" stroke-linejoin="round" stroke-miterlimit="10" stroke-opacity="1" fill="#ECF8F0" fill-rule="evenodd" fill-opacity="1"/><text fill="#0E7C45" fill-opacity="1" font-family="Aptos,Aptos_MSFontService,sans-serif" font-style="normal" font-variant="normal" font-weight="700" font-stretch="normal" font-size="115" text-anchor="start" direction="ltr" writing-mode="lr-tb" unicode-bidi="normal" text-decoration="none" transform="matrix(1 0 0 1 2377.51 921)">Matrix</text><text fill="#0E7C45" fill-opacity="1" font-family="Aptos,Aptos_MSFontService,sans-serif" font-style="italic" font-variant="normal" font-weight="400" font-stretch="normal" font-size="105" text-anchor="start" direction="ltr" writing-mode="lr-tb" unicode-bidi="normal" text-decoration="none" transform="matrix(1 0 0 1 2391.63 1050)">A, B, C</text><g clip-path="url(#clip15)"><g filter="url(#fx6)" transform="translate(2098 1735)"><g><g><path d="M10.9634 50.5635C10.9634 28.693 28.6929 10.9635 50.5634 10.9635L862.363 10.9635C884.234 10.9635 901.963 28.693 901.963 50.5635L901.963 367.363C901.963 389.234 884.234 406.964 862.363 406.964L50.5634 406.964C28.6929 406.964 10.9634 389.234 10.9634 367.363Z" stroke="#0E7C45" stroke-width="10" stroke-linecap="butt" stroke-linejoin="round" stroke-miterlimit="10" stroke-opacity="1" fill="#ECF8F0" fill-rule="evenodd" fill-opacity="1"/></g></g></g></g><path d="M2096 1772.6C2096 1750.73 2113.73 1733 2135.6 1733L2947.4 1733C2969.27 1733 2987 1750.73 2987 1772.6L2987 2089.4C2987 2111.27 2969.27 2129 2947.4 2129L2135.6 2129C2113.73 2129 2096 2111.27 2096 2089.4Z" stroke="#0E7C45" stroke-width="10.0833" stroke-linecap="butt" stroke-linejoin="round" stroke-miterlimit="10" stroke-opacity="1" fill="#ECF8F0" fill-rule="evenodd" fill-opacity="1"/><text fill="#0E7C45" fill-opacity="1" font-family="Aptos,Aptos_MSFontService,sans-serif" font-style="normal" font-variant="normal" font-weight="400" font-stretch="normal" font-size="85" text-anchor="start" direction="ltr" writing-mode="lr-tb" unicode-bidi="normal" text-decoration="none" transform="matrix(1 0 0 1 2229.95 1958)">rectangular array</text><g clip-path="url(#clip16)"><g filter="url(#fx7)" transform="translate(3022 662)"><g><g><path d="M10.9634 50.6017C10.9634 28.7102 28.7099 10.9636 50.6014 10.9636L862.325 10.9636C884.217 10.9636 901.963 28.7102 901.963 50.6017L901.963 516.325C901.963 538.217 884.217 555.963 862.325 555.963L50.6014 555.963C28.7099 555.963 10.9634 538.217 10.9634 516.325Z" stroke="#7038E8" stroke-width="10" stroke-linecap="butt" stroke-linejoin="round" stroke-miterlimit="10" stroke-opacity="1" fill="#F7EAFB" fill-rule="evenodd" fill-opacity="1"/></g></g></g></g><path d="M3020 699.638C3020 677.747 3037.75 660 3059.64 660L3871.36 660C3893.25 660 3911 677.747 3911 699.638L3911 1165.36C3911 1187.25 3893.25 1205 3871.36 1205L3059.64 1205C3037.75 1205 3020 1187.25 3020 1165.36Z" stroke="#7038E8" stroke-width="10.0833" stroke-linecap="butt" stroke-linejoin="round" stroke-miterlimit="10" stroke-opacity="1" fill="#F7EAFB" fill-rule="evenodd" fill-opacity="1"/><text fill="#7038E8" fill-opacity="1" font-family="Aptos,Aptos_MSFontService,sans-serif" font-style="normal" font-variant="normal" font-weight="700" font-stretch="normal" font-size="115" text-anchor="start" direction="ltr" writing-mode="lr-tb" unicode-bidi="normal" text-decoration="none" transform="matrix(1 0 0 1 3205.43 921)">Trajectory</text><text fill="#7038E8" fill-opacity="1" font-family="Aptos,Aptos_MSFontService,sans-serif" font-style="italic" font-variant="normal" font-weight="400" font-stretch="normal" font-size="105" text-anchor="start" direction="ltr" writing-mode="lr-tb" unicode-bidi="normal" text-decoration="none" transform="matrix(1 0 0 1 3292.84 1050)">x(t), u(t)</text><g clip-path="url(#clip17)"><g filter="url(#fx8)" transform="translate(3022 1735)"><g><g><path d="M10.9634 50.5635C10.9634 28.693 28.6929 10.9635 50.5634 10.9635L862.363 10.9635C884.234 10.9635 901.963 28.693 901.963 50.5635L901.963 367.363C901.963 389.234 884.234 406.964 862.363 406.964L50.5634 406.964C28.6929 406.964 10.9634 389.234 10.9634 367.363Z" stroke="#7038E8" stroke-width="10" stroke-linecap="butt" stroke-linejoin="round" stroke-miterlimit="10" stroke-opacity="1" fill="#F7EAFB" fill-rule="evenodd" fill-opacity="1"/></g></g></g></g><path d="M3020 1772.6C3020 1750.73 3037.73 1733 3059.6 1733L3871.4 1733C3893.27 1733 3911 1750.73 3911 1772.6L3911 2089.4C3911 2111.27 3893.27 2129 3871.4 2129L3059.6 2129C3037.73 2129 3020 2111.27 3020 2089.4Z" stroke="#7038E8" stroke-width="10.0833" stroke-linecap="butt" stroke-linejoin="round" stroke-miterlimit="10" stroke-opacity="1" fill="#F7EAFB" fill-rule="evenodd" fill-opacity="1"/><text fill="#7038E8" fill-opacity="1" font-family="Aptos,Aptos_MSFontService,sans-serif" font-style="normal" font-variant="normal" font-weight="400" font-stretch="normal" font-size="85" text-anchor="start" direction="ltr" writing-mode="lr-tb" unicode-bidi="normal" text-decoration="none" transform="matrix(1 0 0 1 3052.79 1907)">quantity changing with </text><text fill="#7038E8" fill-opacity="1" font-family="Aptos,Aptos_MSFontService,sans-serif" font-style="normal" font-variant="normal" font-weight="400" font-stretch="normal" font-size="85" text-anchor="start" direction="ltr" writing-mode="lr-tb" unicode-bidi="normal" text-decoration="none" transform="matrix(1 0 0 1 3382.79 2009)">time</text></g></g></svg>