<svg width="4079" height="1614" xmlns="http://www.w3.org/2000/svg" xmlns:xlink="http://www.w3.org/1999/xlink" xml:space="preserve" overflow="hidden"><g transform="translate(-105 -311)"><g><path d="M548 356.54C548 334.703 565.703 317 587.54 317L3709.46 317C3731.3 317 3749 334.703 3749 356.54L3749 534.46C3749 556.297 3731.3 574 3709.46 574L587.54 574C565.703 574 548 556.297 548 534.46Z" stroke="#2D6A9F" stroke-width="10.1851" stroke-linecap="butt" stroke-linejoin="round" stroke-miterlimit="10" stroke-opacity="1" fill="#FFFFFF" fill-rule="evenodd" fill-opacity="1"/><text fill="#123B63" fill-opacity="1" font-family="Arial,Arial_MSFontService,sans-serif" font-style="normal" font-variant="normal" font-weight="700" font-stretch="normal" font-size="96" text-anchor="start" direction="ltr" writing-mode="lr-tb" unicode-bidi="normal" text-decoration="none" transform="matrix(1 0 0 1 617.466 478)">Mathematical and computational foundations for control co</text><text fill="#123B63" fill-opacity="1" font-family="Arial,Arial_MSFontService,sans-serif" font-style="normal" font-variant="normal" font-weight="700" font-stretch="normal" font-size="96" text-anchor="start" direction="ltr" writing-mode="lr-tb" unicode-bidi="normal" text-decoration="none" transform="matrix(1 0 0 1 3336.53 478)">-</text><text fill="#123B63" fill-opacity="1" font-family="Arial,Arial_MSFontService,sans-serif" font-style="normal" font-variant="normal" font-weight="700" font-stretch="normal" font-size="96" text-anchor="start" direction="ltr" writing-mode="lr-tb" unicode-bidi="normal" text-decoration="none" transform="matrix(1 0 0 1 3368.61 478)">design</text><path d="M478.906 1149.92 2117.52 1442.39 2115.71 1452.55 477.094 1160.08ZM2114.26 1431.34 2142 1452 2108.83 1461.79Z" fill="#5B6678" fill-rule="nonzero" fill-opacity="1"/><path d="M1314.73 1150.14 2125.44 1438.5 2121.98 1448.22 1311.27 1159.86ZM2124.04 1427.06 2148 1452 2113.67 1456.21Z" fill="#5B6678" fill-rule="nonzero" fill-opacity="1"/><path d="M5.15622-0.0173553 6.06912 271.202-4.24332 271.236-5.15622 0.0173553ZM16.3642 266.011 0.999672 297-14.5731 266.115Z" fill="#5B6678" fill-rule="nonzero" fill-opacity="1" transform="matrix(-1 0 0 1 2146 1155)"/><path d="M1.7335-4.85612 809.452 283.476 805.985 293.188-1.7335 4.85612ZM808.064 272.031 832 297 797.663 301.167Z" fill="#5B6678" fill-rule="nonzero" fill-opacity="1" transform="matrix(-1 0 0 1 2980 1155)"/><path d="M0.904944-5.07622 1641.52 287.399 1639.71 297.551-0.904944 5.07622ZM1638.26 276.342 1666 297 1632.83 306.799Z" fill="#5B6678" fill-rule="nonzero" fill-opacity="1" transform="matrix(-1 0 0 1 3811 1155)"/><path d="M116 666.6C116 644.729 133.729 627 155.6 627L802.4 627C824.27 627 842 644.729 842 666.6L842 1115.4C842 1137.27 824.27 1155 802.4 1155L155.6 1155C133.729 1155 116 1137.27 116 1115.4Z" stroke="#123B63" stroke-width="13.5804" stroke-linecap="butt" stroke-linejoin="round" stroke-miterlimit="10" stroke-opacity="1" fill="#EAF2F8" fill-rule="evenodd" fill-opacity="1"/><text fill="#123B63" fill-opacity="1" font-family="Arial,Arial_MSFontService,sans-serif" font-style="normal" font-variant="normal" font-weight="700" font-stretch="normal" font-size="87" text-anchor="start" direction="ltr" writing-mode="lr-tb" unicode-bidi="normal" text-decoration="none" transform="matrix(1 0 0 1 296.599 802)">Calculus</text><text fill="#123B63" fill-opacity="1" font-family="Arial,Arial_MSFontService,sans-serif" font-style="normal" font-variant="normal" font-weight="700" font-stretch="normal" font-size="71" text-anchor="start" direction="ltr" writing-mode="lr-tb" unicode-bidi="normal" text-decoration="none" transform="matrix(1 0 0 1 208.37 970)">(derivatives </text><text fill="#123B63" fill-opacity="1" font-family="Arial,Arial_MSFontService,sans-serif" font-style="normal" font-variant="normal" font-weight="700" font-stretch="normal" font-size="71" text-anchor="start" direction="ltr" writing-mode="lr-tb" unicode-bidi="normal" text-decoration="none" transform="matrix(1 0 0 1 622.016 970)">and</text><text fill="#123B63" fill-opacity="1" font-family="Arial,Arial_MSFontService,sans-serif" font-style="normal" font-variant="normal" font-weight="700" font-stretch="normal" font-size="71" text-anchor="start" direction="ltr" writing-mode="lr-tb" unicode-bidi="normal" text-decoration="none" transform="matrix(1 0 0 1 318.943 1055)">Integrals)</text><path d="M950 666.6C950 644.729 967.729 627 989.6 627L1636.4 627C1658.27 627 1676 644.729 1676 666.6L1676 1115.4C1676 1137.27 1658.27 1155 1636.4 1155L989.6 1155C967.729 1155 950 1137.27 950 1115.4Z" stroke="#D97706" stroke-width="13.5804" stroke-linecap="butt" stroke-linejoin="round" stroke-miterlimit="10" stroke-opacity="1" fill="#F9F4D0" fill-rule="evenodd" fill-opacity="1"/><text fill="#D97706" fill-opacity="1" font-family="Arial,Arial_MSFontService,sans-serif" font-style="normal" font-variant="normal" font-weight="700" font-stretch="normal" font-size="87" text-anchor="start" direction="ltr" writing-mode="lr-tb" unicode-bidi="normal" text-decoration="none" transform="matrix(1 0 0 1 1015.2 802)">Linear algebra</text><text fill="#D97706" fill-opacity="1" font-family="Arial,Arial_MSFontService,sans-serif" font-style="normal" font-variant="normal" font-weight="700" font-stretch="normal" font-size="71" text-anchor="start" direction="ltr" writing-mode="lr-tb" unicode-bidi="normal" text-decoration="none" transform="matrix(1 0 0 1 1098.98 970)">(vectors and</text><text fill="#D97706" fill-opacity="1" font-family="Arial,Arial_MSFontService,sans-serif" font-style="normal" font-variant="normal" font-weight="700" font-stretch="normal" font-size="71" text-anchor="start" direction="ltr" writing-mode="lr-tb" unicode-bidi="normal" text-decoration="none" transform="matrix(1 0 0 1 1154.55 1055)">Matrices)</text><path d="M1782 666.6C1782 644.729 1799.73 627 1821.6 627L2468.4 627C2490.27 627 2508 644.729 2508 666.6L2508 1115.4C2508 1137.27 2490.27 1155 2468.4 1155L1821.6 1155C1799.73 1155 1782 1137.27 1782 1115.4Z" stroke="#2F855A" stroke-width="13.5804" stroke-linecap="butt" stroke-linejoin="round" stroke-miterlimit="10" stroke-opacity="1" fill="#EDF7F0" fill-rule="evenodd" fill-opacity="1"/><text fill="#2F855A" fill-opacity="1" font-family="Arial,Arial_MSFontService,sans-serif" font-style="normal" font-variant="normal" font-weight="700" font-stretch="normal" font-size="87" text-anchor="start" direction="ltr" writing-mode="lr-tb" unicode-bidi="normal" text-decoration="none" transform="matrix(1 0 0 1 1916.98 765)">Differential</text><text fill="#2F855A" fill-opacity="1" font-family="Arial,Arial_MSFontService,sans-serif" font-style="normal" font-variant="normal" font-weight="700" font-stretch="normal" font-size="87" text-anchor="start" direction="ltr" writing-mode="lr-tb" unicode-bidi="normal" text-decoration="none" transform="matrix(1 0 0 1 1938.75 859)">equations</text><text fill="#2F855A" fill-opacity="1" font-family="Arial,Arial_MSFontService,sans-serif" font-style="normal" font-variant="normal" font-weight="700" font-stretch="normal" font-size="64" text-anchor="start" direction="ltr" writing-mode="lr-tb" unicode-bidi="normal" text-decoration="none" transform="matrix(1 0 0 1 1873.15 972)">(dynamic models)</text><path d="M2617 666.6C2617 644.729 2634.73 627 2656.6 627L3303.4 627C3325.27 627 3343 644.729 3343 666.6L3343 1115.4C3343 1137.27 3325.27 1155 3303.4 1155L2656.6 1155C2634.73 1155 2617 1137.27 2617 1115.4Z" stroke="#7C3AED" stroke-width="13.5804" stroke-linecap="butt" stroke-linejoin="round" stroke-miterlimit="10" stroke-opacity="1" fill="#FCE7F3" fill-rule="evenodd" fill-opacity="1"/><text fill="#7C3AED" fill-opacity="1" font-family="Arial,Arial_MSFontService,sans-serif" font-style="normal" font-variant="normal" font-weight="700" font-stretch="normal" font-size="87" text-anchor="start" direction="ltr" writing-mode="lr-tb" unicode-bidi="normal" text-decoration="none" transform="matrix(1 0 0 1 2716.07 851)">Optimization</text><text fill="#7C3AED" fill-opacity="1" font-family="Arial,Arial_MSFontService,sans-serif" font-style="normal" font-variant="normal" font-weight="700" font-stretch="normal" font-size="71" text-anchor="start" direction="ltr" writing-mode="lr-tb" unicode-bidi="normal" text-decoration="none" transform="matrix(1 0 0 1 2816.33 977)">(notation)</text><path d="M3449 666.6C3449 644.729 3466.73 627 3488.6 627L4135.4 627C4157.27 627 4175 644.729 4175 666.6L4175 1115.4C4175 1137.27 4157.27 1155 4135.4 1155L3488.6 1155C3466.73 1155 3449 1137.27 3449 1115.4Z" stroke="#2D6A9F" stroke-width="13.5804" stroke-linecap="butt" stroke-linejoin="round" stroke-miterlimit="10" stroke-opacity="1" fill="#E0F2FE" fill-rule="evenodd" fill-opacity="1"/><text fill="#2D6A9F" fill-opacity="1" font-family="Arial,Arial_MSFontService,sans-serif" font-style="normal" font-variant="normal" font-weight="700" font-stretch="normal" font-size="87" text-anchor="start" direction="ltr" writing-mode="lr-tb" unicode-bidi="normal" text-decoration="none" transform="matrix(1 0 0 1 3528.48 840)">Programming</text><path d="M888 1504.6C888 1482.73 905.73 1465 927.6 1465L3356.4 1465C3378.27 1465 3396 1482.73 3396 1504.6L3396 1854.4C3396 1876.27 3378.27 1894 3356.4 1894L927.6 1894C905.73 1894 888 1876.27 888 1854.4Z" stroke="#B23A48" stroke-width="13.5804" stroke-linecap="butt" stroke-linejoin="round" stroke-miterlimit="10" stroke-opacity="1" fill="#FFFFFF" fill-rule="evenodd" fill-opacity="1"/><text fill="#B23A48" fill-opacity="1" font-family="Arial,Arial_MSFontService,sans-serif" font-style="normal" font-variant="normal" font-weight="700" font-stretch="normal" font-size="92" text-anchor="start" direction="ltr" writing-mode="lr-tb" unicode-bidi="normal" text-decoration="none" transform="matrix(1 0 0 1 1675.34 1648)">CCD course chapters</text><text fill="#B23A48" fill-opacity="1" font-family="Arial,Arial_MSFontService,sans-serif" font-style="normal" font-variant="normal" font-weight="700" font-stretch="normal" font-size="73" text-anchor="start" direction="ltr" writing-mode="lr-tb" unicode-bidi="normal" text-decoration="none" transform="matrix(1 0 0 1 1111.31 1775)">(modeling</text><text fill="#B23A48" fill-opacity="1" font-family="Arial,Arial_MSFontService,sans-serif" font-style="normal" font-variant="normal" font-weight="700" font-stretch="normal" font-size="73" text-anchor="start" direction="ltr" writing-mode="lr-tb" unicode-bidi="normal" text-decoration="none" transform="matrix(1 0 0 1 1461.93 1775)">, optimization, architectures, numerical methods,</text><text fill="#B23A48" fill-opacity="1" font-family="Arial,Arial_MSFontService,sans-serif" font-style="normal" font-variant="normal" font-weight="700" font-stretch="normal" font-size="73" text-anchor="start" direction="ltr" writing-mode="lr-tb" unicode-bidi="normal" text-decoration="none" transform="matrix(1 0 0 1 1840.06 1863)">and </text><text fill="#B23A48" fill-opacity="1" font-family="Arial,Arial_MSFontService,sans-serif" font-style="normal" font-variant="normal" font-weight="700" font-stretch="normal" font-size="73" text-anchor="start" direction="ltr" writing-mode="lr-tb" unicode-bidi="normal" text-decoration="none" transform="matrix(1 0 0 1 1990.73 1863)">applications)</text><text fill="#2D6A9F" fill-opacity="1" font-family="Arial,Arial_MSFontService,sans-serif" font-style="normal" font-variant="normal" font-weight="700" font-stretch="normal" font-size="71" text-anchor="start" direction="ltr" writing-mode="lr-tb" unicode-bidi="normal" text-decoration="none" transform="matrix(1 0 0 1 3671.42 977)">(coding)</text></g></g></svg>