<svg width="4065" height="1310" xmlns="http://www.w3.org/2000/svg" xmlns:xlink="http://www.w3.org/1999/xlink" xml:space="preserve" overflow="hidden"><g transform="translate(-192 -527)"><g><path d="M1040 575.667C1040 553.76 1057.76 536 1079.67 536L3326.33 536C3348.24 536 3366 553.76 3366 575.667L3366 734.333C3366 756.24 3348.24 774 3326.33 774L1079.67 774C1057.76 774 1040 756.24 1040 734.333Z" stroke="#0D3B66" stroke-width="9.625" stroke-linecap="butt" stroke-linejoin="round" stroke-miterlimit="10" stroke-opacity="1" fill="#FFFFFF" fill-rule="evenodd" fill-opacity="1"/><text fill="#0D3B66" fill-opacity="1" font-family="Aptos Display,Aptos Display_MSFontService,sans-serif" font-style="normal" font-variant="normal" font-weight="700" font-stretch="normal" font-size="115" text-anchor="start" direction="ltr" writing-mode="lr-tb" unicode-bidi="normal" text-decoration="none" transform="matrix(1 0 0 1 1462.11 692)">Basic computational workflow</text><path d="M1003.5 1107 1055 1107 1055 1118 1003.5 1118ZM1049.5 1096 1082.5 1112.5 1049.5 1129Z" fill="#5B6675" fill-rule="nonzero" fill-opacity="1"/><path d="M1841.5 1107 1913 1107 1913 1118 1841.5 1118ZM1907.5 1096 1940.5 1112.5 1907.5 1129Z" fill="#5B6675" fill-rule="nonzero" fill-opacity="1"/><path d="M2756.5 1107 2828 1107 2828 1118 2756.5 1118ZM2822.5 1096 2855.5 1112.5 2822.5 1129Z" fill="#5B6675" fill-rule="nonzero" fill-opacity="1"/><path d="M3663.5 1107 3728 1107 3728 1118 3663.5 1118ZM3722.5 1096 3755.5 1112.5 3722.5 1129Z" fill="#5B6675" fill-rule="nonzero" fill-opacity="1"/><path d="M211 917.551C211 895.708 228.708 878 250.551 878L947.449 878C969.292 878 987 895.708 987 917.551L987 1306.45C987 1328.29 969.292 1346 947.449 1346L250.551 1346C228.708 1346 211 1328.29 211 1306.45Z" stroke="#0D3B66" stroke-width="9.625" stroke-linecap="butt" stroke-linejoin="round" stroke-miterlimit="10" stroke-opacity="1" fill="#EAF4FF" fill-rule="evenodd" fill-opacity="1"/><text fill="#0D3B66" fill-opacity="1" font-family="Aptos Display,Aptos Display_MSFontService,sans-serif" font-style="normal" font-variant="normal" font-weight="700" font-stretch="normal" font-size="87" text-anchor="start" direction="ltr" writing-mode="lr-tb" unicode-bidi="normal" text-decoration="none" transform="matrix(1 0 0 1 433.938 1040)">Define</text><text fill="#0D3B66" fill-opacity="1" font-family="Aptos Display,Aptos Display_MSFontService,sans-serif" font-style="normal" font-variant="normal" font-weight="700" font-stretch="normal" font-size="87" text-anchor="start" direction="ltr" writing-mode="lr-tb" unicode-bidi="normal" text-decoration="none" transform="matrix(1 0 0 1 265.661 1145)">parameters and</text><text fill="#0D3B66" fill-opacity="1" font-family="Aptos Display,Aptos Display_MSFontService,sans-serif" font-style="normal" font-variant="normal" font-weight="700" font-stretch="normal" font-size="87" text-anchor="start" direction="ltr" writing-mode="lr-tb" unicode-bidi="normal" text-decoration="none" transform="matrix(1 0 0 1 248.313 1249)">initial conditions</text><path d="M1115 917.551C1115 895.707 1132.71 878 1154.55 878L1785.45 878C1807.29 878 1825 895.707 1825 917.551L1825 1306.45C1825 1328.29 1807.29 1346 1785.45 1346L1154.55 1346C1132.71 1346 1115 1328.29 1115 1306.45Z" stroke="#D86F00" stroke-width="9.625" stroke-linecap="butt" stroke-linejoin="round" stroke-miterlimit="10" stroke-opacity="1" fill="#FFF4CC" fill-rule="evenodd" fill-opacity="1"/><text fill="#D86F00" fill-opacity="1" font-family="Aptos Display,Aptos Display_MSFontService,sans-serif" font-style="normal" font-variant="normal" font-weight="700" font-stretch="normal" font-size="92" text-anchor="start" direction="ltr" writing-mode="lr-tb" unicode-bidi="normal" text-decoration="none" transform="matrix(1 0 0 1 1363.34 1032)">Write</text><text fill="#D86F00" fill-opacity="1" font-family="Aptos Display,Aptos Display_MSFontService,sans-serif" font-style="normal" font-variant="normal" font-weight="700" font-stretch="normal" font-size="92" text-anchor="start" direction="ltr" writing-mode="lr-tb" unicode-bidi="normal" text-decoration="none" transform="matrix(1 0 0 1 1346.12 1142)">model </text><text fill="#D86F00" fill-opacity="1" font-family="Aptos Display,Aptos Display_MSFontService,sans-serif" font-style="normal" font-variant="normal" font-weight="700" font-stretch="normal" font-size="92" text-anchor="start" direction="ltr" writing-mode="lr-tb" unicode-bidi="normal" text-decoration="none" transform="matrix(1 0 0 1 1277.65 1252)">equations</text><path d="M1973 917.551C1973 895.707 1990.71 878 2012.55 878L2699.45 878C2721.29 878 2739 895.707 2739 917.551L2739 1306.45C2739 1328.29 2721.29 1346 2699.45 1346L2012.55 1346C1990.71 1346 1973 1328.29 1973 1306.45Z" stroke="#1E7F4E" stroke-width="9.625" stroke-linecap="butt" stroke-linejoin="round" stroke-miterlimit="10" stroke-opacity="1" fill="#EAF7EF" fill-rule="evenodd" fill-opacity="1"/><text fill="#1E7F4E" fill-opacity="1" font-family="Aptos Display,Aptos Display_MSFontService,sans-serif" font-style="normal" font-variant="normal" font-weight="700" font-stretch="normal" font-size="92" text-anchor="start" direction="ltr" writing-mode="lr-tb" unicode-bidi="normal" text-decoration="none" transform="matrix(1 0 0 1 2100.62 1087)">Simulate and</text><text fill="#1E7F4E" fill-opacity="1" font-family="Aptos Display,Aptos Display_MSFontService,sans-serif" font-style="normal" font-variant="normal" font-weight="700" font-stretch="normal" font-size="92" text-anchor="start" direction="ltr" writing-mode="lr-tb" unicode-bidi="normal" text-decoration="none" transform="matrix(1 0 0 1 2134.61 1197)">plot results</text><path d="M2888 917.55C2888 895.707 2905.71 878 2927.55 878L3607.45 878C3629.29 878 3647 895.707 3647 917.55L3647 1306.45C3647 1328.29 3629.29 1346 3607.45 1346L2927.55 1346C2905.71 1346 2888 1328.29 2888 1306.45Z" stroke="#7A35E8" stroke-width="9.625" stroke-linecap="butt" stroke-linejoin="round" stroke-miterlimit="10" stroke-opacity="1" fill="#F7EAF8" fill-rule="evenodd" fill-opacity="1"/><text fill="#7A35E8" fill-opacity="1" font-family="Aptos Display,Aptos Display_MSFontService,sans-serif" font-style="normal" font-variant="normal" font-weight="700" font-stretch="normal" font-size="92" text-anchor="start" direction="ltr" writing-mode="lr-tb" unicode-bidi="normal" text-decoration="none" transform="matrix(1 0 0 1 3098.39 1087)">Evaluate</text><text fill="#7A35E8" fill-opacity="1" font-family="Aptos Display,Aptos Display_MSFontService,sans-serif" font-style="normal" font-variant="normal" font-weight="700" font-stretch="normal" font-size="92" text-anchor="start" direction="ltr" writing-mode="lr-tb" unicode-bidi="normal" text-decoration="none" transform="matrix(1 0 0 1 3015.68 1197)">performance</text><path d="M3788 917.598C3788 895.728 3805.73 878 3827.6 878L4210.4 878C4232.27 878 4250 895.728 4250 917.598L4250 1306.4C4250 1328.27 4232.27 1346 4210.4 1346L3827.6 1346C3805.73 1346 3788 1328.27 3788 1306.4Z" stroke="#B4374B" stroke-width="9.625" stroke-linecap="butt" stroke-linejoin="round" stroke-miterlimit="10" stroke-opacity="1" fill="#FFFFFF" fill-rule="evenodd" fill-opacity="1"/><text fill="#B4374B" fill-opacity="1" font-family="Aptos Display,Aptos Display_MSFontService,sans-serif" font-style="normal" font-variant="normal" font-weight="700" font-stretch="normal" font-size="92" text-anchor="start" direction="ltr" writing-mode="lr-tb" unicode-bidi="normal" text-decoration="none" transform="matrix(1 0 0 1 3894.5 1142)">Refine</text><path d="M644 1580.68C644 1558.77 661.766 1541 683.681 1541L3902.32 1541C3924.23 1541 3942 1558.77 3942 1580.68L3942 1792.32C3942 1814.23 3924.23 1832 3902.32 1832L683.681 1832C661.766 1832 644 1814.23 644 1792.32Z" stroke="#0D3B66" stroke-width="9.625" stroke-linecap="butt" stroke-linejoin="round" stroke-miterlimit="10" stroke-opacity="1" fill="#F7FBFF" fill-rule="evenodd" fill-opacity="1"/><text fill="#0D3B66" fill-opacity="1" font-family="Aptos Display,Aptos Display_MSFontService,sans-serif" font-style="normal" font-variant="normal" font-weight="400" font-stretch="normal" font-size="78" text-anchor="start" direction="ltr" writing-mode="lr-tb" unicode-bidi="normal" text-decoration="none" transform="matrix(1 0 0 1 849.979 1665)">These steps later expand into numerical CCD workflows: optimization solvers, gradient </text><text fill="#0D3B66" fill-opacity="1" font-family="Aptos Display,Aptos Display_MSFontService,sans-serif" font-style="normal" font-variant="normal" font-weight="400" font-stretch="normal" font-size="78" text-anchor="start" direction="ltr" writing-mode="lr-tb" unicode-bidi="normal" text-decoration="none" transform="matrix(1 0 0 1 1755.99 1758)">computation, and validation.</text><text fill="#7A8695" fill-opacity="1" font-family="Aptos,Aptos_MSFontService,sans-serif" font-style="normal" font-variant="normal" font-weight="400" font-stretch="normal" font-size="55" text-anchor="start" direction="ltr" writing-mode="lr-tb" unicode-bidi="normal" text-decoration="none" transform="matrix(1 0 0 1 524.322 1439)">Step 1</text><text fill="#7A8695" fill-opacity="1" font-family="Aptos,Aptos_MSFontService,sans-serif" font-style="normal" font-variant="normal" font-weight="400" font-stretch="normal" font-size="55" text-anchor="start" direction="ltr" writing-mode="lr-tb" unicode-bidi="normal" text-decoration="none" transform="matrix(1 0 0 1 1395.52 1439)">Step 2</text><text fill="#7A8695" fill-opacity="1" font-family="Aptos,Aptos_MSFontService,sans-serif" font-style="normal" font-variant="normal" font-weight="400" font-stretch="normal" font-size="55" text-anchor="start" direction="ltr" writing-mode="lr-tb" unicode-bidi="normal" text-decoration="none" transform="matrix(1 0 0 1 2281.57 1439)">Step 3</text><text fill="#7A8695" fill-opacity="1" font-family="Aptos,Aptos_MSFontService,sans-serif" font-style="normal" font-variant="normal" font-weight="400" font-stretch="normal" font-size="55" text-anchor="start" direction="ltr" writing-mode="lr-tb" unicode-bidi="normal" text-decoration="none" transform="matrix(1 0 0 1 3192.37 1439)">Step 4</text><text fill="#7A8695" fill-opacity="1" font-family="Aptos,Aptos_MSFontService,sans-serif" font-style="normal" font-variant="normal" font-weight="400" font-stretch="normal" font-size="55" text-anchor="start" direction="ltr" writing-mode="lr-tb" unicode-bidi="normal" text-decoration="none" transform="matrix(1 0 0 1 3944.77 1439)">Step 5</text></g></g></svg>