<svg width="4129" height="2393" xmlns="http://www.w3.org/2000/svg" xmlns:xlink="http://www.w3.org/1999/xlink" xml:space="preserve" overflow="hidden"><g transform="translate(-128 -36)"><g><text fill="#1F2A37" fill-opacity="1" font-family="Aptos,Aptos_MSFontService,sans-serif" font-style="normal" font-variant="normal" font-weight="700" font-stretch="normal" font-size="105" text-anchor="start" direction="ltr" writing-mode="lr-tb" unicode-bidi="normal" text-decoration="none" transform="matrix(1 0 0 1 1087.57 167)">Mesh refinement and convergence verification</text><path d="M182 257 4208 257" stroke="#E5E7EB" stroke-width="3.66667" stroke-linecap="butt" stroke-linejoin="round" stroke-miterlimit="10" stroke-opacity="1" fill="#FFFFFF" fill-rule="evenodd" fill-opacity="0"/><text fill="#0B3A67" fill-opacity="1" font-family="Aptos,Aptos_MSFontService,sans-serif" font-style="normal" font-variant="normal" font-weight="700" font-stretch="normal" font-size="83" text-anchor="start" direction="ltr" writing-mode="lr-tb" unicode-bidi="normal" text-decoration="none" transform="matrix(1 0 0 1 446.279 493)">Error should decrease at the expected rate</text><path d="M419.5 591.5 2115.5 591.5" stroke="#222222" stroke-width="4.58333" stroke-linecap="butt" stroke-linejoin="round" stroke-miterlimit="10" stroke-opacity="1" fill="#FFFFFF" fill-rule="evenodd" fill-opacity="0"/><path d="M419.5 2016.5 2115.5 2016.5" stroke="#222222" stroke-width="4.58333" stroke-linecap="butt" stroke-linejoin="round" stroke-miterlimit="10" stroke-opacity="1" fill="#FFFFFF" fill-rule="evenodd" fill-opacity="0"/><path d="M419.5 591.5 419.5 2016.5" stroke="#222222" stroke-width="4.58333" stroke-linecap="butt" stroke-linejoin="round" stroke-miterlimit="10" stroke-opacity="1" fill="#FFFFFF" fill-rule="evenodd" fill-opacity="0"/><path d="M2115.5 591.5 2115.5 2016.5" stroke="#222222" stroke-width="4.58333" stroke-linecap="butt" stroke-linejoin="round" stroke-miterlimit="10" stroke-opacity="1" fill="#FFFFFF" fill-rule="evenodd" fill-opacity="0"/><path d="M816 591 816 2016" stroke="#D9DEE5" stroke-width="2.29167" stroke-linecap="butt" stroke-linejoin="round" stroke-miterlimit="10" stroke-opacity="0.501961" fill="#FFFFFF" fill-rule="evenodd" fill-opacity="0"/><path d="M992 591 992 2016" stroke="#D9DEE5" stroke-width="2.29167" stroke-linecap="butt" stroke-linejoin="round" stroke-miterlimit="10" stroke-opacity="0.501961" fill="#FFFFFF" fill-rule="evenodd" fill-opacity="0"/><path d="M1117 591 1117 2016" stroke="#D9DEE5" stroke-width="2.29167" stroke-linecap="butt" stroke-linejoin="round" stroke-miterlimit="10" stroke-opacity="0.501961" fill="#FFFFFF" fill-rule="evenodd" fill-opacity="0"/><path d="M1214 591 1214 2016" stroke="#D9DEE5" stroke-width="2.29167" stroke-linecap="butt" stroke-linejoin="round" stroke-miterlimit="10" stroke-opacity="0.501961" fill="#FFFFFF" fill-rule="evenodd" fill-opacity="0"/><path d="M1293 591 1293 2016" stroke="#D9DEE5" stroke-width="2.29167" stroke-linecap="butt" stroke-linejoin="round" stroke-miterlimit="10" stroke-opacity="0.501961" fill="#FFFFFF" fill-rule="evenodd" fill-opacity="0"/><path d="M1360 591 1360 2016" stroke="#D9DEE5" stroke-width="2.29167" stroke-linecap="butt" stroke-linejoin="round" stroke-miterlimit="10" stroke-opacity="0.501961" fill="#FFFFFF" fill-rule="evenodd" fill-opacity="0"/><path d="M1417 591 1417 2016" stroke="#D9DEE5" stroke-width="2.29167" stroke-linecap="butt" stroke-linejoin="round" stroke-miterlimit="10" stroke-opacity="0.501961" fill="#FFFFFF" fill-rule="evenodd" fill-opacity="0"/><path d="M1469 591 1469 2016" stroke="#D9DEE5" stroke-width="2.29167" stroke-linecap="butt" stroke-linejoin="round" stroke-miterlimit="10" stroke-opacity="0.501961" fill="#FFFFFF" fill-rule="evenodd" fill-opacity="0"/><path d="M1815 591 1815 2016" stroke="#D9DEE5" stroke-width="2.29167" stroke-linecap="butt" stroke-linejoin="round" stroke-miterlimit="10" stroke-opacity="0.501961" fill="#FFFFFF" fill-rule="evenodd" fill-opacity="0"/><path d="M1991 591 1991 2016" stroke="#D9DEE5" stroke-width="2.29167" stroke-linecap="butt" stroke-linejoin="round" stroke-miterlimit="10" stroke-opacity="0.501961" fill="#FFFFFF" fill-rule="evenodd" fill-opacity="0"/><path d="M516 591 516 2016" stroke="#D9DEE5" stroke-width="3.66667" stroke-linecap="butt" stroke-linejoin="round" stroke-miterlimit="10" stroke-opacity="0.8" fill="#FFFFFF" fill-rule="evenodd" fill-opacity="0"/><path d="M516 2016 516 2039" stroke="#111111" stroke-width="3.66667" stroke-linecap="butt" stroke-linejoin="round" stroke-miterlimit="10" stroke-opacity="1" fill="#FFFFFF" fill-rule="evenodd" fill-opacity="0"/><text fill="#111111" fill-opacity="1" font-family="Aptos,Aptos_MSFontService,sans-serif" font-style="normal" font-variant="normal" font-weight="400" font-stretch="normal" font-size="60" text-anchor="start" direction="ltr" writing-mode="lr-tb" unicode-bidi="normal" text-decoration="none" transform="matrix(1 0 0 1 473.743 2105)">10¹</text><path d="M1514 591 1514 2016" stroke="#D9DEE5" stroke-width="3.66667" stroke-linecap="butt" stroke-linejoin="round" stroke-miterlimit="10" stroke-opacity="0.8" fill="#FFFFFF" fill-rule="evenodd" fill-opacity="0"/><path d="M1514 2016 1514 2039" stroke="#111111" stroke-width="3.66667" stroke-linecap="butt" stroke-linejoin="round" stroke-miterlimit="10" stroke-opacity="1" fill="#FFFFFF" fill-rule="evenodd" fill-opacity="0"/><text fill="#111111" fill-opacity="1" font-family="Aptos,Aptos_MSFontService,sans-serif" font-style="normal" font-variant="normal" font-weight="400" font-stretch="normal" font-size="60" text-anchor="start" direction="ltr" writing-mode="lr-tb" unicode-bidi="normal" text-decoration="none" transform="matrix(1 0 0 1 1472.11 2105)">10²</text><path d="M419 1858 2115 1858" stroke="#D9DEE5" stroke-width="1.83333" stroke-linecap="butt" stroke-linejoin="round" stroke-miterlimit="10" stroke-opacity="0.4" fill="#FFFFFF" fill-rule="evenodd" fill-opacity="0"/><path d="M419 1802 2115 1802" stroke="#D9DEE5" stroke-width="1.83333" stroke-linecap="butt" stroke-linejoin="round" stroke-miterlimit="10" stroke-opacity="0.4" fill="#FFFFFF" fill-rule="evenodd" fill-opacity="0"/><path d="M419 1762 2115 1762" stroke="#D9DEE5" stroke-width="1.83333" stroke-linecap="butt" stroke-linejoin="round" stroke-miterlimit="10" stroke-opacity="0.4" fill="#FFFFFF" fill-rule="evenodd" fill-opacity="0"/><path d="M419 1732 2115 1732" stroke="#D9DEE5" stroke-width="1.83333" stroke-linecap="butt" stroke-linejoin="round" stroke-miterlimit="10" stroke-opacity="0.4" fill="#FFFFFF" fill-rule="evenodd" fill-opacity="0"/><path d="M419 1706 2115 1706" stroke="#D9DEE5" stroke-width="1.83333" stroke-linecap="butt" stroke-linejoin="round" stroke-miterlimit="10" stroke-opacity="0.4" fill="#FFFFFF" fill-rule="evenodd" fill-opacity="0"/><path d="M419 1685 2115 1685" stroke="#D9DEE5" stroke-width="1.83333" stroke-linecap="butt" stroke-linejoin="round" stroke-miterlimit="10" stroke-opacity="0.4" fill="#FFFFFF" fill-rule="evenodd" fill-opacity="0"/><path d="M419 1667 2115 1667" stroke="#D9DEE5" stroke-width="1.83333" stroke-linecap="butt" stroke-linejoin="round" stroke-miterlimit="10" stroke-opacity="0.4" fill="#FFFFFF" fill-rule="evenodd" fill-opacity="0"/><path d="M419 1651 2115 1651" stroke="#D9DEE5" stroke-width="1.83333" stroke-linecap="butt" stroke-linejoin="round" stroke-miterlimit="10" stroke-opacity="0.4" fill="#FFFFFF" fill-rule="evenodd" fill-opacity="0"/><path d="M419 1541 2115 1541" stroke="#D9DEE5" stroke-width="1.83333" stroke-linecap="butt" stroke-linejoin="round" stroke-miterlimit="10" stroke-opacity="0.4" fill="#FFFFFF" fill-rule="evenodd" fill-opacity="0"/><path d="M419 1485 2115 1485" stroke="#D9DEE5" stroke-width="1.83333" stroke-linecap="butt" stroke-linejoin="round" stroke-miterlimit="10" stroke-opacity="0.4" fill="#FFFFFF" fill-rule="evenodd" fill-opacity="0"/><path d="M419 1445 2115 1445" stroke="#D9DEE5" stroke-width="1.83333" stroke-linecap="butt" stroke-linejoin="round" stroke-miterlimit="10" stroke-opacity="0.4" fill="#FFFFFF" fill-rule="evenodd" fill-opacity="0"/><path d="M419 1415 2115 1415" stroke="#D9DEE5" stroke-width="1.83333" stroke-linecap="butt" stroke-linejoin="round" stroke-miterlimit="10" stroke-opacity="0.4" fill="#FFFFFF" fill-rule="evenodd" fill-opacity="0"/><path d="M419 1390 2115 1390" stroke="#D9DEE5" stroke-width="1.83333" stroke-linecap="butt" stroke-linejoin="round" stroke-miterlimit="10" stroke-opacity="0.4" fill="#FFFFFF" fill-rule="evenodd" fill-opacity="0"/><path d="M419 1368 2115 1368" stroke="#D9DEE5" stroke-width="1.83333" stroke-linecap="butt" stroke-linejoin="round" stroke-miterlimit="10" stroke-opacity="0.4" fill="#FFFFFF" fill-rule="evenodd" fill-opacity="0"/><path d="M419 1350 2115 1350" stroke="#D9DEE5" stroke-width="1.83333" stroke-linecap="butt" stroke-linejoin="round" stroke-miterlimit="10" stroke-opacity="0.4" fill="#FFFFFF" fill-rule="evenodd" fill-opacity="0"/><path d="M419 1334 2115 1334" stroke="#D9DEE5" stroke-width="1.83333" stroke-linecap="butt" stroke-linejoin="round" stroke-miterlimit="10" stroke-opacity="0.4" fill="#FFFFFF" fill-rule="evenodd" fill-opacity="0"/><path d="M419 1224 2115 1224" stroke="#D9DEE5" stroke-width="1.83333" stroke-linecap="butt" stroke-linejoin="round" stroke-miterlimit="10" stroke-opacity="0.4" fill="#FFFFFF" fill-rule="evenodd" fill-opacity="0"/><path d="M419 1168 2115 1168" stroke="#D9DEE5" stroke-width="1.83333" stroke-linecap="butt" stroke-linejoin="round" stroke-miterlimit="10" stroke-opacity="0.4" fill="#FFFFFF" fill-rule="evenodd" fill-opacity="0"/><path d="M419 1129 2115 1129" stroke="#D9DEE5" stroke-width="1.83333" stroke-linecap="butt" stroke-linejoin="round" stroke-miterlimit="10" stroke-opacity="0.4" fill="#FFFFFF" fill-rule="evenodd" fill-opacity="0"/><path d="M419 1098 2115 1098" stroke="#D9DEE5" stroke-width="1.83333" stroke-linecap="butt" stroke-linejoin="round" stroke-miterlimit="10" stroke-opacity="0.4" fill="#FFFFFF" fill-rule="evenodd" fill-opacity="0"/><path d="M419 1073 2115 1073" stroke="#D9DEE5" stroke-width="1.83333" stroke-linecap="butt" stroke-linejoin="round" stroke-miterlimit="10" stroke-opacity="0.4" fill="#FFFFFF" fill-rule="evenodd" fill-opacity="0"/><path d="M419 1052 2115 1052" stroke="#D9DEE5" stroke-width="1.83333" stroke-linecap="butt" stroke-linejoin="round" stroke-miterlimit="10" stroke-opacity="0.4" fill="#FFFFFF" fill-rule="evenodd" fill-opacity="0"/><path d="M419 1033 2115 1033" stroke="#D9DEE5" stroke-width="1.83333" stroke-linecap="butt" stroke-linejoin="round" stroke-miterlimit="10" stroke-opacity="0.4" fill="#FFFFFF" fill-rule="evenodd" fill-opacity="0"/><path d="M419 1017 2115 1017" stroke="#D9DEE5" stroke-width="1.83333" stroke-linecap="butt" stroke-linejoin="round" stroke-miterlimit="10" stroke-opacity="0.4" fill="#FFFFFF" fill-rule="evenodd" fill-opacity="0"/><path d="M419 907 2115 907.001" stroke="#D9DEE5" stroke-width="1.83333" stroke-linecap="butt" stroke-linejoin="round" stroke-miterlimit="10" stroke-opacity="0.4" fill="#FFFFFF" fill-rule="evenodd" fill-opacity="0"/><path d="M419 851 2115 851" stroke="#D9DEE5" stroke-width="1.83333" stroke-linecap="butt" stroke-linejoin="round" stroke-miterlimit="10" stroke-opacity="0.4" fill="#FFFFFF" fill-rule="evenodd" fill-opacity="0"/><path d="M419 812 2115 812" stroke="#D9DEE5" stroke-width="1.83333" stroke-linecap="butt" stroke-linejoin="round" stroke-miterlimit="10" stroke-opacity="0.4" fill="#FFFFFF" fill-rule="evenodd" fill-opacity="0"/><path d="M419 781 2115 781" stroke="#D9DEE5" stroke-width="1.83333" stroke-linecap="butt" stroke-linejoin="round" stroke-miterlimit="10" stroke-opacity="0.4" fill="#FFFFFF" fill-rule="evenodd" fill-opacity="0"/><path d="M419 756 2115 756" stroke="#D9DEE5" stroke-width="1.83333" stroke-linecap="butt" stroke-linejoin="round" stroke-miterlimit="10" stroke-opacity="0.4" fill="#FFFFFF" fill-rule="evenodd" fill-opacity="0"/><path d="M419 735 2115 735" stroke="#D9DEE5" stroke-width="1.83333" stroke-linecap="butt" stroke-linejoin="round" stroke-miterlimit="10" stroke-opacity="0.4" fill="#FFFFFF" fill-rule="evenodd" fill-opacity="0"/><path d="M419 716 2115 716" stroke="#D9DEE5" stroke-width="1.83333" stroke-linecap="butt" stroke-linejoin="round" stroke-miterlimit="10" stroke-opacity="0.4" fill="#FFFFFF" fill-rule="evenodd" fill-opacity="0"/><path d="M419 700 2115 700" stroke="#D9DEE5" stroke-width="1.83333" stroke-linecap="butt" stroke-linejoin="round" stroke-miterlimit="10" stroke-opacity="0.4" fill="#FFFFFF" fill-rule="evenodd" fill-opacity="0"/><path d="M419 686 2115 686" stroke="#D9DEE5" stroke-width="3.66667" stroke-linecap="butt" stroke-linejoin="round" stroke-miterlimit="10" stroke-opacity="0.701961" fill="#FFFFFF" fill-rule="evenodd" fill-opacity="0"/><path d="M396 686 419 686" stroke="#111111" stroke-width="3.66667" stroke-linecap="butt" stroke-linejoin="round" stroke-miterlimit="10" stroke-opacity="1" fill="#FFFFFF" fill-rule="evenodd" fill-opacity="0"/><text fill="#111111" fill-opacity="1" font-family="Aptos,Aptos_MSFontService,sans-serif" font-style="normal" font-variant="normal" font-weight="400" font-stretch="normal" font-size="60" text-anchor="start" direction="ltr" writing-mode="lr-tb" unicode-bidi="normal" text-decoration="none" transform="matrix(1 0 0 1 260.585 705)">10</text><text fill="#111111" fill-opacity="1" font-family="Cambria Math,Cambria Math_MSFontService,sans-serif" font-style="normal" font-variant="normal" font-weight="400" font-stretch="normal" font-size="60" text-anchor="start" direction="ltr" writing-mode="lr-tb" unicode-bidi="normal" text-decoration="none" transform="matrix(1 0 0 1 324.752 705)">⁻</text><text fill="#111111" fill-opacity="1" font-family="Aptos,Aptos_MSFontService,sans-serif" font-style="normal" font-variant="normal" font-weight="400" font-stretch="normal" font-size="60" text-anchor="start" direction="ltr" writing-mode="lr-tb" unicode-bidi="normal" text-decoration="none" transform="matrix(1 0 0 1 348.815 705)">²</text><path d="M419 1003 2115 1003" stroke="#D9DEE5" stroke-width="3.66667" stroke-linecap="butt" stroke-linejoin="round" stroke-miterlimit="10" stroke-opacity="0.701961" fill="#FFFFFF" fill-rule="evenodd" fill-opacity="0"/><path d="M396 1003 419 1003" stroke="#111111" stroke-width="3.66667" stroke-linecap="butt" stroke-linejoin="round" stroke-miterlimit="10" stroke-opacity="1" fill="#FFFFFF" fill-rule="evenodd" fill-opacity="0"/><text fill="#111111" fill-opacity="1" font-family="Aptos,Aptos_MSFontService,sans-serif" font-style="normal" font-variant="normal" font-weight="400" font-stretch="normal" font-size="60" text-anchor="start" direction="ltr" writing-mode="lr-tb" unicode-bidi="normal" text-decoration="none" transform="matrix(1 0 0 1 260.585 1022)">10</text><text fill="#111111" fill-opacity="1" font-family="Cambria Math,Cambria Math_MSFontService,sans-serif" font-style="normal" font-variant="normal" font-weight="400" font-stretch="normal" font-size="60" text-anchor="start" direction="ltr" writing-mode="lr-tb" unicode-bidi="normal" text-decoration="none" transform="matrix(1 0 0 1 324.752 1022)">⁻</text><text fill="#111111" fill-opacity="1" font-family="Aptos,Aptos_MSFontService,sans-serif" font-style="normal" font-variant="normal" font-weight="400" font-stretch="normal" font-size="60" text-anchor="start" direction="ltr" writing-mode="lr-tb" unicode-bidi="normal" text-decoration="none" transform="matrix(1 0 0 1 348.815 1022)">³</text><path d="M419 1319 2115 1319" stroke="#D9DEE5" stroke-width="3.66667" stroke-linecap="butt" stroke-linejoin="round" stroke-miterlimit="10" stroke-opacity="0.701961" fill="#FFFFFF" fill-rule="evenodd" fill-opacity="0"/><path d="M396 1319 419 1319" stroke="#111111" stroke-width="3.66667" stroke-linecap="butt" stroke-linejoin="round" stroke-miterlimit="10" stroke-opacity="1" fill="#FFFFFF" fill-rule="evenodd" fill-opacity="0"/><text fill="#111111" fill-opacity="1" font-family="Aptos,Aptos_MSFontService,sans-serif" font-style="normal" font-variant="normal" font-weight="400" font-stretch="normal" font-size="60" text-anchor="start" direction="ltr" writing-mode="lr-tb" unicode-bidi="normal" text-decoration="none" transform="matrix(1 0 0 1 260.585 1339)">10</text><text fill="#111111" fill-opacity="1" font-family="Cambria Math,Cambria Math_MSFontService,sans-serif" font-style="normal" font-variant="normal" font-weight="400" font-stretch="normal" font-size="60" text-anchor="start" direction="ltr" writing-mode="lr-tb" unicode-bidi="normal" text-decoration="none" transform="matrix(1 0 0 1 324.752 1339)">⁻</text><text fill="#111111" fill-opacity="1" font-family="Aptos,Aptos_MSFontService,sans-serif" font-style="normal" font-variant="normal" font-weight="400" font-stretch="normal" font-size="60" text-anchor="start" direction="ltr" writing-mode="lr-tb" unicode-bidi="normal" text-decoration="none" transform="matrix(1 0 0 1 348.815 1339)">⁴</text><path d="M419 1636 2115 1636" stroke="#D9DEE5" stroke-width="3.66667" stroke-linecap="butt" stroke-linejoin="round" stroke-miterlimit="10" stroke-opacity="0.701961" fill="#FFFFFF" fill-rule="evenodd" fill-opacity="0"/><path d="M396 1636 419 1636" stroke="#111111" stroke-width="3.66667" stroke-linecap="butt" stroke-linejoin="round" stroke-miterlimit="10" stroke-opacity="1" fill="#FFFFFF" fill-rule="evenodd" fill-opacity="0"/><text fill="#111111" fill-opacity="1" font-family="Aptos,Aptos_MSFontService,sans-serif" font-style="normal" font-variant="normal" font-weight="400" font-stretch="normal" font-size="60" text-anchor="start" direction="ltr" writing-mode="lr-tb" unicode-bidi="normal" text-decoration="none" transform="matrix(1 0 0 1 260.585 1655)">10</text><text fill="#111111" fill-opacity="1" font-family="Cambria Math,Cambria Math_MSFontService,sans-serif" font-style="normal" font-variant="normal" font-weight="400" font-stretch="normal" font-size="60" text-anchor="start" direction="ltr" writing-mode="lr-tb" unicode-bidi="normal" text-decoration="none" transform="matrix(1 0 0 1 324.752 1655)">⁻</text><text fill="#111111" fill-opacity="1" font-family="Aptos,Aptos_MSFontService,sans-serif" font-style="normal" font-variant="normal" font-weight="400" font-stretch="normal" font-size="60" text-anchor="start" direction="ltr" writing-mode="lr-tb" unicode-bidi="normal" text-decoration="none" transform="matrix(1 0 0 1 348.815 1655)">⁵</text><path d="M419 1953 2115 1953" stroke="#D9DEE5" stroke-width="3.66667" stroke-linecap="butt" stroke-linejoin="round" stroke-miterlimit="10" stroke-opacity="0.701961" fill="#FFFFFF" fill-rule="evenodd" fill-opacity="0"/><path d="M396 1953 419 1953" stroke="#111111" stroke-width="3.66667" stroke-linecap="butt" stroke-linejoin="round" stroke-miterlimit="10" stroke-opacity="1" fill="#FFFFFF" fill-rule="evenodd" fill-opacity="0"/><text fill="#111111" fill-opacity="1" font-family="Aptos,Aptos_MSFontService,sans-serif" font-style="normal" font-variant="normal" font-weight="400" font-stretch="normal" font-size="60" text-anchor="start" direction="ltr" writing-mode="lr-tb" unicode-bidi="normal" text-decoration="none" transform="matrix(1 0 0 1 260.585 1972)">10</text><text fill="#111111" fill-opacity="1" font-family="Cambria Math,Cambria Math_MSFontService,sans-serif" font-style="normal" font-variant="normal" font-weight="400" font-stretch="normal" font-size="60" text-anchor="start" direction="ltr" writing-mode="lr-tb" unicode-bidi="normal" text-decoration="none" transform="matrix(1 0 0 1 324.752 1972)">⁻</text><text fill="#111111" fill-opacity="1" font-family="Aptos,Aptos_MSFontService,sans-serif" font-style="normal" font-variant="normal" font-weight="400" font-stretch="normal" font-size="60" text-anchor="start" direction="ltr" writing-mode="lr-tb" unicode-bidi="normal" text-decoration="none" transform="matrix(1 0 0 1 348.815 1972)">⁶</text><text fill="#111111" fill-opacity="1" font-family="Aptos,Aptos_MSFontService,sans-serif" font-style="normal" font-variant="normal" font-weight="400" font-stretch="normal" font-size="60" text-anchor="start" direction="ltr" writing-mode="lr-tb" unicode-bidi="normal" text-decoration="none" transform="matrix(1 0 0 1 1018.36 2219)">number of intervals</text><path d="M516.5 661.5 816.5 745.5" stroke="#1F77B4" stroke-width="7.33333" stroke-linecap="butt" stroke-linejoin="round" stroke-miterlimit="10" stroke-opacity="1" fill="#FFFFFF" fill-rule="evenodd" fill-opacity="0"/><path d="M816.5 745.5 1117.5 834.5" stroke="#1F77B4" stroke-width="7.33333" stroke-linecap="butt" stroke-linejoin="round" stroke-miterlimit="10" stroke-opacity="1" fill="#FFFFFF" fill-rule="evenodd" fill-opacity="0"/><path d="M1117.5 834.5 1417.5 930.5" stroke="#1F77B4" stroke-width="7.33333" stroke-linecap="butt" stroke-linejoin="round" stroke-miterlimit="10" stroke-opacity="1" fill="#FFFFFF" fill-rule="evenodd" fill-opacity="0"/><path d="M1417.5 930.5 1718.5 1025.5" stroke="#1F77B4" stroke-width="7.33333" stroke-linecap="butt" stroke-linejoin="round" stroke-miterlimit="10" stroke-opacity="1" fill="#FFFFFF" fill-rule="evenodd" fill-opacity="0"/><path d="M1718.5 1025.5 2019.5 1122.5" stroke="#1F77B4" stroke-width="7.33333" stroke-linecap="butt" stroke-linejoin="round" stroke-miterlimit="10" stroke-opacity="1" fill="#FFFFFF" fill-rule="evenodd" fill-opacity="0"/><path d="M498.5 661.5C498.5 651.559 506.559 643.5 516.5 643.5 526.441 643.5 534.5 651.559 534.5 661.5 534.5 671.441 526.441 679.5 516.5 679.5 506.559 679.5 498.5 671.441 498.5 661.5Z" stroke="#1F77B4" stroke-width="4.58333" stroke-linecap="butt" stroke-linejoin="round" stroke-miterlimit="10" stroke-opacity="1" fill="#1F77B4" fill-rule="evenodd" fill-opacity="1"/><path d="M798.5 745.5C798.5 735.559 806.783 727.5 817 727.5 827.217 727.5 835.5 735.559 835.5 745.5 835.5 755.441 827.217 763.5 817 763.5 806.783 763.5 798.5 755.441 798.5 745.5Z" stroke="#1F77B4" stroke-width="4.58333" stroke-linecap="butt" stroke-linejoin="round" stroke-miterlimit="10" stroke-opacity="1" fill="#1F77B4" fill-rule="evenodd" fill-opacity="1"/><path d="M1099.5 834.5C1099.5 824.559 1107.56 816.5 1117.5 816.5 1127.44 816.5 1135.5 824.559 1135.5 834.5 1135.5 844.441 1127.44 852.5 1117.5 852.5 1107.56 852.5 1099.5 844.441 1099.5 834.5Z" stroke="#1F77B4" stroke-width="4.58333" stroke-linecap="butt" stroke-linejoin="round" stroke-miterlimit="10" stroke-opacity="1" fill="#1F77B4" fill-rule="evenodd" fill-opacity="1"/><path d="M1399.5 930C1399.5 919.783 1407.78 911.5 1418 911.5 1428.22 911.5 1436.5 919.783 1436.5 930 1436.5 940.217 1428.22 948.5 1418 948.5 1407.78 948.5 1399.5 940.217 1399.5 930Z" stroke="#1F77B4" stroke-width="4.58333" stroke-linecap="butt" stroke-linejoin="round" stroke-miterlimit="10" stroke-opacity="1" fill="#1F77B4" fill-rule="evenodd" fill-opacity="1"/><path d="M1700.5 1025.5C1700.5 1015.56 1708.56 1007.5 1718.5 1007.5 1728.44 1007.5 1736.5 1015.56 1736.5 1025.5 1736.5 1035.44 1728.44 1043.5 1718.5 1043.5 1708.56 1043.5 1700.5 1035.44 1700.5 1025.5Z" stroke="#1F77B4" stroke-width="4.58333" stroke-linecap="butt" stroke-linejoin="round" stroke-miterlimit="10" stroke-opacity="1" fill="#1F77B4" fill-rule="evenodd" fill-opacity="1"/><path d="M2000.5 1122.5C2000.5 1112.56 2008.78 1104.5 2019 1104.5 2029.22 1104.5 2037.5 1112.56 2037.5 1122.5 2037.5 1132.44 2029.22 1140.5 2019 1140.5 2008.78 1140.5 2000.5 1132.44 2000.5 1122.5Z" stroke="#1F77B4" stroke-width="4.58333" stroke-linecap="butt" stroke-linejoin="round" stroke-miterlimit="10" stroke-opacity="1" fill="#1F77B4" fill-rule="evenodd" fill-opacity="1"/><path d="M516.5 1003.5 816.5 1193.5" stroke="#FF7F0E" stroke-width="7.33333" stroke-linecap="butt" stroke-linejoin="round" stroke-miterlimit="10" stroke-opacity="1" fill="#FFFFFF" fill-rule="evenodd" fill-opacity="0"/><path d="M816.5 1193.5 1117.5 1383.5" stroke="#FF7F0E" stroke-width="7.33333" stroke-linecap="butt" stroke-linejoin="round" stroke-miterlimit="10" stroke-opacity="1" fill="#FFFFFF" fill-rule="evenodd" fill-opacity="0"/><path d="M1117.5 1383.5 1417.5 1571.5" stroke="#FF7F0E" stroke-width="7.33333" stroke-linecap="butt" stroke-linejoin="round" stroke-miterlimit="10" stroke-opacity="1" fill="#FFFFFF" fill-rule="evenodd" fill-opacity="0"/><path d="M1417.5 1571.5 1718.5 1762.5" stroke="#FF7F0E" stroke-width="7.33333" stroke-linecap="butt" stroke-linejoin="round" stroke-miterlimit="10" stroke-opacity="1" fill="#FFFFFF" fill-rule="evenodd" fill-opacity="0"/><path d="M1718.5 1762.5 2019.5 1953.5" stroke="#FF7F0E" stroke-width="7.33333" stroke-linecap="butt" stroke-linejoin="round" stroke-miterlimit="10" stroke-opacity="1" fill="#FFFFFF" fill-rule="evenodd" fill-opacity="0"/><rect x="499.5" y="985.5" width="34" height="35.0001" stroke="#FF7F0E" stroke-width="4.58333" stroke-linecap="butt" stroke-linejoin="round" stroke-miterlimit="10" stroke-opacity="1" fill="#FF7F0E" fill-opacity="1"/><rect x="799.5" y="1176.5" width="35.0001" height="33.9996" stroke="#FF7F0E" stroke-width="4.58333" stroke-linecap="butt" stroke-linejoin="round" stroke-miterlimit="10" stroke-opacity="1" fill="#FF7F0E" fill-opacity="1"/><rect x="1100.5" y="1366.5" width="34" height="34" stroke="#FF7F0E" stroke-width="4.58333" stroke-linecap="butt" stroke-linejoin="round" stroke-miterlimit="10" stroke-opacity="1" fill="#FF7F0E" fill-opacity="1"/><rect x="1400.5" y="1554.5" width="35.0001" height="35.0001" stroke="#FF7F0E" stroke-width="4.58333" stroke-linecap="butt" stroke-linejoin="round" stroke-miterlimit="10" stroke-opacity="1" fill="#FF7F0E" fill-opacity="1"/><rect x="1701.5" y="1745.5" width="34" height="34" stroke="#FF7F0E" stroke-width="4.58333" stroke-linecap="butt" stroke-linejoin="round" stroke-miterlimit="10" stroke-opacity="1" fill="#FF7F0E" fill-opacity="1"/><rect x="2001.5" y="1936.5" width="34.9998" height="34" stroke="#FF7F0E" stroke-width="4.58333" stroke-linecap="butt" stroke-linejoin="round" stroke-miterlimit="10" stroke-opacity="1" fill="#FF7F0E" fill-opacity="1"/><path d="M1251.5 640.431C1251.5 634.946 1255.95 630.5 1261.43 630.5L2059.57 630.5C2065.05 630.5 2069.5 634.946 2069.5 640.431L2069.5 812.569C2069.5 818.054 2065.05 822.5 2059.57 822.5L1261.43 822.5C1255.95 822.5 1251.5 818.054 1251.5 812.569Z" stroke="#BBBBBB" stroke-width="3.20833" stroke-linecap="butt" stroke-linejoin="round" stroke-miterlimit="10" stroke-opacity="1" fill="#FFFFFF" fill-rule="evenodd" fill-opacity="0.94902"/><path d="M1294.5 696.5 1399.5 696.5" stroke="#1F77B4" stroke-width="6.875" stroke-linecap="butt" stroke-linejoin="round" stroke-miterlimit="10" stroke-opacity="1" fill="#FFFFFF" fill-rule="evenodd" fill-opacity="0"/><path d="M1333.5 697C1333.5 687.887 1340.89 680.5 1350 680.5 1359.11 680.5 1366.5 687.887 1366.5 697 1366.5 706.113 1359.11 713.5 1350 713.5 1340.89 713.5 1333.5 706.113 1333.5 697Z" stroke="#1F77B4" stroke-width="4.58333" stroke-linecap="butt" stroke-linejoin="round" stroke-miterlimit="10" stroke-opacity="1" fill="#1F77B4" fill-rule="evenodd" fill-opacity="1"/><text fill="#111111" fill-opacity="1" font-family="Aptos,Aptos_MSFontService,sans-serif" font-style="normal" font-variant="normal" font-weight="400" font-stretch="normal" font-size="48" text-anchor="start" direction="ltr" writing-mode="lr-tb" unicode-bidi="normal" text-decoration="none" transform="matrix(1 0 0 1 1422.53 700)">Euler (first order)</text><path d="M1294.5 769.5 1399.5 769.501" stroke="#FF7F0E" stroke-width="6.875" stroke-linecap="butt" stroke-linejoin="round" stroke-miterlimit="10" stroke-opacity="1" fill="#FFFFFF" fill-rule="evenodd" fill-opacity="0"/><rect x="1333.5" y="752.5" width="33" height="33" stroke="#FF7F0E" stroke-width="4.58333" stroke-linecap="butt" stroke-linejoin="round" stroke-miterlimit="10" stroke-opacity="1" fill="#FF7F0E" fill-opacity="1"/><text fill="#111111" fill-opacity="1" font-family="Aptos,Aptos_MSFontService,sans-serif" font-style="normal" font-variant="normal" font-weight="400" font-stretch="normal" font-size="48" text-anchor="start" direction="ltr" writing-mode="lr-tb" unicode-bidi="normal" text-decoration="none" transform="matrix(1 0 0 1 1422.53 799)">Trapezoidal (second order)</text><text fill="#2E8B57" fill-opacity="1" font-family="Aptos,Aptos_MSFontService,sans-serif" font-style="normal" font-variant="normal" font-weight="700" font-stretch="normal" font-size="83" text-anchor="start" direction="ltr" writing-mode="lr-tb" unicode-bidi="normal" text-decoration="none" transform="matrix(1 0 0 1 2926.06 482)">Mesh</text><text fill="#2E8B57" fill-opacity="1" font-family="Aptos,Aptos_MSFontService,sans-serif" font-style="normal" font-variant="normal" font-weight="700" font-stretch="normal" font-size="83" text-anchor="start" direction="ltr" writing-mode="lr-tb" unicode-bidi="normal" text-decoration="none" transform="matrix(1 0 0 1 3129.44 482)">-</text><text fill="#2E8B57" fill-opacity="1" font-family="Aptos,Aptos_MSFontService,sans-serif" font-style="normal" font-variant="normal" font-weight="700" font-stretch="normal" font-size="83" text-anchor="start" direction="ltr" writing-mode="lr-tb" unicode-bidi="normal" text-decoration="none" transform="matrix(1 0 0 1 3157.52 482)">refinement loop</text><path d="M2607 630.758C2607 619.846 2615.85 611 2626.76 611L4056.24 611C4067.15 611 4076 619.846 4076 630.758L4076 782.241C4076 793.154 4067.15 802 4056.24 802L2626.76 802C2615.85 802 2607 793.154 2607 782.241Z" stroke="#0B3A67" stroke-width="6.41667" stroke-linecap="butt" stroke-linejoin="round" stroke-miterlimit="10" stroke-opacity="1" fill="#EAF4FF" fill-rule="evenodd" fill-opacity="1"/><text fill="#0B3A67" fill-opacity="1" font-family="Aptos,Aptos_MSFontService,sans-serif" font-style="normal" font-variant="normal" font-weight="700" font-stretch="normal" font-size="71" text-anchor="start" direction="ltr" writing-mode="lr-tb" unicode-bidi="normal" text-decoration="none" transform="matrix(1 0 0 1 2960.6 730)">Solve on an initial mesh</text><path d="M2607 1022.86C2607 1011.89 2615.89 1003 2626.86 1003L4056.14 1003C4067.11 1003 4076 1011.89 4076 1022.86L4076 1175.14C4076 1186.11 4067.11 1195 4056.14 1195L2626.86 1195C2615.89 1195 2607 1186.11 2607 1175.14Z" stroke="#E07A00" stroke-width="6.41667" stroke-linecap="butt" stroke-linejoin="round" stroke-miterlimit="10" stroke-opacity="1" fill="#FFF4CF" fill-rule="evenodd" fill-opacity="1"/><text fill="#E07A00" fill-opacity="1" font-family="Aptos,Aptos_MSFontService,sans-serif" font-style="normal" font-variant="normal" font-weight="700" font-stretch="normal" font-size="60" text-anchor="start" direction="ltr" writing-mode="lr-tb" unicode-bidi="normal" text-decoration="none" transform="matrix(1 0 0 1 3013 1082)">Estimate local error and</text><text fill="#E07A00" fill-opacity="1" font-family="Aptos,Aptos_MSFontService,sans-serif" font-style="normal" font-variant="normal" font-weight="700" font-stretch="normal" font-size="60" text-anchor="start" direction="ltr" writing-mode="lr-tb" unicode-bidi="normal" text-decoration="none" transform="matrix(1 0 0 1 2984.33 1154)">inspect constraint activity</text><path d="M2607 1415.76C2607 1404.85 2615.85 1396 2626.76 1396L4056.24 1396C4067.15 1396 4076 1404.85 4076 1415.76L4076 1567.24C4076 1578.15 4067.15 1587 4056.24 1587L2626.76 1587C2615.85 1587 2607 1578.15 2607 1567.24Z" stroke="#2E8B57" stroke-width="6.41667" stroke-linecap="butt" stroke-linejoin="round" stroke-miterlimit="10" stroke-opacity="1" fill="#ECF8F0" fill-rule="evenodd" fill-opacity="1"/><text fill="#2E8B57" fill-opacity="1" font-family="Aptos,Aptos_MSFontService,sans-serif" font-style="normal" font-variant="normal" font-weight="700" font-stretch="normal" font-size="60" text-anchor="start" direction="ltr" writing-mode="lr-tb" unicode-bidi="normal" text-decoration="none" transform="matrix(1 0 0 1 3049.23 1475)">Refine interval size h,</text><text fill="#2E8B57" fill-opacity="1" font-family="Aptos,Aptos_MSFontService,sans-serif" font-style="normal" font-variant="normal" font-weight="700" font-stretch="normal" font-size="60" text-anchor="start" direction="ltr" writing-mode="lr-tb" unicode-bidi="normal" text-decoration="none" transform="matrix(1 0 0 1 2970.1 1547)">polynomial order p, or both</text><path d="M2607 1808.76C2607 1797.85 2615.85 1789 2626.76 1789L4056.24 1789C4067.15 1789 4076 1797.85 4076 1808.76L4076 1960.24C4076 1971.15 4067.15 1980 4056.24 1980L2626.76 1980C2615.85 1980 2607 1971.15 2607 1960.24Z" stroke="#7B3FF2" stroke-width="6.41667" stroke-linecap="butt" stroke-linejoin="round" stroke-miterlimit="10" stroke-opacity="1" fill="#F3ECFF" fill-rule="evenodd" fill-opacity="1"/><text fill="#7B3FF2" fill-opacity="1" font-family="Aptos,Aptos_MSFontService,sans-serif" font-style="normal" font-variant="normal" font-weight="700" font-stretch="normal" font-size="59" text-anchor="start" direction="ltr" writing-mode="lr-tb" unicode-bidi="normal" text-decoration="none" transform="matrix(1 0 0 1 2873.89 1868)">Repeat until objective, trajectories,</text><text fill="#7B3FF2" fill-opacity="1" font-family="Aptos,Aptos_MSFontService,sans-serif" font-style="normal" font-variant="normal" font-weight="700" font-stretch="normal" font-size="59" text-anchor="start" direction="ltr" writing-mode="lr-tb" unicode-bidi="normal" text-decoration="none" transform="matrix(1 0 0 1 3014.87 1939)">and constraints stabilize</text><path d="M3341.5 815.5 3341.5 983.5" fill="#FFFFFF" fill-rule="evenodd" fill-opacity="0"/><path d="M3344.94 815.5 3344.94 960.583 3338.06 960.583 3338.06 815.5ZM3355.25 956 3341.5 983.5 3327.75 956Z" fill="#5B6572" fill-rule="nonzero" fill-opacity="1"/><path d="M3341.5 1208.5 3341.5 1376.5" fill="#FFFFFF" fill-rule="evenodd" fill-opacity="0"/><path d="M3344.94 1208.5 3344.94 1353.58 3338.06 1353.58 3338.06 1208.5ZM3355.25 1349 3341.5 1376.5 3327.75 1349Z" fill="#5B6572" fill-rule="nonzero" fill-opacity="1"/><path d="M3341.5 1601.5 3341.5 1769.5" fill="#FFFFFF" fill-rule="evenodd" fill-opacity="0"/><path d="M3344.94 1601.5 3344.94 1746.58 3338.06 1746.58 3338.06 1601.5ZM3355.25 1742 3341.5 1769.5 3327.75 1742Z" fill="#5B6572" fill-rule="nonzero" fill-opacity="1"/><text fill="#5B6572" fill-opacity="1" font-family="Aptos,Aptos_MSFontService,sans-serif" font-style="normal" font-variant="normal" font-weight="400" font-stretch="normal" font-size="56" text-anchor="start" direction="ltr" writing-mode="lr-tb" unicode-bidi="normal" text-decoration="none" transform="matrix(1 0 0 1 387.933 2378)">Verification idea: solve the same problem on successively richer meshes; credible solutions show stable trajectories, constra</text><text fill="#5B6572" fill-opacity="1" font-family="Aptos,Aptos_MSFontService,sans-serif" font-style="normal" font-variant="normal" font-weight="400" font-stretch="normal" font-size="56" text-anchor="start" direction="ltr" writing-mode="lr-tb" unicode-bidi="normal" text-decoration="none" transform="matrix(1 0 0 1 3407.52 2378)">int</text><text fill="#5B6572" fill-opacity="1" font-family="Aptos,Aptos_MSFontService,sans-serif" font-style="normal" font-variant="normal" font-weight="400" font-stretch="normal" font-size="56" text-anchor="start" direction="ltr" writing-mode="lr-tb" unicode-bidi="normal" text-decoration="none" transform="matrix(1 0 0 1 3469.74 2378)">s, and objective values.</text></g></g></svg>