<svg width="3845" height="1792" xmlns="http://www.w3.org/2000/svg" xmlns:xlink="http://www.w3.org/1999/xlink" xml:space="preserve" overflow="hidden"><g transform="translate(-192 -385)"><g><path d="M1433 426.168C1433 407.297 1448.3 392 1467.17 392L2932.83 392C2951.7 392 2967 407.297 2967 426.168L2967 562.832C2967 581.703 2951.7 597 2932.83 597L1467.17 597C1448.3 597 1433 581.703 1433 562.832Z" stroke="#D97706" stroke-width="9.625" stroke-linecap="butt" stroke-linejoin="round" stroke-miterlimit="10" stroke-opacity="1" fill="#FFFFFF" fill-rule="evenodd" fill-opacity="1"/><text fill="#D97706" fill-opacity="1" font-family="Arial,Arial_MSFontService,sans-serif" font-style="normal" font-variant="normal" font-weight="700" font-stretch="normal" font-size="110" text-anchor="start" direction="ltr" writing-mode="lr-tb" unicode-bidi="normal" text-decoration="none" transform="matrix(1 0 0 1 1745.68 535)">Multiple shooting</text><path d="M248 745.668C248 707.744 278.744 677 316.668 677L921.332 677C959.256 677 990 707.744 990 745.668L990 1020.33C990 1058.26 959.256 1089 921.332 1089L316.668 1089C278.744 1089 248 1058.26 248 1020.33Z" stroke="#2B6DA6" stroke-width="9.625" stroke-linecap="butt" stroke-linejoin="round" stroke-miterlimit="10" stroke-opacity="1" fill="#EAF3FA" fill-rule="evenodd" fill-opacity="1"/><text fill="#0B3A67" fill-opacity="1" font-family="Arial,Arial_MSFontService,sans-serif" font-style="normal" font-variant="normal" font-weight="700" font-stretch="normal" font-size="78" text-anchor="start" direction="ltr" writing-mode="lr-tb" unicode-bidi="normal" text-decoration="none" transform="matrix(1 0 0 1 421.392 865)">Segment 1</text><text fill="#0B3A67" fill-opacity="1" font-family="Arial,Arial_MSFontService,sans-serif" font-style="normal" font-variant="normal" font-weight="700" font-stretch="normal" font-size="78" text-anchor="start" direction="ltr" writing-mode="lr-tb" unicode-bidi="normal" text-decoration="none" transform="matrix(1 0 0 1 323.698 958)">local simulation</text><path d="M1205 745.668C1205 707.744 1235.74 677 1273.67 677L1878.33 677C1916.26 677 1947 707.744 1947 745.668L1947 1020.33C1947 1058.26 1916.26 1089 1878.33 1089L1273.67 1089C1235.74 1089 1205 1058.26 1205 1020.33Z" stroke="#2B6DA6" stroke-width="9.625" stroke-linecap="butt" stroke-linejoin="round" stroke-miterlimit="10" stroke-opacity="1" fill="#EAF3FA" fill-rule="evenodd" fill-opacity="1"/><text fill="#0B3A67" fill-opacity="1" font-family="Arial,Arial_MSFontService,sans-serif" font-style="normal" font-variant="normal" font-weight="700" font-stretch="normal" font-size="78" text-anchor="start" direction="ltr" writing-mode="lr-tb" unicode-bidi="normal" text-decoration="none" transform="matrix(1 0 0 1 1378.39 865)">Segment 2</text><text fill="#0B3A67" fill-opacity="1" font-family="Arial,Arial_MSFontService,sans-serif" font-style="normal" font-variant="normal" font-weight="700" font-stretch="normal" font-size="78" text-anchor="start" direction="ltr" writing-mode="lr-tb" unicode-bidi="normal" text-decoration="none" transform="matrix(1 0 0 1 1280.7 958)">local simulation</text><path d="M2162 745.668C2162 707.744 2192.74 677 2230.67 677L2835.33 677C2873.26 677 2904 707.744 2904 745.668L2904 1020.33C2904 1058.26 2873.26 1089 2835.33 1089L2230.67 1089C2192.74 1089 2162 1058.26 2162 1020.33Z" stroke="#2B6DA6" stroke-width="9.625" stroke-linecap="butt" stroke-linejoin="round" stroke-miterlimit="10" stroke-opacity="1" fill="#EAF3FA" fill-rule="evenodd" fill-opacity="1"/><text fill="#0B3A67" fill-opacity="1" font-family="Arial,Arial_MSFontService,sans-serif" font-style="normal" font-variant="normal" font-weight="700" font-stretch="normal" font-size="78" text-anchor="start" direction="ltr" writing-mode="lr-tb" unicode-bidi="normal" text-decoration="none" transform="matrix(1 0 0 1 2335.39 865)">Segment 3</text><text fill="#0B3A67" fill-opacity="1" font-family="Arial,Arial_MSFontService,sans-serif" font-style="normal" font-variant="normal" font-weight="700" font-stretch="normal" font-size="78" text-anchor="start" direction="ltr" writing-mode="lr-tb" unicode-bidi="normal" text-decoration="none" transform="matrix(1 0 0 1 2237.7 958)">local simulation</text><path d="M3119 745.668C3119 707.744 3149.74 677 3187.67 677L3792.33 677C3830.26 677 3861 707.744 3861 745.668L3861 1020.33C3861 1058.26 3830.26 1089 3792.33 1089L3187.67 1089C3149.74 1089 3119 1058.26 3119 1020.33Z" stroke="#2B6DA6" stroke-width="9.625" stroke-linecap="butt" stroke-linejoin="round" stroke-miterlimit="10" stroke-opacity="1" fill="#EAF3FA" fill-rule="evenodd" fill-opacity="1"/><text fill="#0B3A67" fill-opacity="1" font-family="Arial,Arial_MSFontService,sans-serif" font-style="normal" font-variant="normal" font-weight="700" font-stretch="normal" font-size="78" text-anchor="start" direction="ltr" writing-mode="lr-tb" unicode-bidi="normal" text-decoration="none" transform="matrix(1 0 0 1 3292.39 865)">Segment 4</text><text fill="#0B3A67" fill-opacity="1" font-family="Arial,Arial_MSFontService,sans-serif" font-style="normal" font-variant="normal" font-weight="700" font-stretch="normal" font-size="78" text-anchor="start" direction="ltr" writing-mode="lr-tb" unicode-bidi="normal" text-decoration="none" transform="matrix(1 0 0 1 3194.7 958)">local simulation</text><path d="M1007 878.875 1142.08 878.875 1142.08 887.125 1007 887.125ZM1137.5 869.25 1165 883 1137.5 896.75Z" fill="#5B6774" fill-rule="nonzero" fill-opacity="1"/><path d="M1964 878.875 2099.08 878.875 2099.08 887.125 1964 887.125ZM2094.5 869.25 2122 883 2094.5 896.75Z" fill="#5B6774" fill-rule="nonzero" fill-opacity="1"/><path d="M2921 878.875 3056.08 878.875 3056.08 887.125 2921 887.125ZM3051.5 869.25 3079 883 3051.5 896.75Z" fill="#5B6774" fill-rule="nonzero" fill-opacity="1"/><path d="M367 1538 3822 1538" stroke="#D7DEE8" stroke-width="5.5" stroke-linecap="butt" stroke-linejoin="round" stroke-miterlimit="10" stroke-opacity="1" fill="none" fill-rule="evenodd"/><path d="M235.5 1538.5C235.5 1509.23 259.229 1485.5 288.5 1485.5 317.771 1485.5 341.5 1509.23 341.5 1538.5 341.5 1567.77 317.771 1591.5 288.5 1591.5 259.229 1591.5 235.5 1567.77 235.5 1538.5Z" stroke="#7C3AED" stroke-width="11" stroke-linecap="butt" stroke-linejoin="round" stroke-miterlimit="10" stroke-opacity="1" fill="#FFFFFF" fill-rule="evenodd" fill-opacity="1"/><text fill="#7C3AED" fill-opacity="1" font-family="Arial,Arial_MSFontService,sans-serif" font-style="italic" font-variant="normal" font-weight="400" font-stretch="normal" font-size="69" text-anchor="start" direction="ltr" writing-mode="lr-tb" unicode-bidi="normal" text-decoration="none" transform="matrix(1 0 0 1 256.609 1676)">x</text><text fill="#7C3AED" fill-opacity="1" font-family="Cambria Math,Cambria Math_MSFontService,sans-serif" font-style="oblique" font-variant="normal" font-weight="400" font-stretch="normal" font-size="69" text-anchor="start" direction="ltr" writing-mode="lr-tb" unicode-bidi="normal" text-decoration="none" transform="matrix(1 0 0 1 290.984 1676)">₀</text><path d="M1027.5 1538.5C1027.5 1509.23 1051.23 1485.5 1080.5 1485.5 1109.77 1485.5 1133.5 1509.23 1133.5 1538.5 1133.5 1567.77 1109.77 1591.5 1080.5 1591.5 1051.23 1591.5 1027.5 1567.77 1027.5 1538.5Z" stroke="#7C3AED" stroke-width="11" stroke-linecap="butt" stroke-linejoin="round" stroke-miterlimit="10" stroke-opacity="1" fill="#FFFFFF" fill-rule="evenodd" fill-opacity="1"/><text fill="#7C3AED" fill-opacity="1" font-family="Arial,Arial_MSFontService,sans-serif" font-style="italic" font-variant="normal" font-weight="400" font-stretch="normal" font-size="69" text-anchor="start" direction="ltr" writing-mode="lr-tb" unicode-bidi="normal" text-decoration="none" transform="matrix(1 0 0 1 1048.61 1676)">x</text><text fill="#7C3AED" fill-opacity="1" font-family="Cambria Math,Cambria Math_MSFontService,sans-serif" font-style="oblique" font-variant="normal" font-weight="400" font-stretch="normal" font-size="69" text-anchor="start" direction="ltr" writing-mode="lr-tb" unicode-bidi="normal" text-decoration="none" transform="matrix(1 0 0 1 1082.98 1676)">₁</text><path d="M2002.5 1538.5C2002.5 1509.23 2026.23 1485.5 2055.5 1485.5 2084.77 1485.5 2108.5 1509.23 2108.5 1538.5 2108.5 1567.77 2084.77 1591.5 2055.5 1591.5 2026.23 1591.5 2002.5 1567.77 2002.5 1538.5Z" stroke="#7C3AED" stroke-width="11" stroke-linecap="butt" stroke-linejoin="round" stroke-miterlimit="10" stroke-opacity="1" fill="#FFFFFF" fill-rule="evenodd" fill-opacity="1"/><text fill="#7C3AED" fill-opacity="1" font-family="Arial,Arial_MSFontService,sans-serif" font-style="italic" font-variant="normal" font-weight="400" font-stretch="normal" font-size="69" text-anchor="start" direction="ltr" writing-mode="lr-tb" unicode-bidi="normal" text-decoration="none" transform="matrix(1 0 0 1 2023.94 1665)">x</text><text fill="#7C3AED" fill-opacity="1" font-family="Cambria Math,Cambria Math_MSFontService,sans-serif" font-style="oblique" font-variant="normal" font-weight="400" font-stretch="normal" font-size="69" text-anchor="start" direction="ltr" writing-mode="lr-tb" unicode-bidi="normal" text-decoration="none" transform="matrix(1 0 0 1 2058.32 1665)">₂</text><path d="M2945.5 1538.5C2945.5 1509.23 2969.01 1485.5 2998 1485.5 3026.99 1485.5 3050.5 1509.23 3050.5 1538.5 3050.5 1567.77 3026.99 1591.5 2998 1591.5 2969.01 1591.5 2945.5 1567.77 2945.5 1538.5Z" stroke="#7C3AED" stroke-width="11" stroke-linecap="butt" stroke-linejoin="round" stroke-miterlimit="10" stroke-opacity="1" fill="#FFFFFF" fill-rule="evenodd" fill-opacity="1"/><text fill="#7C3AED" fill-opacity="1" font-family="Arial,Arial_MSFontService,sans-serif" font-style="italic" font-variant="normal" font-weight="400" font-stretch="normal" font-size="69" text-anchor="start" direction="ltr" writing-mode="lr-tb" unicode-bidi="normal" text-decoration="none" transform="matrix(1 0 0 1 3010.28 1661)">x</text><text fill="#7C3AED" fill-opacity="1" font-family="Cambria Math,Cambria Math_MSFontService,sans-serif" font-style="oblique" font-variant="normal" font-weight="400" font-stretch="normal" font-size="69" text-anchor="start" direction="ltr" writing-mode="lr-tb" unicode-bidi="normal" text-decoration="none" transform="matrix(1 0 0 1 3044.65 1661)">₃</text><path d="M3849.5 1538.5C3849.5 1509.23 3873.01 1485.5 3902 1485.5 3931 1485.5 3954.5 1509.23 3954.5 1538.5 3954.5 1567.77 3931 1591.5 3902 1591.5 3873.01 1591.5 3849.5 1567.77 3849.5 1538.5Z" stroke="#7C3AED" stroke-width="11" stroke-linecap="butt" stroke-linejoin="round" stroke-miterlimit="10" stroke-opacity="1" fill="#FFFFFF" fill-rule="evenodd" fill-opacity="1"/><text fill="#7C3AED" fill-opacity="1" font-family="Arial,Arial_MSFontService,sans-serif" font-style="italic" font-variant="normal" font-weight="400" font-stretch="normal" font-size="69" text-anchor="start" direction="ltr" writing-mode="lr-tb" unicode-bidi="normal" text-decoration="none" transform="matrix(1 0 0 1 3870.11 1661)">x</text><text fill="#7C3AED" fill-opacity="1" font-family="Cambria Math,Cambria Math_MSFontService,sans-serif" font-style="oblique" font-variant="normal" font-weight="400" font-stretch="normal" font-size="69" text-anchor="start" direction="ltr" writing-mode="lr-tb" unicode-bidi="normal" text-decoration="none" transform="matrix(1 0 0 1 3904.48 1661)">₄</text><path d="M1084.13 1086 1084.13 1410.08 1075.88 1410.08 1075.88 1086ZM1093.75 1405.5 1080 1433 1066.25 1405.5Z" fill="#C43B4D" fill-rule="nonzero" fill-opacity="1"/><text fill="#C43B4D" fill-opacity="1" font-family="Arial,Arial_MSFontService,sans-serif" font-style="normal" font-variant="normal" font-weight="400" font-stretch="normal" font-size="62" text-anchor="start" direction="ltr" writing-mode="lr-tb" unicode-bidi="normal" text-decoration="none" transform="matrix(1 0 0 1 1132.72 1206)">continuity</text><text fill="#C43B4D" fill-opacity="1" font-family="Arial,Arial_MSFontService,sans-serif" font-style="normal" font-variant="normal" font-weight="400" font-stretch="normal" font-size="62" text-anchor="start" direction="ltr" writing-mode="lr-tb" unicode-bidi="normal" text-decoration="none" transform="matrix(1 0 0 1 1132.72 1273)">defect</text><path d="M2059.12 1086 2059.13 1410.08 2050.88 1410.08 2050.88 1086ZM2068.75 1405.5 2055 1433 2041.25 1405.5Z" fill="#C43B4D" fill-rule="nonzero" fill-opacity="1"/><text fill="#C43B4D" fill-opacity="1" font-family="Arial,Arial_MSFontService,sans-serif" font-style="normal" font-variant="normal" font-weight="400" font-stretch="normal" font-size="62" text-anchor="start" direction="ltr" writing-mode="lr-tb" unicode-bidi="normal" text-decoration="none" transform="matrix(1 0 0 1 2108.06 1206)">continuity</text><text fill="#C43B4D" fill-opacity="1" font-family="Arial,Arial_MSFontService,sans-serif" font-style="normal" font-variant="normal" font-weight="400" font-stretch="normal" font-size="62" text-anchor="start" direction="ltr" writing-mode="lr-tb" unicode-bidi="normal" text-decoration="none" transform="matrix(1 0 0 1 2108.06 1273)">defect</text><path d="M3002.12 1086 3002.12 1410.08 2993.88 1410.08 2993.87 1086ZM3011.75 1405.5 2998 1433 2984.25 1405.5Z" fill="#C43B4D" fill-rule="nonzero" fill-opacity="1"/><text fill="#C43B4D" fill-opacity="1" font-family="Arial,Arial_MSFontService,sans-serif" font-style="normal" font-variant="normal" font-weight="400" font-stretch="normal" font-size="62" text-anchor="start" direction="ltr" writing-mode="lr-tb" unicode-bidi="normal" text-decoration="none" transform="matrix(1 0 0 1 3050.39 1206)">continuity</text><text fill="#C43B4D" fill-opacity="1" font-family="Arial,Arial_MSFontService,sans-serif" font-style="normal" font-variant="normal" font-weight="400" font-stretch="normal" font-size="62" text-anchor="start" direction="ltr" writing-mode="lr-tb" unicode-bidi="normal" text-decoration="none" transform="matrix(1 0 0 1 3050.39 1273)">defect</text><path d="M1410 1757C1410 1745.4 1419.4 1736 1431 1736L3055 1736C3066.6 1736 3076 1745.4 3076 1757L3076 1841C3076 1852.6 3066.6 1862 3055 1862L1431 1862C1419.4 1862 1410 1852.6 1410 1841Z" stroke="#7C3AED" stroke-width="5.95833" stroke-linecap="butt" stroke-linejoin="round" stroke-miterlimit="10" stroke-opacity="1" fill="#FFFFFF" fill-rule="evenodd" fill-opacity="1"/><text fill="#7C3AED" fill-opacity="1" font-family="Arial,Arial_MSFontService,sans-serif" font-style="normal" font-variant="normal" font-weight="400" font-stretch="normal" font-size="65" text-anchor="start" direction="ltr" writing-mode="lr-tb" unicode-bidi="normal" text-decoration="none" transform="matrix(1 0 0 1 1750.95 1823)">independent segment initial states</text><path d="M436.5 1948.5C436.5 1924.75 455.752 1905.5 479.5 1905.5L3990.5 1905.5C4014.25 1905.5 4033.5 1924.75 4033.5 1948.5L4033.5 2120.5C4033.5 2144.25 4014.25 2163.5 3990.5 2163.5L479.5 2163.5C455.752 2163.5 436.5 2144.25 436.5 2120.5Z" stroke="#D97706" stroke-width="7.33333" stroke-linecap="butt" stroke-linejoin="round" stroke-miterlimit="10" stroke-opacity="1" fill="#FFFFFF" fill-rule="evenodd" fill-opacity="1"/><text fill="#D97706" fill-opacity="1" font-family="Arial,Arial_MSFontService,sans-serif" font-style="normal" font-variant="normal" font-weight="400" font-stretch="normal" font-size="78" text-anchor="start" direction="ltr" writing-mode="lr-tb" unicode-bidi="normal" text-decoration="none" transform="matrix(1 0 0 1 1092.15 2016)">Independent segment initial states shorten sensitivity propagation.</text><text fill="#D97706" fill-opacity="1" font-family="Arial,Arial_MSFontService,sans-serif" font-style="normal" font-variant="normal" font-weight="400" font-stretch="normal" font-size="78" text-anchor="start" direction="ltr" writing-mode="lr-tb" unicode-bidi="normal" text-decoration="none" transform="matrix(1 0 0 1 1305.85 2109)">Continuity constraints reconnect the local simulations.</text></g></g></svg>