<svg width="4162" height="1338" xmlns="http://www.w3.org/2000/svg" xmlns:xlink="http://www.w3.org/1999/xlink" xml:space="preserve" overflow="hidden"><g transform="translate(-100 -467)"><g><path d="M898.5 510.667C898.5 491.245 914.245 475.5 933.667 475.5L3797.33 475.5C3816.76 475.5 3832.5 491.245 3832.5 510.667L3832.5 651.333C3832.5 670.755 3816.76 686.5 3797.33 686.5L933.667 686.5C914.245 686.5 898.5 670.755 898.5 651.333Z" stroke="#2F855A" stroke-width="9.16667" stroke-linecap="butt" stroke-linejoin="round" stroke-miterlimit="10" stroke-opacity="1" fill="#FFFFFF" fill-rule="evenodd" fill-opacity="1"/><text fill="#2F855A" fill-opacity="1" font-family="Aptos Display,Aptos Display_MSFontService,sans-serif" font-style="normal" font-variant="normal" font-weight="700" font-stretch="normal" font-size="96" text-anchor="start" direction="ltr" writing-mode="lr-tb" unicode-bidi="normal" text-decoration="none" transform="matrix(1 0 0 1 1448.2 612)">Direct transcription: discretize, then optimize</text><path d="M130.5 864.906C130.5 850.322 142.323 838.5 156.906 838.5L890.094 838.5C904.677 838.5 916.5 850.322 916.5 864.906L916.5 1393.09C916.5 1407.68 904.677 1419.5 890.094 1419.5L156.906 1419.5C142.323 1419.5 130.5 1407.68 130.5 1393.09Z" stroke="#123B63" stroke-width="9.16667" stroke-linecap="butt" stroke-linejoin="round" stroke-miterlimit="10" stroke-opacity="1" fill="#EAF2F8" fill-rule="evenodd" fill-opacity="1"/><text fill="#123B63" fill-opacity="1" font-family="Aptos,Aptos_MSFontService,sans-serif" font-style="normal" font-variant="normal" font-weight="700" font-stretch="normal" font-size="65" text-anchor="start" direction="ltr" writing-mode="lr-tb" unicode-bidi="normal" text-decoration="none" transform="matrix(1 0 0 1 218.155 993)">Continuous problem</text><text fill="#123B63" fill-opacity="1" font-family="Aptos,Aptos_MSFontService,sans-serif" font-style="normal" font-variant="normal" font-weight="700" font-stretch="normal" font-size="65" text-anchor="start" direction="ltr" writing-mode="lr-tb" unicode-bidi="normal" text-decoration="none" transform="matrix(1 0 0 1 394.659 1149)">state x(t)</text><text fill="#123B63" fill-opacity="1" font-family="Aptos,Aptos_MSFontService,sans-serif" font-style="normal" font-variant="normal" font-weight="700" font-stretch="normal" font-size="65" text-anchor="start" direction="ltr" writing-mode="lr-tb" unicode-bidi="normal" text-decoration="none" transform="matrix(1 0 0 1 360.238 1227)">control u(t)</text><text fill="#123B63" fill-opacity="1" font-family="Aptos,Aptos_MSFontService,sans-serif" font-style="normal" font-variant="normal" font-weight="700" font-stretch="normal" font-size="65" text-anchor="start" direction="ltr" writing-mode="lr-tb" unicode-bidi="normal" text-decoration="none" transform="matrix(1 0 0 1 140.88 1305)">dynamics and constraints</text><path d="M1030.5 864.906C1030.5 850.322 1042.32 838.5 1056.91 838.5L1796.09 838.5C1810.68 838.5 1822.5 850.322 1822.5 864.906L1822.5 1393.09C1822.5 1407.68 1810.68 1419.5 1796.09 1419.5L1056.91 1419.5C1042.32 1419.5 1030.5 1407.68 1030.5 1393.09Z" stroke="#D97706" stroke-width="9.16667" stroke-linecap="butt" stroke-linejoin="round" stroke-miterlimit="10" stroke-opacity="1" fill="#FFF4D6" fill-rule="evenodd" fill-opacity="1"/><text fill="#D97706" fill-opacity="1" font-family="Aptos,Aptos_MSFontService,sans-serif" font-style="normal" font-variant="normal" font-weight="700" font-stretch="normal" font-size="64" text-anchor="start" direction="ltr" writing-mode="lr-tb" unicode-bidi="normal" text-decoration="none" transform="matrix(1 0 0 1 1163.2 995)">Choose mesh and</text><text fill="#D97706" fill-opacity="1" font-family="Aptos,Aptos_MSFontService,sans-serif" font-style="normal" font-variant="normal" font-weight="700" font-stretch="normal" font-size="64" text-anchor="start" direction="ltr" writing-mode="lr-tb" unicode-bidi="normal" text-decoration="none" transform="matrix(1 0 0 1 1134.56 1072)">local approximation</text><text fill="#D97706" fill-opacity="1" font-family="Aptos,Aptos_MSFontService,sans-serif" font-style="normal" font-variant="normal" font-weight="700" font-stretch="normal" font-size="64" text-anchor="start" direction="ltr" writing-mode="lr-tb" unicode-bidi="normal" text-decoration="none" transform="matrix(1 0 0 1 1249.78 1226)">node values</text><text fill="#D97706" fill-opacity="1" font-family="Aptos,Aptos_MSFontService,sans-serif" font-style="normal" font-variant="normal" font-weight="700" font-stretch="normal" font-size="64" text-anchor="start" direction="ltr" writing-mode="lr-tb" unicode-bidi="normal" text-decoration="none" transform="matrix(1 0 0 1 1099.84 1303)">and collocation points</text><path d="M1943.5 864.906C1943.5 850.322 1955.32 838.5 1969.91 838.5L2759.09 838.5C2773.68 838.5 2785.5 850.322 2785.5 864.906L2785.5 1393.09C2785.5 1407.68 2773.68 1419.5 2759.09 1419.5L1969.91 1419.5C1955.32 1419.5 1943.5 1407.68 1943.5 1393.09Z" stroke="#2F855A" stroke-width="9.16667" stroke-linecap="butt" stroke-linejoin="round" stroke-miterlimit="10" stroke-opacity="1" fill="#E9F7EF" fill-rule="evenodd" fill-opacity="1"/><text fill="#2F855A" fill-opacity="1" font-family="Aptos,Aptos_MSFontService,sans-serif" font-style="normal" font-variant="normal" font-weight="700" font-stretch="normal" font-size="64" text-anchor="start" direction="ltr" writing-mode="lr-tb" unicode-bidi="normal" text-decoration="none" transform="matrix(1 0 0 1 2095.12 996)">Create a finite NLP</text><text fill="#2F855A" fill-opacity="1" font-family="Aptos,Aptos_MSFontService,sans-serif" font-style="normal" font-variant="normal" font-weight="700" font-stretch="normal" font-size="64" text-anchor="start" direction="ltr" writing-mode="lr-tb" unicode-bidi="normal" text-decoration="none" transform="matrix(1 0 0 1 2062.83 1149)">objective quadrature</text><text fill="#2F855A" fill-opacity="1" font-family="Aptos,Aptos_MSFontService,sans-serif" font-style="normal" font-variant="normal" font-weight="700" font-stretch="normal" font-size="64" text-anchor="start" direction="ltr" writing-mode="lr-tb" unicode-bidi="normal" text-decoration="none" transform="matrix(1 0 0 1 2118.77 1225)">defect equations</text><text fill="#2F855A" fill-opacity="1" font-family="Aptos,Aptos_MSFontService,sans-serif" font-style="normal" font-variant="normal" font-weight="700" font-stretch="normal" font-size="64" text-anchor="start" direction="ltr" writing-mode="lr-tb" unicode-bidi="normal" text-decoration="none" transform="matrix(1 0 0 1 2127.23 1302)">path constraints</text><path d="M2919.5 864.907C2919.5 850.323 2931.32 838.5 2945.91 838.5L3514.09 838.5C3528.68 838.5 3540.5 850.323 3540.5 864.907L3540.5 1393.09C3540.5 1407.68 3528.68 1419.5 3514.09 1419.5L2945.91 1419.5C2931.32 1419.5 2919.5 1407.68 2919.5 1393.09Z" stroke="#7C3AED" stroke-width="9.16667" stroke-linecap="butt" stroke-linejoin="round" stroke-miterlimit="10" stroke-opacity="1" fill="#F6E8F5" fill-rule="evenodd" fill-opacity="1"/><text fill="#7C3AED" fill-opacity="1" font-family="Aptos,Aptos_MSFontService,sans-serif" font-style="normal" font-variant="normal" font-weight="700" font-stretch="normal" font-size="76" text-anchor="start" direction="ltr" writing-mode="lr-tb" unicode-bidi="normal" text-decoration="none" transform="matrix(1 0 0 1 3032.6 1108)">Sparse NLP</text><text fill="#7C3AED" fill-opacity="1" font-family="Aptos,Aptos_MSFontService,sans-serif" font-style="normal" font-variant="normal" font-weight="700" font-stretch="normal" font-size="76" text-anchor="start" direction="ltr" writing-mode="lr-tb" unicode-bidi="normal" text-decoration="none" transform="matrix(1 0 0 1 3123.99 1199)">solver</text><path d="M3650.5 864.906C3650.5 850.322 3662.32 838.5 3676.91 838.5L4228.09 838.5C4242.68 838.5 4254.5 850.322 4254.5 864.906L4254.5 1393.09C4254.5 1407.68 4242.68 1419.5 4228.09 1419.5L3676.91 1419.5C3662.32 1419.5 3650.5 1407.68 3650.5 1393.09Z" stroke="#2F855A" stroke-width="9.16667" stroke-linecap="butt" stroke-linejoin="round" stroke-miterlimit="10" stroke-opacity="1" fill="#F8FCFA" fill-rule="evenodd" fill-opacity="1"/><text fill="#2F855A" fill-opacity="1" font-family="Aptos,Aptos_MSFontService,sans-serif" font-style="normal" font-variant="normal" font-weight="700" font-stretch="normal" font-size="74" text-anchor="start" direction="ltr" writing-mode="lr-tb" unicode-bidi="normal" text-decoration="none" transform="matrix(1 0 0 1 3808.62 1109)">Discrete</text><text fill="#2F855A" fill-opacity="1" font-family="Aptos,Aptos_MSFontService,sans-serif" font-style="normal" font-variant="normal" font-weight="700" font-stretch="normal" font-size="74" text-anchor="start" direction="ltr" writing-mode="lr-tb" unicode-bidi="normal" text-decoration="none" transform="matrix(1 0 0 1 3813.46 1198)">solution</text><path d="M930.5 1124.92 978.583 1124.92 978.583 1134.08 930.5 1134.08ZM974 1115.75 1001.5 1129.5 974 1143.25Z" fill="#5B6775" fill-rule="nonzero" fill-opacity="1"/><path d="M1851.5 1124.92 1894.58 1124.92 1894.58 1134.08 1851.5 1134.08ZM1890 1115.75 1917.5 1129.5 1890 1143.25Z" fill="#5B6775" fill-rule="nonzero" fill-opacity="1"/><path d="M2816.5 1124.92 2877.58 1124.92 2877.58 1134.08 2816.5 1134.08ZM2873 1115.75 2900.5 1129.5 2873 1143.25Z" fill="#5B6775" fill-rule="nonzero" fill-opacity="1"/><path d="M3558.5 1124.92 3607.58 1124.92 3607.58 1134.08 3558.5 1134.08ZM3603 1115.75 3630.5 1129.5 3603 1143.25Z" fill="#5B6775" fill-rule="nonzero" fill-opacity="1"/><path d="M509 1559.5C509 1532.71 530.714 1511 557.5 1511L3842.5 1511C3869.29 1511 3891 1532.71 3891 1559.5L3891 1753.5C3891 1780.29 3869.29 1802 3842.5 1802L557.5 1802C530.714 1802 509 1780.29 509 1753.5Z" stroke="#2F855A" stroke-width="6.41667" stroke-linecap="butt" stroke-linejoin="round" stroke-miterlimit="10" stroke-opacity="1" fill="#FFFFFF" fill-rule="evenodd" fill-opacity="1"/><text fill="#2F855A" fill-opacity="1" font-family="Aptos,Aptos_MSFontService,sans-serif" font-style="normal" font-variant="normal" font-weight="400" font-stretch="normal" font-size="68" text-anchor="start" direction="ltr" writing-mode="lr-tb" unicode-bidi="normal" text-decoration="none" transform="matrix(1 0 0 1 1472.74 1638)">States and controls are optimized simultaneously.</text><text fill="#2F855A" fill-opacity="1" font-family="Aptos,Aptos_MSFontService,sans-serif" font-style="normal" font-variant="normal" font-weight="400" font-stretch="normal" font-size="68" text-anchor="start" direction="ltr" writing-mode="lr-tb" unicode-bidi="normal" text-decoration="none" transform="matrix(1 0 0 1 1180.19 1719)">Differential equations are enforced algebraically by defect constraints.</text></g></g></svg>