<svg width="3951" height="1641" xmlns="http://www.w3.org/2000/svg" xmlns:xlink="http://www.w3.org/1999/xlink" xml:space="preserve" overflow="hidden"><g transform="translate(-224 -206)"><g><path d="M576 248.502C576 227.79 592.79 211 613.501 211L3524.5 211C3545.21 211 3562 227.79 3562 248.502L3562 398.498C3562 419.21 3545.21 436 3524.5 436L613.501 436C592.79 436 576 419.21 576 398.498Z" stroke="#0B3A67" stroke-width="8.25" stroke-linecap="butt" stroke-linejoin="round" stroke-miterlimit="10" stroke-opacity="1" fill="#FFFFFF" fill-rule="evenodd" fill-opacity="1"/><text fill="#0B3A67" fill-opacity="1" font-family="Aptos Display,Aptos Display_MSFontService,sans-serif" font-style="normal" font-variant="normal" font-weight="700" font-stretch="normal" font-size="110" text-anchor="start" direction="ltr" writing-mode="lr-tb" unicode-bidi="normal" text-decoration="none" transform="matrix(1 0 0 1 1035.31 359)">Time discretization and computational mesh</text><path d="M231 551.598C231 529.729 248.729 512 270.598 512L1330.4 512C1352.27 512 1370 529.729 1370 551.598L1370 769.401C1370 791.271 1352.27 809 1330.4 809L270.598 809C248.729 809 231 791.271 231 769.401Z" stroke="#1F5E91" stroke-width="7.79167" stroke-linecap="butt" stroke-linejoin="round" stroke-miterlimit="10" stroke-opacity="1" fill="#EAF3FA" fill-rule="evenodd" fill-opacity="1"/><text fill="#1F5E91" fill-opacity="1" font-family="Aptos,Aptos_MSFontService,sans-serif" font-style="normal" font-variant="normal" font-weight="400" font-stretch="normal" font-size="76" text-anchor="start" direction="ltr" writing-mode="lr-tb" unicode-bidi="normal" text-decoration="none" transform="matrix(1 0 0 1 448.995 639)">Mesh may be uniform</text><text fill="#1F5E91" fill-opacity="1" font-family="Aptos,Aptos_MSFontService,sans-serif" font-style="normal" font-variant="normal" font-weight="400" font-stretch="normal" font-size="76" text-anchor="start" direction="ltr" writing-mode="lr-tb" unicode-bidi="normal" text-decoration="none" transform="matrix(1 0 0 1 368.672 730)">or deliberately nonuniform</text><path d="M1630 551.598C1630 529.729 1647.73 512 1669.6 512L2729.4 512C2751.27 512 2769 529.729 2769 551.598L2769 769.401C2769 791.271 2751.27 809 2729.4 809L1669.6 809C1647.73 809 1630 791.271 1630 769.401Z" stroke="#198754" stroke-width="7.79167" stroke-linecap="butt" stroke-linejoin="round" stroke-miterlimit="10" stroke-opacity="1" fill="#EAF7F0" fill-rule="evenodd" fill-opacity="1"/><text fill="#198754" fill-opacity="1" font-family="Aptos,Aptos_MSFontService,sans-serif" font-style="normal" font-variant="normal" font-weight="400" font-stretch="normal" font-size="76" text-anchor="start" direction="ltr" writing-mode="lr-tb" unicode-bidi="normal" text-decoration="none" transform="matrix(1 0 0 1 1771.79 639)">State and control samples</text><text fill="#198754" fill-opacity="1" font-family="Aptos,Aptos_MSFontService,sans-serif" font-style="normal" font-variant="normal" font-weight="400" font-stretch="normal" font-size="76" text-anchor="start" direction="ltr" writing-mode="lr-tb" unicode-bidi="normal" text-decoration="none" transform="matrix(1 0 0 1 1761.87 730)">become decision variables</text><path d="M3029 551.598C3029 529.729 3046.73 512 3068.6 512L4128.4 512C4150.27 512 4168 529.729 4168 551.598L4168 769.401C4168 791.271 4150.27 809 4128.4 809L3068.6 809C3046.73 809 3029 791.271 3029 769.401Z" stroke="#D97706" stroke-width="7.79167" stroke-linecap="butt" stroke-linejoin="round" stroke-miterlimit="10" stroke-opacity="1" fill="#FFF4DE" fill-rule="evenodd" fill-opacity="1"/><text fill="#D97706" fill-opacity="1" font-family="Aptos,Aptos_MSFontService,sans-serif" font-style="normal" font-variant="normal" font-weight="400" font-stretch="normal" font-size="76" text-anchor="start" direction="ltr" writing-mode="lr-tb" unicode-bidi="normal" text-decoration="none" transform="matrix(1 0 0 1 3189.15 639)">Local polynomial models</text><text fill="#D97706" fill-opacity="1" font-family="Aptos,Aptos_MSFontService,sans-serif" font-style="normal" font-variant="normal" font-weight="400" font-stretch="normal" font-size="76" text-anchor="start" direction="ltr" writing-mode="lr-tb" unicode-bidi="normal" text-decoration="none" transform="matrix(1 0 0 1 3154.64 730)">connect neighboring nodes</text><path d="M370 1251.19 4018.94 1251.19 4018.94 1260.81 370 1260.81ZM4014.12 1241.56 4043 1256 4014.12 1270.44Z" fill="#5F6B7A" fill-rule="nonzero" fill-opacity="1"/><path d="M540.917 1014.91 769.083 1014.91 769.083 1021.09 540.917 1021.09ZM545.5 1031.75 518 1018 545.5 1004.25ZM764.5 1004.25 792 1018 764.5 1031.75Z" fill="#D97706" fill-rule="nonzero" fill-opacity="1"/><text fill="#D97706" fill-opacity="1" font-family="Aptos,Aptos_MSFontService,sans-serif" font-style="normal" font-variant="normal" font-weight="700" font-stretch="normal" font-size="57" text-anchor="start" direction="ltr" writing-mode="lr-tb" unicode-bidi="normal" text-decoration="none" transform="matrix(1 0 0 1 626.69 966)">Δ₀</text><path d="M913.917 1014.91 1221.08 1014.91 1221.08 1021.09 913.917 1021.09ZM918.5 1031.75 891 1018 918.5 1004.25ZM1216.5 1004.25 1244 1018 1216.5 1031.75Z" fill="#D97706" fill-rule="nonzero" fill-opacity="1"/><text fill="#D97706" fill-opacity="1" font-family="Aptos,Aptos_MSFontService,sans-serif" font-style="normal" font-variant="normal" font-weight="700" font-stretch="normal" font-size="57" text-anchor="start" direction="ltr" writing-mode="lr-tb" unicode-bidi="normal" text-decoration="none" transform="matrix(1 0 0 1 1039.19 966)">Δ₁</text><path d="M1365.92 1014.91 1782.08 1014.91 1782.08 1021.09 1365.92 1021.09ZM1370.5 1031.75 1343 1018 1370.5 1004.25ZM1777.5 1004.25 1805 1018 1777.5 1031.75Z" fill="#D97706" fill-rule="nonzero" fill-opacity="1"/><text fill="#D97706" fill-opacity="1" font-family="Aptos,Aptos_MSFontService,sans-serif" font-style="normal" font-variant="normal" font-weight="700" font-stretch="normal" font-size="57" text-anchor="start" direction="ltr" writing-mode="lr-tb" unicode-bidi="normal" text-decoration="none" transform="matrix(1 0 0 1 1545.74 966)">Δ₂</text><path d="M1926.92 1014.91 2155.08 1014.91 2155.08 1021.09 1926.92 1021.09ZM1931.5 1031.75 1904 1018 1931.5 1004.25ZM2150.5 1004.25 2178 1018 2150.5 1031.75Z" fill="#D97706" fill-rule="nonzero" fill-opacity="1"/><text fill="#D97706" fill-opacity="1" font-family="Aptos,Aptos_MSFontService,sans-serif" font-style="normal" font-variant="normal" font-weight="700" font-stretch="normal" font-size="57" text-anchor="start" direction="ltr" writing-mode="lr-tb" unicode-bidi="normal" text-decoration="none" transform="matrix(1 0 0 1 2012.69 966)">Δ₃</text><path d="M2299.92 1014.91 3046.08 1014.91 3046.08 1021.09 2299.92 1021.09ZM2304.5 1031.75 2277 1018 2304.5 1004.25ZM3041.5 1004.25 3069 1018 3041.5 1031.75Z" fill="#D97706" fill-rule="nonzero" fill-opacity="1"/><text fill="#D97706" fill-opacity="1" font-family="Aptos,Aptos_MSFontService,sans-serif" font-style="normal" font-variant="normal" font-weight="700" font-stretch="normal" font-size="57" text-anchor="start" direction="ltr" writing-mode="lr-tb" unicode-bidi="normal" text-decoration="none" transform="matrix(1 0 0 1 2644.64 966)">Δ₄</text><path d="M3190.92 1014.91 3871.08 1014.91 3871.08 1021.09 3190.92 1021.09ZM3195.5 1031.75 3168 1018 3195.5 1004.25ZM3866.5 1004.25 3894 1018 3866.5 1031.75Z" fill="#D97706" fill-rule="nonzero" fill-opacity="1"/><text fill="#D97706" fill-opacity="1" font-family="Aptos,Aptos_MSFontService,sans-serif" font-style="normal" font-variant="normal" font-weight="700" font-stretch="normal" font-size="57" text-anchor="start" direction="ltr" writing-mode="lr-tb" unicode-bidi="normal" text-decoration="none" transform="matrix(1 0 0 1 3502.64 966)">Δ₅</text><path d="M469 1157 469 1355" stroke="#0B3A67" stroke-width="6.1875" stroke-linecap="butt" stroke-linejoin="round" stroke-miterlimit="10" stroke-opacity="1" fill="none" fill-rule="evenodd"/><path d="M436.5 1256.5C436.5 1238.27 451.275 1223.5 469.5 1223.5 487.725 1223.5 502.5 1238.27 502.5 1256.5 502.5 1274.73 487.725 1289.5 469.5 1289.5 451.275 1289.5 436.5 1274.73 436.5 1256.5Z" stroke="#0B3A67" stroke-width="7.10417" stroke-linecap="butt" stroke-linejoin="round" stroke-miterlimit="10" stroke-opacity="1" fill="#FFFFFF" fill-rule="evenodd" fill-opacity="1"/><text fill="#0B3A67" fill-opacity="1" font-family="Aptos,Aptos_MSFontService,sans-serif" font-style="italic" font-variant="normal" font-weight="400" font-stretch="normal" font-size="57" text-anchor="start" direction="ltr" writing-mode="lr-tb" unicode-bidi="normal" text-decoration="none" transform="matrix(1 0 0 1 449.98 1468)">t₀</text><path d="M842 1157 842 1355" stroke="#0B3A67" stroke-width="6.1875" stroke-linecap="butt" stroke-linejoin="round" stroke-miterlimit="10" stroke-opacity="1" fill="none" fill-rule="evenodd"/><path d="M809.5 1256.5C809.5 1238.27 824.275 1223.5 842.5 1223.5 860.725 1223.5 875.5 1238.27 875.5 1256.5 875.5 1274.73 860.725 1289.5 842.5 1289.5 824.275 1289.5 809.5 1274.73 809.5 1256.5Z" stroke="#0B3A67" stroke-width="7.10417" stroke-linecap="butt" stroke-linejoin="round" stroke-miterlimit="10" stroke-opacity="1" fill="#FFFFFF" fill-rule="evenodd" fill-opacity="1"/><text fill="#0B3A67" fill-opacity="1" font-family="Aptos,Aptos_MSFontService,sans-serif" font-style="italic" font-variant="normal" font-weight="400" font-stretch="normal" font-size="57" text-anchor="start" direction="ltr" writing-mode="lr-tb" unicode-bidi="normal" text-decoration="none" transform="matrix(1 0 0 1 822.88 1468)">t₁</text><path d="M1294 1157 1294 1355" stroke="#0B3A67" stroke-width="6.1875" stroke-linecap="butt" stroke-linejoin="round" stroke-miterlimit="10" stroke-opacity="1" fill="none" fill-rule="evenodd"/><path d="M1261.5 1256.5C1261.5 1238.27 1276.27 1223.5 1294.5 1223.5 1312.73 1223.5 1327.5 1238.27 1327.5 1256.5 1327.5 1274.73 1312.73 1289.5 1294.5 1289.5 1276.27 1289.5 1261.5 1274.73 1261.5 1256.5Z" stroke="#0B3A67" stroke-width="7.10417" stroke-linecap="butt" stroke-linejoin="round" stroke-miterlimit="10" stroke-opacity="1" fill="#FFFFFF" fill-rule="evenodd" fill-opacity="1"/><text fill="#0B3A67" fill-opacity="1" font-family="Aptos,Aptos_MSFontService,sans-serif" font-style="italic" font-variant="normal" font-weight="400" font-stretch="normal" font-size="57" text-anchor="start" direction="ltr" writing-mode="lr-tb" unicode-bidi="normal" text-decoration="none" transform="matrix(1 0 0 1 1274.98 1468)">t₂</text><path d="M1855 1157 1855 1355" stroke="#0B3A67" stroke-width="6.1875" stroke-linecap="butt" stroke-linejoin="round" stroke-miterlimit="10" stroke-opacity="1" fill="none" fill-rule="evenodd"/><path d="M1822.5 1256.5C1822.5 1238.27 1837.27 1223.5 1855.5 1223.5 1873.73 1223.5 1888.5 1238.27 1888.5 1256.5 1888.5 1274.73 1873.73 1289.5 1855.5 1289.5 1837.27 1289.5 1822.5 1274.73 1822.5 1256.5Z" stroke="#0B3A67" stroke-width="7.10417" stroke-linecap="butt" stroke-linejoin="round" stroke-miterlimit="10" stroke-opacity="1" fill="#FFFFFF" fill-rule="evenodd" fill-opacity="1"/><text fill="#0B3A67" fill-opacity="1" font-family="Aptos,Aptos_MSFontService,sans-serif" font-style="italic" font-variant="normal" font-weight="400" font-stretch="normal" font-size="57" text-anchor="start" direction="ltr" writing-mode="lr-tb" unicode-bidi="normal" text-decoration="none" transform="matrix(1 0 0 1 1835.98 1468)">t₃</text><path d="M2228 1157 2228 1355" stroke="#0B3A67" stroke-width="6.1875" stroke-linecap="butt" stroke-linejoin="round" stroke-miterlimit="10" stroke-opacity="1" fill="none" fill-rule="evenodd"/><path d="M2195.5 1256.5C2195.5 1238.27 2210.27 1223.5 2228.5 1223.5 2246.73 1223.5 2261.5 1238.27 2261.5 1256.5 2261.5 1274.73 2246.73 1289.5 2228.5 1289.5 2210.27 1289.5 2195.5 1274.73 2195.5 1256.5Z" stroke="#0B3A67" stroke-width="7.10417" stroke-linecap="butt" stroke-linejoin="round" stroke-miterlimit="10" stroke-opacity="1" fill="#FFFFFF" fill-rule="evenodd" fill-opacity="1"/><text fill="#0B3A67" fill-opacity="1" font-family="Aptos,Aptos_MSFontService,sans-serif" font-style="italic" font-variant="normal" font-weight="400" font-stretch="normal" font-size="57" text-anchor="start" direction="ltr" writing-mode="lr-tb" unicode-bidi="normal" text-decoration="none" transform="matrix(1 0 0 1 2208.88 1468)">t₄</text><path d="M3119 1157 3119 1355" stroke="#0B3A67" stroke-width="6.1875" stroke-linecap="butt" stroke-linejoin="round" stroke-miterlimit="10" stroke-opacity="1" fill="none" fill-rule="evenodd"/><path d="M3086.5 1256.5C3086.5 1238.27 3101.27 1223.5 3119.5 1223.5 3137.73 1223.5 3152.5 1238.27 3152.5 1256.5 3152.5 1274.73 3137.73 1289.5 3119.5 1289.5 3101.27 1289.5 3086.5 1274.73 3086.5 1256.5Z" stroke="#0B3A67" stroke-width="7.10417" stroke-linecap="butt" stroke-linejoin="round" stroke-miterlimit="10" stroke-opacity="1" fill="#FFFFFF" fill-rule="evenodd" fill-opacity="1"/><text fill="#0B3A67" fill-opacity="1" font-family="Aptos,Aptos_MSFontService,sans-serif" font-style="italic" font-variant="normal" font-weight="400" font-stretch="normal" font-size="57" text-anchor="start" direction="ltr" writing-mode="lr-tb" unicode-bidi="normal" text-decoration="none" transform="matrix(1 0 0 1 3099.88 1468)">t₅</text><path d="M3944 1157 3944 1355" stroke="#0B3A67" stroke-width="6.1875" stroke-linecap="butt" stroke-linejoin="round" stroke-miterlimit="10" stroke-opacity="1" fill="none" fill-rule="evenodd"/><path d="M3911.5 1256.5C3911.5 1238.27 3926.27 1223.5 3944.5 1223.5 3962.73 1223.5 3977.5 1238.27 3977.5 1256.5 3977.5 1274.73 3962.73 1289.5 3944.5 1289.5 3926.27 1289.5 3911.5 1274.73 3911.5 1256.5Z" stroke="#0B3A67" stroke-width="7.10417" stroke-linecap="butt" stroke-linejoin="round" stroke-miterlimit="10" stroke-opacity="1" fill="#FFFFFF" fill-rule="evenodd" fill-opacity="1"/><text fill="#0B3A67" fill-opacity="1" font-family="Aptos,Aptos_MSFontService,sans-serif" font-style="italic" font-variant="normal" font-weight="400" font-stretch="normal" font-size="57" text-anchor="start" direction="ltr" writing-mode="lr-tb" unicode-bidi="normal" text-decoration="none" transform="matrix(1 0 0 1 3924.88 1468)">t₆</text><path d="M551 1583.17C551 1554.36 574.356 1531 603.167 1531L3798.83 1531C3827.64 1531 3851 1554.36 3851 1583.17L3851 1791.83C3851 1820.64 3827.64 1844 3798.83 1844L603.167 1844C574.356 1844 551 1820.64 551 1791.83Z" stroke="#C9344A" stroke-width="6.1875" stroke-linecap="butt" stroke-linejoin="round" stroke-miterlimit="10" stroke-opacity="1" fill="#FFF1F3" fill-rule="evenodd" fill-opacity="1"/><text fill="#C9344A" fill-opacity="1" font-family="Aptos,Aptos_MSFontService,sans-serif" font-style="normal" font-variant="normal" font-weight="400" font-stretch="normal" font-size="69" text-anchor="start" direction="ltr" writing-mode="lr-tb" unicode-bidi="normal" text-decoration="none" transform="matrix(1 0 0 1 1307.68 1668)">A finer mesh usually improves accuracy, but it also increases</text><text fill="#C9344A" fill-opacity="1" font-family="Aptos,Aptos_MSFontService,sans-serif" font-style="normal" font-variant="normal" font-weight="400" font-stretch="normal" font-size="69" text-anchor="start" direction="ltr" writing-mode="lr-tb" unicode-bidi="normal" text-decoration="none" transform="matrix(1 0 0 1 1328.17 1751)">the number of variables, constraints, and derivative entries.</text></g></g></svg>