<svg width="3850" height="1984" xmlns="http://www.w3.org/2000/svg" xmlns:xlink="http://www.w3.org/1999/xlink" xml:space="preserve" overflow="hidden"><g transform="translate(-275 -119)"><g><path d="M818.5 150.822C818.5 136.285 830.285 124.5 844.822 124.5L3185.18 124.5C3199.72 124.5 3211.5 136.285 3211.5 150.822L3211.5 302.178C3211.5 316.715 3199.72 328.5 3185.18 328.5L844.822 328.5C830.285 328.5 818.5 316.715 818.5 302.178Z" stroke="#123D63" stroke-width="9.16667" stroke-linecap="butt" stroke-linejoin="round" stroke-miterlimit="10" stroke-opacity="1" fill="#FFFFFF" fill-rule="evenodd" fill-opacity="1"/><text fill="#123D63" fill-opacity="1" font-family="Aptos Display,Aptos Display_MSFontService,sans-serif" font-style="normal" font-variant="normal" font-weight="700" font-stretch="normal" font-size="92" text-anchor="start" direction="ltr" writing-mode="lr-tb" unicode-bidi="normal" text-decoration="none" transform="matrix(1 0 0 1 1019.14 253)">Numerical implementation workflow for CCD</text><path d="M1221.5 691.917 1680.58 691.917 1680.58 701.084 1221.5 701.083ZM1676 682.75 1703.5 696.5 1676 710.25Z" fill="#56616F" fill-rule="nonzero" fill-opacity="1"/><path d="M2686.5 691.917 3145.58 691.917 3145.58 701.084 2686.5 701.083ZM3141 682.75 3168.5 696.5 3141 710.25Z" fill="#56616F" fill-rule="nonzero" fill-opacity="1"/><path d="M3670.08 881.5 3670.08 941.583 3660.92 941.583 3660.92 881.5ZM3679.25 937 3665.5 964.5 3651.75 937Z" fill="#56616F" fill-rule="nonzero" fill-opacity="1"/><path d="M739.083 1343.5 739.084 1403.58 729.917 1403.58 729.917 1343.5ZM748.25 1399 734.5 1426.5 720.75 1399Z" fill="#56616F" fill-rule="nonzero" fill-opacity="1"/><path d="M1221.5 1615.92 1680.58 1615.92 1680.58 1625.08 1221.5 1625.08ZM1676 1606.75 1703.5 1620.5 1676 1634.25Z" fill="#56616F" fill-rule="nonzero" fill-opacity="1"/><path d="M2686.5 1615.92 3145.58 1615.92 3145.58 1625.08 2686.5 1625.08ZM3141 1606.75 3168.5 1620.5 3141 1634.25Z" fill="#56616F" fill-rule="nonzero" fill-opacity="1"/><path d="M281.5 571.849C281.5 557.297 293.297 545.5 307.849 545.5L1162.15 545.5C1176.7 545.5 1188.5 557.297 1188.5 571.849L1188.5 822.151C1188.5 836.703 1176.7 848.5 1162.15 848.5L307.849 848.5C293.297 848.5 281.5 836.703 281.5 822.151Z" stroke="#123D63" stroke-width="9.16667" stroke-linecap="butt" stroke-linejoin="round" stroke-miterlimit="10" stroke-opacity="1" fill="#EAF4FB" fill-rule="evenodd" fill-opacity="1"/><text fill="#123D63" fill-opacity="1" font-family="Aptos,Aptos_MSFontService,sans-serif" font-style="normal" font-variant="normal" font-weight="700" font-stretch="normal" font-size="69" text-anchor="start" direction="ltr" writing-mode="lr-tb" unicode-bidi="normal" text-decoration="none" transform="matrix(1 0 0 1 537.247 636)">1. Formulate</text><text fill="#123D63" fill-opacity="1" font-family="Aptos,Aptos_MSFontService,sans-serif" font-style="normal" font-variant="normal" font-weight="700" font-stretch="normal" font-size="69" text-anchor="start" direction="ltr" writing-mode="lr-tb" unicode-bidi="normal" text-decoration="none" transform="matrix(1 0 0 1 556.932 719)">continuous</text><text fill="#123D63" fill-opacity="1" font-family="Aptos,Aptos_MSFontService,sans-serif" font-style="normal" font-variant="normal" font-weight="700" font-stretch="normal" font-size="69" text-anchor="start" direction="ltr" writing-mode="lr-tb" unicode-bidi="normal" text-decoration="none" transform="matrix(1 0 0 1 602.009 801)">problem</text><path d="M1746.5 571.849C1746.5 557.297 1758.3 545.5 1772.85 545.5L2627.15 545.5C2641.7 545.5 2653.5 557.297 2653.5 571.849L2653.5 822.151C2653.5 836.703 2641.7 848.5 2627.15 848.5L1772.85 848.5C1758.3 848.5 1746.5 836.703 1746.5 822.151Z" stroke="#D97900" stroke-width="9.16667" stroke-linecap="butt" stroke-linejoin="round" stroke-miterlimit="10" stroke-opacity="1" fill="#FFF6D9" fill-rule="evenodd" fill-opacity="1"/><text fill="#D97900" fill-opacity="1" font-family="Aptos,Aptos_MSFontService,sans-serif" font-style="normal" font-variant="normal" font-weight="700" font-stretch="normal" font-size="69" text-anchor="start" direction="ltr" writing-mode="lr-tb" unicode-bidi="normal" text-decoration="none" transform="matrix(1 0 0 1 2010.67 636)">2. Scale and</text><text fill="#D97900" fill-opacity="1" font-family="Aptos,Aptos_MSFontService,sans-serif" font-style="normal" font-variant="normal" font-weight="700" font-stretch="normal" font-size="69" text-anchor="start" direction="ltr" writing-mode="lr-tb" unicode-bidi="normal" text-decoration="none" transform="matrix(1 0 0 1 2084.28 719)">choose</text><text fill="#D97900" fill-opacity="1" font-family="Aptos,Aptos_MSFontService,sans-serif" font-style="normal" font-variant="normal" font-weight="700" font-stretch="normal" font-size="69" text-anchor="start" direction="ltr" writing-mode="lr-tb" unicode-bidi="normal" text-decoration="none" transform="matrix(1 0 0 1 2056 801)">variables</text><path d="M3211.5 571.849C3211.5 557.297 3223.3 545.5 3237.85 545.5L4092.15 545.5C4106.7 545.5 4118.5 557.297 4118.5 571.849L4118.5 822.151C4118.5 836.703 4106.7 848.5 4092.15 848.5L3237.85 848.5C3223.3 848.5 3211.5 836.703 3211.5 822.151Z" stroke="#2E8B62" stroke-width="9.16667" stroke-linecap="butt" stroke-linejoin="round" stroke-miterlimit="10" stroke-opacity="1" fill="#EAF7EF" fill-rule="evenodd" fill-opacity="1"/><text fill="#2E8B62" fill-opacity="1" font-family="Aptos,Aptos_MSFontService,sans-serif" font-style="normal" font-variant="normal" font-weight="700" font-stretch="normal" font-size="69" text-anchor="start" direction="ltr" writing-mode="lr-tb" unicode-bidi="normal" text-decoration="none" transform="matrix(1 0 0 1 3399.96 636)">3. Select method</text><text fill="#2E8B62" fill-opacity="1" font-family="Aptos,Aptos_MSFontService,sans-serif" font-style="normal" font-variant="normal" font-weight="700" font-stretch="normal" font-size="69" text-anchor="start" direction="ltr" writing-mode="lr-tb" unicode-bidi="normal" text-decoration="none" transform="matrix(1 0 0 1 3510.26 719)">and initial</text><text fill="#2E8B62" fill-opacity="1" font-family="Aptos,Aptos_MSFontService,sans-serif" font-style="normal" font-variant="normal" font-weight="700" font-stretch="normal" font-size="69" text-anchor="start" direction="ltr" writing-mode="lr-tb" unicode-bidi="normal" text-decoration="none" transform="matrix(1 0 0 1 3577.29 801)">mesh</text><path d="M3211.5 1033.85C3211.5 1019.3 3223.3 1007.5 3237.85 1007.5L4092.15 1007.5C4106.7 1007.5 4118.5 1019.3 4118.5 1033.85L4118.5 1284.15C4118.5 1298.7 4106.7 1310.5 4092.15 1310.5L3237.85 1310.5C3223.3 1310.5 3211.5 1298.7 3211.5 1284.15Z" stroke="#7E3FE6" stroke-width="9.16667" stroke-linecap="butt" stroke-linejoin="round" stroke-miterlimit="10" stroke-opacity="1" fill="#F7E8F7" fill-rule="evenodd" fill-opacity="1"/><text fill="#7E3FE6" fill-opacity="1" font-family="Aptos,Aptos_MSFontService,sans-serif" font-style="normal" font-variant="normal" font-weight="700" font-stretch="normal" font-size="69" text-anchor="start" direction="ltr" writing-mode="lr-tb" unicode-bidi="normal" text-decoration="none" transform="matrix(1 0 0 1 3472.63 1098)">4. Assemble</text><text fill="#7E3FE6" fill-opacity="1" font-family="Aptos,Aptos_MSFontService,sans-serif" font-style="normal" font-variant="normal" font-weight="700" font-stretch="normal" font-size="69" text-anchor="start" direction="ltr" writing-mode="lr-tb" unicode-bidi="normal" text-decoration="none" transform="matrix(1 0 0 1 3422.92 1181)">sparse NLP and</text><text fill="#7E3FE6" fill-opacity="1" font-family="Aptos,Aptos_MSFontService,sans-serif" font-style="normal" font-variant="normal" font-weight="700" font-stretch="normal" font-size="69" text-anchor="start" direction="ltr" writing-mode="lr-tb" unicode-bidi="normal" text-decoration="none" transform="matrix(1 0 0 1 3493.42 1263)">derivatives</text><path d="M1746.5 1033.85C1746.5 1019.3 1758.3 1007.5 1772.85 1007.5L2627.15 1007.5C2641.7 1007.5 2653.5 1019.3 2653.5 1033.85L2653.5 1284.15C2653.5 1298.7 2641.7 1310.5 2627.15 1310.5L1772.85 1310.5C1758.3 1310.5 1746.5 1298.7 1746.5 1284.15Z" stroke="#5B6470" stroke-width="9.16667" stroke-linecap="butt" stroke-linejoin="round" stroke-miterlimit="10" stroke-opacity="1" fill="#F1F1F1" fill-rule="evenodd" fill-opacity="1"/><text fill="#5B6470" fill-opacity="1" font-family="Aptos,Aptos_MSFontService,sans-serif" font-style="normal" font-variant="normal" font-weight="700" font-stretch="normal" font-size="69" text-anchor="start" direction="ltr" writing-mode="lr-tb" unicode-bidi="normal" text-decoration="none" transform="matrix(1 0 0 1 2011.87 1139)">5. Solve and</text><text fill="#5B6470" fill-opacity="1" font-family="Aptos,Aptos_MSFontService,sans-serif" font-style="normal" font-variant="normal" font-weight="700" font-stretch="normal" font-size="69" text-anchor="start" direction="ltr" writing-mode="lr-tb" unicode-bidi="normal" text-decoration="none" transform="matrix(1 0 0 1 2057.35 1222)">diagnose</text><path d="M281.5 1033.85C281.5 1019.3 293.297 1007.5 307.849 1007.5L1162.15 1007.5C1176.7 1007.5 1188.5 1019.3 1188.5 1033.85L1188.5 1284.15C1188.5 1298.7 1176.7 1310.5 1162.15 1310.5L307.849 1310.5C293.297 1310.5 281.5 1298.7 281.5 1284.15Z" stroke="#123D63" stroke-width="9.16667" stroke-linecap="butt" stroke-linejoin="round" stroke-miterlimit="10" stroke-opacity="1" fill="#EAF4FB" fill-rule="evenodd" fill-opacity="1"/><text fill="#123D63" fill-opacity="1" font-family="Aptos,Aptos_MSFontService,sans-serif" font-style="normal" font-variant="normal" font-weight="700" font-stretch="normal" font-size="69" text-anchor="start" direction="ltr" writing-mode="lr-tb" unicode-bidi="normal" text-decoration="none" transform="matrix(1 0 0 1 503.937 1139)">6. Refine mesh</text><text fill="#123D63" fill-opacity="1" font-family="Aptos,Aptos_MSFontService,sans-serif" font-style="normal" font-variant="normal" font-weight="700" font-stretch="normal" font-size="69" text-anchor="start" direction="ltr" writing-mode="lr-tb" unicode-bidi="normal" text-decoration="none" transform="matrix(1 0 0 1 500.34 1222)">and warm start</text><path d="M281.5 1495.85C281.5 1481.3 293.297 1469.5 307.849 1469.5L1162.15 1469.5C1176.7 1469.5 1188.5 1481.3 1188.5 1495.85L1188.5 1746.15C1188.5 1760.7 1176.7 1772.5 1162.15 1772.5L307.849 1772.5C293.297 1772.5 281.5 1760.7 281.5 1746.15Z" stroke="#D97900" stroke-width="9.16667" stroke-linecap="butt" stroke-linejoin="round" stroke-miterlimit="10" stroke-opacity="1" fill="#FFF6D9" fill-rule="evenodd" fill-opacity="1"/><text fill="#D97900" fill-opacity="1" font-family="Aptos,Aptos_MSFontService,sans-serif" font-style="normal" font-variant="normal" font-weight="700" font-stretch="normal" font-size="69" text-anchor="start" direction="ltr" writing-mode="lr-tb" unicode-bidi="normal" text-decoration="none" transform="matrix(1 0 0 1 535.116 1560)">7. Verify with</text><text fill="#D97900" fill-opacity="1" font-family="Aptos,Aptos_MSFontService,sans-serif" font-style="normal" font-variant="normal" font-weight="700" font-stretch="normal" font-size="69" text-anchor="start" direction="ltr" writing-mode="lr-tb" unicode-bidi="normal" text-decoration="none" transform="matrix(1 0 0 1 535.734 1643)">independent</text><text fill="#D97900" fill-opacity="1" font-family="Aptos,Aptos_MSFontService,sans-serif" font-style="normal" font-variant="normal" font-weight="700" font-stretch="normal" font-size="69" text-anchor="start" direction="ltr" writing-mode="lr-tb" unicode-bidi="normal" text-decoration="none" transform="matrix(1 0 0 1 566.603 1725)">simulation</text><path d="M1746.5 1495.85C1746.5 1481.3 1758.3 1469.5 1772.85 1469.5L2627.15 1469.5C2641.7 1469.5 2653.5 1481.3 2653.5 1495.85L2653.5 1746.15C2653.5 1760.7 2641.7 1772.5 2627.15 1772.5L1772.85 1772.5C1758.3 1772.5 1746.5 1760.7 1746.5 1746.15Z" stroke="#2E8B62" stroke-width="9.16667" stroke-linecap="butt" stroke-linejoin="round" stroke-miterlimit="10" stroke-opacity="1" fill="#EAF7EF" fill-rule="evenodd" fill-opacity="1"/><text fill="#2E8B62" fill-opacity="1" font-family="Aptos,Aptos_MSFontService,sans-serif" font-style="normal" font-variant="normal" font-weight="700" font-stretch="normal" font-size="69" text-anchor="start" direction="ltr" writing-mode="lr-tb" unicode-bidi="normal" text-decoration="none" transform="matrix(1 0 0 1 1961.29 1601)">8. Test multiple</text><text fill="#2E8B62" fill-opacity="1" font-family="Aptos,Aptos_MSFontService,sans-serif" font-style="normal" font-variant="normal" font-weight="700" font-stretch="normal" font-size="69" text-anchor="start" direction="ltr" writing-mode="lr-tb" unicode-bidi="normal" text-decoration="none" transform="matrix(1 0 0 1 1974.58 1684)">initial guesses</text><path d="M3211.5 1495.85C3211.5 1481.3 3223.3 1469.5 3237.85 1469.5L4092.15 1469.5C4106.7 1469.5 4118.5 1481.3 4118.5 1495.85L4118.5 1746.15C4118.5 1760.7 4106.7 1772.5 4092.15 1772.5L3237.85 1772.5C3223.3 1772.5 3211.5 1760.7 3211.5 1746.15Z" stroke="#7E3FE6" stroke-width="9.16667" stroke-linecap="butt" stroke-linejoin="round" stroke-miterlimit="10" stroke-opacity="1" fill="#F7E8F7" fill-rule="evenodd" fill-opacity="1"/><text fill="#7E3FE6" fill-opacity="1" font-family="Aptos,Aptos_MSFontService,sans-serif" font-style="normal" font-variant="normal" font-weight="700" font-stretch="normal" font-size="69" text-anchor="start" direction="ltr" writing-mode="lr-tb" unicode-bidi="normal" text-decoration="none" transform="matrix(1 0 0 1 3523.43 1601)">9. Report</text><text fill="#7E3FE6" fill-opacity="1" font-family="Aptos,Aptos_MSFontService,sans-serif" font-style="normal" font-variant="normal" font-weight="700" font-stretch="normal" font-size="69" text-anchor="start" direction="ltr" writing-mode="lr-tb" unicode-bidi="normal" text-decoration="none" transform="matrix(1 0 0 1 3522.39 1684)">evidence</text><text fill="#79828E" fill-opacity="1" font-family="Aptos,Aptos_MSFontService,sans-serif" font-style="normal" font-variant="normal" font-weight="400" font-stretch="normal" font-size="48" text-anchor="start" direction="ltr" writing-mode="lr-tb" unicode-bidi="normal" text-decoration="none" transform="matrix(1 0 0 1 2047.63 479)">Problem setup</text><text fill="#79828E" fill-opacity="1" font-family="Aptos,Aptos_MSFontService,sans-serif" font-style="normal" font-variant="normal" font-weight="400" font-stretch="normal" font-size="48" text-anchor="start" direction="ltr" writing-mode="lr-tb" unicode-bidi="normal" text-decoration="none" transform="matrix(1 0 0 1 1842.81 954)">Numerical solve and improvement</text><text fill="#79828E" fill-opacity="1" font-family="Aptos,Aptos_MSFontService,sans-serif" font-style="normal" font-variant="normal" font-weight="400" font-stretch="normal" font-size="48" text-anchor="start" direction="ltr" writing-mode="lr-tb" unicode-bidi="normal" text-decoration="none" transform="matrix(1 0 0 1 1937.91 1416)">Verification and reporting</text><path d="M575.5 1901.62C575.5 1888.85 585.851 1878.5 598.62 1878.5L3802.38 1878.5C3815.15 1878.5 3825.5 1888.85 3825.5 1901.62L3825.5 2073.38C3825.5 2086.15 3815.15 2096.5 3802.38 2096.5L598.62 2096.5C585.851 2096.5 575.5 2086.15 575.5 2073.38Z" stroke="#C6384A" stroke-width="6.875" stroke-linecap="butt" stroke-linejoin="round" stroke-miterlimit="10" stroke-opacity="1" fill="#FFF8F8" fill-rule="evenodd" fill-opacity="1"/><text fill="#C6384A" fill-opacity="1" font-family="Aptos,Aptos_MSFontService,sans-serif" font-style="normal" font-variant="normal" font-weight="400" font-stretch="normal" font-size="65" text-anchor="start" direction="ltr" writing-mode="lr-tb" unicode-bidi="normal" text-decoration="none" transform="matrix(1 0 0 1 1369.87 1973)">A solver termination message is only one piece of evidence.</text><text fill="#C6384A" fill-opacity="1" font-family="Aptos,Aptos_MSFontService,sans-serif" font-style="normal" font-variant="normal" font-weight="400" font-stretch="normal" font-size="65" text-anchor="start" direction="ltr" writing-mode="lr-tb" unicode-bidi="normal" text-decoration="none" transform="matrix(1 0 0 1 1519.12 2043)">Trustworthy CCD requires numerical verification.</text><path d="M3.43172e-06-4.58333 459.083-4.58299 459.083 4.58368-3.43172e-06 4.58333ZM454.5-13.7497 482 0.000360892 454.5 13.7503Z" fill="#56616F" fill-rule="nonzero" fill-opacity="1" transform="matrix(-1 0 0 1 3172.5 1155.5)"/><path d="M3.43172e-06-4.58333 459.084-4.58299 459.084 4.58368-3.43172e-06 4.58333ZM454.5-13.7497 482 0.000360892 454.5 13.7503Z" fill="#56616F" fill-rule="nonzero" fill-opacity="1" transform="matrix(-1 0 0 1 1703.5 1165.5)"/></g></g></svg>