<svg width="3900" height="1499" xmlns="http://www.w3.org/2000/svg" xmlns:xlink="http://www.w3.org/1999/xlink" xml:space="preserve" overflow="hidden"><g transform="translate(-220 -238)"><g><path d="M1063 902.958 1294.79 902.958 1294.79 913.042 1063 913.042ZM1289.75 892.875 1320 908 1289.75 923.125Z" fill="#5A6675" fill-rule="nonzero" fill-opacity="1"/><path d="M2000 902.958 2231.79 902.958 2231.79 913.042 2000 913.042ZM2226.75 892.875 2257 908 2226.75 923.125Z" fill="#5A6675" fill-rule="nonzero" fill-opacity="1"/><path d="M2944 902.958 3175.79 902.958 3175.79 913.042 2944 913.042ZM3170.75 892.875 3201 908 3170.75 923.125Z" fill="#5A6675" fill-rule="nonzero" fill-opacity="1"/><path d="M1370.5 276.5C1370.5 258.275 1385.27 243.5 1403.5 243.5L2996.5 243.5C3014.73 243.5 3029.5 258.275 3029.5 276.5L3029.5 441.499C3029.5 459.725 3014.73 474.5 2996.5 474.5L1403.5 474.5C1385.27 474.5 1370.5 459.725 1370.5 441.499Z" stroke="#D97706" stroke-width="9.16667" stroke-linecap="butt" stroke-linejoin="round" stroke-miterlimit="10" stroke-opacity="1" fill="#FFFFFF" fill-rule="evenodd" fill-opacity="1"/><text fill="#D97706" fill-opacity="1" font-family="Arial,Arial_MSFontService,sans-serif" font-style="normal" font-variant="normal" font-weight="700" font-stretch="normal" font-size="119" text-anchor="start" direction="ltr" writing-mode="lr-tb" unicode-bidi="normal" text-decoration="none" transform="matrix(1 0 0 1 1762.31 403)">Direct shooting</text><text fill="#5A6675" fill-opacity="1" font-family="Arial,Arial_MSFontService,sans-serif" font-style="normal" font-variant="normal" font-weight="400" font-stretch="normal" font-size="64" text-anchor="start" direction="ltr" writing-mode="lr-tb" unicode-bidi="normal" text-decoration="none" transform="matrix(1 0 0 1 1536.34 582)">A simulation</text><text fill="#5A6675" fill-opacity="1" font-family="Arial,Arial_MSFontService,sans-serif" font-style="normal" font-variant="normal" font-weight="400" font-stretch="normal" font-size="64" text-anchor="start" direction="ltr" writing-mode="lr-tb" unicode-bidi="normal" text-decoration="none" transform="matrix(1 0 0 1 1881.72 582)">-</text><text fill="#5A6675" fill-opacity="1" font-family="Arial,Arial_MSFontService,sans-serif" font-style="normal" font-variant="normal" font-weight="400" font-stretch="normal" font-size="64" text-anchor="start" direction="ltr" writing-mode="lr-tb" unicode-bidi="normal" text-decoration="none" transform="matrix(1 0 0 1 1902.92 582)">based optimal control architecture</text><path d="M224.5 700.444C224.5 682.249 239.249 667.5 257.443 667.5L1030.56 667.5C1048.75 667.5 1063.5 682.249 1063.5 700.444L1063.5 1115.56C1063.5 1133.75 1048.75 1148.5 1030.56 1148.5L257.443 1148.5C239.249 1148.5 224.5 1133.75 224.5 1115.56Z" stroke="#D97706" stroke-width="9.16667" stroke-linecap="butt" stroke-linejoin="round" stroke-miterlimit="10" stroke-opacity="1" fill="#FFF7DF" fill-rule="evenodd" fill-opacity="1"/><text fill="#D97706" fill-opacity="1" font-family="Arial,Arial_MSFontService,sans-serif" font-style="normal" font-variant="normal" font-weight="700" font-stretch="normal" font-size="64" text-anchor="start" direction="ltr" writing-mode="lr-tb" unicode-bidi="normal" text-decoration="none" transform="matrix(1 0 0 1 357.317 854)">Optimizer chooses</text><text fill="#D97706" fill-opacity="1" font-family="Arial,Arial_MSFontService,sans-serif" font-style="normal" font-variant="normal" font-weight="700" font-stretch="normal" font-size="64" text-anchor="start" direction="ltr" writing-mode="lr-tb" unicode-bidi="normal" text-decoration="none" transform="matrix(1 0 0 1 354.177 931)">plant variables and</text><text fill="#D97706" fill-opacity="1" font-family="Arial,Arial_MSFontService,sans-serif" font-style="normal" font-variant="normal" font-weight="700" font-stretch="normal" font-size="64" text-anchor="start" direction="ltr" writing-mode="lr-tb" unicode-bidi="normal" text-decoration="none" transform="matrix(1 0 0 1 353.604 1008)">control parameters</text><path d="M1320.5 700.444C1320.5 682.25 1335.25 667.5 1353.44 667.5L1967.56 667.5C1985.75 667.5 2000.5 682.25 2000.5 700.444L2000.5 1115.56C2000.5 1133.75 1985.75 1148.5 1967.56 1148.5L1353.44 1148.5C1335.25 1148.5 1320.5 1133.75 1320.5 1115.56Z" stroke="#123B63" stroke-width="9.16667" stroke-linecap="butt" stroke-linejoin="round" stroke-miterlimit="10" stroke-opacity="1" fill="#EAF2F8" fill-rule="evenodd" fill-opacity="1"/><text fill="#123B63" fill-opacity="1" font-family="Arial,Arial_MSFontService,sans-serif" font-style="normal" font-variant="normal" font-weight="700" font-stretch="normal" font-size="69" text-anchor="start" direction="ltr" writing-mode="lr-tb" unicode-bidi="normal" text-decoration="none" transform="matrix(1 0 0 1 1524.41 810)">Forward </text><text fill="#123B63" fill-opacity="1" font-family="Arial,Arial_MSFontService,sans-serif" font-style="normal" font-variant="normal" font-weight="700" font-stretch="normal" font-size="69" text-anchor="start" direction="ltr" writing-mode="lr-tb" unicode-bidi="normal" text-decoration="none" transform="matrix(1 0 0 1 1488.31 891)">simulation</text><text fill="#123B63" fill-opacity="1" font-family="Arial,Arial_MSFontService,sans-serif" font-style="normal" font-variant="normal" font-weight="700" font-stretch="normal" font-size="69" text-anchor="start" direction="ltr" writing-mode="lr-tb" unicode-bidi="normal" text-decoration="none" transform="matrix(1 0 0 1 1423.57 975)">from the initial </text><text fill="#123B63" fill-opacity="1" font-family="Arial,Arial_MSFontService,sans-serif" font-style="normal" font-variant="normal" font-weight="700" font-stretch="normal" font-size="69" text-anchor="start" direction="ltr" writing-mode="lr-tb" unicode-bidi="normal" text-decoration="none" transform="matrix(1 0 0 1 1579.41 1056)">state</text><path d="M2257.5 700.444C2257.5 682.249 2272.25 667.5 2290.44 667.5L2911.56 667.5C2929.75 667.5 2944.5 682.249 2944.5 700.444L2944.5 1115.56C2944.5 1133.75 2929.75 1148.5 2911.56 1148.5L2290.44 1148.5C2272.25 1148.5 2257.5 1133.75 2257.5 1115.56Z" stroke="#2F855A" stroke-width="9.16667" stroke-linecap="butt" stroke-linejoin="round" stroke-miterlimit="10" stroke-opacity="1" fill="#EDF7F0" fill-rule="evenodd" fill-opacity="1"/><text fill="#2F855A" fill-opacity="1" font-family="Arial,Arial_MSFontService,sans-serif" font-style="normal" font-variant="normal" font-weight="700" font-stretch="normal" font-size="69" text-anchor="start" direction="ltr" writing-mode="lr-tb" unicode-bidi="normal" text-decoration="none" transform="matrix(1 0 0 1 2451.43 851)">Compute </text><text fill="#2F855A" fill-opacity="1" font-family="Arial,Arial_MSFontService,sans-serif" font-style="normal" font-variant="normal" font-weight="700" font-stretch="normal" font-size="69" text-anchor="start" direction="ltr" writing-mode="lr-tb" unicode-bidi="normal" text-decoration="none" transform="matrix(1 0 0 1 2451.43 933)">objective</text><text fill="#2F855A" fill-opacity="1" font-family="Arial,Arial_MSFontService,sans-serif" font-style="normal" font-variant="normal" font-weight="700" font-stretch="normal" font-size="69" text-anchor="start" direction="ltr" writing-mode="lr-tb" unicode-bidi="normal" text-decoration="none" transform="matrix(1 0 0 1 2344.59 1016)">and constraints</text><path d="M3201.5 700.444C3201.5 682.249 3216.25 667.5 3234.44 667.5L3795.56 667.5C3813.75 667.5 3828.5 682.249 3828.5 700.444L3828.5 1115.56C3828.5 1133.75 3813.75 1148.5 3795.56 1148.5L3234.44 1148.5C3216.25 1148.5 3201.5 1133.75 3201.5 1115.56Z" stroke="#7C3AED" stroke-width="9.16667" stroke-linecap="butt" stroke-linejoin="round" stroke-miterlimit="10" stroke-opacity="1" fill="#FCE7F3" fill-rule="evenodd" fill-opacity="1"/><text fill="#7C3AED" fill-opacity="1" font-family="Arial,Arial_MSFontService,sans-serif" font-style="normal" font-variant="normal" font-weight="700" font-stretch="normal" font-size="78" text-anchor="start" direction="ltr" writing-mode="lr-tb" unicode-bidi="normal" text-decoration="none" transform="matrix(1 0 0 1 3436.58 890)">NLP</text><text fill="#7C3AED" fill-opacity="1" font-family="Arial,Arial_MSFontService,sans-serif" font-style="normal" font-variant="normal" font-weight="700" font-stretch="normal" font-size="78" text-anchor="start" direction="ltr" writing-mode="lr-tb" unicode-bidi="normal" text-decoration="none" transform="matrix(1 0 0 1 3386.74 983)">update</text><text fill="#7C3AED" fill-opacity="1" font-family="Arial,Arial_MSFontService,sans-serif" font-style="italic" font-variant="normal" font-weight="400" font-stretch="normal" font-size="60" text-anchor="start" direction="ltr" writing-mode="lr-tb" unicode-bidi="normal" text-decoration="none" transform="matrix(1 0 0 1 1801.36 1296)">repeat until convergence</text><path d="M281.5 1378.52C281.5 1360.28 296.283 1345.5 314.519 1345.5L1904.48 1345.5C1922.72 1345.5 1937.5 1360.28 1937.5 1378.52L1937.5 1695.48C1937.5 1713.72 1922.72 1728.5 1904.48 1728.5L314.519 1728.5C296.283 1728.5 281.5 1713.72 281.5 1695.48Z" stroke="#2F855A" stroke-width="9.16667" stroke-linecap="butt" stroke-linejoin="round" stroke-miterlimit="10" stroke-opacity="1" fill="#FFFFFF" fill-rule="evenodd" fill-opacity="1"/><text fill="#2F855A" fill-opacity="1" font-family="Arial,Arial_MSFontService,sans-serif" font-style="normal" font-variant="normal" font-weight="400" font-stretch="normal" font-size="64" text-anchor="start" direction="ltr" writing-mode="lr-tb" unicode-bidi="normal" text-decoration="none" transform="matrix(1 0 0 1 987.915 1483)">Strength</text><text fill="#2F855A" fill-opacity="1" font-family="Arial,Arial_MSFontService,sans-serif" font-style="normal" font-variant="normal" font-weight="400" font-stretch="normal" font-size="64" text-anchor="start" direction="ltr" writing-mode="lr-tb" unicode-bidi="normal" text-decoration="none" transform="matrix(1 0 0 1 358.279 1560)">simple and dynamically feasible whenever simulation </text><text fill="#2F855A" fill-opacity="1" font-family="Arial,Arial_MSFontService,sans-serif" font-style="normal" font-variant="normal" font-weight="400" font-stretch="normal" font-size="64" text-anchor="start" direction="ltr" writing-mode="lr-tb" unicode-bidi="normal" text-decoration="none" transform="matrix(1 0 0 1 973.592 1637)">succeeds</text><path d="M2459.5 1378.52C2459.5 1360.28 2474.28 1345.5 2492.52 1345.5L4082.48 1345.5C4100.72 1345.5 4115.5 1360.28 4115.5 1378.52L4115.5 1695.48C4115.5 1713.72 4100.72 1728.5 4082.48 1728.5L2492.52 1728.5C2474.28 1728.5 2459.5 1713.72 2459.5 1695.48Z" stroke="#C03242" stroke-width="9.16667" stroke-linecap="butt" stroke-linejoin="round" stroke-miterlimit="10" stroke-opacity="1" fill="#FFFFFF" fill-rule="evenodd" fill-opacity="1"/><text fill="#C03242" fill-opacity="1" font-family="Arial,Arial_MSFontService,sans-serif" font-style="normal" font-variant="normal" font-weight="400" font-stretch="normal" font-size="64" text-anchor="start" direction="ltr" writing-mode="lr-tb" unicode-bidi="normal" text-decoration="none" transform="matrix(1 0 0 1 3149.87 1483)">Limitation</text><text fill="#C03242" fill-opacity="1" font-family="Arial,Arial_MSFontService,sans-serif" font-style="normal" font-variant="normal" font-weight="400" font-stretch="normal" font-size="64" text-anchor="start" direction="ltr" writing-mode="lr-tb" unicode-bidi="normal" text-decoration="none" transform="matrix(1 0 0 1 2561.49 1560)">long horizons and unstable dynamics can create ill</text><text fill="#C03242" fill-opacity="1" font-family="Arial,Arial_MSFontService,sans-serif" font-style="normal" font-variant="normal" font-weight="400" font-stretch="normal" font-size="64" text-anchor="start" direction="ltr" writing-mode="lr-tb" unicode-bidi="normal" text-decoration="none" transform="matrix(1 0 0 1 3990.91 1560)">-</text><text fill="#C03242" fill-opacity="1" font-family="Arial,Arial_MSFontService,sans-serif" font-style="normal" font-variant="normal" font-weight="400" font-stretch="normal" font-size="64" text-anchor="start" direction="ltr" writing-mode="lr-tb" unicode-bidi="normal" text-decoration="none" transform="matrix(1 0 0 1 2950.5 1637)">conditioned sensitivities</text><path d="M3522.16 1146 3522.16 1233.66 640.844 1233.66 640.844 1176.36 651.156 1176.36 651.156 1228.5 646 1223.34 3517 1223.34 3511.84 1228.5 3511.84 1146ZM630.531 1181.52 646 1150.58 661.469 1181.52Z" fill="#7030A0" fill-rule="nonzero" fill-opacity="1"/></g></g></svg>