<svg width="4093" height="1810" xmlns="http://www.w3.org/2000/svg" xmlns:xlink="http://www.w3.org/1999/xlink" xml:space="preserve" overflow="hidden"><defs><filter id="fx0" x="-10%" y="-10%" width="120%" height="120%" filterUnits="userSpaceOnUse" primitiveUnits="userSpaceOnUse"><feComponentTransfer color-interpolation-filters="sRGB"><feFuncR type="discrete" tableValues="0.850980 0.850980"/><feFuncG type="discrete" tableValues="0.886275 0.886275"/><feFuncB type="discrete" tableValues="0.925490 0.925490"/><feFuncA type="linear" slope="0.141176" intercept="0.000000"/></feComponentTransfer><feGaussianBlur stdDeviation="1.527778 1.527778"/></filter><filter id="fx1" x="-10%" y="-10%" width="120%" height="120%" filterUnits="userSpaceOnUse" primitiveUnits="userSpaceOnUse"><feComponentTransfer color-interpolation-filters="sRGB"><feFuncR type="discrete" tableValues="0.850980 0.850980"/><feFuncG type="discrete" tableValues="0.886275 0.886275"/><feFuncB type="discrete" tableValues="0.925490 0.925490"/><feFuncA type="linear" slope="0.141176" intercept="0.000000"/></feComponentTransfer><feGaussianBlur stdDeviation="1.527778 1.527778"/></filter><filter id="fx2" x="-10%" y="-10%" width="120%" height="120%" filterUnits="userSpaceOnUse" primitiveUnits="userSpaceOnUse"><feComponentTransfer color-interpolation-filters="sRGB"><feFuncR type="discrete" tableValues="0.850980 0.850980"/><feFuncG type="discrete" tableValues="0.886275 0.886275"/><feFuncB type="discrete" tableValues="0.925490 0.925490"/><feFuncA type="linear" slope="0.141176" intercept="0.000000"/></feComponentTransfer><feGaussianBlur stdDeviation="1.527778 1.527778"/></filter><filter id="fx3" x="-10%" y="-10%" width="120%" height="120%" filterUnits="userSpaceOnUse" primitiveUnits="userSpaceOnUse"><feComponentTransfer color-interpolation-filters="sRGB"><feFuncR type="discrete" tableValues="0.850980 0.850980"/><feFuncG type="discrete" tableValues="0.886275 0.886275"/><feFuncB type="discrete" tableValues="0.925490 0.925490"/><feFuncA type="linear" slope="0.141176" intercept="0.000000"/></feComponentTransfer><feGaussianBlur stdDeviation="1.527778 1.527778"/></filter><filter id="fx4" x="-10%" y="-10%" width="120%" height="120%" filterUnits="userSpaceOnUse" primitiveUnits="userSpaceOnUse"><feComponentTransfer color-interpolation-filters="sRGB"><feFuncR type="discrete" tableValues="0.850980 0.850980"/><feFuncG type="discrete" tableValues="0.886275 0.886275"/><feFuncB type="discrete" tableValues="0.925490 0.925490"/><feFuncA type="linear" slope="0.141176" intercept="0.000000"/></feComponentTransfer><feGaussianBlur stdDeviation="1.527778 1.527778"/></filter><filter id="fx5" x="-10%" y="-10%" width="120%" height="120%" filterUnits="userSpaceOnUse" primitiveUnits="userSpaceOnUse"><feComponentTransfer color-interpolation-filters="sRGB"><feFuncR type="discrete" tableValues="0.850980 0.850980"/><feFuncG type="discrete" tableValues="0.886275 0.886275"/><feFuncB type="discrete" tableValues="0.925490 0.925490"/><feFuncA type="linear" slope="0.141176" intercept="0.000000"/></feComponentTransfer><feGaussianBlur stdDeviation="1.527778 1.527778"/></filter><filter id="fx6" x="-10%" y="-10%" width="120%" height="120%" filterUnits="userSpaceOnUse" primitiveUnits="userSpaceOnUse"><feComponentTransfer color-interpolation-filters="sRGB"><feFuncR type="discrete" tableValues="0.850980 0.850980"/><feFuncG type="discrete" tableValues="0.886275 0.886275"/><feFuncB type="discrete" tableValues="0.925490 0.925490"/><feFuncA type="linear" slope="0.141176" intercept="0.000000"/></feComponentTransfer><feGaussianBlur stdDeviation="1.527778 1.527778"/></filter><filter id="fx7" x="-10%" y="-10%" width="120%" height="120%" filterUnits="userSpaceOnUse" primitiveUnits="userSpaceOnUse"><feComponentTransfer color-interpolation-filters="sRGB"><feFuncR type="discrete" tableValues="0.850980 0.850980"/><feFuncG type="discrete" tableValues="0.886275 0.886275"/><feFuncB type="discrete" tableValues="0.925490 0.925490"/><feFuncA type="linear" slope="0.141176" intercept="0.000000"/></feComponentTransfer><feGaussianBlur stdDeviation="1.527778 1.527778"/></filter><filter id="fx8" x="-10%" y="-10%" width="120%" height="120%" filterUnits="userSpaceOnUse" primitiveUnits="userSpaceOnUse"><feComponentTransfer color-interpolation-filters="sRGB"><feFuncR type="discrete" tableValues="0.850980 0.850980"/><feFuncG type="discrete" tableValues="0.886275 0.886275"/><feFuncB type="discrete" tableValues="0.925490 0.925490"/><feFuncA type="linear" slope="0.141176" intercept="0.000000"/></feComponentTransfer><feGaussianBlur stdDeviation="1.527778 1.527778"/></filter><clipPath id="clip9"><path d="M1445.9 460.5C1431.32 460.5 1419.5 472.32 1419.5 486.901L1419.5 731.099C1419.5 745.68 1431.32 757.5 1445.9 757.5L2961.1 757.5C2975.68 757.5 2987.5 745.68 2987.5 731.099L2987.5 486.901C2987.5 472.32 2975.68 460.5 2961.1 460.5ZM151 206 4244 206 4244 2016 151 2016Z" fill-rule="evenodd" clip-rule="evenodd"/></clipPath><clipPath id="clip10"><path d="M208.401 990C193.82 990 182 1001.82 182 1016.4L182 1359.6C182 1374.18 193.82 1386 208.401 1386L1293.6 1386C1308.18 1386 1320 1374.18 1320 1359.6L1320 1016.4C1320 1001.82 1308.18 990 1293.6 990ZM151 206 4244 206 4244 2016 151 2016Z" fill-rule="evenodd" clip-rule="evenodd"/></clipPath><clipPath id="clip11"><path d="M1656.4 990C1641.82 990 1630 1001.82 1630 1016.4L1630 1359.6C1630 1374.18 1641.82 1386 1656.4 1386L2742.6 1386C2757.18 1386 2769 1374.18 2769 1359.6L2769 1016.4C2769 1001.82 2757.18 990 2742.6 990ZM151 206 4244 206 4244 2016 151 2016Z" fill-rule="evenodd" clip-rule="evenodd"/></clipPath><clipPath id="clip12"><path d="M3105.4 990C3090.82 990 3079 1001.82 3079 1016.4L3079 1359.6C3079 1374.18 3090.82 1386 3105.4 1386L4190.6 1386C4205.18 1386 4217 1374.18 4217 1359.6L4217 1016.4C4217 1001.82 4205.18 990 4190.6 990ZM151 206 4244 206 4244 2016 151 2016Z" fill-rule="evenodd" clip-rule="evenodd"/></clipPath><clipPath id="clip13"><path d="M183.942 1675.5C169.338 1675.5 157.5 1687.34 157.5 1701.94L157.5 1963.06C157.5 1977.66 169.338 1989.5 183.942 1989.5L642.058 1989.5C656.662 1989.5 668.5 1977.66 668.5 1963.06L668.5 1701.94C668.5 1687.34 656.662 1675.5 642.058 1675.5ZM151 206 4244 206 4244 2016 151 2016Z" fill-rule="evenodd" clip-rule="evenodd"/></clipPath><clipPath id="clip14"><path d="M868.858 1673.5C854.301 1673.5 842.5 1685.3 842.5 1699.86L842.5 1960.14C842.5 1974.7 854.301 1986.5 868.858 1986.5L1327.14 1986.5C1341.7 1986.5 1353.5 1974.7 1353.5 1960.14L1353.5 1699.86C1353.5 1685.3 1341.7 1673.5 1327.14 1673.5ZM151 206 4244 206 4244 2016 151 2016Z" fill-rule="evenodd" clip-rule="evenodd"/></clipPath><clipPath id="clip15"><path d="M1623.94 1676.5C1609.34 1676.5 1597.5 1688.34 1597.5 1702.94L1597.5 1964.06C1597.5 1978.66 1609.34 1990.5 1623.94 1990.5L2082.06 1990.5C2096.66 1990.5 2108.5 1978.66 2108.5 1964.06L2108.5 1702.94C2108.5 1688.34 2096.66 1676.5 2082.06 1676.5ZM151 206 4244 206 4244 2016 151 2016Z" fill-rule="evenodd" clip-rule="evenodd"/></clipPath><clipPath id="clip16"><path d="M2303.94 1676.5C2289.34 1676.5 2277.5 1688.34 2277.5 1702.94L2277.5 1964.06C2277.5 1978.66 2289.34 1990.5 2303.94 1990.5L2763.06 1990.5C2777.66 1990.5 2789.5 1978.66 2789.5 1964.06L2789.5 1702.94C2789.5 1688.34 2777.66 1676.5 2763.06 1676.5ZM151 206 4244 206 4244 2016 151 2016Z" fill-rule="evenodd" clip-rule="evenodd"/></clipPath><clipPath id="clip17"><path d="M3177.86 1673.5C3163.3 1673.5 3151.5 1685.3 3151.5 1699.86L3151.5 1960.14C3151.5 1974.7 3163.3 1986.5 3177.86 1986.5L4115.14 1986.5C4129.7 1986.5 4141.5 1974.7 4141.5 1960.14L4141.5 1699.86C4141.5 1685.3 4129.7 1673.5 4115.14 1673.5ZM151 206 4244 206 4244 2016 151 2016Z" fill-rule="evenodd" clip-rule="evenodd"/></clipPath></defs><g transform="translate(-151 -206)"><g><path d="M776 244.462C776 229.847 787.847 218 802.462 218L3596.54 218C3611.15 218 3623 229.847 3623 244.462L3623 406.538C3623 421.153 3611.15 433 3596.54 433L802.462 433C787.847 433 776 421.153 776 406.538Z" stroke="#2D6A9F" stroke-width="7.79167" stroke-linecap="butt" stroke-linejoin="round" stroke-miterlimit="10" stroke-opacity="1" fill="#FFFFFF" fill-rule="evenodd" fill-opacity="1"/><text fill="#123B63" fill-opacity="1" font-family="Aptos,Aptos_MSFontService,sans-serif" font-style="normal" font-variant="normal" font-weight="400" font-stretch="normal" font-size="78" text-anchor="start" direction="ltr" writing-mode="lr-tb" unicode-bidi="normal" text-decoration="none" transform="matrix(1 0 0 1 1187.98 305)">Numerical methods replace infinite</text><text fill="#123B63" fill-opacity="1" font-family="Aptos,Aptos_MSFontService,sans-serif" font-style="normal" font-variant="normal" font-weight="400" font-stretch="normal" font-size="78" text-anchor="start" direction="ltr" writing-mode="lr-tb" unicode-bidi="normal" text-decoration="none" transform="matrix(1 0 0 1 2371.44 305)">-</text><text fill="#123B63" fill-opacity="1" font-family="Aptos,Aptos_MSFontService,sans-serif" font-style="normal" font-variant="normal" font-weight="400" font-stretch="normal" font-size="78" text-anchor="start" direction="ltr" writing-mode="lr-tb" unicode-bidi="normal" text-decoration="none" transform="matrix(1 0 0 1 2397.79 305)">dimensional trajectories</text><text fill="#123B63" fill-opacity="1" font-family="Aptos,Aptos_MSFontService,sans-serif" font-style="normal" font-variant="normal" font-weight="400" font-stretch="normal" font-size="78" text-anchor="start" direction="ltr" writing-mode="lr-tb" unicode-bidi="normal" text-decoration="none" transform="matrix(1 0 0 1 1742.49 380)">with finite decision vectors.</text><g clip-path="url(#clip9)"><g filter="url(#fx0)" transform="translate(1421 462)"><g><g><path d="M11.4635 37.8647C11.4635 23.2838 23.2836 11.4637 37.8643 11.4637L1553.06 11.4637C1567.64 11.4637 1579.46 23.2838 1579.46 37.8647L1579.46 282.063C1579.46 296.644 1567.64 308.464 1553.06 308.464L37.8643 308.464C23.2836 308.464 11.4635 296.644 11.4635 282.063Z" stroke="#123B63" stroke-width="11" stroke-linecap="butt" stroke-linejoin="round" stroke-miterlimit="10" stroke-opacity="1" fill="#EAF2F8" fill-rule="evenodd" fill-opacity="1"/></g></g></g></g><path d="M1419.5 486.901C1419.5 472.32 1431.32 460.5 1445.9 460.5L2961.1 460.5C2975.68 460.5 2987.5 472.32 2987.5 486.901L2987.5 731.099C2987.5 745.68 2975.68 757.5 2961.1 757.5L1445.9 757.5C1431.32 757.5 1419.5 745.68 1419.5 731.099Z" stroke="#123B63" stroke-width="11.4583" stroke-linecap="butt" stroke-linejoin="round" stroke-miterlimit="10" stroke-opacity="1" fill="#EAF2F8" fill-rule="evenodd" fill-opacity="1"/><text fill="#123B63" fill-opacity="1" font-family="Aptos,Aptos_MSFontService,sans-serif" font-style="normal" font-variant="normal" font-weight="700" font-stretch="normal" font-size="110" text-anchor="start" direction="ltr" writing-mode="lr-tb" unicode-bidi="normal" text-decoration="none" transform="matrix(1 0 0 1 1647.91 578)">Dynamic</text><text fill="#123B63" fill-opacity="1" font-family="Aptos,Aptos_MSFontService,sans-serif" font-style="normal" font-variant="normal" font-weight="700" font-stretch="normal" font-size="110" text-anchor="start" direction="ltr" writing-mode="lr-tb" unicode-bidi="normal" text-decoration="none" transform="matrix(1 0 0 1 2091.92 578)">-</text><text fill="#123B63" fill-opacity="1" font-family="Aptos,Aptos_MSFontService,sans-serif" font-style="normal" font-variant="normal" font-weight="700" font-stretch="normal" font-size="110" text-anchor="start" direction="ltr" writing-mode="lr-tb" unicode-bidi="normal" text-decoration="none" transform="matrix(1 0 0 1 2129.16 578)">optimization</text><text fill="#123B63" fill-opacity="1" font-family="Aptos,Aptos_MSFontService,sans-serif" font-style="normal" font-variant="normal" font-weight="700" font-stretch="normal" font-size="110" text-anchor="start" direction="ltr" writing-mode="lr-tb" unicode-bidi="normal" text-decoration="none" transform="matrix(1 0 0 1 1762.75 697)">solution methods</text><g clip-path="url(#clip10)"><g filter="url(#fx1)" transform="translate(184 992)"><g><g><path d="M10.9635 37.3652C10.9635 22.784 22.7838 10.9636 37.365 10.9636L1122.56 10.9636C1137.14 10.9636 1148.96 22.784 1148.96 37.3652L1148.96 380.562C1148.96 395.143 1137.14 406.964 1122.56 406.964L37.365 406.964C22.7838 406.964 10.9635 395.143 10.9635 380.562Z" stroke="#D97706" stroke-width="10" stroke-linecap="butt" stroke-linejoin="round" stroke-miterlimit="10" stroke-opacity="1" fill="#FFF4D6" fill-rule="evenodd" fill-opacity="1"/></g></g></g></g><path d="M182 1016.4C182 1001.82 193.82 990 208.401 990L1293.6 990C1308.18 990 1320 1001.82 1320 1016.4L1320 1359.6C1320 1374.18 1308.18 1386 1293.6 1386L208.401 1386C193.82 1386 182 1374.18 182 1359.6Z" stroke="#D97706" stroke-width="10.0833" stroke-linecap="butt" stroke-linejoin="round" stroke-miterlimit="10" stroke-opacity="1" fill="#FFF4D6" fill-rule="evenodd" fill-opacity="1"/><text fill="#D97706" fill-opacity="1" font-family="Aptos,Aptos_MSFontService,sans-serif" font-style="normal" font-variant="normal" font-weight="700" font-stretch="normal" font-size="73" text-anchor="start" direction="ltr" writing-mode="lr-tb" unicode-bidi="normal" text-decoration="none" transform="matrix(1 0 0 1 308.584 1124)">Sequential direct methods</text><text fill="#D97706" fill-opacity="1" font-family="Aptos,Aptos_MSFontService,sans-serif" font-style="normal" font-variant="normal" font-weight="700" font-stretch="normal" font-size="73" text-anchor="start" direction="ltr" writing-mode="lr-tb" unicode-bidi="normal" text-decoration="none" transform="matrix(1 0 0 1 484.195 1212)">(simulate </text><text fill="#D97706" fill-opacity="1" font-family="Aptos,Aptos_MSFontService,sans-serif" font-style="normal" font-variant="normal" font-weight="700" font-stretch="normal" font-size="73" text-anchor="start" direction="ltr" writing-mode="lr-tb" unicode-bidi="normal" text-decoration="none" transform="matrix(1 0 0 1 814.516 1212)">inside</text><text fill="#D97706" fill-opacity="1" font-family="Aptos,Aptos_MSFontService,sans-serif" font-style="normal" font-variant="normal" font-weight="700" font-stretch="normal" font-size="73" text-anchor="start" direction="ltr" writing-mode="lr-tb" unicode-bidi="normal" text-decoration="none" transform="matrix(1 0 0 1 519.555 1300)">the </text><text fill="#D97706" fill-opacity="1" font-family="Aptos,Aptos_MSFontService,sans-serif" font-style="normal" font-variant="normal" font-weight="700" font-stretch="normal" font-size="73" text-anchor="start" direction="ltr" writing-mode="lr-tb" unicode-bidi="normal" text-decoration="none" transform="matrix(1 0 0 1 643.878 1300)">optimizer)</text><g clip-path="url(#clip11)"><g filter="url(#fx2)" transform="translate(1632 992)"><g><g><path d="M10.9637 37.3647C10.9637 22.7838 22.7839 10.9636 37.3648 10.9636L1123.56 10.9636C1138.14 10.9636 1149.96 22.7838 1149.96 37.3647L1149.96 380.563C1149.96 395.143 1138.14 406.964 1123.56 406.964L37.3648 406.964C22.7839 406.964 10.9637 395.143 10.9637 380.563Z" stroke="#2F855A" stroke-width="10" stroke-linecap="butt" stroke-linejoin="round" stroke-miterlimit="10" stroke-opacity="1" fill="#EAF7EE" fill-rule="evenodd" fill-opacity="1"/></g></g></g></g><path d="M1630 1016.4C1630 1001.82 1641.82 990 1656.4 990L2742.6 990C2757.18 990 2769 1001.82 2769 1016.4L2769 1359.6C2769 1374.18 2757.18 1386 2742.6 1386L1656.4 1386C1641.82 1386 1630 1374.18 1630 1359.6Z" stroke="#2F855A" stroke-width="10.0833" stroke-linecap="butt" stroke-linejoin="round" stroke-miterlimit="10" stroke-opacity="1" fill="#EAF7EE" fill-rule="evenodd" fill-opacity="1"/><text fill="#2F855A" fill-opacity="1" font-family="Aptos,Aptos_MSFontService,sans-serif" font-style="normal" font-variant="normal" font-weight="700" font-stretch="normal" font-size="73" text-anchor="start" direction="ltr" writing-mode="lr-tb" unicode-bidi="normal" text-decoration="none" transform="matrix(1 0 0 1 1705.49 1124)">Simultaneous direct </text><text fill="#2F855A" fill-opacity="1" font-family="Aptos,Aptos_MSFontService,sans-serif" font-style="normal" font-variant="normal" font-weight="700" font-stretch="normal" font-size="73" text-anchor="start" direction="ltr" writing-mode="lr-tb" unicode-bidi="normal" text-decoration="none" transform="matrix(1 0 0 1 2396.06 1124)">methods</text><text fill="#2F855A" fill-opacity="1" font-family="Aptos,Aptos_MSFontService,sans-serif" font-style="normal" font-variant="normal" font-weight="700" font-stretch="normal" font-size="73" text-anchor="start" direction="ltr" writing-mode="lr-tb" unicode-bidi="normal" text-decoration="none" transform="matrix(1 0 0 1 1867.49 1212)">(states </text><text fill="#2F855A" fill-opacity="1" font-family="Aptos,Aptos_MSFontService,sans-serif" font-style="normal" font-variant="normal" font-weight="700" font-stretch="normal" font-size="73" text-anchor="start" direction="ltr" writing-mode="lr-tb" unicode-bidi="normal" text-decoration="none" transform="matrix(1 0 0 1 2112.29 1212)">and controls</text><text fill="#2F855A" fill-opacity="1" font-family="Aptos,Aptos_MSFontService,sans-serif" font-style="normal" font-variant="normal" font-weight="700" font-stretch="normal" font-size="73" text-anchor="start" direction="ltr" writing-mode="lr-tb" unicode-bidi="normal" text-decoration="none" transform="matrix(1 0 0 1 1756.94 1300)">are optimization </text><text fill="#2F855A" fill-opacity="1" font-family="Aptos,Aptos_MSFontService,sans-serif" font-style="normal" font-variant="normal" font-weight="700" font-stretch="normal" font-size="73" text-anchor="start" direction="ltr" writing-mode="lr-tb" unicode-bidi="normal" text-decoration="none" transform="matrix(1 0 0 1 2313.88 1300)">variables)</text><g clip-path="url(#clip12)"><g filter="url(#fx3)" transform="translate(3081 992)"><g><g><path d="M10.9636 37.3652C10.9636 22.784 22.784 10.9636 37.3651 10.9636L1122.56 10.9636C1137.14 10.9636 1148.96 22.784 1148.96 37.3652L1148.96 380.562C1148.96 395.143 1137.14 406.964 1122.56 406.964L37.3651 406.964C22.784 406.964 10.9636 395.143 10.9636 380.562Z" stroke="#7C3AED" stroke-width="10" stroke-linecap="butt" stroke-linejoin="round" stroke-miterlimit="10" stroke-opacity="1" fill="#F4E8FF" fill-rule="evenodd" fill-opacity="1"/></g></g></g></g><path d="M3079 1016.4C3079 1001.82 3090.82 990 3105.4 990L4190.6 990C4205.18 990 4217 1001.82 4217 1016.4L4217 1359.6C4217 1374.18 4205.18 1386 4190.6 1386L3105.4 1386C3090.82 1386 3079 1374.18 3079 1359.6Z" stroke="#7C3AED" stroke-width="10.0833" stroke-linecap="butt" stroke-linejoin="round" stroke-miterlimit="10" stroke-opacity="1" fill="#F4E8FF" fill-rule="evenodd" fill-opacity="1"/><text fill="#7C3AED" fill-opacity="1" font-family="Aptos,Aptos_MSFontService,sans-serif" font-style="normal" font-variant="normal" font-weight="700" font-stretch="normal" font-size="73" text-anchor="start" direction="ltr" writing-mode="lr-tb" unicode-bidi="normal" text-decoration="none" transform="matrix(1 0 0 1 3362.12 1124)">Indirect methods</text><text fill="#7C3AED" fill-opacity="1" font-family="Aptos,Aptos_MSFontService,sans-serif" font-style="normal" font-variant="normal" font-weight="700" font-stretch="normal" font-size="73" text-anchor="start" direction="ltr" writing-mode="lr-tb" unicode-bidi="normal" text-decoration="none" transform="matrix(1 0 0 1 3296.21 1212)">(discretize </text><text fill="#7C3AED" fill-opacity="1" font-family="Aptos,Aptos_MSFontService,sans-serif" font-style="normal" font-variant="normal" font-weight="700" font-stretch="normal" font-size="73" text-anchor="start" direction="ltr" writing-mode="lr-tb" unicode-bidi="normal" text-decoration="none" transform="matrix(1 0 0 1 3659.8 1212)">optimality</text><text fill="#7C3AED" fill-opacity="1" font-family="Aptos,Aptos_MSFontService,sans-serif" font-style="normal" font-variant="normal" font-weight="700" font-stretch="normal" font-size="73" text-anchor="start" direction="ltr" writing-mode="lr-tb" unicode-bidi="normal" text-decoration="none" transform="matrix(1 0 0 1 3266.16 1300)">and costate </text><text fill="#7C3AED" fill-opacity="1" font-family="Aptos,Aptos_MSFontService,sans-serif" font-style="normal" font-variant="normal" font-weight="700" font-stretch="normal" font-size="73" text-anchor="start" direction="ltr" writing-mode="lr-tb" unicode-bidi="normal" text-decoration="none" transform="matrix(1 0 0 1 3674.24 1300)">equations)</text><path d="M2204.17 764.966 3624.51 975.605 3623.16 984.672 2202.83 774.034ZM3621.31 965.865 3646.5 983.5 3617.28 993.067Z" fill="#566579" fill-rule="nonzero" fill-opacity="1"/><g clip-path="url(#clip13)"><g filter="url(#fx4)" transform="translate(160 1678)"><g><g><path d="M10.4636 36.9054C10.4636 22.3019 22.302 10.4635 36.9055 10.4635L495.022 10.4635C509.625 10.4635 521.464 22.3019 521.464 36.9054L521.464 298.022C521.464 312.625 509.625 324.464 495.022 324.464L36.9055 324.464C22.302 324.464 10.4636 312.625 10.4636 298.022Z" stroke="#D97706" stroke-width="9" stroke-linecap="butt" stroke-linejoin="round" stroke-miterlimit="10" stroke-opacity="1" fill="#FFFFFF" fill-rule="evenodd" fill-opacity="1"/></g></g></g></g><path d="M157.5 1701.94C157.5 1687.34 169.338 1675.5 183.942 1675.5L642.058 1675.5C656.662 1675.5 668.5 1687.34 668.5 1701.94L668.5 1963.06C668.5 1977.66 656.662 1989.5 642.058 1989.5L183.942 1989.5C169.338 1989.5 157.5 1977.66 157.5 1963.06Z" stroke="#D97706" stroke-width="9.16667" stroke-linecap="butt" stroke-linejoin="round" stroke-miterlimit="10" stroke-opacity="1" fill="#FFFFFF" fill-rule="evenodd" fill-opacity="1"/><text fill="#D97706" fill-opacity="1" font-family="Aptos,Aptos_MSFontService,sans-serif" font-style="normal" font-variant="normal" font-weight="700" font-stretch="normal" font-size="69" text-anchor="start" direction="ltr" writing-mode="lr-tb" unicode-bidi="normal" text-decoration="none" transform="matrix(1 0 0 1 311.025 1814)">Direct</text><text fill="#D97706" fill-opacity="1" font-family="Aptos,Aptos_MSFontService,sans-serif" font-style="normal" font-variant="normal" font-weight="700" font-stretch="normal" font-size="69" text-anchor="start" direction="ltr" writing-mode="lr-tb" unicode-bidi="normal" text-decoration="none" transform="matrix(1 0 0 1 271.402 1897)">shooting</text><g clip-path="url(#clip14)"><g filter="url(#fx5)" transform="translate(845 1676)"><g><g><path d="M10.4637 36.8211C10.4637 22.2642 22.2643 10.4635 36.8212 10.4635L495.106 10.4635C509.663 10.4635 521.463 22.2642 521.463 36.8211L521.463 297.106C521.463 311.663 509.663 323.464 495.106 323.464L36.8212 323.464C22.2643 323.464 10.4637 311.663 10.4637 297.106Z" stroke="#D97706" stroke-width="9" stroke-linecap="butt" stroke-linejoin="round" stroke-miterlimit="10" stroke-opacity="1" fill="#FFFFFF" fill-rule="evenodd" fill-opacity="1"/></g></g></g></g><path d="M842.5 1699.86C842.5 1685.3 854.301 1673.5 868.858 1673.5L1327.14 1673.5C1341.7 1673.5 1353.5 1685.3 1353.5 1699.86L1353.5 1960.14C1353.5 1974.7 1341.7 1986.5 1327.14 1986.5L868.858 1986.5C854.301 1986.5 842.5 1974.7 842.5 1960.14Z" stroke="#D97706" stroke-width="9.16667" stroke-linecap="butt" stroke-linejoin="round" stroke-miterlimit="10" stroke-opacity="1" fill="#FFFFFF" fill-rule="evenodd" fill-opacity="1"/><text fill="#D97706" fill-opacity="1" font-family="Aptos,Aptos_MSFontService,sans-serif" font-style="normal" font-variant="normal" font-weight="700" font-stretch="normal" font-size="69" text-anchor="start" direction="ltr" writing-mode="lr-tb" unicode-bidi="normal" text-decoration="none" transform="matrix(1 0 0 1 967.771 1810)">Multiple</text><text fill="#D97706" fill-opacity="1" font-family="Aptos,Aptos_MSFontService,sans-serif" font-style="normal" font-variant="normal" font-weight="700" font-stretch="normal" font-size="69" text-anchor="start" direction="ltr" writing-mode="lr-tb" unicode-bidi="normal" text-decoration="none" transform="matrix(1 0 0 1 961.469 1893)">shooting</text><g clip-path="url(#clip15)"><g filter="url(#fx6)" transform="translate(1600 1679)"><g><g><path d="M10.4635 36.9055C10.4635 22.3021 22.3019 10.4636 36.9054 10.4636L495.022 10.4636C509.625 10.4636 521.464 22.3021 521.464 36.9055L521.464 298.022C521.464 312.625 509.625 324.464 495.022 324.464L36.9054 324.464C22.3019 324.464 10.4635 312.625 10.4635 298.022Z" stroke="#2F855A" stroke-width="9" stroke-linecap="butt" stroke-linejoin="round" stroke-miterlimit="10" stroke-opacity="1" fill="#FFFFFF" fill-rule="evenodd" fill-opacity="1"/></g></g></g></g><path d="M1597.5 1702.94C1597.5 1688.34 1609.34 1676.5 1623.94 1676.5L2082.06 1676.5C2096.66 1676.5 2108.5 1688.34 2108.5 1702.94L2108.5 1964.06C2108.5 1978.66 2096.66 1990.5 2082.06 1990.5L1623.94 1990.5C1609.34 1990.5 1597.5 1978.66 1597.5 1964.06Z" stroke="#2F855A" stroke-width="9.16667" stroke-linecap="butt" stroke-linejoin="round" stroke-miterlimit="10" stroke-opacity="1" fill="#FFFFFF" fill-rule="evenodd" fill-opacity="1"/><text fill="#2F855A" fill-opacity="1" font-family="Aptos,Aptos_MSFontService,sans-serif" font-style="normal" font-variant="normal" font-weight="700" font-stretch="normal" font-size="64" text-anchor="start" direction="ltr" writing-mode="lr-tb" unicode-bidi="normal" text-decoration="none" transform="matrix(1 0 0 1 1763.28 1815)">Direct</text><text fill="#2F855A" fill-opacity="1" font-family="Aptos,Aptos_MSFontService,sans-serif" font-style="normal" font-variant="normal" font-weight="700" font-stretch="normal" font-size="64" text-anchor="start" direction="ltr" writing-mode="lr-tb" unicode-bidi="normal" text-decoration="none" transform="matrix(1 0 0 1 1663.61 1892)">transcription</text><g clip-path="url(#clip16)"><g filter="url(#fx7)" transform="translate(2280 1679)"><g><g><path d="M10.4634 36.9058C10.4634 22.3022 22.3019 10.4636 36.9055 10.4636L496.021 10.4636C510.625 10.4636 522.464 22.3022 522.464 36.9058L522.464 298.022C522.464 312.625 510.625 324.464 496.021 324.464L36.9055 324.464C22.3019 324.464 10.4634 312.625 10.4634 298.022Z" stroke="#2F855A" stroke-width="9" stroke-linecap="butt" stroke-linejoin="round" stroke-miterlimit="10" stroke-opacity="1" fill="#FFFFFF" fill-rule="evenodd" fill-opacity="1"/></g></g></g></g><path d="M2277.5 1702.94C2277.5 1688.34 2289.34 1676.5 2303.94 1676.5L2763.06 1676.5C2777.66 1676.5 2789.5 1688.34 2789.5 1702.94L2789.5 1964.06C2789.5 1978.66 2777.66 1990.5 2763.06 1990.5L2303.94 1990.5C2289.34 1990.5 2277.5 1978.66 2277.5 1964.06Z" stroke="#2F855A" stroke-width="9.16667" stroke-linecap="butt" stroke-linejoin="round" stroke-miterlimit="10" stroke-opacity="1" fill="#FFFFFF" fill-rule="evenodd" fill-opacity="1"/><text fill="#2F855A" fill-opacity="1" font-family="Aptos,Aptos_MSFontService,sans-serif" font-style="normal" font-variant="normal" font-weight="700" font-stretch="normal" font-size="64" text-anchor="start" direction="ltr" writing-mode="lr-tb" unicode-bidi="normal" text-decoration="none" transform="matrix(1 0 0 1 2443.44 1815)">Direct</text><text fill="#2F855A" fill-opacity="1" font-family="Aptos,Aptos_MSFontService,sans-serif" font-style="normal" font-variant="normal" font-weight="700" font-stretch="normal" font-size="64" text-anchor="start" direction="ltr" writing-mode="lr-tb" unicode-bidi="normal" text-decoration="none" transform="matrix(1 0 0 1 2367.93 1892)">collocation</text><g clip-path="url(#clip17)"><g filter="url(#fx8)" transform="translate(3154 1676)"><g><g><path d="M10.4636 36.8213C10.4636 22.2643 22.2644 10.4635 36.8214 10.4635L974.106 10.4635C988.663 10.4635 1000.46 22.2643 1000.46 36.8213L1000.46 297.106C1000.46 311.663 988.663 323.464 974.106 323.464L36.8214 323.464C22.2644 323.464 10.4636 311.663 10.4636 297.106Z" stroke="#7C3AED" stroke-width="9" stroke-linecap="butt" stroke-linejoin="round" stroke-miterlimit="10" stroke-opacity="1" fill="#FFFFFF" fill-rule="evenodd" fill-opacity="1"/></g></g></g></g><path d="M3151.5 1699.86C3151.5 1685.3 3163.3 1673.5 3177.86 1673.5L4115.14 1673.5C4129.7 1673.5 4141.5 1685.3 4141.5 1699.86L4141.5 1960.14C4141.5 1974.7 4129.7 1986.5 4115.14 1986.5L3177.86 1986.5C3163.3 1986.5 3151.5 1974.7 3151.5 1960.14Z" stroke="#7C3AED" stroke-width="9.16667" stroke-linecap="butt" stroke-linejoin="round" stroke-miterlimit="10" stroke-opacity="1" fill="#FFFFFF" fill-rule="evenodd" fill-opacity="1"/><text fill="#7C3AED" fill-opacity="1" font-family="Aptos,Aptos_MSFontService,sans-serif" font-style="normal" font-variant="normal" font-weight="400" font-stretch="normal" font-size="64" text-anchor="start" direction="ltr" writing-mode="lr-tb" unicode-bidi="normal" text-decoration="none" transform="matrix(1 0 0 1 3303.39 1773)">Boundary</text><text fill="#7C3AED" fill-opacity="1" font-family="Aptos,Aptos_MSFontService,sans-serif" font-style="normal" font-variant="normal" font-weight="400" font-stretch="normal" font-size="64" text-anchor="start" direction="ltr" writing-mode="lr-tb" unicode-bidi="normal" text-decoration="none" transform="matrix(1 0 0 1 3571.33 1773)">-</text><text fill="#7C3AED" fill-opacity="1" font-family="Aptos,Aptos_MSFontService,sans-serif" font-style="normal" font-variant="normal" font-weight="400" font-stretch="normal" font-size="64" text-anchor="start" direction="ltr" writing-mode="lr-tb" unicode-bidi="normal" text-decoration="none" transform="matrix(1 0 0 1 3593.1 1773)">value problem</text><text fill="#7C3AED" fill-opacity="1" font-family="Aptos,Aptos_MSFontService,sans-serif" font-style="normal" font-variant="normal" font-weight="400" font-stretch="normal" font-size="64" text-anchor="start" direction="ltr" writing-mode="lr-tb" unicode-bidi="normal" text-decoration="none" transform="matrix(1 0 0 1 3380.91 1850)">from the necessary</text><text fill="#7C3AED" fill-opacity="1" font-family="Aptos,Aptos_MSFontService,sans-serif" font-style="normal" font-variant="normal" font-weight="400" font-stretch="normal" font-size="64" text-anchor="start" direction="ltr" writing-mode="lr-tb" unicode-bidi="normal" text-decoration="none" transform="matrix(1 0 0 1 3499.26 1927)">conditions</text><path d="M753.826 1383.67 1082.11 1653.13 1077.46 1658.8 749.174 1389.33ZM1084.97 1642.42 1097.5 1670.5 1067.52 1663.68Z" fill="#D97706" fill-rule="nonzero" fill-opacity="1"/><path d="M3650.13 1392 3650.13 1652.08 3641.88 1652.08 3641.88 1392ZM3659.75 1647.5 3646 1675 3632.25 1647.5Z" fill="#7C3AED" fill-rule="nonzero" fill-opacity="1"/><path d="M2.32232-2.83748 331.588 266.648 326.944 272.323-2.32232 2.83748ZM334.428 255.942 347 284 317.01 277.223Z" fill="#D97706" fill-rule="nonzero" fill-opacity="1" transform="matrix(-1 0 0 1 769.5 1386.5)"/><path d="M2188.82 1386.66 2518.09 1656.15 2513.44 1661.82 2184.18 1392.34ZM2520.93 1645.44 2533.5 1673.5 2503.51 1666.72Z" fill="#385723" fill-rule="nonzero" fill-opacity="1"/><path d="M2.31741-2.84149 331.558 265.674 326.923 271.357-2.31741 2.84149ZM334.379 254.964 347 283 316.999 276.275Z" fill="#385723" fill-rule="nonzero" fill-opacity="1" transform="matrix(-1 0 0 1 2185.5 1392.5)"/><path d="M4.58329-0.0207321 5.4793 198.063-3.68727 198.104-4.58329 0.0207321ZM14.6251 193.438 0.999672 221-12.8746 193.562Z" fill="#566579" fill-rule="nonzero" fill-opacity="1" transform="matrix(-1 0 0 1 2204.5 769.5)"/><path d="M0.675438-4.53329 1421.01 207.09 1419.66 216.156-0.675438 4.53329ZM1417.83 197.347 1443 215 1413.77 224.547Z" fill="#566579" fill-rule="nonzero" fill-opacity="1" transform="matrix(-1 0 0 1 2197.5 776.5)"/></g></g></svg>