<svg width="3956" height="2182" xmlns="http://www.w3.org/2000/svg" xmlns:xlink="http://www.w3.org/1999/xlink" xml:space="preserve" overflow="hidden"><defs><filter id="fx0" x="-10%" y="-10%" width="120%" height="120%" filterUnits="userSpaceOnUse" primitiveUnits="userSpaceOnUse"><feComponentTransfer color-interpolation-filters="sRGB"><feFuncR type="discrete" tableValues="0.000000 0.000000"/><feFuncG type="discrete" tableValues="0.000000 0.000000"/><feFuncB type="discrete" tableValues="0.000000 0.000000"/><feFuncA type="linear" slope="0.101961" intercept="0.000000"/></feComponentTransfer><feGaussianBlur stdDeviation="1.527778 1.527778"/></filter><filter id="fx1" x="-10%" y="-10%" width="120%" height="120%" filterUnits="userSpaceOnUse" primitiveUnits="userSpaceOnUse"><feComponentTransfer color-interpolation-filters="sRGB"><feFuncR type="discrete" tableValues="0.000000 0.000000"/><feFuncG type="discrete" tableValues="0.000000 0.000000"/><feFuncB type="discrete" tableValues="0.000000 0.000000"/><feFuncA type="linear" slope="0.101961" intercept="0.000000"/></feComponentTransfer><feGaussianBlur stdDeviation="1.527778 1.527778"/></filter><filter id="fx2" x="-10%" y="-10%" width="120%" height="120%" filterUnits="userSpaceOnUse" primitiveUnits="userSpaceOnUse"><feComponentTransfer color-interpolation-filters="sRGB"><feFuncR type="discrete" tableValues="0.000000 0.000000"/><feFuncG type="discrete" tableValues="0.000000 0.000000"/><feFuncB type="discrete" tableValues="0.000000 0.000000"/><feFuncA type="linear" slope="0.101961" intercept="0.000000"/></feComponentTransfer><feGaussianBlur stdDeviation="1.527778 1.527778"/></filter><filter id="fx3" x="-10%" y="-10%" width="120%" height="120%" filterUnits="userSpaceOnUse" primitiveUnits="userSpaceOnUse"><feComponentTransfer color-interpolation-filters="sRGB"><feFuncR type="discrete" tableValues="0.000000 0.000000"/><feFuncG type="discrete" tableValues="0.000000 0.000000"/><feFuncB type="discrete" tableValues="0.000000 0.000000"/><feFuncA type="linear" slope="0.101961" intercept="0.000000"/></feComponentTransfer><feGaussianBlur stdDeviation="1.527778 1.527778"/></filter><clipPath id="clip4"><path d="M1336 1516C1312.25 1516 1293 1535.25 1293 1559 1293 1582.75 1312.25 1602 1336 1602 1359.75 1602 1379 1582.75 1379 1559 1379 1535.25 1359.75 1516 1336 1516ZM59 68 4015 68 4015 2250 59 2250Z" fill-rule="evenodd" clip-rule="evenodd"/></clipPath><clipPath id="clip5"><path d="M1908.5 1197C1885.03 1197 1866 1216.25 1866 1240 1866 1263.75 1885.03 1283 1908.5 1283 1931.97 1283 1951 1263.75 1951 1240 1951 1216.25 1931.97 1197 1908.5 1197ZM59 68 4015 68 4015 2250 59 2250Z" fill-rule="evenodd" clip-rule="evenodd"/></clipPath><clipPath id="clip6"><path d="M2608 908C2584.25 908 2565 927.028 2565 950.5 2565 973.972 2584.25 993 2608 993 2631.75 993 2651 973.972 2651 950.5 2651 927.028 2631.75 908 2608 908ZM59 68 4015 68 4015 2250 59 2250Z" fill-rule="evenodd" clip-rule="evenodd"/></clipPath><clipPath id="clip7"><path d="M3244.5 647C3221.03 647 3202 666.252 3202 690 3202 713.748 3221.03 733 3244.5 733 3267.97 733 3287 713.748 3287 690 3287 666.252 3267.97 647 3244.5 647ZM59 68 4015 68 4015 2250 59 2250Z" fill-rule="evenodd" clip-rule="evenodd"/></clipPath></defs><g transform="translate(-59 -68)"><g><text fill="#111827" fill-opacity="1" font-family="Aptos,Aptos_MSFontService,sans-serif" font-style="normal" font-variant="normal" font-weight="700" font-stretch="normal" font-size="105" text-anchor="start" direction="ltr" writing-mode="lr-tb" unicode-bidi="normal" text-decoration="none" transform="matrix(1 0 0 1 819.97 199)">Typical computational trade</text><text fill="#111827" fill-opacity="1" font-family="Aptos,Aptos_MSFontService,sans-serif" font-style="normal" font-variant="normal" font-weight="700" font-stretch="normal" font-size="105" text-anchor="start" direction="ltr" writing-mode="lr-tb" unicode-bidi="normal" text-decoration="none" transform="matrix(1 0 0 1 2158.35 199)">-</text><text fill="#111827" fill-opacity="1" font-family="Aptos,Aptos_MSFontService,sans-serif" font-style="normal" font-variant="normal" font-weight="700" font-stretch="normal" font-size="105" text-anchor="start" direction="ltr" writing-mode="lr-tb" unicode-bidi="normal" text-decoration="none" transform="matrix(1 0 0 1 2194.44 199)">off among CCD architectures</text><path d="M1247 274 3155 274" stroke="#E5E7EB" stroke-width="5.5" stroke-linecap="butt" stroke-linejoin="round" stroke-miterlimit="10" stroke-opacity="1" fill="none" fill-rule="evenodd"/><path d="M700.5 429.5 700.5 1878.5" stroke="#E5E7EB" stroke-width="3.20833" stroke-linecap="butt" stroke-linejoin="round" stroke-miterlimit="10" stroke-opacity="0.85098" fill="none" fill-rule="evenodd"/><path d="M700.5 1878.5 3881.5 1878.5" stroke="#E5E7EB" stroke-width="3.20833" stroke-linecap="butt" stroke-linejoin="round" stroke-miterlimit="10" stroke-opacity="0.85098" fill="none" fill-rule="evenodd"/><path d="M1336.5 429.5 1336.5 1878.5" stroke="#E5E7EB" stroke-width="3.20833" stroke-linecap="butt" stroke-linejoin="round" stroke-miterlimit="10" stroke-opacity="0.85098" fill="none" fill-rule="evenodd"/><path d="M700.5 1588.5 3881.5 1588.5" stroke="#E5E7EB" stroke-width="3.20833" stroke-linecap="butt" stroke-linejoin="round" stroke-miterlimit="10" stroke-opacity="0.85098" fill="none" fill-rule="evenodd"/><path d="M1972.5 429.5 1972.5 1878.5" stroke="#E5E7EB" stroke-width="3.20833" stroke-linecap="butt" stroke-linejoin="round" stroke-miterlimit="10" stroke-opacity="0.85098" fill="none" fill-rule="evenodd"/><path d="M700.5 1298.5 3881.5 1298.5" stroke="#E5E7EB" stroke-width="3.20833" stroke-linecap="butt" stroke-linejoin="round" stroke-miterlimit="10" stroke-opacity="0.85098" fill="none" fill-rule="evenodd"/><path d="M2608.5 429.5 2608.5 1878.5" stroke="#E5E7EB" stroke-width="3.20833" stroke-linecap="butt" stroke-linejoin="round" stroke-miterlimit="10" stroke-opacity="0.85098" fill="none" fill-rule="evenodd"/><path d="M700.5 1008.5 3881.5 1008.5" stroke="#E5E7EB" stroke-width="3.20833" stroke-linecap="butt" stroke-linejoin="round" stroke-miterlimit="10" stroke-opacity="0.85098" fill="none" fill-rule="evenodd"/><path d="M3245.5 429.5 3245.5 1878.5" stroke="#E5E7EB" stroke-width="3.20833" stroke-linecap="butt" stroke-linejoin="round" stroke-miterlimit="10" stroke-opacity="0.85098" fill="none" fill-rule="evenodd"/><path d="M700.5 719.5 3881.5 719.5" stroke="#E5E7EB" stroke-width="3.20833" stroke-linecap="butt" stroke-linejoin="round" stroke-miterlimit="10" stroke-opacity="0.85098" fill="none" fill-rule="evenodd"/><path d="M3881.5 429.5 3881.5 1878.5" stroke="#E5E7EB" stroke-width="3.20833" stroke-linecap="butt" stroke-linejoin="round" stroke-miterlimit="10" stroke-opacity="0.85098" fill="none" fill-rule="evenodd"/><path d="M700.5 429.5 3881.5 429.5" stroke="#E5E7EB" stroke-width="3.20833" stroke-linecap="butt" stroke-linejoin="round" stroke-miterlimit="10" stroke-opacity="0.85098" fill="none" fill-rule="evenodd"/><path d="M700 1878 3881 1878" stroke="#111827" stroke-width="5.5" stroke-linecap="butt" stroke-linejoin="round" stroke-miterlimit="10" stroke-opacity="1" fill="none" fill-rule="evenodd"/><path d="M700 1878 700 1904" stroke="#111827" stroke-width="4.125" stroke-linecap="butt" stroke-linejoin="round" stroke-miterlimit="10" stroke-opacity="1" fill="none" fill-rule="evenodd"/><path d="M673 1878 700 1878" stroke="#111827" stroke-width="4.125" stroke-linecap="butt" stroke-linejoin="round" stroke-miterlimit="10" stroke-opacity="1" fill="none" fill-rule="evenodd"/><text fill="#111827" fill-opacity="1" font-family="Aptos,Aptos_MSFontService,sans-serif" font-style="normal" font-variant="normal" font-weight="400" font-stretch="normal" font-size="48" text-anchor="start" direction="ltr" writing-mode="lr-tb" unicode-bidi="normal" text-decoration="none" transform="matrix(1 0 0 1 604.129 1893)">0</text><path d="M1336 1878 1336 1904" stroke="#111827" stroke-width="4.125" stroke-linecap="butt" stroke-linejoin="round" stroke-miterlimit="10" stroke-opacity="1" fill="none" fill-rule="evenodd"/><path d="M673 1588 700 1588" stroke="#111827" stroke-width="4.125" stroke-linecap="butt" stroke-linejoin="round" stroke-miterlimit="10" stroke-opacity="1" fill="none" fill-rule="evenodd"/><text fill="#111827" fill-opacity="1" font-family="Aptos,Aptos_MSFontService,sans-serif" font-style="normal" font-variant="normal" font-weight="400" font-stretch="normal" font-size="48" text-anchor="start" direction="ltr" writing-mode="lr-tb" unicode-bidi="normal" text-decoration="none" transform="matrix(1 0 0 1 1322.95 1969)">2</text><text fill="#111827" fill-opacity="1" font-family="Aptos,Aptos_MSFontService,sans-serif" font-style="normal" font-variant="normal" font-weight="400" font-stretch="normal" font-size="48" text-anchor="start" direction="ltr" writing-mode="lr-tb" unicode-bidi="normal" text-decoration="none" transform="matrix(1 0 0 1 604.129 1603)">2</text><path d="M1972 1878 1972 1904" stroke="#111827" stroke-width="4.125" stroke-linecap="butt" stroke-linejoin="round" stroke-miterlimit="10" stroke-opacity="1" fill="none" fill-rule="evenodd"/><path d="M673 1298 700 1298" stroke="#111827" stroke-width="4.125" stroke-linecap="butt" stroke-linejoin="round" stroke-miterlimit="10" stroke-opacity="1" fill="none" fill-rule="evenodd"/><text fill="#111827" fill-opacity="1" font-family="Aptos,Aptos_MSFontService,sans-serif" font-style="normal" font-variant="normal" font-weight="400" font-stretch="normal" font-size="48" text-anchor="start" direction="ltr" writing-mode="lr-tb" unicode-bidi="normal" text-decoration="none" transform="matrix(1 0 0 1 1959.19 1969)">4</text><text fill="#111827" fill-opacity="1" font-family="Aptos,Aptos_MSFontService,sans-serif" font-style="normal" font-variant="normal" font-weight="400" font-stretch="normal" font-size="48" text-anchor="start" direction="ltr" writing-mode="lr-tb" unicode-bidi="normal" text-decoration="none" transform="matrix(1 0 0 1 604.129 1313)">4</text><path d="M2608 1878 2608 1904" stroke="#111827" stroke-width="4.125" stroke-linecap="butt" stroke-linejoin="round" stroke-miterlimit="10" stroke-opacity="1" fill="none" fill-rule="evenodd"/><path d="M673 1008 700 1008" stroke="#111827" stroke-width="4.125" stroke-linecap="butt" stroke-linejoin="round" stroke-miterlimit="10" stroke-opacity="1" fill="none" fill-rule="evenodd"/><text fill="#111827" fill-opacity="1" font-family="Aptos,Aptos_MSFontService,sans-serif" font-style="normal" font-variant="normal" font-weight="400" font-stretch="normal" font-size="48" text-anchor="start" direction="ltr" writing-mode="lr-tb" unicode-bidi="normal" text-decoration="none" transform="matrix(1 0 0 1 2595.43 1969)">6</text><text fill="#111827" fill-opacity="1" font-family="Aptos,Aptos_MSFontService,sans-serif" font-style="normal" font-variant="normal" font-weight="400" font-stretch="normal" font-size="48" text-anchor="start" direction="ltr" writing-mode="lr-tb" unicode-bidi="normal" text-decoration="none" transform="matrix(1 0 0 1 604.129 1024)">6</text><path d="M3245 1878 3245 1904" stroke="#111827" stroke-width="4.125" stroke-linecap="butt" stroke-linejoin="round" stroke-miterlimit="10" stroke-opacity="1" fill="none" fill-rule="evenodd"/><path d="M673 719 700 719" stroke="#111827" stroke-width="4.125" stroke-linecap="butt" stroke-linejoin="round" stroke-miterlimit="10" stroke-opacity="1" fill="none" fill-rule="evenodd"/><text fill="#111827" fill-opacity="1" font-family="Aptos,Aptos_MSFontService,sans-serif" font-style="normal" font-variant="normal" font-weight="400" font-stretch="normal" font-size="48" text-anchor="start" direction="ltr" writing-mode="lr-tb" unicode-bidi="normal" text-decoration="none" transform="matrix(1 0 0 1 3231.67 1969)">8</text><text fill="#111827" fill-opacity="1" font-family="Aptos,Aptos_MSFontService,sans-serif" font-style="normal" font-variant="normal" font-weight="400" font-stretch="normal" font-size="48" text-anchor="start" direction="ltr" writing-mode="lr-tb" unicode-bidi="normal" text-decoration="none" transform="matrix(1 0 0 1 604.129 734)">8</text><path d="M3881 1878 3881 1904" stroke="#111827" stroke-width="4.125" stroke-linecap="butt" stroke-linejoin="round" stroke-miterlimit="10" stroke-opacity="1" fill="none" fill-rule="evenodd"/><path d="M673 429 700 429" stroke="#111827" stroke-width="4.125" stroke-linecap="butt" stroke-linejoin="round" stroke-miterlimit="10" stroke-opacity="1" fill="none" fill-rule="evenodd"/><text fill="#111827" fill-opacity="1" font-family="Aptos,Aptos_MSFontService,sans-serif" font-style="normal" font-variant="normal" font-weight="400" font-stretch="normal" font-size="48" text-anchor="start" direction="ltr" writing-mode="lr-tb" unicode-bidi="normal" text-decoration="none" transform="matrix(1 0 0 1 3855.02 1969)">10</text><text fill="#111827" fill-opacity="1" font-family="Aptos,Aptos_MSFontService,sans-serif" font-style="normal" font-variant="normal" font-weight="400" font-stretch="normal" font-size="48" text-anchor="start" direction="ltr" writing-mode="lr-tb" unicode-bidi="normal" text-decoration="none" transform="matrix(1 0 0 1 578.348 444)">10</text><text fill="#111827" fill-opacity="1" font-family="Aptos,Aptos_MSFontService,sans-serif" font-style="normal" font-variant="normal" font-weight="400" font-stretch="normal" font-size="65" text-anchor="start" direction="ltr" writing-mode="lr-tb" unicode-bidi="normal" text-decoration="none" transform="matrix(1 0 0 1 1846.54 2100)">Modeling and implementation effort</text><text fill="#111827" fill-opacity="1" font-family="Aptos,Aptos_MSFontService,sans-serif" font-style="normal" font-variant="normal" font-weight="400" font-stretch="normal" font-size="52" text-anchor="start" direction="ltr" writing-mode="lr-tb" unicode-bidi="normal" text-decoration="none" transform="matrix(1 0 0 1 134.349 1025)">Coordination </text><text fill="#111827" fill-opacity="1" font-family="Aptos,Aptos_MSFontService,sans-serif" font-style="normal" font-variant="normal" font-weight="400" font-stretch="normal" font-size="52" text-anchor="start" direction="ltr" writing-mode="lr-tb" unicode-bidi="normal" text-decoration="none" transform="matrix(1 0 0 1 189.051 1088)">strength</text><text fill="#111827" fill-opacity="1" font-family="Aptos,Aptos_MSFontService,sans-serif" font-style="normal" font-variant="normal" font-weight="400" font-stretch="normal" font-size="52" text-anchor="start" direction="ltr" writing-mode="lr-tb" unicode-bidi="normal" text-decoration="none" transform="matrix(1 0 0 1 94.5197 1151)">/ solution quality</text><text fill="#111827" fill-opacity="1" font-family="Aptos,Aptos_MSFontService,sans-serif" font-style="normal" font-variant="normal" font-weight="400" font-stretch="normal" font-size="52" text-anchor="start" direction="ltr" writing-mode="lr-tb" unicode-bidi="normal" text-decoration="none" transform="matrix(1 0 0 1 181.603 1213)">potential</text><g clip-path="url(#clip4)"><g filter="url(#fx0)" transform="translate(1297 1520)"><g><g><path d="M8.9635 51.9635C8.9635 28.2152 28.2153 8.9635 51.9636 8.9635 75.712 8.9635 94.9638 28.2152 94.9638 51.9635 94.9638 75.7117 75.712 94.9634 51.9636 94.9634 28.2153 94.9634 8.9635 75.7117 8.9635 51.9635Z" stroke="#FFFFFF" stroke-width="5" stroke-linecap="butt" stroke-linejoin="round" stroke-miterlimit="10" stroke-opacity="1" fill="#0B3D68" fill-rule="evenodd" fill-opacity="1"/></g></g></g></g><path d="M1293 1559C1293 1535.25 1312.25 1516 1336 1516 1359.75 1516 1379 1535.25 1379 1559 1379 1582.75 1359.75 1602 1336 1602 1312.25 1602 1293 1582.75 1293 1559Z" stroke="#FFFFFF" stroke-width="5.5" stroke-linecap="butt" stroke-linejoin="round" stroke-miterlimit="10" stroke-opacity="1" fill="#0B3D68" fill-rule="evenodd" fill-opacity="1"/><text fill="#0B3D68" fill-opacity="1" font-family="Aptos,Aptos_MSFontService,sans-serif" font-style="normal" font-variant="normal" font-weight="400" font-stretch="normal" font-size="64" text-anchor="start" direction="ltr" writing-mode="lr-tb" unicode-bidi="normal" text-decoration="none" transform="matrix(1 0 0 1 1401.93 1520)">single</text><text fill="#0B3D68" fill-opacity="1" font-family="Aptos,Aptos_MSFontService,sans-serif" font-style="normal" font-variant="normal" font-weight="400" font-stretch="normal" font-size="64" text-anchor="start" direction="ltr" writing-mode="lr-tb" unicode-bidi="normal" text-decoration="none" transform="matrix(1 0 0 1 1565.21 1520)">-</text><text fill="#0B3D68" fill-opacity="1" font-family="Aptos,Aptos_MSFontService,sans-serif" font-style="normal" font-variant="normal" font-weight="400" font-stretch="normal" font-size="64" text-anchor="start" direction="ltr" writing-mode="lr-tb" unicode-bidi="normal" text-decoration="none" transform="matrix(1 0 0 1 1586.98 1520)">pass</text><g clip-path="url(#clip5)"><g filter="url(#fx1)" transform="translate(1870 1201)"><g><g><path d="M8.9635 51.9635C8.9635 28.2152 27.9915 8.9635 51.4636 8.9635 74.9358 8.9635 93.9638 28.2152 93.9638 51.9635 93.9638 75.7117 74.9358 94.9634 51.4636 94.9634 27.9915 94.9634 8.9635 75.7117 8.9635 51.9635Z" stroke="#FFFFFF" stroke-width="5" stroke-linecap="butt" stroke-linejoin="round" stroke-miterlimit="10" stroke-opacity="1" fill="#D97706" fill-rule="evenodd" fill-opacity="1"/></g></g></g></g><path d="M1866 1240C1866 1216.25 1885.03 1197 1908.5 1197 1931.97 1197 1951 1216.25 1951 1240 1951 1263.75 1931.97 1283 1908.5 1283 1885.03 1283 1866 1263.75 1866 1240Z" stroke="#FFFFFF" stroke-width="5.5" stroke-linecap="butt" stroke-linejoin="round" stroke-miterlimit="10" stroke-opacity="1" fill="#D97706" fill-rule="evenodd" fill-opacity="1"/><text fill="#D97706" fill-opacity="1" font-family="Aptos,Aptos_MSFontService,sans-serif" font-style="normal" font-variant="normal" font-weight="400" font-stretch="normal" font-size="64" text-anchor="start" direction="ltr" writing-mode="lr-tb" unicode-bidi="normal" text-decoration="none" transform="matrix(1 0 0 1 1981.15 1195)">iterative sequential</text><g clip-path="url(#clip6)"><g filter="url(#fx2)" transform="translate(2569 912)"><g><g><path d="M8.96362 51.4636C8.96362 27.9914 28.2154 8.96344 51.9636 8.96344 75.7118 8.96344 94.9636 27.9914 94.9636 51.4636 94.9636 74.9357 75.7118 93.9637 51.9636 93.9637 28.2154 93.9637 8.96362 74.9357 8.96362 51.4636Z" stroke="#FFFFFF" stroke-width="5" stroke-linecap="butt" stroke-linejoin="round" stroke-miterlimit="10" stroke-opacity="1" fill="#2E8B57" fill-rule="evenodd" fill-opacity="1"/></g></g></g></g><path d="M2565 950.5C2565 927.028 2584.25 908 2608 908 2631.75 908 2651 927.028 2651 950.5 2651 973.972 2631.75 993 2608 993 2584.25 993 2565 973.972 2565 950.5Z" stroke="#FFFFFF" stroke-width="5.5" stroke-linecap="butt" stroke-linejoin="round" stroke-miterlimit="10" stroke-opacity="1" fill="#2E8B57" fill-rule="evenodd" fill-opacity="1"/><text fill="#2E8B57" fill-opacity="1" font-family="Aptos,Aptos_MSFontService,sans-serif" font-style="normal" font-variant="normal" font-weight="400" font-stretch="normal" font-size="64" text-anchor="start" direction="ltr" writing-mode="lr-tb" unicode-bidi="normal" text-decoration="none" transform="matrix(1 0 0 1 2684.31 908)">nested CCD</text><g clip-path="url(#clip7)"><g filter="url(#fx3)" transform="translate(3206 651)"><g><g><path d="M8.96362 51.9635C8.96362 28.2153 27.9915 8.96356 51.4636 8.96356 74.9356 8.96356 93.9635 28.2153 93.9635 51.9635 93.9635 75.7118 74.9356 94.9635 51.4636 94.9635 27.9915 94.9635 8.96362 75.7118 8.96362 51.9635Z" stroke="#FFFFFF" stroke-width="5" stroke-linecap="butt" stroke-linejoin="round" stroke-miterlimit="10" stroke-opacity="1" fill="#7C3AED" fill-rule="evenodd" fill-opacity="1"/></g></g></g></g><path d="M3202 690C3202 666.252 3221.03 647 3244.5 647 3267.97 647 3287 666.252 3287 690 3287 713.748 3267.97 733 3244.5 733 3221.03 733 3202 713.748 3202 690Z" stroke="#FFFFFF" stroke-width="5.5" stroke-linecap="butt" stroke-linejoin="round" stroke-miterlimit="10" stroke-opacity="1" fill="#7C3AED" fill-rule="evenodd" fill-opacity="1"/><text fill="#7C3AED" fill-opacity="1" font-family="Aptos,Aptos_MSFontService,sans-serif" font-style="normal" font-variant="normal" font-weight="400" font-stretch="normal" font-size="64" text-anchor="start" direction="ltr" writing-mode="lr-tb" unicode-bidi="normal" text-decoration="none" transform="matrix(1 0 0 1 3320.55 648)">simultaneous CCD</text><path d="M752 2132.8C752 2121.87 760.865 2113 771.801 2113L3617.2 2113C3628.13 2113 3637 2121.87 3637 2132.8L3637 2225.2C3637 2236.13 3628.13 2245 3617.2 2245L771.801 2245C760.865 2245 752 2236.13 752 2225.2Z" stroke="#E5E7EB" stroke-width="3.66667" stroke-linecap="butt" stroke-linejoin="round" stroke-miterlimit="10" stroke-opacity="1" fill="#FFFFFF" fill-rule="evenodd" fill-opacity="1"/><text fill="#475569" fill-opacity="1" font-family="Aptos,Aptos_MSFontService,sans-serif" font-style="normal" font-variant="normal" font-weight="400" font-stretch="normal" font-size="50" text-anchor="start" direction="ltr" writing-mode="lr-tb" unicode-bidi="normal" text-decoration="none" transform="matrix(1 0 0 1 841.557 2195)">Moving right usually increases integration and solution </text><text fill="#475569" fill-opacity="1" font-family="Aptos,Aptos_MSFontService,sans-serif" font-style="normal" font-variant="normal" font-weight="400" font-stretch="normal" font-size="50" text-anchor="start" direction="ltr" writing-mode="lr-tb" unicode-bidi="normal" text-decoration="none" transform="matrix(1 0 0 1 2032.08 2195)">potential, but</text><text fill="#475569" fill-opacity="1" font-family="Aptos,Aptos_MSFontService,sans-serif" font-style="normal" font-variant="normal" font-weight="400" font-stretch="normal" font-size="50" text-anchor="start" direction="ltr" writing-mode="lr-tb" unicode-bidi="normal" text-decoration="none" transform="matrix(1 0 0 1 2334.01 2195)">also requires more modeling and implementation effort.</text></g></g></svg>