<svg width="3960" height="1865" xmlns="http://www.w3.org/2000/svg" xmlns:xlink="http://www.w3.org/1999/xlink" xml:space="preserve" overflow="hidden"><g transform="translate(-224 -142)"><g><path d="M231.5 425.877C231.5 409.653 244.652 396.5 260.877 396.5L4146.12 396.5C4162.35 396.5 4175.5 409.653 4175.5 425.877L4175.5 1968.12C4175.5 1984.35 4162.35 1997.5 4146.12 1997.5L260.877 1997.5C244.652 1997.5 231.5 1984.35 231.5 1968.12Z" stroke="#123F68" stroke-width="11.4583" stroke-linecap="butt" stroke-linejoin="round" stroke-miterlimit="10" stroke-opacity="1" fill="#EEF6FC" fill-rule="evenodd" fill-opacity="1"/><path d="M1466 194.064C1466 175.803 1480.8 161 1499.06 161L2900.94 161C2919.2 161 2934 175.803 2934 194.064L2934 332.936C2934 351.197 2919.2 366 2900.94 366L1499.06 366C1480.8 366 1466 351.197 1466 332.936Z" stroke="#2B8A5B" stroke-width="10.0833" stroke-linecap="butt" stroke-linejoin="round" stroke-miterlimit="10" stroke-opacity="1" fill="#FFFFFF" fill-rule="evenodd" fill-opacity="1"/><text fill="#2B8A5B" fill-opacity="1" font-family="Aptos,Aptos_MSFontService,sans-serif" font-style="normal" font-variant="normal" font-weight="700" font-stretch="normal" font-size="119" text-anchor="start" direction="ltr" writing-mode="lr-tb" unicode-bidi="normal" text-decoration="none" transform="matrix(1 0 0 1 1866.48 289)">Nested CCD</text><path d="M1139.5 512.402C1139.5 494.231 1154.23 479.5 1172.4 479.5L3234.6 479.5C3252.77 479.5 3267.5 494.231 3267.5 512.402L3267.5 650.598C3267.5 668.769 3252.77 683.5 3234.6 683.5L1172.4 683.5C1154.23 683.5 1139.5 668.769 1139.5 650.598Z" stroke="#2F6DA5" stroke-width="9.16667" stroke-linecap="butt" stroke-linejoin="round" stroke-miterlimit="10" stroke-opacity="1" fill="#FFFFFF" fill-rule="evenodd" fill-opacity="1"/><text fill="#123F68" fill-opacity="1" font-family="Aptos,Aptos_MSFontService,sans-serif" font-style="normal" font-variant="normal" font-weight="700" font-stretch="normal" font-size="101" text-anchor="start" direction="ltr" writing-mode="lr-tb" unicode-bidi="normal" text-decoration="none" transform="matrix(1 0 0 1 1507.55 610)">Outer level: plant optimization</text><path d="M1403 1167.19 1609.94 1167.19 1609.94 1176.81 1403 1176.81ZM1605.12 1157.56 1634 1172 1605.12 1186.44Z" fill="#556170" fill-rule="nonzero" fill-opacity="1"/><path d="M2921 1167.19 3127.94 1167.19 3127.94 1176.81 2921 1176.81ZM3123.12 1157.56 3152 1172 3123.12 1186.44Z" fill="#556170" fill-rule="nonzero" fill-opacity="1"/><path d="M413.5 974.501C413.5 956.275 428.275 941.5 446.501 941.5L1370.5 941.5C1388.72 941.5 1403.5 956.275 1403.5 974.501L1403.5 1370.5C1403.5 1388.72 1388.72 1403.5 1370.5 1403.5L446.501 1403.5C428.275 1403.5 413.5 1388.72 413.5 1370.5Z" stroke="#2F6DA5" stroke-width="9.16667" stroke-linecap="butt" stroke-linejoin="round" stroke-miterlimit="10" stroke-opacity="1" fill="#FFFFFF" fill-rule="evenodd" fill-opacity="1"/><text fill="#1F2A35" fill-opacity="1" font-family="Aptos,Aptos_MSFontService,sans-serif" font-style="normal" font-variant="normal" font-weight="400" font-stretch="normal" font-size="87" text-anchor="start" direction="ltr" writing-mode="lr-tb" unicode-bidi="normal" text-decoration="none" transform="matrix(1 0 0 1 655.13 1093)">Choose plant</text><text fill="#1F2A35" fill-opacity="1" font-family="Aptos,Aptos_MSFontService,sans-serif" font-style="normal" font-variant="normal" font-weight="400" font-stretch="normal" font-size="87" text-anchor="start" direction="ltr" writing-mode="lr-tb" unicode-bidi="normal" text-decoration="none" transform="matrix(1 0 0 1 736.622 1176)">variables </text><text fill="#1F2A35" fill-opacity="1" font-family="Aptos,Aptos_MSFontService,sans-serif" font-style="italic" font-variant="normal" font-weight="400" font-stretch="normal" font-size="87" text-anchor="start" direction="ltr" writing-mode="lr-tb" unicode-bidi="normal" text-decoration="none" transform="matrix(1 0 0 1 873.411 1260)">x</text><text fill="#1F2A35" fill-opacity="1" font-family="Segoe UI Symbol,Segoe UI Symbol_MSFontService,sans-serif" font-style="oblique" font-variant="normal" font-weight="400" font-stretch="normal" font-size="87" text-anchor="start" direction="ltr" writing-mode="lr-tb" unicode-bidi="normal" text-decoration="none" transform="matrix(1 0 0 1 911.797 1260)">ₚ</text><path d="M1634 875C1634 856.774 1648.77 842 1667 842L2888 842C2906.23 842 2921 856.774 2921 875L2921 1469C2921 1487.23 2906.23 1502 2888 1502L1667 1502C1648.77 1502 1634 1487.23 1634 1469Z" stroke="#D97900" stroke-width="10.0833" stroke-linecap="butt" stroke-linejoin="round" stroke-miterlimit="10" stroke-opacity="1" fill="#FFF4E3" fill-rule="evenodd" fill-opacity="1"/><text fill="#D97900" fill-opacity="1" font-family="Aptos,Aptos_MSFontService,sans-serif" font-style="normal" font-variant="normal" font-weight="700" font-stretch="normal" font-size="83" text-anchor="start" direction="ltr" writing-mode="lr-tb" unicode-bidi="normal" text-decoration="none" transform="matrix(1 0 0 1 1859.44 977)">Inner level: controller </text><text fill="#D97900" fill-opacity="1" font-family="Aptos,Aptos_MSFontService,sans-serif" font-style="normal" font-variant="normal" font-weight="700" font-stretch="normal" font-size="83" text-anchor="start" direction="ltr" writing-mode="lr-tb" unicode-bidi="normal" text-decoration="none" transform="matrix(1 0 0 1 1669.25 1076)">optimization for each candidate </text><text fill="#D97900" fill-opacity="1" font-family="Aptos,Aptos_MSFontService,sans-serif" font-style="normal" font-variant="normal" font-weight="700" font-stretch="normal" font-size="83" text-anchor="start" direction="ltr" writing-mode="lr-tb" unicode-bidi="normal" text-decoration="none" transform="matrix(1 0 0 1 2164.94 1175)">plant</text><text fill="#1F2A35" fill-opacity="1" font-family="Aptos,Aptos_MSFontService,sans-serif" font-style="normal" font-variant="normal" font-weight="400" font-stretch="normal" font-size="69" text-anchor="start" direction="ltr" writing-mode="lr-tb" unicode-bidi="normal" text-decoration="none" transform="matrix(1 0 0 1 1874.54 1291)">solve for the best controller</text><text fill="#1F2A35" fill-opacity="1" font-family="Aptos,Aptos_MSFontService,sans-serif" font-style="normal" font-variant="normal" font-weight="400" font-stretch="normal" font-size="69" text-anchor="start" direction="ltr" writing-mode="lr-tb" unicode-bidi="normal" text-decoration="none" transform="matrix(1 0 0 1 1888.84 1374)">performance for that plant</text><path d="M3152.5 974.501C3152.5 956.275 3167.27 941.5 3185.5 941.5L3993.5 941.5C4011.72 941.5 4026.5 956.275 4026.5 974.501L4026.5 1370.5C4026.5 1388.73 4011.72 1403.5 3993.5 1403.5L3185.5 1403.5C3167.27 1403.5 3152.5 1388.73 3152.5 1370.5Z" stroke="#2B8A5B" stroke-width="9.16667" stroke-linecap="butt" stroke-linejoin="round" stroke-miterlimit="10" stroke-opacity="1" fill="#FFFFFF" fill-rule="evenodd" fill-opacity="1"/><text fill="#1F2A35" fill-opacity="1" font-family="Aptos,Aptos_MSFontService,sans-serif" font-style="normal" font-variant="normal" font-weight="400" font-stretch="normal" font-size="87" text-anchor="start" direction="ltr" writing-mode="lr-tb" unicode-bidi="normal" text-decoration="none" transform="matrix(1 0 0 1 3317.47 1112)">Evaluate outer</text><text fill="#1F2A35" fill-opacity="1" font-family="Aptos,Aptos_MSFontService,sans-serif" font-style="normal" font-variant="normal" font-weight="400" font-stretch="normal" font-size="87" text-anchor="start" direction="ltr" writing-mode="lr-tb" unicode-bidi="normal" text-decoration="none" transform="matrix(1 0 0 1 3417.57 1217)">objective</text><text fill="#2B8A5B" fill-opacity="1" font-family="Aptos,Aptos_MSFontService,sans-serif" font-style="italic" font-variant="normal" font-weight="400" font-stretch="normal" font-size="69" text-anchor="start" direction="ltr" writing-mode="lr-tb" unicode-bidi="normal" text-decoration="none" transform="matrix(1 0 0 1 3528.66 1316)">J(x</text><text fill="#2B8A5B" fill-opacity="1" font-family="Segoe UI Symbol,Segoe UI Symbol_MSFontService,sans-serif" font-style="oblique" font-variant="normal" font-weight="400" font-stretch="normal" font-size="69" text-anchor="start" direction="ltr" writing-mode="lr-tb" unicode-bidi="normal" text-decoration="none" transform="matrix(1 0 0 1 3602 1316)">ₚ</text><text fill="#2B8A5B" fill-opacity="1" font-family="Aptos,Aptos_MSFontService,sans-serif" font-style="italic" font-variant="normal" font-weight="400" font-stretch="normal" font-size="69" text-anchor="start" direction="ltr" writing-mode="lr-tb" unicode-bidi="normal" text-decoration="none" transform="matrix(1 0 0 1 3625.49 1316)">)</text><path d="M578 1681.08C578 1662.81 592.81 1648 611.079 1648L3794.92 1648C3813.19 1648 3828 1662.81 3828 1681.08L3828 1872.92C3828 1891.19 3813.19 1906 3794.92 1906L611.079 1906C592.81 1906 578 1891.19 578 1872.92Z" stroke="#5F6B7A" stroke-width="5.5" stroke-linecap="butt" stroke-linejoin="round" stroke-miterlimit="10" stroke-opacity="1" fill="#FFFFFF" fill-rule="evenodd" fill-opacity="1"/><text fill="#5F6B7A" fill-opacity="1" font-family="Aptos,Aptos_MSFontService,sans-serif" font-style="normal" font-variant="normal" font-weight="400" font-stretch="normal" font-size="78" text-anchor="start" direction="ltr" writing-mode="lr-tb" unicode-bidi="normal" text-decoration="none" transform="matrix(1 0 0 1 765.99 1796)">The inner problem supplies the best controller performance achievable for each plant.</text><path d="M3596.41 1400 3596.41 1557.32 904.844 1557.32 904.844 1430.36 915.156 1430.36 915.156 1552.17 910 1547.01 3591.25 1547.01 3586.09 1552.17 3586.09 1400ZM894.531 1435.52 910 1404.58 925.469 1435.52Z" fill="#4472C4" fill-rule="nonzero" fill-opacity="1"/></g></g></svg>