<svg width="3809" height="1769" xmlns="http://www.w3.org/2000/svg" xmlns:xlink="http://www.w3.org/1999/xlink" xml:space="preserve" overflow="hidden"><g transform="translate(-297 -110)"><g><path d="M304.5 427.546C304.5 406.534 321.534 389.5 342.546 389.5L4061.45 389.5C4082.47 389.5 4099.5 406.534 4099.5 427.546L4099.5 1832.45C4099.5 1853.47 4082.47 1870.5 4061.45 1870.5L342.546 1870.5C321.534 1870.5 304.5 1853.47 304.5 1832.45Z" stroke="#7C3AED" stroke-width="11" stroke-linecap="butt" stroke-linejoin="round" stroke-miterlimit="10" stroke-opacity="1" fill="#FFF2CC" fill-rule="evenodd" fill-opacity="1"/><path d="M1502.5 159.275C1502.5 135.651 1521.65 116.5 1545.27 116.5L2861.73 116.5C2885.35 116.5 2904.5 135.651 2904.5 159.275L2904.5 277.725C2904.5 301.349 2885.35 320.5 2861.73 320.5L1545.27 320.5C1521.65 320.5 1502.5 301.349 1502.5 277.725Z" stroke="#7C3AED" stroke-width="9.16667" stroke-linecap="butt" stroke-linejoin="round" stroke-miterlimit="10" stroke-opacity="1" fill="#FFFFFF" fill-rule="evenodd" fill-opacity="1"/><text fill="#7C3AED" fill-opacity="1" font-family="Aptos,Aptos_MSFontService,sans-serif" font-style="normal" font-variant="normal" font-weight="700" font-stretch="normal" font-size="110" text-anchor="start" direction="ltr" writing-mode="lr-tb" unicode-bidi="normal" text-decoration="none" transform="matrix(1 0 0 1 1725.85 254)">Simultaneous CCD</text><path d="M693.5 545.501C693.5 527.275 708.275 512.5 726.501 512.5L3680.5 512.5C3698.73 512.5 3713.5 527.275 3713.5 545.501L3713.5 710.499C3713.5 728.725 3698.73 743.5 3680.5 743.5L726.501 743.5C708.275 743.5 693.5 728.725 693.5 710.499Z" stroke="#7C3AED" stroke-width="9.16667" stroke-linecap="butt" stroke-linejoin="round" stroke-miterlimit="10" stroke-opacity="1" fill="#FFFFFF" fill-rule="evenodd" fill-opacity="1"/><text fill="#7C3AED" fill-opacity="1" font-family="Aptos,Aptos_MSFontService,sans-serif" font-style="normal" font-variant="normal" font-weight="700" font-stretch="normal" font-size="78" text-anchor="start" direction="ltr" writing-mode="lr-tb" unicode-bidi="normal" text-decoration="none" transform="matrix(1 0 0 1 1241.59 604)">One optimization problem containing plant, controller,</text><text fill="#7C3AED" fill-opacity="1" font-family="Aptos,Aptos_MSFontService,sans-serif" font-style="normal" font-variant="normal" font-weight="700" font-stretch="normal" font-size="78" text-anchor="start" direction="ltr" writing-mode="lr-tb" unicode-bidi="normal" text-decoration="none" transform="matrix(1 0 0 1 1627.42 688)">and trajectory variables together</text><path d="M469 1039.96C469 1021.76 483.756 1007 501.958 1007L1155.04 1007C1173.24 1007 1188 1021.76 1188 1039.96L1188 1353.04C1188 1371.24 1173.24 1386 1155.04 1386L501.958 1386C483.756 1386 469 1371.24 469 1353.04Z" stroke="#0B3D68" stroke-width="10.0833" stroke-linecap="butt" stroke-linejoin="round" stroke-miterlimit="10" stroke-opacity="1" fill="#EEF7FF" fill-rule="evenodd" fill-opacity="1"/><text fill="#0B3D68" fill-opacity="1" font-family="Aptos,Aptos_MSFontService,sans-serif" font-style="normal" font-variant="normal" font-weight="700" font-stretch="normal" font-size="80" text-anchor="start" direction="ltr" writing-mode="lr-tb" unicode-bidi="normal" text-decoration="none" transform="matrix(1 0 0 1 732.634 1174)">Plant</text><text fill="#0B3D68" fill-opacity="1" font-family="Aptos,Aptos_MSFontService,sans-serif" font-style="normal" font-variant="normal" font-weight="700" font-stretch="normal" font-size="80" text-anchor="start" direction="ltr" writing-mode="lr-tb" unicode-bidi="normal" text-decoration="none" transform="matrix(1 0 0 1 619.334 1271)">variables x</text><text fill="#0B3D68" fill-opacity="1" font-family="Segoe UI Symbol,Segoe UI Symbol_MSFontService,sans-serif" font-style="normal" font-variant="normal" font-weight="700" font-stretch="normal" font-size="80" text-anchor="start" direction="ltr" writing-mode="lr-tb" unicode-bidi="normal" text-decoration="none" transform="matrix(1 0 0 1 1009.77 1271)">ₚ</text><path d="M1346 1039.96C1346 1021.76 1360.76 1007 1378.96 1007L2089.04 1007C2107.24 1007 2122 1021.76 2122 1039.96L2122 1353.04C2122 1371.24 2107.24 1386 2089.04 1386L1378.96 1386C1360.76 1386 1346 1371.24 1346 1353.04Z" stroke="#D97706" stroke-width="10.0833" stroke-linecap="butt" stroke-linejoin="round" stroke-miterlimit="10" stroke-opacity="1" fill="#FFF7E6" fill-rule="evenodd" fill-opacity="1"/><text fill="#D97706" fill-opacity="1" font-family="Aptos,Aptos_MSFontService,sans-serif" font-style="normal" font-variant="normal" font-weight="700" font-stretch="normal" font-size="80" text-anchor="start" direction="ltr" writing-mode="lr-tb" unicode-bidi="normal" text-decoration="none" transform="matrix(1 0 0 1 1547.24 1174)">Controller</text><text fill="#D97706" fill-opacity="1" font-family="Aptos,Aptos_MSFontService,sans-serif" font-style="normal" font-variant="normal" font-weight="700" font-stretch="normal" font-size="80" text-anchor="start" direction="ltr" writing-mode="lr-tb" unicode-bidi="normal" text-decoration="none" transform="matrix(1 0 0 1 1498.54 1270)">variables x_c</text><path d="M2251 1039.96C2251 1021.76 2265.76 1007 2283.96 1007L3056.04 1007C3074.24 1007 3089 1021.76 3089 1039.96L3089 1353.04C3089 1371.24 3074.24 1386 3056.04 1386L2283.96 1386C2265.76 1386 2251 1371.24 2251 1353.04Z" stroke="#2E7D4F" stroke-width="10.0833" stroke-linecap="butt" stroke-linejoin="round" stroke-miterlimit="10" stroke-opacity="1" fill="#F0FBF3" fill-rule="evenodd" fill-opacity="1"/><text fill="#2E7D4F" fill-opacity="1" font-family="Aptos,Aptos_MSFontService,sans-serif" font-style="normal" font-variant="normal" font-weight="700" font-stretch="normal" font-size="80" text-anchor="start" direction="ltr" writing-mode="lr-tb" unicode-bidi="normal" text-decoration="none" transform="matrix(1 0 0 1 2315.44 1174)">States and controls</text><text fill="#2E7D4F" fill-opacity="1" font-family="Aptos,Aptos_MSFontService,sans-serif" font-style="normal" font-variant="normal" font-weight="700" font-stretch="normal" font-size="80" text-anchor="start" direction="ltr" writing-mode="lr-tb" unicode-bidi="normal" text-decoration="none" transform="matrix(1 0 0 1 2499.46 1270)">over time</text><path d="M3234 1039.96C3234 1021.76 3248.76 1007 3266.96 1007L3845.04 1007C3863.24 1007 3878 1021.76 3878 1039.96L3878 1353.04C3878 1371.24 3863.24 1386 3845.04 1386L3266.96 1386C3248.76 1386 3234 1371.24 3234 1353.04Z" stroke="#B33A46" stroke-width="10.0833" stroke-linecap="butt" stroke-linejoin="round" stroke-miterlimit="10" stroke-opacity="1" fill="#FFFFFF" fill-rule="evenodd" fill-opacity="1"/><text fill="#B33A46" fill-opacity="1" font-family="Aptos,Aptos_MSFontService,sans-serif" font-style="normal" font-variant="normal" font-weight="700" font-stretch="normal" font-size="83" text-anchor="start" direction="ltr" writing-mode="lr-tb" unicode-bidi="normal" text-decoration="none" transform="matrix(1 0 0 1 3336.23 1223)">Constraints</text><path d="M1237.42 1191.92 1290.58 1191.92 1290.58 1201.08 1237.42 1201.08ZM1242 1210.25 1214.5 1196.5 1242 1182.75ZM1286 1182.75 1313.5 1196.5 1286 1210.25Z" fill="#6B7280" fill-rule="nonzero" fill-opacity="1"/><path d="M2171.42 1191.92 2195.58 1191.92 2195.58 1201.08 2171.42 1201.08ZM2176 1210.25 2148.5 1196.5 2176 1182.75ZM2191 1182.75 2218.5 1196.5 2191 1210.25Z" fill="#6B7280" fill-rule="nonzero" fill-opacity="1"/><path d="M3138.42 1191.92 3178.58 1191.92 3178.58 1201.08 3138.42 1201.08ZM3143 1210.25 3115.5 1196.5 3143 1182.75ZM3174 1182.75 3201.5 1196.5 3174 1210.25Z" fill="#6B7280" fill-rule="nonzero" fill-opacity="1"/><path d="M773 1494.96C773 1476.76 787.757 1462 805.96 1462L3594.04 1462C3612.24 1462 3627 1476.76 3627 1494.96L3627 1752.04C3627 1770.24 3612.24 1785 3594.04 1785L805.96 1785C787.757 1785 773 1770.24 773 1752.04Z" stroke="#7C3AED" stroke-width="8.25" stroke-linecap="butt" stroke-linejoin="round" stroke-miterlimit="10" stroke-opacity="1" fill="#FFFFFF" fill-rule="evenodd" fill-opacity="1"/><text fill="#7C3AED" fill-opacity="1" font-family="Aptos,Aptos_MSFontService,sans-serif" font-style="normal" font-variant="normal" font-weight="400" font-stretch="normal" font-size="71" text-anchor="start" direction="ltr" writing-mode="lr-tb" unicode-bidi="normal" text-decoration="none" transform="matrix(1 0 0 1 1063 1604)">Advantage: strongest coordination and direct access to coupled trade</text><text fill="#7C3AED" fill-opacity="1" font-family="Aptos,Aptos_MSFontService,sans-serif" font-style="normal" font-variant="normal" font-weight="400" font-stretch="normal" font-size="71" text-anchor="start" direction="ltr" writing-mode="lr-tb" unicode-bidi="normal" text-decoration="none" transform="matrix(1 0 0 1 3179.01 1604)">-</text><text fill="#7C3AED" fill-opacity="1" font-family="Aptos,Aptos_MSFontService,sans-serif" font-style="normal" font-variant="normal" font-weight="400" font-stretch="normal" font-size="71" text-anchor="start" direction="ltr" writing-mode="lr-tb" unicode-bidi="normal" text-decoration="none" transform="matrix(1 0 0 1 3203.07 1604)">offs.</text><text fill="#7C3AED" fill-opacity="1" font-family="Aptos,Aptos_MSFontService,sans-serif" font-style="normal" font-variant="normal" font-weight="400" font-stretch="normal" font-size="71" text-anchor="start" direction="ltr" writing-mode="lr-tb" unicode-bidi="normal" text-decoration="none" transform="matrix(1 0 0 1 1155.22 1689)">Challenge: larger and more difficult nonlinear programming problem.</text><path d="M875 851 3564 851" stroke="#7C3AED" stroke-width="5.5" stroke-linecap="butt" stroke-linejoin="round" stroke-miterlimit="10" stroke-opacity="0.501961" fill="none" fill-rule="evenodd"/><text fill="#7C3AED" fill-opacity="1" font-family="Aptos,Aptos_MSFontService,sans-serif" font-style="italic" font-variant="normal" font-weight="400" font-stretch="normal" font-size="57" text-anchor="start" direction="ltr" writing-mode="lr-tb" unicode-bidi="normal" text-decoration="none" transform="matrix(1 0 0 1 1708.63 832)">all decision variables optimized together</text></g></g></svg>