<svg width="3721" height="1962" xmlns="http://www.w3.org/2000/svg" xmlns:xlink="http://www.w3.org/1999/xlink" xml:space="preserve" overflow="hidden"><g transform="translate(-339 -137)"><g><path d="M1203 179.056C1203 160.8 1217.8 146 1236.06 146L3166.94 146C3185.2 146 3200 160.8 3200 179.056L3200 350.944C3200 369.2 3185.2 384 3166.94 384L1236.06 384C1217.8 384 1203 369.2 1203 350.944Z" stroke="#2B6CB0" stroke-width="9.625" stroke-linecap="butt" stroke-linejoin="round" stroke-miterlimit="10" stroke-opacity="1" fill="#FFFFFF" fill-rule="evenodd" fill-opacity="1"/><text fill="#0B3B66" fill-opacity="1" font-family="Aptos,Aptos_MSFontService,sans-serif" font-style="normal" font-variant="normal" font-weight="400" font-stretch="normal" font-size="78" text-anchor="start" direction="ltr" writing-mode="lr-tb" unicode-bidi="normal" text-decoration="none" transform="matrix(1 0 0 1 1443.47 287)">Same target problem, different solution paths</text><text fill="#5B6673" fill-opacity="1" font-family="Aptos,Aptos_MSFontService,sans-serif" font-style="normal" font-variant="normal" font-weight="700" font-stretch="normal" font-size="73" text-anchor="start" direction="ltr" writing-mode="lr-tb" unicode-bidi="normal" text-decoration="none" transform="matrix(1 0 0 1 1786.53 520)">same optimization target</text><path d="M2012 1137.04 2355.21 1137.04 2355.21 1148.96 2012 1148.96ZM2349.25 1125.13 2385 1143 2349.25 1160.88Z" fill="#5B6673" fill-rule="nonzero" fill-opacity="1"/><path d="M345 654.438C345 639.837 356.837 628 371.438 628L1754.56 628C1769.16 628 1781 639.837 1781 654.438L1781 1513.56C1781 1528.16 1769.16 1540 1754.56 1540L371.438 1540C356.837 1540 345 1528.16 345 1513.56Z" stroke="#2E8B57" stroke-width="9.625" stroke-linecap="butt" stroke-linejoin="round" stroke-miterlimit="10" stroke-opacity="1" fill="#EAF6EF" fill-rule="evenodd" fill-opacity="1"/><text fill="#2E8B57" fill-opacity="1" font-family="Aptos,Aptos_MSFontService,sans-serif" font-style="normal" font-variant="normal" font-weight="700" font-stretch="normal" font-size="105" text-anchor="start" direction="ltr" writing-mode="lr-tb" unicode-bidi="normal" text-decoration="none" transform="matrix(1 0 0 1 730.812 846)">Mathematical</text><text fill="#2E8B57" fill-opacity="1" font-family="Aptos,Aptos_MSFontService,sans-serif" font-style="normal" font-variant="normal" font-weight="700" font-stretch="normal" font-size="105" text-anchor="start" direction="ltr" writing-mode="lr-tb" unicode-bidi="normal" text-decoration="none" transform="matrix(1 0 0 1 770.091 973)">equivalence</text><text fill="#2E8B57" fill-opacity="1" font-family="Aptos,Aptos_MSFontService,sans-serif" font-style="normal" font-variant="normal" font-weight="700" font-stretch="normal" font-size="83" text-anchor="start" direction="ltr" writing-mode="lr-tb" unicode-bidi="normal" text-decoration="none" transform="matrix(1 0 0 1 584.283 1186)">Under ideal assumptions, </text><text fill="#2E8B57" fill-opacity="1" font-family="Aptos,Aptos_MSFontService,sans-serif" font-style="normal" font-variant="normal" font-weight="700" font-stretch="normal" font-size="83" text-anchor="start" direction="ltr" writing-mode="lr-tb" unicode-bidi="normal" text-decoration="none" transform="matrix(1 0 0 1 450.748 1285)">different architectures can reach </text><text fill="#2E8B57" fill-opacity="1" font-family="Aptos,Aptos_MSFontService,sans-serif" font-style="normal" font-variant="normal" font-weight="700" font-stretch="normal" font-size="83" text-anchor="start" direction="ltr" writing-mode="lr-tb" unicode-bidi="normal" text-decoration="none" transform="matrix(1 0 0 1 445.775 1384)">the same mathematical solution.</text><path d="M2619 654.438C2619 639.837 2630.84 628 2645.44 628L4028.56 628C4043.16 628 4055 639.837 4055 654.438L4055 1513.56C4055 1528.16 4043.16 1540 4028.56 1540L2645.44 1540C2630.84 1540 2619 1528.16 2619 1513.56Z" stroke="#B63A47" stroke-width="9.625" stroke-linecap="butt" stroke-linejoin="round" stroke-miterlimit="10" stroke-opacity="1" fill="#FFFFFF" fill-rule="evenodd" fill-opacity="1"/><text fill="#B63A47" fill-opacity="1" font-family="Aptos,Aptos_MSFontService,sans-serif" font-style="normal" font-variant="normal" font-weight="700" font-stretch="normal" font-size="105" text-anchor="start" direction="ltr" writing-mode="lr-tb" unicode-bidi="normal" text-decoration="none" transform="matrix(1 0 0 1 3125.31 846)">Practical</text><text fill="#B63A47" fill-opacity="1" font-family="Aptos,Aptos_MSFontService,sans-serif" font-style="normal" font-variant="normal" font-weight="700" font-stretch="normal" font-size="105" text-anchor="start" direction="ltr" writing-mode="lr-tb" unicode-bidi="normal" text-decoration="none" transform="matrix(1 0 0 1 3065.08 973)">differences</text><text fill="#B63A47" fill-opacity="1" font-family="Aptos,Aptos_MSFontService,sans-serif" font-style="normal" font-variant="normal" font-weight="700" font-stretch="normal" font-size="76" text-anchor="start" direction="ltr" writing-mode="lr-tb" unicode-bidi="normal" text-decoration="none" transform="matrix(1 0 0 1 2761.48 1150)">Initialization, convergence speed, </text><text fill="#B63A47" fill-opacity="1" font-family="Aptos,Aptos_MSFontService,sans-serif" font-style="normal" font-variant="normal" font-weight="700" font-stretch="normal" font-size="76" text-anchor="start" direction="ltr" writing-mode="lr-tb" unicode-bidi="normal" text-decoration="none" transform="matrix(1 0 0 1 2774.93 1241)">numerical robustness, derivative </text><text fill="#B63A47" fill-opacity="1" font-family="Aptos,Aptos_MSFontService,sans-serif" font-style="normal" font-variant="normal" font-weight="700" font-stretch="normal" font-size="76" text-anchor="start" direction="ltr" writing-mode="lr-tb" unicode-bidi="normal" text-decoration="none" transform="matrix(1 0 0 1 2776.35 1331)">availability, software complexity, </text><text fill="#B63A47" fill-opacity="1" font-family="Aptos,Aptos_MSFontService,sans-serif" font-style="normal" font-variant="normal" font-weight="700" font-stretch="normal" font-size="76" text-anchor="start" direction="ltr" writing-mode="lr-tb" unicode-bidi="normal" text-decoration="none" transform="matrix(1 0 0 1 2918.6 1422)">and computational cost.</text><path d="M714 1889.92C714 1871.74 728.737 1857 746.915 1857L3651.08 1857C3669.26 1857 3684 1871.74 3684 1889.92L3684 2061.08C3684 2079.26 3669.26 2094 3651.08 2094L746.915 2094C728.737 2094 714 2079.26 714 2061.08Z" stroke="#0B3B66" stroke-width="9.625" stroke-linecap="butt" stroke-linejoin="round" stroke-miterlimit="10" stroke-opacity="1" fill="#F7FAFC" fill-rule="evenodd" fill-opacity="1"/><text fill="#2E8B57" fill-opacity="1" font-family="Aptos,Aptos_MSFontService,sans-serif" font-style="normal" font-variant="normal" font-weight="700" font-stretch="normal" font-size="87" text-anchor="start" direction="ltr" writing-mode="lr-tb" unicode-bidi="normal" text-decoration="none" transform="matrix(1 0 0 1 819.454 2003)">Mathematically equivalent </text><text fill="#1F2937" fill-opacity="1" font-family="Aptos,Aptos_MSFontService,sans-serif" font-style="normal" font-variant="normal" font-weight="400" font-stretch="normal" font-size="87" text-anchor="start" direction="ltr" writing-mode="lr-tb" unicode-bidi="normal" text-decoration="none" transform="matrix(1 0 0 1 1892.62 2003)">does not always mean  </text><text fill="#B63A47" fill-opacity="1" font-family="Aptos,Aptos_MSFontService,sans-serif" font-style="normal" font-variant="normal" font-weight="700" font-stretch="normal" font-size="87" text-anchor="start" direction="ltr" writing-mode="lr-tb" unicode-bidi="normal" text-decoration="none" transform="matrix(1 0 0 1 2765.42 2003)">practically identical</text><text fill="#B63A47" fill-opacity="1" font-family="Aptos,Aptos_MSFontService,sans-serif" font-style="normal" font-variant="normal" font-weight="700" font-stretch="normal" font-size="87" text-anchor="start" direction="ltr" writing-mode="lr-tb" unicode-bidi="normal" text-decoration="none" transform="matrix(1 0 0 1 3551.99 2003)">.</text><text fill="#2E8B57" fill-opacity="1" font-family="Aptos,Aptos_MSFontService,sans-serif" font-style="normal" font-variant="normal" font-weight="700" font-stretch="normal" font-size="64" text-anchor="start" direction="ltr" writing-mode="lr-tb" unicode-bidi="normal" text-decoration="none" transform="matrix(1 0 0 1 840.893 1726)">solution path A</text><text fill="#B63A47" fill-opacity="1" font-family="Aptos,Aptos_MSFontService,sans-serif" font-style="normal" font-variant="normal" font-weight="700" font-stretch="normal" font-size="64" text-anchor="start" direction="ltr" writing-mode="lr-tb" unicode-bidi="normal" text-decoration="none" transform="matrix(1 0 0 1 3121.19 1726)">solution path B</text></g></g></svg>