<svg width="3850" height="1843" xmlns="http://www.w3.org/2000/svg" xmlns:xlink="http://www.w3.org/1999/xlink" xml:space="preserve" overflow="hidden"><g transform="translate(-275 -100)"><g><path d="M2204.17 637.5 2204.17 795.583 2196.83 795.583 2196.83 637.5ZM2214.25 791 2200.5 818.5 2186.75 791Z" fill="#5C6673" fill-rule="nonzero" fill-opacity="1"/><path d="M2204.17 637.5 2204.17 795.583 2196.83 795.583 2196.83 637.5ZM2214.25 791 2200.5 818.5 2186.75 791Z" fill="#5C6673" fill-rule="nonzero" fill-opacity="1"/><path d="M2200.99 633.867 3511.29 811.783 3510.3 819.05 2200.01 641.133ZM3508.1 801.175 3533.5 818.5 3504.4 828.425Z" fill="#5C6673" fill-rule="nonzero" fill-opacity="1"/><path d="M870.125 1102 870.125 1267.08 861.875 1267.08 861.875 1102ZM879.75 1262.5 866 1290 852.25 1262.5Z" fill="#5C6673" fill-rule="nonzero" fill-opacity="1"/><path d="M2203.12 1102 2203.13 1267.08 2194.88 1267.08 2194.88 1102ZM2212.75 1262.5 2199 1290 2185.25 1262.5Z" fill="#5C6673" fill-rule="nonzero" fill-opacity="1"/><path d="M3537.12 1102 3537.13 1267.08 3528.88 1267.08 3528.88 1102ZM3546.75 1262.5 3533 1290 3519.25 1262.5Z" fill="#5C6673" fill-rule="nonzero" fill-opacity="1"/><path d="M1049.5 132.822C1049.5 118.285 1061.28 106.5 1075.82 106.5L3324.18 106.5C3338.72 106.5 3350.5 118.285 3350.5 132.822L3350.5 284.178C3350.5 298.715 3338.72 310.5 3324.18 310.5L1075.82 310.5C1061.28 310.5 1049.5 298.715 1049.5 284.178Z" stroke="#123B63" stroke-width="9.16667" stroke-linecap="butt" stroke-linejoin="round" stroke-miterlimit="10" stroke-opacity="1" fill="#FFFFFF" fill-rule="evenodd" fill-opacity="1"/><text fill="#123B63" fill-opacity="1" font-family="Aptos,Aptos_MSFontService,sans-serif" font-style="normal" font-variant="normal" font-weight="700" font-stretch="normal" font-size="92" text-anchor="start" direction="ltr" writing-mode="lr-tb" unicode-bidi="normal" text-decoration="none" transform="matrix(1 0 0 1 1313.09 238)">Choosing an appropriate CCD architecture</text><path d="M1403.5 422.911C1403.5 408.324 1415.32 396.5 1429.91 396.5L2970.09 396.5C2984.68 396.5 2996.5 408.324 2996.5 422.911L2996.5 611.089C2996.5 625.676 2984.68 637.5 2970.09 637.5L1429.91 637.5C1415.32 637.5 1403.5 625.676 1403.5 611.089Z" stroke="#123B63" stroke-width="9.16667" stroke-linecap="butt" stroke-linejoin="round" stroke-miterlimit="10" stroke-opacity="1" fill="#EAF2F8" fill-rule="evenodd" fill-opacity="1"/><text fill="#1F2933" fill-opacity="1" font-family="Aptos,Aptos_MSFontService,sans-serif" font-style="normal" font-variant="normal" font-weight="700" font-stretch="normal" font-size="78" text-anchor="start" direction="ltr" writing-mode="lr-tb" unicode-bidi="normal" text-decoration="none" transform="matrix(1 0 0 1 1466.25 542)">How strong is the plant</text><text fill="#1F2933" fill-opacity="1" font-family="Aptos,Aptos_MSFontService,sans-serif" font-style="normal" font-variant="normal" font-weight="700" font-stretch="normal" font-size="78" text-anchor="start" direction="ltr" writing-mode="lr-tb" unicode-bidi="normal" text-decoration="none" transform="matrix(1 0 0 1 2276.95 542)">–</text><text fill="#1F2933" fill-opacity="1" font-family="Aptos,Aptos_MSFontService,sans-serif" font-style="normal" font-variant="normal" font-weight="700" font-stretch="normal" font-size="78" text-anchor="start" direction="ltr" writing-mode="lr-tb" unicode-bidi="normal" text-decoration="none" transform="matrix(1 0 0 1 2313.05 542)">control coupling?</text><path d="M281.5 844.918C281.5 830.328 293.328 818.5 307.918 818.5L1426.08 818.5C1440.67 818.5 1452.5 830.328 1452.5 844.918L1452.5 1076.08C1452.5 1090.67 1440.67 1102.5 1426.08 1102.5L307.918 1102.5C293.328 1102.5 281.5 1090.67 281.5 1076.08Z" stroke="#2D6A9F" stroke-width="9.16667" stroke-linecap="butt" stroke-linejoin="round" stroke-miterlimit="10" stroke-opacity="1" fill="#FFFFFF" fill-rule="evenodd" fill-opacity="1"/><text fill="#1F2933" fill-opacity="1" font-family="Aptos,Aptos_MSFontService,sans-serif" font-style="normal" font-variant="normal" font-weight="400" font-stretch="normal" font-size="73" text-anchor="start" direction="ltr" writing-mode="lr-tb" unicode-bidi="normal" text-decoration="none" transform="matrix(1 0 0 1 633.417 940)">Weak coupling</text><text fill="#1F2933" fill-opacity="1" font-family="Aptos,Aptos_MSFontService,sans-serif" font-style="normal" font-variant="normal" font-weight="400" font-stretch="normal" font-size="73" text-anchor="start" direction="ltr" writing-mode="lr-tb" unicode-bidi="normal" text-decoration="none" transform="matrix(1 0 0 1 473.733 1028)">and fast iteration needed</text><path d="M1614.5 844.918C1614.5 830.328 1626.33 818.5 1640.92 818.5L2759.08 818.5C2773.67 818.5 2785.5 830.328 2785.5 844.918L2785.5 1076.08C2785.5 1090.67 2773.67 1102.5 2759.08 1102.5L1640.92 1102.5C1626.33 1102.5 1614.5 1090.67 1614.5 1076.08Z" stroke="#D97706" stroke-width="9.16667" stroke-linecap="butt" stroke-linejoin="round" stroke-miterlimit="10" stroke-opacity="1" fill="#FFFFFF" fill-rule="evenodd" fill-opacity="1"/><text fill="#1F2933" fill-opacity="1" font-family="Aptos,Aptos_MSFontService,sans-serif" font-style="normal" font-variant="normal" font-weight="400" font-stretch="normal" font-size="73" text-anchor="start" direction="ltr" writing-mode="lr-tb" unicode-bidi="normal" text-decoration="none" transform="matrix(1 0 0 1 1904.56 940)">Moderate coupling</text><text fill="#1F2933" fill-opacity="1" font-family="Aptos,Aptos_MSFontService,sans-serif" font-style="normal" font-variant="normal" font-weight="400" font-stretch="normal" font-size="73" text-anchor="start" direction="ltr" writing-mode="lr-tb" unicode-bidi="normal" text-decoration="none" transform="matrix(1 0 0 1 1775.93 1028)">and reusable subproblems</text><path d="M2947.5 844.918C2947.5 830.328 2959.33 818.5 2973.92 818.5L4092.08 818.5C4106.67 818.5 4118.5 830.328 4118.5 844.918L4118.5 1076.08C4118.5 1090.67 4106.67 1102.5 4092.08 1102.5L2973.92 1102.5C2959.33 1102.5 2947.5 1090.67 2947.5 1076.08Z" stroke="#7C3AED" stroke-width="9.16667" stroke-linecap="butt" stroke-linejoin="round" stroke-miterlimit="10" stroke-opacity="1" fill="#FFFFFF" fill-rule="evenodd" fill-opacity="1"/><text fill="#1F2933" fill-opacity="1" font-family="Aptos,Aptos_MSFontService,sans-serif" font-style="normal" font-variant="normal" font-weight="400" font-stretch="normal" font-size="73" text-anchor="start" direction="ltr" writing-mode="lr-tb" unicode-bidi="normal" text-decoration="none" transform="matrix(1 0 0 1 3285.36 940)">Strong coupling</text><text fill="#1F2933" fill-opacity="1" font-family="Aptos,Aptos_MSFontService,sans-serif" font-style="normal" font-variant="normal" font-weight="400" font-stretch="normal" font-size="73" text-anchor="start" direction="ltr" writing-mode="lr-tb" unicode-bidi="normal" text-decoration="none" transform="matrix(1 0 0 1 3156.82 1028)">and high fidelity needed</text><path d="M281.5 1332.86C281.5 1318.3 293.304 1306.5 307.864 1306.5L1426.14 1306.5C1440.7 1306.5 1452.5 1318.3 1452.5 1332.86L1452.5 1570.14C1452.5 1584.7 1440.7 1596.5 1426.14 1596.5L307.864 1596.5C293.304 1596.5 281.5 1584.7 281.5 1570.14Z" stroke="#123B63" stroke-width="9.16667" stroke-linecap="butt" stroke-linejoin="round" stroke-miterlimit="10" stroke-opacity="1" fill="#EAF2F8" fill-rule="evenodd" fill-opacity="1"/><text fill="#1F2933" fill-opacity="1" font-family="Aptos,Aptos_MSFontService,sans-serif" font-style="normal" font-variant="normal" font-weight="700" font-stretch="normal" font-size="83" text-anchor="start" direction="ltr" writing-mode="lr-tb" unicode-bidi="normal" text-decoration="none" transform="matrix(1 0 0 1 599.844 1428)">Single</text><text fill="#1F2933" fill-opacity="1" font-family="Aptos,Aptos_MSFontService,sans-serif" font-style="normal" font-variant="normal" font-weight="700" font-stretch="normal" font-size="83" text-anchor="start" direction="ltr" writing-mode="lr-tb" unicode-bidi="normal" text-decoration="none" transform="matrix(1 0 0 1 831.875 1428)">-</text><text fill="#1F2933" fill-opacity="1" font-family="Aptos,Aptos_MSFontService,sans-serif" font-style="normal" font-variant="normal" font-weight="700" font-stretch="normal" font-size="83" text-anchor="start" direction="ltr" writing-mode="lr-tb" unicode-bidi="normal" text-decoration="none" transform="matrix(1 0 0 1 859.948 1428)">pass or</text><text fill="#1F2933" fill-opacity="1" font-family="Aptos,Aptos_MSFontService,sans-serif" font-style="normal" font-variant="normal" font-weight="700" font-stretch="normal" font-size="83" text-anchor="start" direction="ltr" writing-mode="lr-tb" unicode-bidi="normal" text-decoration="none" transform="matrix(1 0 0 1 504.831 1527)">iterative sequential</text><path d="M1614.5 1332.86C1614.5 1318.3 1626.3 1306.5 1640.86 1306.5L2759.14 1306.5C2773.7 1306.5 2785.5 1318.3 2785.5 1332.86L2785.5 1570.14C2785.5 1584.7 2773.7 1596.5 2759.14 1596.5L1640.86 1596.5C1626.3 1596.5 1614.5 1584.7 1614.5 1570.14Z" stroke="#2E8B57" stroke-width="9.16667" stroke-linecap="butt" stroke-linejoin="round" stroke-miterlimit="10" stroke-opacity="1" fill="#EAF7EF" fill-rule="evenodd" fill-opacity="1"/><text fill="#1F2933" fill-opacity="1" font-family="Aptos,Aptos_MSFontService,sans-serif" font-style="normal" font-variant="normal" font-weight="700" font-stretch="normal" font-size="83" text-anchor="start" direction="ltr" writing-mode="lr-tb" unicode-bidi="normal" text-decoration="none" transform="matrix(1 0 0 1 1968.75 1478)">Nested CCD</text><path d="M2947.5 1332.86C2947.5 1318.3 2959.3 1306.5 2973.86 1306.5L4092.14 1306.5C4106.7 1306.5 4118.5 1318.3 4118.5 1332.86L4118.5 1570.14C4118.5 1584.7 4106.7 1596.5 4092.14 1596.5L2973.86 1596.5C2959.3 1596.5 2947.5 1584.7 2947.5 1570.14Z" stroke="#7C3AED" stroke-width="9.16667" stroke-linecap="butt" stroke-linejoin="round" stroke-miterlimit="10" stroke-opacity="1" fill="#F5E9F7" fill-rule="evenodd" fill-opacity="1"/><text fill="#1F2933" fill-opacity="1" font-family="Aptos,Aptos_MSFontService,sans-serif" font-style="normal" font-variant="normal" font-weight="700" font-stretch="normal" font-size="83" text-anchor="start" direction="ltr" writing-mode="lr-tb" unicode-bidi="normal" text-decoration="none" transform="matrix(1 0 0 1 3175.13 1478)">Simultaneous CCD</text><path d="M752.5 1737.85C752.5 1723.3 764.299 1711.5 778.854 1711.5L3621.15 1711.5C3635.7 1711.5 3647.5 1723.3 3647.5 1737.85L3647.5 1909.15C3647.5 1923.7 3635.7 1935.5 3621.15 1935.5L778.854 1935.5C764.299 1935.5 752.5 1923.7 752.5 1909.15Z" stroke="#C4303E" stroke-width="9.16667" stroke-linecap="butt" stroke-linejoin="round" stroke-miterlimit="10" stroke-opacity="1" fill="#FFFFFF" fill-rule="evenodd" fill-opacity="1"/><text fill="#C4303E" fill-opacity="1" font-family="Aptos,Aptos_MSFontService,sans-serif" font-style="normal" font-variant="normal" font-weight="400" font-stretch="normal" font-size="64" text-anchor="start" direction="ltr" writing-mode="lr-tb" unicode-bidi="normal" text-decoration="none" transform="matrix(1 0 0 1 1236.11 1805)">Final choice should also consider solver availability, derivative quality,</text><text fill="#C4303E" fill-opacity="1" font-family="Aptos,Aptos_MSFontService,sans-serif" font-style="normal" font-variant="normal" font-weight="400" font-stretch="normal" font-size="64" text-anchor="start" direction="ltr" writing-mode="lr-tb" unicode-bidi="normal" text-decoration="none" transform="matrix(1 0 0 1 1577.53 1882)">computational budget, and team experience.</text><text fill="#5C6673" fill-opacity="1" font-family="Aptos,Aptos_MSFontService,sans-serif" font-style="normal" font-variant="normal" font-weight="400" font-stretch="normal" font-size="39" text-anchor="start" direction="ltr" writing-mode="lr-tb" unicode-bidi="normal" text-decoration="none" transform="matrix(1 0 0 1 2075.13 369)">Decision guide</text><path d="M0.496024-3.63296 1310.79 175.267 1309.8 182.533-0.496024 3.63296ZM1307.61 164.656 1333 182 1303.89 191.904Z" fill="#5C6673" fill-rule="nonzero" fill-opacity="1" transform="matrix(-1 0 0 1 2201.5 640.5)"/></g></g></svg>