<svg width="3649" height="1467" xmlns="http://www.w3.org/2000/svg" xmlns:xlink="http://www.w3.org/1999/xlink" xml:space="preserve" overflow="hidden"><defs><filter id="fx0" x="-10%" y="-10%" width="120%" height="120%" filterUnits="userSpaceOnUse" primitiveUnits="userSpaceOnUse"><feComponentTransfer color-interpolation-filters="sRGB"><feFuncR type="discrete" tableValues="0.843137 0.843137"/><feFuncG type="discrete" tableValues="0.870588 0.870588"/><feFuncB type="discrete" tableValues="0.909804 0.909804"/><feFuncA type="linear" slope="0.180392" intercept="0.000000"/></feComponentTransfer><feGaussianBlur stdDeviation="2.291667 2.291667"/></filter><filter id="fx1" x="-10%" y="-10%" width="120%" height="120%" filterUnits="userSpaceOnUse" primitiveUnits="userSpaceOnUse"><feComponentTransfer color-interpolation-filters="sRGB"><feFuncR type="discrete" tableValues="0.843137 0.843137"/><feFuncG type="discrete" tableValues="0.870588 0.870588"/><feFuncB type="discrete" tableValues="0.909804 0.909804"/><feFuncA type="linear" slope="0.180392" intercept="0.000000"/></feComponentTransfer><feGaussianBlur stdDeviation="2.291667 2.291667"/></filter><filter id="fx2" x="-10%" y="-10%" width="120%" height="120%" filterUnits="userSpaceOnUse" primitiveUnits="userSpaceOnUse"><feComponentTransfer color-interpolation-filters="sRGB"><feFuncR type="discrete" tableValues="0.843137 0.843137"/><feFuncG type="discrete" tableValues="0.870588 0.870588"/><feFuncB type="discrete" tableValues="0.909804 0.909804"/><feFuncA type="linear" slope="0.180392" intercept="0.000000"/></feComponentTransfer><feGaussianBlur stdDeviation="2.291667 2.291667"/></filter><filter id="fx3" x="-10%" y="-10%" width="120%" height="120%" filterUnits="userSpaceOnUse" primitiveUnits="userSpaceOnUse"><feComponentTransfer color-interpolation-filters="sRGB"><feFuncR type="discrete" tableValues="0.843137 0.843137"/><feFuncG type="discrete" tableValues="0.870588 0.870588"/><feFuncB type="discrete" tableValues="0.909804 0.909804"/><feFuncA type="linear" slope="0.180392" intercept="0.000000"/></feComponentTransfer><feGaussianBlur stdDeviation="2.291667 2.291667"/></filter><filter id="fx4" x="-10%" y="-10%" width="120%" height="120%" filterUnits="userSpaceOnUse" primitiveUnits="userSpaceOnUse"><feComponentTransfer color-interpolation-filters="sRGB"><feFuncR type="discrete" tableValues="0.843137 0.843137"/><feFuncG type="discrete" tableValues="0.870588 0.870588"/><feFuncB type="discrete" tableValues="0.909804 0.909804"/><feFuncA type="linear" slope="0.180392" intercept="0.000000"/></feComponentTransfer><feGaussianBlur stdDeviation="2.291667 2.291667"/></filter><filter id="fx5" x="-10%" y="-10%" width="120%" height="120%" filterUnits="userSpaceOnUse" primitiveUnits="userSpaceOnUse"><feComponentTransfer color-interpolation-filters="sRGB"><feFuncR type="discrete" tableValues="0.843137 0.843137"/><feFuncG type="discrete" tableValues="0.870588 0.870588"/><feFuncB type="discrete" tableValues="0.909804 0.909804"/><feFuncA type="linear" slope="0.180392" intercept="0.000000"/></feComponentTransfer><feGaussianBlur stdDeviation="2.291667 2.291667"/></filter><clipPath id="clip6"><path d="M416.299 561C396.252 561 380 577.252 380 597.299L380 986.701C380 1006.75 396.252 1023 416.299 1023L1267.7 1023C1287.75 1023 1304 1006.75 1304 986.701L1304 597.299C1304 577.252 1287.75 561 1267.7 561ZM256 247 3905 247 3905 1714 256 1714Z" fill-rule="evenodd" clip-rule="evenodd"/></clipPath><clipPath id="clip7"><path d="M1580.3 561C1560.25 561 1544 577.252 1544 597.299L1544 986.701C1544 1006.75 1560.25 1023 1580.3 1023L2580.7 1023C2600.75 1023 2617 1006.75 2617 986.701L2617 597.299C2617 577.252 2600.75 561 2580.7 561ZM256 247 3905 247 3905 1714 256 1714Z" fill-rule="evenodd" clip-rule="evenodd"/></clipPath><clipPath id="clip8"><path d="M2891.3 561C2871.25 561 2855 577.252 2855 597.299L2855 986.701C2855 1006.75 2871.25 1023 2891.3 1023L3659.7 1023C3679.75 1023 3696 1006.75 3696 986.701L3696 597.299C3696 577.252 3679.75 561 3659.7 561ZM256 247 3905 247 3905 1714 256 1714Z" fill-rule="evenodd" clip-rule="evenodd"/></clipPath><clipPath id="clip9"><path d="M300.352 1340C280.275 1340 264 1356.28 264 1376.35L264 1650.65C264 1670.72 280.275 1687 300.352 1687L1250.65 1687C1270.72 1687 1287 1670.72 1287 1650.65L1287 1376.35C1287 1356.28 1270.72 1340 1250.65 1340ZM256 247 3905 247 3905 1714 256 1714Z" fill-rule="evenodd" clip-rule="evenodd"/></clipPath><clipPath id="clip10"><path d="M1597.35 1340C1577.28 1340 1561 1356.28 1561 1376.35L1561 1650.65C1561 1670.72 1577.28 1687 1597.35 1687L2547.65 1687C2567.72 1687 2584 1670.72 2584 1650.65L2584 1376.35C2584 1356.28 2567.72 1340 2547.65 1340ZM256 247 3905 247 3905 1714 256 1714Z" fill-rule="evenodd" clip-rule="evenodd"/></clipPath><clipPath id="clip11"><path d="M2891.35 1340C2871.28 1340 2855 1356.28 2855 1376.35L2855 1650.65C2855 1670.72 2871.28 1687 2891.35 1687L3841.65 1687C3861.72 1687 3878 1670.72 3878 1650.65L3878 1376.35C3878 1356.28 3861.72 1340 3841.65 1340ZM256 247 3905 247 3905 1714 256 1714Z" fill-rule="evenodd" clip-rule="evenodd"/></clipPath></defs><g transform="translate(-256 -247)"><g><path d="M1036 288.064C1036 269.803 1050.8 255 1069.06 255L3064.94 255C3083.2 255 3098 269.803 3098 288.064L3098 426.936C3098 445.197 3083.2 460 3064.94 460L1069.06 460C1050.8 460 1036 445.197 1036 426.936Z" stroke="#D87500" stroke-width="8.25" stroke-linecap="butt" stroke-linejoin="round" stroke-miterlimit="10" stroke-opacity="1" fill="#FFFFFF" fill-rule="evenodd" fill-opacity="1"/><text fill="#D87500" fill-opacity="1" font-family="Aptos Display,Aptos Display_MSFontService,sans-serif" font-style="normal" font-variant="normal" font-weight="700" font-stretch="normal" font-size="110" text-anchor="start" direction="ltr" writing-mode="lr-tb" unicode-bidi="normal" text-decoration="none" transform="matrix(1 0 0 1 1454.67 383)">Iterative sequential design</text><path d="M1304.5 787 1517 787 1517 798 1304.5 798ZM1511.5 776 1544.5 792.5 1511.5 809Z" fill="#5D6875" fill-rule="nonzero" fill-opacity="1"/><path d="M2614.5 787 2828 787 2828 798 2614.5 798ZM2822.5 776 2855.5 792.5 2822.5 809Z" fill="#5D6875" fill-rule="nonzero" fill-opacity="1"/><path d="M2333.78 1136.33 2343.5 1165.5 2314.33 1155.78Z" fill="#7A3CFF" fill-rule="nonzero" fill-opacity="1"/><text fill="#7A3CFF" fill-opacity="1" font-family="Aptos,Aptos_MSFontService,sans-serif" font-style="normal" font-variant="normal" font-weight="400" font-stretch="normal" font-size="69" text-anchor="start" direction="ltr" writing-mode="lr-tb" unicode-bidi="normal" text-decoration="none" transform="matrix(1 0 0 1 1684.71 1180)">repeat until changes become small</text><g clip-path="url(#clip6)"><g filter="url(#fx0)" transform="translate(380 561)"><g><g><path d="M12.9635 49.2628C12.9635 29.2153 29.2151 12.9636 49.2626 12.9636L900.664 12.9636C920.712 12.9636 936.963 29.2153 936.963 49.2628L936.963 438.664C936.963 458.712 920.712 474.964 900.664 474.964L49.2626 474.964C29.2151 474.964 12.9635 458.712 12.9635 438.664Z" stroke="#123D66" stroke-width="10" stroke-linecap="butt" stroke-linejoin="round" stroke-miterlimit="10" stroke-opacity="1" fill="#EAF4FF" fill-rule="evenodd" fill-opacity="1"/></g></g></g></g><path d="M380 597.299C380 577.252 396.252 561 416.299 561L1267.7 561C1287.75 561 1304 577.252 1304 597.299L1304 986.701C1304 1006.75 1287.75 1023 1267.7 1023L416.299 1023C396.252 1023 380 1006.75 380 986.701Z" stroke="#123D66" stroke-width="10.0833" stroke-linecap="butt" stroke-linejoin="round" stroke-miterlimit="10" stroke-opacity="1" fill="#EAF4FF" fill-rule="evenodd" fill-opacity="1"/><text fill="#202A34" fill-opacity="1" font-family="Aptos Display,Aptos Display_MSFontService,sans-serif" font-style="normal" font-variant="normal" font-weight="700" font-stretch="normal" font-size="92" text-anchor="start" direction="ltr" writing-mode="lr-tb" unicode-bidi="normal" text-decoration="none" transform="matrix(1 0 0 1 738.948 767)">Plant</text><text fill="#202A34" fill-opacity="1" font-family="Aptos Display,Aptos Display_MSFontService,sans-serif" font-style="normal" font-variant="normal" font-weight="700" font-stretch="normal" font-size="92" text-anchor="start" direction="ltr" writing-mode="lr-tb" unicode-bidi="normal" text-decoration="none" transform="matrix(1 0 0 1 598.812 877)">optimization</text><g clip-path="url(#clip7)"><g filter="url(#fx1)" transform="translate(1544 561)"><g><g><path d="M12.9637 49.2631C12.9637 29.2155 29.2155 12.9636 49.2631 12.9636L1049.66 12.9636C1069.71 12.9636 1085.96 29.2155 1085.96 49.2631L1085.96 438.664C1085.96 458.712 1069.71 474.964 1049.66 474.964L49.2631 474.964C29.2155 474.964 12.9637 458.712 12.9637 438.664Z" stroke="#D87500" stroke-width="10" stroke-linecap="butt" stroke-linejoin="round" stroke-miterlimit="10" stroke-opacity="1" fill="#FFF4DD" fill-rule="evenodd" fill-opacity="1"/></g></g></g></g><path d="M1544 597.299C1544 577.252 1560.25 561 1580.3 561L2580.7 561C2600.75 561 2617 577.252 2617 597.299L2617 986.701C2617 1006.75 2600.75 1023 2580.7 1023L1580.3 1023C1560.25 1023 1544 1006.75 1544 986.701Z" stroke="#D87500" stroke-width="10.0833" stroke-linecap="butt" stroke-linejoin="round" stroke-miterlimit="10" stroke-opacity="1" fill="#FFF4DD" fill-rule="evenodd" fill-opacity="1"/><text fill="#202A34" fill-opacity="1" font-family="Aptos Display,Aptos Display_MSFontService,sans-serif" font-style="normal" font-variant="normal" font-weight="700" font-stretch="normal" font-size="92" text-anchor="start" direction="ltr" writing-mode="lr-tb" unicode-bidi="normal" text-decoration="none" transform="matrix(1 0 0 1 1881.05 767)">Controller</text><text fill="#202A34" fill-opacity="1" font-family="Aptos Display,Aptos Display_MSFontService,sans-serif" font-style="normal" font-variant="normal" font-weight="700" font-stretch="normal" font-size="92" text-anchor="start" direction="ltr" writing-mode="lr-tb" unicode-bidi="normal" text-decoration="none" transform="matrix(1 0 0 1 1837.96 877)">optimization</text><g clip-path="url(#clip8)"><g filter="url(#fx2)" transform="translate(2855 561)"><g><g><path d="M12.9634 49.2626C12.9634 29.2152 29.215 12.9636 49.2623 12.9636L817.665 12.9636C837.712 12.9636 853.964 29.2152 853.964 49.2626L853.964 438.665C853.964 458.712 837.712 474.964 817.665 474.964L49.2623 474.964C29.215 474.964 12.9634 458.712 12.9634 438.665Z" stroke="#2E8B57" stroke-width="10" stroke-linecap="butt" stroke-linejoin="round" stroke-miterlimit="10" stroke-opacity="1" fill="#EAF7EF" fill-rule="evenodd" fill-opacity="1"/></g></g></g></g><path d="M2855 597.299C2855 577.252 2871.25 561 2891.3 561L3659.7 561C3679.75 561 3696 577.252 3696 597.299L3696 986.701C3696 1006.75 3679.75 1023 3659.7 1023L2891.3 1023C2871.25 1023 2855 1006.75 2855 986.701Z" stroke="#2E8B57" stroke-width="10.0833" stroke-linecap="butt" stroke-linejoin="round" stroke-miterlimit="10" stroke-opacity="1" fill="#EAF7EF" fill-rule="evenodd" fill-opacity="1"/><text fill="#2E8B57" fill-opacity="1" font-family="Aptos Display,Aptos Display_MSFontService,sans-serif" font-style="normal" font-variant="normal" font-weight="700" font-stretch="normal" font-size="87" text-anchor="start" direction="ltr" writing-mode="lr-tb" unicode-bidi="normal" text-decoration="none" transform="matrix(1 0 0 1 3032.62 768)">Convergence</text><text fill="#2E8B57" fill-opacity="1" font-family="Aptos Display,Aptos Display_MSFontService,sans-serif" font-style="normal" font-variant="normal" font-weight="700" font-stretch="normal" font-size="87" text-anchor="start" direction="ltr" writing-mode="lr-tb" unicode-bidi="normal" text-decoration="none" transform="matrix(1 0 0 1 3163.82 873)">check</text><path d="M845.5 1165.5 3567.5 1165.5" stroke="#DDE4EC" stroke-width="4.58333" stroke-linecap="butt" stroke-linejoin="round" stroke-miterlimit="10" stroke-opacity="1" fill="none" fill-rule="evenodd"/><rect x="1360" y="1221" width="1666" height="116" fill="#FFFFFF" fill-opacity="1"/><text fill="#6B7280" fill-opacity="1" font-family="Aptos Display,Aptos Display_MSFontService,sans-serif" font-style="normal" font-variant="normal" font-weight="700" font-stretch="normal" font-size="69" text-anchor="start" direction="ltr" writing-mode="lr-tb" unicode-bidi="normal" text-decoration="none" transform="matrix(1 0 0 1 1726.64 1300)">What this architecture gives you</text><g clip-path="url(#clip9)"><g filter="url(#fx3)" transform="translate(265 1341)"><g><g><path d="M11.9636 48.3156C11.9636 28.2389 28.239 11.9635 48.3157 11.9635L998.612 11.9635C1018.69 11.9635 1034.96 28.2389 1034.96 48.3156L1034.96 322.612C1034.96 342.688 1018.69 358.964 998.612 358.964L48.3157 358.964C28.239 358.964 11.9636 342.688 11.9636 322.612Z" stroke="#2F6FA8" stroke-width="8" stroke-linecap="butt" stroke-linejoin="round" stroke-miterlimit="10" stroke-opacity="1" fill="#F7FBFF" fill-rule="evenodd" fill-opacity="1"/></g></g></g></g><path d="M264 1376.35C264 1356.28 280.275 1340 300.352 1340L1250.65 1340C1270.72 1340 1287 1356.28 1287 1376.35L1287 1650.65C1287 1670.72 1270.72 1687 1250.65 1687L300.352 1687C280.275 1687 264 1670.72 264 1650.65Z" stroke="#2F6FA8" stroke-width="8.25" stroke-linecap="butt" stroke-linejoin="round" stroke-miterlimit="10" stroke-opacity="1" fill="#F7FBFF" fill-rule="evenodd" fill-opacity="1"/><text fill="#123D66" fill-opacity="1" font-family="Aptos,Aptos_MSFontService,sans-serif" font-style="normal" font-variant="normal" font-weight="400" font-stretch="normal" font-size="78" text-anchor="start" direction="ltr" writing-mode="lr-tb" unicode-bidi="normal" text-decoration="none" transform="matrix(1 0 0 1 453.441 1492)">better coordination</text><text fill="#123D66" fill-opacity="1" font-family="Aptos,Aptos_MSFontService,sans-serif" font-style="normal" font-variant="normal" font-weight="400" font-stretch="normal" font-size="78" text-anchor="start" direction="ltr" writing-mode="lr-tb" unicode-bidi="normal" text-decoration="none" transform="matrix(1 0 0 1 498.793 1576)">than single</text><text fill="#123D66" fill-opacity="1" font-family="Aptos,Aptos_MSFontService,sans-serif" font-style="normal" font-variant="normal" font-weight="400" font-stretch="normal" font-size="78" text-anchor="start" direction="ltr" writing-mode="lr-tb" unicode-bidi="normal" text-decoration="none" transform="matrix(1 0 0 1 865.459 1576)">-</text><text fill="#123D66" fill-opacity="1" font-family="Aptos,Aptos_MSFontService,sans-serif" font-style="normal" font-variant="normal" font-weight="400" font-stretch="normal" font-size="78" text-anchor="start" direction="ltr" writing-mode="lr-tb" unicode-bidi="normal" text-decoration="none" transform="matrix(1 0 0 1 891.813 1576)">pass</text><g clip-path="url(#clip10)"><g filter="url(#fx4)" transform="translate(1562 1341)"><g><g><path d="M11.9636 48.3156C11.9636 28.2389 28.239 11.9635 48.3157 11.9635L998.612 11.9635C1018.69 11.9635 1034.96 28.2389 1034.96 48.3156L1034.96 322.612C1034.96 342.688 1018.69 358.964 998.612 358.964L48.3157 358.964C28.239 358.964 11.9636 342.688 11.9636 322.612Z" stroke="#D87500" stroke-width="8" stroke-linecap="butt" stroke-linejoin="round" stroke-miterlimit="10" stroke-opacity="1" fill="#FFF8EC" fill-rule="evenodd" fill-opacity="1"/></g></g></g></g><path d="M1561 1376.35C1561 1356.28 1577.28 1340 1597.35 1340L2547.65 1340C2567.72 1340 2584 1356.28 2584 1376.35L2584 1650.65C2584 1670.72 2567.72 1687 2547.65 1687L1597.35 1687C1577.28 1687 1561 1670.72 1561 1650.65Z" stroke="#D87500" stroke-width="8.25" stroke-linecap="butt" stroke-linejoin="round" stroke-miterlimit="10" stroke-opacity="1" fill="#FFF8EC" fill-rule="evenodd" fill-opacity="1"/><text fill="#D87500" fill-opacity="1" font-family="Aptos,Aptos_MSFontService,sans-serif" font-style="normal" font-variant="normal" font-weight="400" font-stretch="normal" font-size="78" text-anchor="start" direction="ltr" writing-mode="lr-tb" unicode-bidi="normal" text-decoration="none" transform="matrix(1 0 0 1 1785.99 1492)">still architecture</text><text fill="#D87500" fill-opacity="1" font-family="Aptos,Aptos_MSFontService,sans-serif" font-style="normal" font-variant="normal" font-weight="400" font-stretch="normal" font-size="78" text-anchor="start" direction="ltr" writing-mode="lr-tb" unicode-bidi="normal" text-decoration="none" transform="matrix(1 0 0 1 2332.46 1492)">-</text><text fill="#D87500" fill-opacity="1" font-family="Aptos,Aptos_MSFontService,sans-serif" font-style="normal" font-variant="normal" font-weight="400" font-stretch="normal" font-size="78" text-anchor="start" direction="ltr" writing-mode="lr-tb" unicode-bidi="normal" text-decoration="none" transform="matrix(1 0 0 1 1889.64 1576)">dependent</text><g clip-path="url(#clip11)"><g filter="url(#fx5)" transform="translate(2856 1341)"><g><g><path d="M11.9634 48.3156C11.9634 28.2389 28.2388 11.9635 48.3155 11.9635L998.611 11.9635C1018.69 11.9635 1034.96 28.2389 1034.96 48.3156L1034.96 322.612C1034.96 342.688 1018.69 358.964 998.611 358.964L48.3155 358.964C28.2388 358.964 11.9634 342.688 11.9634 322.612Z" stroke="#BE3A45" stroke-width="8" stroke-linecap="butt" stroke-linejoin="round" stroke-miterlimit="10" stroke-opacity="1" fill="#FFF1F2" fill-rule="evenodd" fill-opacity="1"/></g></g></g></g><path d="M2855 1376.35C2855 1356.28 2871.28 1340 2891.35 1340L3841.65 1340C3861.72 1340 3878 1356.28 3878 1376.35L3878 1650.65C3878 1670.72 3861.72 1687 3841.65 1687L2891.35 1687C2871.28 1687 2855 1670.72 2855 1650.65Z" stroke="#BE3A45" stroke-width="8.25" stroke-linecap="butt" stroke-linejoin="round" stroke-miterlimit="10" stroke-opacity="1" fill="#FFF1F2" fill-rule="evenodd" fill-opacity="1"/><text fill="#BE3A45" fill-opacity="1" font-family="Aptos,Aptos_MSFontService,sans-serif" font-style="normal" font-variant="normal" font-weight="400" font-stretch="normal" font-size="78" text-anchor="start" direction="ltr" writing-mode="lr-tb" unicode-bidi="normal" text-decoration="none" transform="matrix(1 0 0 1 3020.77 1492)">may converge slowly</text><text fill="#BE3A45" fill-opacity="1" font-family="Aptos,Aptos_MSFontService,sans-serif" font-style="normal" font-variant="normal" font-weight="400" font-stretch="normal" font-size="78" text-anchor="start" direction="ltr" writing-mode="lr-tb" unicode-bidi="normal" text-decoration="none" transform="matrix(1 0 0 1 3235.27 1576)">or cycle</text><path d="M3282.91 1021 3282.91 1108.66 838.844 1108.66 838.844 1051.36 849.156 1051.36 849.156 1103.5 844 1098.34 3277.75 1098.34 3272.59 1103.5 3272.59 1021ZM828.531 1056.52 844 1025.58 859.469 1056.52Z" fill="#7030A0" fill-rule="nonzero" fill-opacity="1"/></g></g></svg>