<svg width="3864" height="1605" xmlns="http://www.w3.org/2000/svg" xmlns:xlink="http://www.w3.org/1999/xlink" xml:space="preserve" overflow="hidden"><g transform="translate(-206 -320)"><g><path d="M215.5 382.328C215.5 371.378 224.377 362.5 235.328 362.5L4042.67 362.5C4053.62 362.5 4062.5 371.378 4062.5 382.328L4062.5 613.672C4062.5 624.623 4053.62 633.5 4042.67 633.5L235.328 633.5C224.377 633.5 215.5 624.623 215.5 613.672Z" stroke="#2F6EA5" stroke-width="7.33333" stroke-linecap="butt" stroke-linejoin="round" stroke-miterlimit="10" stroke-opacity="1" fill="#FFFFFF" fill-rule="evenodd" fill-opacity="1"/><text fill="#103A61" fill-opacity="1" font-family="Aptos Display,Aptos Display_MSFontService,sans-serif" font-style="normal" font-variant="normal" font-weight="700" font-stretch="normal" font-size="115" text-anchor="start" direction="ltr" writing-mode="lr-tb" unicode-bidi="normal" text-decoration="none" transform="matrix(1 0 0 1 511.318 466)">CCD architectures coordinate plant and controller decisions </text><text fill="#103A61" fill-opacity="1" font-family="Aptos Display,Aptos Display_MSFontService,sans-serif" font-style="normal" font-variant="normal" font-weight="700" font-stretch="normal" font-size="115" text-anchor="start" direction="ltr" writing-mode="lr-tb" unicode-bidi="normal" text-decoration="none" transform="matrix(1 0 0 1 1658.94 590)">d</text><text fill="#103A61" fill-opacity="1" font-family="Aptos Display,Aptos Display_MSFontService,sans-serif" font-style="normal" font-variant="normal" font-weight="700" font-stretch="normal" font-size="115" text-anchor="start" direction="ltr" writing-mode="lr-tb" unicode-bidi="normal" text-decoration="none" transform="matrix(1 0 0 1 1720.81 590)">uring  optimization</text><path d="M4.58323-0.0307609 5.42946 126.053-3.737 126.115-4.58323 0.0307609ZM14.5652 121.409 1.00003 149-12.9342 121.593Z" fill="#5B6775" fill-rule="nonzero" fill-opacity="1" transform="matrix(-1 0 0 1 668.5 1254.5)"/><path d="M4.58323-0.0307609 5.42946 126.053-3.737 126.115-4.58323 0.0307609ZM14.5652 121.409 1.00003 149-12.9342 121.593Z" fill="#5B6775" fill-rule="nonzero" fill-opacity="1" transform="matrix(-1 0 0 1 1648.5 1254.5)"/><path d="M4.58323-0.0307498 5.42915 126.053-3.73731 126.115-4.58323 0.0307498ZM14.5649 121.409 0.999672 149-12.9345 121.593Z" fill="#5B6775" fill-rule="nonzero" fill-opacity="1" transform="matrix(-1 0 0 1 2629.5 1254.5)"/><path d="M4.58323-0.0307609 5.42946 126.053-3.737 126.115-4.58323 0.0307609ZM14.5652 121.409 1.00003 149-12.9342 121.593Z" fill="#5B6775" fill-rule="nonzero" fill-opacity="1" transform="matrix(-1 0 0 1 3609.5 1254.5)"/><path d="M215 703.382C215 688.811 226.811 677 241.382 677L1095.62 677C1110.19 677 1122 688.811 1122 703.382L1122 1204.62C1122 1219.19 1110.19 1231 1095.62 1231L241.382 1231C226.811 1231 215 1219.19 215 1204.62Z" stroke="#103A61" stroke-width="9.625" stroke-linecap="butt" stroke-linejoin="round" stroke-miterlimit="10" stroke-opacity="1" fill="#EAF3FA" fill-rule="evenodd" fill-opacity="0.929412"/><text fill="#103A61" fill-opacity="1" font-family="Aptos,Aptos_MSFontService,sans-serif" font-style="normal" font-variant="normal" font-weight="700" font-stretch="normal" font-size="96" text-anchor="start" direction="ltr" writing-mode="lr-tb" unicode-bidi="normal" text-decoration="none" transform="matrix(1 0 0 1 412.156 927)">Single</text><text fill="#103A61" fill-opacity="1" font-family="Aptos,Aptos_MSFontService,sans-serif" font-style="normal" font-variant="normal" font-weight="700" font-stretch="normal" font-size="96" text-anchor="start" direction="ltr" writing-mode="lr-tb" unicode-bidi="normal" text-decoration="none" transform="matrix(1 0 0 1 682 927)">-</text><text fill="#103A61" fill-opacity="1" font-family="Aptos,Aptos_MSFontService,sans-serif" font-style="normal" font-variant="normal" font-weight="700" font-stretch="normal" font-size="96" text-anchor="start" direction="ltr" writing-mode="lr-tb" unicode-bidi="normal" text-decoration="none" transform="matrix(1 0 0 1 714.656 927)">pass</text><text fill="#103A61" fill-opacity="1" font-family="Aptos,Aptos_MSFontService,sans-serif" font-style="normal" font-variant="normal" font-weight="700" font-stretch="normal" font-size="96" text-anchor="start" direction="ltr" writing-mode="lr-tb" unicode-bidi="normal" text-decoration="none" transform="matrix(1 0 0 1 280.385 1042)">sequential design</text><path d="M1195 703.382C1195 688.811 1206.81 677 1221.38 677L2075.62 677C2090.19 677 2102 688.811 2102 703.382L2102 1204.62C2102 1219.19 2090.19 1231 2075.62 1231L1221.38 1231C1206.81 1231 1195 1219.19 1195 1204.62Z" stroke="#D16A00" stroke-width="9.625" stroke-linecap="butt" stroke-linejoin="round" stroke-miterlimit="10" stroke-opacity="1" fill="#FFF4CC" fill-rule="evenodd" fill-opacity="0.929412"/><text fill="#D16A00" fill-opacity="1" font-family="Aptos,Aptos_MSFontService,sans-serif" font-style="normal" font-variant="normal" font-weight="700" font-stretch="normal" font-size="96" text-anchor="start" direction="ltr" writing-mode="lr-tb" unicode-bidi="normal" text-decoration="none" transform="matrix(1 0 0 1 1468.04 927)">Iterative</text><text fill="#D16A00" fill-opacity="1" font-family="Aptos,Aptos_MSFontService,sans-serif" font-style="normal" font-variant="normal" font-weight="700" font-stretch="normal" font-size="96" text-anchor="start" direction="ltr" writing-mode="lr-tb" unicode-bidi="normal" text-decoration="none" transform="matrix(1 0 0 1 1260.49 1042)">sequential design</text><path d="M2175 703.382C2175 688.811 2186.81 677 2201.38 677L3055.62 677C3070.19 677 3082 688.811 3082 703.382L3082 1204.62C3082 1219.19 3070.19 1231 3055.62 1231L2201.38 1231C2186.81 1231 2175 1219.19 2175 1204.62Z" stroke="#217A52" stroke-width="9.625" stroke-linecap="butt" stroke-linejoin="round" stroke-miterlimit="10" stroke-opacity="1" fill="#E9F5EF" fill-rule="evenodd" fill-opacity="0.929412"/><text fill="#217A52" fill-opacity="1" font-family="Aptos,Aptos_MSFontService,sans-serif" font-style="normal" font-variant="normal" font-weight="700" font-stretch="normal" font-size="110" text-anchor="start" direction="ltr" writing-mode="lr-tb" unicode-bidi="normal" text-decoration="none" transform="matrix(1 0 0 1 2447.84 924)">Nested</text><text fill="#217A52" fill-opacity="1" font-family="Aptos,Aptos_MSFontService,sans-serif" font-style="normal" font-variant="normal" font-weight="700" font-stretch="normal" font-size="110" text-anchor="start" direction="ltr" writing-mode="lr-tb" unicode-bidi="normal" text-decoration="none" transform="matrix(1 0 0 1 2511.83 1056)">CCD</text><path d="M3155 703.382C3155 688.811 3166.81 677 3181.38 677L4035.62 677C4050.19 677 4062 688.811 4062 703.382L4062 1204.62C4062 1219.19 4050.19 1231 4035.62 1231L3181.38 1231C3166.81 1231 3155 1219.19 3155 1204.62Z" stroke="#7733E6" stroke-width="9.625" stroke-linecap="butt" stroke-linejoin="round" stroke-miterlimit="10" stroke-opacity="1" fill="#F7E7F4" fill-rule="evenodd" fill-opacity="0.929412"/><text fill="#7733E6" fill-opacity="1" font-family="Aptos,Aptos_MSFontService,sans-serif" font-style="normal" font-variant="normal" font-weight="700" font-stretch="normal" font-size="105" text-anchor="start" direction="ltr" writing-mode="lr-tb" unicode-bidi="normal" text-decoration="none" transform="matrix(1 0 0 1 3274.33 924)">Simultaneous</text><text fill="#7733E6" fill-opacity="1" font-family="Aptos,Aptos_MSFontService,sans-serif" font-style="normal" font-variant="normal" font-weight="700" font-stretch="normal" font-size="105" text-anchor="start" direction="ltr" writing-mode="lr-tb" unicode-bidi="normal" text-decoration="none" transform="matrix(1 0 0 1 3497.08 1051)">CCD</text><path d="M215 1429.78C215 1418.86 223.855 1410 234.779 1410L1102.22 1410C1113.14 1410 1122 1418.86 1122 1429.78L1122 1746.22C1122 1757.14 1113.14 1766 1102.22 1766L234.779 1766C223.855 1766 215 1757.14 215 1746.22Z" stroke="#103A61" stroke-width="8.25" stroke-linecap="butt" stroke-linejoin="round" stroke-miterlimit="10" stroke-opacity="1" fill="#FFFFFF" fill-rule="evenodd" fill-opacity="0.921569"/><text fill="#103A61" fill-opacity="1" font-family="Aptos,Aptos_MSFontService,sans-serif" font-style="normal" font-variant="normal" font-weight="400" font-stretch="normal" font-size="78" text-anchor="start" direction="ltr" writing-mode="lr-tb" unicode-bidi="normal" text-decoration="none" transform="matrix(1 0 0 1 412.133 1567)">Low integration</text><text fill="#103A61" fill-opacity="1" font-family="Aptos,Aptos_MSFontService,sans-serif" font-style="normal" font-variant="normal" font-weight="400" font-stretch="normal" font-size="78" text-anchor="start" direction="ltr" writing-mode="lr-tb" unicode-bidi="normal" text-decoration="none" transform="matrix(1 0 0 1 424.233 1660)">low setup cost</text><path d="M1195 1429.78C1195 1418.86 1203.86 1410 1214.78 1410L2082.22 1410C2093.14 1410 2102 1418.86 2102 1429.78L2102 1746.22C2102 1757.14 2093.14 1766 2082.22 1766L1214.78 1766C1203.86 1766 1195 1757.14 1195 1746.22Z" stroke="#D16A00" stroke-width="8.25" stroke-linecap="butt" stroke-linejoin="round" stroke-miterlimit="10" stroke-opacity="1" fill="#FFFFFF" fill-rule="evenodd" fill-opacity="0.921569"/><text fill="#D16A00" fill-opacity="1" font-family="Aptos,Aptos_MSFontService,sans-serif" font-style="normal" font-variant="normal" font-weight="400" font-stretch="normal" font-size="78" text-anchor="start" direction="ltr" writing-mode="lr-tb" unicode-bidi="normal" text-decoration="none" transform="matrix(1 0 0 1 1488.77 1567)">Moderate</text><text fill="#D16A00" fill-opacity="1" font-family="Aptos,Aptos_MSFontService,sans-serif" font-style="normal" font-variant="normal" font-weight="400" font-stretch="normal" font-size="78" text-anchor="start" direction="ltr" writing-mode="lr-tb" unicode-bidi="normal" text-decoration="none" transform="matrix(1 0 0 1 1435.24 1660)">coordination</text><path d="M2175 1429.78C2175 1418.86 2183.86 1410 2194.78 1410L3062.22 1410C3073.14 1410 3082 1418.86 3082 1429.78L3082 1746.22C3082 1757.14 3073.14 1766 3062.22 1766L2194.78 1766C2183.86 1766 2175 1757.14 2175 1746.22Z" stroke="#217A52" stroke-width="8.25" stroke-linecap="butt" stroke-linejoin="round" stroke-miterlimit="10" stroke-opacity="1" fill="#FFFFFF" fill-rule="evenodd" fill-opacity="0.921569"/><text fill="#217A52" fill-opacity="1" font-family="Aptos,Aptos_MSFontService,sans-serif" font-style="normal" font-variant="normal" font-weight="400" font-stretch="normal" font-size="78" text-anchor="start" direction="ltr" writing-mode="lr-tb" unicode-bidi="normal" text-decoration="none" transform="matrix(1 0 0 1 2504.25 1567)">Bi</text><text fill="#217A52" fill-opacity="1" font-family="Aptos,Aptos_MSFontService,sans-serif" font-style="normal" font-variant="normal" font-weight="400" font-stretch="normal" font-size="78" text-anchor="start" direction="ltr" writing-mode="lr-tb" unicode-bidi="normal" text-decoration="none" transform="matrix(1 0 0 1 2569.57 1567)">-</text><text fill="#217A52" fill-opacity="1" font-family="Aptos,Aptos_MSFontService,sans-serif" font-style="normal" font-variant="normal" font-weight="400" font-stretch="normal" font-size="78" text-anchor="start" direction="ltr" writing-mode="lr-tb" unicode-bidi="normal" text-decoration="none" transform="matrix(1 0 0 1 2595.92 1567)">level</text><text fill="#217A52" fill-opacity="1" font-family="Aptos,Aptos_MSFontService,sans-serif" font-style="normal" font-variant="normal" font-weight="400" font-stretch="normal" font-size="78" text-anchor="start" direction="ltr" writing-mode="lr-tb" unicode-bidi="normal" text-decoration="none" transform="matrix(1 0 0 1 2415.34 1660)">coordination</text><path d="M3155 1429.78C3155 1418.86 3163.86 1410 3174.78 1410L4042.22 1410C4053.14 1410 4062 1418.86 4062 1429.78L4062 1746.22C4062 1757.14 4053.14 1766 4042.22 1766L3174.78 1766C3163.86 1766 3155 1757.14 3155 1746.22Z" stroke="#7733E6" stroke-width="8.25" stroke-linecap="butt" stroke-linejoin="round" stroke-miterlimit="10" stroke-opacity="1" fill="#FFFFFF" fill-rule="evenodd" fill-opacity="0.921569"/><text fill="#7733E6" fill-opacity="1" font-family="Aptos,Aptos_MSFontService,sans-serif" font-style="normal" font-variant="normal" font-weight="400" font-stretch="normal" font-size="78" text-anchor="start" direction="ltr" writing-mode="lr-tb" unicode-bidi="normal" text-decoration="none" transform="matrix(1 0 0 1 3359.2 1567)">Full integration</text><text fill="#7733E6" fill-opacity="1" font-family="Aptos,Aptos_MSFontService,sans-serif" font-style="normal" font-variant="normal" font-weight="400" font-stretch="normal" font-size="78" text-anchor="start" direction="ltr" writing-mode="lr-tb" unicode-bidi="normal" text-decoration="none" transform="matrix(1 0 0 1 3241.12 1660)">one optimization level</text><text fill="#6B7280" fill-opacity="1" font-family="Aptos,Aptos_MSFontService,sans-serif" font-style="italic" font-variant="normal" font-weight="400" font-stretch="normal" font-size="69" text-anchor="start" direction="ltr" writing-mode="lr-tb" unicode-bidi="normal" text-decoration="none" transform="matrix(1 0 0 1 1585.23 1860)">coordination and integration increase →</text></g></g></svg>