<svg width="3900" height="1485" xmlns="http://www.w3.org/2000/svg" xmlns:xlink="http://www.w3.org/1999/xlink" xml:space="preserve" overflow="hidden"><g transform="translate(-229 -178)"><g><path d="M281.5 512.5 4125.5 512.5" stroke="#D6DEE8" stroke-width="4.58333" stroke-linecap="butt" stroke-linejoin="round" stroke-miterlimit="10" stroke-opacity="1" fill="none" fill-rule="evenodd"/><path d="M1205 208.358C1205 193.801 1216.8 182 1231.36 182L3174.64 182C3189.2 182 3201 193.801 3201 208.358L3201 412.642C3201 427.199 3189.2 439 3174.64 439L1231.36 439C1216.8 439 1205 427.199 1205 412.642Z" stroke="#123B63" stroke-width="6.41667" stroke-linecap="butt" stroke-linejoin="round" stroke-miterlimit="10" stroke-opacity="1" fill="#FFFFFF" fill-rule="evenodd" fill-opacity="1"/><text fill="#123B63" fill-opacity="1" font-family="Aptos Display,Aptos Display_MSFontService,sans-serif" font-style="normal" font-variant="normal" font-weight="700" font-stretch="normal" font-size="101" text-anchor="start" direction="ltr" writing-mode="lr-tb" unicode-bidi="normal" text-decoration="none" transform="matrix(1 0 0 1 1565.38 333)">Single</text><text fill="#123B63" fill-opacity="1" font-family="Aptos Display,Aptos Display_MSFontService,sans-serif" font-style="normal" font-variant="normal" font-weight="700" font-stretch="normal" font-size="101" text-anchor="start" direction="ltr" writing-mode="lr-tb" unicode-bidi="normal" text-decoration="none" transform="matrix(1 0 0 1 1828.92 333)">-</text><text fill="#123B63" fill-opacity="1" font-family="Aptos Display,Aptos Display_MSFontService,sans-serif" font-style="normal" font-variant="normal" font-weight="700" font-stretch="normal" font-size="101" text-anchor="start" direction="ltr" writing-mode="lr-tb" unicode-bidi="normal" text-decoration="none" transform="matrix(1 0 0 1 1865.59 333)">pass sequential design</text><path d="M1133 844.958 1183.79 844.959 1183.79 855.042 1133 855.042ZM1178.75 834.875 1209 850 1178.75 865.125Z" fill="#687281" fill-rule="nonzero" fill-opacity="1"/><path d="M1948 844.958 1998.79 844.959 1998.79 855.042 1948 855.042ZM1993.75 834.875 2024 850 1993.75 865.125Z" fill="#687281" fill-rule="nonzero" fill-opacity="1"/><path d="M3093 844.958 3179.79 844.959 3179.79 855.042 3093 855.042ZM3174.75 834.875 3205 850 3174.75 865.125Z" fill="#687281" fill-rule="nonzero" fill-opacity="1"/><path d="M235 604.373C235 589.808 246.808 578 261.373 578L1050.63 578C1065.19 578 1077 589.808 1077 604.373L1077 1095.63C1077 1110.19 1065.19 1122 1050.63 1122L261.373 1122C246.808 1122 235 1110.19 235 1095.63Z" stroke="#123B63" stroke-width="8.25" stroke-linecap="butt" stroke-linejoin="round" stroke-miterlimit="10" stroke-opacity="1" fill="#EAF2F8" fill-rule="evenodd" fill-opacity="1"/><text fill="#123B63" fill-opacity="1" font-family="Aptos Display,Aptos Display_MSFontService,sans-serif" font-style="normal" font-variant="normal" font-weight="700" font-stretch="normal" font-size="78" text-anchor="start" direction="ltr" writing-mode="lr-tb" unicode-bidi="normal" text-decoration="none" transform="matrix(1 0 0 1 452.478 715)">Plant design</text><text fill="#162033" fill-opacity="1" font-family="Aptos,Aptos_MSFontService,sans-serif" font-style="normal" font-variant="normal" font-weight="400" font-stretch="normal" font-size="69" text-anchor="start" direction="ltr" writing-mode="lr-tb" unicode-bidi="normal" text-decoration="none" transform="matrix(1 0 0 1 432.128 865)">using simple or </text><text fill="#162033" fill-opacity="1" font-family="Aptos,Aptos_MSFontService,sans-serif" font-style="normal" font-variant="normal" font-weight="400" font-stretch="normal" font-size="69" text-anchor="start" direction="ltr" writing-mode="lr-tb" unicode-bidi="normal" text-decoration="none" transform="matrix(1 0 0 1 518.936 948)">assumed</text><text fill="#162033" fill-opacity="1" font-family="Aptos,Aptos_MSFontService,sans-serif" font-style="normal" font-variant="normal" font-weight="400" font-stretch="normal" font-size="69" text-anchor="start" direction="ltr" writing-mode="lr-tb" unicode-bidi="normal" text-decoration="none" transform="matrix(1 0 0 1 371.468 1030)">control information</text><path d="M1282 604.373C1282 589.808 1293.81 578 1308.37 578L1865.63 578C1880.19 578 1892 589.808 1892 604.373L1892 1095.63C1892 1110.19 1880.19 1122 1865.63 1122L1308.37 1122C1293.81 1122 1282 1110.19 1282 1095.63Z" stroke="#5B6573" stroke-width="8.25" stroke-linecap="butt" stroke-linejoin="round" stroke-miterlimit="10" stroke-opacity="1" fill="#FFFFFF" fill-rule="evenodd" fill-opacity="1"/><text fill="#5B6573" fill-opacity="1" font-family="Aptos Display,Aptos Display_MSFontService,sans-serif" font-style="normal" font-variant="normal" font-weight="700" font-stretch="normal" font-size="78" text-anchor="start" direction="ltr" writing-mode="lr-tb" unicode-bidi="normal" text-decoration="none" transform="matrix(1 0 0 1 1477.19 715)">Freeze</text><text fill="#162033" fill-opacity="1" font-family="Aptos,Aptos_MSFontService,sans-serif" font-style="normal" font-variant="normal" font-weight="400" font-stretch="normal" font-size="69" text-anchor="start" direction="ltr" writing-mode="lr-tb" unicode-bidi="normal" text-decoration="none" transform="matrix(1 0 0 1 1510.27 880)">plant</text><text fill="#162033" fill-opacity="1" font-family="Aptos,Aptos_MSFontService,sans-serif" font-style="normal" font-variant="normal" font-weight="400" font-stretch="normal" font-size="69" text-anchor="start" direction="ltr" writing-mode="lr-tb" unicode-bidi="normal" text-decoration="none" transform="matrix(1 0 0 1 1489.07 963)">design</text><path d="M2097 604.373C2097 589.808 2108.81 578 2123.37 578L3010.63 578C3025.19 578 3037 589.808 3037 604.373L3037 1095.63C3037 1110.19 3025.19 1122 3010.63 1122L2123.37 1122C2108.81 1122 2097 1110.19 2097 1095.63Z" stroke="#D97706" stroke-width="8.25" stroke-linecap="butt" stroke-linejoin="round" stroke-miterlimit="10" stroke-opacity="1" fill="#F7EFE1" fill-rule="evenodd" fill-opacity="1"/><text fill="#D97706" fill-opacity="1" font-family="Aptos Display,Aptos Display_MSFontService,sans-serif" font-style="normal" font-variant="normal" font-weight="700" font-stretch="normal" font-size="78" text-anchor="start" direction="ltr" writing-mode="lr-tb" unicode-bidi="normal" text-decoration="none" transform="matrix(1 0 0 1 2280.7 715)">Controller design</text><text fill="#162033" fill-opacity="1" font-family="Aptos,Aptos_MSFontService,sans-serif" font-style="normal" font-variant="normal" font-weight="400" font-stretch="normal" font-size="69" text-anchor="start" direction="ltr" writing-mode="lr-tb" unicode-bidi="normal" text-decoration="none" transform="matrix(1 0 0 1 2310.88 911)">for the fixed plant</text><path d="M3278 604.373C3278 589.808 3289.81 578 3304.37 578L3944.63 578C3959.19 578 3971 589.808 3971 604.373L3971 1095.63C3971 1110.19 3959.19 1122 3944.63 1122L3304.37 1122C3289.81 1122 3278 1110.19 3278 1095.63Z" stroke="#2F855A" stroke-width="8.25" stroke-linecap="butt" stroke-linejoin="round" stroke-miterlimit="10" stroke-opacity="1" fill="#EDF7F0" fill-rule="evenodd" fill-opacity="1"/><text fill="#2F855A" fill-opacity="1" font-family="Aptos Display,Aptos Display_MSFontService,sans-serif" font-style="normal" font-variant="normal" font-weight="700" font-stretch="normal" font-size="78" text-anchor="start" direction="ltr" writing-mode="lr-tb" unicode-bidi="normal" text-decoration="none" transform="matrix(1 0 0 1 3543.64 715)">Final</text><text fill="#162033" fill-opacity="1" font-family="Aptos,Aptos_MSFontService,sans-serif" font-style="normal" font-variant="normal" font-weight="400" font-stretch="normal" font-size="69" text-anchor="start" direction="ltr" writing-mode="lr-tb" unicode-bidi="normal" text-decoration="none" transform="matrix(1 0 0 1 3526.82 896)">design</text><path d="M333 1214.44C333 1199.84 344.836 1188 359.436 1188L3952.56 1188C3967.16 1188 3979 1199.84 3979 1214.44L3979 1508.56C3979 1523.16 3967.16 1535 3952.56 1535L359.436 1535C344.836 1535 333 1523.16 333 1508.56Z" stroke="#B23A48" stroke-width="5.95833" stroke-linecap="butt" stroke-linejoin="round" stroke-miterlimit="10" stroke-opacity="1" fill="#FFFFFF" fill-rule="evenodd" fill-opacity="1"/><text fill="#162033" fill-opacity="1" font-family="Aptos,Aptos_MSFontService,sans-serif" font-style="normal" font-variant="normal" font-weight="400" font-stretch="normal" font-size="76" text-anchor="start" direction="ltr" writing-mode="lr-tb" unicode-bidi="normal" text-decoration="none" transform="matrix(1 0 0 1 1574.54 1336)">Advantage: simple and inexpensive.</text><text fill="#162033" fill-opacity="1" font-family="Aptos,Aptos_MSFontService,sans-serif" font-style="normal" font-variant="normal" font-weight="400" font-stretch="normal" font-size="76" text-anchor="start" direction="ltr" writing-mode="lr-tb" unicode-bidi="normal" text-decoration="none" transform="matrix(1 0 0 1 989.198 1427)">Limitation: early plant decisions may ignore important feedback effects.</text><text fill="#556070" fill-opacity="1" font-family="Aptos,Aptos_MSFontService,sans-serif" font-style="normal" font-variant="normal" font-weight="400" font-stretch="normal" font-size="57" text-anchor="start" direction="ltr" writing-mode="lr-tb" unicode-bidi="normal" text-decoration="none" transform="matrix(1 0 0 1 1209.81 1611)">Best used when control</text><text fill="#556070" fill-opacity="1" font-family="Aptos,Aptos_MSFontService,sans-serif" font-style="normal" font-variant="normal" font-weight="400" font-stretch="normal" font-size="57" text-anchor="start" direction="ltr" writing-mode="lr-tb" unicode-bidi="normal" text-decoration="none" transform="matrix(1 0 0 1 1787.9 1611)">–</text><text fill="#556070" fill-opacity="1" font-family="Aptos,Aptos_MSFontService,sans-serif" font-style="normal" font-variant="normal" font-weight="400" font-stretch="normal" font-size="57" text-anchor="start" direction="ltr" writing-mode="lr-tb" unicode-bidi="normal" text-decoration="none" transform="matrix(1 0 0 1 1814.26 1611)">plant coupling is weak or a quick baseline is needed.</text></g></g></svg>