<?xml version="1.0" encoding="utf-8" standalone="no"?>
<!DOCTYPE svg PUBLIC "-//W3C//DTD SVG 1.1//EN"
  "http://www.w3.org/Graphics/SVG/1.1/DTD/svg11.dtd">
<svg xmlns:xlink="http://www.w3.org/1999/xlink" width="617.04pt" height="313.776pt" viewBox="0 0 617.04 313.776" xmlns="http://www.w3.org/2000/svg" version="1.1">
 <metadata>
  <rdf:RDF xmlns:dc="http://purl.org/dc/elements/1.1/" xmlns:cc="http://creativecommons.org/ns#" xmlns:rdf="http://www.w3.org/1999/02/22-rdf-syntax-ns#">
   <cc:Work>
    <dc:type rdf:resource="http://purl.org/dc/dcmitype/StillImage"/>
    <dc:date>2026-07-17T16:08:37.761845</dc:date>
    <dc:format>image/svg+xml</dc:format>
    <dc:creator>
     <cc:Agent>
      <dc:title>Matplotlib v3.10.8, https://matplotlib.org/</dc:title>
     </cc:Agent>
    </dc:creator>
   </cc:Work>
  </rdf:RDF>
 </metadata>
 <defs>
  <style type="text/css">*{stroke-linejoin: round; stroke-linecap: butt}</style>
 </defs>
 <g id="figure_1">
  <g id="patch_1">
   <path d="M 0 313.776 
L 617.04 313.776 
L 617.04 0 
L 0 0 
z
" style="fill: #ffffff"/>
  </g>
  <g id="axes_1">
   <g id="patch_2">
    <path d="M 224.632512 76.320635 
L 392.407488 76.320635 
Q 396.264384 76.320635 396.264384 72.798565 
L 396.264384 36.257082 
Q 396.264384 32.735012 392.407488 32.735012 
L 224.632512 32.735012 
Q 220.775616 32.735012 220.775616 36.257082 
L 220.775616 72.798565 
Q 220.775616 76.320635 224.632512 76.320635 
z
" clip-path="url(#pc4942a00fc)" style="fill: #ffffff; stroke: #123b63; stroke-width: 1.8; stroke-linejoin: miter"/>
   </g>
   <g id="patch_3">
    <path d="M 22.145472 201.7944 
L 156.172608 201.7944 
Q 160.029504 201.7944 160.029504 198.272329 
L 160.029504 148.523082 
Q 160.029504 145.001012 156.172608 145.001012 
L 22.145472 145.001012 
Q 18.288576 145.001012 18.288576 148.523082 
L 18.288576 198.272329 
Q 18.288576 201.7944 22.145472 201.7944 
z
" clip-path="url(#pc4942a00fc)" style="fill: #eaf2f8; stroke: #2d6a9f; stroke-width: 1.8; stroke-linejoin: miter"/>
   </g>
   <g id="patch_4">
    <path d="M 227.043072 203.995694 
L 382.765248 203.995694 
Q 386.622144 203.995694 386.622144 200.473624 
L 386.622144 146.321788 
Q 386.622144 142.799718 382.765248 142.799718 
L 227.043072 142.799718 
Q 223.186176 142.799718 223.186176 146.321788 
L 223.186176 200.473624 
Q 223.186176 203.995694 227.043072 203.995694 
z
" clip-path="url(#pc4942a00fc)" style="fill: #f7efe1; stroke: #d97706; stroke-width: 1.8; stroke-linejoin: miter"/>
   </g>
   <g id="patch_5">
    <path d="M 451.225152 203.995694 
L 594.894528 203.995694 
Q 598.751424 203.995694 598.751424 200.473624 
L 598.751424 146.321788 
Q 598.751424 142.799718 594.894528 142.799718 
L 451.225152 142.799718 
Q 447.368256 142.799718 447.368256 146.321788 
L 447.368256 200.473624 
Q 447.368256 203.995694 451.225152 203.995694 
z
" clip-path="url(#pc4942a00fc)" style="fill: #edf7f0; stroke: #2f855a; stroke-width: 1.8; stroke-linejoin: miter"/>
   </g>
   <g id="patch_6">
    <path d="M 77.588352 292.047459 
L 539.451648 292.047459 
Q 543.308544 292.047459 543.308544 288.525388 
L 543.308544 249.782612 
Q 543.308544 246.260541 539.451648 246.260541 
L 77.588352 246.260541 
Q 73.731456 246.260541 73.731456 249.782612 
L 73.731456 288.525388 
Q 73.731456 292.047459 77.588352 292.047459 
z
" clip-path="url(#pc4942a00fc)" style="fill: #ffffff; stroke: #5b6573; stroke-linejoin: miter"/>
   </g>
   <g id="text_1">
    <!-- System-level optimizer -->
    <g style="fill: #123b63" transform="translate(224.120547 58.06423) scale(0.13 -0.13)">
     <defs>
      <path id="DejaVuSans-Bold-53" d="M 3834 4519 
L 3834 3531 
Q 3450 3703 3084 3790 
Q 2719 3878 2394 3878 
Q 1963 3878 1756 3759 
Q 1550 3641 1550 3391 
Q 1550 3203 1689 3098 
Q 1828 2994 2194 2919 
L 2706 2816 
Q 3484 2659 3812 2340 
Q 4141 2022 4141 1434 
Q 4141 663 3683 286 
Q 3225 -91 2284 -91 
Q 1841 -91 1394 -6 
Q 947 78 500 244 
L 500 1259 
Q 947 1022 1364 901 
Q 1781 781 2169 781 
Q 2563 781 2772 912 
Q 2981 1044 2981 1288 
Q 2981 1506 2839 1625 
Q 2697 1744 2272 1838 
L 1806 1941 
Q 1106 2091 782 2419 
Q 459 2747 459 3303 
Q 459 4000 909 4375 
Q 1359 4750 2203 4750 
Q 2588 4750 2994 4692 
Q 3400 4634 3834 4519 
z
" transform="scale(0.015625)"/>
      <path id="DejaVuSans-Bold-79" d="M 78 3500 
L 1197 3500 
L 2138 1125 
L 2938 3500 
L 4056 3500 
L 2584 -331 
Q 2363 -916 2067 -1148 
Q 1772 -1381 1288 -1381 
L 641 -1381 
L 641 -647 
L 991 -647 
Q 1275 -647 1404 -556 
Q 1534 -466 1606 -231 
L 1638 -134 
L 78 3500 
z
" transform="scale(0.015625)"/>
      <path id="DejaVuSans-Bold-73" d="M 3272 3391 
L 3272 2541 
Q 2913 2691 2578 2766 
Q 2244 2841 1947 2841 
Q 1628 2841 1473 2761 
Q 1319 2681 1319 2516 
Q 1319 2381 1436 2309 
Q 1553 2238 1856 2203 
L 2053 2175 
Q 2913 2066 3209 1816 
Q 3506 1566 3506 1031 
Q 3506 472 3093 190 
Q 2681 -91 1863 -91 
Q 1516 -91 1145 -36 
Q 775 19 384 128 
L 384 978 
Q 719 816 1070 734 
Q 1422 653 1784 653 
Q 2113 653 2278 743 
Q 2444 834 2444 1013 
Q 2444 1163 2330 1236 
Q 2216 1309 1875 1350 
L 1678 1375 
Q 931 1469 631 1722 
Q 331 1975 331 2491 
Q 331 3047 712 3315 
Q 1094 3584 1881 3584 
Q 2191 3584 2531 3537 
Q 2872 3491 3272 3391 
z
" transform="scale(0.015625)"/>
      <path id="DejaVuSans-Bold-74" d="M 1759 4494 
L 1759 3500 
L 2913 3500 
L 2913 2700 
L 1759 2700 
L 1759 1216 
Q 1759 972 1856 886 
Q 1953 800 2241 800 
L 2816 800 
L 2816 0 
L 1856 0 
Q 1194 0 917 276 
Q 641 553 641 1216 
L 641 2700 
L 84 2700 
L 84 3500 
L 641 3500 
L 641 4494 
L 1759 4494 
z
" transform="scale(0.015625)"/>
      <path id="DejaVuSans-Bold-65" d="M 4031 1759 
L 4031 1441 
L 1416 1441 
Q 1456 1047 1700 850 
Q 1944 653 2381 653 
Q 2734 653 3104 758 
Q 3475 863 3866 1075 
L 3866 213 
Q 3469 63 3072 -14 
Q 2675 -91 2278 -91 
Q 1328 -91 801 392 
Q 275 875 275 1747 
Q 275 2603 792 3093 
Q 1309 3584 2216 3584 
Q 3041 3584 3536 3087 
Q 4031 2591 4031 1759 
z
M 2881 2131 
Q 2881 2450 2695 2645 
Q 2509 2841 2209 2841 
Q 1884 2841 1681 2658 
Q 1478 2475 1428 2131 
L 2881 2131 
z
" transform="scale(0.015625)"/>
      <path id="DejaVuSans-Bold-6d" d="M 3781 2919 
Q 3994 3244 4286 3414 
Q 4578 3584 4928 3584 
Q 5531 3584 5847 3212 
Q 6163 2841 6163 2131 
L 6163 0 
L 5038 0 
L 5038 1825 
Q 5041 1866 5042 1909 
Q 5044 1953 5044 2034 
Q 5044 2406 4934 2573 
Q 4825 2741 4581 2741 
Q 4263 2741 4089 2478 
Q 3916 2216 3909 1719 
L 3909 0 
L 2784 0 
L 2784 1825 
Q 2784 2406 2684 2573 
Q 2584 2741 2328 2741 
Q 2006 2741 1831 2477 
Q 1656 2213 1656 1722 
L 1656 0 
L 531 0 
L 531 3500 
L 1656 3500 
L 1656 2988 
Q 1863 3284 2130 3434 
Q 2397 3584 2719 3584 
Q 3081 3584 3359 3409 
Q 3638 3234 3781 2919 
z
" transform="scale(0.015625)"/>
      <path id="DejaVuSans-Bold-2d" d="M 347 2297 
L 2309 2297 
L 2309 1388 
L 347 1388 
L 347 2297 
z
" transform="scale(0.015625)"/>
      <path id="DejaVuSans-Bold-6c" d="M 538 4863 
L 1656 4863 
L 1656 0 
L 538 0 
L 538 4863 
z
" transform="scale(0.015625)"/>
      <path id="DejaVuSans-Bold-76" d="M 97 3500 
L 1216 3500 
L 2088 1081 
L 2956 3500 
L 4078 3500 
L 2700 0 
L 1472 0 
L 97 3500 
z
" transform="scale(0.015625)"/>
      <path id="DejaVuSans-Bold-20" transform="scale(0.015625)"/>
      <path id="DejaVuSans-Bold-6f" d="M 2203 2784 
Q 1831 2784 1636 2517 
Q 1441 2250 1441 1747 
Q 1441 1244 1636 976 
Q 1831 709 2203 709 
Q 2569 709 2762 976 
Q 2956 1244 2956 1747 
Q 2956 2250 2762 2517 
Q 2569 2784 2203 2784 
z
M 2203 3584 
Q 3106 3584 3614 3096 
Q 4122 2609 4122 1747 
Q 4122 884 3614 396 
Q 3106 -91 2203 -91 
Q 1297 -91 786 396 
Q 275 884 275 1747 
Q 275 2609 786 3096 
Q 1297 3584 2203 3584 
z
" transform="scale(0.015625)"/>
      <path id="DejaVuSans-Bold-70" d="M 1656 506 
L 1656 -1331 
L 538 -1331 
L 538 3500 
L 1656 3500 
L 1656 2988 
Q 1888 3294 2169 3439 
Q 2450 3584 2816 3584 
Q 3463 3584 3878 3070 
Q 4294 2556 4294 1747 
Q 4294 938 3878 423 
Q 3463 -91 2816 -91 
Q 2450 -91 2169 54 
Q 1888 200 1656 506 
z
M 2400 2772 
Q 2041 2772 1848 2508 
Q 1656 2244 1656 1747 
Q 1656 1250 1848 986 
Q 2041 722 2400 722 
Q 2759 722 2948 984 
Q 3138 1247 3138 1747 
Q 3138 2247 2948 2509 
Q 2759 2772 2400 2772 
z
" transform="scale(0.015625)"/>
      <path id="DejaVuSans-Bold-69" d="M 538 3500 
L 1656 3500 
L 1656 0 
L 538 0 
L 538 3500 
z
M 538 4863 
L 1656 4863 
L 1656 3950 
L 538 3950 
L 538 4863 
z
" transform="scale(0.015625)"/>
      <path id="DejaVuSans-Bold-7a" d="M 366 3500 
L 3419 3500 
L 3419 2719 
L 1575 800 
L 3419 800 
L 3419 0 
L 288 0 
L 288 781 
L 2131 2700 
L 366 2700 
L 366 3500 
z
" transform="scale(0.015625)"/>
      <path id="DejaVuSans-Bold-72" d="M 3138 2547 
Q 2991 2616 2845 2648 
Q 2700 2681 2553 2681 
Q 2122 2681 1889 2404 
Q 1656 2128 1656 1613 
L 1656 0 
L 538 0 
L 538 3500 
L 1656 3500 
L 1656 2925 
Q 1872 3269 2151 3426 
Q 2431 3584 2822 3584 
Q 2878 3584 2943 3579 
Q 3009 3575 3134 3559 
L 3138 2547 
z
" transform="scale(0.015625)"/>
     </defs>
     <use xlink:href="#DejaVuSans-Bold-53"/>
     <use xlink:href="#DejaVuSans-Bold-79" transform="translate(72.021484 0)"/>
     <use xlink:href="#DejaVuSans-Bold-73" transform="translate(137.207031 0)"/>
     <use xlink:href="#DejaVuSans-Bold-74" transform="translate(196.728516 0)"/>
     <use xlink:href="#DejaVuSans-Bold-65" transform="translate(244.53125 0)"/>
     <use xlink:href="#DejaVuSans-Bold-6d" transform="translate(312.353516 0)"/>
     <use xlink:href="#DejaVuSans-Bold-2d" transform="translate(416.552734 0)"/>
     <use xlink:href="#DejaVuSans-Bold-6c" transform="translate(458.056641 0)"/>
     <use xlink:href="#DejaVuSans-Bold-65" transform="translate(492.333984 0)"/>
     <use xlink:href="#DejaVuSans-Bold-76" transform="translate(560.15625 0)"/>
     <use xlink:href="#DejaVuSans-Bold-65" transform="translate(625.341797 0)"/>
     <use xlink:href="#DejaVuSans-Bold-6c" transform="translate(693.164062 0)"/>
     <use xlink:href="#DejaVuSans-Bold-20" transform="translate(727.441406 0)"/>
     <use xlink:href="#DejaVuSans-Bold-6f" transform="translate(762.255859 0)"/>
     <use xlink:href="#DejaVuSans-Bold-70" transform="translate(830.957031 0)"/>
     <use xlink:href="#DejaVuSans-Bold-74" transform="translate(902.539062 0)"/>
     <use xlink:href="#DejaVuSans-Bold-69" transform="translate(950.341797 0)"/>
     <use xlink:href="#DejaVuSans-Bold-6d" transform="translate(984.619141 0)"/>
     <use xlink:href="#DejaVuSans-Bold-69" transform="translate(1088.818359 0)"/>
     <use xlink:href="#DejaVuSans-Bold-7a" transform="translate(1123.095703 0)"/>
     <use xlink:href="#DejaVuSans-Bold-65" transform="translate(1181.298828 0)"/>
     <use xlink:href="#DejaVuSans-Bold-72" transform="translate(1249.121094 0)"/>
    </g>
   </g>
   <g id="text_2">
    <!-- Discipline A -->
    <g style="fill: #1f2933" transform="translate(54.417985 170.416198) scale(0.105 -0.105)">
     <defs>
      <path id="DejaVuSans-Bold-44" d="M 1791 3756 
L 1791 909 
L 2222 909 
Q 2959 909 3348 1275 
Q 3738 1641 3738 2338 
Q 3738 3031 3350 3393 
Q 2963 3756 2222 3756 
L 1791 3756 
z
M 588 4666 
L 1856 4666 
Q 2919 4666 3439 4514 
Q 3959 4363 4331 4000 
Q 4659 3684 4818 3271 
Q 4978 2859 4978 2338 
Q 4978 1809 4818 1395 
Q 4659 981 4331 666 
Q 3956 303 3431 151 
Q 2906 0 1856 0 
L 588 0 
L 588 4666 
z
" transform="scale(0.015625)"/>
      <path id="DejaVuSans-Bold-63" d="M 3366 3391 
L 3366 2478 
Q 3138 2634 2908 2709 
Q 2678 2784 2431 2784 
Q 1963 2784 1702 2511 
Q 1441 2238 1441 1747 
Q 1441 1256 1702 982 
Q 1963 709 2431 709 
Q 2694 709 2930 787 
Q 3166 866 3366 1019 
L 3366 103 
Q 3103 6 2833 -42 
Q 2563 -91 2291 -91 
Q 1344 -91 809 395 
Q 275 881 275 1747 
Q 275 2613 809 3098 
Q 1344 3584 2291 3584 
Q 2566 3584 2833 3536 
Q 3100 3488 3366 3391 
z
" transform="scale(0.015625)"/>
      <path id="DejaVuSans-Bold-6e" d="M 4056 2131 
L 4056 0 
L 2931 0 
L 2931 347 
L 2931 1631 
Q 2931 2084 2911 2256 
Q 2891 2428 2841 2509 
Q 2775 2619 2662 2680 
Q 2550 2741 2406 2741 
Q 2056 2741 1856 2470 
Q 1656 2200 1656 1722 
L 1656 0 
L 538 0 
L 538 3500 
L 1656 3500 
L 1656 2988 
Q 1909 3294 2193 3439 
Q 2478 3584 2822 3584 
Q 3428 3584 3742 3212 
Q 4056 2841 4056 2131 
z
" transform="scale(0.015625)"/>
      <path id="DejaVuSans-Bold-41" d="M 3419 850 
L 1538 850 
L 1241 0 
L 31 0 
L 1759 4666 
L 3194 4666 
L 4922 0 
L 3713 0 
L 3419 850 
z
M 1838 1716 
L 3116 1716 
L 2478 3572 
L 1838 1716 
z
" transform="scale(0.015625)"/>
     </defs>
     <use xlink:href="#DejaVuSans-Bold-44"/>
     <use xlink:href="#DejaVuSans-Bold-69" transform="translate(83.007812 0)"/>
     <use xlink:href="#DejaVuSans-Bold-73" transform="translate(117.285156 0)"/>
     <use xlink:href="#DejaVuSans-Bold-63" transform="translate(176.806641 0)"/>
     <use xlink:href="#DejaVuSans-Bold-69" transform="translate(236.083984 0)"/>
     <use xlink:href="#DejaVuSans-Bold-70" transform="translate(270.361328 0)"/>
     <use xlink:href="#DejaVuSans-Bold-6c" transform="translate(341.943359 0)"/>
     <use xlink:href="#DejaVuSans-Bold-69" transform="translate(376.220703 0)"/>
     <use xlink:href="#DejaVuSans-Bold-6e" transform="translate(410.498047 0)"/>
     <use xlink:href="#DejaVuSans-Bold-65" transform="translate(481.689453 0)"/>
     <use xlink:href="#DejaVuSans-Bold-20" transform="translate(549.511719 0)"/>
     <use xlink:href="#DejaVuSans-Bold-41" transform="translate(584.326172 0)"/>
    </g>
    <!-- Structures -->
    <g style="fill: #1f2933" transform="translate(57.909235 182.173901) scale(0.105 -0.105)">
     <defs>
      <path id="DejaVuSans-Bold-75" d="M 500 1363 
L 500 3500 
L 1625 3500 
L 1625 3150 
Q 1625 2866 1622 2436 
Q 1619 2006 1619 1863 
Q 1619 1441 1641 1255 
Q 1663 1069 1716 984 
Q 1784 875 1895 815 
Q 2006 756 2150 756 
Q 2500 756 2700 1025 
Q 2900 1294 2900 1772 
L 2900 3500 
L 4019 3500 
L 4019 0 
L 2900 0 
L 2900 506 
Q 2647 200 2364 54 
Q 2081 -91 1741 -91 
Q 1134 -91 817 281 
Q 500 653 500 1363 
z
" transform="scale(0.015625)"/>
     </defs>
     <use xlink:href="#DejaVuSans-Bold-53"/>
     <use xlink:href="#DejaVuSans-Bold-74" transform="translate(72.021484 0)"/>
     <use xlink:href="#DejaVuSans-Bold-72" transform="translate(119.824219 0)"/>
     <use xlink:href="#DejaVuSans-Bold-75" transform="translate(169.140625 0)"/>
     <use xlink:href="#DejaVuSans-Bold-63" transform="translate(240.332031 0)"/>
     <use xlink:href="#DejaVuSans-Bold-74" transform="translate(299.609375 0)"/>
     <use xlink:href="#DejaVuSans-Bold-75" transform="translate(347.412109 0)"/>
     <use xlink:href="#DejaVuSans-Bold-72" transform="translate(418.603516 0)"/>
     <use xlink:href="#DejaVuSans-Bold-65" transform="translate(467.919922 0)"/>
     <use xlink:href="#DejaVuSans-Bold-73" transform="translate(535.742188 0)"/>
    </g>
   </g>
   <g id="text_3">
    <!-- Discipline B -->
    <g style="fill: #1f2933" transform="translate(272.866879 165.174531) scale(0.097 -0.097)">
     <defs>
      <path id="DejaVuSans-Bold-42" d="M 2456 2859 
Q 2741 2859 2887 2984 
Q 3034 3109 3034 3353 
Q 3034 3594 2887 3720 
Q 2741 3847 2456 3847 
L 1791 3847 
L 1791 2859 
L 2456 2859 
z
M 2497 819 
Q 2859 819 3042 972 
Q 3225 1125 3225 1434 
Q 3225 1738 3044 1889 
Q 2863 2041 2497 2041 
L 1791 2041 
L 1791 819 
L 2497 819 
z
M 3616 2497 
Q 4003 2384 4215 2081 
Q 4428 1778 4428 1338 
Q 4428 663 3972 331 
Q 3516 0 2584 0 
L 588 0 
L 588 4666 
L 2394 4666 
Q 3366 4666 3802 4372 
Q 4238 4078 4238 3431 
Q 4238 3091 4078 2852 
Q 3919 2613 3616 2497 
z
" transform="scale(0.015625)"/>
     </defs>
     <use xlink:href="#DejaVuSans-Bold-44"/>
     <use xlink:href="#DejaVuSans-Bold-69" transform="translate(83.007812 0)"/>
     <use xlink:href="#DejaVuSans-Bold-73" transform="translate(117.285156 0)"/>
     <use xlink:href="#DejaVuSans-Bold-63" transform="translate(176.806641 0)"/>
     <use xlink:href="#DejaVuSans-Bold-69" transform="translate(236.083984 0)"/>
     <use xlink:href="#DejaVuSans-Bold-70" transform="translate(270.361328 0)"/>
     <use xlink:href="#DejaVuSans-Bold-6c" transform="translate(341.943359 0)"/>
     <use xlink:href="#DejaVuSans-Bold-69" transform="translate(376.220703 0)"/>
     <use xlink:href="#DejaVuSans-Bold-6e" transform="translate(410.498047 0)"/>
     <use xlink:href="#DejaVuSans-Bold-65" transform="translate(481.689453 0)"/>
     <use xlink:href="#DejaVuSans-Bold-20" transform="translate(549.511719 0)"/>
     <use xlink:href="#DejaVuSans-Bold-42" transform="translate(584.326172 0)"/>
    </g>
    <!-- Dynamics and -->
    <g style="fill: #1f2933" transform="translate(266.627051 176.036409) scale(0.097 -0.097)">
     <defs>
      <path id="DejaVuSans-Bold-61" d="M 2106 1575 
Q 1756 1575 1579 1456 
Q 1403 1338 1403 1106 
Q 1403 894 1545 773 
Q 1688 653 1941 653 
Q 2256 653 2472 879 
Q 2688 1106 2688 1447 
L 2688 1575 
L 2106 1575 
z
M 3816 1997 
L 3816 0 
L 2688 0 
L 2688 519 
Q 2463 200 2181 54 
Q 1900 -91 1497 -91 
Q 953 -91 614 226 
Q 275 544 275 1050 
Q 275 1666 698 1953 
Q 1122 2241 2028 2241 
L 2688 2241 
L 2688 2328 
Q 2688 2594 2478 2717 
Q 2269 2841 1825 2841 
Q 1466 2841 1156 2769 
Q 847 2697 581 2553 
L 581 3406 
Q 941 3494 1303 3539 
Q 1666 3584 2028 3584 
Q 2975 3584 3395 3211 
Q 3816 2838 3816 1997 
z
" transform="scale(0.015625)"/>
      <path id="DejaVuSans-Bold-64" d="M 2919 2988 
L 2919 4863 
L 4044 4863 
L 4044 0 
L 2919 0 
L 2919 506 
Q 2688 197 2409 53 
Q 2131 -91 1766 -91 
Q 1119 -91 703 423 
Q 288 938 288 1747 
Q 288 2556 703 3070 
Q 1119 3584 1766 3584 
Q 2128 3584 2408 3439 
Q 2688 3294 2919 2988 
z
M 2181 722 
Q 2541 722 2730 984 
Q 2919 1247 2919 1747 
Q 2919 2247 2730 2509 
Q 2541 2772 2181 2772 
Q 1825 2772 1636 2509 
Q 1447 2247 1447 1747 
Q 1447 1247 1636 984 
Q 1825 722 2181 722 
z
" transform="scale(0.015625)"/>
     </defs>
     <use xlink:href="#DejaVuSans-Bold-44"/>
     <use xlink:href="#DejaVuSans-Bold-79" transform="translate(83.007812 0)"/>
     <use xlink:href="#DejaVuSans-Bold-6e" transform="translate(148.193359 0)"/>
     <use xlink:href="#DejaVuSans-Bold-61" transform="translate(219.384766 0)"/>
     <use xlink:href="#DejaVuSans-Bold-6d" transform="translate(286.865234 0)"/>
     <use xlink:href="#DejaVuSans-Bold-69" transform="translate(391.064453 0)"/>
     <use xlink:href="#DejaVuSans-Bold-63" transform="translate(425.341797 0)"/>
     <use xlink:href="#DejaVuSans-Bold-73" transform="translate(484.619141 0)"/>
     <use xlink:href="#DejaVuSans-Bold-20" transform="translate(544.140625 0)"/>
     <use xlink:href="#DejaVuSans-Bold-61" transform="translate(578.955078 0)"/>
     <use xlink:href="#DejaVuSans-Bold-6e" transform="translate(646.435547 0)"/>
     <use xlink:href="#DejaVuSans-Bold-64" transform="translate(717.626953 0)"/>
    </g>
    <!-- control -->
    <g style="fill: #1f2933" transform="translate(285.539777 186.974068) scale(0.097 -0.097)">
     <use xlink:href="#DejaVuSans-Bold-63"/>
     <use xlink:href="#DejaVuSans-Bold-6f" transform="translate(59.277344 0)"/>
     <use xlink:href="#DejaVuSans-Bold-6e" transform="translate(127.978516 0)"/>
     <use xlink:href="#DejaVuSans-Bold-74" transform="translate(199.169922 0)"/>
     <use xlink:href="#DejaVuSans-Bold-72" transform="translate(246.972656 0)"/>
     <use xlink:href="#DejaVuSans-Bold-6f" transform="translate(296.289062 0)"/>
     <use xlink:href="#DejaVuSans-Bold-6c" transform="translate(364.990234 0)"/>
    </g>
   </g>
   <g id="text_4">
    <!-- Discipline C -->
    <g style="fill: #1f2933" transform="translate(491.48859 165.221806) scale(0.096 -0.096)">
     <defs>
      <path id="DejaVuSans-Bold-43" d="M 4288 256 
Q 3956 84 3597 -3 
Q 3238 -91 2847 -91 
Q 1681 -91 1000 561 
Q 319 1213 319 2328 
Q 319 3447 1000 4098 
Q 1681 4750 2847 4750 
Q 3238 4750 3597 4662 
Q 3956 4575 4288 4403 
L 4288 3438 
Q 3953 3666 3628 3772 
Q 3303 3878 2944 3878 
Q 2300 3878 1931 3465 
Q 1563 3053 1563 2328 
Q 1563 1606 1931 1193 
Q 2300 781 2944 781 
Q 3303 781 3628 887 
Q 3953 994 4288 1222 
L 4288 256 
z
" transform="scale(0.015625)"/>
     </defs>
     <use xlink:href="#DejaVuSans-Bold-44"/>
     <use xlink:href="#DejaVuSans-Bold-69" transform="translate(83.007812 0)"/>
     <use xlink:href="#DejaVuSans-Bold-73" transform="translate(117.285156 0)"/>
     <use xlink:href="#DejaVuSans-Bold-63" transform="translate(176.806641 0)"/>
     <use xlink:href="#DejaVuSans-Bold-69" transform="translate(236.083984 0)"/>
     <use xlink:href="#DejaVuSans-Bold-70" transform="translate(270.361328 0)"/>
     <use xlink:href="#DejaVuSans-Bold-6c" transform="translate(341.943359 0)"/>
     <use xlink:href="#DejaVuSans-Bold-69" transform="translate(376.220703 0)"/>
     <use xlink:href="#DejaVuSans-Bold-6e" transform="translate(410.498047 0)"/>
     <use xlink:href="#DejaVuSans-Bold-65" transform="translate(481.689453 0)"/>
     <use xlink:href="#DejaVuSans-Bold-20" transform="translate(549.511719 0)"/>
     <use xlink:href="#DejaVuSans-Bold-43" transform="translate(584.326172 0)"/>
    </g>
    <!-- Energy or -->
    <g style="fill: #1f2933" transform="translate(496.84059 175.971706) scale(0.096 -0.096)">
     <defs>
      <path id="DejaVuSans-Bold-45" d="M 588 4666 
L 3834 4666 
L 3834 3756 
L 1791 3756 
L 1791 2888 
L 3713 2888 
L 3713 1978 
L 1791 1978 
L 1791 909 
L 3903 909 
L 3903 0 
L 588 0 
L 588 4666 
z
" transform="scale(0.015625)"/>
      <path id="DejaVuSans-Bold-67" d="M 2919 594 
Q 2688 288 2409 144 
Q 2131 0 1766 0 
Q 1125 0 706 504 
Q 288 1009 288 1791 
Q 288 2575 706 3076 
Q 1125 3578 1766 3578 
Q 2131 3578 2409 3434 
Q 2688 3291 2919 2981 
L 2919 3500 
L 4044 3500 
L 4044 353 
Q 4044 -491 3511 -936 
Q 2978 -1381 1966 -1381 
Q 1638 -1381 1331 -1331 
Q 1025 -1281 716 -1178 
L 716 -306 
Q 1009 -475 1290 -558 
Q 1572 -641 1856 -641 
Q 2406 -641 2662 -400 
Q 2919 -159 2919 353 
L 2919 594 
z
M 2181 2772 
Q 1834 2772 1640 2515 
Q 1447 2259 1447 1791 
Q 1447 1309 1634 1061 
Q 1822 813 2181 813 
Q 2531 813 2725 1069 
Q 2919 1325 2919 1791 
Q 2919 2259 2725 2515 
Q 2531 2772 2181 2772 
z
" transform="scale(0.015625)"/>
     </defs>
     <use xlink:href="#DejaVuSans-Bold-45"/>
     <use xlink:href="#DejaVuSans-Bold-6e" transform="translate(68.310547 0)"/>
     <use xlink:href="#DejaVuSans-Bold-65" transform="translate(139.501953 0)"/>
     <use xlink:href="#DejaVuSans-Bold-72" transform="translate(207.324219 0)"/>
     <use xlink:href="#DejaVuSans-Bold-67" transform="translate(256.640625 0)"/>
     <use xlink:href="#DejaVuSans-Bold-79" transform="translate(328.222656 0)"/>
     <use xlink:href="#DejaVuSans-Bold-20" transform="translate(393.408203 0)"/>
     <use xlink:href="#DejaVuSans-Bold-6f" transform="translate(428.222656 0)"/>
     <use xlink:href="#DejaVuSans-Bold-72" transform="translate(496.923828 0)"/>
    </g>
    <!-- aerodynamics -->
    <g style="fill: #1f2933" transform="translate(485.32959 186.796606) scale(0.096 -0.096)">
     <use xlink:href="#DejaVuSans-Bold-61"/>
     <use xlink:href="#DejaVuSans-Bold-65" transform="translate(67.480469 0)"/>
     <use xlink:href="#DejaVuSans-Bold-72" transform="translate(135.302734 0)"/>
     <use xlink:href="#DejaVuSans-Bold-6f" transform="translate(184.619141 0)"/>
     <use xlink:href="#DejaVuSans-Bold-64" transform="translate(253.320312 0)"/>
     <use xlink:href="#DejaVuSans-Bold-79" transform="translate(324.902344 0)"/>
     <use xlink:href="#DejaVuSans-Bold-6e" transform="translate(390.087891 0)"/>
     <use xlink:href="#DejaVuSans-Bold-61" transform="translate(461.279297 0)"/>
     <use xlink:href="#DejaVuSans-Bold-6d" transform="translate(528.759766 0)"/>
     <use xlink:href="#DejaVuSans-Bold-69" transform="translate(632.958984 0)"/>
     <use xlink:href="#DejaVuSans-Bold-63" transform="translate(667.236328 0)"/>
     <use xlink:href="#DejaVuSans-Bold-73" transform="translate(726.513672 0)"/>
    </g>
   </g>
   <g id="patch_7">
    <path d="M 305.01593 77.424768 
Q 198.841206 110.880422 92.666483 144.336075 
" clip-path="url(#pc4942a00fc)" style="fill: none; stroke: #5b6573; stroke-width: 1.5; stroke-linecap: round"/>
    <path d="M 298.391702 76.366654 
L 305.01593 77.424768 
L 300.194902 82.089282 
z
" clip-path="url(#pc4942a00fc)" style="fill: #5b6573; stroke: #5b6573; stroke-width: 1.5; stroke-linecap: round"/>
    <path d="M 99.290711 145.394189 
L 92.666483 144.336075 
L 97.487511 139.671561 
z
" clip-path="url(#pc4942a00fc)" style="fill: #5b6573; stroke: #5b6573; stroke-width: 1.5; stroke-linecap: round"/>
   </g>
   <g id="patch_8">
    <path d="M 308.333426 79.995907 
Q 306.832479 109.562724 305.331531 139.129541 
" clip-path="url(#pc4942a00fc)" style="fill: none; stroke: #5b6573; stroke-width: 1.5; stroke-linecap: round"/>
    <path d="M 305.033089 85.836093 
L 308.333426 79.995907 
L 311.025372 86.140289 
z
" clip-path="url(#pc4942a00fc)" style="fill: #5b6573; stroke: #5b6573; stroke-width: 1.5; stroke-linecap: round"/>
    <path d="M 308.631869 133.289355 
L 305.331531 139.129541 
L 302.639585 132.98516 
z
" clip-path="url(#pc4942a00fc)" style="fill: #5b6573; stroke: #5b6573; stroke-width: 1.5; stroke-linecap: round"/>
   </g>
   <g id="patch_9">
    <path d="M 312.030427 77.408405 
Q 415.788675 109.559791 519.546924 141.711177 
" clip-path="url(#pc4942a00fc)" style="fill: none; stroke: #5b6573; stroke-width: 1.5; stroke-linecap: round"/>
    <path d="M 316.873632 82.049887 
L 312.030427 77.408405 
L 318.649536 76.31873 
z
" clip-path="url(#pc4942a00fc)" style="fill: #5b6573; stroke: #5b6573; stroke-width: 1.5; stroke-linecap: round"/>
    <path d="M 514.703719 137.069694 
L 519.546924 141.711177 
L 512.927815 142.800852 
z
" clip-path="url(#pc4942a00fc)" style="fill: #5b6573; stroke: #5b6573; stroke-width: 1.5; stroke-linecap: round"/>
   </g>
   <g id="patch_10">
    <path d="M 163.299506 173.177576 
Q 191.607708 173.177576 219.915911 173.177576 
" clip-path="url(#pc4942a00fc)" style="fill: none; stroke: #b23a48; stroke-width: 2; stroke-linecap: round"/>
    <path d="M 169.299506 176.177576 
L 163.299506 173.177576 
L 169.299506 170.177576 
z
" clip-path="url(#pc4942a00fc)" style="fill: #b23a48; stroke: #b23a48; stroke-width: 2; stroke-linecap: round"/>
    <path d="M 213.915911 170.177576 
L 219.915911 173.177576 
L 213.915911 176.177576 
z
" clip-path="url(#pc4942a00fc)" style="fill: #b23a48; stroke: #b23a48; stroke-width: 2; stroke-linecap: round"/>
   </g>
   <g id="patch_11">
    <path d="M 389.894647 173.177576 
Q 416.993803 173.177576 444.092959 173.177576 
" clip-path="url(#pc4942a00fc)" style="fill: none; stroke: #b23a48; stroke-width: 2; stroke-linecap: round"/>
    <path d="M 395.894647 176.177576 
L 389.894647 173.177576 
L 395.894647 170.177576 
z
" clip-path="url(#pc4942a00fc)" style="fill: #b23a48; stroke: #b23a48; stroke-width: 2; stroke-linecap: round"/>
    <path d="M 438.092959 170.177576 
L 444.092959 173.177576 
L 438.092959 176.177576 
z
" clip-path="url(#pc4942a00fc)" style="fill: #b23a48; stroke: #b23a48; stroke-width: 2; stroke-linecap: round"/>
   </g>
   <g id="text_5">
    <!-- MDO coordinates design decisions across disciplines -->
    <g style="fill: #5b6573" transform="translate(191.702633 266.626817) scale(0.089 -0.089)">
     <defs>
      <path id="DejaVuSans-4d" d="M 628 4666 
L 1569 4666 
L 2759 1491 
L 3956 4666 
L 4897 4666 
L 4897 0 
L 4281 0 
L 4281 4097 
L 3078 897 
L 2444 897 
L 1241 4097 
L 1241 0 
L 628 0 
L 628 4666 
z
" transform="scale(0.015625)"/>
      <path id="DejaVuSans-44" d="M 1259 4147 
L 1259 519 
L 2022 519 
Q 2988 519 3436 956 
Q 3884 1394 3884 2338 
Q 3884 3275 3436 3711 
Q 2988 4147 2022 4147 
L 1259 4147 
z
M 628 4666 
L 1925 4666 
Q 3281 4666 3915 4102 
Q 4550 3538 4550 2338 
Q 4550 1131 3912 565 
Q 3275 0 1925 0 
L 628 0 
L 628 4666 
z
" transform="scale(0.015625)"/>
      <path id="DejaVuSans-4f" d="M 2522 4238 
Q 1834 4238 1429 3725 
Q 1025 3213 1025 2328 
Q 1025 1447 1429 934 
Q 1834 422 2522 422 
Q 3209 422 3611 934 
Q 4013 1447 4013 2328 
Q 4013 3213 3611 3725 
Q 3209 4238 2522 4238 
z
M 2522 4750 
Q 3503 4750 4090 4092 
Q 4678 3434 4678 2328 
Q 4678 1225 4090 567 
Q 3503 -91 2522 -91 
Q 1538 -91 948 565 
Q 359 1222 359 2328 
Q 359 3434 948 4092 
Q 1538 4750 2522 4750 
z
" transform="scale(0.015625)"/>
      <path id="DejaVuSans-20" transform="scale(0.015625)"/>
      <path id="DejaVuSans-63" d="M 3122 3366 
L 3122 2828 
Q 2878 2963 2633 3030 
Q 2388 3097 2138 3097 
Q 1578 3097 1268 2742 
Q 959 2388 959 1747 
Q 959 1106 1268 751 
Q 1578 397 2138 397 
Q 2388 397 2633 464 
Q 2878 531 3122 666 
L 3122 134 
Q 2881 22 2623 -34 
Q 2366 -91 2075 -91 
Q 1284 -91 818 406 
Q 353 903 353 1747 
Q 353 2603 823 3093 
Q 1294 3584 2113 3584 
Q 2378 3584 2631 3529 
Q 2884 3475 3122 3366 
z
" transform="scale(0.015625)"/>
      <path id="DejaVuSans-6f" d="M 1959 3097 
Q 1497 3097 1228 2736 
Q 959 2375 959 1747 
Q 959 1119 1226 758 
Q 1494 397 1959 397 
Q 2419 397 2687 759 
Q 2956 1122 2956 1747 
Q 2956 2369 2687 2733 
Q 2419 3097 1959 3097 
z
M 1959 3584 
Q 2709 3584 3137 3096 
Q 3566 2609 3566 1747 
Q 3566 888 3137 398 
Q 2709 -91 1959 -91 
Q 1206 -91 779 398 
Q 353 888 353 1747 
Q 353 2609 779 3096 
Q 1206 3584 1959 3584 
z
" transform="scale(0.015625)"/>
      <path id="DejaVuSans-72" d="M 2631 2963 
Q 2534 3019 2420 3045 
Q 2306 3072 2169 3072 
Q 1681 3072 1420 2755 
Q 1159 2438 1159 1844 
L 1159 0 
L 581 0 
L 581 3500 
L 1159 3500 
L 1159 2956 
Q 1341 3275 1631 3429 
Q 1922 3584 2338 3584 
Q 2397 3584 2469 3576 
Q 2541 3569 2628 3553 
L 2631 2963 
z
" transform="scale(0.015625)"/>
      <path id="DejaVuSans-64" d="M 2906 2969 
L 2906 4863 
L 3481 4863 
L 3481 0 
L 2906 0 
L 2906 525 
Q 2725 213 2448 61 
Q 2172 -91 1784 -91 
Q 1150 -91 751 415 
Q 353 922 353 1747 
Q 353 2572 751 3078 
Q 1150 3584 1784 3584 
Q 2172 3584 2448 3432 
Q 2725 3281 2906 2969 
z
M 947 1747 
Q 947 1113 1208 752 
Q 1469 391 1925 391 
Q 2381 391 2643 752 
Q 2906 1113 2906 1747 
Q 2906 2381 2643 2742 
Q 2381 3103 1925 3103 
Q 1469 3103 1208 2742 
Q 947 2381 947 1747 
z
" transform="scale(0.015625)"/>
      <path id="DejaVuSans-69" d="M 603 3500 
L 1178 3500 
L 1178 0 
L 603 0 
L 603 3500 
z
M 603 4863 
L 1178 4863 
L 1178 4134 
L 603 4134 
L 603 4863 
z
" transform="scale(0.015625)"/>
      <path id="DejaVuSans-6e" d="M 3513 2113 
L 3513 0 
L 2938 0 
L 2938 2094 
Q 2938 2591 2744 2837 
Q 2550 3084 2163 3084 
Q 1697 3084 1428 2787 
Q 1159 2491 1159 1978 
L 1159 0 
L 581 0 
L 581 3500 
L 1159 3500 
L 1159 2956 
Q 1366 3272 1645 3428 
Q 1925 3584 2291 3584 
Q 2894 3584 3203 3211 
Q 3513 2838 3513 2113 
z
" transform="scale(0.015625)"/>
      <path id="DejaVuSans-61" d="M 2194 1759 
Q 1497 1759 1228 1600 
Q 959 1441 959 1056 
Q 959 750 1161 570 
Q 1363 391 1709 391 
Q 2188 391 2477 730 
Q 2766 1069 2766 1631 
L 2766 1759 
L 2194 1759 
z
M 3341 1997 
L 3341 0 
L 2766 0 
L 2766 531 
Q 2569 213 2275 61 
Q 1981 -91 1556 -91 
Q 1019 -91 701 211 
Q 384 513 384 1019 
Q 384 1609 779 1909 
Q 1175 2209 1959 2209 
L 2766 2209 
L 2766 2266 
Q 2766 2663 2505 2880 
Q 2244 3097 1772 3097 
Q 1472 3097 1187 3025 
Q 903 2953 641 2809 
L 641 3341 
Q 956 3463 1253 3523 
Q 1550 3584 1831 3584 
Q 2591 3584 2966 3190 
Q 3341 2797 3341 1997 
z
" transform="scale(0.015625)"/>
      <path id="DejaVuSans-74" d="M 1172 4494 
L 1172 3500 
L 2356 3500 
L 2356 3053 
L 1172 3053 
L 1172 1153 
Q 1172 725 1289 603 
Q 1406 481 1766 481 
L 2356 481 
L 2356 0 
L 1766 0 
Q 1100 0 847 248 
Q 594 497 594 1153 
L 594 3053 
L 172 3053 
L 172 3500 
L 594 3500 
L 594 4494 
L 1172 4494 
z
" transform="scale(0.015625)"/>
      <path id="DejaVuSans-65" d="M 3597 1894 
L 3597 1613 
L 953 1613 
Q 991 1019 1311 708 
Q 1631 397 2203 397 
Q 2534 397 2845 478 
Q 3156 559 3463 722 
L 3463 178 
Q 3153 47 2828 -22 
Q 2503 -91 2169 -91 
Q 1331 -91 842 396 
Q 353 884 353 1716 
Q 353 2575 817 3079 
Q 1281 3584 2069 3584 
Q 2775 3584 3186 3129 
Q 3597 2675 3597 1894 
z
M 3022 2063 
Q 3016 2534 2758 2815 
Q 2500 3097 2075 3097 
Q 1594 3097 1305 2825 
Q 1016 2553 972 2059 
L 3022 2063 
z
" transform="scale(0.015625)"/>
      <path id="DejaVuSans-73" d="M 2834 3397 
L 2834 2853 
Q 2591 2978 2328 3040 
Q 2066 3103 1784 3103 
Q 1356 3103 1142 2972 
Q 928 2841 928 2578 
Q 928 2378 1081 2264 
Q 1234 2150 1697 2047 
L 1894 2003 
Q 2506 1872 2764 1633 
Q 3022 1394 3022 966 
Q 3022 478 2636 193 
Q 2250 -91 1575 -91 
Q 1294 -91 989 -36 
Q 684 19 347 128 
L 347 722 
Q 666 556 975 473 
Q 1284 391 1588 391 
Q 1994 391 2212 530 
Q 2431 669 2431 922 
Q 2431 1156 2273 1281 
Q 2116 1406 1581 1522 
L 1381 1569 
Q 847 1681 609 1914 
Q 372 2147 372 2553 
Q 372 3047 722 3315 
Q 1072 3584 1716 3584 
Q 2034 3584 2315 3537 
Q 2597 3491 2834 3397 
z
" transform="scale(0.015625)"/>
      <path id="DejaVuSans-67" d="M 2906 1791 
Q 2906 2416 2648 2759 
Q 2391 3103 1925 3103 
Q 1463 3103 1205 2759 
Q 947 2416 947 1791 
Q 947 1169 1205 825 
Q 1463 481 1925 481 
Q 2391 481 2648 825 
Q 2906 1169 2906 1791 
z
M 3481 434 
Q 3481 -459 3084 -895 
Q 2688 -1331 1869 -1331 
Q 1566 -1331 1297 -1286 
Q 1028 -1241 775 -1147 
L 775 -588 
Q 1028 -725 1275 -790 
Q 1522 -856 1778 -856 
Q 2344 -856 2625 -561 
Q 2906 -266 2906 331 
L 2906 616 
Q 2728 306 2450 153 
Q 2172 0 1784 0 
Q 1141 0 747 490 
Q 353 981 353 1791 
Q 353 2603 747 3093 
Q 1141 3584 1784 3584 
Q 2172 3584 2450 3431 
Q 2728 3278 2906 2969 
L 2906 3500 
L 3481 3500 
L 3481 434 
z
" transform="scale(0.015625)"/>
      <path id="DejaVuSans-70" d="M 1159 525 
L 1159 -1331 
L 581 -1331 
L 581 3500 
L 1159 3500 
L 1159 2969 
Q 1341 3281 1617 3432 
Q 1894 3584 2278 3584 
Q 2916 3584 3314 3078 
Q 3713 2572 3713 1747 
Q 3713 922 3314 415 
Q 2916 -91 2278 -91 
Q 1894 -91 1617 61 
Q 1341 213 1159 525 
z
M 3116 1747 
Q 3116 2381 2855 2742 
Q 2594 3103 2138 3103 
Q 1681 3103 1420 2742 
Q 1159 2381 1159 1747 
Q 1159 1113 1420 752 
Q 1681 391 2138 391 
Q 2594 391 2855 752 
Q 3116 1113 3116 1747 
z
" transform="scale(0.015625)"/>
      <path id="DejaVuSans-6c" d="M 603 4863 
L 1178 4863 
L 1178 0 
L 603 0 
L 603 4863 
z
" transform="scale(0.015625)"/>
     </defs>
     <use xlink:href="#DejaVuSans-4d"/>
     <use xlink:href="#DejaVuSans-44" transform="translate(86.279297 0)"/>
     <use xlink:href="#DejaVuSans-4f" transform="translate(163.28125 0)"/>
     <use xlink:href="#DejaVuSans-20" transform="translate(241.992188 0)"/>
     <use xlink:href="#DejaVuSans-63" transform="translate(273.779297 0)"/>
     <use xlink:href="#DejaVuSans-6f" transform="translate(328.759766 0)"/>
     <use xlink:href="#DejaVuSans-6f" transform="translate(389.941406 0)"/>
     <use xlink:href="#DejaVuSans-72" transform="translate(451.123047 0)"/>
     <use xlink:href="#DejaVuSans-64" transform="translate(490.486328 0)"/>
     <use xlink:href="#DejaVuSans-69" transform="translate(553.962891 0)"/>
     <use xlink:href="#DejaVuSans-6e" transform="translate(581.746094 0)"/>
     <use xlink:href="#DejaVuSans-61" transform="translate(645.125 0)"/>
     <use xlink:href="#DejaVuSans-74" transform="translate(706.404297 0)"/>
     <use xlink:href="#DejaVuSans-65" transform="translate(745.613281 0)"/>
     <use xlink:href="#DejaVuSans-73" transform="translate(807.136719 0)"/>
     <use xlink:href="#DejaVuSans-20" transform="translate(859.236328 0)"/>
     <use xlink:href="#DejaVuSans-64" transform="translate(891.023438 0)"/>
     <use xlink:href="#DejaVuSans-65" transform="translate(954.5 0)"/>
     <use xlink:href="#DejaVuSans-73" transform="translate(1016.023438 0)"/>
     <use xlink:href="#DejaVuSans-69" transform="translate(1068.123047 0)"/>
     <use xlink:href="#DejaVuSans-67" transform="translate(1095.90625 0)"/>
     <use xlink:href="#DejaVuSans-6e" transform="translate(1159.382812 0)"/>
     <use xlink:href="#DejaVuSans-20" transform="translate(1222.761719 0)"/>
     <use xlink:href="#DejaVuSans-64" transform="translate(1254.548828 0)"/>
     <use xlink:href="#DejaVuSans-65" transform="translate(1318.025391 0)"/>
     <use xlink:href="#DejaVuSans-63" transform="translate(1379.548828 0)"/>
     <use xlink:href="#DejaVuSans-69" transform="translate(1434.529297 0)"/>
     <use xlink:href="#DejaVuSans-73" transform="translate(1462.3125 0)"/>
     <use xlink:href="#DejaVuSans-69" transform="translate(1514.412109 0)"/>
     <use xlink:href="#DejaVuSans-6f" transform="translate(1542.195312 0)"/>
     <use xlink:href="#DejaVuSans-6e" transform="translate(1603.376953 0)"/>
     <use xlink:href="#DejaVuSans-73" transform="translate(1666.755859 0)"/>
     <use xlink:href="#DejaVuSans-20" transform="translate(1718.855469 0)"/>
     <use xlink:href="#DejaVuSans-61" transform="translate(1750.642578 0)"/>
     <use xlink:href="#DejaVuSans-63" transform="translate(1811.921875 0)"/>
     <use xlink:href="#DejaVuSans-72" transform="translate(1866.902344 0)"/>
     <use xlink:href="#DejaVuSans-6f" transform="translate(1905.765625 0)"/>
     <use xlink:href="#DejaVuSans-73" transform="translate(1966.947266 0)"/>
     <use xlink:href="#DejaVuSans-73" transform="translate(2019.046875 0)"/>
     <use xlink:href="#DejaVuSans-20" transform="translate(2071.146484 0)"/>
     <use xlink:href="#DejaVuSans-64" transform="translate(2102.933594 0)"/>
     <use xlink:href="#DejaVuSans-69" transform="translate(2166.410156 0)"/>
     <use xlink:href="#DejaVuSans-73" transform="translate(2194.193359 0)"/>
     <use xlink:href="#DejaVuSans-63" transform="translate(2246.292969 0)"/>
     <use xlink:href="#DejaVuSans-69" transform="translate(2301.273438 0)"/>
     <use xlink:href="#DejaVuSans-70" transform="translate(2329.056641 0)"/>
     <use xlink:href="#DejaVuSans-6c" transform="translate(2392.533203 0)"/>
     <use xlink:href="#DejaVuSans-69" transform="translate(2420.316406 0)"/>
     <use xlink:href="#DejaVuSans-6e" transform="translate(2448.099609 0)"/>
     <use xlink:href="#DejaVuSans-65" transform="translate(2511.478516 0)"/>
     <use xlink:href="#DejaVuSans-73" transform="translate(2573.001953 0)"/>
    </g>
    <!-- whose analyses and constraints depend on one another. -->
    <g style="fill: #5b6573" transform="translate(182.756047 276.59287) scale(0.089 -0.089)">
     <defs>
      <path id="DejaVuSans-77" d="M 269 3500 
L 844 3500 
L 1563 769 
L 2278 3500 
L 2956 3500 
L 3675 769 
L 4391 3500 
L 4966 3500 
L 4050 0 
L 3372 0 
L 2619 2869 
L 1863 0 
L 1184 0 
L 269 3500 
z
" transform="scale(0.015625)"/>
      <path id="DejaVuSans-68" d="M 3513 2113 
L 3513 0 
L 2938 0 
L 2938 2094 
Q 2938 2591 2744 2837 
Q 2550 3084 2163 3084 
Q 1697 3084 1428 2787 
Q 1159 2491 1159 1978 
L 1159 0 
L 581 0 
L 581 4863 
L 1159 4863 
L 1159 2956 
Q 1366 3272 1645 3428 
Q 1925 3584 2291 3584 
Q 2894 3584 3203 3211 
Q 3513 2838 3513 2113 
z
" transform="scale(0.015625)"/>
      <path id="DejaVuSans-79" d="M 2059 -325 
Q 1816 -950 1584 -1140 
Q 1353 -1331 966 -1331 
L 506 -1331 
L 506 -850 
L 844 -850 
Q 1081 -850 1212 -737 
Q 1344 -625 1503 -206 
L 1606 56 
L 191 3500 
L 800 3500 
L 1894 763 
L 2988 3500 
L 3597 3500 
L 2059 -325 
z
" transform="scale(0.015625)"/>
      <path id="DejaVuSans-2e" d="M 684 794 
L 1344 794 
L 1344 0 
L 684 0 
L 684 794 
z
" transform="scale(0.015625)"/>
     </defs>
     <use xlink:href="#DejaVuSans-77"/>
     <use xlink:href="#DejaVuSans-68" transform="translate(81.787109 0)"/>
     <use xlink:href="#DejaVuSans-6f" transform="translate(145.166016 0)"/>
     <use xlink:href="#DejaVuSans-73" transform="translate(206.347656 0)"/>
     <use xlink:href="#DejaVuSans-65" transform="translate(258.447266 0)"/>
     <use xlink:href="#DejaVuSans-20" transform="translate(319.970703 0)"/>
     <use xlink:href="#DejaVuSans-61" transform="translate(351.757812 0)"/>
     <use xlink:href="#DejaVuSans-6e" transform="translate(413.037109 0)"/>
     <use xlink:href="#DejaVuSans-61" transform="translate(476.416016 0)"/>
     <use xlink:href="#DejaVuSans-6c" transform="translate(537.695312 0)"/>
     <use xlink:href="#DejaVuSans-79" transform="translate(565.478516 0)"/>
     <use xlink:href="#DejaVuSans-73" transform="translate(624.658203 0)"/>
     <use xlink:href="#DejaVuSans-65" transform="translate(676.757812 0)"/>
     <use xlink:href="#DejaVuSans-73" transform="translate(738.28125 0)"/>
     <use xlink:href="#DejaVuSans-20" transform="translate(790.380859 0)"/>
     <use xlink:href="#DejaVuSans-61" transform="translate(822.167969 0)"/>
     <use xlink:href="#DejaVuSans-6e" transform="translate(883.447266 0)"/>
     <use xlink:href="#DejaVuSans-64" transform="translate(946.826172 0)"/>
     <use xlink:href="#DejaVuSans-20" transform="translate(1010.302734 0)"/>
     <use xlink:href="#DejaVuSans-63" transform="translate(1042.089844 0)"/>
     <use xlink:href="#DejaVuSans-6f" transform="translate(1097.070312 0)"/>
     <use xlink:href="#DejaVuSans-6e" transform="translate(1158.251953 0)"/>
     <use xlink:href="#DejaVuSans-73" transform="translate(1221.630859 0)"/>
     <use xlink:href="#DejaVuSans-74" transform="translate(1273.730469 0)"/>
     <use xlink:href="#DejaVuSans-72" transform="translate(1312.939453 0)"/>
     <use xlink:href="#DejaVuSans-61" transform="translate(1354.052734 0)"/>
     <use xlink:href="#DejaVuSans-69" transform="translate(1415.332031 0)"/>
     <use xlink:href="#DejaVuSans-6e" transform="translate(1443.115234 0)"/>
     <use xlink:href="#DejaVuSans-74" transform="translate(1506.494141 0)"/>
     <use xlink:href="#DejaVuSans-73" transform="translate(1545.703125 0)"/>
     <use xlink:href="#DejaVuSans-20" transform="translate(1597.802734 0)"/>
     <use xlink:href="#DejaVuSans-64" transform="translate(1629.589844 0)"/>
     <use xlink:href="#DejaVuSans-65" transform="translate(1693.066406 0)"/>
     <use xlink:href="#DejaVuSans-70" transform="translate(1754.589844 0)"/>
     <use xlink:href="#DejaVuSans-65" transform="translate(1818.066406 0)"/>
     <use xlink:href="#DejaVuSans-6e" transform="translate(1879.589844 0)"/>
     <use xlink:href="#DejaVuSans-64" transform="translate(1942.96875 0)"/>
     <use xlink:href="#DejaVuSans-20" transform="translate(2006.445312 0)"/>
     <use xlink:href="#DejaVuSans-6f" transform="translate(2038.232422 0)"/>
     <use xlink:href="#DejaVuSans-6e" transform="translate(2099.414062 0)"/>
     <use xlink:href="#DejaVuSans-20" transform="translate(2162.792969 0)"/>
     <use xlink:href="#DejaVuSans-6f" transform="translate(2194.580078 0)"/>
     <use xlink:href="#DejaVuSans-6e" transform="translate(2255.761719 0)"/>
     <use xlink:href="#DejaVuSans-65" transform="translate(2319.140625 0)"/>
     <use xlink:href="#DejaVuSans-20" transform="translate(2380.664062 0)"/>
     <use xlink:href="#DejaVuSans-61" transform="translate(2412.451172 0)"/>
     <use xlink:href="#DejaVuSans-6e" transform="translate(2473.730469 0)"/>
     <use xlink:href="#DejaVuSans-6f" transform="translate(2537.109375 0)"/>
     <use xlink:href="#DejaVuSans-74" transform="translate(2598.291016 0)"/>
     <use xlink:href="#DejaVuSans-68" transform="translate(2637.5 0)"/>
     <use xlink:href="#DejaVuSans-65" transform="translate(2700.878906 0)"/>
     <use xlink:href="#DejaVuSans-72" transform="translate(2762.402344 0)"/>
     <use xlink:href="#DejaVuSans-2e" transform="translate(2794.390625 0)"/>
    </g>
   </g>
   <g id="patch_12">
    <path d="M 168.70752 161.290588 
L 214.50816 161.290588 
Q 220.293504 161.290588 220.293504 156.007482 
L 220.293504 151.604894 
Q 220.293504 146.321788 214.50816 146.321788 
L 168.70752 146.321788 
Q 162.922176 146.321788 162.922176 151.604894 
L 162.922176 156.007482 
Q 162.922176 161.290588 168.70752 161.290588 
z
" clip-path="url(#pc4942a00fc)" style="fill: #ffffff; stroke: #b23a48; stroke-linejoin: miter"/>
   </g>
   <g id="patch_13">
    <path d="M 395.30016 161.290588 
L 441.1008 161.290588 
Q 446.886144 161.290588 446.886144 156.007482 
L 446.886144 151.604894 
Q 446.886144 146.321788 441.1008 146.321788 
L 395.30016 146.321788 
Q 389.514816 146.321788 389.514816 151.604894 
L 389.514816 156.007482 
Q 389.514816 161.290588 395.30016 161.290588 
z
" clip-path="url(#pc4942a00fc)" style="fill: #ffffff; stroke: #b23a48; stroke-linejoin: miter"/>
   </g>
   <g id="text_6">
    <!-- coupling data -->
    <g style="fill: #b23a48" transform="translate(164.308465 156.013688) scale(0.08 -0.08)">
     <defs>
      <path id="DejaVuSans-75" d="M 544 1381 
L 544 3500 
L 1119 3500 
L 1119 1403 
Q 1119 906 1312 657 
Q 1506 409 1894 409 
Q 2359 409 2629 706 
Q 2900 1003 2900 1516 
L 2900 3500 
L 3475 3500 
L 3475 0 
L 2900 0 
L 2900 538 
Q 2691 219 2414 64 
Q 2138 -91 1772 -91 
Q 1169 -91 856 284 
Q 544 659 544 1381 
z
M 1991 3584 
L 1991 3584 
z
" transform="scale(0.015625)"/>
     </defs>
     <use xlink:href="#DejaVuSans-63"/>
     <use xlink:href="#DejaVuSans-6f" transform="translate(54.980469 0)"/>
     <use xlink:href="#DejaVuSans-75" transform="translate(116.162109 0)"/>
     <use xlink:href="#DejaVuSans-70" transform="translate(179.541016 0)"/>
     <use xlink:href="#DejaVuSans-6c" transform="translate(243.017578 0)"/>
     <use xlink:href="#DejaVuSans-69" transform="translate(270.800781 0)"/>
     <use xlink:href="#DejaVuSans-6e" transform="translate(298.583984 0)"/>
     <use xlink:href="#DejaVuSans-67" transform="translate(361.962891 0)"/>
     <use xlink:href="#DejaVuSans-20" transform="translate(425.439453 0)"/>
     <use xlink:href="#DejaVuSans-64" transform="translate(457.226562 0)"/>
     <use xlink:href="#DejaVuSans-61" transform="translate(520.703125 0)"/>
     <use xlink:href="#DejaVuSans-74" transform="translate(581.982422 0)"/>
     <use xlink:href="#DejaVuSans-61" transform="translate(621.191406 0)"/>
    </g>
   </g>
   <g id="text_7">
    <!-- coupling data -->
    <g style="fill: #b23a48" transform="translate(390.901105 156.013688) scale(0.08 -0.08)">
     <use xlink:href="#DejaVuSans-63"/>
     <use xlink:href="#DejaVuSans-6f" transform="translate(54.980469 0)"/>
     <use xlink:href="#DejaVuSans-75" transform="translate(116.162109 0)"/>
     <use xlink:href="#DejaVuSans-70" transform="translate(179.541016 0)"/>
     <use xlink:href="#DejaVuSans-6c" transform="translate(243.017578 0)"/>
     <use xlink:href="#DejaVuSans-69" transform="translate(270.800781 0)"/>
     <use xlink:href="#DejaVuSans-6e" transform="translate(298.583984 0)"/>
     <use xlink:href="#DejaVuSans-67" transform="translate(361.962891 0)"/>
     <use xlink:href="#DejaVuSans-20" transform="translate(425.439453 0)"/>
     <use xlink:href="#DejaVuSans-64" transform="translate(457.226562 0)"/>
     <use xlink:href="#DejaVuSans-61" transform="translate(520.703125 0)"/>
     <use xlink:href="#DejaVuSans-74" transform="translate(581.982422 0)"/>
     <use xlink:href="#DejaVuSans-61" transform="translate(621.191406 0)"/>
    </g>
   </g>
  </g>
 </g>
 <defs>
  <clipPath id="pc4942a00fc">
   <rect x="7.2" y="7.2" width="602.64" height="299.376"/>
  </clipPath>
 </defs>
</svg>
