<svg width="4175" height="1825" xmlns="http://www.w3.org/2000/svg" xmlns:xlink="http://www.w3.org/1999/xlink" xml:space="preserve" overflow="hidden"><g transform="translate(-73 -375)"><g><path d="M964.5 1338 1095 1338 1095 1349 964.5 1349ZM1089.5 1327 1122.5 1343.5 1089.5 1360Z" fill="#5A6573" fill-rule="nonzero" fill-opacity="1"/><path d="M4.35395-3.36052 261.551 329.87 252.844 336.591-4.35395 3.36052ZM266.899 318.794 274 355 240.775 338.958Z" fill="#5A6573" fill-rule="nonzero" fill-opacity="1" transform="matrix(1 0 0 -1 1858.5 1343.5)"/><path d="M1859.68 1339.92 2124.77 1649.04 2116.42 1656.2 1851.33 1347.08ZM2129.54 1637.71 2138.5 1673.5 2104.49 1659.19Z" fill="#5A6573" fill-rule="nonzero" fill-opacity="1"/><path d="M3080.6 1062.84 3309.3 1319.31 3301.09 1326.64 3072.4 1070.16ZM3313.85 1307.89 3323.5 1343.5 3289.22 1329.85Z" fill="#5A6573" fill-rule="nonzero" fill-opacity="1"/><path d="M4.30154-3.42735 234.165 285.065 225.562 291.92-4.30154 3.42735ZM239.34 273.909 247 310 213.531 294.473Z" fill="#5A6573" fill-rule="nonzero" fill-opacity="1" transform="matrix(1 0 0 -1 3076.5 1653.5)"/><path d="M608.5 415.552C608.5 397.298 623.298 382.5 641.552 382.5L3759.45 382.5C3777.7 382.5 3792.5 397.298 3792.5 415.552L3792.5 663.448C3792.5 681.702 3777.7 696.5 3759.45 696.5L641.552 696.5C623.298 696.5 608.5 681.702 608.5 663.448Z" stroke="#5B6675" stroke-width="9.16667" stroke-linecap="butt" stroke-linejoin="round" stroke-miterlimit="10" stroke-opacity="1" fill="#FFFFFF" fill-rule="evenodd" fill-opacity="1"/><text fill="#5B6675" fill-opacity="1" font-family="Aptos,Aptos_MSFontService,sans-serif" font-style="normal" font-variant="normal" font-weight="400" font-stretch="normal" font-size="96" text-anchor="start" direction="ltr" writing-mode="lr-tb" unicode-bidi="normal" text-decoration="none" transform="matrix(1 0 0 1 881.398 513)">Engineering design optimization replaces manual trial</text><text fill="#5B6675" fill-opacity="1" font-family="Aptos,Aptos_MSFontService,sans-serif" font-style="normal" font-variant="normal" font-weight="400" font-stretch="normal" font-size="96" text-anchor="start" direction="ltr" writing-mode="lr-tb" unicode-bidi="normal" text-decoration="none" transform="matrix(1 0 0 1 3095.95 513)">-</text><text fill="#5B6675" fill-opacity="1" font-family="Aptos,Aptos_MSFontService,sans-serif" font-style="normal" font-variant="normal" font-weight="400" font-stretch="normal" font-size="96" text-anchor="start" direction="ltr" writing-mode="lr-tb" unicode-bidi="normal" text-decoration="none" transform="matrix(1 0 0 1 3128.61 513)">and</text><text fill="#5B6675" fill-opacity="1" font-family="Aptos,Aptos_MSFontService,sans-serif" font-style="normal" font-variant="normal" font-weight="400" font-stretch="normal" font-size="96" text-anchor="start" direction="ltr" writing-mode="lr-tb" unicode-bidi="normal" text-decoration="none" transform="matrix(1 0 0 1 3286.73 513)">-</text><text fill="#5B6675" fill-opacity="1" font-family="Aptos,Aptos_MSFontService,sans-serif" font-style="normal" font-variant="normal" font-weight="400" font-stretch="normal" font-size="96" text-anchor="start" direction="ltr" writing-mode="lr-tb" unicode-bidi="normal" text-decoration="none" transform="matrix(1 0 0 1 3319.39 513)">error</text><text fill="#5B6675" fill-opacity="1" font-family="Aptos,Aptos_MSFontService,sans-serif" font-style="normal" font-variant="normal" font-weight="400" font-stretch="normal" font-size="96" text-anchor="start" direction="ltr" writing-mode="lr-tb" unicode-bidi="normal" text-decoration="none" transform="matrix(1 0 0 1 1144.09 628)">with systematic search for the best feasible design.</text><path d="M116.5 1122.53C116.5 1104.29 131.287 1089.5 149.527 1089.5L924.473 1089.5C942.713 1089.5 957.5 1104.29 957.5 1122.53L957.5 1525.47C957.5 1543.71 942.713 1558.5 924.473 1558.5L149.527 1558.5C131.287 1558.5 116.5 1543.71 116.5 1525.47Z" stroke="#123E66" stroke-width="9.16667" stroke-linecap="butt" stroke-linejoin="round" stroke-miterlimit="10" stroke-opacity="1" fill="#EAF3FA" fill-rule="evenodd" fill-opacity="1"/><text fill="#1F2933" fill-opacity="1" font-family="Aptos,Aptos_MSFontService,sans-serif" font-style="normal" font-variant="normal" font-weight="700" font-stretch="normal" font-size="105" text-anchor="start" direction="ltr" writing-mode="lr-tb" unicode-bidi="normal" text-decoration="none" transform="matrix(1 0 0 1 140.067 1294)">Design variables</text><text fill="#1F2933" fill-opacity="1" font-family="Aptos,Aptos_MSFontService,sans-serif" font-style="normal" font-variant="normal" font-weight="700" font-stretch="normal" font-size="105" text-anchor="start" direction="ltr" writing-mode="lr-tb" unicode-bidi="normal" text-decoration="none" transform="matrix(1 0 0 1 510.194 1421)">x</text><path d="M1142.5 1122.53C1142.5 1104.29 1157.29 1089.5 1175.53 1089.5L1818.47 1089.5C1836.71 1089.5 1851.5 1104.29 1851.5 1122.53L1851.5 1525.48C1851.5 1543.72 1836.71 1558.5 1818.47 1558.5L1175.53 1558.5C1157.29 1558.5 1142.5 1543.72 1142.5 1525.48Z" stroke="#5B6675" stroke-width="9.16667" stroke-linecap="butt" stroke-linejoin="round" stroke-miterlimit="10" stroke-opacity="1" fill="#F5F6F8" fill-rule="evenodd" fill-opacity="1"/><text fill="#1F2933" fill-opacity="1" font-family="Aptos,Aptos_MSFontService,sans-serif" font-style="normal" font-variant="normal" font-weight="400" font-stretch="normal" font-size="101" text-anchor="start" direction="ltr" writing-mode="lr-tb" unicode-bidi="normal" text-decoration="none" transform="matrix(1 0 0 1 1165.7 1295)">Analysis model</text><text fill="#1F2933" fill-opacity="1" font-family="Aptos,Aptos_MSFontService,sans-serif" font-style="normal" font-variant="normal" font-weight="400" font-stretch="normal" font-size="101" text-anchor="start" direction="ltr" writing-mode="lr-tb" unicode-bidi="normal" text-decoration="none" transform="matrix(1 0 0 1 1305.47 1416)">r(x, y) = 0</text><path d="M2162.5 809.426C2162.5 791.242 2177.24 776.5 2195.43 776.5L3020.57 776.5C3038.76 776.5 3053.5 791.242 3053.5 809.426L3053.5 1148.57C3053.5 1166.76 3038.76 1181.5 3020.57 1181.5L2195.43 1181.5C2177.24 1181.5 2162.5 1166.76 2162.5 1148.57Z" stroke="#D97706" stroke-width="9.16667" stroke-linecap="butt" stroke-linejoin="round" stroke-miterlimit="10" stroke-opacity="1" fill="#FFF7E8" fill-rule="evenodd" fill-opacity="1"/><text fill="#1F2933" fill-opacity="1" font-family="Aptos,Aptos_MSFontService,sans-serif" font-style="normal" font-variant="normal" font-weight="700" font-stretch="normal" font-size="105" text-anchor="start" direction="ltr" writing-mode="lr-tb" unicode-bidi="normal" text-decoration="none" transform="matrix(1 0 0 1 2377.49 949)">Objective</text><text fill="#1F2933" fill-opacity="1" font-family="Aptos,Aptos_MSFontService,sans-serif" font-style="normal" font-variant="normal" font-weight="700" font-stretch="normal" font-size="105" text-anchor="start" direction="ltr" writing-mode="lr-tb" unicode-bidi="normal" text-decoration="none" transform="matrix(1 0 0 1 2479.81 1076)">f(x, y)</text><path d="M2162.5 1544.51C2162.5 1526.28 2177.28 1511.5 2195.51 1511.5L3020.49 1511.5C3038.72 1511.5 3053.5 1526.28 3053.5 1544.51L3053.5 1884.49C3053.5 1902.72 3038.72 1917.5 3020.49 1917.5L2195.51 1917.5C2177.28 1917.5 2162.5 1902.72 2162.5 1884.49Z" stroke="#2E8B57" stroke-width="9.16667" stroke-linecap="butt" stroke-linejoin="round" stroke-miterlimit="10" stroke-opacity="1" fill="#EAF7EF" fill-rule="evenodd" fill-opacity="1"/><text fill="#1F2933" fill-opacity="1" font-family="Aptos,Aptos_MSFontService,sans-serif" font-style="normal" font-variant="normal" font-weight="700" font-stretch="normal" font-size="101" text-anchor="start" direction="ltr" writing-mode="lr-tb" unicode-bidi="normal" text-decoration="none" transform="matrix(1 0 0 1 2338 1686)">Constraints</text><text fill="#1F2933" fill-opacity="1" font-family="Aptos,Aptos_MSFontService,sans-serif" font-style="normal" font-variant="normal" font-weight="700" font-stretch="normal" font-size="101" text-anchor="start" direction="ltr" writing-mode="lr-tb" unicode-bidi="normal" text-decoration="none" transform="matrix(1 0 0 1 2367.25 1807)">g ≤ 0,  h = 0</text><path d="M3333.5 1122.53C3333.5 1104.29 3348.29 1089.5 3366.53 1089.5L4208.47 1089.5C4226.71 1089.5 4241.5 1104.29 4241.5 1122.53L4241.5 1525.47C4241.5 1543.71 4226.71 1558.5 4208.47 1558.5L3366.53 1558.5C3348.29 1558.5 3333.5 1543.71 3333.5 1525.47Z" stroke="#123E66" stroke-width="9.16667" stroke-linecap="butt" stroke-linejoin="round" stroke-miterlimit="10" stroke-opacity="1" fill="#FFFFFF" fill-rule="evenodd" fill-opacity="1"/><text fill="#123E66" fill-opacity="1" font-family="Aptos,Aptos_MSFontService,sans-serif" font-style="normal" font-variant="normal" font-weight="700" font-stretch="normal" font-size="119" text-anchor="start" direction="ltr" writing-mode="lr-tb" unicode-bidi="normal" text-decoration="none" transform="matrix(1 0 0 1 3435.93 1290)">Optimization</text><text fill="#123E66" fill-opacity="1" font-family="Aptos,Aptos_MSFontService,sans-serif" font-style="normal" font-variant="normal" font-weight="700" font-stretch="normal" font-size="119" text-anchor="start" direction="ltr" writing-mode="lr-tb" unicode-bidi="normal" text-decoration="none" transform="matrix(1 0 0 1 3525.65 1433)">algorithm</text><path d="M1851.5 2066.42C1851.5 2048.24 1866.24 2033.5 1884.42 2033.5L2766.58 2033.5C2784.76 2033.5 2799.5 2048.24 2799.5 2066.42L2799.5 2158.58C2799.5 2176.76 2784.76 2191.5 2766.58 2191.5L1884.42 2191.5C1866.24 2191.5 1851.5 2176.76 1851.5 2158.58Z" stroke="#D97706" stroke-width="9.16667" stroke-linecap="butt" stroke-linejoin="round" stroke-miterlimit="10" stroke-opacity="1" fill="#FFFFFF" fill-rule="evenodd" fill-opacity="1"/><text fill="#D97706" fill-opacity="1" font-family="Aptos,Aptos_MSFontService,sans-serif" font-style="normal" font-variant="normal" font-weight="400" font-stretch="normal" font-size="69" text-anchor="start" direction="ltr" writing-mode="lr-tb" unicode-bidi="normal" text-decoration="none" transform="matrix(1 0 0 1 1950.15 2134)">update design and repeat</text><path d="M3794.66 1555 3794.66 2012.99 533.844 2012.99 533.844 1585.36 544.156 1585.36 544.156 2007.83 539 2002.68 3789.5 2002.68 3784.34 2007.83 3784.34 1555ZM523.531 1590.52 539 1559.58 554.469 1590.52Z" fill="#ED7D31" fill-rule="nonzero" fill-opacity="1"/></g></g></svg>