<?xml version="1.0" encoding="utf-8" standalone="no"?>
<!DOCTYPE svg PUBLIC "-//W3C//DTD SVG 1.1//EN"
  "http://www.w3.org/Graphics/SVG/1.1/DTD/svg11.dtd">
<svg xmlns:xlink="http://www.w3.org/1999/xlink" width="440.82375pt" height="369.600406pt" viewBox="0 0 440.82375 369.600406" xmlns="http://www.w3.org/2000/svg" version="1.1">
 <metadata>
  <rdf:RDF xmlns:dc="http://purl.org/dc/elements/1.1/" xmlns:cc="http://creativecommons.org/ns#" xmlns:rdf="http://www.w3.org/1999/02/22-rdf-syntax-ns#">
   <cc:Work>
    <dc:type rdf:resource="http://purl.org/dc/dcmitype/StillImage"/>
    <dc:date>2026-07-17T16:08:36.265525</dc:date>
    <dc:format>image/svg+xml</dc:format>
    <dc:creator>
     <cc:Agent>
      <dc:title>Matplotlib v3.10.8, https://matplotlib.org/</dc:title>
     </cc:Agent>
    </dc:creator>
   </cc:Work>
  </rdf:RDF>
 </metadata>
 <defs>
  <style type="text/css">*{stroke-linejoin: round; stroke-linecap: butt}</style>
 </defs>
 <g id="figure_1">
  <g id="patch_1">
   <path d="M 0 369.600406 
L 440.82375 369.600406 
L 440.82375 0 
L 0 0 
z
" style="fill: #ffffff"/>
  </g>
  <g id="axes_1">
   <g id="patch_2">
    <path d="M 34.2625 332.022281 
L 430.4425 332.022281 
L 430.4425 21.558281 
L 34.2625 21.558281 
z
" style="fill: #ffffff"/>
   </g>
   <g id="QuadContourSet_1">
    <path d="M 81.923252 288.837439 
L 82.916184 288.837439 
L 83.909117 288.837439 
L 84.902049 288.837439 
L 85.894981 288.837439 
L 86.887914 288.837439 
L 87.880846 288.837439 
L 88.873778 288.837439 
L 89.866711 288.837439 
L 90.859643 288.837439 
L 91.852575 288.837439 
L 92.845508 288.837439 
L 93.83844 288.837439 
L 94.831372 288.837439 
L 95.824305 288.837439 
L 96.817237 288.837439 
L 97.810169 288.837439 
L 98.803102 288.837439 
L 99.796034 288.837439 
L 100.788966 288.837439 
L 101.781898 288.837439 
L 102.774831 288.837439 
L 103.767763 288.837439 
L 104.760695 288.837439 
L 105.753628 288.837439 
L 106.74656 288.837439 
L 107.739492 288.837439 
L 108.732425 288.837439 
L 109.725357 288.837439 
L 110.718289 288.837439 
L 111.711222 288.837439 
L 112.704154 288.837439 
L 113.697086 288.837439 
L 114.690019 288.837439 
L 115.682951 288.837439 
L 116.675883 288.837439 
L 117.668816 288.837439 
L 118.661748 288.837439 
L 119.65468 288.837439 
L 120.647613 288.837439 
L 121.640545 288.837439 
L 122.633477 288.837439 
L 123.62641 288.837439 
L 124.619342 288.837439 
L 125.612274 288.837439 
L 126.605207 288.837439 
L 127.598139 288.837439 
L 128.591071 288.837439 
L 129.584004 288.837439 
L 130.576936 288.837439 
L 131.569868 288.837439 
L 132.562801 288.837439 
L 133.555733 288.837439 
L 134.548665 288.837439 
L 135.541598 288.837439 
L 136.53453 288.837439 
L 137.527462 288.837439 
L 138.520395 288.837439 
L 139.513327 288.837439 
L 140.506259 288.837439 
L 141.499192 288.837439 
L 142.492124 288.837439 
L 143.485056 288.837439 
L 144.477989 288.837439 
L 145.470921 288.837439 
L 146.463853 288.837439 
L 147.456786 288.837439 
L 148.449718 288.837439 
L 149.44265 288.837439 
L 150.435583 288.837439 
L 151.428515 288.837439 
L 152.421447 288.837439 
L 153.41438 288.837439 
L 154.407312 288.837439 
L 155.400244 288.837439 
L 156.393177 288.837439 
L 157.386109 288.837439 
L 158.379041 288.837439 
L 159.371974 288.837439 
L 160.364906 288.837439 
L 161.357838 288.837439 
L 162.350771 288.837439 
L 163.343703 288.837439 
L 164.336635 288.837439 
L 165.329568 288.837439 
L 166.3225 288.837439 
L 167.315432 288.837439 
L 168.308365 288.837439 
L 169.301297 288.837439 
L 170.294229 288.837439 
L 171.287162 288.837439 
L 172.280094 288.837439 
L 173.273026 288.837439 
L 174.265959 288.837439 
L 175.258891 288.837439 
L 176.251823 288.837439 
L 177.244756 288.837439 
L 178.237688 288.837439 
L 179.23062 288.837439 
L 180.223553 288.837439 
L 181.216485 288.837439 
L 182.209417 288.837439 
L 183.20235 288.837439 
L 184.195282 288.837439 
L 185.188214 288.837439 
L 186.181147 288.837439 
L 187.174079 288.837439 
L 188.167011 288.837439 
L 189.159944 288.837439 
L 190.152876 288.837439 
L 191.145808 288.837439 
L 192.138741 288.837439 
L 193.131673 288.837439 
L 194.124605 288.837439 
L 195.117538 288.837439 
L 196.11047 288.837439 
L 197.103402 288.837439 
L 198.096335 288.837439 
L 199.089267 288.837439 
L 200.082199 288.837439 
L 201.075132 288.837439 
L 202.068064 288.837439 
L 203.060996 288.837439 
L 204.053929 288.837439 
L 205.046861 288.837439 
L 206.039793 288.837439 
L 207.032726 288.837439 
L 208.025658 288.837439 
L 209.01859 288.837439 
L 210.011523 288.837439 
L 211.004455 288.837439 
L 211.997387 288.837439 
L 212.99032 288.837439 
L 213.983252 288.837439 
L 214.976184 288.837439 
L 215.969117 288.837439 
L 216.962049 288.837439 
L 217.954981 288.837439 
L 218.947914 288.837439 
L 219.940846 288.837439 
L 220.933778 288.837439 
L 221.926711 288.837439 
L 222.919643 288.837439 
L 223.912575 288.837439 
L 224.905508 288.837439 
L 225.89844 288.837439 
L 226.891372 288.837439 
L 227.884305 288.837439 
L 228.877237 288.837439 
L 229.870169 288.837439 
L 230.863102 288.837439 
L 231.856034 288.837439 
L 232.848966 288.837439 
L 233.841898 288.837439 
L 234.834831 288.837439 
L 235.827763 288.837439 
L 236.820695 288.837439 
L 237.813628 288.837439 
L 238.80656 288.837439 
L 239.799492 288.837439 
L 240.792425 288.837439 
L 241.785357 288.837439 
L 242.778289 288.837439 
L 243.771222 288.837439 
L 244.764154 288.837439 
L 245.757086 288.837439 
L 246.750019 288.837439 
L 247.742951 288.837439 
L 248.735883 288.837439 
L 249.728816 288.837439 
L 250.721748 288.837439 
L 251.71468 288.837439 
L 252.707613 288.837439 
L 253.700545 288.837439 
L 254.693477 288.837439 
L 255.68641 288.837439 
L 256.679342 288.837439 
L 257.672274 288.837439 
L 258.665207 288.837439 
L 259.658139 288.837439 
L 260.651071 288.837439 
L 261.644004 288.837439 
L 262.636936 288.837439 
L 263.629868 288.837439 
L 264.622801 288.837439 
L 265.615733 288.837439 
L 266.608665 288.837439 
L 267.601598 288.837439 
L 268.59453 288.837439 
L 269.587462 288.837439 
L 270.580395 288.837439 
L 271.573327 288.837439 
L 272.566259 288.837439 
L 273.559192 288.837439 
L 274.552124 288.837439 
L 275.545056 288.837439 
L 276.537989 288.837439 
L 277.530921 288.837439 
L 278.523853 288.837439 
L 279.516786 288.837439 
L 280.509718 288.837439 
L 281.50265 288.837439 
L 282.495583 288.837439 
L 283.488515 288.837439 
L 284.481447 288.837439 
L 285.47438 288.837439 
L 286.467312 288.837439 
L 287.460244 288.837439 
L 288.453177 288.837439 
L 289.446109 288.837439 
L 290.439041 288.837439 
L 291.431974 288.837439 
L 292.424906 288.837439 
L 293.417838 288.837439 
L 294.410771 288.837439 
L 295.403703 288.837439 
L 296.396635 288.837439 
L 297.389568 288.837439 
L 298.3825 288.837439 
L 299.375432 288.837439 
L 300.368365 288.837439 
L 301.361297 288.837439 
L 302.354229 288.837439 
L 303.347162 288.837439 
L 304.340094 288.837439 
L 305.333026 288.837439 
L 306.325959 288.837439 
L 307.318891 288.837439 
L 308.311823 288.837439 
L 309.304756 288.837439 
L 310.297688 288.837439 
L 311.29062 288.837439 
L 312.283553 288.837439 
L 313.276485 288.837439 
L 314.269417 288.837439 
L 315.26235 288.837439 
L 316.255282 288.837439 
L 317.248214 288.837439 
L 318.241147 288.837439 
L 319.234079 288.837439 
L 320.227011 288.837439 
L 321.219944 288.837439 
L 322.212876 288.837439 
L 323.205808 288.837439 
L 324.198741 288.837439 
L 325.191673 288.837439 
L 326.184605 288.837439 
L 327.177538 288.837439 
L 328.17047 288.837439 
L 329.163402 288.837439 
L 330.156335 288.837439 
L 331.149267 288.837439 
L 332.142199 288.837439 
L 333.135132 288.837439 
L 334.128064 288.837439 
L 335.120996 288.837439 
L 336.113929 288.837439 
L 337.106861 288.837439 
L 338.099793 288.837439 
L 339.092726 288.837439 
L 340.085658 288.837439 
L 341.07859 288.837439 
L 342.071523 288.837439 
L 343.064455 288.837439 
L 344.057387 288.837439 
L 345.05032 288.837439 
L 346.043252 288.837439 
L 347.036184 288.837439 
L 348.029117 288.837439 
L 349.022049 288.837439 
L 350.014981 288.837439 
L 351.007914 288.837439 
L 352.000846 288.837439 
L 352.993778 288.837439 
L 353.986711 288.837439 
L 354.979643 288.837439 
L 355.972575 288.837439 
L 356.965508 288.837439 
L 357.95844 288.837439 
L 358.951372 288.837439 
L 359.944305 288.837439 
L 360.937237 288.837439 
L 361.930169 288.837439 
L 362.923102 288.837439 
L 363.916034 288.837439 
L 364.908966 288.837439 
L 365.901898 288.837439 
L 366.894831 288.837439 
L 367.887763 288.837439 
L 368.880695 288.837439 
L 369.873628 288.837439 
L 370.86656 288.837439 
L 371.859492 288.837439 
L 372.852425 288.837439 
L 373.845357 288.837439 
L 374.838289 288.837439 
L 375.831222 288.837439 
L 376.824154 288.837439 
L 377.817086 288.837439 
L 378.810019 288.837439 
L 379.802951 288.837439 
L 380.795883 288.837439 
L 381.788816 288.837439 
L 382.781748 288.837439 
L 383.77468 288.837439 
L 384.767613 288.837439 
L 385.760545 288.837439 
L 386.753477 288.837439 
L 387.74641 288.837439 
L 388.739342 288.837439 
L 389.732274 288.837439 
L 390.725207 288.837439 
L 391.718139 288.837439 
L 392.711071 288.837439 
L 393.704004 288.837439 
L 394.696936 288.837439 
L 395.689868 288.837439 
L 396.682801 288.837439 
L 397.675733 288.837439 
L 398.668665 288.837439 
L 399.661598 288.837439 
L 400.65453 288.837439 
L 401.647462 288.837439 
L 402.640395 288.837439 
L 403.633327 288.837439 
L 404.626259 288.837439 
L 405.619192 288.837439 
L 406.612124 288.837439 
L 407.605056 288.837439 
L 408.597989 288.837439 
L 409.590921 288.837439 
L 410.583853 288.837439 
L 411.576786 288.837439 
L 412.569718 288.837439 
L 413.56265 288.837439 
L 414.555583 288.837439 
L 415.548515 288.837439 
L 416.541447 288.837439 
L 417.53438 288.837439 
L 418.527312 288.837439 
L 419.520244 288.837439 
L 420.513177 288.837439 
L 421.506109 288.837439 
L 422.499041 288.837439 
L 423.491974 288.837439 
L 424.484906 288.837439 
L 425.477838 288.837439 
L 426.470771 288.837439 
L 427.463703 288.837439 
L 428.456635 288.837439 
L 429.449568 288.837439 
L 430.4425 288.837439 
L 430.4425 288.448387 
L 430.4425 287.670281 
L 430.4425 286.892176 
L 430.4425 286.114071 
L 430.4425 285.335965 
L 430.4425 284.55786 
L 430.4425 283.779755 
L 430.4425 283.00165 
L 430.4425 282.223544 
L 430.4425 281.445439 
L 430.4425 280.667334 
L 430.4425 279.889229 
L 430.4425 279.111123 
L 430.4425 278.333018 
L 430.4425 277.554913 
L 430.4425 276.776808 
L 430.4425 275.998702 
L 430.4425 275.220597 
L 430.4425 274.442492 
L 430.4425 273.664387 
L 430.4425 272.886281 
L 430.4425 272.108176 
L 430.4425 271.330071 
L 430.4425 270.551965 
L 430.4425 269.77386 
L 430.4425 268.995755 
L 430.4425 268.21765 
L 430.4425 267.439544 
L 430.4425 266.661439 
L 430.4425 265.883334 
L 430.4425 265.105229 
L 430.4425 264.327123 
L 430.4425 263.549018 
L 430.4425 262.770913 
L 430.4425 261.992808 
L 430.4425 261.214702 
L 430.4425 260.436597 
L 430.4425 259.658492 
L 430.4425 258.880387 
L 430.4425 258.102281 
L 430.4425 257.713229 
L 429.946034 257.324176 
L 429.449568 256.935123 
L 428.953102 256.546071 
L 428.456635 256.157018 
L 427.960169 255.767965 
L 427.463703 255.378913 
L 426.967237 254.98986 
L 426.470771 254.600808 
L 425.974305 254.211755 
L 425.477838 253.822702 
L 424.981372 253.43365 
L 424.484906 253.044597 
L 423.98844 252.655544 
L 423.491974 252.266492 
L 422.995508 251.877439 
L 422.499041 251.488387 
L 422.002575 251.099334 
L 421.506109 250.710281 
L 421.009643 250.321229 
L 420.513177 249.932176 
L 420.016711 249.543123 
L 419.520244 249.154071 
L 419.023778 248.765018 
L 418.527312 248.375965 
L 418.030846 247.986913 
L 417.53438 247.59786 
L 417.037914 247.208808 
L 416.541447 246.819755 
L 416.044981 246.430702 
L 415.548515 246.04165 
L 415.052049 245.652597 
L 414.555583 245.263544 
L 414.059117 244.874492 
L 413.56265 244.485439 
L 413.066184 244.096387 
L 412.569718 243.707334 
L 412.073252 243.318281 
L 411.576786 242.929229 
L 411.08032 242.540176 
L 410.583853 242.151123 
L 410.087387 241.762071 
L 409.590921 241.373018 
L 409.094455 240.983965 
L 408.597989 240.594913 
L 408.101523 240.20586 
L 407.605056 239.816808 
L 407.10859 239.427755 
L 406.612124 239.038702 
L 406.115658 238.64965 
L 405.619192 238.260597 
L 405.122726 237.871544 
L 404.626259 237.482492 
L 404.129793 237.093439 
L 403.633327 236.704387 
L 403.136861 236.315334 
L 402.640395 235.926281 
L 402.143929 235.537229 
L 401.647462 235.148176 
L 401.150996 234.759123 
L 400.65453 234.370071 
L 400.158064 233.981018 
L 399.661598 233.591965 
L 399.165132 233.202913 
L 398.668665 232.81386 
L 398.172199 232.424808 
L 397.675733 232.035755 
L 397.179267 231.646702 
L 396.682801 231.25765 
L 396.186335 230.868597 
L 395.689868 230.479544 
L 395.193402 230.090492 
L 394.696936 229.701439 
L 394.20047 229.312387 
L 393.704004 228.923334 
L 393.207538 228.534281 
L 392.711071 228.145229 
L 392.214605 227.756176 
L 391.718139 227.367123 
L 391.221673 226.978071 
L 390.725207 226.589018 
L 390.228741 226.199965 
L 389.732274 225.810913 
L 389.235808 225.42186 
L 388.739342 225.032808 
L 388.242876 224.643755 
L 387.74641 224.254702 
L 387.249944 223.86565 
L 386.753477 223.476597 
L 386.257011 223.087544 
L 385.760545 222.698492 
L 385.264079 222.309439 
L 384.767613 221.920387 
L 384.271147 221.531334 
L 383.77468 221.142281 
L 383.278214 220.753229 
L 382.781748 220.364176 
L 382.285282 219.975123 
L 381.788816 219.586071 
L 381.29235 219.197018 
L 380.795883 218.807965 
L 380.299417 218.418913 
L 379.802951 218.02986 
L 379.306485 217.640808 
L 378.810019 217.251755 
L 378.313553 216.862702 
L 377.817086 216.47365 
L 377.32062 216.084597 
L 376.824154 215.695544 
L 376.327688 215.306492 
L 375.831222 214.917439 
L 375.334756 214.528387 
L 374.838289 214.139334 
L 374.341823 213.750281 
L 373.845357 213.361229 
L 373.348891 212.972176 
L 372.852425 212.583123 
L 372.355959 212.194071 
L 371.859492 211.805018 
L 371.363026 211.415965 
L 370.86656 211.026913 
L 370.370094 210.63786 
L 369.873628 210.248808 
L 369.377162 209.859755 
L 368.880695 209.470702 
L 368.384229 209.08165 
L 367.887763 208.692597 
L 367.391297 208.303544 
L 366.894831 207.914492 
L 366.398365 207.525439 
L 365.901898 207.136387 
L 365.405432 206.747334 
L 364.908966 206.358281 
L 364.4125 205.969229 
L 363.916034 205.580176 
L 363.419568 205.191123 
L 362.923102 204.802071 
L 362.426635 204.413018 
L 361.930169 204.023965 
L 361.433703 203.634913 
L 360.937237 203.24586 
L 360.440771 202.856808 
L 359.944305 202.467755 
L 359.447838 202.078702 
L 358.951372 201.68965 
L 358.454906 201.300597 
L 357.95844 200.911544 
L 357.461974 200.522492 
L 356.965508 200.133439 
L 356.469041 199.744387 
L 355.972575 199.355334 
L 355.476109 198.966281 
L 354.979643 198.577229 
L 354.483177 198.188176 
L 353.986711 197.799123 
L 353.490244 197.410071 
L 352.993778 197.021018 
L 352.497312 196.631965 
L 352.000846 196.242913 
L 351.50438 195.85386 
L 351.007914 195.464808 
L 350.511447 195.075755 
L 350.014981 194.686702 
L 349.518515 194.29765 
L 349.022049 193.908597 
L 348.525583 193.519544 
L 348.029117 193.130492 
L 347.53265 192.741439 
L 347.036184 192.352387 
L 346.539718 191.963334 
L 346.043252 191.574281 
L 345.546786 191.185229 
L 345.05032 190.796176 
L 344.553853 190.407123 
L 344.057387 190.018071 
L 343.560921 189.629018 
L 343.064455 189.239965 
L 342.567989 188.850913 
L 342.071523 188.46186 
L 341.575056 188.072808 
L 341.07859 187.683755 
L 340.582124 187.294702 
L 340.085658 186.90565 
L 339.589192 186.516597 
L 339.092726 186.127544 
L 338.596259 185.738492 
L 338.099793 185.349439 
L 337.603327 184.960387 
L 337.106861 184.571334 
L 336.610395 184.182281 
L 336.113929 183.793229 
L 335.617462 183.404176 
L 335.120996 183.015123 
L 334.62453 182.626071 
L 334.128064 182.237018 
L 333.631598 181.847965 
L 333.135132 181.458913 
L 332.638665 181.06986 
L 332.142199 180.680808 
L 331.645733 180.291755 
L 331.149267 179.902702 
L 330.652801 179.51365 
L 330.156335 179.124597 
L 329.659868 178.735544 
L 329.163402 178.346492 
L 328.666936 177.957439 
L 328.17047 177.568387 
L 327.674004 177.179334 
L 327.177538 176.790281 
L 326.681071 176.401229 
L 326.184605 176.012176 
L 325.688139 175.623123 
L 325.191673 175.234071 
L 324.695207 174.845018 
L 324.198741 174.455965 
L 323.702274 174.066913 
L 323.205808 173.67786 
L 322.709342 173.288808 
L 322.212876 172.899755 
L 321.71641 172.510702 
L 321.219944 172.12165 
L 320.723477 171.732597 
L 320.227011 171.343544 
L 319.730545 170.954492 
L 319.234079 170.565439 
L 318.737613 170.176387 
L 318.241147 169.787334 
L 317.74468 169.398281 
L 317.248214 169.009229 
L 316.751748 168.620176 
L 316.255282 168.231123 
L 315.758816 167.842071 
L 315.26235 167.453018 
L 314.765883 167.063965 
L 314.269417 166.674913 
L 313.772951 166.28586 
L 313.276485 165.896808 
L 312.780019 165.507755 
L 312.283553 165.118702 
L 311.787086 164.72965 
L 311.29062 164.340597 
L 310.794154 163.951544 
L 310.297688 163.562492 
L 309.801222 163.173439 
L 309.304756 162.784387 
L 308.808289 162.395334 
L 308.311823 162.006281 
L 307.815357 161.617229 
L 307.318891 161.228176 
L 306.822425 160.839123 
L 306.325959 160.450071 
L 305.829492 160.061018 
L 305.333026 159.671965 
L 304.83656 159.282913 
L 304.340094 158.89386 
L 303.843628 158.504808 
L 303.347162 158.115755 
L 302.850695 157.726702 
L 302.354229 157.33765 
L 301.857763 156.948597 
L 301.361297 156.559544 
L 300.864831 156.170492 
L 300.368365 155.781439 
L 299.871898 155.392387 
L 299.375432 155.003334 
L 298.878966 154.614281 
L 298.3825 154.225229 
L 297.886034 153.836176 
L 297.389568 153.447123 
L 296.893102 153.058071 
L 296.396635 152.669018 
L 295.900169 152.279965 
L 295.403703 151.890913 
L 294.907237 151.50186 
L 294.410771 151.112808 
L 293.914305 150.723755 
L 293.417838 150.334702 
L 292.921372 149.94565 
L 292.424906 149.556597 
L 291.92844 149.167544 
L 291.431974 148.778492 
L 290.935508 148.389439 
L 290.439041 148.000387 
L 289.942575 147.611334 
L 289.446109 147.222281 
L 288.949643 146.833229 
L 288.453177 146.444176 
L 287.956711 146.055123 
L 287.460244 145.666071 
L 286.963778 145.277018 
L 286.467312 144.887965 
L 285.970846 144.498913 
L 285.47438 144.10986 
L 284.977914 143.720808 
L 284.481447 143.331755 
L 283.984981 142.942702 
L 283.488515 142.55365 
L 282.992049 142.164597 
L 282.495583 141.775544 
L 281.999117 141.386492 
L 281.50265 140.997439 
L 281.006184 140.608387 
L 280.509718 140.219334 
L 280.013252 139.830281 
L 279.516786 139.441229 
L 279.02032 139.052176 
L 278.523853 138.663123 
L 278.027387 138.274071 
L 277.530921 137.885018 
L 277.034455 137.495965 
L 276.537989 137.106913 
L 276.041523 136.71786 
L 275.545056 136.328808 
L 275.04859 135.939755 
L 274.552124 135.550702 
L 274.055658 135.16165 
L 273.559192 134.772597 
L 273.062726 134.383544 
L 272.566259 133.994492 
L 272.069793 133.605439 
L 271.573327 133.216387 
L 271.076861 132.827334 
L 270.580395 132.438281 
L 270.083929 132.049229 
L 269.587462 131.660176 
L 269.090996 131.271123 
L 268.59453 130.882071 
L 268.098064 130.493018 
L 267.601598 130.103965 
L 267.105132 129.714913 
L 266.608665 129.32586 
L 266.112199 128.936808 
L 265.615733 128.547755 
L 265.119267 128.158702 
L 264.622801 127.76965 
L 264.126335 127.380597 
L 263.629868 126.991544 
L 263.133402 126.602492 
L 262.636936 126.213439 
L 262.14047 125.824387 
L 261.644004 125.435334 
L 261.147538 125.046281 
L 260.651071 124.657229 
L 260.154605 124.268176 
L 259.658139 123.879123 
L 259.161673 123.490071 
L 258.665207 123.101018 
L 258.168741 122.711965 
L 257.672274 122.322913 
L 257.175808 121.93386 
L 256.679342 121.544808 
L 256.182876 121.155755 
L 255.68641 120.766702 
L 255.189944 120.37765 
L 254.693477 119.988597 
L 254.197011 119.599544 
L 253.700545 119.210492 
L 253.204079 118.821439 
L 252.707613 118.432387 
L 252.211147 118.043334 
L 251.71468 117.654281 
L 251.218214 117.265229 
L 250.721748 116.876176 
L 250.225282 116.487123 
L 249.728816 116.098071 
L 249.23235 115.709018 
L 248.735883 115.319965 
L 248.239417 114.930913 
L 247.742951 114.54186 
L 247.246485 114.152808 
L 246.750019 113.763755 
L 246.253553 113.374702 
L 245.757086 112.98565 
L 245.26062 112.596597 
L 244.764154 112.207544 
L 244.267688 111.818492 
L 243.771222 111.429439 
L 243.274756 111.040387 
L 242.778289 110.651334 
L 242.281823 110.262281 
L 241.785357 109.873229 
L 241.288891 109.484176 
L 240.792425 109.095123 
L 240.295959 108.706071 
L 239.799492 108.317018 
L 239.303026 107.927965 
L 238.80656 107.538913 
L 238.310094 107.14986 
L 237.813628 106.760808 
L 237.317162 106.371755 
L 236.820695 105.982702 
L 236.324229 105.59365 
L 235.827763 105.204597 
L 235.331297 104.815544 
L 234.834831 104.426492 
L 234.338365 104.037439 
L 233.841898 103.648387 
L 233.345432 103.259334 
L 232.848966 102.870281 
L 232.3525 102.481229 
L 231.856034 102.092176 
L 231.359568 101.703123 
L 230.863102 101.314071 
L 230.366635 100.925018 
L 229.870169 100.535965 
L 229.373703 100.146913 
L 228.877237 99.75786 
L 228.380771 99.368808 
L 227.884305 98.979755 
L 227.387838 98.590702 
L 226.891372 98.20165 
L 226.394906 97.812597 
L 225.89844 97.423544 
L 225.401974 97.034492 
L 224.905508 96.645439 
L 224.409041 96.256387 
L 223.912575 95.867334 
L 223.416109 95.478281 
L 222.919643 95.089229 
L 222.423177 94.700176 
L 221.926711 94.311123 
L 221.430244 93.922071 
L 220.933778 93.533018 
L 220.437312 93.143965 
L 219.940846 92.754913 
L 219.44438 92.36586 
L 218.947914 91.976808 
L 217.954981 91.976808 
L 217.458515 91.587755 
L 216.962049 91.198702 
L 215.969117 91.198702 
L 214.976184 91.198702 
L 214.479718 90.80965 
L 213.983252 90.420597 
L 212.99032 90.420597 
L 211.997387 90.420597 
L 211.500921 90.031544 
L 211.004455 89.642492 
L 210.011523 89.642492 
L 209.515056 89.253439 
L 209.01859 88.864387 
L 208.025658 88.864387 
L 207.032726 88.864387 
L 206.536259 88.475334 
L 206.039793 88.086281 
L 205.046861 88.086281 
L 204.053929 88.086281 
L 203.557462 87.697229 
L 203.060996 87.308176 
L 202.068064 87.308176 
L 201.075132 87.308176 
L 200.578665 86.919123 
L 200.082199 86.530071 
L 199.089267 86.530071 
L 198.096335 86.530071 
L 197.599868 86.141018 
L 197.103402 85.751965 
L 196.11047 85.751965 
L 195.117538 85.751965 
L 194.621071 85.362913 
L 194.124605 84.97386 
L 193.131673 84.97386 
L 192.138741 84.97386 
L 191.642274 84.584808 
L 191.145808 84.195755 
L 190.152876 84.195755 
L 189.159944 84.195755 
L 188.663477 83.806702 
L 188.167011 83.41765 
L 187.174079 83.41765 
L 186.181147 83.41765 
L 185.188214 83.41765 
L 184.691748 83.028597 
L 184.195282 82.639544 
L 183.20235 82.639544 
L 182.209417 82.639544 
L 181.712951 82.250492 
L 181.216485 81.861439 
L 180.223553 81.861439 
L 179.23062 81.861439 
L 178.734154 81.472387 
L 178.237688 81.083334 
L 177.244756 81.083334 
L 176.251823 81.083334 
L 175.258891 81.083334 
L 174.762425 80.694281 
L 174.265959 80.305229 
L 173.273026 80.305229 
L 172.280094 80.305229 
L 171.783628 79.916176 
L 171.287162 79.527123 
L 170.294229 79.527123 
L 169.301297 79.527123 
L 168.308365 79.527123 
L 167.811898 79.138071 
L 167.315432 78.749018 
L 166.3225 78.749018 
L 165.329568 78.749018 
L 164.336635 78.749018 
L 163.840169 78.359965 
L 163.343703 77.970913 
L 162.350771 77.970913 
L 161.357838 77.970913 
L 160.364906 77.970913 
L 159.86844 77.58186 
L 159.371974 77.192808 
L 158.379041 77.192808 
L 157.386109 77.192808 
L 156.393177 77.192808 
L 155.896711 76.803755 
L 155.400244 76.414702 
L 154.407312 76.414702 
L 153.41438 76.414702 
L 152.421447 76.414702 
L 151.924981 76.02565 
L 151.428515 75.636597 
L 150.435583 75.636597 
L 149.44265 75.636597 
L 148.449718 75.636597 
L 147.456786 75.636597 
L 146.96032 75.247544 
L 146.463853 74.858492 
L 145.470921 74.858492 
L 144.477989 74.858492 
L 143.485056 74.858492 
L 142.98859 74.469439 
L 142.492124 74.080387 
L 141.499192 74.080387 
L 140.506259 74.080387 
L 139.513327 74.080387 
L 138.520395 74.080387 
L 138.023929 73.691334 
L 137.527462 73.302281 
L 136.53453 73.302281 
L 135.541598 73.302281 
L 134.548665 73.302281 
L 133.555733 73.302281 
L 133.059267 72.913229 
L 132.562801 72.524176 
L 131.569868 72.524176 
L 130.576936 72.524176 
L 129.584004 72.524176 
L 128.591071 72.524176 
L 127.598139 72.524176 
L 127.101673 72.135123 
L 126.605207 71.746071 
L 125.612274 71.746071 
L 124.619342 71.746071 
L 123.62641 71.746071 
L 122.633477 71.746071 
L 121.640545 71.746071 
L 121.144079 71.357018 
L 120.647613 70.967965 
L 119.65468 70.967965 
L 118.661748 70.967965 
L 117.668816 70.967965 
L 116.675883 70.967965 
L 115.682951 70.967965 
L 115.186485 70.578913 
L 114.690019 70.18986 
L 113.697086 70.18986 
L 112.704154 70.18986 
L 111.711222 70.18986 
L 110.718289 70.18986 
L 109.725357 70.18986 
L 109.228891 69.800808 
L 108.732425 69.411755 
L 107.739492 69.411755 
L 106.74656 69.411755 
L 105.753628 69.411755 
L 104.760695 69.411755 
L 103.767763 69.411755 
L 102.774831 69.411755 
L 101.781898 69.411755 
L 101.285432 69.022702 
L 100.788966 68.63365 
L 99.796034 68.63365 
L 98.803102 68.63365 
L 97.810169 68.63365 
L 96.817237 68.63365 
L 95.824305 68.63365 
L 94.831372 68.63365 
L 93.83844 68.63365 
L 93.341974 68.244597 
L 92.845508 67.855544 
L 91.852575 67.855544 
L 90.859643 67.855544 
L 89.866711 67.855544 
L 88.873778 67.855544 
L 87.880846 67.855544 
L 86.887914 67.855544 
L 85.894981 67.855544 
L 84.902049 67.855544 
L 83.909117 67.855544 
L 83.41265 67.466492 
L 82.916184 67.077439 
L 81.923252 67.077439 
L 81.426786 67.466492 
L 81.426786 68.244597 
L 81.426786 69.022702 
L 81.426786 69.800808 
L 81.426786 70.578913 
L 81.426786 71.357018 
L 81.426786 72.135123 
L 81.426786 72.913229 
L 81.426786 73.691334 
L 81.426786 74.469439 
L 81.426786 75.247544 
L 81.426786 76.02565 
L 81.426786 76.803755 
L 81.426786 77.58186 
L 81.426786 78.359965 
L 81.426786 79.138071 
L 81.426786 79.916176 
L 81.426786 80.694281 
L 81.426786 81.472387 
L 81.426786 82.250492 
L 81.426786 83.028597 
L 81.426786 83.806702 
L 81.426786 84.584808 
L 81.426786 85.362913 
L 81.426786 86.141018 
L 81.426786 86.919123 
L 81.426786 87.697229 
L 81.426786 88.475334 
L 81.426786 89.253439 
L 81.426786 90.031544 
L 81.426786 90.80965 
L 81.426786 91.587755 
L 81.426786 92.36586 
L 81.426786 93.143965 
L 81.426786 93.922071 
L 81.426786 94.700176 
L 81.426786 95.478281 
L 81.426786 96.256387 
L 81.426786 97.034492 
L 81.426786 97.812597 
L 81.426786 98.590702 
L 81.426786 99.368808 
L 81.426786 100.146913 
L 81.426786 100.925018 
L 81.426786 101.703123 
L 81.426786 102.481229 
L 81.426786 103.259334 
L 81.426786 104.037439 
L 81.426786 104.815544 
L 81.426786 105.59365 
L 81.426786 106.371755 
L 81.426786 107.14986 
L 81.426786 107.927965 
L 81.426786 108.706071 
L 81.426786 109.484176 
L 81.426786 110.262281 
L 81.426786 111.040387 
L 81.426786 111.818492 
L 81.426786 112.596597 
L 81.426786 113.374702 
L 81.426786 114.152808 
L 81.426786 114.930913 
L 81.426786 115.709018 
L 81.426786 116.487123 
L 81.426786 117.265229 
L 81.426786 118.043334 
L 81.426786 118.821439 
L 81.426786 119.599544 
L 81.426786 120.37765 
L 81.426786 121.155755 
L 81.426786 121.93386 
L 81.426786 122.711965 
L 81.426786 123.490071 
L 81.426786 124.268176 
L 81.426786 125.046281 
L 81.426786 125.824387 
L 81.426786 126.602492 
L 81.426786 127.380597 
L 81.426786 128.158702 
L 81.426786 128.936808 
L 81.426786 129.714913 
L 81.426786 130.493018 
L 81.426786 131.271123 
L 81.426786 132.049229 
L 81.426786 132.827334 
L 81.426786 133.605439 
L 81.426786 134.383544 
L 81.426786 135.16165 
L 81.426786 135.939755 
L 81.426786 136.71786 
L 81.426786 137.495965 
L 81.426786 138.274071 
L 81.426786 139.052176 
L 81.426786 139.830281 
L 81.426786 140.608387 
L 81.426786 141.386492 
L 81.426786 142.164597 
L 81.426786 142.942702 
L 81.426786 143.720808 
L 81.426786 144.498913 
L 81.426786 145.277018 
L 81.426786 146.055123 
L 81.426786 146.833229 
L 81.426786 147.611334 
L 81.426786 148.389439 
L 81.426786 149.167544 
L 81.426786 149.94565 
L 81.426786 150.723755 
L 81.426786 151.50186 
L 81.426786 152.279965 
L 81.426786 153.058071 
L 81.426786 153.836176 
L 81.426786 154.614281 
L 81.426786 155.392387 
L 81.426786 156.170492 
L 81.426786 156.948597 
L 81.426786 157.726702 
L 81.426786 158.504808 
L 81.426786 159.282913 
L 81.426786 160.061018 
L 81.426786 160.839123 
L 81.426786 161.617229 
L 81.426786 162.395334 
L 81.426786 163.173439 
L 81.426786 163.951544 
L 81.426786 164.72965 
L 81.426786 165.507755 
L 81.426786 166.28586 
L 81.426786 167.063965 
L 81.426786 167.842071 
L 81.426786 168.620176 
L 81.426786 169.398281 
L 81.426786 170.176387 
L 81.426786 170.954492 
L 81.426786 171.732597 
L 81.426786 172.510702 
L 81.426786 173.288808 
L 81.426786 174.066913 
L 81.426786 174.845018 
L 81.426786 175.623123 
L 81.426786 176.401229 
L 81.426786 177.179334 
L 81.426786 177.957439 
L 81.426786 178.735544 
L 81.426786 179.51365 
L 81.426786 180.291755 
L 81.426786 181.06986 
L 81.426786 181.847965 
L 81.426786 182.626071 
L 81.426786 183.404176 
L 81.426786 184.182281 
L 81.426786 184.960387 
L 81.426786 185.738492 
L 81.426786 186.516597 
L 81.426786 187.294702 
L 81.426786 188.072808 
L 81.426786 188.850913 
L 81.426786 189.629018 
L 81.426786 190.407123 
L 81.426786 191.185229 
L 81.426786 191.963334 
L 81.426786 192.741439 
L 81.426786 193.519544 
L 81.426786 194.29765 
L 81.426786 195.075755 
L 81.426786 195.85386 
L 81.426786 196.631965 
L 81.426786 197.410071 
L 81.426786 198.188176 
L 81.426786 198.966281 
L 81.426786 199.744387 
L 81.426786 200.522492 
L 81.426786 201.300597 
L 81.426786 202.078702 
L 81.426786 202.856808 
L 81.426786 203.634913 
L 81.426786 204.413018 
L 81.426786 205.191123 
L 81.426786 205.969229 
L 81.426786 206.747334 
L 81.426786 207.525439 
L 81.426786 208.303544 
L 81.426786 209.08165 
L 81.426786 209.859755 
L 81.426786 210.63786 
L 81.426786 211.415965 
L 81.426786 212.194071 
L 81.426786 212.972176 
L 81.426786 213.750281 
L 81.426786 214.528387 
L 81.426786 215.306492 
L 81.426786 216.084597 
L 81.426786 216.862702 
L 81.426786 217.640808 
L 81.426786 218.418913 
L 81.426786 219.197018 
L 81.426786 219.975123 
L 81.426786 220.753229 
L 81.426786 221.531334 
L 81.426786 222.309439 
L 81.426786 223.087544 
L 81.426786 223.86565 
L 81.426786 224.643755 
L 81.426786 225.42186 
L 81.426786 226.199965 
L 81.426786 226.978071 
L 81.426786 227.756176 
L 81.426786 228.534281 
L 81.426786 229.312387 
L 81.426786 230.090492 
L 81.426786 230.868597 
L 81.426786 231.646702 
L 81.426786 232.424808 
L 81.426786 233.202913 
L 81.426786 233.981018 
L 81.426786 234.759123 
L 81.426786 235.537229 
L 81.426786 236.315334 
L 81.426786 237.093439 
L 81.426786 237.871544 
L 81.426786 238.64965 
L 81.426786 239.427755 
L 81.426786 240.20586 
L 81.426786 240.983965 
L 81.426786 241.762071 
L 81.426786 242.540176 
L 81.426786 243.318281 
L 81.426786 244.096387 
L 81.426786 244.874492 
L 81.426786 245.652597 
L 81.426786 246.430702 
L 81.426786 247.208808 
L 81.426786 247.986913 
L 81.426786 248.765018 
L 81.426786 249.543123 
L 81.426786 250.321229 
L 81.426786 251.099334 
L 81.426786 251.877439 
L 81.426786 252.655544 
L 81.426786 253.43365 
L 81.426786 254.211755 
L 81.426786 254.98986 
L 81.426786 255.767965 
L 81.426786 256.546071 
L 81.426786 257.324176 
L 81.426786 258.102281 
L 81.426786 258.880387 
L 81.426786 259.658492 
L 81.426786 260.436597 
L 81.426786 261.214702 
L 81.426786 261.992808 
L 81.426786 262.770913 
L 81.426786 263.549018 
L 81.426786 264.327123 
L 81.426786 265.105229 
L 81.426786 265.883334 
L 81.426786 266.661439 
L 81.426786 267.439544 
L 81.426786 268.21765 
L 81.426786 268.995755 
L 81.426786 269.77386 
L 81.426786 270.551965 
L 81.426786 271.330071 
L 81.426786 272.108176 
L 81.426786 272.886281 
L 81.426786 273.664387 
L 81.426786 274.442492 
L 81.426786 275.220597 
L 81.426786 275.998702 
L 81.426786 276.776808 
L 81.426786 277.554913 
L 81.426786 278.333018 
L 81.426786 279.111123 
L 81.426786 279.889229 
L 81.426786 280.667334 
L 81.426786 281.445439 
L 81.426786 282.223544 
L 81.426786 283.00165 
L 81.426786 283.779755 
L 81.426786 284.55786 
L 81.426786 285.335965 
L 81.426786 286.114071 
L 81.426786 286.892176 
L 81.426786 287.670281 
L 81.426786 288.448387 
z
" clip-path="url(#pddd6f0a9f7)" style="fill: #e6f4ea; fill-opacity: 0.9"/>
   </g>
   <g id="matplotlib.axis_1">
    <g id="xtick_1">
     <g id="line2d_1">
      <path d="M 34.2625 332.022281 
L 34.2625 21.558281 
" clip-path="url(#pddd6f0a9f7)" style="fill: none; stroke: #b0b0b0; stroke-opacity: 0.18; stroke-width: 0.8; stroke-linecap: square"/>
     </g>
     <g id="line2d_2">
      <defs>
       <path id="ma8e2298150" d="M 0 0 
L 0 3.5 
" style="stroke: #000000; stroke-width: 0.8"/>
      </defs>
      <g>
       <use xlink:href="#ma8e2298150" x="34.2625" y="332.022281" style="stroke: #000000; stroke-width: 0.8"/>
      </g>
     </g>
     <g id="text_1">
      <!-- 0 -->
      <g transform="translate(31.08125 346.620719) scale(0.1 -0.1)">
       <defs>
        <path id="DejaVuSans-30" d="M 2034 4250 
Q 1547 4250 1301 3770 
Q 1056 3291 1056 2328 
Q 1056 1369 1301 889 
Q 1547 409 2034 409 
Q 2525 409 2770 889 
Q 3016 1369 3016 2328 
Q 3016 3291 2770 3770 
Q 2525 4250 2034 4250 
z
M 2034 4750 
Q 2819 4750 3233 4129 
Q 3647 3509 3647 2328 
Q 3647 1150 3233 529 
Q 2819 -91 2034 -91 
Q 1250 -91 836 529 
Q 422 1150 422 2328 
Q 422 3509 836 4129 
Q 1250 4750 2034 4750 
z
" transform="scale(0.015625)"/>
       </defs>
       <use xlink:href="#DejaVuSans-30"/>
      </g>
     </g>
    </g>
    <g id="xtick_2">
     <g id="line2d_3">
      <path d="M 113.4985 332.022281 
L 113.4985 21.558281 
" clip-path="url(#pddd6f0a9f7)" style="fill: none; stroke: #b0b0b0; stroke-opacity: 0.18; stroke-width: 0.8; stroke-linecap: square"/>
     </g>
     <g id="line2d_4">
      <g>
       <use xlink:href="#ma8e2298150" x="113.4985" y="332.022281" style="stroke: #000000; stroke-width: 0.8"/>
      </g>
     </g>
     <g id="text_2">
      <!-- 1 -->
      <g transform="translate(110.31725 346.620719) scale(0.1 -0.1)">
       <defs>
        <path id="DejaVuSans-31" d="M 794 531 
L 1825 531 
L 1825 4091 
L 703 3866 
L 703 4441 
L 1819 4666 
L 2450 4666 
L 2450 531 
L 3481 531 
L 3481 0 
L 794 0 
L 794 531 
z
" transform="scale(0.015625)"/>
       </defs>
       <use xlink:href="#DejaVuSans-31"/>
      </g>
     </g>
    </g>
    <g id="xtick_3">
     <g id="line2d_5">
      <path d="M 192.7345 332.022281 
L 192.7345 21.558281 
" clip-path="url(#pddd6f0a9f7)" style="fill: none; stroke: #b0b0b0; stroke-opacity: 0.18; stroke-width: 0.8; stroke-linecap: square"/>
     </g>
     <g id="line2d_6">
      <g>
       <use xlink:href="#ma8e2298150" x="192.7345" y="332.022281" style="stroke: #000000; stroke-width: 0.8"/>
      </g>
     </g>
     <g id="text_3">
      <!-- 2 -->
      <g transform="translate(189.55325 346.620719) scale(0.1 -0.1)">
       <defs>
        <path id="DejaVuSans-32" d="M 1228 531 
L 3431 531 
L 3431 0 
L 469 0 
L 469 531 
Q 828 903 1448 1529 
Q 2069 2156 2228 2338 
Q 2531 2678 2651 2914 
Q 2772 3150 2772 3378 
Q 2772 3750 2511 3984 
Q 2250 4219 1831 4219 
Q 1534 4219 1204 4116 
Q 875 4013 500 3803 
L 500 4441 
Q 881 4594 1212 4672 
Q 1544 4750 1819 4750 
Q 2544 4750 2975 4387 
Q 3406 4025 3406 3419 
Q 3406 3131 3298 2873 
Q 3191 2616 2906 2266 
Q 2828 2175 2409 1742 
Q 1991 1309 1228 531 
z
" transform="scale(0.015625)"/>
       </defs>
       <use xlink:href="#DejaVuSans-32"/>
      </g>
     </g>
    </g>
    <g id="xtick_4">
     <g id="line2d_7">
      <path d="M 271.9705 332.022281 
L 271.9705 21.558281 
" clip-path="url(#pddd6f0a9f7)" style="fill: none; stroke: #b0b0b0; stroke-opacity: 0.18; stroke-width: 0.8; stroke-linecap: square"/>
     </g>
     <g id="line2d_8">
      <g>
       <use xlink:href="#ma8e2298150" x="271.9705" y="332.022281" style="stroke: #000000; stroke-width: 0.8"/>
      </g>
     </g>
     <g id="text_4">
      <!-- 3 -->
      <g transform="translate(268.78925 346.620719) scale(0.1 -0.1)">
       <defs>
        <path id="DejaVuSans-33" d="M 2597 2516 
Q 3050 2419 3304 2112 
Q 3559 1806 3559 1356 
Q 3559 666 3084 287 
Q 2609 -91 1734 -91 
Q 1441 -91 1130 -33 
Q 819 25 488 141 
L 488 750 
Q 750 597 1062 519 
Q 1375 441 1716 441 
Q 2309 441 2620 675 
Q 2931 909 2931 1356 
Q 2931 1769 2642 2001 
Q 2353 2234 1838 2234 
L 1294 2234 
L 1294 2753 
L 1863 2753 
Q 2328 2753 2575 2939 
Q 2822 3125 2822 3475 
Q 2822 3834 2567 4026 
Q 2313 4219 1838 4219 
Q 1578 4219 1281 4162 
Q 984 4106 628 3988 
L 628 4550 
Q 988 4650 1302 4700 
Q 1616 4750 1894 4750 
Q 2613 4750 3031 4423 
Q 3450 4097 3450 3541 
Q 3450 3153 3228 2886 
Q 3006 2619 2597 2516 
z
" transform="scale(0.015625)"/>
       </defs>
       <use xlink:href="#DejaVuSans-33"/>
      </g>
     </g>
    </g>
    <g id="xtick_5">
     <g id="line2d_9">
      <path d="M 351.2065 332.022281 
L 351.2065 21.558281 
" clip-path="url(#pddd6f0a9f7)" style="fill: none; stroke: #b0b0b0; stroke-opacity: 0.18; stroke-width: 0.8; stroke-linecap: square"/>
     </g>
     <g id="line2d_10">
      <g>
       <use xlink:href="#ma8e2298150" x="351.2065" y="332.022281" style="stroke: #000000; stroke-width: 0.8"/>
      </g>
     </g>
     <g id="text_5">
      <!-- 4 -->
      <g transform="translate(348.02525 346.620719) scale(0.1 -0.1)">
       <defs>
        <path id="DejaVuSans-34" d="M 2419 4116 
L 825 1625 
L 2419 1625 
L 2419 4116 
z
M 2253 4666 
L 3047 4666 
L 3047 1625 
L 3713 1625 
L 3713 1100 
L 3047 1100 
L 3047 0 
L 2419 0 
L 2419 1100 
L 313 1100 
L 313 1709 
L 2253 4666 
z
" transform="scale(0.015625)"/>
       </defs>
       <use xlink:href="#DejaVuSans-34"/>
      </g>
     </g>
    </g>
    <g id="xtick_6">
     <g id="line2d_11">
      <path d="M 430.4425 332.022281 
L 430.4425 21.558281 
" clip-path="url(#pddd6f0a9f7)" style="fill: none; stroke: #b0b0b0; stroke-opacity: 0.18; stroke-width: 0.8; stroke-linecap: square"/>
     </g>
     <g id="line2d_12">
      <g>
       <use xlink:href="#ma8e2298150" x="430.4425" y="332.022281" style="stroke: #000000; stroke-width: 0.8"/>
      </g>
     </g>
     <g id="text_6">
      <!-- 5 -->
      <g transform="translate(427.26125 346.620719) scale(0.1 -0.1)">
       <defs>
        <path id="DejaVuSans-35" d="M 691 4666 
L 3169 4666 
L 3169 4134 
L 1269 4134 
L 1269 2991 
Q 1406 3038 1543 3061 
Q 1681 3084 1819 3084 
Q 2600 3084 3056 2656 
Q 3513 2228 3513 1497 
Q 3513 744 3044 326 
Q 2575 -91 1722 -91 
Q 1428 -91 1123 -41 
Q 819 9 494 109 
L 494 744 
Q 775 591 1075 516 
Q 1375 441 1709 441 
Q 2250 441 2565 725 
Q 2881 1009 2881 1497 
Q 2881 1984 2565 2268 
Q 2250 2553 1709 2553 
Q 1456 2553 1204 2497 
Q 953 2441 691 2322 
L 691 4666 
z
" transform="scale(0.015625)"/>
       </defs>
       <use xlink:href="#DejaVuSans-35"/>
      </g>
     </g>
    </g>
    <g id="text_7">
     <!-- Design variable $x_1$ -->
     <g transform="translate(186.4025 360.300406) scale(0.1 -0.1)">
      <defs>
       <path id="DejaVuSans-44" d="M 1259 4147 
L 1259 519 
L 2022 519 
Q 2988 519 3436 956 
Q 3884 1394 3884 2338 
Q 3884 3275 3436 3711 
Q 2988 4147 2022 4147 
L 1259 4147 
z
M 628 4666 
L 1925 4666 
Q 3281 4666 3915 4102 
Q 4550 3538 4550 2338 
Q 4550 1131 3912 565 
Q 3275 0 1925 0 
L 628 0 
L 628 4666 
z
" transform="scale(0.015625)"/>
       <path id="DejaVuSans-65" d="M 3597 1894 
L 3597 1613 
L 953 1613 
Q 991 1019 1311 708 
Q 1631 397 2203 397 
Q 2534 397 2845 478 
Q 3156 559 3463 722 
L 3463 178 
Q 3153 47 2828 -22 
Q 2503 -91 2169 -91 
Q 1331 -91 842 396 
Q 353 884 353 1716 
Q 353 2575 817 3079 
Q 1281 3584 2069 3584 
Q 2775 3584 3186 3129 
Q 3597 2675 3597 1894 
z
M 3022 2063 
Q 3016 2534 2758 2815 
Q 2500 3097 2075 3097 
Q 1594 3097 1305 2825 
Q 1016 2553 972 2059 
L 3022 2063 
z
" transform="scale(0.015625)"/>
       <path id="DejaVuSans-73" d="M 2834 3397 
L 2834 2853 
Q 2591 2978 2328 3040 
Q 2066 3103 1784 3103 
Q 1356 3103 1142 2972 
Q 928 2841 928 2578 
Q 928 2378 1081 2264 
Q 1234 2150 1697 2047 
L 1894 2003 
Q 2506 1872 2764 1633 
Q 3022 1394 3022 966 
Q 3022 478 2636 193 
Q 2250 -91 1575 -91 
Q 1294 -91 989 -36 
Q 684 19 347 128 
L 347 722 
Q 666 556 975 473 
Q 1284 391 1588 391 
Q 1994 391 2212 530 
Q 2431 669 2431 922 
Q 2431 1156 2273 1281 
Q 2116 1406 1581 1522 
L 1381 1569 
Q 847 1681 609 1914 
Q 372 2147 372 2553 
Q 372 3047 722 3315 
Q 1072 3584 1716 3584 
Q 2034 3584 2315 3537 
Q 2597 3491 2834 3397 
z
" transform="scale(0.015625)"/>
       <path id="DejaVuSans-69" d="M 603 3500 
L 1178 3500 
L 1178 0 
L 603 0 
L 603 3500 
z
M 603 4863 
L 1178 4863 
L 1178 4134 
L 603 4134 
L 603 4863 
z
" transform="scale(0.015625)"/>
       <path id="DejaVuSans-67" d="M 2906 1791 
Q 2906 2416 2648 2759 
Q 2391 3103 1925 3103 
Q 1463 3103 1205 2759 
Q 947 2416 947 1791 
Q 947 1169 1205 825 
Q 1463 481 1925 481 
Q 2391 481 2648 825 
Q 2906 1169 2906 1791 
z
M 3481 434 
Q 3481 -459 3084 -895 
Q 2688 -1331 1869 -1331 
Q 1566 -1331 1297 -1286 
Q 1028 -1241 775 -1147 
L 775 -588 
Q 1028 -725 1275 -790 
Q 1522 -856 1778 -856 
Q 2344 -856 2625 -561 
Q 2906 -266 2906 331 
L 2906 616 
Q 2728 306 2450 153 
Q 2172 0 1784 0 
Q 1141 0 747 490 
Q 353 981 353 1791 
Q 353 2603 747 3093 
Q 1141 3584 1784 3584 
Q 2172 3584 2450 3431 
Q 2728 3278 2906 2969 
L 2906 3500 
L 3481 3500 
L 3481 434 
z
" transform="scale(0.015625)"/>
       <path id="DejaVuSans-6e" d="M 3513 2113 
L 3513 0 
L 2938 0 
L 2938 2094 
Q 2938 2591 2744 2837 
Q 2550 3084 2163 3084 
Q 1697 3084 1428 2787 
Q 1159 2491 1159 1978 
L 1159 0 
L 581 0 
L 581 3500 
L 1159 3500 
L 1159 2956 
Q 1366 3272 1645 3428 
Q 1925 3584 2291 3584 
Q 2894 3584 3203 3211 
Q 3513 2838 3513 2113 
z
" transform="scale(0.015625)"/>
       <path id="DejaVuSans-20" transform="scale(0.015625)"/>
       <path id="DejaVuSans-76" d="M 191 3500 
L 800 3500 
L 1894 563 
L 2988 3500 
L 3597 3500 
L 2284 0 
L 1503 0 
L 191 3500 
z
" transform="scale(0.015625)"/>
       <path id="DejaVuSans-61" d="M 2194 1759 
Q 1497 1759 1228 1600 
Q 959 1441 959 1056 
Q 959 750 1161 570 
Q 1363 391 1709 391 
Q 2188 391 2477 730 
Q 2766 1069 2766 1631 
L 2766 1759 
L 2194 1759 
z
M 3341 1997 
L 3341 0 
L 2766 0 
L 2766 531 
Q 2569 213 2275 61 
Q 1981 -91 1556 -91 
Q 1019 -91 701 211 
Q 384 513 384 1019 
Q 384 1609 779 1909 
Q 1175 2209 1959 2209 
L 2766 2209 
L 2766 2266 
Q 2766 2663 2505 2880 
Q 2244 3097 1772 3097 
Q 1472 3097 1187 3025 
Q 903 2953 641 2809 
L 641 3341 
Q 956 3463 1253 3523 
Q 1550 3584 1831 3584 
Q 2591 3584 2966 3190 
Q 3341 2797 3341 1997 
z
" transform="scale(0.015625)"/>
       <path id="DejaVuSans-72" d="M 2631 2963 
Q 2534 3019 2420 3045 
Q 2306 3072 2169 3072 
Q 1681 3072 1420 2755 
Q 1159 2438 1159 1844 
L 1159 0 
L 581 0 
L 581 3500 
L 1159 3500 
L 1159 2956 
Q 1341 3275 1631 3429 
Q 1922 3584 2338 3584 
Q 2397 3584 2469 3576 
Q 2541 3569 2628 3553 
L 2631 2963 
z
" transform="scale(0.015625)"/>
       <path id="DejaVuSans-62" d="M 3116 1747 
Q 3116 2381 2855 2742 
Q 2594 3103 2138 3103 
Q 1681 3103 1420 2742 
Q 1159 2381 1159 1747 
Q 1159 1113 1420 752 
Q 1681 391 2138 391 
Q 2594 391 2855 752 
Q 3116 1113 3116 1747 
z
M 1159 2969 
Q 1341 3281 1617 3432 
Q 1894 3584 2278 3584 
Q 2916 3584 3314 3078 
Q 3713 2572 3713 1747 
Q 3713 922 3314 415 
Q 2916 -91 2278 -91 
Q 1894 -91 1617 61 
Q 1341 213 1159 525 
L 1159 0 
L 581 0 
L 581 4863 
L 1159 4863 
L 1159 2969 
z
" transform="scale(0.015625)"/>
       <path id="DejaVuSans-6c" d="M 603 4863 
L 1178 4863 
L 1178 0 
L 603 0 
L 603 4863 
z
" transform="scale(0.015625)"/>
       <path id="DejaVuSans-Oblique-78" d="M 3841 3500 
L 2234 1784 
L 3219 0 
L 2559 0 
L 1819 1388 
L 531 0 
L -166 0 
L 1556 1844 
L 641 3500 
L 1300 3500 
L 1972 2234 
L 3144 3500 
L 3841 3500 
z
" transform="scale(0.015625)"/>
      </defs>
      <use xlink:href="#DejaVuSans-44" transform="translate(0 0.015625)"/>
      <use xlink:href="#DejaVuSans-65" transform="translate(77.001953 0.015625)"/>
      <use xlink:href="#DejaVuSans-73" transform="translate(138.525391 0.015625)"/>
      <use xlink:href="#DejaVuSans-69" transform="translate(190.625 0.015625)"/>
      <use xlink:href="#DejaVuSans-67" transform="translate(218.408203 0.015625)"/>
      <use xlink:href="#DejaVuSans-6e" transform="translate(281.884766 0.015625)"/>
      <use xlink:href="#DejaVuSans-20" transform="translate(345.263672 0.015625)"/>
      <use xlink:href="#DejaVuSans-76" transform="translate(377.050781 0.015625)"/>
      <use xlink:href="#DejaVuSans-61" transform="translate(436.230469 0.015625)"/>
      <use xlink:href="#DejaVuSans-72" transform="translate(497.509766 0.015625)"/>
      <use xlink:href="#DejaVuSans-69" transform="translate(538.623047 0.015625)"/>
      <use xlink:href="#DejaVuSans-61" transform="translate(566.40625 0.015625)"/>
      <use xlink:href="#DejaVuSans-62" transform="translate(627.685547 0.015625)"/>
      <use xlink:href="#DejaVuSans-6c" transform="translate(691.162109 0.015625)"/>
      <use xlink:href="#DejaVuSans-65" transform="translate(718.945312 0.015625)"/>
      <use xlink:href="#DejaVuSans-20" transform="translate(780.46875 0.015625)"/>
      <use xlink:href="#DejaVuSans-Oblique-78" transform="translate(812.255859 0.015625)"/>
      <use xlink:href="#DejaVuSans-31" transform="translate(871.435547 -16.390625) scale(0.7)"/>
     </g>
    </g>
   </g>
   <g id="matplotlib.axis_2">
    <g id="ytick_1">
     <g id="line2d_13">
      <path d="M 34.2625 332.022281 
L 430.4425 332.022281 
" clip-path="url(#pddd6f0a9f7)" style="fill: none; stroke: #b0b0b0; stroke-opacity: 0.18; stroke-width: 0.8; stroke-linecap: square"/>
     </g>
     <g id="line2d_14">
      <defs>
       <path id="md148ccf206" d="M 0 0 
L -3.5 0 
" style="stroke: #000000; stroke-width: 0.8"/>
      </defs>
      <g>
       <use xlink:href="#md148ccf206" x="34.2625" y="332.022281" style="stroke: #000000; stroke-width: 0.8"/>
      </g>
     </g>
     <g id="text_8">
      <!-- 0 -->
      <g transform="translate(20.9 335.8215) scale(0.1 -0.1)">
       <use xlink:href="#DejaVuSans-30"/>
      </g>
     </g>
    </g>
    <g id="ytick_2">
     <g id="line2d_15">
      <path d="M 34.2625 269.929481 
L 430.4425 269.929481 
" clip-path="url(#pddd6f0a9f7)" style="fill: none; stroke: #b0b0b0; stroke-opacity: 0.18; stroke-width: 0.8; stroke-linecap: square"/>
     </g>
     <g id="line2d_16">
      <g>
       <use xlink:href="#md148ccf206" x="34.2625" y="269.929481" style="stroke: #000000; stroke-width: 0.8"/>
      </g>
     </g>
     <g id="text_9">
      <!-- 1 -->
      <g transform="translate(20.9 273.7287) scale(0.1 -0.1)">
       <use xlink:href="#DejaVuSans-31"/>
      </g>
     </g>
    </g>
    <g id="ytick_3">
     <g id="line2d_17">
      <path d="M 34.2625 207.836681 
L 430.4425 207.836681 
" clip-path="url(#pddd6f0a9f7)" style="fill: none; stroke: #b0b0b0; stroke-opacity: 0.18; stroke-width: 0.8; stroke-linecap: square"/>
     </g>
     <g id="line2d_18">
      <g>
       <use xlink:href="#md148ccf206" x="34.2625" y="207.836681" style="stroke: #000000; stroke-width: 0.8"/>
      </g>
     </g>
     <g id="text_10">
      <!-- 2 -->
      <g transform="translate(20.9 211.6359) scale(0.1 -0.1)">
       <use xlink:href="#DejaVuSans-32"/>
      </g>
     </g>
    </g>
    <g id="ytick_4">
     <g id="line2d_19">
      <path d="M 34.2625 145.743881 
L 430.4425 145.743881 
" clip-path="url(#pddd6f0a9f7)" style="fill: none; stroke: #b0b0b0; stroke-opacity: 0.18; stroke-width: 0.8; stroke-linecap: square"/>
     </g>
     <g id="line2d_20">
      <g>
       <use xlink:href="#md148ccf206" x="34.2625" y="145.743881" style="stroke: #000000; stroke-width: 0.8"/>
      </g>
     </g>
     <g id="text_11">
      <!-- 3 -->
      <g transform="translate(20.9 149.5431) scale(0.1 -0.1)">
       <use xlink:href="#DejaVuSans-33"/>
      </g>
     </g>
    </g>
    <g id="ytick_5">
     <g id="line2d_21">
      <path d="M 34.2625 83.651081 
L 430.4425 83.651081 
" clip-path="url(#pddd6f0a9f7)" style="fill: none; stroke: #b0b0b0; stroke-opacity: 0.18; stroke-width: 0.8; stroke-linecap: square"/>
     </g>
     <g id="line2d_22">
      <g>
       <use xlink:href="#md148ccf206" x="34.2625" y="83.651081" style="stroke: #000000; stroke-width: 0.8"/>
      </g>
     </g>
     <g id="text_12">
      <!-- 4 -->
      <g transform="translate(20.9 87.4503) scale(0.1 -0.1)">
       <use xlink:href="#DejaVuSans-34"/>
      </g>
     </g>
    </g>
    <g id="ytick_6">
     <g id="line2d_23">
      <path d="M 34.2625 21.558281 
L 430.4425 21.558281 
" clip-path="url(#pddd6f0a9f7)" style="fill: none; stroke: #b0b0b0; stroke-opacity: 0.18; stroke-width: 0.8; stroke-linecap: square"/>
     </g>
     <g id="line2d_24">
      <g>
       <use xlink:href="#md148ccf206" x="34.2625" y="21.558281" style="stroke: #000000; stroke-width: 0.8"/>
      </g>
     </g>
     <g id="text_13">
      <!-- 5 -->
      <g transform="translate(20.9 25.3575) scale(0.1 -0.1)">
       <use xlink:href="#DejaVuSans-35"/>
      </g>
     </g>
    </g>
    <g id="text_14">
     <!-- Design variable $x_2$ -->
     <g transform="translate(14.8 222.740281) rotate(-90) scale(0.1 -0.1)">
      <use xlink:href="#DejaVuSans-44" transform="translate(0 0.015625)"/>
      <use xlink:href="#DejaVuSans-65" transform="translate(77.001953 0.015625)"/>
      <use xlink:href="#DejaVuSans-73" transform="translate(138.525391 0.015625)"/>
      <use xlink:href="#DejaVuSans-69" transform="translate(190.625 0.015625)"/>
      <use xlink:href="#DejaVuSans-67" transform="translate(218.408203 0.015625)"/>
      <use xlink:href="#DejaVuSans-6e" transform="translate(281.884766 0.015625)"/>
      <use xlink:href="#DejaVuSans-20" transform="translate(345.263672 0.015625)"/>
      <use xlink:href="#DejaVuSans-76" transform="translate(377.050781 0.015625)"/>
      <use xlink:href="#DejaVuSans-61" transform="translate(436.230469 0.015625)"/>
      <use xlink:href="#DejaVuSans-72" transform="translate(497.509766 0.015625)"/>
      <use xlink:href="#DejaVuSans-69" transform="translate(538.623047 0.015625)"/>
      <use xlink:href="#DejaVuSans-61" transform="translate(566.40625 0.015625)"/>
      <use xlink:href="#DejaVuSans-62" transform="translate(627.685547 0.015625)"/>
      <use xlink:href="#DejaVuSans-6c" transform="translate(691.162109 0.015625)"/>
      <use xlink:href="#DejaVuSans-65" transform="translate(718.945312 0.015625)"/>
      <use xlink:href="#DejaVuSans-20" transform="translate(780.46875 0.015625)"/>
      <use xlink:href="#DejaVuSans-Oblique-78" transform="translate(812.255859 0.015625)"/>
      <use xlink:href="#DejaVuSans-32" transform="translate(871.435547 -16.390625) scale(0.7)"/>
     </g>
    </g>
   </g>
   <g id="QuadContourSet_2">
    <path d="M 341.188711 60.918758 
L 345.05032 60.154899 
L 349.022049 59.572006 
L 352.993778 59.18721 
L 356.965508 58.990579 
L 360.937237 58.982112 
L 364.908966 59.161808 
L 368.880695 59.529669 
L 372.852425 60.094346 
L 376.824154 60.863262 
L 380.795883 61.850262 
L 384.767613 63.076919 
L 388.739342 64.569022 
L 391.771704 65.910281 
L 394.821749 67.466492 
L 397.675733 69.140585 
L 400.923539 71.357018 
L 403.821692 73.691334 
L 406.279107 76.02565 
L 408.364079 78.359965 
L 410.120152 80.694281 
L 411.584337 83.028597 
L 412.774035 85.362913 
L 413.712514 87.697229 
L 414.410582 90.031544 
L 414.87669 92.36586 
L 415.118082 94.700176 
L 415.137335 97.034492 
L 414.934446 99.368808 
L 414.508583 101.703123 
L 413.849716 104.037439 
L 412.953684 106.371755 
L 411.808026 108.706071 
L 410.394815 111.040387 
L 408.597989 113.491078 
L 406.612124 115.767177 
L 404.276268 118.043334 
L 401.647462 120.234408 
L 399.303174 121.93386 
L 396.682801 123.607223 
L 393.704004 125.2675 
L 390.725207 126.713111 
L 386.753477 128.35201 
L 382.761544 129.714913 
L 378.810019 130.810659 
L 374.838289 131.686853 
L 370.86656 132.351946 
L 366.800079 132.827334 
L 362.923102 133.090228 
L 358.951372 133.174981 
L 354.979643 133.073463 
L 351.007914 132.784781 
L 347.036184 132.300576 
L 343.064455 131.616863 
L 339.092726 130.721216 
L 335.120996 129.596388 
L 330.995637 128.158702 
L 327.177538 126.550693 
L 324.131354 125.046281 
L 321.219944 123.391735 
L 318.241147 121.436221 
L 315.808974 119.599544 
L 313.142446 117.265229 
L 310.881668 114.930913 
L 308.967819 112.596597 
L 307.318891 110.191648 
L 306.041592 107.927965 
L 304.980715 105.59365 
L 304.164806 103.259334 
L 303.585097 100.925018 
L 303.232146 98.590702 
L 303.104123 96.256387 
L 303.196829 93.922071 
L 303.513195 91.587755 
L 304.056953 89.253439 
L 304.834282 86.919123 
L 305.855139 84.584808 
L 307.133395 82.250492 
L 308.691334 79.916176 
L 310.552704 77.58186 
L 312.756504 75.247544 
L 315.350698 72.913229 
L 318.415386 70.578913 
L 321.219944 68.748851 
L 324.198741 67.059487 
L 325.416597 66.435175 
L 325.416597 66.435175 
" clip-path="url(#pddd6f0a9f7)" style="fill: none; stroke: #2d6a9f"/>
    <path d="M 430.4425 128.841142 
L 427.751147 131.271123 
L 424.484906 133.898722 
L 421.506109 136.04472 
L 417.53438 138.59434 
L 413.56265 140.846291 
L 413.168735 141.053724 
M 397.798917 147.535527 
L 393.704004 148.79767 
L 388.739342 150.107298 
L 383.77468 151.18925 
L 378.810019 152.058203 
L 373.845357 152.722943 
L 368.880695 153.191776 
L 363.916034 153.467636 
L 358.951372 153.555067 
L 353.986711 153.454069 
L 349.022049 153.164642 
L 344.057387 152.681683 
L 339.092726 152.002423 
L 334.128064 151.118539 
L 328.856477 149.94565 
L 324.198741 148.69429 
L 319.234079 147.1226 
L 315.26235 145.672711 
L 310.578118 143.720808 
L 306.325959 141.693429 
L 302.354229 139.551005 
L 298.3825 137.129017 
L 295.403703 135.099606 
L 292.39387 132.827334 
L 289.446109 130.34287 
L 286.467312 127.512757 
L 284.166098 125.046281 
L 281.613352 121.93386 
L 279.516786 118.969515 
L 277.991994 116.487123 
L 276.358394 113.374702 
L 275.019751 110.262281 
L 273.960357 107.14986 
L 273.170547 104.037439 
L 272.641961 100.925018 
L 272.372209 97.812597 
L 272.356988 94.700176 
L 272.595774 91.587755 
L 273.093569 88.475334 
L 273.851329 85.362913 
L 274.877917 82.250492 
L 276.182969 79.138071 
L 277.779598 76.02565 
L 279.68567 72.913229 
L 281.925088 69.800808 
L 283.839879 67.466492 
L 286.467312 64.627362 
L 289.196731 62.019755 
L 291.930501 59.685439 
L 295.403703 57.040966 
L 298.3825 55.008506 
L 302.354229 52.587422 
L 306.517242 50.348176 
L 310.297688 48.544795 
L 314.269417 46.857654 
L 318.241147 45.362495 
L 323.205808 43.739095 
L 328.17047 42.36513 
L 333.135132 41.222569 
L 338.489693 40.232808 
L 343.064455 39.576878 
L 348.029117 39.056292 
L 352.993778 38.727036 
L 357.95844 38.588645 
L 362.923102 38.638041 
L 367.887763 38.87725 
L 372.852425 39.306647 
L 377.817086 39.932227 
L 382.781748 40.759431 
L 387.74641 41.796983 
L 392.711071 43.060775 
L 397.675733 44.563709 
L 402.640395 46.327987 
L 406.764999 48.01386 
L 410.583853 49.773709 
L 414.691326 51.904387 
L 418.66742 54.238702 
L 422.499041 56.786183 
L 425.477838 59.005468 
L 428.456635 61.480397 
L 430.4425 63.299261 
L 430.4425 63.299261 
" clip-path="url(#pddd6f0a9f7)" style="fill: none; stroke: #2d6a9f"/>
    <path d="M 430.4425 164.289943 
L 428.25276 165.271151 
M 412.613173 171.103178 
L 407.605056 172.581544 
L 401.647462 174.120061 
L 395.689868 175.432369 
L 389.732274 176.530696 
L 383.77468 177.422628 
L 377.817086 178.115826 
L 370.86656 178.6795 
L 364.908966 178.955577 
L 357.95844 179.040138 
L 351.007914 178.869558 
L 345.05032 178.51824 
L 338.099793 177.866878 
L 332.142199 177.096236 
L 326.184605 176.123418 
L 319.780655 174.845018 
L 314.269417 173.541958 
L 308.311823 171.911272 
L 302.354229 170.034497 
L 296.265011 167.842071 
L 290.439041 165.46059 
L 285.44011 163.173439 
L 280.509718 160.671765 
L 275.545056 157.87746 
L 271.535062 155.392387 
L 266.975482 152.279965 
L 262.858924 149.167544 
L 259.132584 146.055123 
L 255.68641 142.878634 
L 252.687165 139.830281 
L 249.728816 136.502177 
L 247.400117 133.605439 
L 244.764154 129.944211 
L 242.637977 126.602492 
L 240.792425 123.311103 
L 238.990588 119.599544 
L 237.699527 116.487123 
L 236.358289 112.596597 
L 235.495978 109.484176 
L 234.675545 105.59365 
L 234.136891 101.703123 
L 233.874753 97.812597 
L 233.889132 93.922071 
L 234.180027 90.031544 
L 234.74744 86.141018 
L 235.404999 83.028597 
L 236.244995 79.916176 
L 237.27189 76.803755 
L 238.490292 73.691334 
L 239.905842 70.578913 
L 241.785357 67.005788 
L 243.771222 63.704938 
L 245.757086 60.761585 
L 247.742951 58.088639 
L 250.721748 54.480621 
L 253.700545 51.246626 
L 256.679342 48.313389 
L 259.658139 45.625605 
L 263.629868 42.364922 
L 267.601598 39.411751 
L 272.16531 36.342281 
L 276.537989 33.679495 
L 281.50265 30.942422 
L 286.288273 28.561229 
L 291.431974 26.25186 
L 296.396635 24.247411 
L 301.671615 22.336387 
L 304.007521 21.558281 
M 414.252776 21.558281 
L 415.102736 21.837784 
L 415.102736 21.837784 
" clip-path="url(#pddd6f0a9f7)" style="fill: none; stroke: #2d6a9f"/>
    <path d="M 430.4425 196.87593 
L 423.277108 198.966281 
L 416.541447 200.696767 
L 409.590921 202.256802 
L 402.42919 203.634913 
L 395.689868 204.726388 
L 388.739342 205.650767 
L 381.788816 206.375454 
L 373.845357 206.964298 
L 365.901898 207.301338 
L 357.95844 207.38918 
L 350.014981 207.227825 
L 342.071523 206.817271 
L 335.120996 206.250133 
L 328.17047 205.486961 
L 320.506576 204.413018 
L 314.269417 203.35353 
L 307.318891 201.971334 
L 300.368365 200.367439 
L 295.452315 199.093899 
M 279.564049 194.129199 
L 273.559192 191.886017 
L 267.601598 189.439423 
L 261.644004 186.755678 
L 256.404241 184.182281 
L 250.58967 181.06986 
L 245.265872 177.957439 
L 240.365339 174.845018 
L 235.827763 171.725826 
L 230.863102 168.013479 
L 226.822848 164.72965 
L 222.424291 160.839123 
L 218.407257 156.948597 
L 214.740319 153.058071 
L 211.398038 149.167544 
L 208.358171 145.277018 
L 205.603119 141.386492 
L 203.060996 137.402865 
L 200.888674 133.605439 
L 198.906221 129.714913 
L 197.103402 125.68633 
L 195.645445 121.93386 
L 194.352669 118.043334 
L 193.277947 114.152808 
L 192.417378 110.262281 
L 191.767153 106.371755 
L 191.324607 102.481229 
L 191.088429 98.590702 
L 191.058116 94.700176 
L 191.233131 90.80965 
L 191.614693 86.919123 
L 192.202661 83.028597 
L 193.131673 78.587138 
L 194.124605 74.861683 
L 195.23942 71.357018 
L 196.688919 67.466492 
L 198.365415 63.575965 
L 200.276672 59.685439 
L 202.431626 55.794913 
L 205.046861 51.589069 
L 207.513808 48.01386 
L 210.467619 44.123334 
L 213.718261 40.232808 
L 217.286586 36.342281 
L 221.196793 32.451755 
L 225.479345 28.561229 
L 229.870169 24.909769 
L 234.249488 21.558281 
L 234.249488 21.558281 
" clip-path="url(#pddd6f0a9f7)" style="fill: none; stroke: #2d6a9f"/>
    <path d="M 430.4425 226.6328 
L 422.499041 228.417987 
L 414.555583 229.972601 
L 406.612124 231.304603 
L 398.642996 232.424808 
L 390.725207 233.327151 
L 382.781748 234.02677 
L 374.838289 234.522584 
L 366.894831 234.817941 
L 358.951372 234.912967 
L 351.007914 234.808985 
L 343.064455 234.504573 
L 334.879945 233.981018 
L 326.32718 233.202913 
L 319.234079 232.375773 
L 311.29062 231.249324 
L 303.347162 229.907359 
L 295.403703 228.342546 
L 287.460244 226.546916 
L 279.516786 224.511314 
L 271.573327 222.223571 
L 264.536049 219.975123 
L 257.672274 217.569817 
L 250.721748 214.907154 
L 243.771222 212.001407 
L 236.820695 208.832913 
L 230.286772 205.594136 
M 215.716679 197.340247 
L 209.803398 193.519544 
L 204.234532 189.629018 
L 199.074138 185.738492 
L 194.124605 181.712454 
L 189.834638 177.957439 
L 185.697052 174.066913 
L 181.850302 170.176387 
L 178.237688 166.243024 
L 174.323822 161.617229 
L 171.287162 157.71484 
L 167.964665 153.058071 
L 164.94559 148.389439 
L 162.224593 143.720808 
L 159.790445 139.052176 
L 157.63165 134.383544 
L 155.740137 129.714913 
L 154.108147 125.046281 
L 152.729695 120.37765 
L 151.599507 115.709018 
L 150.714031 111.040387 
L 150.069782 106.371755 
L 149.664389 101.703123 
L 149.496532 97.034492 
L 149.566209 92.36586 
L 149.87342 87.697229 
L 150.435583 82.909599 
L 151.204094 78.359965 
L 152.232608 73.691334 
L 153.507661 69.022702 
L 155.034511 64.354071 
L 156.818003 59.685439 
L 158.865309 55.016808 
L 161.184356 50.348176 
L 163.343703 46.436654 
L 166.176205 41.789018 
L 168.778601 37.898492 
L 171.600579 34.007965 
L 174.652782 30.117439 
L 178.237688 25.897088 
L 182.236803 21.558281 
L 182.236803 21.558281 
" clip-path="url(#pddd6f0a9f7)" style="fill: none; stroke: #2d6a9f"/>
    <path d="M 430.4425 263.588649 
L 421.506109 265.145537 
L 412.569718 266.482561 
L 403.633327 267.605328 
L 394.696936 268.517645 
L 385.760545 269.22315 
L 376.824154 269.724393 
L 367.887763 270.022407 
L 358.951372 270.118988 
L 350.014981 270.014358 
L 341.07859 269.708224 
L 332.142199 269.198896 
L 323.205808 268.485161 
L 314.269417 267.564539 
L 305.333026 266.433166 
L 296.396635 265.087564 
L 287.460244 263.521748 
L 278.523853 261.729505 
L 269.396897 259.658492 
L 260.651071 257.43652 
L 251.96384 254.98986 
L 243.771222 252.453561 
L 238.155278 250.580592 
M 217.748164 242.784344 
L 211.004455 239.836367 
L 203.498757 236.315334 
L 197.103402 233.101671 
L 190.051608 229.312387 
L 183.20235 225.364274 
L 176.985671 221.531334 
L 171.067157 217.640808 
L 165.329568 213.621704 
L 159.267287 209.08165 
L 153.41438 204.376962 
L 148.043472 199.744387 
L 142.994103 195.075755 
L 138.284747 190.407123 
L 133.894492 185.738492 
L 129.584004 180.807961 
L 125.612274 175.906003 
L 122.465279 171.732597 
L 119.190394 167.063965 
L 116.16382 162.395334 
L 113.376534 157.726702 
L 110.718289 152.861974 
L 108.488823 148.389439 
L 106.375215 143.720808 
L 104.474036 139.052176 
L 102.774831 134.367118 
L 101.062545 128.936808 
L 99.796034 124.227549 
L 98.589306 118.821439 
L 97.636453 113.374702 
L 96.94488 107.927965 
L 96.558689 103.259334 
L 96.347663 97.812597 
L 96.393986 92.36586 
L 96.697658 86.919123 
L 97.164087 82.250492 
L 97.949185 76.803755 
L 98.996788 71.357018 
L 100.309917 65.910281 
L 101.781898 60.815985 
L 103.466911 55.794913 
L 105.24702 51.126281 
L 107.236813 46.45765 
L 109.725357 41.219437 
L 111.866225 37.120387 
L 114.690019 32.163688 
L 117.668816 27.375749 
L 120.647613 22.953242 
L 121.633505 21.558281 
L 121.633505 21.558281 
" clip-path="url(#pddd6f0a9f7)" style="fill: none; stroke: #2d6a9f"/>
    <path d="M 430.4425 300.598865 
L 420.513177 302.006869 
L 410.255858 303.232387 
L 400.65453 304.172017 
L 390.725207 304.935797 
L 380.795883 305.49047 
L 370.86656 305.837323 
L 360.937237 305.977846 
L 351.007914 305.912323 
L 341.07859 305.640754 
L 331.149267 305.161637 
L 321.219944 304.474262 
L 311.29062 303.576286 
L 301.271895 302.454281 
L 291.431974 301.136949 
L 281.50265 299.587813 
L 271.431134 297.78565 
L 261.644004 295.805078 
L 251.71468 293.558416 
L 241.785357 291.064262 
L 232.32317 288.448387 
L 223.912575 285.919336 
L 214.941945 283.00165 
L 206.039793 279.870479 
L 197.103402 276.478626 
L 188.313155 272.886281 
L 180.223553 269.341274 
L 175.133118 266.986859 
M 155.688224 257.029465 
L 148.449718 252.892108 
L 141.499192 248.672133 
L 134.409619 244.096387 
L 127.598139 239.418074 
L 121.217424 234.759123 
L 115.193633 230.090492 
L 109.513864 225.42186 
L 103.767763 220.404402 
L 98.283746 215.306492 
L 93.556483 210.63786 
L 88.377591 205.191123 
L 83.54111 199.744387 
L 78.944455 194.191422 
L 74.826912 188.850913 
L 70.920274 183.404176 
L 67.297842 177.957439 
L 63.948483 172.510702 
L 60.86367 167.063965 
L 58.034678 161.617229 
L 55.45511 156.170492 
L 53.117588 150.723755 
L 51.01772 145.277018 
L 49.149856 139.830281 
L 47.510653 134.383544 
L 46.095432 128.936808 
L 44.902179 123.490071 
L 43.927726 118.043334 
L 43.170016 112.596597 
L 42.628334 107.14986 
L 42.300393 101.703123 
L 42.186256 96.256387 
L 42.285736 90.80965 
L 42.59902 85.362913 
L 43.126046 79.916176 
L 43.868916 74.469439 
L 44.828433 69.022702 
L 46.006657 63.575965 
L 47.406421 58.129229 
L 49.156485 52.290105 
L 50.882414 47.235755 
L 52.966274 41.789018 
L 55.287032 36.342281 
L 57.850111 30.895544 
L 60.661728 25.448808 
L 62.825895 21.558281 
L 62.825895 21.558281 
" clip-path="url(#pddd6f0a9f7)" style="fill: none; stroke: #2d6a9f"/>
   </g>
   <g id="line2d_25">
    <path d="M 100.559303 -1 
L 430.4425 257.510921 
L 430.4425 257.510921 
" clip-path="url(#pddd6f0a9f7)" style="fill: none; stroke: #b23a48; stroke-width: 2; stroke-linecap: square"/>
   </g>
   <g id="line2d_26">
    <path d="M 81.8041 332.022281 
L 81.8041 21.558281 
" clip-path="url(#pddd6f0a9f7)" style="fill: none; stroke: #5b6573; stroke-width: 1.5; stroke-linecap: square"/>
   </g>
   <g id="line2d_27">
    <path d="M 34.2625 288.557321 
L 430.4425 288.557321 
" clip-path="url(#pddd6f0a9f7)" style="fill: none; stroke: #5b6573; stroke-width: 1.5; stroke-linecap: square"/>
   </g>
   <g id="line2d_28">
    <path d="M 441.82375 256.805634 
L 438.872505 250.781432 
L 435.329357 244.147313 
L 431.509497 237.573823 
L 427.41556 231.065497 
L 423.05037 224.626825 
L 418.416939 218.262249 
L 413.518464 211.976162 
L 408.358324 205.772899 
L 402.94008 199.656741 
L 397.26747 193.631907 
L 391.344407 187.702555 
L 385.174979 181.872775 
L 378.763442 176.146589 
L 372.114219 170.527949 
L 365.231898 165.02073 
L 358.121228 159.628732 
L 350.787114 154.355676 
L 343.234616 149.2052 
L 335.468946 144.180857 
L 327.495461 139.286113 
L 319.319662 134.524346 
L 310.94719 129.898841 
L 302.383822 125.41279 
L 293.635466 121.069287 
L 284.708157 116.871329 
L 275.608056 112.821813 
L 266.34144 108.923533 
L 256.914704 105.179177 
L 247.33435 101.591331 
L 237.606989 98.162468 
L 227.739332 94.894954 
L 217.738188 91.791045 
L 207.610456 88.852882 
L 197.363124 86.082491 
L 187.003262 83.481784 
L 176.538018 81.052556 
L 165.974612 78.796482 
L 155.320333 76.715119 
L 144.58253 74.809903 
L 133.768613 73.082149 
L 122.886043 71.533048 
L 111.942328 70.16367 
L 100.945018 68.974959 
L 87.688187 67.788133 
L 74.378277 66.86382 
L 61.028514 66.20294 
L 47.652158 65.80615 
L 34.2625 65.673842 
L 34.2625 65.673842 
" clip-path="url(#pddd6f0a9f7)" style="fill: none; stroke: #2f855a; stroke-width: 2; stroke-linecap: square"/>
   </g>
   <g id="line2d_29">
    <defs>
     <path id="m1357e6c0f9" d="M 0 4.5 
C 1.193414 4.5 2.338109 4.025852 3.181981 3.181981 
C 4.025852 2.338109 4.5 1.193414 4.5 0 
C 4.5 -1.193414 4.025852 -2.338109 3.181981 -3.181981 
C 2.338109 -4.025852 1.193414 -4.5 0 -4.5 
C -1.193414 -4.5 -2.338109 -4.025852 -3.181981 -3.181981 
C -4.025852 -2.338109 -4.5 -1.193414 -4.5 0 
C -4.5 1.193414 -4.025852 2.338109 -3.181981 3.181981 
C -2.338109 4.025852 -1.193414 4.5 0 4.5 
z
" style="stroke: #d97706"/>
    </defs>
    <g clip-path="url(#pddd6f0a9f7)">
     <use xlink:href="#m1357e6c0f9" x="280.509718" y="140.608387" style="fill: #d97706; stroke: #d97706"/>
    </g>
   </g>
   <g id="patch_3">
    <path d="M 34.2625 332.022281 
L 34.2625 21.558281 
" style="fill: none; stroke: #000000; stroke-width: 0.8; stroke-linejoin: miter; stroke-linecap: square"/>
   </g>
   <g id="patch_4">
    <path d="M 430.4425 332.022281 
L 430.4425 21.558281 
" style="fill: none; stroke: #000000; stroke-width: 0.8; stroke-linejoin: miter; stroke-linecap: square"/>
   </g>
   <g id="patch_5">
    <path d="M 34.2625 332.022281 
L 430.4425 332.022281 
" style="fill: none; stroke: #000000; stroke-width: 0.8; stroke-linejoin: miter; stroke-linecap: square"/>
   </g>
   <g id="patch_6">
    <path d="M 34.2625 21.558281 
L 430.4425 21.558281 
" style="fill: none; stroke: #000000; stroke-width: 0.8; stroke-linejoin: miter; stroke-linecap: square"/>
   </g>
   <g id="patch_7">
    <path d="M 317.475266 233.646086 
Q 299.361944 188.057102 281.867859 144.026658 
" style="fill: none; stroke: #d97706; stroke-width: 1.5; stroke-linecap: round"/>
    <path d="M 281.524326 148.036893 
L 281.867859 144.026658 
L 284.869927 146.707626 
" style="fill: none; stroke: #d97706; stroke-width: 1.5; stroke-linecap: round"/>
   </g>
   <g id="text_15">
    <g id="patch_8">
     <path d="M 275.9323 249.21408 
L 366.140425 249.21408 
Q 368.390425 249.21408 368.390425 246.96408 
L 368.390425 238.253767 
Q 368.390425 236.003767 366.140425 236.003767 
L 275.9323 236.003767 
Q 273.6823 236.003767 273.6823 238.253767 
L 273.6823 246.96408 
Q 273.6823 249.21408 275.9323 249.21408 
z
" style="fill: #ffffff; stroke: #d97706; stroke-linejoin: miter"/>
    </g>
    <!-- best feasible design -->
    <g style="fill: #d97706" transform="translate(275.9323 245.092361) scale(0.09 -0.09)">
     <defs>
      <path id="DejaVuSans-74" d="M 1172 4494 
L 1172 3500 
L 2356 3500 
L 2356 3053 
L 1172 3053 
L 1172 1153 
Q 1172 725 1289 603 
Q 1406 481 1766 481 
L 2356 481 
L 2356 0 
L 1766 0 
Q 1100 0 847 248 
Q 594 497 594 1153 
L 594 3053 
L 172 3053 
L 172 3500 
L 594 3500 
L 594 4494 
L 1172 4494 
z
" transform="scale(0.015625)"/>
      <path id="DejaVuSans-66" d="M 2375 4863 
L 2375 4384 
L 1825 4384 
Q 1516 4384 1395 4259 
Q 1275 4134 1275 3809 
L 1275 3500 
L 2222 3500 
L 2222 3053 
L 1275 3053 
L 1275 0 
L 697 0 
L 697 3053 
L 147 3053 
L 147 3500 
L 697 3500 
L 697 3744 
Q 697 4328 969 4595 
Q 1241 4863 1831 4863 
L 2375 4863 
z
" transform="scale(0.015625)"/>
      <path id="DejaVuSans-64" d="M 2906 2969 
L 2906 4863 
L 3481 4863 
L 3481 0 
L 2906 0 
L 2906 525 
Q 2725 213 2448 61 
Q 2172 -91 1784 -91 
Q 1150 -91 751 415 
Q 353 922 353 1747 
Q 353 2572 751 3078 
Q 1150 3584 1784 3584 
Q 2172 3584 2448 3432 
Q 2725 3281 2906 2969 
z
M 947 1747 
Q 947 1113 1208 752 
Q 1469 391 1925 391 
Q 2381 391 2643 752 
Q 2906 1113 2906 1747 
Q 2906 2381 2643 2742 
Q 2381 3103 1925 3103 
Q 1469 3103 1208 2742 
Q 947 2381 947 1747 
z
" transform="scale(0.015625)"/>
     </defs>
     <use xlink:href="#DejaVuSans-62"/>
     <use xlink:href="#DejaVuSans-65" transform="translate(63.476562 0)"/>
     <use xlink:href="#DejaVuSans-73" transform="translate(125 0)"/>
     <use xlink:href="#DejaVuSans-74" transform="translate(177.099609 0)"/>
     <use xlink:href="#DejaVuSans-20" transform="translate(216.308594 0)"/>
     <use xlink:href="#DejaVuSans-66" transform="translate(248.095703 0)"/>
     <use xlink:href="#DejaVuSans-65" transform="translate(283.300781 0)"/>
     <use xlink:href="#DejaVuSans-61" transform="translate(344.824219 0)"/>
     <use xlink:href="#DejaVuSans-73" transform="translate(406.103516 0)"/>
     <use xlink:href="#DejaVuSans-69" transform="translate(458.203125 0)"/>
     <use xlink:href="#DejaVuSans-62" transform="translate(485.986328 0)"/>
     <use xlink:href="#DejaVuSans-6c" transform="translate(549.462891 0)"/>
     <use xlink:href="#DejaVuSans-65" transform="translate(577.246094 0)"/>
     <use xlink:href="#DejaVuSans-20" transform="translate(638.769531 0)"/>
     <use xlink:href="#DejaVuSans-64" transform="translate(670.556641 0)"/>
     <use xlink:href="#DejaVuSans-65" transform="translate(734.033203 0)"/>
     <use xlink:href="#DejaVuSans-73" transform="translate(795.556641 0)"/>
     <use xlink:href="#DejaVuSans-69" transform="translate(847.65625 0)"/>
     <use xlink:href="#DejaVuSans-67" transform="translate(875.439453 0)"/>
     <use xlink:href="#DejaVuSans-6e" transform="translate(938.916016 0)"/>
    </g>
   </g>
   <g id="text_16">
    <g id="patch_9">
     <path d="M 99.107256 261.674032 
L 143.736944 261.674032 
Q 146.736944 261.674032 146.736944 258.674032 
L 146.736944 237.798095 
Q 146.736944 234.798095 143.736944 234.798095 
L 99.107256 234.798095 
Q 96.107256 234.798095 96.107256 237.798095 
L 96.107256 258.674032 
Q 96.107256 261.674032 99.107256 261.674032 
z
" style="fill: #ffffff; stroke: #2f855a; stroke-linejoin: miter"/>
    </g>
    <!-- feasible -->
    <g style="fill: #2f855a" transform="translate(99.107256 245.318407) scale(0.1 -0.1)">
     <defs>
      <path id="DejaVuSans-Bold-66" d="M 2841 4863 
L 2841 4128 
L 2222 4128 
Q 1984 4128 1890 4042 
Q 1797 3956 1797 3744 
L 1797 3500 
L 2753 3500 
L 2753 2700 
L 1797 2700 
L 1797 0 
L 678 0 
L 678 2700 
L 122 2700 
L 122 3500 
L 678 3500 
L 678 3744 
Q 678 4316 997 4589 
Q 1316 4863 1984 4863 
L 2841 4863 
z
" transform="scale(0.015625)"/>
      <path id="DejaVuSans-Bold-65" d="M 4031 1759 
L 4031 1441 
L 1416 1441 
Q 1456 1047 1700 850 
Q 1944 653 2381 653 
Q 2734 653 3104 758 
Q 3475 863 3866 1075 
L 3866 213 
Q 3469 63 3072 -14 
Q 2675 -91 2278 -91 
Q 1328 -91 801 392 
Q 275 875 275 1747 
Q 275 2603 792 3093 
Q 1309 3584 2216 3584 
Q 3041 3584 3536 3087 
Q 4031 2591 4031 1759 
z
M 2881 2131 
Q 2881 2450 2695 2645 
Q 2509 2841 2209 2841 
Q 1884 2841 1681 2658 
Q 1478 2475 1428 2131 
L 2881 2131 
z
" transform="scale(0.015625)"/>
      <path id="DejaVuSans-Bold-61" d="M 2106 1575 
Q 1756 1575 1579 1456 
Q 1403 1338 1403 1106 
Q 1403 894 1545 773 
Q 1688 653 1941 653 
Q 2256 653 2472 879 
Q 2688 1106 2688 1447 
L 2688 1575 
L 2106 1575 
z
M 3816 1997 
L 3816 0 
L 2688 0 
L 2688 519 
Q 2463 200 2181 54 
Q 1900 -91 1497 -91 
Q 953 -91 614 226 
Q 275 544 275 1050 
Q 275 1666 698 1953 
Q 1122 2241 2028 2241 
L 2688 2241 
L 2688 2328 
Q 2688 2594 2478 2717 
Q 2269 2841 1825 2841 
Q 1466 2841 1156 2769 
Q 847 2697 581 2553 
L 581 3406 
Q 941 3494 1303 3539 
Q 1666 3584 2028 3584 
Q 2975 3584 3395 3211 
Q 3816 2838 3816 1997 
z
" transform="scale(0.015625)"/>
      <path id="DejaVuSans-Bold-73" d="M 3272 3391 
L 3272 2541 
Q 2913 2691 2578 2766 
Q 2244 2841 1947 2841 
Q 1628 2841 1473 2761 
Q 1319 2681 1319 2516 
Q 1319 2381 1436 2309 
Q 1553 2238 1856 2203 
L 2053 2175 
Q 2913 2066 3209 1816 
Q 3506 1566 3506 1031 
Q 3506 472 3093 190 
Q 2681 -91 1863 -91 
Q 1516 -91 1145 -36 
Q 775 19 384 128 
L 384 978 
Q 719 816 1070 734 
Q 1422 653 1784 653 
Q 2113 653 2278 743 
Q 2444 834 2444 1013 
Q 2444 1163 2330 1236 
Q 2216 1309 1875 1350 
L 1678 1375 
Q 931 1469 631 1722 
Q 331 1975 331 2491 
Q 331 3047 712 3315 
Q 1094 3584 1881 3584 
Q 2191 3584 2531 3537 
Q 2872 3491 3272 3391 
z
" transform="scale(0.015625)"/>
      <path id="DejaVuSans-Bold-69" d="M 538 3500 
L 1656 3500 
L 1656 0 
L 538 0 
L 538 3500 
z
M 538 4863 
L 1656 4863 
L 1656 3950 
L 538 3950 
L 538 4863 
z
" transform="scale(0.015625)"/>
      <path id="DejaVuSans-Bold-62" d="M 2400 722 
Q 2759 722 2948 984 
Q 3138 1247 3138 1747 
Q 3138 2247 2948 2509 
Q 2759 2772 2400 2772 
Q 2041 2772 1848 2508 
Q 1656 2244 1656 1747 
Q 1656 1250 1848 986 
Q 2041 722 2400 722 
z
M 1656 2988 
Q 1888 3294 2169 3439 
Q 2450 3584 2816 3584 
Q 3463 3584 3878 3070 
Q 4294 2556 4294 1747 
Q 4294 938 3878 423 
Q 3463 -91 2816 -91 
Q 2450 -91 2169 54 
Q 1888 200 1656 506 
L 1656 0 
L 538 0 
L 538 4863 
L 1656 4863 
L 1656 2988 
z
" transform="scale(0.015625)"/>
      <path id="DejaVuSans-Bold-6c" d="M 538 4863 
L 1656 4863 
L 1656 0 
L 538 0 
L 538 4863 
z
" transform="scale(0.015625)"/>
     </defs>
     <use xlink:href="#DejaVuSans-Bold-66"/>
     <use xlink:href="#DejaVuSans-Bold-65" transform="translate(43.505859 0)"/>
     <use xlink:href="#DejaVuSans-Bold-61" transform="translate(111.328125 0)"/>
     <use xlink:href="#DejaVuSans-Bold-73" transform="translate(178.808594 0)"/>
     <use xlink:href="#DejaVuSans-Bold-69" transform="translate(238.330078 0)"/>
     <use xlink:href="#DejaVuSans-Bold-62" transform="translate(272.607422 0)"/>
     <use xlink:href="#DejaVuSans-Bold-6c" transform="translate(344.189453 0)"/>
     <use xlink:href="#DejaVuSans-Bold-65" transform="translate(378.466797 0)"/>
    </g>
    <!-- region -->
    <g style="fill: #2f855a" transform="translate(103.277569 256.51622) scale(0.1 -0.1)">
     <defs>
      <path id="DejaVuSans-Bold-72" d="M 3138 2547 
Q 2991 2616 2845 2648 
Q 2700 2681 2553 2681 
Q 2122 2681 1889 2404 
Q 1656 2128 1656 1613 
L 1656 0 
L 538 0 
L 538 3500 
L 1656 3500 
L 1656 2925 
Q 1872 3269 2151 3426 
Q 2431 3584 2822 3584 
Q 2878 3584 2943 3579 
Q 3009 3575 3134 3559 
L 3138 2547 
z
" transform="scale(0.015625)"/>
      <path id="DejaVuSans-Bold-67" d="M 2919 594 
Q 2688 288 2409 144 
Q 2131 0 1766 0 
Q 1125 0 706 504 
Q 288 1009 288 1791 
Q 288 2575 706 3076 
Q 1125 3578 1766 3578 
Q 2131 3578 2409 3434 
Q 2688 3291 2919 2981 
L 2919 3500 
L 4044 3500 
L 4044 353 
Q 4044 -491 3511 -936 
Q 2978 -1381 1966 -1381 
Q 1638 -1381 1331 -1331 
Q 1025 -1281 716 -1178 
L 716 -306 
Q 1009 -475 1290 -558 
Q 1572 -641 1856 -641 
Q 2406 -641 2662 -400 
Q 2919 -159 2919 353 
L 2919 594 
z
M 2181 2772 
Q 1834 2772 1640 2515 
Q 1447 2259 1447 1791 
Q 1447 1309 1634 1061 
Q 1822 813 2181 813 
Q 2531 813 2725 1069 
Q 2919 1325 2919 1791 
Q 2919 2259 2725 2515 
Q 2531 2772 2181 2772 
z
" transform="scale(0.015625)"/>
      <path id="DejaVuSans-Bold-6f" d="M 2203 2784 
Q 1831 2784 1636 2517 
Q 1441 2250 1441 1747 
Q 1441 1244 1636 976 
Q 1831 709 2203 709 
Q 2569 709 2762 976 
Q 2956 1244 2956 1747 
Q 2956 2250 2762 2517 
Q 2569 2784 2203 2784 
z
M 2203 3584 
Q 3106 3584 3614 3096 
Q 4122 2609 4122 1747 
Q 4122 884 3614 396 
Q 3106 -91 2203 -91 
Q 1297 -91 786 396 
Q 275 884 275 1747 
Q 275 2609 786 3096 
Q 1297 3584 2203 3584 
z
" transform="scale(0.015625)"/>
      <path id="DejaVuSans-Bold-6e" d="M 4056 2131 
L 4056 0 
L 2931 0 
L 2931 347 
L 2931 1631 
Q 2931 2084 2911 2256 
Q 2891 2428 2841 2509 
Q 2775 2619 2662 2680 
Q 2550 2741 2406 2741 
Q 2056 2741 1856 2470 
Q 1656 2200 1656 1722 
L 1656 0 
L 538 0 
L 538 3500 
L 1656 3500 
L 1656 2988 
Q 1909 3294 2193 3439 
Q 2478 3584 2822 3584 
Q 3428 3584 3742 3212 
Q 4056 2841 4056 2131 
z
" transform="scale(0.015625)"/>
     </defs>
     <use xlink:href="#DejaVuSans-Bold-72"/>
     <use xlink:href="#DejaVuSans-Bold-65" transform="translate(49.316406 0)"/>
     <use xlink:href="#DejaVuSans-Bold-67" transform="translate(117.138672 0)"/>
     <use xlink:href="#DejaVuSans-Bold-69" transform="translate(188.720703 0)"/>
     <use xlink:href="#DejaVuSans-Bold-6f" transform="translate(222.998047 0)"/>
     <use xlink:href="#DejaVuSans-Bold-6e" transform="translate(291.699219 0)"/>
    </g>
   </g>
   <g id="text_17">
    <g id="patch_10">
     <path d="M 307.6267 115.44456 
L 362.7067 115.44456 
Q 364.6867 115.44456 364.6867 113.46456 
L 364.6867 104.754247 
Q 364.6867 102.774247 362.7067 102.774247 
L 307.6267 102.774247 
Q 305.6467 102.774247 305.6467 104.754247 
L 305.6467 113.46456 
Q 305.6467 115.44456 307.6267 115.44456 
z
" style="fill: #ffffff; stroke: #b23a48; stroke-linejoin: miter"/>
    </g>
    <!-- $x_1+x_2\leq 6.2$ -->
    <g style="fill: #b23a48" transform="translate(307.6267 111.592841) scale(0.09 -0.09)">
     <defs>
      <path id="DejaVuSans-2b" d="M 2944 4013 
L 2944 2272 
L 4684 2272 
L 4684 1741 
L 2944 1741 
L 2944 0 
L 2419 0 
L 2419 1741 
L 678 1741 
L 678 2272 
L 2419 2272 
L 2419 4013 
L 2944 4013 
z
" transform="scale(0.015625)"/>
      <path id="DejaVuSans-2264" d="M 4684 3175 
L 1684 2309 
L 4684 1453 
L 4684 897 
L 678 2047 
L 678 2578 
L 4684 3725 
L 4684 3175 
z
M 678 531 
L 4684 531 
L 4684 0 
L 678 0 
L 678 531 
z
" transform="scale(0.015625)"/>
      <path id="DejaVuSans-36" d="M 2113 2584 
Q 1688 2584 1439 2293 
Q 1191 2003 1191 1497 
Q 1191 994 1439 701 
Q 1688 409 2113 409 
Q 2538 409 2786 701 
Q 3034 994 3034 1497 
Q 3034 2003 2786 2293 
Q 2538 2584 2113 2584 
z
M 3366 4563 
L 3366 3988 
Q 3128 4100 2886 4159 
Q 2644 4219 2406 4219 
Q 1781 4219 1451 3797 
Q 1122 3375 1075 2522 
Q 1259 2794 1537 2939 
Q 1816 3084 2150 3084 
Q 2853 3084 3261 2657 
Q 3669 2231 3669 1497 
Q 3669 778 3244 343 
Q 2819 -91 2113 -91 
Q 1303 -91 875 529 
Q 447 1150 447 2328 
Q 447 3434 972 4092 
Q 1497 4750 2381 4750 
Q 2619 4750 2861 4703 
Q 3103 4656 3366 4563 
z
" transform="scale(0.015625)"/>
      <path id="DejaVuSans-2e" d="M 684 794 
L 1344 794 
L 1344 0 
L 684 0 
L 684 794 
z
" transform="scale(0.015625)"/>
     </defs>
     <use xlink:href="#DejaVuSans-Oblique-78" transform="translate(0 0.78125)"/>
     <use xlink:href="#DejaVuSans-31" transform="translate(59.179688 -15.625) scale(0.7)"/>
     <use xlink:href="#DejaVuSans-2b" transform="translate(125.932617 0.78125)"/>
     <use xlink:href="#DejaVuSans-Oblique-78" transform="translate(229.204102 0.78125)"/>
     <use xlink:href="#DejaVuSans-32" transform="translate(288.383789 -15.625) scale(0.7)"/>
     <use xlink:href="#DejaVuSans-2264" transform="translate(355.136719 0.78125)"/>
     <use xlink:href="#DejaVuSans-36" transform="translate(458.408203 0.78125)"/>
     <use xlink:href="#DejaVuSans-2e" transform="translate(522.03125 0.78125)"/>
     <use xlink:href="#DejaVuSans-32" transform="translate(548.318359 0.78125)"/>
    </g>
   </g>
   <g id="text_18">
    <!-- Feasible design space and constrained optimum -->
    <g style="fill: #1f2933" transform="translate(82.577188 15.558281) scale(0.11 -0.11)">
     <defs>
      <path id="DejaVuSans-Bold-46" d="M 588 4666 
L 3834 4666 
L 3834 3756 
L 1791 3756 
L 1791 2888 
L 3713 2888 
L 3713 1978 
L 1791 1978 
L 1791 0 
L 588 0 
L 588 4666 
z
" transform="scale(0.015625)"/>
      <path id="DejaVuSans-Bold-20" transform="scale(0.015625)"/>
      <path id="DejaVuSans-Bold-64" d="M 2919 2988 
L 2919 4863 
L 4044 4863 
L 4044 0 
L 2919 0 
L 2919 506 
Q 2688 197 2409 53 
Q 2131 -91 1766 -91 
Q 1119 -91 703 423 
Q 288 938 288 1747 
Q 288 2556 703 3070 
Q 1119 3584 1766 3584 
Q 2128 3584 2408 3439 
Q 2688 3294 2919 2988 
z
M 2181 722 
Q 2541 722 2730 984 
Q 2919 1247 2919 1747 
Q 2919 2247 2730 2509 
Q 2541 2772 2181 2772 
Q 1825 2772 1636 2509 
Q 1447 2247 1447 1747 
Q 1447 1247 1636 984 
Q 1825 722 2181 722 
z
" transform="scale(0.015625)"/>
      <path id="DejaVuSans-Bold-70" d="M 1656 506 
L 1656 -1331 
L 538 -1331 
L 538 3500 
L 1656 3500 
L 1656 2988 
Q 1888 3294 2169 3439 
Q 2450 3584 2816 3584 
Q 3463 3584 3878 3070 
Q 4294 2556 4294 1747 
Q 4294 938 3878 423 
Q 3463 -91 2816 -91 
Q 2450 -91 2169 54 
Q 1888 200 1656 506 
z
M 2400 2772 
Q 2041 2772 1848 2508 
Q 1656 2244 1656 1747 
Q 1656 1250 1848 986 
Q 2041 722 2400 722 
Q 2759 722 2948 984 
Q 3138 1247 3138 1747 
Q 3138 2247 2948 2509 
Q 2759 2772 2400 2772 
z
" transform="scale(0.015625)"/>
      <path id="DejaVuSans-Bold-63" d="M 3366 3391 
L 3366 2478 
Q 3138 2634 2908 2709 
Q 2678 2784 2431 2784 
Q 1963 2784 1702 2511 
Q 1441 2238 1441 1747 
Q 1441 1256 1702 982 
Q 1963 709 2431 709 
Q 2694 709 2930 787 
Q 3166 866 3366 1019 
L 3366 103 
Q 3103 6 2833 -42 
Q 2563 -91 2291 -91 
Q 1344 -91 809 395 
Q 275 881 275 1747 
Q 275 2613 809 3098 
Q 1344 3584 2291 3584 
Q 2566 3584 2833 3536 
Q 3100 3488 3366 3391 
z
" transform="scale(0.015625)"/>
      <path id="DejaVuSans-Bold-74" d="M 1759 4494 
L 1759 3500 
L 2913 3500 
L 2913 2700 
L 1759 2700 
L 1759 1216 
Q 1759 972 1856 886 
Q 1953 800 2241 800 
L 2816 800 
L 2816 0 
L 1856 0 
Q 1194 0 917 276 
Q 641 553 641 1216 
L 641 2700 
L 84 2700 
L 84 3500 
L 641 3500 
L 641 4494 
L 1759 4494 
z
" transform="scale(0.015625)"/>
      <path id="DejaVuSans-Bold-6d" d="M 3781 2919 
Q 3994 3244 4286 3414 
Q 4578 3584 4928 3584 
Q 5531 3584 5847 3212 
Q 6163 2841 6163 2131 
L 6163 0 
L 5038 0 
L 5038 1825 
Q 5041 1866 5042 1909 
Q 5044 1953 5044 2034 
Q 5044 2406 4934 2573 
Q 4825 2741 4581 2741 
Q 4263 2741 4089 2478 
Q 3916 2216 3909 1719 
L 3909 0 
L 2784 0 
L 2784 1825 
Q 2784 2406 2684 2573 
Q 2584 2741 2328 2741 
Q 2006 2741 1831 2477 
Q 1656 2213 1656 1722 
L 1656 0 
L 531 0 
L 531 3500 
L 1656 3500 
L 1656 2988 
Q 1863 3284 2130 3434 
Q 2397 3584 2719 3584 
Q 3081 3584 3359 3409 
Q 3638 3234 3781 2919 
z
" transform="scale(0.015625)"/>
      <path id="DejaVuSans-Bold-75" d="M 500 1363 
L 500 3500 
L 1625 3500 
L 1625 3150 
Q 1625 2866 1622 2436 
Q 1619 2006 1619 1863 
Q 1619 1441 1641 1255 
Q 1663 1069 1716 984 
Q 1784 875 1895 815 
Q 2006 756 2150 756 
Q 2500 756 2700 1025 
Q 2900 1294 2900 1772 
L 2900 3500 
L 4019 3500 
L 4019 0 
L 2900 0 
L 2900 506 
Q 2647 200 2364 54 
Q 2081 -91 1741 -91 
Q 1134 -91 817 281 
Q 500 653 500 1363 
z
" transform="scale(0.015625)"/>
     </defs>
     <use xlink:href="#DejaVuSans-Bold-46"/>
     <use xlink:href="#DejaVuSans-Bold-65" transform="translate(64.310547 0)"/>
     <use xlink:href="#DejaVuSans-Bold-61" transform="translate(132.132812 0)"/>
     <use xlink:href="#DejaVuSans-Bold-73" transform="translate(199.613281 0)"/>
     <use xlink:href="#DejaVuSans-Bold-69" transform="translate(259.134766 0)"/>
     <use xlink:href="#DejaVuSans-Bold-62" transform="translate(293.412109 0)"/>
     <use xlink:href="#DejaVuSans-Bold-6c" transform="translate(364.994141 0)"/>
     <use xlink:href="#DejaVuSans-Bold-65" transform="translate(399.271484 0)"/>
     <use xlink:href="#DejaVuSans-Bold-20" transform="translate(467.09375 0)"/>
     <use xlink:href="#DejaVuSans-Bold-64" transform="translate(501.908203 0)"/>
     <use xlink:href="#DejaVuSans-Bold-65" transform="translate(573.490234 0)"/>
     <use xlink:href="#DejaVuSans-Bold-73" transform="translate(641.3125 0)"/>
     <use xlink:href="#DejaVuSans-Bold-69" transform="translate(700.833984 0)"/>
     <use xlink:href="#DejaVuSans-Bold-67" transform="translate(735.111328 0)"/>
     <use xlink:href="#DejaVuSans-Bold-6e" transform="translate(806.693359 0)"/>
     <use xlink:href="#DejaVuSans-Bold-20" transform="translate(877.884766 0)"/>
     <use xlink:href="#DejaVuSans-Bold-73" transform="translate(912.699219 0)"/>
     <use xlink:href="#DejaVuSans-Bold-70" transform="translate(972.220703 0)"/>
     <use xlink:href="#DejaVuSans-Bold-61" transform="translate(1043.802734 0)"/>
     <use xlink:href="#DejaVuSans-Bold-63" transform="translate(1111.283203 0)"/>
     <use xlink:href="#DejaVuSans-Bold-65" transform="translate(1170.560547 0)"/>
     <use xlink:href="#DejaVuSans-Bold-20" transform="translate(1238.382812 0)"/>
     <use xlink:href="#DejaVuSans-Bold-61" transform="translate(1273.197266 0)"/>
     <use xlink:href="#DejaVuSans-Bold-6e" transform="translate(1340.677734 0)"/>
     <use xlink:href="#DejaVuSans-Bold-64" transform="translate(1411.869141 0)"/>
     <use xlink:href="#DejaVuSans-Bold-20" transform="translate(1483.451172 0)"/>
     <use xlink:href="#DejaVuSans-Bold-63" transform="translate(1518.265625 0)"/>
     <use xlink:href="#DejaVuSans-Bold-6f" transform="translate(1577.542969 0)"/>
     <use xlink:href="#DejaVuSans-Bold-6e" transform="translate(1646.244141 0)"/>
     <use xlink:href="#DejaVuSans-Bold-73" transform="translate(1717.435547 0)"/>
     <use xlink:href="#DejaVuSans-Bold-74" transform="translate(1776.957031 0)"/>
     <use xlink:href="#DejaVuSans-Bold-72" transform="translate(1824.759766 0)"/>
     <use xlink:href="#DejaVuSans-Bold-61" transform="translate(1874.076172 0)"/>
     <use xlink:href="#DejaVuSans-Bold-69" transform="translate(1941.556641 0)"/>
     <use xlink:href="#DejaVuSans-Bold-6e" transform="translate(1975.833984 0)"/>
     <use xlink:href="#DejaVuSans-Bold-65" transform="translate(2047.025391 0)"/>
     <use xlink:href="#DejaVuSans-Bold-64" transform="translate(2114.847656 0)"/>
     <use xlink:href="#DejaVuSans-Bold-20" transform="translate(2186.429688 0)"/>
     <use xlink:href="#DejaVuSans-Bold-6f" transform="translate(2221.244141 0)"/>
     <use xlink:href="#DejaVuSans-Bold-70" transform="translate(2289.945312 0)"/>
     <use xlink:href="#DejaVuSans-Bold-74" transform="translate(2361.527344 0)"/>
     <use xlink:href="#DejaVuSans-Bold-69" transform="translate(2409.330078 0)"/>
     <use xlink:href="#DejaVuSans-Bold-6d" transform="translate(2443.607422 0)"/>
     <use xlink:href="#DejaVuSans-Bold-75" transform="translate(2547.806641 0)"/>
     <use xlink:href="#DejaVuSans-Bold-6d" transform="translate(2618.998047 0)"/>
    </g>
   </g>
   <g id="text_19">
    <g clip-path="url(#pddd6f0a9f7)">
     <!-- 0.5 -->
     <g style="fill: #2d6a9f" transform="translate(327.854918 67.378284) rotate(-19.216835) scale(0.08 -0.08)">
      <use xlink:href="#DejaVuSans-30"/>
      <use xlink:href="#DejaVuSans-2e" transform="translate(63.623047 0)"/>
      <use xlink:href="#DejaVuSans-35" transform="translate(95.410156 0)"/>
     </g>
    </g>
   </g>
   <g id="text_20">
    <g clip-path="url(#pddd6f0a9f7)">
     <!-- 1.2 -->
     <g style="fill: #2d6a9f" transform="translate(400.613149 149.118041) rotate(-22.8346) scale(0.08 -0.08)">
      <use xlink:href="#DejaVuSans-31"/>
      <use xlink:href="#DejaVuSans-2e" transform="translate(63.623047 0)"/>
      <use xlink:href="#DejaVuSans-32" transform="translate(95.410156 0)"/>
     </g>
    </g>
   </g>
   <g id="text_21">
    <g clip-path="url(#pddd6f0a9f7)">
     <!-- 2.5 -->
     <g style="fill: #2d6a9f" transform="translate(415.322985 172.691641) rotate(-20.435013) scale(0.08 -0.08)">
      <use xlink:href="#DejaVuSans-32"/>
      <use xlink:href="#DejaVuSans-2e" transform="translate(63.623047 0)"/>
      <use xlink:href="#DejaVuSans-35" transform="translate(95.410156 0)"/>
     </g>
    </g>
   </g>
   <g id="text_22">
    <g clip-path="url(#pddd6f0a9f7)">
     <!-- 2.5 -->
     <g style="fill: #2d6a9f" transform="translate(416.228376 24.401448) rotate(-338.570304) scale(0.08 -0.08)">
      <use xlink:href="#DejaVuSans-32"/>
      <use xlink:href="#DejaVuSans-2e" transform="translate(63.623047 0)"/>
      <use xlink:href="#DejaVuSans-35" transform="translate(95.410156 0)"/>
     </g>
    </g>
   </g>
   <g id="text_23">
    <g clip-path="url(#pddd6f0a9f7)">
     <!-- 4.5 -->
     <g style="fill: #2d6a9f" transform="translate(280.730146 196.975456) rotate(-342.654074) scale(0.08 -0.08)">
      <use xlink:href="#DejaVuSans-34"/>
      <use xlink:href="#DejaVuSans-2e" transform="translate(63.623047 0)"/>
      <use xlink:href="#DejaVuSans-35" transform="translate(95.410156 0)"/>
     </g>
    </g>
   </g>
   <g id="text_24">
    <g clip-path="url(#pddd6f0a9f7)">
     <!-- 7.0 -->
     <g style="fill: #2d6a9f" transform="translate(216.296596 200.398035) rotate(-330.475037) scale(0.08 -0.08)">
      <defs>
       <path id="DejaVuSans-37" d="M 525 4666 
L 3525 4666 
L 3525 4397 
L 1831 0 
L 1172 0 
L 2766 4134 
L 525 4134 
L 525 4666 
z
" transform="scale(0.015625)"/>
      </defs>
      <use xlink:href="#DejaVuSans-37"/>
      <use xlink:href="#DejaVuSans-2e" transform="translate(63.623047 0)"/>
      <use xlink:href="#DejaVuSans-30" transform="translate(95.410156 0)"/>
     </g>
    </g>
   </g>
   <g id="text_25">
    <g clip-path="url(#pddd6f0a9f7)">
     <!-- 11.0 -->
     <g style="fill: #2d6a9f" transform="translate(218.776633 245.743233) rotate(-339.095576) scale(0.08 -0.08)">
      <use xlink:href="#DejaVuSans-31"/>
      <use xlink:href="#DejaVuSans-31" transform="translate(63.623047 0)"/>
      <use xlink:href="#DejaVuSans-2e" transform="translate(127.246094 0)"/>
      <use xlink:href="#DejaVuSans-30" transform="translate(159.033203 0)"/>
     </g>
    </g>
   </g>
   <g id="text_26">
    <g clip-path="url(#pddd6f0a9f7)">
     <!-- 16.0 -->
     <g style="fill: #2d6a9f" transform="translate(156.395907 260.072682) rotate(-332.888701) scale(0.08 -0.08)">
      <use xlink:href="#DejaVuSans-31"/>
      <use xlink:href="#DejaVuSans-36" transform="translate(63.623047 0)"/>
      <use xlink:href="#DejaVuSans-2e" transform="translate(127.246094 0)"/>
      <use xlink:href="#DejaVuSans-30" transform="translate(159.033203 0)"/>
     </g>
    </g>
   </g>
  </g>
 </g>
 <defs>
  <clipPath id="pddd6f0a9f7">
   <rect x="34.2625" y="21.558281" width="396.18" height="310.464"/>
  </clipPath>
 </defs>
</svg>
