<svg width="4056" height="1677" xmlns="http://www.w3.org/2000/svg" xmlns:xlink="http://www.w3.org/1999/xlink" xml:space="preserve" overflow="hidden"><g transform="translate(-174 -73)"><g><path d="M710.5 113.668C710.5 97.0066 724.007 83.5 740.668 83.5L3650.33 83.5C3666.99 83.5 3680.5 97.0066 3680.5 113.668L3680.5 234.332C3680.5 250.993 3666.99 264.5 3650.33 264.5L740.668 264.5C724.007 264.5 710.5 250.993 710.5 234.332Z" stroke="#0B3D66" stroke-width="6.875" stroke-linecap="butt" stroke-linejoin="round" stroke-miterlimit="10" stroke-opacity="1" fill="#FFFFFF" fill-rule="evenodd" fill-opacity="0"/><text fill="#0B3D66" fill-opacity="1" font-family="Aptos Display,Aptos Display_MSFontService,sans-serif" font-style="normal" font-variant="normal" font-weight="700" font-stretch="normal" font-size="110" text-anchor="start" direction="ltr" writing-mode="lr-tb" unicode-bidi="normal" text-decoration="none" transform="matrix(1 0 0 1 1064.82 209)">Simultaneous control co design information flow</text><path d="M994.597 727.446 1199.33 1135.96 1191.13 1140.07 986.402 731.553ZM1205.47 1127.75 1205.5 1158.5 1180.89 1140.08Z" fill="#5B6470" fill-rule="nonzero" fill-opacity="1"/><path d="M990.5 1153.92 1182.58 1153.92 1182.58 1163.08 990.5 1163.08ZM1178 1144.75 1205.5 1158.5 1178 1172.25Z" fill="#5B6470" fill-rule="nonzero" fill-opacity="1"/><path d="M4.09755-2.05355 208.83 406.459 200.635 410.566-4.09755 2.05355ZM214.972 398.254 215 429 190.386 410.575Z" fill="#5B6470" fill-rule="nonzero" fill-opacity="1" transform="matrix(1 0 0 -1 990.5 1587.5)"/><path d="M4.19045-1.85664 208.908 460.191 200.527 463.905-4.19045 1.85664ZM215.432 452.287 214 483 190.289 463.427Z" fill="#5B6470" fill-rule="nonzero" fill-opacity="1" transform="matrix(1 0 0 -1 2211.5 1175.5)"/><path d="M2211.5 1160.92 2403.58 1160.92 2403.58 1170.08 2211.5 1170.08ZM2399 1151.75 2426.5 1165.5 2399 1179.25Z" fill="#5B6470" fill-rule="nonzero" fill-opacity="1"/><path d="M2215.6 1161.46 2419.41 1571.94 2411.2 1576.01 2207.39 1165.54ZM2425.59 1563.75 2425.5 1594.5 2400.95 1575.98Z" fill="#5B6470" fill-rule="nonzero" fill-opacity="1"/><path d="M3201.5 1158.92 3459.58 1158.92 3459.58 1168.08 3201.5 1168.08ZM3455 1149.75 3482.5 1163.5 3455 1177.25Z" fill="#5B6470" fill-rule="nonzero" fill-opacity="1"/><path d="M3.79655-2.56772 270.958 392.45 263.365 397.585-3.79655 2.56772ZM275.983 383.517 280 414 253.204 398.924Z" fill="#5B6470" fill-rule="nonzero" fill-opacity="1" transform="matrix(1 0 0 -1 3201.5 1589.5)"/><path d="M182.5 611.436C182.5 593.246 197.246 578.5 215.436 578.5L957.564 578.5C975.754 578.5 990.5 593.246 990.5 611.436L990.5 848.564C990.5 866.754 975.754 881.5 957.564 881.5L215.436 881.5C197.246 881.5 182.5 866.754 182.5 848.564Z" stroke="#0B3D66" stroke-width="9.16667" stroke-linecap="butt" stroke-linejoin="round" stroke-miterlimit="10" stroke-opacity="1" fill="#EAF4FF" fill-rule="evenodd" fill-opacity="1"/><text fill="#1F2933" fill-opacity="1" font-family="Aptos,Aptos_MSFontService,sans-serif" font-style="normal" font-variant="normal" font-weight="700" font-stretch="normal" font-size="73" text-anchor="start" direction="ltr" writing-mode="lr-tb" unicode-bidi="normal" text-decoration="none" transform="matrix(1 0 0 1 380.073 709)">Plant design</text><text fill="#1F2933" fill-opacity="1" font-family="Aptos,Aptos_MSFontService,sans-serif" font-style="normal" font-variant="normal" font-weight="700" font-stretch="normal" font-size="73" text-anchor="start" direction="ltr" writing-mode="lr-tb" unicode-bidi="normal" text-decoration="none" transform="matrix(1 0 0 1 555.11 797)">x</text><text fill="#1F2933" fill-opacity="1" font-family="Segoe UI Symbol,Segoe UI Symbol_MSFontService,sans-serif" font-style="normal" font-variant="normal" font-weight="700" font-stretch="normal" font-size="73" text-anchor="start" direction="ltr" writing-mode="lr-tb" unicode-bidi="normal" text-decoration="none" transform="matrix(1 0 0 1 591.204 797)">ₚ</text><path d="M182.5 1040.44C182.5 1022.25 197.246 1007.5 215.436 1007.5L957.564 1007.5C975.754 1007.5 990.5 1022.25 990.5 1040.44L990.5 1277.56C990.5 1295.75 975.754 1310.5 957.564 1310.5L215.436 1310.5C197.246 1310.5 182.5 1295.75 182.5 1277.56Z" stroke="#D97706" stroke-width="9.16667" stroke-linecap="butt" stroke-linejoin="round" stroke-miterlimit="10" stroke-opacity="1" fill="#FFF5E6" fill-rule="evenodd" fill-opacity="1"/><text fill="#1F2933" fill-opacity="1" font-family="Aptos,Aptos_MSFontService,sans-serif" font-style="normal" font-variant="normal" font-weight="700" font-stretch="normal" font-size="69" text-anchor="start" direction="ltr" writing-mode="lr-tb" unicode-bidi="normal" text-decoration="none" transform="matrix(1 0 0 1 356.973 1139)">Control design</text><text fill="#1F2933" fill-opacity="1" font-family="Cambria Math,Cambria Math_MSFontService,sans-serif" font-style="normal" font-variant="normal" font-weight="400" font-stretch="normal" font-size="69" text-anchor="start" direction="ltr" writing-mode="lr-tb" unicode-bidi="normal" text-decoration="none" transform="matrix(1 0 0 1 453.406 1222)">𝒙</text><text fill="#1F2933" fill-opacity="1" font-family="Cambria Math,Cambria Math_MSFontService,sans-serif" font-style="normal" font-variant="normal" font-weight="400" font-stretch="normal" font-size="50" text-anchor="start" direction="ltr" writing-mode="lr-tb" unicode-bidi="normal" text-decoration="none" transform="matrix(1 0 0 1 492.937 1236)">𝒄</text><text fill="#1F2933" fill-opacity="1" font-family="Aptos,Aptos_MSFontService,sans-serif" font-style="normal" font-variant="normal" font-weight="700" font-stretch="normal" font-size="69" text-anchor="start" direction="ltr" writing-mode="lr-tb" unicode-bidi="normal" text-decoration="none" transform="matrix(1 0 0 1 534.76 1222)">or u(t)</text><path d="M182.5 1469.44C182.5 1451.25 197.246 1436.5 215.436 1436.5L957.564 1436.5C975.754 1436.5 990.5 1451.25 990.5 1469.44L990.5 1706.56C990.5 1724.75 975.754 1739.5 957.564 1739.5L215.436 1739.5C197.246 1739.5 182.5 1724.75 182.5 1706.56Z" stroke="#198754" stroke-width="9.16667" stroke-linecap="butt" stroke-linejoin="round" stroke-miterlimit="10" stroke-opacity="1" fill="#EEF9F2" fill-rule="evenodd" fill-opacity="1"/><text fill="#1F2933" fill-opacity="1" font-family="Aptos,Aptos_MSFontService,sans-serif" font-style="normal" font-variant="normal" font-weight="400" font-stretch="normal" font-size="69" text-anchor="start" direction="ltr" writing-mode="lr-tb" unicode-bidi="normal" text-decoration="none" transform="matrix(1 0 0 1 386.581 1568)">Disturbances</text><text fill="#1F2933" fill-opacity="1" font-family="Aptos,Aptos_MSFontService,sans-serif" font-style="normal" font-variant="normal" font-weight="400" font-stretch="normal" font-size="69" text-anchor="start" direction="ltr" writing-mode="lr-tb" unicode-bidi="normal" text-decoration="none" transform="matrix(1 0 0 1 535.333 1651)">d(t)</text><path d="M1205.5 933.5C1205.5 915.275 1220.27 900.5 1238.5 900.5L2178.5 900.5C2196.73 900.5 2211.5 915.275 2211.5 933.5L2211.5 1395.5C2211.5 1413.73 2196.73 1428.5 2178.5 1428.5L1238.5 1428.5C1220.27 1428.5 1205.5 1413.73 1205.5 1395.5Z" stroke="#5B6470" stroke-width="9.16667" stroke-linecap="butt" stroke-linejoin="round" stroke-miterlimit="10" stroke-opacity="1" fill="#F3F4F6" fill-rule="evenodd" fill-opacity="1"/><text fill="#1F2933" fill-opacity="1" font-family="Aptos,Aptos_MSFontService,sans-serif" font-style="normal" font-variant="normal" font-weight="700" font-stretch="normal" font-size="69" text-anchor="start" direction="ltr" writing-mode="lr-tb" unicode-bidi="normal" text-decoration="none" transform="matrix(1 0 0 1 1462.26 1096)">Dynamic model</text><text fill="#1F2933" fill-opacity="1" font-family="Calibri,Calibri_MSFontService,sans-serif" font-style="normal" font-variant="normal" font-weight="700" font-stretch="normal" font-size="69" text-anchor="start" direction="ltr" writing-mode="lr-tb" unicode-bidi="normal" text-decoration="none" transform="matrix(1 0 0 1 1483.16 1181)">ẋ</text><text fill="#1F2933" fill-opacity="1" font-family="Aptos,Aptos_MSFontService,sans-serif" font-style="normal" font-variant="normal" font-weight="700" font-stretch="normal" font-size="69" text-anchor="start" direction="ltr" writing-mode="lr-tb" unicode-bidi="normal" text-decoration="none" transform="matrix(1 0 0 1 1528.42 1181)">= f(x, u</text><text fill="#1F2933" fill-opacity="1" font-family="Aptos,Aptos_MSFontService,sans-serif" font-style="normal" font-variant="normal" font-weight="700" font-stretch="normal" font-size="69" text-anchor="start" direction="ltr" writing-mode="lr-tb" unicode-bidi="normal" text-decoration="none" transform="matrix(1 0 0 1 1730.08 1181)">, </text><text fill="#1F2933" fill-opacity="1" font-family="Cambria Math,Cambria Math_MSFontService,sans-serif" font-style="normal" font-variant="normal" font-weight="400" font-stretch="normal" font-size="69" text-anchor="start" direction="ltr" writing-mode="lr-tb" unicode-bidi="normal" text-decoration="none" transform="matrix(1 0 0 1 1764.46 1181)">𝒙</text><text fill="#1F2933" fill-opacity="1" font-family="Cambria Math,Cambria Math_MSFontService,sans-serif" font-style="normal" font-variant="normal" font-weight="400" font-stretch="normal" font-size="50" text-anchor="start" direction="ltr" writing-mode="lr-tb" unicode-bidi="normal" text-decoration="none" transform="matrix(1 0 0 1 1803.99 1195)">𝒑</text><text fill="#1F2933" fill-opacity="1" font-family="Aptos,Aptos_MSFontService,sans-serif" font-style="normal" font-variant="normal" font-weight="700" font-stretch="normal" font-size="69" text-anchor="start" direction="ltr" writing-mode="lr-tb" unicode-bidi="normal" text-decoration="none" transform="matrix(1 0 0 1 1837.79 1181)">, </text><text fill="#1F2933" fill-opacity="1" font-family="Aptos,Aptos_MSFontService,sans-serif" font-style="normal" font-variant="normal" font-weight="700" font-stretch="normal" font-size="69" text-anchor="start" direction="ltr" writing-mode="lr-tb" unicode-bidi="normal" text-decoration="none" transform="matrix(1 0 0 1 1872.17 1181)">d)</text><text fill="#1F2933" fill-opacity="1" font-family="Aptos,Aptos_MSFontService,sans-serif" font-style="normal" font-variant="normal" font-weight="700" font-stretch="normal" font-size="69" text-anchor="start" direction="ltr" writing-mode="lr-tb" unicode-bidi="normal" text-decoration="none" transform="matrix(1 0 0 1 1510.95 1271)">y = h(x, u</text><text fill="#1F2933" fill-opacity="1" font-family="Aptos,Aptos_MSFontService,sans-serif" font-style="normal" font-variant="normal" font-weight="700" font-stretch="normal" font-size="69" text-anchor="start" direction="ltr" writing-mode="lr-tb" unicode-bidi="normal" text-decoration="none" transform="matrix(1 0 0 1 1776.79 1271)">, </text><text fill="#1F2933" fill-opacity="1" font-family="Cambria Math,Cambria Math_MSFontService,sans-serif" font-style="normal" font-variant="normal" font-weight="400" font-stretch="normal" font-size="69" text-anchor="start" direction="ltr" writing-mode="lr-tb" unicode-bidi="normal" text-decoration="none" transform="matrix(1 0 0 1 1811.16 1271)">𝒙</text><text fill="#1F2933" fill-opacity="1" font-family="Cambria Math,Cambria Math_MSFontService,sans-serif" font-style="normal" font-variant="normal" font-weight="400" font-stretch="normal" font-size="50" text-anchor="start" direction="ltr" writing-mode="lr-tb" unicode-bidi="normal" text-decoration="none" transform="matrix(1 0 0 1 1850.69 1285)">𝒑</text><text fill="#1F2933" fill-opacity="1" font-family="Aptos,Aptos_MSFontService,sans-serif" font-style="normal" font-variant="normal" font-weight="700" font-stretch="normal" font-size="69" text-anchor="start" direction="ltr" writing-mode="lr-tb" unicode-bidi="normal" text-decoration="none" transform="matrix(1 0 0 1 1884.49 1271)">)</text><path d="M2426.5 578.446C2426.5 560.25 2441.25 545.5 2459.45 545.5L3168.55 545.5C3186.75 545.5 3201.5 560.25 3201.5 578.446L3201.5 825.554C3201.5 843.749 3186.75 858.5 3168.55 858.5L2459.45 858.5C2441.25 858.5 2426.5 843.749 2426.5 825.554Z" stroke="#0E4E82" stroke-width="9.16667" stroke-linecap="butt" stroke-linejoin="round" stroke-miterlimit="10" stroke-opacity="1" fill="#FFFFFF" fill-rule="evenodd" fill-opacity="1"/><text fill="#1F2933" fill-opacity="1" font-family="Aptos,Aptos_MSFontService,sans-serif" font-style="normal" font-variant="normal" font-weight="400" font-stretch="normal" font-size="64" text-anchor="start" direction="ltr" writing-mode="lr-tb" unicode-bidi="normal" text-decoration="none" transform="matrix(1 0 0 1 2619.66 683)">Time histories</text><text fill="#1F2933" fill-opacity="1" font-family="Aptos,Aptos_MSFontService,sans-serif" font-style="normal" font-variant="normal" font-weight="400" font-stretch="normal" font-size="64" text-anchor="start" direction="ltr" writing-mode="lr-tb" unicode-bidi="normal" text-decoration="none" transform="matrix(1 0 0 1 2647.09 760)">x(t), u(t), y(t)</text><path d="M2426.5 1040.45C2426.5 1022.25 2441.25 1007.5 2459.45 1007.5L3168.55 1007.5C3186.75 1007.5 3201.5 1022.25 3201.5 1040.45L3201.5 1287.55C3201.5 1305.75 3186.75 1320.5 3168.55 1320.5L2459.45 1320.5C2441.25 1320.5 2426.5 1305.75 2426.5 1287.55Z" stroke="#D97706" stroke-width="9.16667" stroke-linecap="butt" stroke-linejoin="round" stroke-miterlimit="10" stroke-opacity="1" fill="#FFF5E6" fill-rule="evenodd" fill-opacity="1"/><text fill="#1F2933" fill-opacity="1" font-family="Aptos,Aptos_MSFontService,sans-serif" font-style="normal" font-variant="normal" font-weight="700" font-stretch="normal" font-size="69" text-anchor="start" direction="ltr" writing-mode="lr-tb" unicode-bidi="normal" text-decoration="none" transform="matrix(1 0 0 1 2663.49 1144)">Objective</text><text fill="#1F2933" fill-opacity="1" font-family="Aptos,Aptos_MSFontService,sans-serif" font-style="normal" font-variant="normal" font-weight="700" font-stretch="normal" font-size="69" text-anchor="start" direction="ltr" writing-mode="lr-tb" unicode-bidi="normal" text-decoration="none" transform="matrix(1 0 0 1 2631.64 1227)">J = Φ + ∫ L dt</text><path d="M2426.5 1465.45C2426.5 1447.25 2441.25 1432.5 2459.45 1432.5L3168.55 1432.5C3186.75 1432.5 3201.5 1447.25 3201.5 1465.45L3201.5 1712.55C3201.5 1730.75 3186.75 1745.5 3168.55 1745.5L2459.45 1745.5C2441.25 1745.5 2426.5 1730.75 2426.5 1712.55Z" stroke="#198754" stroke-width="9.16667" stroke-linecap="butt" stroke-linejoin="round" stroke-miterlimit="10" stroke-opacity="1" fill="#EEF9F2" fill-rule="evenodd" fill-opacity="1"/><text fill="#1F2933" fill-opacity="1" font-family="Aptos,Aptos_MSFontService,sans-serif" font-style="normal" font-variant="normal" font-weight="700" font-stretch="normal" font-size="64" text-anchor="start" direction="ltr" writing-mode="lr-tb" unicode-bidi="normal" text-decoration="none" transform="matrix(1 0 0 1 2539.56 1571)">Path and boundary</text><text fill="#1F2933" fill-opacity="1" font-family="Aptos,Aptos_MSFontService,sans-serif" font-style="normal" font-variant="normal" font-weight="700" font-stretch="normal" font-size="64" text-anchor="start" direction="ltr" writing-mode="lr-tb" unicode-bidi="normal" text-decoration="none" transform="matrix(1 0 0 1 2647.22 1648)">constraints</text><path d="M3482.5 898.472C3482.5 880.262 3497.26 865.5 3515.47 865.5L4191.53 865.5C4209.74 865.5 4224.5 880.262 4224.5 898.472L4224.5 1376.53C4224.5 1394.74 4209.74 1409.5 4191.53 1409.5L3515.47 1409.5C3497.26 1409.5 3482.5 1394.74 3482.5 1376.53Z" stroke="#0B3D66" stroke-width="9.16667" stroke-linecap="butt" stroke-linejoin="round" stroke-miterlimit="10" stroke-opacity="1" fill="#FFFFFF" fill-rule="evenodd" fill-opacity="1"/><text fill="#1F2933" fill-opacity="1" font-family="Aptos,Aptos_MSFontService,sans-serif" font-style="normal" font-variant="normal" font-weight="700" font-stretch="normal" font-size="69" text-anchor="start" direction="ltr" writing-mode="lr-tb" unicode-bidi="normal" text-decoration="none" transform="matrix(1 0 0 1 3650.61 1076)">Optimization</text><text fill="#1F2933" fill-opacity="1" font-family="Aptos,Aptos_MSFontService,sans-serif" font-style="normal" font-variant="normal" font-weight="700" font-stretch="normal" font-size="69" text-anchor="start" direction="ltr" writing-mode="lr-tb" unicode-bidi="normal" text-decoration="none" transform="matrix(1 0 0 1 3702.22 1159)">algorithm</text><text fill="#1F2933" fill-opacity="1" font-family="Aptos,Aptos_MSFontService,sans-serif" font-style="normal" font-variant="normal" font-weight="700" font-stretch="normal" font-size="69" text-anchor="start" direction="ltr" writing-mode="lr-tb" unicode-bidi="normal" text-decoration="none" transform="matrix(1 0 0 1 3566.39 1241)">updates decisions</text><text fill="#5B6470" fill-opacity="1" font-family="Aptos,Aptos_MSFontService,sans-serif" font-style="normal" font-variant="normal" font-weight="700" font-stretch="normal" font-size="50" text-anchor="start" direction="ltr" writing-mode="lr-tb" unicode-bidi="normal" text-decoration="none" transform="matrix(1 0 0 1 409.578 523)">decision inputs</text><text fill="#5B6470" fill-opacity="1" font-family="Aptos,Aptos_MSFontService,sans-serif" font-style="normal" font-variant="normal" font-weight="700" font-stretch="normal" font-size="50" text-anchor="start" direction="ltr" writing-mode="lr-tb" unicode-bidi="normal" text-decoration="none" transform="matrix(1 0 0 1 2394.05 503)">simulation outputs and requirements</text><path d="M0-5.15625 491.907-5.15625 491.907 3272.16 430.031 3272.16 430.031 3261.84 486.751 3261.84 481.594 3267 481.594 0 486.751 5.15625 0 5.15625ZM435.188 3282.47 404.25 3267 435.188 3251.53Z" fill="#ED7D31" fill-rule="nonzero" fill-opacity="1" transform="matrix(-1.83697e-16 -1 -1 1.83697e-16 3853 864.25)"/><text fill="#D97706" fill-opacity="1" font-family="Aptos,Aptos_MSFontService,sans-serif" font-style="normal" font-variant="normal" font-weight="400" font-stretch="normal" font-size="55" text-anchor="start" direction="ltr" writing-mode="lr-tb" unicode-bidi="normal" text-decoration="none" transform="matrix(1 0 0 1 973.975 358)">repeat until converged and feasible</text></g></g></svg>