<?xml version="1.0" encoding="UTF-8"?>
<svg id="Layer_1" xmlns="http://www.w3.org/2000/svg" xmlns:xlink="http://www.w3.org/1999/xlink" version="1.1" viewBox="0 0 4175 1825">
  <!-- Generator: Adobe Illustrator 29.3.1, SVG Export Plug-In . SVG Version: 2.1.0 Build 151)  -->
  <defs>
    <style>
      .st0 {
        fill: #5a6573;
      }

      .st1, .st2, .st3, .st4, .st5, .st6, .st7 {
        fill-rule: evenodd;
        stroke-linejoin: round;
        stroke-width: 9.2px;
      }

      .st1, .st2, .st7 {
        fill: #fff;
      }

      .st1, .st3 {
        stroke: #123e66;
      }

      .st8, .st9, .st10, .st11, .st12, .st13, .st14 {
        isolation: isolate;
      }

      .st8, .st9, .st13 {
        font-family: Helvetica-Bold, Helvetica;
        font-weight: 700;
      }

      .st8, .st11 {
        font-size: 101px;
      }

      .st8, .st11, .st13 {
        fill: #1f2933;
      }

      .st9 {
        fill: #123e66;
        font-size: 119px;
      }

      .st2, .st4 {
        stroke: #d97706;
      }

      .st11, .st12, .st14 {
        font-family: Aptos, Aptos;
      }

      .st15 {
        fill: #ed7d31;
      }

      .st3 {
        fill: #eaf3fa;
      }

      .st4 {
        fill: #fff7e8;
      }

      .st5 {
        fill: #f5f6f8;
      }

      .st5, .st7 {
        stroke: #5b6675;
      }

      .st12 {
        fill: #d97706;
        font-size: 69px;
      }

      .st13 {
        font-size: 105px;
      }

      .st14 {
        fill: #5b6675;
        font-size: 96px;
      }

      .st6 {
        fill: #eaf7ef;
        stroke: #2e8b57;
      }
    </style>
  </defs>
  <path class="st0" d="M876.8,971h130.5v11h-130.5v-11ZM1001.8,960l33,16.5-33,16.5v-33h0Z"/>
  <path class="st0" d="M1775.1,979.9l257.2-333.2-8.7-6.7-257.2,333.2,8.7,6.7h0ZM2037.7,657.7l7.1-36.2-33.2,16,26.1,20.2Z"/>
  <path class="st0" d="M1771.9,972.9l265.1,309.1-8.4,7.2-265.1-309.1,8.4-7.2h0ZM2041.8,1270.7l9,35.8-34-14.3,25.1-21.5h0Z"/>
  <path class="st0" d="M2992.9,695.8l228.7,256.5-8.2,7.3-228.7-256.5,8.2-7.3ZM3226.1,940.9l9.6,35.6-34.3-13.7,24.6-22h0Z"/>
  <path class="st0" d="M2993.1,1289.9l229.9-288.5-8.6-6.9-229.9,288.5,8.6,6.9ZM3228.1,1012.6l7.7-36.1-33.5,15.5,25.8,20.6Z"/>
  <path class="st7" d="M520.8,48.6c0-18.3,14.8-33.1,33.1-33.1h3117.9c18.2,0,33.1,14.8,33.1,33.1v247.9c0,18.3-14.8,33.1-33.1,33.1H553.8c-18.3,0-33.1-14.8-33.1-33.1V48.6h0Z"/>
  <g class="st10">
    <text class="st14" transform="translate(793.6 146)"><tspan x="0" y="0">Engineering design optimization replaces manual trial</tspan></text>
  </g>
  <g class="st10">
    <text class="st14" transform="translate(3040.9 146)"><tspan x="0" y="0">and</tspan></text>
  </g>
  <g class="st10">
    <text class="st14" transform="translate(3231.6 146)"><tspan x="0" y="0">error</tspan></text>
  </g>
  <g class="st10">
    <text class="st14" transform="translate(1056.3 261)"><tspan x="0" y="0">with systematic search for the best feasible design.</tspan></text>
  </g>
  <path class="st3" d="M28.8,755.5c0-18.2,14.8-33,33-33h774.9c18.2,0,33,14.8,33,33v402.9c0,18.2-14.8,33-33,33H61.8c-18.2,0-33-14.8-33-33v-402.9Z"/>
  <g class="st10">
    <text class="st13" transform="translate(28.8 927)"><tspan x="0" y="0">Design variables</tspan></text>
  </g>
  <g class="st10">
    <text class="st13" transform="translate(422.4 1054)"><tspan x="0" y="0">x</tspan></text>
  </g>
  <path class="st5" d="M1054.8,755.5c0-18.2,14.8-33,33-33h642.9c18.2,0,33,14.8,33,33v402.9c0,18.2-14.8,33-33,33h-642.9c-18.2,0-33-14.8-33-33v-402.9Z"/>
  <g class="st10">
    <text class="st11" transform="translate(1078 928)"><tspan x="0" y="0">Analysis model</tspan></text>
  </g>
  <g class="st10">
    <text class="st11" transform="translate(1217.7 1049)"><tspan x="0" y="0">r(x, y) = 0</tspan></text>
  </g>
  <path class="st4" d="M2074.8,442.4c0-18.2,14.7-32.9,32.9-32.9h825.1c18.2,0,32.9,14.7,32.9,32.9v339.1c0,18.2-14.7,32.9-32.9,32.9h-825.1c-18.2,0-32.9-14.7-32.9-32.9v-339.1h0Z"/>
  <g class="st10">
    <text class="st13" transform="translate(2289.7 582)"><tspan x="0" y="0">Objective</tspan></text>
  </g>
  <g class="st10">
    <text class="st13" transform="translate(2392.1 709)"><tspan x="0" y="0">f(x, y)</tspan></text>
  </g>
  <path class="st6" d="M2074.8,1177.5c0-18.2,14.8-33,33-33h825c18.2,0,33,14.8,33,33v340c0,18.2-14.8,33-33,33h-825c-18.2,0-33-14.8-33-33v-340Z"/>
  <g class="st10">
    <text class="st8" transform="translate(2250.3 1319)"><tspan x="0" y="0">Constraints</tspan></text>
  </g>
  <g class="st10">
    <text class="st8" transform="translate(2279.5 1440)"><tspan x="0" y="0" xml:space="preserve">g ≤ 0,  h = 0</tspan></text>
  </g>
  <path class="st1" d="M3245.8,755.5c0-18.2,14.8-33,33-33h841.9c18.2,0,33,14.8,33,33v402.9c0,18.2-14.8,33-33,33h-841.9c-18.2,0-33-14.8-33-33v-402.9h0Z"/>
  <g class="st10">
    <text class="st9" transform="translate(3348.2 923)"><tspan x="0" y="0">Optimization</tspan></text>
  </g>
  <g class="st10">
    <text class="st9" transform="translate(3437.9 1066)"><tspan x="0" y="0">algorithm</tspan></text>
  </g>
  <path class="st2" d="M1763.8,1699.4c0-18.2,14.7-32.9,32.9-32.9h882.2c18.2,0,32.9,14.7,32.9,32.9v92.2c0,18.2-14.7,32.9-32.9,32.9h-882.2c-18.2,0-32.9-14.7-32.9-32.9v-92.2h0Z"/>
  <g class="st10">
    <text class="st12" transform="translate(1862.4 1767)"><tspan x="0" y="0">update design and repeat</tspan></text>
  </g>
  <path class="st15" d="M3706.9,1188v458H446.1v-427.6h10.3v422.5l-5.2-5.1h3250.5l-5.2,5.1v-452.8h10.4ZM435.8,1223.5l15.5-30.9,15.5,30.9h-31Z"/>
</svg>