<?xml version="1.0" encoding="UTF-8"?>
<svg id="Layer_1" xmlns="http://www.w3.org/2000/svg" xmlns:xlink="http://www.w3.org/1999/xlink" version="1.1" viewBox="0 0 4056 1677">
  <!-- Generator: Adobe Illustrator 29.3.1, SVG Export Plug-In . SVG Version: 2.1.0 Build 151)  -->
  <defs>
    <style>
      .st0 {
        font-size: 73px;
      }

      .st0, .st1, .st2, .st3, .st4, .st5, .st6, .st7, .st8 {
        isolation: isolate;
      }

      .st0, .st2, .st4, .st5, .st8 {
        font-family: Helvetica-Bold, Helvetica;
        font-weight: 700;
      }

      .st0, .st4, .st6, .st7, .st8 {
        fill: #1f2933;
      }

      .st1 {
        fill: #d97706;
        font-size: 55px;
      }

      .st1, .st6, .st7 {
        font-family: Aptos, Aptos;
      }

      .st2 {
        font-size: 50px;
      }

      .st2, .st9 {
        fill: #5b6470;
      }

      .st10 {
        stroke: #0e4e82;
      }

      .st10, .st11, .st12, .st13, .st14, .st15, .st16 {
        fill-rule: evenodd;
        stroke-linejoin: round;
      }

      .st10, .st11, .st13, .st14, .st15, .st16 {
        stroke-width: 9.2px;
      }

      .st10, .st12, .st14 {
        fill: #fff;
      }

      .st17 {
        fill: #ed7d31;
      }

      .st11 {
        fill: #eaf4ff;
      }

      .st11, .st12, .st14 {
        stroke: #0b3d66;
      }

      .st4, .st7 {
        font-size: 69px;
      }

      .st12 {
        fill-opacity: 0;
        stroke-width: 6.9px;
      }

      .st13 {
        fill: #eef9f2;
        stroke: #198754;
      }

      .st5 {
        fill: #0b3d66;
        font-size: 110px;
      }

      .st6, .st8 {
        font-size: 64px;
      }

      .st15 {
        fill: #fff5e6;
        stroke: #d97706;
      }

      .st16 {
        fill: #f3f4f6;
        stroke: #5b6470;
      }
    </style>
  </defs>
  <path class="st12" d="M536.5,40.7c0-16.7,13.5-30.2,30.2-30.2h2909.7c16.7,0,30.2,13.5,30.2,30.2v120.7c0,16.7-13.5,30.2-30.2,30.2H566.7c-16.7,0-30.2-13.5-30.2-30.2V40.7Z"/>
  <g class="st3">
    <text class="st5" transform="translate(767.7 136)"><tspan x="0" y="0">Simultaneous control co design information flow</tspan></text>
  </g>
  <path class="st9" d="M820.6,654.4l204.7,408.5-8.2,4.1-204.7-408.5,8.2-4.1h0ZM1031.5,1054.8v30.8l-24.6-18.4,24.6-12.3h0Z"/>
  <path class="st9" d="M816.5,1080.9h192.1v9.2h-192.1v-9.2ZM1004,1071.8l27.5,13.8-27.5,13.8v-27.5h0Z"/>
  <path class="st9" d="M820.6,1516.6l204.7-408.5-8.2-4.1-204.7,408.5,8.2,4.1h0ZM1031.5,1116.2v-30.7l-24.6,18.4,24.6,12.3h0Z"/>
  <path class="st9" d="M2041.7,1104.4l204.7-462-8.4-3.7-204.7,462,8.4,3.7h0ZM2252.9,650.2l-1.4-30.7-23.7,19.6,25.1,11.1h0Z"/>
  <path class="st9" d="M2037.5,1087.9h192.1v9.2h-192.1v-9.2h0ZM2225,1078.8l27.5,13.8-27.5,13.8v-27.5h0Z"/>
  <path class="st9" d="M2041.6,1088.5l203.8,410.5-8.2,4.1-203.8-410.5,8.2-4.1h0ZM2251.6,1490.8v30.8l-24.6-18.5,24.6-12.2h0Z"/>
  <path class="st9" d="M3027.5,1085.9h258.1v9.2h-258.1v-9.2ZM3281,1076.8l27.5,13.8-27.5,13.8v-27.5h0Z"/>
  <path class="st9" d="M3031.3,1519.1l267.2-395-7.6-5.1-267.2,395,7.6,5.1ZM3303.5,1133l4-30.5-26.8,15.1,22.8,15.4Z"/>
  <path class="st11" d="M8.5,538.4c0-18.2,14.7-32.9,32.9-32.9h742.1c18.2,0,32.9,14.7,32.9,32.9v237.1c0,18.2-14.7,32.9-32.9,32.9H41.4c-18.2,0-32.9-14.7-32.9-32.9v-237.1Z"/>
  <g class="st3">
    <text class="st0" transform="translate(206.1 636)"><tspan x="0" y="0">Plant design</tspan></text>
  </g>
  <g class="st3">
    <text class="st0" transform="translate(381.1 724)"><tspan x="0" y="0">x</tspan></text>
  </g>
  <path class="st15" d="M8.5,967.4c0-18.2,14.7-32.9,32.9-32.9h742.1c18.2,0,32.9,14.8,32.9,32.9v237.1c0,18.2-14.7,32.9-32.9,32.9H41.4c-18.2,0-32.9-14.8-32.9-32.9v-237.1Z"/>
  <g class="st3">
    <text class="st4" transform="translate(183 1066)"><tspan x="0" y="0">Control design</tspan></text>
  </g>
  <g class="st3">
    <text class="st4" transform="translate(360.8 1149)"><tspan x="0" y="0">or u(t)</tspan></text>
  </g>
  <path class="st13" d="M8.5,1396.4c0-18.2,14.7-32.9,32.9-32.9h742.1c18.2,0,32.9,14.8,32.9,32.9v237.1c0,18.2-14.7,32.9-32.9,32.9H41.4c-18.2,0-32.9-14.8-32.9-32.9v-237.1Z"/>
  <g class="st3">
    <text class="st7" transform="translate(212.6 1495)"><tspan x="0" y="0">Disturbances</tspan></text>
  </g>
  <g class="st3">
    <text class="st7" transform="translate(361.3 1578)"><tspan x="0" y="0">d(t)</tspan></text>
  </g>
  <path class="st16" d="M1031.5,860.5c0-18.2,14.8-33,33-33h940c18.2,0,33,14.8,33,33v462c0,18.2-14.8,33-33,33h-940c-18.2,0-33-14.8-33-33v-462Z"/>
  <g class="st3">
    <text class="st4" transform="translate(1288.3 1023)"><tspan x="0" y="0">Dynamic model</tspan></text>
  </g>
  <g class="st3">
    <text class="st4" transform="translate(1309.2 1108)"><tspan x="0" y="0">ẋ</tspan></text>
  </g>
  <g class="st3">
    <text class="st4" transform="translate(1354.4 1108)"><tspan x="0" y="0">= f(x, u</tspan></text>
  </g>
  <g class="st3">
    <text class="st4" transform="translate(1594.5 1108)"><tspan x="0" y="0">,</tspan></text>
  </g>
  <g class="st3">
    <text class="st4" transform="translate(1626.2 1111.1)"><tspan x="0" y="0">d)</tspan></text>
  </g>
  <g class="st3">
    <text class="st4" transform="translate(1336.9 1198)"><tspan x="0" y="0">y = h(x, u</tspan></text>
  </g>
  <g class="st3">
    <text class="st4" transform="translate(1650.2 1200.6)"><tspan x="0" y="0">)</tspan></text>
  </g>
  <path class="st10" d="M2252.5,505.4c0-18.2,14.8-32.9,32.9-32.9h709.1c18.2,0,32.9,14.8,32.9,32.9v247.1c0,18.2-14.8,32.9-32.9,32.9h-709.1c-18.2,0-32.9-14.8-32.9-32.9v-247.1Z"/>
  <g class="st3">
    <text class="st6" transform="translate(2445.7 610)"><tspan x="0" y="0">Time histories</tspan></text>
  </g>
  <g class="st3">
    <text class="st6" transform="translate(2473.1 687)"><tspan x="0" y="0">x(t), u(t), y(t)</tspan></text>
  </g>
  <path class="st15" d="M2252.5,967.4c0-18.2,14.8-32.9,32.9-32.9h709.1c18.2,0,32.9,14.8,32.9,32.9v247.1c0,18.2-14.8,32.9-32.9,32.9h-709.1c-18.2,0-32.9-14.8-32.9-32.9v-247.1Z"/>
  <g class="st3">
    <text class="st4" transform="translate(2489.5 1071)"><tspan x="0" y="0">Objective</tspan></text>
  </g>
  <g class="st3">
    <text class="st4" transform="translate(2457.6 1154)"><tspan x="0" y="0">J = Φ + ∫ L dt</tspan></text>
  </g>
  <path class="st13" d="M2252.5,1392.4c0-18.2,14.8-32.9,32.9-32.9h709.1c18.2,0,32.9,14.8,32.9,32.9v247.1c0,18.2-14.8,32.9-32.9,32.9h-709.1c-18.2,0-32.9-14.8-32.9-32.9v-247.1Z"/>
  <g class="st3">
    <text class="st8" transform="translate(2365.6 1498)"><tspan x="0" y="0">Path and boundary</tspan></text>
  </g>
  <g class="st3">
    <text class="st8" transform="translate(2473.2 1575)"><tspan x="0" y="0">constraints</tspan></text>
  </g>
  <path class="st14" d="M3308.5,825.5c0-18.2,14.8-33,33-33h676.1c18.2,0,33,14.8,33,33v478.1c0,18.2-14.8,33-33,33h-676.1c-18.2,0-33-14.8-33-33v-478.1Z"/>
  <g class="st3">
    <text class="st4" transform="translate(3476.6 1003)"><tspan x="0" y="0">Optimization</tspan></text>
  </g>
  <g class="st3">
    <text class="st4" transform="translate(3528.2 1086)"><tspan x="0" y="0">algorithm</tspan></text>
  </g>
  <g class="st3">
    <text class="st4" transform="translate(3392.4 1168)"><tspan x="0" y="0">updates decisions</tspan></text>
  </g>
  <g class="st3">
    <text class="st2" transform="translate(235.6 450)"><tspan x="0" y="0">decision inputs</tspan></text>
  </g>
  <g class="st3">
    <text class="st2" transform="translate(2220.1 430)"><tspan x="0" y="0">simulation outputs and requirements</tspan></text>
  </g>
  <path class="st17" d="M3684.2,791.2v-491.9H406.8v61.9h10.3v-56.7l-5.2,5.2h3267l-5.2-5.2v486.8h10.5ZM396.5,356.1l15.5,30.9,15.5-30.9h-31Z"/>
  <g class="st3">
    <text class="st1" transform="translate(800 285)"><tspan x="0" y="0">repeat until converged and feasible</tspan></text>
  </g>
</svg>