<?xml version="1.0" encoding="utf-8" standalone="no"?>
<!DOCTYPE svg PUBLIC "-//W3C//DTD SVG 1.1//EN"
  "http://www.w3.org/Graphics/SVG/1.1/DTD/svg11.dtd">
<svg xmlns:xlink="http://www.w3.org/1999/xlink" width="554.8225pt" height="308.616406pt" viewBox="0 0 554.8225 308.616406" xmlns="http://www.w3.org/2000/svg" version="1.1">
 <metadata>
  <rdf:RDF xmlns:dc="http://purl.org/dc/elements/1.1/" xmlns:cc="http://creativecommons.org/ns#" xmlns:rdf="http://www.w3.org/1999/02/22-rdf-syntax-ns#">
   <cc:Work>
    <dc:type rdf:resource="http://purl.org/dc/dcmitype/StillImage"/>
    <dc:date>2026-07-17T16:08:36.546185</dc:date>
    <dc:format>image/svg+xml</dc:format>
    <dc:creator>
     <cc:Agent>
      <dc:title>Matplotlib v3.10.8, https://matplotlib.org/</dc:title>
     </cc:Agent>
    </dc:creator>
   </cc:Work>
  </rdf:RDF>
 </metadata>
 <defs>
  <style type="text/css">*{stroke-linejoin: round; stroke-linecap: butt}</style>
 </defs>
 <g id="figure_1">
  <g id="patch_1">
   <path d="M 0 308.616406 
L 554.8225 308.616406 
L 554.8225 0 
L 0 0 
z
" style="fill: #ffffff"/>
  </g>
  <g id="axes_1">
   <g id="patch_2">
    <path d="M 34.2625 271.038281 
L 547.6225 271.038281 
L 547.6225 21.558281 
L 34.2625 21.558281 
z
" style="fill: #ffffff"/>
   </g>
   <g id="matplotlib.axis_1">
    <g id="xtick_1">
     <g id="line2d_1">
      <path d="M 70.210313 271.038281 
L 70.210313 21.558281 
" clip-path="url(#p881c299b9f)" style="fill: none; stroke: #b0b0b0; stroke-opacity: 0.2; stroke-width: 0.8; stroke-linecap: square"/>
     </g>
     <g id="line2d_2">
      <defs>
       <path id="m4dc1287491" d="M 0 0 
L 0 3.5 
" style="stroke: #000000; stroke-width: 0.8"/>
      </defs>
      <g>
       <use xlink:href="#m4dc1287491" x="70.210313" y="271.038281" style="stroke: #000000; stroke-width: 0.8"/>
      </g>
     </g>
     <g id="text_1">
      <!-- −3 -->
      <g transform="translate(62.83922 285.636719) scale(0.1 -0.1)">
       <defs>
        <path id="DejaVuSans-2212" d="M 678 2272 
L 4684 2272 
L 4684 1741 
L 678 1741 
L 678 2272 
z
" transform="scale(0.015625)"/>
        <path id="DejaVuSans-33" d="M 2597 2516 
Q 3050 2419 3304 2112 
Q 3559 1806 3559 1356 
Q 3559 666 3084 287 
Q 2609 -91 1734 -91 
Q 1441 -91 1130 -33 
Q 819 25 488 141 
L 488 750 
Q 750 597 1062 519 
Q 1375 441 1716 441 
Q 2309 441 2620 675 
Q 2931 909 2931 1356 
Q 2931 1769 2642 2001 
Q 2353 2234 1838 2234 
L 1294 2234 
L 1294 2753 
L 1863 2753 
Q 2328 2753 2575 2939 
Q 2822 3125 2822 3475 
Q 2822 3834 2567 4026 
Q 2313 4219 1838 4219 
Q 1578 4219 1281 4162 
Q 984 4106 628 3988 
L 628 4550 
Q 988 4650 1302 4700 
Q 1616 4750 1894 4750 
Q 2613 4750 3031 4423 
Q 3450 4097 3450 3541 
Q 3450 3153 3228 2886 
Q 3006 2619 2597 2516 
z
" transform="scale(0.015625)"/>
       </defs>
       <use xlink:href="#DejaVuSans-2212"/>
       <use xlink:href="#DejaVuSans-33" transform="translate(83.789062 0)"/>
      </g>
     </g>
    </g>
    <g id="xtick_2">
     <g id="line2d_3">
      <path d="M 133.276652 271.038281 
L 133.276652 21.558281 
" clip-path="url(#p881c299b9f)" style="fill: none; stroke: #b0b0b0; stroke-opacity: 0.2; stroke-width: 0.8; stroke-linecap: square"/>
     </g>
     <g id="line2d_4">
      <g>
       <use xlink:href="#m4dc1287491" x="133.276652" y="271.038281" style="stroke: #000000; stroke-width: 0.8"/>
      </g>
     </g>
     <g id="text_2">
      <!-- −2 -->
      <g transform="translate(125.905559 285.636719) scale(0.1 -0.1)">
       <defs>
        <path id="DejaVuSans-32" d="M 1228 531 
L 3431 531 
L 3431 0 
L 469 0 
L 469 531 
Q 828 903 1448 1529 
Q 2069 2156 2228 2338 
Q 2531 2678 2651 2914 
Q 2772 3150 2772 3378 
Q 2772 3750 2511 3984 
Q 2250 4219 1831 4219 
Q 1534 4219 1204 4116 
Q 875 4013 500 3803 
L 500 4441 
Q 881 4594 1212 4672 
Q 1544 4750 1819 4750 
Q 2544 4750 2975 4387 
Q 3406 4025 3406 3419 
Q 3406 3131 3298 2873 
Q 3191 2616 2906 2266 
Q 2828 2175 2409 1742 
Q 1991 1309 1228 531 
z
" transform="scale(0.015625)"/>
       </defs>
       <use xlink:href="#DejaVuSans-2212"/>
       <use xlink:href="#DejaVuSans-32" transform="translate(83.789062 0)"/>
      </g>
     </g>
    </g>
    <g id="xtick_3">
     <g id="line2d_5">
      <path d="M 196.342991 271.038281 
L 196.342991 21.558281 
" clip-path="url(#p881c299b9f)" style="fill: none; stroke: #b0b0b0; stroke-opacity: 0.2; stroke-width: 0.8; stroke-linecap: square"/>
     </g>
     <g id="line2d_6">
      <g>
       <use xlink:href="#m4dc1287491" x="196.342991" y="271.038281" style="stroke: #000000; stroke-width: 0.8"/>
      </g>
     </g>
     <g id="text_3">
      <!-- −1 -->
      <g transform="translate(188.971898 285.636719) scale(0.1 -0.1)">
       <defs>
        <path id="DejaVuSans-31" d="M 794 531 
L 1825 531 
L 1825 4091 
L 703 3866 
L 703 4441 
L 1819 4666 
L 2450 4666 
L 2450 531 
L 3481 531 
L 3481 0 
L 794 0 
L 794 531 
z
" transform="scale(0.015625)"/>
       </defs>
       <use xlink:href="#DejaVuSans-2212"/>
       <use xlink:href="#DejaVuSans-31" transform="translate(83.789062 0)"/>
      </g>
     </g>
    </g>
    <g id="xtick_4">
     <g id="line2d_7">
      <path d="M 259.40933 271.038281 
L 259.40933 21.558281 
" clip-path="url(#p881c299b9f)" style="fill: none; stroke: #b0b0b0; stroke-opacity: 0.2; stroke-width: 0.8; stroke-linecap: square"/>
     </g>
     <g id="line2d_8">
      <g>
       <use xlink:href="#m4dc1287491" x="259.40933" y="271.038281" style="stroke: #000000; stroke-width: 0.8"/>
      </g>
     </g>
     <g id="text_4">
      <!-- 0 -->
      <g transform="translate(256.22808 285.636719) scale(0.1 -0.1)">
       <defs>
        <path id="DejaVuSans-30" d="M 2034 4250 
Q 1547 4250 1301 3770 
Q 1056 3291 1056 2328 
Q 1056 1369 1301 889 
Q 1547 409 2034 409 
Q 2525 409 2770 889 
Q 3016 1369 3016 2328 
Q 3016 3291 2770 3770 
Q 2525 4250 2034 4250 
z
M 2034 4750 
Q 2819 4750 3233 4129 
Q 3647 3509 3647 2328 
Q 3647 1150 3233 529 
Q 2819 -91 2034 -91 
Q 1250 -91 836 529 
Q 422 1150 422 2328 
Q 422 3509 836 4129 
Q 1250 4750 2034 4750 
z
" transform="scale(0.015625)"/>
       </defs>
       <use xlink:href="#DejaVuSans-30"/>
      </g>
     </g>
    </g>
    <g id="xtick_5">
     <g id="line2d_9">
      <path d="M 322.47567 271.038281 
L 322.47567 21.558281 
" clip-path="url(#p881c299b9f)" style="fill: none; stroke: #b0b0b0; stroke-opacity: 0.2; stroke-width: 0.8; stroke-linecap: square"/>
     </g>
     <g id="line2d_10">
      <g>
       <use xlink:href="#m4dc1287491" x="322.47567" y="271.038281" style="stroke: #000000; stroke-width: 0.8"/>
      </g>
     </g>
     <g id="text_5">
      <!-- 1 -->
      <g transform="translate(319.29442 285.636719) scale(0.1 -0.1)">
       <use xlink:href="#DejaVuSans-31"/>
      </g>
     </g>
    </g>
    <g id="xtick_6">
     <g id="line2d_11">
      <path d="M 385.542009 271.038281 
L 385.542009 21.558281 
" clip-path="url(#p881c299b9f)" style="fill: none; stroke: #b0b0b0; stroke-opacity: 0.2; stroke-width: 0.8; stroke-linecap: square"/>
     </g>
     <g id="line2d_12">
      <g>
       <use xlink:href="#m4dc1287491" x="385.542009" y="271.038281" style="stroke: #000000; stroke-width: 0.8"/>
      </g>
     </g>
     <g id="text_6">
      <!-- 2 -->
      <g transform="translate(382.360759 285.636719) scale(0.1 -0.1)">
       <use xlink:href="#DejaVuSans-32"/>
      </g>
     </g>
    </g>
    <g id="xtick_7">
     <g id="line2d_13">
      <path d="M 448.608348 271.038281 
L 448.608348 21.558281 
" clip-path="url(#p881c299b9f)" style="fill: none; stroke: #b0b0b0; stroke-opacity: 0.2; stroke-width: 0.8; stroke-linecap: square"/>
     </g>
     <g id="line2d_14">
      <g>
       <use xlink:href="#m4dc1287491" x="448.608348" y="271.038281" style="stroke: #000000; stroke-width: 0.8"/>
      </g>
     </g>
     <g id="text_7">
      <!-- 3 -->
      <g transform="translate(445.427098 285.636719) scale(0.1 -0.1)">
       <use xlink:href="#DejaVuSans-33"/>
      </g>
     </g>
    </g>
    <g id="xtick_8">
     <g id="line2d_15">
      <path d="M 511.674687 271.038281 
L 511.674687 21.558281 
" clip-path="url(#p881c299b9f)" style="fill: none; stroke: #b0b0b0; stroke-opacity: 0.2; stroke-width: 0.8; stroke-linecap: square"/>
     </g>
     <g id="line2d_16">
      <g>
       <use xlink:href="#m4dc1287491" x="511.674687" y="271.038281" style="stroke: #000000; stroke-width: 0.8"/>
      </g>
     </g>
     <g id="text_8">
      <!-- 4 -->
      <g transform="translate(508.493437 285.636719) scale(0.1 -0.1)">
       <defs>
        <path id="DejaVuSans-34" d="M 2419 4116 
L 825 1625 
L 2419 1625 
L 2419 4116 
z
M 2253 4666 
L 3047 4666 
L 3047 1625 
L 3713 1625 
L 3713 1100 
L 3047 1100 
L 3047 0 
L 2419 0 
L 2419 1100 
L 313 1100 
L 313 1709 
L 2253 4666 
z
" transform="scale(0.015625)"/>
       </defs>
       <use xlink:href="#DejaVuSans-34"/>
      </g>
     </g>
    </g>
    <g id="text_9">
     <!-- Design variable $x$ -->
     <g transform="translate(247.3425 299.316406) scale(0.1 -0.1)">
      <defs>
       <path id="DejaVuSans-44" d="M 1259 4147 
L 1259 519 
L 2022 519 
Q 2988 519 3436 956 
Q 3884 1394 3884 2338 
Q 3884 3275 3436 3711 
Q 2988 4147 2022 4147 
L 1259 4147 
z
M 628 4666 
L 1925 4666 
Q 3281 4666 3915 4102 
Q 4550 3538 4550 2338 
Q 4550 1131 3912 565 
Q 3275 0 1925 0 
L 628 0 
L 628 4666 
z
" transform="scale(0.015625)"/>
       <path id="DejaVuSans-65" d="M 3597 1894 
L 3597 1613 
L 953 1613 
Q 991 1019 1311 708 
Q 1631 397 2203 397 
Q 2534 397 2845 478 
Q 3156 559 3463 722 
L 3463 178 
Q 3153 47 2828 -22 
Q 2503 -91 2169 -91 
Q 1331 -91 842 396 
Q 353 884 353 1716 
Q 353 2575 817 3079 
Q 1281 3584 2069 3584 
Q 2775 3584 3186 3129 
Q 3597 2675 3597 1894 
z
M 3022 2063 
Q 3016 2534 2758 2815 
Q 2500 3097 2075 3097 
Q 1594 3097 1305 2825 
Q 1016 2553 972 2059 
L 3022 2063 
z
" transform="scale(0.015625)"/>
       <path id="DejaVuSans-73" d="M 2834 3397 
L 2834 2853 
Q 2591 2978 2328 3040 
Q 2066 3103 1784 3103 
Q 1356 3103 1142 2972 
Q 928 2841 928 2578 
Q 928 2378 1081 2264 
Q 1234 2150 1697 2047 
L 1894 2003 
Q 2506 1872 2764 1633 
Q 3022 1394 3022 966 
Q 3022 478 2636 193 
Q 2250 -91 1575 -91 
Q 1294 -91 989 -36 
Q 684 19 347 128 
L 347 722 
Q 666 556 975 473 
Q 1284 391 1588 391 
Q 1994 391 2212 530 
Q 2431 669 2431 922 
Q 2431 1156 2273 1281 
Q 2116 1406 1581 1522 
L 1381 1569 
Q 847 1681 609 1914 
Q 372 2147 372 2553 
Q 372 3047 722 3315 
Q 1072 3584 1716 3584 
Q 2034 3584 2315 3537 
Q 2597 3491 2834 3397 
z
" transform="scale(0.015625)"/>
       <path id="DejaVuSans-69" d="M 603 3500 
L 1178 3500 
L 1178 0 
L 603 0 
L 603 3500 
z
M 603 4863 
L 1178 4863 
L 1178 4134 
L 603 4134 
L 603 4863 
z
" transform="scale(0.015625)"/>
       <path id="DejaVuSans-67" d="M 2906 1791 
Q 2906 2416 2648 2759 
Q 2391 3103 1925 3103 
Q 1463 3103 1205 2759 
Q 947 2416 947 1791 
Q 947 1169 1205 825 
Q 1463 481 1925 481 
Q 2391 481 2648 825 
Q 2906 1169 2906 1791 
z
M 3481 434 
Q 3481 -459 3084 -895 
Q 2688 -1331 1869 -1331 
Q 1566 -1331 1297 -1286 
Q 1028 -1241 775 -1147 
L 775 -588 
Q 1028 -725 1275 -790 
Q 1522 -856 1778 -856 
Q 2344 -856 2625 -561 
Q 2906 -266 2906 331 
L 2906 616 
Q 2728 306 2450 153 
Q 2172 0 1784 0 
Q 1141 0 747 490 
Q 353 981 353 1791 
Q 353 2603 747 3093 
Q 1141 3584 1784 3584 
Q 2172 3584 2450 3431 
Q 2728 3278 2906 2969 
L 2906 3500 
L 3481 3500 
L 3481 434 
z
" transform="scale(0.015625)"/>
       <path id="DejaVuSans-6e" d="M 3513 2113 
L 3513 0 
L 2938 0 
L 2938 2094 
Q 2938 2591 2744 2837 
Q 2550 3084 2163 3084 
Q 1697 3084 1428 2787 
Q 1159 2491 1159 1978 
L 1159 0 
L 581 0 
L 581 3500 
L 1159 3500 
L 1159 2956 
Q 1366 3272 1645 3428 
Q 1925 3584 2291 3584 
Q 2894 3584 3203 3211 
Q 3513 2838 3513 2113 
z
" transform="scale(0.015625)"/>
       <path id="DejaVuSans-20" transform="scale(0.015625)"/>
       <path id="DejaVuSans-76" d="M 191 3500 
L 800 3500 
L 1894 563 
L 2988 3500 
L 3597 3500 
L 2284 0 
L 1503 0 
L 191 3500 
z
" transform="scale(0.015625)"/>
       <path id="DejaVuSans-61" d="M 2194 1759 
Q 1497 1759 1228 1600 
Q 959 1441 959 1056 
Q 959 750 1161 570 
Q 1363 391 1709 391 
Q 2188 391 2477 730 
Q 2766 1069 2766 1631 
L 2766 1759 
L 2194 1759 
z
M 3341 1997 
L 3341 0 
L 2766 0 
L 2766 531 
Q 2569 213 2275 61 
Q 1981 -91 1556 -91 
Q 1019 -91 701 211 
Q 384 513 384 1019 
Q 384 1609 779 1909 
Q 1175 2209 1959 2209 
L 2766 2209 
L 2766 2266 
Q 2766 2663 2505 2880 
Q 2244 3097 1772 3097 
Q 1472 3097 1187 3025 
Q 903 2953 641 2809 
L 641 3341 
Q 956 3463 1253 3523 
Q 1550 3584 1831 3584 
Q 2591 3584 2966 3190 
Q 3341 2797 3341 1997 
z
" transform="scale(0.015625)"/>
       <path id="DejaVuSans-72" d="M 2631 2963 
Q 2534 3019 2420 3045 
Q 2306 3072 2169 3072 
Q 1681 3072 1420 2755 
Q 1159 2438 1159 1844 
L 1159 0 
L 581 0 
L 581 3500 
L 1159 3500 
L 1159 2956 
Q 1341 3275 1631 3429 
Q 1922 3584 2338 3584 
Q 2397 3584 2469 3576 
Q 2541 3569 2628 3553 
L 2631 2963 
z
" transform="scale(0.015625)"/>
       <path id="DejaVuSans-62" d="M 3116 1747 
Q 3116 2381 2855 2742 
Q 2594 3103 2138 3103 
Q 1681 3103 1420 2742 
Q 1159 2381 1159 1747 
Q 1159 1113 1420 752 
Q 1681 391 2138 391 
Q 2594 391 2855 752 
Q 3116 1113 3116 1747 
z
M 1159 2969 
Q 1341 3281 1617 3432 
Q 1894 3584 2278 3584 
Q 2916 3584 3314 3078 
Q 3713 2572 3713 1747 
Q 3713 922 3314 415 
Q 2916 -91 2278 -91 
Q 1894 -91 1617 61 
Q 1341 213 1159 525 
L 1159 0 
L 581 0 
L 581 4863 
L 1159 4863 
L 1159 2969 
z
" transform="scale(0.015625)"/>
       <path id="DejaVuSans-6c" d="M 603 4863 
L 1178 4863 
L 1178 0 
L 603 0 
L 603 4863 
z
" transform="scale(0.015625)"/>
       <path id="DejaVuSans-Oblique-78" d="M 3841 3500 
L 2234 1784 
L 3219 0 
L 2559 0 
L 1819 1388 
L 531 0 
L -166 0 
L 1556 1844 
L 641 3500 
L 1300 3500 
L 1972 2234 
L 3144 3500 
L 3841 3500 
z
" transform="scale(0.015625)"/>
      </defs>
      <use xlink:href="#DejaVuSans-44" transform="translate(0 0.015625)"/>
      <use xlink:href="#DejaVuSans-65" transform="translate(77.001953 0.015625)"/>
      <use xlink:href="#DejaVuSans-73" transform="translate(138.525391 0.015625)"/>
      <use xlink:href="#DejaVuSans-69" transform="translate(190.625 0.015625)"/>
      <use xlink:href="#DejaVuSans-67" transform="translate(218.408203 0.015625)"/>
      <use xlink:href="#DejaVuSans-6e" transform="translate(281.884766 0.015625)"/>
      <use xlink:href="#DejaVuSans-20" transform="translate(345.263672 0.015625)"/>
      <use xlink:href="#DejaVuSans-76" transform="translate(377.050781 0.015625)"/>
      <use xlink:href="#DejaVuSans-61" transform="translate(436.230469 0.015625)"/>
      <use xlink:href="#DejaVuSans-72" transform="translate(497.509766 0.015625)"/>
      <use xlink:href="#DejaVuSans-69" transform="translate(538.623047 0.015625)"/>
      <use xlink:href="#DejaVuSans-61" transform="translate(566.40625 0.015625)"/>
      <use xlink:href="#DejaVuSans-62" transform="translate(627.685547 0.015625)"/>
      <use xlink:href="#DejaVuSans-6c" transform="translate(691.162109 0.015625)"/>
      <use xlink:href="#DejaVuSans-65" transform="translate(718.945312 0.015625)"/>
      <use xlink:href="#DejaVuSans-20" transform="translate(780.46875 0.015625)"/>
      <use xlink:href="#DejaVuSans-Oblique-78" transform="translate(812.255859 0.015625)"/>
     </g>
    </g>
   </g>
   <g id="matplotlib.axis_2">
    <g id="ytick_1">
     <g id="line2d_17">
      <path d="M 34.2625 245.796392 
L 547.6225 245.796392 
" clip-path="url(#p881c299b9f)" style="fill: none; stroke: #b0b0b0; stroke-opacity: 0.2; stroke-width: 0.8; stroke-linecap: square"/>
     </g>
     <g id="line2d_18">
      <defs>
       <path id="me5d0af40e1" d="M 0 0 
L -3.5 0 
" style="stroke: #000000; stroke-width: 0.8"/>
      </defs>
      <g>
       <use xlink:href="#me5d0af40e1" x="34.2625" y="245.796392" style="stroke: #000000; stroke-width: 0.8"/>
      </g>
     </g>
     <g id="text_10">
      <!-- 1 -->
      <g transform="translate(20.9 249.59561) scale(0.1 -0.1)">
       <use xlink:href="#DejaVuSans-31"/>
      </g>
     </g>
    </g>
    <g id="ytick_2">
     <g id="line2d_19">
      <path d="M 34.2625 206.902251 
L 547.6225 206.902251 
" clip-path="url(#p881c299b9f)" style="fill: none; stroke: #b0b0b0; stroke-opacity: 0.2; stroke-width: 0.8; stroke-linecap: square"/>
     </g>
     <g id="line2d_20">
      <g>
       <use xlink:href="#me5d0af40e1" x="34.2625" y="206.902251" style="stroke: #000000; stroke-width: 0.8"/>
      </g>
     </g>
     <g id="text_11">
      <!-- 2 -->
      <g transform="translate(20.9 210.701469) scale(0.1 -0.1)">
       <use xlink:href="#DejaVuSans-32"/>
      </g>
     </g>
    </g>
    <g id="ytick_3">
     <g id="line2d_21">
      <path d="M 34.2625 168.00811 
L 547.6225 168.00811 
" clip-path="url(#p881c299b9f)" style="fill: none; stroke: #b0b0b0; stroke-opacity: 0.2; stroke-width: 0.8; stroke-linecap: square"/>
     </g>
     <g id="line2d_22">
      <g>
       <use xlink:href="#me5d0af40e1" x="34.2625" y="168.00811" style="stroke: #000000; stroke-width: 0.8"/>
      </g>
     </g>
     <g id="text_12">
      <!-- 3 -->
      <g transform="translate(20.9 171.807329) scale(0.1 -0.1)">
       <use xlink:href="#DejaVuSans-33"/>
      </g>
     </g>
    </g>
    <g id="ytick_4">
     <g id="line2d_23">
      <path d="M 34.2625 129.113969 
L 547.6225 129.113969 
" clip-path="url(#p881c299b9f)" style="fill: none; stroke: #b0b0b0; stroke-opacity: 0.2; stroke-width: 0.8; stroke-linecap: square"/>
     </g>
     <g id="line2d_24">
      <g>
       <use xlink:href="#me5d0af40e1" x="34.2625" y="129.113969" style="stroke: #000000; stroke-width: 0.8"/>
      </g>
     </g>
     <g id="text_13">
      <!-- 4 -->
      <g transform="translate(20.9 132.913188) scale(0.1 -0.1)">
       <use xlink:href="#DejaVuSans-34"/>
      </g>
     </g>
    </g>
    <g id="ytick_5">
     <g id="line2d_25">
      <path d="M 34.2625 90.219828 
L 547.6225 90.219828 
" clip-path="url(#p881c299b9f)" style="fill: none; stroke: #b0b0b0; stroke-opacity: 0.2; stroke-width: 0.8; stroke-linecap: square"/>
     </g>
     <g id="line2d_26">
      <g>
       <use xlink:href="#me5d0af40e1" x="34.2625" y="90.219828" style="stroke: #000000; stroke-width: 0.8"/>
      </g>
     </g>
     <g id="text_14">
      <!-- 5 -->
      <g transform="translate(20.9 94.019047) scale(0.1 -0.1)">
       <defs>
        <path id="DejaVuSans-35" d="M 691 4666 
L 3169 4666 
L 3169 4134 
L 1269 4134 
L 1269 2991 
Q 1406 3038 1543 3061 
Q 1681 3084 1819 3084 
Q 2600 3084 3056 2656 
Q 3513 2228 3513 1497 
Q 3513 744 3044 326 
Q 2575 -91 1722 -91 
Q 1428 -91 1123 -41 
Q 819 9 494 109 
L 494 744 
Q 775 591 1075 516 
Q 1375 441 1709 441 
Q 2250 441 2565 725 
Q 2881 1009 2881 1497 
Q 2881 1984 2565 2268 
Q 2250 2553 1709 2553 
Q 1456 2553 1204 2497 
Q 953 2441 691 2322 
L 691 4666 
z
" transform="scale(0.015625)"/>
       </defs>
       <use xlink:href="#DejaVuSans-35"/>
      </g>
     </g>
    </g>
    <g id="ytick_6">
     <g id="line2d_27">
      <path d="M 34.2625 51.325687 
L 547.6225 51.325687 
" clip-path="url(#p881c299b9f)" style="fill: none; stroke: #b0b0b0; stroke-opacity: 0.2; stroke-width: 0.8; stroke-linecap: square"/>
     </g>
     <g id="line2d_28">
      <g>
       <use xlink:href="#me5d0af40e1" x="34.2625" y="51.325687" style="stroke: #000000; stroke-width: 0.8"/>
      </g>
     </g>
     <g id="text_15">
      <!-- 6 -->
      <g transform="translate(20.9 55.124906) scale(0.1 -0.1)">
       <defs>
        <path id="DejaVuSans-36" d="M 2113 2584 
Q 1688 2584 1439 2293 
Q 1191 2003 1191 1497 
Q 1191 994 1439 701 
Q 1688 409 2113 409 
Q 2538 409 2786 701 
Q 3034 994 3034 1497 
Q 3034 2003 2786 2293 
Q 2538 2584 2113 2584 
z
M 3366 4563 
L 3366 3988 
Q 3128 4100 2886 4159 
Q 2644 4219 2406 4219 
Q 1781 4219 1451 3797 
Q 1122 3375 1075 2522 
Q 1259 2794 1537 2939 
Q 1816 3084 2150 3084 
Q 2853 3084 3261 2657 
Q 3669 2231 3669 1497 
Q 3669 778 3244 343 
Q 2819 -91 2113 -91 
Q 1303 -91 875 529 
Q 447 1150 447 2328 
Q 447 3434 972 4092 
Q 1497 4750 2381 4750 
Q 2619 4750 2861 4703 
Q 3103 4656 3366 4563 
z
" transform="scale(0.015625)"/>
       </defs>
       <use xlink:href="#DejaVuSans-36"/>
      </g>
     </g>
    </g>
    <g id="text_16">
     <!-- Objective $f(x)$ -->
     <g transform="translate(14.8 180.248281) rotate(-90) scale(0.1 -0.1)">
      <defs>
       <path id="DejaVuSans-4f" d="M 2522 4238 
Q 1834 4238 1429 3725 
Q 1025 3213 1025 2328 
Q 1025 1447 1429 934 
Q 1834 422 2522 422 
Q 3209 422 3611 934 
Q 4013 1447 4013 2328 
Q 4013 3213 3611 3725 
Q 3209 4238 2522 4238 
z
M 2522 4750 
Q 3503 4750 4090 4092 
Q 4678 3434 4678 2328 
Q 4678 1225 4090 567 
Q 3503 -91 2522 -91 
Q 1538 -91 948 565 
Q 359 1222 359 2328 
Q 359 3434 948 4092 
Q 1538 4750 2522 4750 
z
" transform="scale(0.015625)"/>
       <path id="DejaVuSans-6a" d="M 603 3500 
L 1178 3500 
L 1178 -63 
Q 1178 -731 923 -1031 
Q 669 -1331 103 -1331 
L -116 -1331 
L -116 -844 
L 38 -844 
Q 366 -844 484 -692 
Q 603 -541 603 -63 
L 603 3500 
z
M 603 4863 
L 1178 4863 
L 1178 4134 
L 603 4134 
L 603 4863 
z
" transform="scale(0.015625)"/>
       <path id="DejaVuSans-63" d="M 3122 3366 
L 3122 2828 
Q 2878 2963 2633 3030 
Q 2388 3097 2138 3097 
Q 1578 3097 1268 2742 
Q 959 2388 959 1747 
Q 959 1106 1268 751 
Q 1578 397 2138 397 
Q 2388 397 2633 464 
Q 2878 531 3122 666 
L 3122 134 
Q 2881 22 2623 -34 
Q 2366 -91 2075 -91 
Q 1284 -91 818 406 
Q 353 903 353 1747 
Q 353 2603 823 3093 
Q 1294 3584 2113 3584 
Q 2378 3584 2631 3529 
Q 2884 3475 3122 3366 
z
" transform="scale(0.015625)"/>
       <path id="DejaVuSans-74" d="M 1172 4494 
L 1172 3500 
L 2356 3500 
L 2356 3053 
L 1172 3053 
L 1172 1153 
Q 1172 725 1289 603 
Q 1406 481 1766 481 
L 2356 481 
L 2356 0 
L 1766 0 
Q 1100 0 847 248 
Q 594 497 594 1153 
L 594 3053 
L 172 3053 
L 172 3500 
L 594 3500 
L 594 4494 
L 1172 4494 
z
" transform="scale(0.015625)"/>
       <path id="DejaVuSans-Oblique-66" d="M 3059 4863 
L 2969 4384 
L 2419 4384 
Q 2106 4384 1964 4261 
Q 1822 4138 1753 3809 
L 1691 3500 
L 2638 3500 
L 2553 3053 
L 1606 3053 
L 1013 0 
L 434 0 
L 1031 3053 
L 481 3053 
L 563 3500 
L 1113 3500 
L 1159 3744 
Q 1278 4363 1576 4613 
Q 1875 4863 2516 4863 
L 3059 4863 
z
" transform="scale(0.015625)"/>
       <path id="DejaVuSans-28" d="M 1984 4856 
Q 1566 4138 1362 3434 
Q 1159 2731 1159 2009 
Q 1159 1288 1364 580 
Q 1569 -128 1984 -844 
L 1484 -844 
Q 1016 -109 783 600 
Q 550 1309 550 2009 
Q 550 2706 781 3412 
Q 1013 4119 1484 4856 
L 1984 4856 
z
" transform="scale(0.015625)"/>
       <path id="DejaVuSans-29" d="M 513 4856 
L 1013 4856 
Q 1481 4119 1714 3412 
Q 1947 2706 1947 2009 
Q 1947 1309 1714 600 
Q 1481 -109 1013 -844 
L 513 -844 
Q 928 -128 1133 580 
Q 1338 1288 1338 2009 
Q 1338 2731 1133 3434 
Q 928 4138 513 4856 
z
" transform="scale(0.015625)"/>
      </defs>
      <use xlink:href="#DejaVuSans-4f" transform="translate(0 0.015625)"/>
      <use xlink:href="#DejaVuSans-62" transform="translate(78.710938 0.015625)"/>
      <use xlink:href="#DejaVuSans-6a" transform="translate(142.1875 0.015625)"/>
      <use xlink:href="#DejaVuSans-65" transform="translate(169.970703 0.015625)"/>
      <use xlink:href="#DejaVuSans-63" transform="translate(231.494141 0.015625)"/>
      <use xlink:href="#DejaVuSans-74" transform="translate(286.474609 0.015625)"/>
      <use xlink:href="#DejaVuSans-69" transform="translate(325.683594 0.015625)"/>
      <use xlink:href="#DejaVuSans-76" transform="translate(353.466797 0.015625)"/>
      <use xlink:href="#DejaVuSans-65" transform="translate(412.646484 0.015625)"/>
      <use xlink:href="#DejaVuSans-20" transform="translate(474.169922 0.015625)"/>
      <use xlink:href="#DejaVuSans-Oblique-66" transform="translate(505.957031 0.015625)"/>
      <use xlink:href="#DejaVuSans-28" transform="translate(541.162109 0.015625)"/>
      <use xlink:href="#DejaVuSans-Oblique-78" transform="translate(580.175781 0.015625)"/>
      <use xlink:href="#DejaVuSans-29" transform="translate(639.355469 0.015625)"/>
     </g>
    </g>
   </g>
   <g id="line2d_29">
    <path d="M 57.597045 257.846416 
L 63.6701 257.408314 
L 66.940207 256.973535 
L 69.743155 256.414537 
L 72.546104 255.640799 
L 75.349052 254.62154 
L 78.152 253.337605 
L 80.954949 251.783109 
L 83.757897 249.966411 
L 87.028004 247.546835 
L 90.765268 244.461872 
L 96.371165 239.473064 
L 101.977062 234.545524 
L 105.247168 231.94202 
L 108.050117 229.982063 
L 110.385907 228.592217 
L 112.721697 227.460188 
L 115.057488 226.614226 
L 116.92612 226.158193 
L 118.794752 225.906932 
L 120.663385 225.864981 
L 122.532017 226.033608 
L 124.400649 226.410774 
L 126.269281 226.991168 
L 128.605072 227.989233 
L 130.940862 229.268237 
L 133.276652 230.79842 
L 136.079601 232.915895 
L 139.349707 235.68488 
L 144.021288 239.965197 
L 151.028659 246.372567 
L 154.298765 249.083061 
L 157.101714 251.166033 
L 159.904662 252.983363 
L 162.707611 254.508214 
L 165.043401 255.546349 
L 167.379191 256.373554 
L 169.714982 256.997426 
L 172.51793 257.497549 
L 175.320878 257.759232 
L 178.590985 257.821057 
L 182.795407 257.637497 
L 194.941517 256.922193 
L 198.678782 256.995329 
L 202.416046 257.277477 
L 206.620469 257.814536 
L 219.233737 259.611528 
L 222.036685 259.696863 
L 224.372475 259.58018 
L 226.708266 259.256047 
L 229.044056 258.69345 
L 231.379846 257.865868 
L 233.715637 256.752317 
L 236.051427 255.338228 
L 238.387217 253.616124 
L 240.723008 251.586066 
L 243.058798 249.255864 
L 245.394588 246.641031 
L 248.197537 243.160285 
L 251.467643 238.694357 
L 255.204908 233.185609 
L 261.745121 223.047474 
L 266.88386 215.225815 
L 270.621124 209.927875 
L 273.891231 205.705198 
L 276.694179 202.458857 
L 279.029969 200.044965 
L 281.36576 197.909664 
L 283.70155 196.057656 
L 286.03734 194.485948 
L 288.373131 193.184158 
L 290.708921 192.13506 
L 293.044711 191.315338 
L 295.84766 190.594091 
L 298.650608 190.105365 
L 302.387873 189.708122 
L 315.935457 188.557497 
L 319.205563 187.945086 
L 322.47567 187.123131 
L 326.212934 185.933818 
L 330.417357 184.333405 
L 344.432099 178.721532 
L 347.702205 177.807708 
L 350.505154 177.260438 
L 353.308102 176.961827 
L 355.643892 176.915189 
L 357.979683 177.05509 
L 360.782631 177.461891 
L 363.585579 178.10802 
L 366.855686 179.115039 
L 371.060109 180.683023 
L 379.001796 183.716404 
L 381.804744 184.545844 
L 384.140534 185.047395 
L 386.476325 185.331234 
L 388.812115 185.358954 
L 390.680747 185.174139 
L 392.54938 184.789686 
L 394.418012 184.1941 
L 396.286644 183.378896 
L 398.155276 182.338764 
L 400.023909 181.071664 
L 401.892541 179.578863 
L 404.228331 177.40269 
L 406.564122 174.89698 
L 408.899912 172.084739 
L 411.70286 168.347328 
L 414.972967 163.565321 
L 418.710231 157.68184 
L 424.783286 147.61991 
L 431.790657 136.096556 
L 435.99508 129.599969 
L 439.732344 124.220093 
L 443.469609 119.251899 
L 447.206873 114.687146 
L 450.944138 110.475929 
L 455.615719 105.578211 
L 469.630461 91.195122 
L 473.834883 86.383128 
L 477.572148 81.783929 
L 481.77657 76.253078 
L 486.915309 69.087519 
L 498.127103 53.250401 
L 501.864367 48.437888 
L 504.667316 45.141032 
L 507.470264 42.174434 
L 509.806054 39.987762 
L 512.141845 38.082113 
L 514.477635 36.470496 
L 516.813425 35.158508 
L 519.149216 34.143983 
L 521.485006 33.41689 
L 523.820796 32.959484 
L 524.287955 32.898281 
L 524.287955 32.898281 
" clip-path="url(#p881c299b9f)" style="fill: none; stroke: #123b63; stroke-width: 2.2; stroke-linecap: square"/>
   </g>
   <g id="line2d_30">
    <defs>
     <path id="mf8f0c90a97" d="M 0 4 
C 1.060812 4 2.078319 3.578535 2.828427 2.828427 
C 3.578535 2.078319 4 1.060812 4 0 
C 4 -1.060812 3.578535 -2.078319 2.828427 -2.828427 
C 2.078319 -3.578535 1.060812 -4 0 -4 
C -1.060812 -4 -2.078319 -3.578535 -2.828427 -2.828427 
C -3.578535 -2.078319 -4 -1.060812 -4 0 
C -4 1.060812 -3.578535 2.078319 -2.828427 2.828427 
C -2.078319 3.578535 -1.060812 4 0 4 
z
" style="stroke: #2f855a"/>
    </defs>
    <g clip-path="url(#p881c299b9f)">
     <use xlink:href="#mf8f0c90a97" x="177.656669" y="257.826057" style="fill: #2f855a; stroke: #2f855a"/>
    </g>
   </g>
   <g id="line2d_31">
    <defs>
     <path id="m3fb4ef72d1" d="M 0 4 
C 1.060812 4 2.078319 3.578535 2.828427 2.828427 
C 3.578535 2.078319 4 1.060812 4 0 
C 4 -1.060812 3.578535 -2.078319 2.828427 -2.828427 
C 2.078319 -3.578535 1.060812 -4 0 -4 
C -1.060812 -4 -2.078319 -3.578535 -2.828427 -2.828427 
C -3.578535 -2.078319 -4 -1.060812 -4 0 
C -4 1.060812 -3.578535 2.078319 -2.828427 2.828427 
C -2.078319 3.578535 -1.060812 4 0 4 
z
" style="stroke: #d97706"/>
    </defs>
    <g clip-path="url(#p881c299b9f)">
     <use xlink:href="#m3fb4ef72d1" x="221.569527" y="259.698281" style="fill: #d97706; stroke: #d97706"/>
    </g>
   </g>
   <g id="line2d_32">
    <g clip-path="url(#p881c299b9f)">
     <use xlink:href="#mf8f0c90a97" x="387.877799" y="185.38086" style="fill: #2f855a; stroke: #2f855a"/>
    </g>
   </g>
   <g id="patch_3">
    <path d="M 34.2625 271.038281 
L 34.2625 21.558281 
" style="fill: none; stroke: #000000; stroke-width: 0.8; stroke-linejoin: miter; stroke-linecap: square"/>
   </g>
   <g id="patch_4">
    <path d="M 547.6225 271.038281 
L 547.6225 21.558281 
" style="fill: none; stroke: #000000; stroke-width: 0.8; stroke-linejoin: miter; stroke-linecap: square"/>
   </g>
   <g id="patch_5">
    <path d="M 34.2625 271.038281 
L 547.6225 271.038281 
" style="fill: none; stroke: #000000; stroke-width: 0.8; stroke-linejoin: miter; stroke-linecap: square"/>
   </g>
   <g id="patch_6">
    <path d="M 34.2625 21.558281 
L 547.6225 21.558281 
" style="fill: none; stroke: #000000; stroke-width: 0.8; stroke-linejoin: miter; stroke-linecap: square"/>
   </g>
   <g id="patch_7">
    <path d="M 154.190084 241.748337 
Q 165.099812 249.222946 175.087214 256.06564 
" style="fill: none; stroke: #2f855a; stroke-linecap: round"/>
    <path d="M 173.221524 252.702427 
L 175.087214 256.06564 
L 171.27723 255.540264 
" style="fill: none; stroke: #2f855a; stroke-linecap: round"/>
   </g>
   <g id="text_17">
    <g id="patch_8">
     <path d="M 112.240635 240.114811 
L 173.699729 240.114811 
Q 175.591729 240.114811 175.591729 238.222811 
L 175.591729 229.899623 
Q 175.591729 228.007623 173.699729 228.007623 
L 112.240635 228.007623 
Q 110.348635 228.007623 110.348635 229.899623 
L 110.348635 238.222811 
Q 110.348635 240.114811 112.240635 240.114811 
z
" style="fill: #ffffff; stroke: #2f855a; stroke-linejoin: miter"/>
    </g>
    <!-- local optimum -->
    <g style="fill: #2f855a" transform="translate(112.240635 236.434279) scale(0.086 -0.086)">
     <defs>
      <path id="DejaVuSans-6f" d="M 1959 3097 
Q 1497 3097 1228 2736 
Q 959 2375 959 1747 
Q 959 1119 1226 758 
Q 1494 397 1959 397 
Q 2419 397 2687 759 
Q 2956 1122 2956 1747 
Q 2956 2369 2687 2733 
Q 2419 3097 1959 3097 
z
M 1959 3584 
Q 2709 3584 3137 3096 
Q 3566 2609 3566 1747 
Q 3566 888 3137 398 
Q 2709 -91 1959 -91 
Q 1206 -91 779 398 
Q 353 888 353 1747 
Q 353 2609 779 3096 
Q 1206 3584 1959 3584 
z
" transform="scale(0.015625)"/>
      <path id="DejaVuSans-70" d="M 1159 525 
L 1159 -1331 
L 581 -1331 
L 581 3500 
L 1159 3500 
L 1159 2969 
Q 1341 3281 1617 3432 
Q 1894 3584 2278 3584 
Q 2916 3584 3314 3078 
Q 3713 2572 3713 1747 
Q 3713 922 3314 415 
Q 2916 -91 2278 -91 
Q 1894 -91 1617 61 
Q 1341 213 1159 525 
z
M 3116 1747 
Q 3116 2381 2855 2742 
Q 2594 3103 2138 3103 
Q 1681 3103 1420 2742 
Q 1159 2381 1159 1747 
Q 1159 1113 1420 752 
Q 1681 391 2138 391 
Q 2594 391 2855 752 
Q 3116 1113 3116 1747 
z
" transform="scale(0.015625)"/>
      <path id="DejaVuSans-6d" d="M 3328 2828 
Q 3544 3216 3844 3400 
Q 4144 3584 4550 3584 
Q 5097 3584 5394 3201 
Q 5691 2819 5691 2113 
L 5691 0 
L 5113 0 
L 5113 2094 
Q 5113 2597 4934 2840 
Q 4756 3084 4391 3084 
Q 3944 3084 3684 2787 
Q 3425 2491 3425 1978 
L 3425 0 
L 2847 0 
L 2847 2094 
Q 2847 2600 2669 2842 
Q 2491 3084 2119 3084 
Q 1678 3084 1418 2786 
Q 1159 2488 1159 1978 
L 1159 0 
L 581 0 
L 581 3500 
L 1159 3500 
L 1159 2956 
Q 1356 3278 1631 3431 
Q 1906 3584 2284 3584 
Q 2666 3584 2933 3390 
Q 3200 3197 3328 2828 
z
" transform="scale(0.015625)"/>
      <path id="DejaVuSans-75" d="M 544 1381 
L 544 3500 
L 1119 3500 
L 1119 1403 
Q 1119 906 1312 657 
Q 1506 409 1894 409 
Q 2359 409 2629 706 
Q 2900 1003 2900 1516 
L 2900 3500 
L 3475 3500 
L 3475 0 
L 2900 0 
L 2900 538 
Q 2691 219 2414 64 
Q 2138 -91 1772 -91 
Q 1169 -91 856 284 
Q 544 659 544 1381 
z
M 1991 3584 
L 1991 3584 
z
" transform="scale(0.015625)"/>
     </defs>
     <use xlink:href="#DejaVuSans-6c"/>
     <use xlink:href="#DejaVuSans-6f" transform="translate(27.783203 0)"/>
     <use xlink:href="#DejaVuSans-63" transform="translate(88.964844 0)"/>
     <use xlink:href="#DejaVuSans-61" transform="translate(143.945312 0)"/>
     <use xlink:href="#DejaVuSans-6c" transform="translate(205.224609 0)"/>
     <use xlink:href="#DejaVuSans-20" transform="translate(233.007812 0)"/>
     <use xlink:href="#DejaVuSans-6f" transform="translate(264.794922 0)"/>
     <use xlink:href="#DejaVuSans-70" transform="translate(325.976562 0)"/>
     <use xlink:href="#DejaVuSans-74" transform="translate(389.453125 0)"/>
     <use xlink:href="#DejaVuSans-69" transform="translate(428.662109 0)"/>
     <use xlink:href="#DejaVuSans-6d" transform="translate(456.445312 0)"/>
     <use xlink:href="#DejaVuSans-75" transform="translate(553.857422 0)"/>
     <use xlink:href="#DejaVuSans-6d" transform="translate(617.236328 0)"/>
    </g>
   </g>
   <g id="patch_9">
    <path d="M 240.154579 244.899568 
Q 231.643614 251.676591 224.007277 257.757175 
" style="fill: none; stroke: #d97706; stroke-linecap: round"/>
    <path d="M 227.769768 256.95989 
L 224.007277 257.757175 
L 225.626943 254.268811 
" style="fill: none; stroke: #d97706; stroke-linecap: round"/>
   </g>
   <g id="text_18">
    <g id="patch_10">
     <path d="M 216.124505 243.153859 
L 283.774255 243.153859 
Q 285.666255 243.153859 285.666255 241.261859 
L 285.666255 232.938672 
Q 285.666255 231.046672 283.774255 231.046672 
L 216.124505 231.046672 
Q 214.232505 231.046672 214.232505 232.938672 
L 214.232505 241.261859 
Q 214.232505 243.153859 216.124505 243.153859 
z
" style="fill: #ffffff; stroke: #d97706; stroke-linejoin: miter"/>
    </g>
    <!-- global optimum -->
    <g style="fill: #d97706" transform="translate(216.124505 239.473328) scale(0.086 -0.086)">
     <use xlink:href="#DejaVuSans-67"/>
     <use xlink:href="#DejaVuSans-6c" transform="translate(63.476562 0)"/>
     <use xlink:href="#DejaVuSans-6f" transform="translate(91.259766 0)"/>
     <use xlink:href="#DejaVuSans-62" transform="translate(152.441406 0)"/>
     <use xlink:href="#DejaVuSans-61" transform="translate(215.917969 0)"/>
     <use xlink:href="#DejaVuSans-6c" transform="translate(277.197266 0)"/>
     <use xlink:href="#DejaVuSans-20" transform="translate(304.980469 0)"/>
     <use xlink:href="#DejaVuSans-6f" transform="translate(336.767578 0)"/>
     <use xlink:href="#DejaVuSans-70" transform="translate(397.949219 0)"/>
     <use xlink:href="#DejaVuSans-74" transform="translate(461.425781 0)"/>
     <use xlink:href="#DejaVuSans-69" transform="translate(500.634766 0)"/>
     <use xlink:href="#DejaVuSans-6d" transform="translate(528.417969 0)"/>
     <use xlink:href="#DejaVuSans-75" transform="translate(625.830078 0)"/>
     <use xlink:href="#DejaVuSans-6d" transform="translate(689.208984 0)"/>
    </g>
   </g>
   <g id="patch_11">
    <path d="M 387.877799 172.889891 
Q 387.877799 178.136647 387.877799 182.265369 
" style="fill: none; stroke: #2f855a; stroke-linecap: round"/>
    <path d="M 389.597799 178.825369 
L 387.877799 182.265369 
L 386.157799 178.825369 
" style="fill: none; stroke: #2f855a; stroke-linecap: round"/>
   </g>
   <g id="text_19">
    <g id="patch_12">
     <path d="M 357.148252 170.392203 
L 418.607346 170.392203 
Q 420.499346 170.392203 420.499346 168.500203 
L 420.499346 160.177016 
Q 420.499346 158.285016 418.607346 158.285016 
L 357.148252 158.285016 
Q 355.256252 158.285016 355.256252 160.177016 
L 355.256252 168.500203 
Q 355.256252 170.392203 357.148252 170.392203 
z
" style="fill: #ffffff; stroke: #2f855a; stroke-linejoin: miter"/>
    </g>
    <!-- local optimum -->
    <g style="fill: #2f855a" transform="translate(357.148252 166.711672) scale(0.086 -0.086)">
     <use xlink:href="#DejaVuSans-6c"/>
     <use xlink:href="#DejaVuSans-6f" transform="translate(27.783203 0)"/>
     <use xlink:href="#DejaVuSans-63" transform="translate(88.964844 0)"/>
     <use xlink:href="#DejaVuSans-61" transform="translate(143.945312 0)"/>
     <use xlink:href="#DejaVuSans-6c" transform="translate(205.224609 0)"/>
     <use xlink:href="#DejaVuSans-20" transform="translate(233.007812 0)"/>
     <use xlink:href="#DejaVuSans-6f" transform="translate(264.794922 0)"/>
     <use xlink:href="#DejaVuSans-70" transform="translate(325.976562 0)"/>
     <use xlink:href="#DejaVuSans-74" transform="translate(389.453125 0)"/>
     <use xlink:href="#DejaVuSans-69" transform="translate(428.662109 0)"/>
     <use xlink:href="#DejaVuSans-6d" transform="translate(456.445312 0)"/>
     <use xlink:href="#DejaVuSans-75" transform="translate(553.857422 0)"/>
     <use xlink:href="#DejaVuSans-6d" transform="translate(617.236328 0)"/>
    </g>
   </g>
   <g id="text_20">
    <!-- Local and global optima in a nonconvex design landscape -->
    <g style="fill: #1f2933" transform="translate(112.133203 15.558281) scale(0.11 -0.11)">
     <defs>
      <path id="DejaVuSans-Bold-4c" d="M 588 4666 
L 1791 4666 
L 1791 909 
L 3903 909 
L 3903 0 
L 588 0 
L 588 4666 
z
" transform="scale(0.015625)"/>
      <path id="DejaVuSans-Bold-6f" d="M 2203 2784 
Q 1831 2784 1636 2517 
Q 1441 2250 1441 1747 
Q 1441 1244 1636 976 
Q 1831 709 2203 709 
Q 2569 709 2762 976 
Q 2956 1244 2956 1747 
Q 2956 2250 2762 2517 
Q 2569 2784 2203 2784 
z
M 2203 3584 
Q 3106 3584 3614 3096 
Q 4122 2609 4122 1747 
Q 4122 884 3614 396 
Q 3106 -91 2203 -91 
Q 1297 -91 786 396 
Q 275 884 275 1747 
Q 275 2609 786 3096 
Q 1297 3584 2203 3584 
z
" transform="scale(0.015625)"/>
      <path id="DejaVuSans-Bold-63" d="M 3366 3391 
L 3366 2478 
Q 3138 2634 2908 2709 
Q 2678 2784 2431 2784 
Q 1963 2784 1702 2511 
Q 1441 2238 1441 1747 
Q 1441 1256 1702 982 
Q 1963 709 2431 709 
Q 2694 709 2930 787 
Q 3166 866 3366 1019 
L 3366 103 
Q 3103 6 2833 -42 
Q 2563 -91 2291 -91 
Q 1344 -91 809 395 
Q 275 881 275 1747 
Q 275 2613 809 3098 
Q 1344 3584 2291 3584 
Q 2566 3584 2833 3536 
Q 3100 3488 3366 3391 
z
" transform="scale(0.015625)"/>
      <path id="DejaVuSans-Bold-61" d="M 2106 1575 
Q 1756 1575 1579 1456 
Q 1403 1338 1403 1106 
Q 1403 894 1545 773 
Q 1688 653 1941 653 
Q 2256 653 2472 879 
Q 2688 1106 2688 1447 
L 2688 1575 
L 2106 1575 
z
M 3816 1997 
L 3816 0 
L 2688 0 
L 2688 519 
Q 2463 200 2181 54 
Q 1900 -91 1497 -91 
Q 953 -91 614 226 
Q 275 544 275 1050 
Q 275 1666 698 1953 
Q 1122 2241 2028 2241 
L 2688 2241 
L 2688 2328 
Q 2688 2594 2478 2717 
Q 2269 2841 1825 2841 
Q 1466 2841 1156 2769 
Q 847 2697 581 2553 
L 581 3406 
Q 941 3494 1303 3539 
Q 1666 3584 2028 3584 
Q 2975 3584 3395 3211 
Q 3816 2838 3816 1997 
z
" transform="scale(0.015625)"/>
      <path id="DejaVuSans-Bold-6c" d="M 538 4863 
L 1656 4863 
L 1656 0 
L 538 0 
L 538 4863 
z
" transform="scale(0.015625)"/>
      <path id="DejaVuSans-Bold-20" transform="scale(0.015625)"/>
      <path id="DejaVuSans-Bold-6e" d="M 4056 2131 
L 4056 0 
L 2931 0 
L 2931 347 
L 2931 1631 
Q 2931 2084 2911 2256 
Q 2891 2428 2841 2509 
Q 2775 2619 2662 2680 
Q 2550 2741 2406 2741 
Q 2056 2741 1856 2470 
Q 1656 2200 1656 1722 
L 1656 0 
L 538 0 
L 538 3500 
L 1656 3500 
L 1656 2988 
Q 1909 3294 2193 3439 
Q 2478 3584 2822 3584 
Q 3428 3584 3742 3212 
Q 4056 2841 4056 2131 
z
" transform="scale(0.015625)"/>
      <path id="DejaVuSans-Bold-64" d="M 2919 2988 
L 2919 4863 
L 4044 4863 
L 4044 0 
L 2919 0 
L 2919 506 
Q 2688 197 2409 53 
Q 2131 -91 1766 -91 
Q 1119 -91 703 423 
Q 288 938 288 1747 
Q 288 2556 703 3070 
Q 1119 3584 1766 3584 
Q 2128 3584 2408 3439 
Q 2688 3294 2919 2988 
z
M 2181 722 
Q 2541 722 2730 984 
Q 2919 1247 2919 1747 
Q 2919 2247 2730 2509 
Q 2541 2772 2181 2772 
Q 1825 2772 1636 2509 
Q 1447 2247 1447 1747 
Q 1447 1247 1636 984 
Q 1825 722 2181 722 
z
" transform="scale(0.015625)"/>
      <path id="DejaVuSans-Bold-67" d="M 2919 594 
Q 2688 288 2409 144 
Q 2131 0 1766 0 
Q 1125 0 706 504 
Q 288 1009 288 1791 
Q 288 2575 706 3076 
Q 1125 3578 1766 3578 
Q 2131 3578 2409 3434 
Q 2688 3291 2919 2981 
L 2919 3500 
L 4044 3500 
L 4044 353 
Q 4044 -491 3511 -936 
Q 2978 -1381 1966 -1381 
Q 1638 -1381 1331 -1331 
Q 1025 -1281 716 -1178 
L 716 -306 
Q 1009 -475 1290 -558 
Q 1572 -641 1856 -641 
Q 2406 -641 2662 -400 
Q 2919 -159 2919 353 
L 2919 594 
z
M 2181 2772 
Q 1834 2772 1640 2515 
Q 1447 2259 1447 1791 
Q 1447 1309 1634 1061 
Q 1822 813 2181 813 
Q 2531 813 2725 1069 
Q 2919 1325 2919 1791 
Q 2919 2259 2725 2515 
Q 2531 2772 2181 2772 
z
" transform="scale(0.015625)"/>
      <path id="DejaVuSans-Bold-62" d="M 2400 722 
Q 2759 722 2948 984 
Q 3138 1247 3138 1747 
Q 3138 2247 2948 2509 
Q 2759 2772 2400 2772 
Q 2041 2772 1848 2508 
Q 1656 2244 1656 1747 
Q 1656 1250 1848 986 
Q 2041 722 2400 722 
z
M 1656 2988 
Q 1888 3294 2169 3439 
Q 2450 3584 2816 3584 
Q 3463 3584 3878 3070 
Q 4294 2556 4294 1747 
Q 4294 938 3878 423 
Q 3463 -91 2816 -91 
Q 2450 -91 2169 54 
Q 1888 200 1656 506 
L 1656 0 
L 538 0 
L 538 4863 
L 1656 4863 
L 1656 2988 
z
" transform="scale(0.015625)"/>
      <path id="DejaVuSans-Bold-70" d="M 1656 506 
L 1656 -1331 
L 538 -1331 
L 538 3500 
L 1656 3500 
L 1656 2988 
Q 1888 3294 2169 3439 
Q 2450 3584 2816 3584 
Q 3463 3584 3878 3070 
Q 4294 2556 4294 1747 
Q 4294 938 3878 423 
Q 3463 -91 2816 -91 
Q 2450 -91 2169 54 
Q 1888 200 1656 506 
z
M 2400 2772 
Q 2041 2772 1848 2508 
Q 1656 2244 1656 1747 
Q 1656 1250 1848 986 
Q 2041 722 2400 722 
Q 2759 722 2948 984 
Q 3138 1247 3138 1747 
Q 3138 2247 2948 2509 
Q 2759 2772 2400 2772 
z
" transform="scale(0.015625)"/>
      <path id="DejaVuSans-Bold-74" d="M 1759 4494 
L 1759 3500 
L 2913 3500 
L 2913 2700 
L 1759 2700 
L 1759 1216 
Q 1759 972 1856 886 
Q 1953 800 2241 800 
L 2816 800 
L 2816 0 
L 1856 0 
Q 1194 0 917 276 
Q 641 553 641 1216 
L 641 2700 
L 84 2700 
L 84 3500 
L 641 3500 
L 641 4494 
L 1759 4494 
z
" transform="scale(0.015625)"/>
      <path id="DejaVuSans-Bold-69" d="M 538 3500 
L 1656 3500 
L 1656 0 
L 538 0 
L 538 3500 
z
M 538 4863 
L 1656 4863 
L 1656 3950 
L 538 3950 
L 538 4863 
z
" transform="scale(0.015625)"/>
      <path id="DejaVuSans-Bold-6d" d="M 3781 2919 
Q 3994 3244 4286 3414 
Q 4578 3584 4928 3584 
Q 5531 3584 5847 3212 
Q 6163 2841 6163 2131 
L 6163 0 
L 5038 0 
L 5038 1825 
Q 5041 1866 5042 1909 
Q 5044 1953 5044 2034 
Q 5044 2406 4934 2573 
Q 4825 2741 4581 2741 
Q 4263 2741 4089 2478 
Q 3916 2216 3909 1719 
L 3909 0 
L 2784 0 
L 2784 1825 
Q 2784 2406 2684 2573 
Q 2584 2741 2328 2741 
Q 2006 2741 1831 2477 
Q 1656 2213 1656 1722 
L 1656 0 
L 531 0 
L 531 3500 
L 1656 3500 
L 1656 2988 
Q 1863 3284 2130 3434 
Q 2397 3584 2719 3584 
Q 3081 3584 3359 3409 
Q 3638 3234 3781 2919 
z
" transform="scale(0.015625)"/>
      <path id="DejaVuSans-Bold-76" d="M 97 3500 
L 1216 3500 
L 2088 1081 
L 2956 3500 
L 4078 3500 
L 2700 0 
L 1472 0 
L 97 3500 
z
" transform="scale(0.015625)"/>
      <path id="DejaVuSans-Bold-65" d="M 4031 1759 
L 4031 1441 
L 1416 1441 
Q 1456 1047 1700 850 
Q 1944 653 2381 653 
Q 2734 653 3104 758 
Q 3475 863 3866 1075 
L 3866 213 
Q 3469 63 3072 -14 
Q 2675 -91 2278 -91 
Q 1328 -91 801 392 
Q 275 875 275 1747 
Q 275 2603 792 3093 
Q 1309 3584 2216 3584 
Q 3041 3584 3536 3087 
Q 4031 2591 4031 1759 
z
M 2881 2131 
Q 2881 2450 2695 2645 
Q 2509 2841 2209 2841 
Q 1884 2841 1681 2658 
Q 1478 2475 1428 2131 
L 2881 2131 
z
" transform="scale(0.015625)"/>
      <path id="DejaVuSans-Bold-78" d="M 1422 1791 
L 159 3500 
L 1344 3500 
L 2059 2463 
L 2784 3500 
L 3969 3500 
L 2706 1797 
L 4031 0 
L 2847 0 
L 2059 1106 
L 1281 0 
L 97 0 
L 1422 1791 
z
" transform="scale(0.015625)"/>
      <path id="DejaVuSans-Bold-73" d="M 3272 3391 
L 3272 2541 
Q 2913 2691 2578 2766 
Q 2244 2841 1947 2841 
Q 1628 2841 1473 2761 
Q 1319 2681 1319 2516 
Q 1319 2381 1436 2309 
Q 1553 2238 1856 2203 
L 2053 2175 
Q 2913 2066 3209 1816 
Q 3506 1566 3506 1031 
Q 3506 472 3093 190 
Q 2681 -91 1863 -91 
Q 1516 -91 1145 -36 
Q 775 19 384 128 
L 384 978 
Q 719 816 1070 734 
Q 1422 653 1784 653 
Q 2113 653 2278 743 
Q 2444 834 2444 1013 
Q 2444 1163 2330 1236 
Q 2216 1309 1875 1350 
L 1678 1375 
Q 931 1469 631 1722 
Q 331 1975 331 2491 
Q 331 3047 712 3315 
Q 1094 3584 1881 3584 
Q 2191 3584 2531 3537 
Q 2872 3491 3272 3391 
z
" transform="scale(0.015625)"/>
     </defs>
     <use xlink:href="#DejaVuSans-Bold-4c"/>
     <use xlink:href="#DejaVuSans-Bold-6f" transform="translate(63.720703 0)"/>
     <use xlink:href="#DejaVuSans-Bold-63" transform="translate(132.421875 0)"/>
     <use xlink:href="#DejaVuSans-Bold-61" transform="translate(191.699219 0)"/>
     <use xlink:href="#DejaVuSans-Bold-6c" transform="translate(259.179688 0)"/>
     <use xlink:href="#DejaVuSans-Bold-20" transform="translate(293.457031 0)"/>
     <use xlink:href="#DejaVuSans-Bold-61" transform="translate(328.271484 0)"/>
     <use xlink:href="#DejaVuSans-Bold-6e" transform="translate(395.751953 0)"/>
     <use xlink:href="#DejaVuSans-Bold-64" transform="translate(466.943359 0)"/>
     <use xlink:href="#DejaVuSans-Bold-20" transform="translate(538.525391 0)"/>
     <use xlink:href="#DejaVuSans-Bold-67" transform="translate(573.339844 0)"/>
     <use xlink:href="#DejaVuSans-Bold-6c" transform="translate(644.921875 0)"/>
     <use xlink:href="#DejaVuSans-Bold-6f" transform="translate(679.199219 0)"/>
     <use xlink:href="#DejaVuSans-Bold-62" transform="translate(747.900391 0)"/>
     <use xlink:href="#DejaVuSans-Bold-61" transform="translate(819.482422 0)"/>
     <use xlink:href="#DejaVuSans-Bold-6c" transform="translate(886.962891 0)"/>
     <use xlink:href="#DejaVuSans-Bold-20" transform="translate(921.240234 0)"/>
     <use xlink:href="#DejaVuSans-Bold-6f" transform="translate(956.054688 0)"/>
     <use xlink:href="#DejaVuSans-Bold-70" transform="translate(1024.755859 0)"/>
     <use xlink:href="#DejaVuSans-Bold-74" transform="translate(1096.337891 0)"/>
     <use xlink:href="#DejaVuSans-Bold-69" transform="translate(1144.140625 0)"/>
     <use xlink:href="#DejaVuSans-Bold-6d" transform="translate(1178.417969 0)"/>
     <use xlink:href="#DejaVuSans-Bold-61" transform="translate(1282.617188 0)"/>
     <use xlink:href="#DejaVuSans-Bold-20" transform="translate(1350.097656 0)"/>
     <use xlink:href="#DejaVuSans-Bold-69" transform="translate(1384.912109 0)"/>
     <use xlink:href="#DejaVuSans-Bold-6e" transform="translate(1419.189453 0)"/>
     <use xlink:href="#DejaVuSans-Bold-20" transform="translate(1490.380859 0)"/>
     <use xlink:href="#DejaVuSans-Bold-61" transform="translate(1525.195312 0)"/>
     <use xlink:href="#DejaVuSans-Bold-20" transform="translate(1592.675781 0)"/>
     <use xlink:href="#DejaVuSans-Bold-6e" transform="translate(1627.490234 0)"/>
     <use xlink:href="#DejaVuSans-Bold-6f" transform="translate(1698.681641 0)"/>
     <use xlink:href="#DejaVuSans-Bold-6e" transform="translate(1767.382812 0)"/>
     <use xlink:href="#DejaVuSans-Bold-63" transform="translate(1838.574219 0)"/>
     <use xlink:href="#DejaVuSans-Bold-6f" transform="translate(1897.851562 0)"/>
     <use xlink:href="#DejaVuSans-Bold-6e" transform="translate(1966.552734 0)"/>
     <use xlink:href="#DejaVuSans-Bold-76" transform="translate(2037.744141 0)"/>
     <use xlink:href="#DejaVuSans-Bold-65" transform="translate(2102.929688 0)"/>
     <use xlink:href="#DejaVuSans-Bold-78" transform="translate(2170.751953 0)"/>
     <use xlink:href="#DejaVuSans-Bold-20" transform="translate(2235.253906 0)"/>
     <use xlink:href="#DejaVuSans-Bold-64" transform="translate(2270.068359 0)"/>
     <use xlink:href="#DejaVuSans-Bold-65" transform="translate(2341.650391 0)"/>
     <use xlink:href="#DejaVuSans-Bold-73" transform="translate(2409.472656 0)"/>
     <use xlink:href="#DejaVuSans-Bold-69" transform="translate(2468.994141 0)"/>
     <use xlink:href="#DejaVuSans-Bold-67" transform="translate(2503.271484 0)"/>
     <use xlink:href="#DejaVuSans-Bold-6e" transform="translate(2574.853516 0)"/>
     <use xlink:href="#DejaVuSans-Bold-20" transform="translate(2646.044922 0)"/>
     <use xlink:href="#DejaVuSans-Bold-6c" transform="translate(2680.859375 0)"/>
     <use xlink:href="#DejaVuSans-Bold-61" transform="translate(2715.136719 0)"/>
     <use xlink:href="#DejaVuSans-Bold-6e" transform="translate(2782.617188 0)"/>
     <use xlink:href="#DejaVuSans-Bold-64" transform="translate(2853.808594 0)"/>
     <use xlink:href="#DejaVuSans-Bold-73" transform="translate(2925.390625 0)"/>
     <use xlink:href="#DejaVuSans-Bold-63" transform="translate(2984.912109 0)"/>
     <use xlink:href="#DejaVuSans-Bold-61" transform="translate(3044.189453 0)"/>
     <use xlink:href="#DejaVuSans-Bold-70" transform="translate(3111.669922 0)"/>
     <use xlink:href="#DejaVuSans-Bold-65" transform="translate(3183.251953 0)"/>
    </g>
   </g>
  </g>
 </g>
 <defs>
  <clipPath id="p881c299b9f">
   <rect x="34.2625" y="21.558281" width="513.36" height="249.48"/>
  </clipPath>
 </defs>
</svg>
