<?xml version="1.0" encoding="utf-8" standalone="no"?>
<!DOCTYPE svg PUBLIC "-//W3C//DTD SVG 1.1//EN"
  "http://www.w3.org/Graphics/SVG/1.1/DTD/svg11.dtd">
<svg xmlns:xlink="http://www.w3.org/1999/xlink" width="350.214062pt" height="364.034531pt" viewBox="0 0 350.214062 364.034531" xmlns="http://www.w3.org/2000/svg" version="1.1">
 <metadata>
  <rdf:RDF xmlns:dc="http://purl.org/dc/elements/1.1/" xmlns:cc="http://creativecommons.org/ns#" xmlns:rdf="http://www.w3.org/1999/02/22-rdf-syntax-ns#">
   <cc:Work>
    <dc:type rdf:resource="http://purl.org/dc/dcmitype/StillImage"/>
    <dc:date>2026-07-17T16:08:37.171464</dc:date>
    <dc:format>image/svg+xml</dc:format>
    <dc:creator>
     <cc:Agent>
      <dc:title>Matplotlib v3.10.8, https://matplotlib.org/</dc:title>
     </cc:Agent>
    </dc:creator>
   </cc:Work>
  </rdf:RDF>
 </metadata>
 <defs>
  <style type="text/css">*{stroke-linejoin: round; stroke-linecap: butt}</style>
 </defs>
 <g id="figure_1">
  <g id="patch_1">
   <path d="M 0 364.034531 
L 350.214062 364.034531 
L 350.214062 0 
L 0 0 
z
" style="fill: #ffffff"/>
  </g>
  <g id="axes_1">
   <g id="patch_2">
    <path d="M 34.240625 326.478281 
L 339.160625 326.478281 
L 339.160625 21.558281 
L 34.240625 21.558281 
z
" style="fill: #ffffff"/>
   </g>
   <g id="FillBetweenPolyCollection_1">
    <defs>
     <path id="m31835145a7" d="M 28.261801 -354.433897 
L 28.261801 -31.577426 
L 29.070966 -31.577426 
L 29.88013 -31.577426 
L 30.689294 -31.577426 
L 31.498458 -31.577426 
L 32.307622 -31.577426 
L 33.116786 -31.577426 
L 33.92595 -31.577426 
L 34.735114 -31.577426 
L 35.544278 -31.577426 
L 36.353442 -31.577426 
L 37.162606 -31.577426 
L 37.971771 -31.577426 
L 38.780935 -31.577426 
L 39.590099 -31.577426 
L 40.399263 -31.577426 
L 41.208427 -31.577426 
L 42.017591 -31.577426 
L 42.826755 -31.577426 
L 43.635919 -31.577426 
L 44.445083 -31.577426 
L 45.254247 -31.577426 
L 46.063411 -31.577426 
L 46.872575 -31.577426 
L 47.68174 -31.577426 
L 48.490904 -31.577426 
L 49.300068 -31.577426 
L 50.109232 -31.577426 
L 50.918396 -31.577426 
L 51.72756 -31.577426 
L 52.536724 -31.577426 
L 53.345888 -31.577426 
L 54.155052 -31.577426 
L 54.964216 -31.577426 
L 55.77338 -31.577426 
L 56.582545 -31.577426 
L 57.391709 -31.577426 
L 58.200873 -31.577426 
L 59.010037 -31.577426 
L 59.819201 -31.577426 
L 60.628365 -31.577426 
L 61.437529 -31.577426 
L 62.246693 -31.577426 
L 63.055857 -31.577426 
L 63.865021 -31.577426 
L 64.674185 -31.577426 
L 65.483349 -31.577426 
L 66.292514 -31.577426 
L 67.101678 -31.577426 
L 67.910842 -31.577426 
L 68.720006 -31.577426 
L 69.52917 -31.577426 
L 70.338334 -31.577426 
L 71.147498 -31.577426 
L 71.956662 -31.577426 
L 72.765826 -31.577426 
L 73.57499 -31.577426 
L 74.384154 -31.577426 
L 75.193318 -31.577426 
L 76.002483 -31.577426 
L 76.811647 -31.577426 
L 77.620811 -31.577426 
L 78.429975 -31.577426 
L 79.239139 -31.577426 
L 80.048303 -31.577426 
L 80.857467 -31.577426 
L 81.666631 -31.577426 
L 82.475795 -31.577426 
L 83.284959 -31.577426 
L 84.094123 -31.577426 
L 84.903288 -31.577426 
L 85.712452 -31.577426 
L 86.521616 -31.577426 
L 87.33078 -31.577426 
L 88.139944 -31.577426 
L 88.949108 -31.577426 
L 89.758272 -31.577426 
L 90.567436 -31.577426 
L 91.3766 -31.577426 
L 92.185764 -31.577426 
L 92.994928 -31.577426 
L 93.804092 -31.577426 
L 94.613257 -31.577426 
L 95.422421 -31.577426 
L 96.231585 -31.577426 
L 97.040749 -31.577426 
L 97.849913 -31.577426 
L 98.659077 -31.577426 
L 99.468241 -31.577426 
L 100.277405 -31.577426 
L 101.086569 -31.577426 
L 101.895733 -31.577426 
L 102.704897 -31.577426 
L 103.514062 -31.577426 
L 104.323226 -31.577426 
L 105.13239 -31.577426 
L 105.941554 -31.577426 
L 106.750718 -31.577426 
L 107.559882 -31.577426 
L 108.369046 -31.577426 
L 109.17821 -31.577426 
L 109.987374 -31.577426 
L 110.796538 -31.577426 
L 111.605702 -31.577426 
L 112.414866 -31.577426 
L 113.224031 -31.577426 
L 114.033195 -31.577426 
L 114.842359 -31.577426 
L 115.651523 -31.577426 
L 116.460687 -31.577426 
L 117.269851 -31.577426 
L 118.079015 -31.577426 
L 118.888179 -31.577426 
L 119.697343 -31.577426 
L 120.506507 -31.577426 
L 121.315671 -31.577426 
L 122.124836 -31.577426 
L 122.934 -31.577426 
L 123.743164 -31.577426 
L 124.552328 -31.577426 
L 125.361492 -31.577426 
L 126.170656 -31.577426 
L 126.97982 -31.577426 
L 127.788984 -31.577426 
L 128.598148 -31.577426 
L 129.407312 -31.577426 
L 130.216476 -31.577426 
L 131.02564 -31.577426 
L 131.834805 -31.577426 
L 132.643969 -31.577426 
L 133.453133 -31.577426 
L 134.262297 -31.577426 
L 135.071461 -31.577426 
L 135.880625 -31.577426 
L 136.689789 -31.577426 
L 137.498953 -31.577426 
L 138.308117 -31.577426 
L 139.117281 -31.577426 
L 139.926445 -31.577426 
L 140.73561 -31.577426 
L 141.544774 -31.577426 
L 142.353938 -31.577426 
L 143.163102 -31.577426 
L 143.972266 -31.577426 
L 144.78143 -31.577426 
L 145.590594 -31.577426 
L 146.399758 -31.577426 
L 147.208922 -31.577426 
L 148.018086 -31.577426 
L 148.82725 -31.577426 
L 149.636414 -31.577426 
L 150.445579 -31.577426 
L 151.254743 -31.577426 
L 152.063907 -31.577426 
L 152.873071 -31.577426 
L 153.682235 -31.577426 
L 154.491399 -31.577426 
L 155.300563 -31.577426 
L 156.109727 -31.577426 
L 156.918891 -31.577426 
L 157.728055 -31.577426 
L 158.537219 -31.577426 
L 159.346384 -31.577426 
L 160.155548 -31.577426 
L 160.964712 -31.577426 
L 161.773876 -31.577426 
L 162.58304 -31.577426 
L 163.392204 -31.577426 
L 164.201368 -31.577426 
L 165.010532 -31.577426 
L 165.819696 -31.577426 
L 166.62886 -31.577426 
L 167.438024 -31.577426 
L 168.247188 -31.577426 
L 169.056353 -31.577426 
L 169.865517 -31.577426 
L 170.674681 -31.577426 
L 171.483845 -31.577426 
L 172.293009 -31.577426 
L 173.102173 -31.577426 
L 173.911337 -31.577426 
L 174.720501 -31.577426 
L 175.529665 -31.577426 
L 176.338829 -31.577426 
L 177.147993 -31.577426 
L 177.957158 -31.577426 
L 178.766322 -31.577426 
L 179.575486 -31.577426 
L 180.38465 -31.577426 
L 181.193814 -31.577426 
L 182.002978 -31.577426 
L 182.812142 -31.577426 
L 183.621306 -31.577426 
L 184.43047 -31.577426 
L 185.239634 -31.577426 
L 186.048798 -31.577426 
L 186.857962 -31.577426 
L 187.667127 -31.577426 
L 188.476291 -31.577426 
L 189.285455 -31.577426 
L 190.094619 -31.577426 
L 190.903783 -31.577426 
L 191.712947 -31.577426 
L 192.522111 -31.577426 
L 193.331275 -31.577426 
L 194.140439 -31.577426 
L 194.949603 -31.577426 
L 195.758767 -31.577426 
L 196.567932 -31.577426 
L 197.377096 -31.577426 
L 198.18626 -31.577426 
L 198.995424 -31.577426 
L 199.804588 -31.577426 
L 200.613752 -31.577426 
L 201.422916 -31.577426 
L 202.23208 -31.577426 
L 203.041244 -31.577426 
L 203.850408 -31.577426 
L 204.659572 -31.577426 
L 205.468736 -31.577426 
L 206.277901 -31.577426 
L 207.087065 -31.577426 
L 207.896229 -31.577426 
L 208.705393 -31.577426 
L 209.514557 -31.577426 
L 210.323721 -31.577426 
L 211.132885 -31.577426 
L 211.942049 -31.577426 
L 212.751213 -31.577426 
L 213.560377 -31.577426 
L 214.369541 -31.577426 
L 215.178705 -31.577426 
L 215.98787 -31.577426 
L 216.797034 -31.577426 
L 217.606198 -31.577426 
L 218.415362 -31.577426 
L 219.224526 -31.577426 
L 220.03369 -31.577426 
L 220.842854 -31.577426 
L 221.652018 -31.577426 
L 222.461182 -31.577426 
L 223.270346 -31.577426 
L 224.07951 -31.577426 
L 224.888675 -31.577426 
L 225.697839 -31.577426 
L 226.507003 -31.577426 
L 227.316167 -31.577426 
L 228.125331 -31.577426 
L 228.934495 -31.577426 
L 229.743659 -31.577426 
L 230.552823 -31.577426 
L 231.361987 -31.577426 
L 232.171151 -31.577426 
L 232.980315 -31.577426 
L 233.789479 -31.577426 
L 234.598644 -31.577426 
L 235.407808 -31.577426 
L 236.216972 -31.577426 
L 237.026136 -31.577426 
L 237.8353 -31.577426 
L 238.644464 -31.577426 
L 239.453628 -31.577426 
L 240.262792 -31.577426 
L 241.071956 -31.577426 
L 241.88112 -31.577426 
L 242.690284 -31.577426 
L 243.499449 -31.577426 
L 244.308613 -31.577426 
L 245.117777 -31.577426 
L 245.926941 -31.577426 
L 246.736105 -31.577426 
L 247.545269 -31.577426 
L 248.354433 -31.577426 
L 249.163597 -31.577426 
L 249.972761 -31.577426 
L 250.781925 -31.577426 
L 251.591089 -31.577426 
L 252.400253 -31.577426 
L 253.209418 -31.577426 
L 254.018582 -31.577426 
L 254.827746 -31.577426 
L 255.63691 -31.577426 
L 256.446074 -31.577426 
L 257.255238 -31.577426 
L 258.064402 -31.577426 
L 258.873566 -31.577426 
L 259.68273 -31.577426 
L 260.491894 -31.577426 
L 261.301058 -31.577426 
L 262.110223 -31.577426 
L 262.919387 -31.577426 
L 263.728551 -31.577426 
L 264.537715 -31.577426 
L 265.346879 -31.577426 
L 266.156043 -31.577426 
L 266.965207 -31.577426 
L 267.774371 -31.577426 
L 268.583535 -31.577426 
L 269.392699 -31.577426 
L 270.201863 -31.577426 
L 271.011027 -31.577426 
L 271.820192 -31.577426 
L 272.629356 -31.577426 
L 273.43852 -31.577426 
L 274.247684 -31.577426 
L 275.056848 -31.577426 
L 275.866012 -31.577426 
L 276.675176 -31.577426 
L 277.48434 -31.577426 
L 278.293504 -31.577426 
L 279.102668 -31.577426 
L 279.911832 -31.577426 
L 280.720997 -31.577426 
L 281.530161 -31.577426 
L 282.339325 -31.577426 
L 283.148489 -31.577426 
L 283.957653 -31.577426 
L 284.766817 -31.577426 
L 285.575981 -31.577426 
L 286.385145 -31.577426 
L 287.194309 -31.577426 
L 288.003473 -31.577426 
L 288.812637 -31.577426 
L 289.621801 -31.577426 
L 290.430966 -31.577426 
L 291.24013 -31.577426 
L 292.049294 -31.577426 
L 292.858458 -31.577426 
L 293.667622 -31.577426 
L 294.476786 -31.577426 
L 295.28595 -31.577426 
L 296.095114 -31.577426 
L 296.904278 -31.577426 
L 297.713442 -31.577426 
L 298.522606 -31.577426 
L 299.331771 -31.577426 
L 300.140935 -31.577426 
L 300.950099 -31.577426 
L 301.759263 -31.577426 
L 302.568427 -31.577426 
L 303.377591 -31.577426 
L 304.186755 -31.577426 
L 304.995919 -31.577426 
L 305.805083 -31.577426 
L 306.614247 -31.577426 
L 307.423411 -31.577426 
L 308.232575 -31.577426 
L 309.04174 -31.577426 
L 309.850904 -31.577426 
L 310.660068 -31.577426 
L 311.469232 -31.577426 
L 312.278396 -31.577426 
L 313.08756 -31.577426 
L 313.896724 -31.577426 
L 314.705888 -31.577426 
L 315.515052 -31.577426 
L 316.324216 -31.577426 
L 317.13338 -31.577426 
L 317.942545 -31.577426 
L 318.751709 -31.577426 
L 319.560873 -31.577426 
L 320.370037 -31.577426 
L 321.179201 -31.577426 
L 321.988365 -31.577426 
L 322.797529 -31.577426 
L 323.606693 -31.577426 
L 324.415857 -31.577426 
L 325.225021 -31.577426 
L 326.034185 -31.577426 
L 326.843349 -31.577426 
L 327.652514 -31.577426 
L 328.461678 -31.577426 
L 329.270842 -31.577426 
L 330.080006 -31.577426 
L 330.88917 -31.577426 
L 331.698334 -31.577426 
L 332.507498 -31.577426 
L 333.316662 -31.577426 
L 334.125826 -31.577426 
L 334.93499 -31.577426 
L 335.744154 -31.577426 
L 336.553318 -31.577426 
L 337.362483 -31.577426 
L 338.171647 -31.577426 
L 338.980811 -31.577426 
L 339.789975 -31.577426 
L 340.599139 -31.577426 
L 341.408303 -31.577426 
L 342.217467 -31.577426 
L 343.026631 -31.577426 
L 343.835795 -31.577426 
L 344.644959 -31.577426 
L 345.454123 -31.577426 
L 346.263288 -31.577426 
L 347.072452 -31.577426 
L 347.881616 -31.577426 
L 348.69078 -31.577426 
L 349.499944 -31.577426 
L 350.309108 -31.577426 
L 350.309108 -32.386591 
L 350.309108 -32.386591 
L 349.499944 -33.195755 
L 348.69078 -34.004919 
L 347.881616 -34.814083 
L 347.072452 -35.623247 
L 346.263288 -36.432411 
L 345.454123 -37.241575 
L 344.644959 -38.050739 
L 343.835795 -38.859903 
L 343.026631 -39.669067 
L 342.217467 -40.478231 
L 341.408303 -41.287396 
L 340.599139 -42.09656 
L 339.789975 -42.905724 
L 338.980811 -43.714888 
L 338.171647 -44.524052 
L 337.362483 -45.333216 
L 336.553318 -46.14238 
L 335.744154 -46.951544 
L 334.93499 -47.760708 
L 334.125826 -48.569872 
L 333.316662 -49.379036 
L 332.507498 -50.1882 
L 331.698334 -50.997365 
L 330.88917 -51.806529 
L 330.080006 -52.615693 
L 329.270842 -53.424857 
L 328.461678 -54.234021 
L 327.652514 -55.043185 
L 326.843349 -55.852349 
L 326.034185 -56.661513 
L 325.225021 -57.470677 
L 324.415857 -58.279841 
L 323.606693 -59.089005 
L 322.797529 -59.89817 
L 321.988365 -60.707334 
L 321.179201 -61.516498 
L 320.370037 -62.325662 
L 319.560873 -63.134826 
L 318.751709 -63.94399 
L 317.942545 -64.753154 
L 317.13338 -65.562318 
L 316.324216 -66.371482 
L 315.515052 -67.180646 
L 314.705888 -67.98981 
L 313.896724 -68.798974 
L 313.08756 -69.608139 
L 312.278396 -70.417303 
L 311.469232 -71.226467 
L 310.660068 -72.035631 
L 309.850904 -72.844795 
L 309.04174 -73.653959 
L 308.232575 -74.463123 
L 307.423411 -75.272287 
L 306.614247 -76.081451 
L 305.805083 -76.890615 
L 304.995919 -77.699779 
L 304.186755 -78.508943 
L 303.377591 -79.318108 
L 302.568427 -80.127272 
L 301.759263 -80.936436 
L 300.950099 -81.7456 
L 300.140935 -82.554764 
L 299.331771 -83.363928 
L 298.522606 -84.173092 
L 297.713442 -84.982256 
L 296.904278 -85.79142 
L 296.095114 -86.600584 
L 295.28595 -87.409748 
L 294.476786 -88.218913 
L 293.667622 -89.028077 
L 292.858458 -89.837241 
L 292.049294 -90.646405 
L 291.24013 -91.455569 
L 290.430966 -92.264733 
L 289.621801 -93.073897 
L 288.812637 -93.883061 
L 288.003473 -94.692225 
L 287.194309 -95.501389 
L 286.385145 -96.310553 
L 285.575981 -97.119717 
L 284.766817 -97.928882 
L 283.957653 -98.738046 
L 283.148489 -99.54721 
L 282.339325 -100.356374 
L 281.530161 -101.165538 
L 280.720997 -101.974702 
L 279.911832 -102.783866 
L 279.102668 -103.59303 
L 278.293504 -104.402194 
L 277.48434 -105.211358 
L 276.675176 -106.020522 
L 275.866012 -106.829687 
L 275.056848 -107.638851 
L 274.247684 -108.448015 
L 273.43852 -109.257179 
L 272.629356 -110.066343 
L 271.820192 -110.875507 
L 271.011027 -111.684671 
L 270.201863 -112.493835 
L 269.392699 -113.302999 
L 268.583535 -114.112163 
L 267.774371 -114.921327 
L 266.965207 -115.730491 
L 266.156043 -116.539656 
L 265.346879 -117.34882 
L 264.537715 -118.157984 
L 263.728551 -118.967148 
L 262.919387 -119.776312 
L 262.110223 -120.585476 
L 261.301058 -121.39464 
L 260.491894 -122.203804 
L 259.68273 -123.012968 
L 258.873566 -123.822132 
L 258.064402 -124.631296 
L 257.255238 -125.440461 
L 256.446074 -126.249625 
L 255.63691 -127.058789 
L 254.827746 -127.867953 
L 254.018582 -128.677117 
L 253.209418 -129.486281 
L 252.400253 -130.295445 
L 251.591089 -131.104609 
L 250.781925 -131.913773 
L 249.972761 -132.722937 
L 249.163597 -133.532101 
L 248.354433 -134.341265 
L 247.545269 -135.15043 
L 246.736105 -135.959594 
L 245.926941 -136.768758 
L 245.117777 -137.577922 
L 244.308613 -138.387086 
L 243.499449 -139.19625 
L 242.690284 -140.005414 
L 241.88112 -140.814578 
L 241.071956 -141.623742 
L 240.262792 -142.432906 
L 239.453628 -143.24207 
L 238.644464 -144.051235 
L 237.8353 -144.860399 
L 237.026136 -145.669563 
L 236.216972 -146.478727 
L 235.407808 -147.287891 
L 234.598644 -148.097055 
L 233.789479 -148.906219 
L 232.980315 -149.715383 
L 232.171151 -150.524547 
L 231.361987 -151.333711 
L 230.552823 -152.142875 
L 229.743659 -152.952039 
L 228.934495 -153.761204 
L 228.125331 -154.570368 
L 227.316167 -155.379532 
L 226.507003 -156.188696 
L 225.697839 -156.99786 
L 224.888675 -157.807024 
L 224.07951 -158.616188 
L 223.270346 -159.425352 
L 222.461182 -160.234516 
L 221.652018 -161.04368 
L 220.842854 -161.852844 
L 220.03369 -162.662009 
L 219.224526 -163.471173 
L 218.415362 -164.280337 
L 217.606198 -165.089501 
L 216.797034 -165.898665 
L 215.98787 -166.707829 
L 215.178705 -167.516993 
L 214.369541 -168.326157 
L 213.560377 -169.135321 
L 212.751213 -169.944485 
L 211.942049 -170.753649 
L 211.132885 -171.562813 
L 210.323721 -172.371978 
L 209.514557 -173.181142 
L 208.705393 -173.990306 
L 207.896229 -174.79947 
L 207.087065 -175.608634 
L 206.277901 -176.417798 
L 205.468736 -177.226962 
L 204.659572 -178.036126 
L 203.850408 -178.84529 
L 203.041244 -179.654454 
L 202.23208 -180.463618 
L 201.422916 -181.272783 
L 200.613752 -182.081947 
L 199.804588 -182.891111 
L 198.995424 -183.700275 
L 198.18626 -184.509439 
L 197.377096 -185.318603 
L 196.567932 -186.127767 
L 195.758767 -186.936931 
L 194.949603 -187.746095 
L 194.140439 -188.555259 
L 193.331275 -189.364423 
L 192.522111 -190.173587 
L 191.712947 -190.982752 
L 190.903783 -191.791916 
L 190.094619 -192.60108 
L 189.285455 -193.410244 
L 188.476291 -194.219408 
L 187.667127 -195.028572 
L 186.857962 -195.837736 
L 186.048798 -196.6469 
L 185.239634 -197.456064 
L 184.43047 -198.265228 
L 183.621306 -199.074392 
L 182.812142 -199.883557 
L 182.002978 -200.692721 
L 181.193814 -201.501885 
L 180.38465 -202.311049 
L 179.575486 -203.120213 
L 178.766322 -203.929377 
L 177.957158 -204.738541 
L 177.147993 -205.547705 
L 176.338829 -206.356869 
L 175.529665 -207.166033 
L 174.720501 -207.975197 
L 173.911337 -208.784361 
L 173.102173 -209.593526 
L 172.293009 -210.40269 
L 171.483845 -211.211854 
L 170.674681 -212.021018 
L 169.865517 -212.830182 
L 169.056353 -213.639346 
L 168.247188 -214.44851 
L 167.438024 -215.257674 
L 166.62886 -216.066838 
L 165.819696 -216.876002 
L 165.010532 -217.685166 
L 164.201368 -218.49433 
L 163.392204 -219.303495 
L 162.58304 -220.112659 
L 161.773876 -220.921823 
L 160.964712 -221.730987 
L 160.155548 -222.540151 
L 159.346384 -223.349315 
L 158.537219 -224.158479 
L 157.728055 -224.967643 
L 156.918891 -225.776807 
L 156.109727 -226.585971 
L 155.300563 -227.395135 
L 154.491399 -228.2043 
L 153.682235 -229.013464 
L 152.873071 -229.822628 
L 152.063907 -230.631792 
L 151.254743 -231.440956 
L 150.445579 -232.25012 
L 149.636414 -233.059284 
L 148.82725 -233.868448 
L 148.018086 -234.677612 
L 147.208922 -235.486776 
L 146.399758 -236.29594 
L 145.590594 -237.105104 
L 144.78143 -237.914269 
L 143.972266 -238.723433 
L 143.163102 -239.532597 
L 142.353938 -240.341761 
L 141.544774 -241.150925 
L 140.73561 -241.960089 
L 139.926445 -242.769253 
L 139.117281 -243.578417 
L 138.308117 -244.387581 
L 137.498953 -245.196745 
L 136.689789 -246.005909 
L 135.880625 -246.815074 
L 135.071461 -247.624238 
L 134.262297 -248.433402 
L 133.453133 -249.242566 
L 132.643969 -250.05173 
L 131.834805 -250.860894 
L 131.02564 -251.670058 
L 130.216476 -252.479222 
L 129.407312 -253.288386 
L 128.598148 -254.09755 
L 127.788984 -254.906714 
L 126.97982 -255.715878 
L 126.170656 -256.525043 
L 125.361492 -257.334207 
L 124.552328 -258.143371 
L 123.743164 -258.952535 
L 122.934 -259.761699 
L 122.124836 -260.570863 
L 121.315671 -261.380027 
L 120.506507 -262.189191 
L 119.697343 -262.998355 
L 118.888179 -263.807519 
L 118.079015 -264.616683 
L 117.269851 -265.425848 
L 116.460687 -266.235012 
L 115.651523 -267.044176 
L 114.842359 -267.85334 
L 114.033195 -268.662504 
L 113.224031 -269.471668 
L 112.414866 -270.280832 
L 111.605702 -271.089996 
L 110.796538 -271.89916 
L 109.987374 -272.708324 
L 109.17821 -273.517488 
L 108.369046 -274.326652 
L 107.559882 -275.135817 
L 106.750718 -275.944981 
L 105.941554 -276.754145 
L 105.13239 -277.563309 
L 104.323226 -278.372473 
L 103.514062 -279.181637 
L 102.704897 -279.990801 
L 101.895733 -280.799965 
L 101.086569 -281.609129 
L 100.277405 -282.418293 
L 99.468241 -283.227457 
L 98.659077 -284.036622 
L 97.849913 -284.845786 
L 97.040749 -285.65495 
L 96.231585 -286.464114 
L 95.422421 -287.273278 
L 94.613257 -288.082442 
L 93.804092 -288.891606 
L 92.994928 -289.70077 
L 92.185764 -290.509934 
L 91.3766 -291.319098 
L 90.567436 -292.128262 
L 89.758272 -292.937426 
L 88.949108 -293.746591 
L 88.139944 -294.555755 
L 87.33078 -295.364919 
L 86.521616 -296.174083 
L 85.712452 -296.983247 
L 84.903288 -297.792411 
L 84.094123 -298.601575 
L 83.284959 -299.410739 
L 82.475795 -300.219903 
L 81.666631 -301.029067 
L 80.857467 -301.838231 
L 80.048303 -302.647396 
L 79.239139 -303.45656 
L 78.429975 -304.265724 
L 77.620811 -305.074888 
L 76.811647 -305.884052 
L 76.002483 -306.693216 
L 75.193318 -307.50238 
L 74.384154 -308.311544 
L 73.57499 -309.120708 
L 72.765826 -309.929872 
L 71.956662 -310.739036 
L 71.147498 -311.5482 
L 70.338334 -312.357365 
L 69.52917 -313.166529 
L 68.720006 -313.975693 
L 67.910842 -314.784857 
L 67.101678 -315.594021 
L 66.292514 -316.403185 
L 65.483349 -317.212349 
L 64.674185 -318.021513 
L 63.865021 -318.830677 
L 63.055857 -319.639841 
L 62.246693 -320.449005 
L 61.437529 -321.25817 
L 60.628365 -322.067334 
L 59.819201 -322.876498 
L 59.010037 -323.685662 
L 58.200873 -324.494826 
L 57.391709 -325.30399 
L 56.582545 -326.113154 
L 55.77338 -326.922318 
L 54.964216 -327.731482 
L 54.155052 -328.540646 
L 53.345888 -329.34981 
L 52.536724 -330.158974 
L 51.72756 -330.968139 
L 50.918396 -331.777303 
L 50.109232 -332.586467 
L 49.300068 -333.395631 
L 48.490904 -334.204795 
L 47.68174 -335.013959 
L 46.872575 -335.823123 
L 46.063411 -336.632287 
L 45.254247 -337.441451 
L 44.445083 -338.250615 
L 43.635919 -339.059779 
L 42.826755 -339.868943 
L 42.017591 -340.678108 
L 41.208427 -341.487272 
L 40.399263 -342.296436 
L 39.590099 -343.1056 
L 38.780935 -343.914764 
L 37.971771 -344.723928 
L 37.162606 -345.533092 
L 36.353442 -346.342256 
L 35.544278 -347.15142 
L 34.735114 -347.960584 
L 33.92595 -348.769748 
L 33.116786 -349.578913 
L 32.307622 -350.388077 
L 31.498458 -351.197241 
L 30.689294 -352.006405 
L 29.88013 -352.815569 
L 29.070966 -353.624733 
L 28.261801 -354.433897 
z
" style="stroke: #e6f4ea; stroke-opacity: 0.9"/>
    </defs>
    <g clip-path="url(#pafa5fe99b0)">
     <use xlink:href="#m31835145a7" x="0" y="364.034531" style="fill: #e6f4ea; fill-opacity: 0.9; stroke: #e6f4ea; stroke-opacity: 0.9"/>
    </g>
   </g>
   <g id="matplotlib.axis_1">
    <g id="xtick_1">
     <g id="line2d_1">
      <path d="M 40.219449 326.478281 
L 40.219449 21.558281 
" clip-path="url(#pafa5fe99b0)" style="fill: none; stroke: #b0b0b0; stroke-opacity: 0.15; stroke-width: 0.8; stroke-linecap: square"/>
     </g>
     <g id="line2d_2">
      <defs>
       <path id="m6d40743a90" d="M 0 0 
L 0 3.5 
" style="stroke: #000000; stroke-width: 0.8"/>
      </defs>
      <g>
       <use xlink:href="#m6d40743a90" x="40.219449" y="326.478281" style="stroke: #000000; stroke-width: 0.8"/>
      </g>
     </g>
     <g id="text_1">
      <!-- 0 -->
      <g transform="translate(37.038199 341.076719) scale(0.1 -0.1)">
       <defs>
        <path id="DejaVuSans-30" d="M 2034 4250 
Q 1547 4250 1301 3770 
Q 1056 3291 1056 2328 
Q 1056 1369 1301 889 
Q 1547 409 2034 409 
Q 2525 409 2770 889 
Q 3016 1369 3016 2328 
Q 3016 3291 2770 3770 
Q 2525 4250 2034 4250 
z
M 2034 4750 
Q 2819 4750 3233 4129 
Q 3647 3509 3647 2328 
Q 3647 1150 3233 529 
Q 2819 -91 2034 -91 
Q 1250 -91 836 529 
Q 422 1150 422 2328 
Q 422 3509 836 4129 
Q 1250 4750 2034 4750 
z
" transform="scale(0.015625)"/>
       </defs>
       <use xlink:href="#DejaVuSans-30"/>
      </g>
     </g>
    </g>
    <g id="xtick_2">
     <g id="line2d_3">
      <path d="M 100.007684 326.478281 
L 100.007684 21.558281 
" clip-path="url(#pafa5fe99b0)" style="fill: none; stroke: #b0b0b0; stroke-opacity: 0.15; stroke-width: 0.8; stroke-linecap: square"/>
     </g>
     <g id="line2d_4">
      <g>
       <use xlink:href="#m6d40743a90" x="100.007684" y="326.478281" style="stroke: #000000; stroke-width: 0.8"/>
      </g>
     </g>
     <g id="text_2">
      <!-- 1 -->
      <g transform="translate(96.826434 341.076719) scale(0.1 -0.1)">
       <defs>
        <path id="DejaVuSans-31" d="M 794 531 
L 1825 531 
L 1825 4091 
L 703 3866 
L 703 4441 
L 1819 4666 
L 2450 4666 
L 2450 531 
L 3481 531 
L 3481 0 
L 794 0 
L 794 531 
z
" transform="scale(0.015625)"/>
       </defs>
       <use xlink:href="#DejaVuSans-31"/>
      </g>
     </g>
    </g>
    <g id="xtick_3">
     <g id="line2d_5">
      <path d="M 159.795919 326.478281 
L 159.795919 21.558281 
" clip-path="url(#pafa5fe99b0)" style="fill: none; stroke: #b0b0b0; stroke-opacity: 0.15; stroke-width: 0.8; stroke-linecap: square"/>
     </g>
     <g id="line2d_6">
      <g>
       <use xlink:href="#m6d40743a90" x="159.795919" y="326.478281" style="stroke: #000000; stroke-width: 0.8"/>
      </g>
     </g>
     <g id="text_3">
      <!-- 2 -->
      <g transform="translate(156.614669 341.076719) scale(0.1 -0.1)">
       <defs>
        <path id="DejaVuSans-32" d="M 1228 531 
L 3431 531 
L 3431 0 
L 469 0 
L 469 531 
Q 828 903 1448 1529 
Q 2069 2156 2228 2338 
Q 2531 2678 2651 2914 
Q 2772 3150 2772 3378 
Q 2772 3750 2511 3984 
Q 2250 4219 1831 4219 
Q 1534 4219 1204 4116 
Q 875 4013 500 3803 
L 500 4441 
Q 881 4594 1212 4672 
Q 1544 4750 1819 4750 
Q 2544 4750 2975 4387 
Q 3406 4025 3406 3419 
Q 3406 3131 3298 2873 
Q 3191 2616 2906 2266 
Q 2828 2175 2409 1742 
Q 1991 1309 1228 531 
z
" transform="scale(0.015625)"/>
       </defs>
       <use xlink:href="#DejaVuSans-32"/>
      </g>
     </g>
    </g>
    <g id="xtick_4">
     <g id="line2d_7">
      <path d="M 219.584154 326.478281 
L 219.584154 21.558281 
" clip-path="url(#pafa5fe99b0)" style="fill: none; stroke: #b0b0b0; stroke-opacity: 0.15; stroke-width: 0.8; stroke-linecap: square"/>
     </g>
     <g id="line2d_8">
      <g>
       <use xlink:href="#m6d40743a90" x="219.584154" y="326.478281" style="stroke: #000000; stroke-width: 0.8"/>
      </g>
     </g>
     <g id="text_4">
      <!-- 3 -->
      <g transform="translate(216.402904 341.076719) scale(0.1 -0.1)">
       <defs>
        <path id="DejaVuSans-33" d="M 2597 2516 
Q 3050 2419 3304 2112 
Q 3559 1806 3559 1356 
Q 3559 666 3084 287 
Q 2609 -91 1734 -91 
Q 1441 -91 1130 -33 
Q 819 25 488 141 
L 488 750 
Q 750 597 1062 519 
Q 1375 441 1716 441 
Q 2309 441 2620 675 
Q 2931 909 2931 1356 
Q 2931 1769 2642 2001 
Q 2353 2234 1838 2234 
L 1294 2234 
L 1294 2753 
L 1863 2753 
Q 2328 2753 2575 2939 
Q 2822 3125 2822 3475 
Q 2822 3834 2567 4026 
Q 2313 4219 1838 4219 
Q 1578 4219 1281 4162 
Q 984 4106 628 3988 
L 628 4550 
Q 988 4650 1302 4700 
Q 1616 4750 1894 4750 
Q 2613 4750 3031 4423 
Q 3450 4097 3450 3541 
Q 3450 3153 3228 2886 
Q 3006 2619 2597 2516 
z
" transform="scale(0.015625)"/>
       </defs>
       <use xlink:href="#DejaVuSans-33"/>
      </g>
     </g>
    </g>
    <g id="xtick_5">
     <g id="line2d_9">
      <path d="M 279.37239 326.478281 
L 279.37239 21.558281 
" clip-path="url(#pafa5fe99b0)" style="fill: none; stroke: #b0b0b0; stroke-opacity: 0.15; stroke-width: 0.8; stroke-linecap: square"/>
     </g>
     <g id="line2d_10">
      <g>
       <use xlink:href="#m6d40743a90" x="279.37239" y="326.478281" style="stroke: #000000; stroke-width: 0.8"/>
      </g>
     </g>
     <g id="text_5">
      <!-- 4 -->
      <g transform="translate(276.19114 341.076719) scale(0.1 -0.1)">
       <defs>
        <path id="DejaVuSans-34" d="M 2419 4116 
L 825 1625 
L 2419 1625 
L 2419 4116 
z
M 2253 4666 
L 3047 4666 
L 3047 1625 
L 3713 1625 
L 3713 1100 
L 3047 1100 
L 3047 0 
L 2419 0 
L 2419 1100 
L 313 1100 
L 313 1709 
L 2253 4666 
z
" transform="scale(0.015625)"/>
       </defs>
       <use xlink:href="#DejaVuSans-34"/>
      </g>
     </g>
    </g>
    <g id="xtick_6">
     <g id="line2d_11">
      <path d="M 339.160625 326.478281 
L 339.160625 21.558281 
" clip-path="url(#pafa5fe99b0)" style="fill: none; stroke: #b0b0b0; stroke-opacity: 0.15; stroke-width: 0.8; stroke-linecap: square"/>
     </g>
     <g id="line2d_12">
      <g>
       <use xlink:href="#m6d40743a90" x="339.160625" y="326.478281" style="stroke: #000000; stroke-width: 0.8"/>
      </g>
     </g>
     <g id="text_6">
      <!-- 5 -->
      <g transform="translate(335.979375 341.076719) scale(0.1 -0.1)">
       <defs>
        <path id="DejaVuSans-35" d="M 691 4666 
L 3169 4666 
L 3169 4134 
L 1269 4134 
L 1269 2991 
Q 1406 3038 1543 3061 
Q 1681 3084 1819 3084 
Q 2600 3084 3056 2656 
Q 3513 2228 3513 1497 
Q 3513 744 3044 326 
Q 2575 -91 1722 -91 
Q 1428 -91 1123 -41 
Q 819 9 494 109 
L 494 744 
Q 775 591 1075 516 
Q 1375 441 1709 441 
Q 2250 441 2565 725 
Q 2881 1009 2881 1497 
Q 2881 1984 2565 2268 
Q 2250 2553 1709 2553 
Q 1456 2553 1204 2497 
Q 953 2441 691 2322 
L 691 4666 
z
" transform="scale(0.015625)"/>
       </defs>
       <use xlink:href="#DejaVuSans-35"/>
      </g>
     </g>
    </g>
    <g id="text_7">
     <!-- $x_1$ -->
     <g transform="translate(181.350625 354.754844) scale(0.1 -0.1)">
      <defs>
       <path id="DejaVuSans-Oblique-78" d="M 3841 3500 
L 2234 1784 
L 3219 0 
L 2559 0 
L 1819 1388 
L 531 0 
L -166 0 
L 1556 1844 
L 641 3500 
L 1300 3500 
L 1972 2234 
L 3144 3500 
L 3841 3500 
z
" transform="scale(0.015625)"/>
      </defs>
      <use xlink:href="#DejaVuSans-Oblique-78" transform="translate(0 0.3125)"/>
      <use xlink:href="#DejaVuSans-31" transform="translate(59.179688 -16.09375) scale(0.7)"/>
     </g>
    </g>
   </g>
   <g id="matplotlib.axis_2">
    <g id="ytick_1">
     <g id="line2d_13">
      <path d="M 34.240625 320.499458 
L 339.160625 320.499458 
" clip-path="url(#pafa5fe99b0)" style="fill: none; stroke: #b0b0b0; stroke-opacity: 0.15; stroke-width: 0.8; stroke-linecap: square"/>
     </g>
     <g id="line2d_14">
      <defs>
       <path id="mec00f74263" d="M 0 0 
L -3.5 0 
" style="stroke: #000000; stroke-width: 0.8"/>
      </defs>
      <g>
       <use xlink:href="#mec00f74263" x="34.240625" y="320.499458" style="stroke: #000000; stroke-width: 0.8"/>
      </g>
     </g>
     <g id="text_8">
      <!-- 0 -->
      <g transform="translate(20.878125 324.298676) scale(0.1 -0.1)">
       <use xlink:href="#DejaVuSans-30"/>
      </g>
     </g>
    </g>
    <g id="ytick_2">
     <g id="line2d_15">
      <path d="M 34.240625 260.711222 
L 339.160625 260.711222 
" clip-path="url(#pafa5fe99b0)" style="fill: none; stroke: #b0b0b0; stroke-opacity: 0.15; stroke-width: 0.8; stroke-linecap: square"/>
     </g>
     <g id="line2d_16">
      <g>
       <use xlink:href="#mec00f74263" x="34.240625" y="260.711222" style="stroke: #000000; stroke-width: 0.8"/>
      </g>
     </g>
     <g id="text_9">
      <!-- 1 -->
      <g transform="translate(20.878125 264.510441) scale(0.1 -0.1)">
       <use xlink:href="#DejaVuSans-31"/>
      </g>
     </g>
    </g>
    <g id="ytick_3">
     <g id="line2d_17">
      <path d="M 34.240625 200.922987 
L 339.160625 200.922987 
" clip-path="url(#pafa5fe99b0)" style="fill: none; stroke: #b0b0b0; stroke-opacity: 0.15; stroke-width: 0.8; stroke-linecap: square"/>
     </g>
     <g id="line2d_18">
      <g>
       <use xlink:href="#mec00f74263" x="34.240625" y="200.922987" style="stroke: #000000; stroke-width: 0.8"/>
      </g>
     </g>
     <g id="text_10">
      <!-- 2 -->
      <g transform="translate(20.878125 204.722206) scale(0.1 -0.1)">
       <use xlink:href="#DejaVuSans-32"/>
      </g>
     </g>
    </g>
    <g id="ytick_4">
     <g id="line2d_19">
      <path d="M 34.240625 141.134752 
L 339.160625 141.134752 
" clip-path="url(#pafa5fe99b0)" style="fill: none; stroke: #b0b0b0; stroke-opacity: 0.15; stroke-width: 0.8; stroke-linecap: square"/>
     </g>
     <g id="line2d_20">
      <g>
       <use xlink:href="#mec00f74263" x="34.240625" y="141.134752" style="stroke: #000000; stroke-width: 0.8"/>
      </g>
     </g>
     <g id="text_11">
      <!-- 3 -->
      <g transform="translate(20.878125 144.933971) scale(0.1 -0.1)">
       <use xlink:href="#DejaVuSans-33"/>
      </g>
     </g>
    </g>
    <g id="ytick_5">
     <g id="line2d_21">
      <path d="M 34.240625 81.346517 
L 339.160625 81.346517 
" clip-path="url(#pafa5fe99b0)" style="fill: none; stroke: #b0b0b0; stroke-opacity: 0.15; stroke-width: 0.8; stroke-linecap: square"/>
     </g>
     <g id="line2d_22">
      <g>
       <use xlink:href="#mec00f74263" x="34.240625" y="81.346517" style="stroke: #000000; stroke-width: 0.8"/>
      </g>
     </g>
     <g id="text_12">
      <!-- 4 -->
      <g transform="translate(20.878125 85.145735) scale(0.1 -0.1)">
       <use xlink:href="#DejaVuSans-34"/>
      </g>
     </g>
    </g>
    <g id="ytick_6">
     <g id="line2d_23">
      <path d="M 34.240625 21.558281 
L 339.160625 21.558281 
" clip-path="url(#pafa5fe99b0)" style="fill: none; stroke: #b0b0b0; stroke-opacity: 0.15; stroke-width: 0.8; stroke-linecap: square"/>
     </g>
     <g id="line2d_24">
      <g>
       <use xlink:href="#mec00f74263" x="34.240625" y="21.558281" style="stroke: #000000; stroke-width: 0.8"/>
      </g>
     </g>
     <g id="text_13">
      <!-- 5 -->
      <g transform="translate(20.878125 25.3575) scale(0.1 -0.1)">
       <use xlink:href="#DejaVuSans-35"/>
      </g>
     </g>
    </g>
    <g id="text_14">
     <!-- $x_2$ -->
     <g transform="translate(14.798438 179.368281) rotate(-90) scale(0.1 -0.1)">
      <use xlink:href="#DejaVuSans-Oblique-78" transform="translate(0 0.3125)"/>
      <use xlink:href="#DejaVuSans-32" transform="translate(59.179688 -16.09375) scale(0.7)"/>
     </g>
    </g>
   </g>
   <g id="QuadContourSet_1">
    <path d="M 292.049294 117.315104 
L 291.335745 117.219458 
L 291.24013 117.206391 
L 290.430966 117.080014 
L 289.621801 116.93784 
L 288.812637 116.779868 
L 288.003473 116.6061 
L 287.194309 116.416534 
L 287.169719 116.410294 
L 286.385145 116.207207 
L 285.575981 115.981644 
L 284.766817 115.739968 
L 284.331017 115.60113 
L 283.957653 115.479765 
L 283.148489 115.200302 
L 282.339325 114.9044 
L 282.048047 114.791965 
L 281.530161 114.587914 
L 280.720997 114.252316 
L 280.102112 113.982801 
L 279.911832 113.898183 
L 279.102668 113.521208 
L 278.389058 113.173637 
L 278.293504 113.12609 
L 277.48434 112.705947 
L 276.852992 112.364473 
L 276.675176 112.266172 
L 275.866012 111.800952 
L 275.454585 111.555309 
L 275.056848 111.31247 
L 274.247684 110.800134 
L 274.165355 110.746145 
L 273.43852 110.258474 
L 272.975332 109.936981 
L 272.629356 109.691156 
L 271.862084 109.127817 
L 271.820192 109.096313 
L 271.011027 108.468175 
L 270.824251 108.318653 
L 270.201863 107.80802 
L 269.848699 107.509489 
L 269.392699 107.114203 
L 268.928893 106.700325 
L 268.583535 106.384082 
L 268.060187 105.891161 
L 267.774371 105.61473 
L 267.238438 105.081996 
L 266.965207 104.802898 
L 266.45994 104.272832 
L 266.156043 103.944969 
L 265.721364 103.463668 
L 265.346879 103.036901 
L 265.019717 102.654504 
L 264.537715 102.074167 
L 264.352297 101.84534 
L 263.728551 101.051677 
L 263.716658 101.036176 
L 263.115137 100.227012 
L 262.919387 99.954977 
L 262.54187 99.417848 
L 262.110223 98.782686 
L 261.99466 98.608684 
L 261.475651 97.79952 
L 261.301058 97.517321 
L 260.982277 96.990356 
L 260.510764 96.181191 
L 260.491894 96.147526 
L 260.066681 95.372027 
L 259.68273 94.642872 
L 259.641496 94.562863 
L 259.241697 93.753699 
L 258.873566 92.975104 
L 258.859414 92.944535 
L 258.501659 92.135371 
L 258.160761 91.326207 
L 258.064402 91.085588 
L 257.841367 90.517043 
L 257.540454 89.707879 
L 257.256053 88.898715 
L 257.255238 88.896251 
L 256.993508 88.089551 
L 256.747163 87.280387 
L 256.517001 86.471222 
L 256.446074 86.203012 
L 256.305827 85.662058 
L 256.111909 84.852894 
L 255.933858 84.04373 
L 255.771673 83.234566 
L 255.63691 82.489312 
L 255.625575 82.425402 
L 255.497631 81.616238 
L 255.385247 80.807074 
L 255.288424 79.99791 
L 255.207161 79.188746 
L 255.14146 78.379582 
L 255.09132 77.570417 
L 255.05674 76.761253 
L 255.037721 75.952089 
L 255.034263 75.142925 
L 255.046366 74.333761 
L 255.07403 73.524597 
L 255.117254 72.715433 
L 255.17604 71.906269 
L 255.250386 71.097105 
L 255.340293 70.287941 
L 255.445761 69.478777 
L 255.56679 68.669613 
L 255.63691 68.254219 
L 255.704683 67.860448 
L 255.859817 67.051284 
L 256.030817 66.24212 
L 256.217682 65.432956 
L 256.420414 64.623792 
L 256.446074 64.52881 
L 256.642871 63.814628 
L 256.882024 63.005464 
L 257.13736 62.1963 
L 257.255238 61.845007 
L 257.412015 61.387136 
L 257.705589 60.577972 
L 258.015677 59.768808 
L 258.064402 59.64809 
L 258.348067 58.959643 
L 258.698331 58.150479 
L 258.873566 57.764246 
L 259.069534 57.341315 
L 259.461682 56.532151 
L 259.68273 56.095219 
L 259.87514 55.722987 
L 260.310994 54.913823 
L 260.491894 54.59101 
L 260.770495 54.104659 
L 261.251998 53.295495 
L 261.301058 53.216017 
L 261.761719 52.486331 
L 262.110223 51.953484 
L 262.295148 51.677167 
L 262.855499 50.868003 
L 262.919387 50.778745 
L 263.446937 50.058839 
L 263.728551 49.686636 
L 264.067225 49.249674 
L 264.537715 48.661164 
L 264.718528 48.44051 
L 265.346879 47.696411 
L 265.403231 47.631346 
L 266.124793 46.822182 
L 266.156043 46.788118 
L 266.885815 46.013018 
L 266.965207 45.930988 
L 267.687974 45.203854 
L 267.774371 45.119236 
L 268.534697 44.39469 
L 268.583535 44.34935 
L 269.392699 43.619016 
L 269.430895 43.585526 
L 270.201863 42.926542 
L 270.382889 42.776362 
L 271.011027 42.268031 
L 271.394381 41.967198 
L 271.820192 41.641045 
L 272.471132 41.158034 
L 272.629356 41.043373 
L 273.43852 40.475907 
L 273.625912 40.348869 
L 274.247684 39.936985 
L 274.868828 39.539705 
L 275.056848 39.422135 
L 275.866012 38.934227 
L 276.216803 38.730541 
L 276.675176 38.470203 
L 277.48434 38.028306 
L 277.688296 37.921377 
L 278.293504 37.610867 
L 279.102668 37.213012 
L 279.316992 37.112213 
L 279.911832 36.83831 
L 280.720997 36.482654 
L 281.150053 36.303049 
L 281.530161 36.147196 
L 282.339325 35.832009 
L 283.148489 35.533411 
L 283.261901 35.493885 
L 283.957653 35.256273 
L 284.766817 34.996185 
L 285.575981 34.752352 
L 285.816447 34.684721 
L 286.385145 34.527924 
L 287.194309 34.320764 
L 288.003473 34.129539 
L 288.812637 33.95425 
L 289.212225 33.875557 
L 289.621801 33.796454 
L 290.430966 33.655805 
L 291.24013 33.530784 
L 292.049294 33.421391 
L 292.858458 33.327625 
L 293.667622 33.249487 
L 294.476786 33.186976 
L 295.28595 33.140093 
L 296.095114 33.108838 
L 296.904278 33.09321 
L 297.713442 33.09321 
L 298.522606 33.108838 
L 299.331771 33.140093 
L 300.140935 33.186976 
L 300.950099 33.249487 
L 301.759263 33.327625 
L 302.568427 33.421391 
L 303.377591 33.530784 
L 304.186755 33.655805 
L 304.995919 33.796454 
L 305.405496 33.875557 
L 305.805083 33.95425 
L 306.614247 34.129539 
L 307.423411 34.320764 
L 308.232575 34.527924 
L 308.801274 34.684721 
L 309.04174 34.752352 
L 309.850904 34.996185 
L 310.660068 35.256273 
L 311.35582 35.493885 
L 311.469232 35.533411 
L 312.278396 35.832009 
L 313.08756 36.147196 
L 313.467667 36.303049 
L 313.896724 36.482654 
L 314.705888 36.83831 
L 315.300728 37.112213 
L 315.515052 37.213012 
L 316.324216 37.610867 
L 316.929424 37.921377 
L 317.13338 38.028306 
L 317.942545 38.470203 
L 318.400917 38.730541 
L 318.751709 38.934227 
L 319.560873 39.422135 
L 319.748893 39.539705 
L 320.370037 39.936985 
L 320.991808 40.348869 
L 321.179201 40.475907 
L 321.988365 41.043373 
L 322.146589 41.158034 
L 322.797529 41.641045 
L 323.223339 41.967198 
L 323.606693 42.268031 
L 324.234832 42.776362 
L 324.415857 42.926542 
L 325.186825 43.585526 
L 325.225021 43.619016 
L 326.034185 44.34935 
L 326.083024 44.39469 
L 326.843349 45.119236 
L 326.929747 45.203854 
L 327.652514 45.930988 
L 327.731905 46.013018 
L 328.461678 46.788118 
L 328.492927 46.822182 
L 329.21449 47.631346 
L 329.270842 47.696411 
L 329.899193 48.44051 
L 330.080006 48.661164 
L 330.550495 49.249674 
L 330.88917 49.686636 
L 331.170784 50.058839 
L 331.698334 50.778745 
L 331.762221 50.868003 
L 332.322573 51.677167 
L 332.507498 51.953484 
L 332.856002 52.486331 
L 333.316662 53.216017 
L 333.365723 53.295495 
L 333.847225 54.104659 
L 334.125826 54.59101 
L 334.306726 54.913823 
L 334.74258 55.722987 
L 334.93499 56.095219 
L 335.156039 56.532151 
L 335.548187 57.341315 
L 335.744154 57.764246 
L 335.91939 58.150479 
L 336.269653 58.959643 
L 336.553318 59.64809 
L 336.602044 59.768808 
L 336.912131 60.577972 
L 337.205706 61.387136 
L 337.362483 61.845007 
L 337.480361 62.1963 
L 337.735697 63.005464 
L 337.97485 63.814628 
L 338.171647 64.52881 
L 338.197306 64.623792 
L 338.400038 65.432956 
L 338.586904 66.24212 
L 338.757904 67.051284 
L 338.913038 67.860448 
L 338.980811 68.254219 
L 339.050931 68.669613 
L 339.171959 69.478777 
L 339.277427 70.287941 
L 339.367335 71.097105 
L 339.441681 71.906269 
L 339.500466 72.715433 
L 339.543691 73.524597 
L 339.571355 74.333761 
L 339.583457 75.142925 
L 339.579999 75.952089 
L 339.560981 76.761253 
L 339.526401 77.570417 
L 339.47626 78.379582 
L 339.410559 79.188746 
L 339.329297 79.99791 
L 339.232474 80.807074 
L 339.12009 81.616238 
L 338.992145 82.425402 
L 338.980811 82.489312 
L 338.846048 83.234566 
L 338.683863 84.04373 
L 338.505811 84.852894 
L 338.311894 85.662058 
L 338.171647 86.203012 
L 338.10072 86.471222 
L 337.870558 87.280387 
L 337.624212 88.089551 
L 337.362483 88.896251 
L 337.361667 88.898715 
L 337.077267 89.707879 
L 336.776353 90.517043 
L 336.553318 91.085588 
L 336.45696 91.326207 
L 336.116062 92.135371 
L 335.758306 92.944535 
L 335.744154 92.975104 
L 335.376024 93.753699 
L 334.976224 94.562863 
L 334.93499 94.642872 
L 334.551039 95.372027 
L 334.125826 96.147526 
L 334.106957 96.181191 
L 333.635444 96.990356 
L 333.316662 97.517321 
L 333.14207 97.79952 
L 332.623061 98.608684 
L 332.507498 98.782686 
L 332.075851 99.417848 
L 331.698334 99.954977 
L 331.502584 100.227012 
L 330.901062 101.036176 
L 330.88917 101.051677 
L 330.265424 101.84534 
L 330.080006 102.074167 
L 329.598004 102.654504 
L 329.270842 103.036901 
L 328.896357 103.463668 
L 328.461678 103.944969 
L 328.157781 104.272832 
L 327.652514 104.802898 
L 327.379282 105.081996 
L 326.843349 105.61473 
L 326.557534 105.891161 
L 326.034185 106.384082 
L 325.688828 106.700325 
L 325.225021 107.114203 
L 324.769022 107.509489 
L 324.415857 107.80802 
L 323.79347 108.318653 
L 323.606693 108.468175 
L 322.797529 109.096313 
L 322.755637 109.127817 
L 321.988365 109.691156 
L 321.642389 109.936981 
L 321.179201 110.258474 
L 320.452366 110.746145 
L 320.370037 110.800134 
L 319.560873 111.31247 
L 319.163135 111.555309 
L 318.751709 111.800952 
L 317.942545 112.266172 
L 317.764728 112.364473 
L 317.13338 112.705947 
L 316.324216 113.12609 
L 316.228663 113.173637 
L 315.515052 113.521208 
L 314.705888 113.898183 
L 314.515609 113.982801 
L 313.896724 114.252316 
L 313.08756 114.587914 
L 312.569674 114.791965 
L 312.278396 114.9044 
L 311.469232 115.200302 
L 310.660068 115.479765 
L 310.286703 115.60113 
L 309.850904 115.739968 
L 309.04174 115.981644 
L 308.232575 116.207207 
L 307.448001 116.410294 
L 307.423411 116.416534 
L 306.614247 116.6061 
L 305.805083 116.779868 
L 304.995919 116.93784 
L 304.186755 117.080014 
L 303.377591 117.206391 
L 303.281975 117.219458 
L 302.568427 117.315104 
L 301.759263 117.408071 
L 300.950099 117.485545 
L 300.140935 117.547523 
L 299.331771 117.594007 
L 298.522606 117.624996 
L 297.713442 117.640491 
L 296.904278 117.640491 
L 296.095114 117.624996 
L 295.28595 117.594007 
L 294.476786 117.547523 
L 293.667622 117.485545 
L 292.858458 117.408071 
L 292.049294 117.315104 
z
" clip-path="url(#pafa5fe99b0)" style="fill: none; stroke: #2d6a9f"/>
    <path d="M 351.118272 112.7033 
L 348.69078 115.979207 
L 346.263288 118.876245 
L 343.835795 121.461983 
L 341.408303 123.790101 
L 338.171647 126.550008 
L 334.93499 128.974323 
L 331.698334 131.10668 
L 328.461678 132.977574 
L 325.225021 134.613655 
L 321.988365 136.033652 
L 318.174901 137.44856 
L 314.705888 138.508512 
L 310.660068 139.485877 
L 306.614247 140.196798 
L 302.568427 140.650692 
L 298.522606 140.850364 
L 294.476786 140.800552 
L 290.430966 140.499394 
L 286.385145 139.944634 
L 282.339325 139.128392 
L 279.023728 138.257724 
L 275.056848 136.965178 
L 271.820192 135.698433 
L 268.553081 134.211904 
L 265.346879 132.533649 
L 262.110223 130.598596 
L 258.873566 128.397769 
L 255.63691 125.893689 
L 253.102846 123.69277 
L 250.587859 121.265278 
L 248.320247 118.837786 
L 245.630255 115.60113 
L 243.265697 112.364473 
L 241.071956 108.93631 
L 239.362229 105.891161 
L 237.769456 102.654504 
L 236.216972 98.972329 
L 234.945201 95.372027 
L 233.78812 91.326207 
L 232.907047 87.280387 
L 232.288936 83.234566 
L 231.926743 79.188746 
L 231.815747 75.142925 
L 231.954492 71.097105 
L 232.345128 67.051284 
L 232.991475 63.005464 
L 233.903368 58.959643 
L 235.091154 54.913823 
L 236.249105 51.677167 
L 237.8353 47.939589 
L 239.453628 44.672675 
L 241.071956 41.798921 
L 243.021472 38.730541 
L 245.352105 35.493885 
L 248.004835 32.257229 
L 250.781925 29.273623 
L 253.600356 26.59308 
L 256.4691 24.165588 
L 259.713622 21.738095 
L 262.919387 19.629309 
L 266.276248 17.692275 
L 269.49267 16.073947 
L 273.243138 14.455619 
L 276.675176 13.209442 
L 280.720997 12.008503 
L 284.766817 11.085761 
L 288.94575 10.409798 
L 292.858458 10.025591 
L 296.904278 9.875333 
L 300.950099 9.975505 
L 304.995919 10.326106 
L 309.04174 10.93362 
L 313.08756 11.803073 
L 316.785719 12.837291 
L 320.370037 14.068603 
L 323.606693 15.385189 
L 326.843349 16.910424 
L 330.080006 18.662248 
L 333.720634 20.928931 
L 336.553318 22.934223 
L 339.789975 25.520218 
L 342.758827 28.211408 
L 345.454123 30.966843 
L 347.983217 33.875557 
L 350.468754 37.112213 
L 351.118272 38.030979 
L 351.118272 38.030979 
" clip-path="url(#pafa5fe99b0)" style="fill: none; stroke: #2d6a9f"/>
    <path d="M 351.118272 153.091465 
L 347.072452 155.74189 
L 343.026631 158.110096 
L 338.980811 160.22022 
L 334.93499 162.089633 
L 330.88917 163.735006 
L 326.843349 165.168425 
L 322.149811 166.578467 
L 317.942545 167.621145 
L 313.08756 168.574197 
L 308.232575 169.267171 
L 303.377591 169.705791 
L 298.522606 169.8931 
L 293.667622 169.830974 
L 288.812637 169.517811 
L 283.957653 168.95342 
L 279.102668 168.131201 
L 274.247684 167.044325 
L 269.668591 165.769303 
L 265.346879 164.333417 
L 261.301058 162.774122 
L 257.081418 160.914318 
L 253.209418 158.98388 
L 249.163597 156.721975 
L 245.117777 154.187314 
L 241.071956 151.353841 
L 237.747013 148.776857 
L 233.96622 145.540201 
L 231.361987 143.099384 
L 228.125331 139.789424 
L 224.888675 136.127443 
L 222.06514 132.593575 
L 219.224526 128.6532 
L 216.797034 124.90823 
L 214.666 121.265278 
L 212.54514 117.219458 
L 210.665144 113.173637 
L 209.010032 109.127817 
L 207.567649 105.081996 
L 206.277901 100.859561 
L 205.095964 96.181191 
L 204.132899 91.326207 
L 203.430583 86.471222 
L 202.982331 81.616238 
L 202.786379 76.761253 
L 202.839401 71.906269 
L 203.142261 67.051284 
L 203.69798 62.1963 
L 204.510509 57.341315 
L 205.468736 52.966435 
L 206.692383 48.44051 
L 207.993764 44.39469 
L 209.514557 40.314641 
L 211.224771 36.303049 
L 213.17856 32.257229 
L 215.37751 28.211408 
L 217.843198 24.165588 
L 220.600894 20.119767 
L 223.270346 16.590741 
L 226.411306 12.837291 
L 229.403653 9.600634 
L 229.403653 9.600634 
" clip-path="url(#pafa5fe99b0)" style="fill: none; stroke: #2d6a9f"/>
    <path d="M 351.118272 190.216665 
L 346.01571 192.471718 
L 341.408303 194.283499 
L 336.553318 195.97274 
L 331.698334 197.446072 
L 326.843349 198.710419 
L 321.988365 199.773303 
L 316.324216 200.763639 
L 310.660068 201.492676 
L 304.995919 201.964017 
L 299.321781 202.181687 
L 293.667622 202.145302 
L 288.003473 201.855246 
L 282.339325 201.310997 
L 276.675176 200.507847 
L 271.011027 199.440726 
L 265.469573 198.135866 
L 261.301058 196.978246 
L 256.446074 195.43407 
L 251.591089 193.67057 
L 246.699317 191.662554 
L 241.452722 189.235061 
L 236.754283 186.807569 
L 232.171151 184.192373 
L 227.316167 181.135673 
L 222.666622 177.906764 
L 218.410979 174.670108 
L 214.369541 171.319969 
L 210.323721 167.667673 
L 206.737247 164.150975 
L 202.94075 160.105154 
L 199.459242 156.059334 
L 196.258811 152.013513 
L 193.313309 147.967693 
L 190.087333 143.112708 
L 187.17014 138.257724 
L 184.536045 133.402739 
L 182.167104 128.547755 
L 180.046861 123.69277 
L 178.161572 118.837786 
L 176.500676 113.982801 
L 175.055255 109.127817 
L 173.81686 104.272832 
L 172.780622 99.417848 
L 171.94047 94.562863 
L 171.203301 88.898715 
L 170.72322 83.234566 
L 170.49843 77.570417 
L 170.52649 71.906269 
L 170.80794 66.24212 
L 171.344502 60.577972 
L 172.010075 55.722987 
L 172.868194 50.868003 
L 173.922707 46.013018 
L 175.180291 41.158034 
L 176.645492 36.303049 
L 178.326708 31.448065 
L 180.38465 26.230986 
L 182.376043 21.738095 
L 184.768898 16.883111 
L 187.427962 12.028126 
L 188.863577 9.600634 
L 188.863577 9.600634 
" clip-path="url(#pafa5fe99b0)" style="fill: none; stroke: #2d6a9f"/>
    <path d="M 351.118272 224.118875 
L 345.454123 226.047159 
L 339.789975 227.74101 
L 334.125826 229.207822 
L 328.220151 230.50243 
L 322.797529 231.485114 
L 317.13338 232.304957 
L 311.325997 232.929922 
L 305.805083 233.323643 
L 300.140935 233.52674 
L 294.476786 233.52674 
L 288.812637 233.323643 
L 283.148489 232.917385 
L 277.48434 232.304957 
L 271.820192 231.485114 
L 266.156043 230.454433 
L 260.491894 229.207822 
L 254.827746 227.74101 
L 249.163597 226.047159 
L 243.252651 224.029117 
L 237.8353 221.945888 
L 232.171151 219.518137 
L 226.507003 216.822537 
L 221.652018 214.286549 
L 216.044586 211.082492 
L 211.132885 208.017696 
L 206.10054 204.609179 
L 201.422916 201.177858 
L 196.567932 197.325455 
L 191.712947 193.146486 
L 187.506539 189.235061 
L 183.460037 185.189241 
L 179.575486 181.014256 
L 175.499944 176.288436 
L 171.483845 171.234139 
L 168.069107 166.578467 
L 164.775942 161.723482 
L 161.735924 156.868498 
L 158.537219 151.293965 
L 155.944341 146.349365 
L 153.239813 140.685216 
L 150.803758 135.021068 
L 148.623046 129.356919 
L 146.686921 123.69277 
L 144.985674 118.028622 
L 143.511886 112.364473 
L 142.25845 106.700325 
L 141.221054 101.036176 
L 140.394557 95.372027 
L 139.775717 89.707879 
L 139.362605 84.04373 
L 139.152822 78.379582 
L 139.146367 72.715433 
L 139.34324 67.051284 
L 139.743442 61.387136 
L 140.34914 55.722987 
L 141.162358 50.058839 
L 142.186337 44.39469 
L 143.425765 38.730541 
L 144.885246 33.066393 
L 146.571879 27.402244 
L 148.493071 21.738095 
L 150.657721 16.073947 
L 153.077172 10.409798 
L 153.444377 9.600634 
L 153.444377 9.600634 
" clip-path="url(#pafa5fe99b0)" style="fill: none; stroke: #2d6a9f"/>
    <path d="M 351.118272 256.615447 
L 344.644959 258.412663 
L 338.171647 259.965648 
L 331.698334 261.280768 
L 325.225021 262.361986 
L 318.751709 263.214372 
L 312.278396 263.84087 
L 305.805083 264.243332 
L 299.331771 264.423746 
L 292.858458 264.382112 
L 286.385145 264.11843 
L 279.911832 263.632505 
L 273.43852 262.921679 
L 266.965207 261.98371 
L 260.491894 260.814934 
L 254.018582 259.411581 
L 247.545269 257.76774 
L 241.071956 255.876947 
L 234.598644 253.731434 
L 228.125331 251.32178 
L 222.461182 248.988171 
L 216.797034 246.435038 
L 210.736215 243.449055 
L 205.468736 240.629785 
L 199.804588 237.352522 
L 194.038533 233.739086 
L 188.476291 229.969295 
L 183.621306 226.435407 
L 178.462299 222.410789 
L 173.623938 218.364969 
L 169.056353 214.283486 
L 164.025868 209.464164 
L 159.31269 204.609179 
L 154.92148 199.754195 
L 150.822054 194.89921 
L 146.990881 190.044226 
L 143.163102 184.844886 
L 139.51975 179.525092 
L 135.880625 173.791288 
L 132.59986 168.196795 
L 129.407312 162.288709 
L 126.710489 156.868498 
L 124.118302 151.204349 
L 121.746943 145.540201 
L 119.587377 139.876052 
L 117.369444 133.402739 
L 115.40894 126.929427 
L 113.697297 120.456114 
L 112.22756 113.982801 
L 110.994301 107.509489 
L 109.987374 100.998981 
L 109.17821 94.156668 
L 108.670762 88.089551 
L 108.345192 81.616238 
L 108.242222 75.142925 
L 108.369046 68.443422 
L 108.701632 62.1963 
L 109.265372 55.722987 
L 110.054675 49.249674 
L 111.072482 42.776362 
L 112.321786 36.303049 
L 113.808196 29.829736 
L 115.536808 23.356424 
L 117.515239 16.883111 
L 119.751089 10.409798 
L 120.049548 9.600634 
L 120.049548 9.600634 
" clip-path="url(#pafa5fe99b0)" style="fill: none; stroke: #2d6a9f"/>
    <path d="M 351.118272 292.50649 
L 344.644959 294.008936 
L 337.362483 295.459581 
L 330.080006 296.661155 
L 322.797529 297.617904 
L 315.515052 298.332498 
L 308.232575 298.807566 
L 300.950099 299.044847 
L 293.667622 299.044847 
L 286.385145 298.807566 
L 279.102668 298.332498 
L 271.820192 297.617904 
L 264.537715 296.661155 
L 257.255238 295.459581 
L 250.781925 294.182614 
L 243.499449 292.50649 
L 237.026136 290.799104 
L 230.171199 288.762244 
L 224.07951 286.749248 
L 217.606198 284.394466 
L 211.132885 281.809952 
L 204.659572 278.98725 
L 197.984294 275.815619 
L 191.703129 272.578962 
L 185.239634 268.978616 
L 179.106672 265.296486 
L 173.102173 261.425348 
L 167.438024 257.516736 
L 161.773876 253.342456 
L 156.109727 248.882922 
L 150.445579 244.115862 
L 145.200213 239.403235 
L 139.926445 234.350452 
L 135.071461 229.39281 
L 130.142507 224.029117 
L 125.2723 218.364969 
L 120.717952 212.70082 
L 116.454945 207.036671 
L 112.414866 201.300298 
L 108.369046 195.14445 
L 104.74998 189.235061 
L 101.086569 182.799747 
L 98.070914 177.0976 
L 94.896174 170.624287 
L 91.974339 164.150975 
L 89.294986 157.677662 
L 86.848634 151.204349 
L 84.627308 144.731037 
L 82.475795 137.749296 
L 80.623539 130.975247 
L 78.884071 123.69277 
L 77.399247 116.410294 
L 76.164083 109.127817 
L 75.174256 101.84534 
L 74.426883 94.562863 
L 73.919535 87.280387 
L 73.649813 79.99791 
L 73.617564 72.715433 
L 73.822787 65.432956 
L 74.265482 58.150479 
L 74.94769 50.868003 
L 75.871131 43.585526 
L 77.039288 36.303049 
L 78.455513 29.020572 
L 80.12536 21.738095 
L 81.827076 15.264783 
L 83.487827 9.600634 
L 83.487827 9.600634 
" clip-path="url(#pafa5fe99b0)" style="fill: none; stroke: #2d6a9f"/>
   </g>
   <g id="line2d_25">
    <path d="M 28.261801 9.600634 
L 351.118272 332.457105 
L 351.118272 332.457105 
" clip-path="url(#pafa5fe99b0)" style="fill: none; stroke: #2f855a; stroke-width: 2.2; stroke-linecap: square"/>
   </g>
   <g id="line2d_26">
    <defs>
     <path id="m6206a2f167" d="M 0 4.5 
C 1.193414 4.5 2.338109 4.025852 3.181981 3.181981 
C 4.025852 2.338109 4.5 1.193414 4.5 0 
C 4.5 -1.193414 4.025852 -2.338109 3.181981 -3.181981 
C 2.338109 -4.025852 1.193414 -4.5 0 -4.5 
C -1.193414 -4.5 -2.338109 -4.025852 -3.181981 -3.181981 
C -4.025852 -2.338109 -4.5 -1.193414 -4.5 0 
C -4.5 1.193414 -4.025852 2.338109 -3.181981 3.181981 
C -2.338109 4.025852 -1.193414 4.5 0 4.5 
z
" style="stroke: #d97706"/>
    </defs>
    <g clip-path="url(#pafa5fe99b0)">
     <use xlink:href="#m6206a2f167" x="195.66886" y="177.007693" style="fill: #d97706; stroke: #d97706"/>
    </g>
   </g>
   <g id="patch_3">
    <path d="M 34.240625 326.478281 
L 34.240625 21.558281 
" style="fill: none; stroke: #000000; stroke-width: 0.8; stroke-linejoin: miter; stroke-linecap: square"/>
   </g>
   <g id="patch_4">
    <path d="M 339.160625 326.478281 
L 339.160625 21.558281 
" style="fill: none; stroke: #000000; stroke-width: 0.8; stroke-linejoin: miter; stroke-linecap: square"/>
   </g>
   <g id="patch_5">
    <path d="M 34.240625 326.478281 
L 339.160625 326.478281 
" style="fill: none; stroke: #000000; stroke-width: 0.8; stroke-linejoin: miter; stroke-linecap: square"/>
   </g>
   <g id="patch_6">
    <path d="M 34.240625 21.558281 
L 339.160625 21.558281 
" style="fill: none; stroke: #000000; stroke-width: 0.8; stroke-linejoin: miter; stroke-linecap: square"/>
   </g>
   <g id="patch_7">
    <path d="M 197.080182 175.596371 
Q 221.077348 151.599206 243.493374 129.183179 
" clip-path="url(#pafa5fe99b0)" style="fill: none; stroke: #d97706; stroke-width: 2; stroke-linecap: round"/>
    <path d="M 237.129413 131.3045 
L 243.493374 129.183179 
L 241.372054 135.54714 
z
" clip-path="url(#pafa5fe99b0)" style="fill: #d97706; stroke: #d97706; stroke-width: 2; stroke-linecap: round"/>
   </g>
   <g id="patch_8">
    <path d="M 194.257538 178.419015 
Q 170.260373 202.41618 147.844347 224.832207 
" clip-path="url(#pafa5fe99b0)" style="fill: none; stroke: #2f855a; stroke-width: 2; stroke-linecap: round"/>
    <path d="M 154.208308 222.710886 
L 147.844347 224.832207 
L 149.965667 218.468246 
z
" clip-path="url(#pafa5fe99b0)" style="fill: #2f855a; stroke: #2f855a; stroke-width: 2; stroke-linecap: round"/>
   </g>
   <g id="patch_9">
    <path d="M 265.575121 285.328369 
Q 269.236677 270.99958 272.621427 257.754017 
" style="fill: none; stroke: #2f855a; stroke-linecap: round"/>
    <path d="M 269.986169 260.796289 
L 272.621427 257.754017 
L 273.474089 261.687586 
" style="fill: none; stroke: #2f855a; stroke-linecap: round"/>
   </g>
   <g id="text_15">
    <g id="patch_10">
     <path d="M 225.562978 300.435882 
L 301.103915 300.435882 
Q 303.083915 300.435882 303.083915 298.455882 
L 303.083915 289.74557 
Q 303.083915 287.76557 301.103915 287.76557 
L 225.562978 287.76557 
Q 223.582978 287.76557 223.582978 289.74557 
L 223.582978 298.455882 
Q 223.582978 300.435882 225.562978 300.435882 
z
" style="fill: #ffffff; stroke: #2f855a; stroke-linejoin: miter"/>
    </g>
    <!-- active constraint -->
    <g style="fill: #2f855a" transform="translate(225.562978 296.584164) scale(0.09 -0.09)">
     <defs>
      <path id="DejaVuSans-61" d="M 2194 1759 
Q 1497 1759 1228 1600 
Q 959 1441 959 1056 
Q 959 750 1161 570 
Q 1363 391 1709 391 
Q 2188 391 2477 730 
Q 2766 1069 2766 1631 
L 2766 1759 
L 2194 1759 
z
M 3341 1997 
L 3341 0 
L 2766 0 
L 2766 531 
Q 2569 213 2275 61 
Q 1981 -91 1556 -91 
Q 1019 -91 701 211 
Q 384 513 384 1019 
Q 384 1609 779 1909 
Q 1175 2209 1959 2209 
L 2766 2209 
L 2766 2266 
Q 2766 2663 2505 2880 
Q 2244 3097 1772 3097 
Q 1472 3097 1187 3025 
Q 903 2953 641 2809 
L 641 3341 
Q 956 3463 1253 3523 
Q 1550 3584 1831 3584 
Q 2591 3584 2966 3190 
Q 3341 2797 3341 1997 
z
" transform="scale(0.015625)"/>
      <path id="DejaVuSans-63" d="M 3122 3366 
L 3122 2828 
Q 2878 2963 2633 3030 
Q 2388 3097 2138 3097 
Q 1578 3097 1268 2742 
Q 959 2388 959 1747 
Q 959 1106 1268 751 
Q 1578 397 2138 397 
Q 2388 397 2633 464 
Q 2878 531 3122 666 
L 3122 134 
Q 2881 22 2623 -34 
Q 2366 -91 2075 -91 
Q 1284 -91 818 406 
Q 353 903 353 1747 
Q 353 2603 823 3093 
Q 1294 3584 2113 3584 
Q 2378 3584 2631 3529 
Q 2884 3475 3122 3366 
z
" transform="scale(0.015625)"/>
      <path id="DejaVuSans-74" d="M 1172 4494 
L 1172 3500 
L 2356 3500 
L 2356 3053 
L 1172 3053 
L 1172 1153 
Q 1172 725 1289 603 
Q 1406 481 1766 481 
L 2356 481 
L 2356 0 
L 1766 0 
Q 1100 0 847 248 
Q 594 497 594 1153 
L 594 3053 
L 172 3053 
L 172 3500 
L 594 3500 
L 594 4494 
L 1172 4494 
z
" transform="scale(0.015625)"/>
      <path id="DejaVuSans-69" d="M 603 3500 
L 1178 3500 
L 1178 0 
L 603 0 
L 603 3500 
z
M 603 4863 
L 1178 4863 
L 1178 4134 
L 603 4134 
L 603 4863 
z
" transform="scale(0.015625)"/>
      <path id="DejaVuSans-76" d="M 191 3500 
L 800 3500 
L 1894 563 
L 2988 3500 
L 3597 3500 
L 2284 0 
L 1503 0 
L 191 3500 
z
" transform="scale(0.015625)"/>
      <path id="DejaVuSans-65" d="M 3597 1894 
L 3597 1613 
L 953 1613 
Q 991 1019 1311 708 
Q 1631 397 2203 397 
Q 2534 397 2845 478 
Q 3156 559 3463 722 
L 3463 178 
Q 3153 47 2828 -22 
Q 2503 -91 2169 -91 
Q 1331 -91 842 396 
Q 353 884 353 1716 
Q 353 2575 817 3079 
Q 1281 3584 2069 3584 
Q 2775 3584 3186 3129 
Q 3597 2675 3597 1894 
z
M 3022 2063 
Q 3016 2534 2758 2815 
Q 2500 3097 2075 3097 
Q 1594 3097 1305 2825 
Q 1016 2553 972 2059 
L 3022 2063 
z
" transform="scale(0.015625)"/>
      <path id="DejaVuSans-20" transform="scale(0.015625)"/>
      <path id="DejaVuSans-6f" d="M 1959 3097 
Q 1497 3097 1228 2736 
Q 959 2375 959 1747 
Q 959 1119 1226 758 
Q 1494 397 1959 397 
Q 2419 397 2687 759 
Q 2956 1122 2956 1747 
Q 2956 2369 2687 2733 
Q 2419 3097 1959 3097 
z
M 1959 3584 
Q 2709 3584 3137 3096 
Q 3566 2609 3566 1747 
Q 3566 888 3137 398 
Q 2709 -91 1959 -91 
Q 1206 -91 779 398 
Q 353 888 353 1747 
Q 353 2609 779 3096 
Q 1206 3584 1959 3584 
z
" transform="scale(0.015625)"/>
      <path id="DejaVuSans-6e" d="M 3513 2113 
L 3513 0 
L 2938 0 
L 2938 2094 
Q 2938 2591 2744 2837 
Q 2550 3084 2163 3084 
Q 1697 3084 1428 2787 
Q 1159 2491 1159 1978 
L 1159 0 
L 581 0 
L 581 3500 
L 1159 3500 
L 1159 2956 
Q 1366 3272 1645 3428 
Q 1925 3584 2291 3584 
Q 2894 3584 3203 3211 
Q 3513 2838 3513 2113 
z
" transform="scale(0.015625)"/>
      <path id="DejaVuSans-73" d="M 2834 3397 
L 2834 2853 
Q 2591 2978 2328 3040 
Q 2066 3103 1784 3103 
Q 1356 3103 1142 2972 
Q 928 2841 928 2578 
Q 928 2378 1081 2264 
Q 1234 2150 1697 2047 
L 1894 2003 
Q 2506 1872 2764 1633 
Q 3022 1394 3022 966 
Q 3022 478 2636 193 
Q 2250 -91 1575 -91 
Q 1294 -91 989 -36 
Q 684 19 347 128 
L 347 722 
Q 666 556 975 473 
Q 1284 391 1588 391 
Q 1994 391 2212 530 
Q 2431 669 2431 922 
Q 2431 1156 2273 1281 
Q 2116 1406 1581 1522 
L 1381 1569 
Q 847 1681 609 1914 
Q 372 2147 372 2553 
Q 372 3047 722 3315 
Q 1072 3584 1716 3584 
Q 2034 3584 2315 3537 
Q 2597 3491 2834 3397 
z
" transform="scale(0.015625)"/>
      <path id="DejaVuSans-72" d="M 2631 2963 
Q 2534 3019 2420 3045 
Q 2306 3072 2169 3072 
Q 1681 3072 1420 2755 
Q 1159 2438 1159 1844 
L 1159 0 
L 581 0 
L 581 3500 
L 1159 3500 
L 1159 2956 
Q 1341 3275 1631 3429 
Q 1922 3584 2338 3584 
Q 2397 3584 2469 3576 
Q 2541 3569 2628 3553 
L 2631 2963 
z
" transform="scale(0.015625)"/>
     </defs>
     <use xlink:href="#DejaVuSans-61"/>
     <use xlink:href="#DejaVuSans-63" transform="translate(61.279297 0)"/>
     <use xlink:href="#DejaVuSans-74" transform="translate(116.259766 0)"/>
     <use xlink:href="#DejaVuSans-69" transform="translate(155.46875 0)"/>
     <use xlink:href="#DejaVuSans-76" transform="translate(183.251953 0)"/>
     <use xlink:href="#DejaVuSans-65" transform="translate(242.431641 0)"/>
     <use xlink:href="#DejaVuSans-20" transform="translate(303.955078 0)"/>
     <use xlink:href="#DejaVuSans-63" transform="translate(335.742188 0)"/>
     <use xlink:href="#DejaVuSans-6f" transform="translate(390.722656 0)"/>
     <use xlink:href="#DejaVuSans-6e" transform="translate(451.904297 0)"/>
     <use xlink:href="#DejaVuSans-73" transform="translate(515.283203 0)"/>
     <use xlink:href="#DejaVuSans-74" transform="translate(567.382812 0)"/>
     <use xlink:href="#DejaVuSans-72" transform="translate(606.591797 0)"/>
     <use xlink:href="#DejaVuSans-61" transform="translate(647.705078 0)"/>
     <use xlink:href="#DejaVuSans-69" transform="translate(708.984375 0)"/>
     <use xlink:href="#DejaVuSans-6e" transform="translate(736.767578 0)"/>
     <use xlink:href="#DejaVuSans-74" transform="translate(800.146484 0)"/>
    </g>
   </g>
   <g id="patch_11">
    <path d="M 125.336446 93.213281 
Q 159.859814 134.344605 193.6644 174.619568 
" style="fill: none; stroke: #d97706; stroke-linecap: round"/>
    <path d="M 192.728681 170.704925 
L 193.6644 174.619568 
L 189.971254 173.019358 
" style="fill: none; stroke: #d97706; stroke-linecap: round"/>
   </g>
   <g id="text_16">
    <g id="patch_12">
     <path d="M 70.113566 91.177059 
L 166.506379 91.177059 
Q 168.486379 91.177059 168.486379 89.197059 
L 168.486379 80.486746 
Q 168.486379 78.506746 166.506379 78.506746 
L 70.113566 78.506746 
Q 68.133566 78.506746 68.133566 80.486746 
L 68.133566 89.197059 
Q 68.133566 91.177059 70.113566 91.177059 
z
" style="fill: #ffffff; stroke: #d97706; stroke-linejoin: miter"/>
    </g>
    <!-- constrained optimum -->
    <g style="fill: #d97706" transform="translate(70.113566 87.32534) scale(0.09 -0.09)">
     <defs>
      <path id="DejaVuSans-64" d="M 2906 2969 
L 2906 4863 
L 3481 4863 
L 3481 0 
L 2906 0 
L 2906 525 
Q 2725 213 2448 61 
Q 2172 -91 1784 -91 
Q 1150 -91 751 415 
Q 353 922 353 1747 
Q 353 2572 751 3078 
Q 1150 3584 1784 3584 
Q 2172 3584 2448 3432 
Q 2725 3281 2906 2969 
z
M 947 1747 
Q 947 1113 1208 752 
Q 1469 391 1925 391 
Q 2381 391 2643 752 
Q 2906 1113 2906 1747 
Q 2906 2381 2643 2742 
Q 2381 3103 1925 3103 
Q 1469 3103 1208 2742 
Q 947 2381 947 1747 
z
" transform="scale(0.015625)"/>
      <path id="DejaVuSans-70" d="M 1159 525 
L 1159 -1331 
L 581 -1331 
L 581 3500 
L 1159 3500 
L 1159 2969 
Q 1341 3281 1617 3432 
Q 1894 3584 2278 3584 
Q 2916 3584 3314 3078 
Q 3713 2572 3713 1747 
Q 3713 922 3314 415 
Q 2916 -91 2278 -91 
Q 1894 -91 1617 61 
Q 1341 213 1159 525 
z
M 3116 1747 
Q 3116 2381 2855 2742 
Q 2594 3103 2138 3103 
Q 1681 3103 1420 2742 
Q 1159 2381 1159 1747 
Q 1159 1113 1420 752 
Q 1681 391 2138 391 
Q 2594 391 2855 752 
Q 3116 1113 3116 1747 
z
" transform="scale(0.015625)"/>
      <path id="DejaVuSans-6d" d="M 3328 2828 
Q 3544 3216 3844 3400 
Q 4144 3584 4550 3584 
Q 5097 3584 5394 3201 
Q 5691 2819 5691 2113 
L 5691 0 
L 5113 0 
L 5113 2094 
Q 5113 2597 4934 2840 
Q 4756 3084 4391 3084 
Q 3944 3084 3684 2787 
Q 3425 2491 3425 1978 
L 3425 0 
L 2847 0 
L 2847 2094 
Q 2847 2600 2669 2842 
Q 2491 3084 2119 3084 
Q 1678 3084 1418 2786 
Q 1159 2488 1159 1978 
L 1159 0 
L 581 0 
L 581 3500 
L 1159 3500 
L 1159 2956 
Q 1356 3278 1631 3431 
Q 1906 3584 2284 3584 
Q 2666 3584 2933 3390 
Q 3200 3197 3328 2828 
z
" transform="scale(0.015625)"/>
      <path id="DejaVuSans-75" d="M 544 1381 
L 544 3500 
L 1119 3500 
L 1119 1403 
Q 1119 906 1312 657 
Q 1506 409 1894 409 
Q 2359 409 2629 706 
Q 2900 1003 2900 1516 
L 2900 3500 
L 3475 3500 
L 3475 0 
L 2900 0 
L 2900 538 
Q 2691 219 2414 64 
Q 2138 -91 1772 -91 
Q 1169 -91 856 284 
Q 544 659 544 1381 
z
M 1991 3584 
L 1991 3584 
z
" transform="scale(0.015625)"/>
     </defs>
     <use xlink:href="#DejaVuSans-63"/>
     <use xlink:href="#DejaVuSans-6f" transform="translate(54.980469 0)"/>
     <use xlink:href="#DejaVuSans-6e" transform="translate(116.162109 0)"/>
     <use xlink:href="#DejaVuSans-73" transform="translate(179.541016 0)"/>
     <use xlink:href="#DejaVuSans-74" transform="translate(231.640625 0)"/>
     <use xlink:href="#DejaVuSans-72" transform="translate(270.849609 0)"/>
     <use xlink:href="#DejaVuSans-61" transform="translate(311.962891 0)"/>
     <use xlink:href="#DejaVuSans-69" transform="translate(373.242188 0)"/>
     <use xlink:href="#DejaVuSans-6e" transform="translate(401.025391 0)"/>
     <use xlink:href="#DejaVuSans-65" transform="translate(464.404297 0)"/>
     <use xlink:href="#DejaVuSans-64" transform="translate(525.927734 0)"/>
     <use xlink:href="#DejaVuSans-20" transform="translate(589.404297 0)"/>
     <use xlink:href="#DejaVuSans-6f" transform="translate(621.191406 0)"/>
     <use xlink:href="#DejaVuSans-70" transform="translate(682.373047 0)"/>
     <use xlink:href="#DejaVuSans-74" transform="translate(745.849609 0)"/>
     <use xlink:href="#DejaVuSans-69" transform="translate(785.058594 0)"/>
     <use xlink:href="#DejaVuSans-6d" transform="translate(812.841797 0)"/>
     <use xlink:href="#DejaVuSans-75" transform="translate(910.253906 0)"/>
     <use xlink:href="#DejaVuSans-6d" transform="translate(973.632812 0)"/>
    </g>
   </g>
   <g id="text_17">
    <g id="patch_13">
     <path d="M 67.966677 261.913842 
L 108.133396 261.913842 
Q 110.383396 261.913842 110.383396 259.663842 
L 110.383396 240.875498 
Q 110.383396 238.625498 108.133396 238.625498 
L 67.966677 238.625498 
Q 65.716677 238.625498 65.716677 240.875498 
L 65.716677 259.663842 
Q 65.716677 261.913842 67.966677 261.913842 
z
" style="fill: #ffffff; stroke: #2f855a; stroke-linejoin: miter"/>
    </g>
    <!-- feasible -->
    <g style="fill: #2f855a" transform="translate(67.966677 247.643779) scale(0.09 -0.09)">
     <defs>
      <path id="DejaVuSans-Bold-66" d="M 2841 4863 
L 2841 4128 
L 2222 4128 
Q 1984 4128 1890 4042 
Q 1797 3956 1797 3744 
L 1797 3500 
L 2753 3500 
L 2753 2700 
L 1797 2700 
L 1797 0 
L 678 0 
L 678 2700 
L 122 2700 
L 122 3500 
L 678 3500 
L 678 3744 
Q 678 4316 997 4589 
Q 1316 4863 1984 4863 
L 2841 4863 
z
" transform="scale(0.015625)"/>
      <path id="DejaVuSans-Bold-65" d="M 4031 1759 
L 4031 1441 
L 1416 1441 
Q 1456 1047 1700 850 
Q 1944 653 2381 653 
Q 2734 653 3104 758 
Q 3475 863 3866 1075 
L 3866 213 
Q 3469 63 3072 -14 
Q 2675 -91 2278 -91 
Q 1328 -91 801 392 
Q 275 875 275 1747 
Q 275 2603 792 3093 
Q 1309 3584 2216 3584 
Q 3041 3584 3536 3087 
Q 4031 2591 4031 1759 
z
M 2881 2131 
Q 2881 2450 2695 2645 
Q 2509 2841 2209 2841 
Q 1884 2841 1681 2658 
Q 1478 2475 1428 2131 
L 2881 2131 
z
" transform="scale(0.015625)"/>
      <path id="DejaVuSans-Bold-61" d="M 2106 1575 
Q 1756 1575 1579 1456 
Q 1403 1338 1403 1106 
Q 1403 894 1545 773 
Q 1688 653 1941 653 
Q 2256 653 2472 879 
Q 2688 1106 2688 1447 
L 2688 1575 
L 2106 1575 
z
M 3816 1997 
L 3816 0 
L 2688 0 
L 2688 519 
Q 2463 200 2181 54 
Q 1900 -91 1497 -91 
Q 953 -91 614 226 
Q 275 544 275 1050 
Q 275 1666 698 1953 
Q 1122 2241 2028 2241 
L 2688 2241 
L 2688 2328 
Q 2688 2594 2478 2717 
Q 2269 2841 1825 2841 
Q 1466 2841 1156 2769 
Q 847 2697 581 2553 
L 581 3406 
Q 941 3494 1303 3539 
Q 1666 3584 2028 3584 
Q 2975 3584 3395 3211 
Q 3816 2838 3816 1997 
z
" transform="scale(0.015625)"/>
      <path id="DejaVuSans-Bold-73" d="M 3272 3391 
L 3272 2541 
Q 2913 2691 2578 2766 
Q 2244 2841 1947 2841 
Q 1628 2841 1473 2761 
Q 1319 2681 1319 2516 
Q 1319 2381 1436 2309 
Q 1553 2238 1856 2203 
L 2053 2175 
Q 2913 2066 3209 1816 
Q 3506 1566 3506 1031 
Q 3506 472 3093 190 
Q 2681 -91 1863 -91 
Q 1516 -91 1145 -36 
Q 775 19 384 128 
L 384 978 
Q 719 816 1070 734 
Q 1422 653 1784 653 
Q 2113 653 2278 743 
Q 2444 834 2444 1013 
Q 2444 1163 2330 1236 
Q 2216 1309 1875 1350 
L 1678 1375 
Q 931 1469 631 1722 
Q 331 1975 331 2491 
Q 331 3047 712 3315 
Q 1094 3584 1881 3584 
Q 2191 3584 2531 3537 
Q 2872 3491 3272 3391 
z
" transform="scale(0.015625)"/>
      <path id="DejaVuSans-Bold-69" d="M 538 3500 
L 1656 3500 
L 1656 0 
L 538 0 
L 538 3500 
z
M 538 4863 
L 1656 4863 
L 1656 3950 
L 538 3950 
L 538 4863 
z
" transform="scale(0.015625)"/>
      <path id="DejaVuSans-Bold-62" d="M 2400 722 
Q 2759 722 2948 984 
Q 3138 1247 3138 1747 
Q 3138 2247 2948 2509 
Q 2759 2772 2400 2772 
Q 2041 2772 1848 2508 
Q 1656 2244 1656 1747 
Q 1656 1250 1848 986 
Q 2041 722 2400 722 
z
M 1656 2988 
Q 1888 3294 2169 3439 
Q 2450 3584 2816 3584 
Q 3463 3584 3878 3070 
Q 4294 2556 4294 1747 
Q 4294 938 3878 423 
Q 3463 -91 2816 -91 
Q 2450 -91 2169 54 
Q 1888 200 1656 506 
L 1656 0 
L 538 0 
L 538 4863 
L 1656 4863 
L 1656 2988 
z
" transform="scale(0.015625)"/>
      <path id="DejaVuSans-Bold-6c" d="M 538 4863 
L 1656 4863 
L 1656 0 
L 538 0 
L 538 4863 
z
" transform="scale(0.015625)"/>
     </defs>
     <use xlink:href="#DejaVuSans-Bold-66"/>
     <use xlink:href="#DejaVuSans-Bold-65" transform="translate(43.505859 0)"/>
     <use xlink:href="#DejaVuSans-Bold-61" transform="translate(111.328125 0)"/>
     <use xlink:href="#DejaVuSans-Bold-73" transform="translate(178.808594 0)"/>
     <use xlink:href="#DejaVuSans-Bold-69" transform="translate(238.330078 0)"/>
     <use xlink:href="#DejaVuSans-Bold-62" transform="translate(272.607422 0)"/>
     <use xlink:href="#DejaVuSans-Bold-6c" transform="translate(344.189453 0)"/>
     <use xlink:href="#DejaVuSans-Bold-65" transform="translate(378.466797 0)"/>
    </g>
    <!-- region -->
    <g style="fill: #2f855a" transform="translate(71.719959 257.721811) scale(0.09 -0.09)">
     <defs>
      <path id="DejaVuSans-Bold-72" d="M 3138 2547 
Q 2991 2616 2845 2648 
Q 2700 2681 2553 2681 
Q 2122 2681 1889 2404 
Q 1656 2128 1656 1613 
L 1656 0 
L 538 0 
L 538 3500 
L 1656 3500 
L 1656 2925 
Q 1872 3269 2151 3426 
Q 2431 3584 2822 3584 
Q 2878 3584 2943 3579 
Q 3009 3575 3134 3559 
L 3138 2547 
z
" transform="scale(0.015625)"/>
      <path id="DejaVuSans-Bold-67" d="M 2919 594 
Q 2688 288 2409 144 
Q 2131 0 1766 0 
Q 1125 0 706 504 
Q 288 1009 288 1791 
Q 288 2575 706 3076 
Q 1125 3578 1766 3578 
Q 2131 3578 2409 3434 
Q 2688 3291 2919 2981 
L 2919 3500 
L 4044 3500 
L 4044 353 
Q 4044 -491 3511 -936 
Q 2978 -1381 1966 -1381 
Q 1638 -1381 1331 -1331 
Q 1025 -1281 716 -1178 
L 716 -306 
Q 1009 -475 1290 -558 
Q 1572 -641 1856 -641 
Q 2406 -641 2662 -400 
Q 2919 -159 2919 353 
L 2919 594 
z
M 2181 2772 
Q 1834 2772 1640 2515 
Q 1447 2259 1447 1791 
Q 1447 1309 1634 1061 
Q 1822 813 2181 813 
Q 2531 813 2725 1069 
Q 2919 1325 2919 1791 
Q 2919 2259 2725 2515 
Q 2531 2772 2181 2772 
z
" transform="scale(0.015625)"/>
      <path id="DejaVuSans-Bold-6f" d="M 2203 2784 
Q 1831 2784 1636 2517 
Q 1441 2250 1441 1747 
Q 1441 1244 1636 976 
Q 1831 709 2203 709 
Q 2569 709 2762 976 
Q 2956 1244 2956 1747 
Q 2956 2250 2762 2517 
Q 2569 2784 2203 2784 
z
M 2203 3584 
Q 3106 3584 3614 3096 
Q 4122 2609 4122 1747 
Q 4122 884 3614 396 
Q 3106 -91 2203 -91 
Q 1297 -91 786 396 
Q 275 884 275 1747 
Q 275 2609 786 3096 
Q 1297 3584 2203 3584 
z
" transform="scale(0.015625)"/>
      <path id="DejaVuSans-Bold-6e" d="M 4056 2131 
L 4056 0 
L 2931 0 
L 2931 347 
L 2931 1631 
Q 2931 2084 2911 2256 
Q 2891 2428 2841 2509 
Q 2775 2619 2662 2680 
Q 2550 2741 2406 2741 
Q 2056 2741 1856 2470 
Q 1656 2200 1656 1722 
L 1656 0 
L 538 0 
L 538 3500 
L 1656 3500 
L 1656 2988 
Q 1909 3294 2193 3439 
Q 2478 3584 2822 3584 
Q 3428 3584 3742 3212 
Q 4056 2841 4056 2131 
z
" transform="scale(0.015625)"/>
     </defs>
     <use xlink:href="#DejaVuSans-Bold-72"/>
     <use xlink:href="#DejaVuSans-Bold-65" transform="translate(49.316406 0)"/>
     <use xlink:href="#DejaVuSans-Bold-67" transform="translate(117.138672 0)"/>
     <use xlink:href="#DejaVuSans-Bold-69" transform="translate(188.720703 0)"/>
     <use xlink:href="#DejaVuSans-Bold-6f" transform="translate(222.998047 0)"/>
     <use xlink:href="#DejaVuSans-Bold-6e" transform="translate(291.699219 0)"/>
    </g>
   </g>
   <g id="text_18">
    <!-- At an active constrained optimum, gradients align -->
    <g style="fill: #1f2933" transform="translate(30.387188 15.558281) scale(0.11 -0.11)">
     <defs>
      <path id="DejaVuSans-Bold-41" d="M 3419 850 
L 1538 850 
L 1241 0 
L 31 0 
L 1759 4666 
L 3194 4666 
L 4922 0 
L 3713 0 
L 3419 850 
z
M 1838 1716 
L 3116 1716 
L 2478 3572 
L 1838 1716 
z
" transform="scale(0.015625)"/>
      <path id="DejaVuSans-Bold-74" d="M 1759 4494 
L 1759 3500 
L 2913 3500 
L 2913 2700 
L 1759 2700 
L 1759 1216 
Q 1759 972 1856 886 
Q 1953 800 2241 800 
L 2816 800 
L 2816 0 
L 1856 0 
Q 1194 0 917 276 
Q 641 553 641 1216 
L 641 2700 
L 84 2700 
L 84 3500 
L 641 3500 
L 641 4494 
L 1759 4494 
z
" transform="scale(0.015625)"/>
      <path id="DejaVuSans-Bold-20" transform="scale(0.015625)"/>
      <path id="DejaVuSans-Bold-63" d="M 3366 3391 
L 3366 2478 
Q 3138 2634 2908 2709 
Q 2678 2784 2431 2784 
Q 1963 2784 1702 2511 
Q 1441 2238 1441 1747 
Q 1441 1256 1702 982 
Q 1963 709 2431 709 
Q 2694 709 2930 787 
Q 3166 866 3366 1019 
L 3366 103 
Q 3103 6 2833 -42 
Q 2563 -91 2291 -91 
Q 1344 -91 809 395 
Q 275 881 275 1747 
Q 275 2613 809 3098 
Q 1344 3584 2291 3584 
Q 2566 3584 2833 3536 
Q 3100 3488 3366 3391 
z
" transform="scale(0.015625)"/>
      <path id="DejaVuSans-Bold-76" d="M 97 3500 
L 1216 3500 
L 2088 1081 
L 2956 3500 
L 4078 3500 
L 2700 0 
L 1472 0 
L 97 3500 
z
" transform="scale(0.015625)"/>
      <path id="DejaVuSans-Bold-64" d="M 2919 2988 
L 2919 4863 
L 4044 4863 
L 4044 0 
L 2919 0 
L 2919 506 
Q 2688 197 2409 53 
Q 2131 -91 1766 -91 
Q 1119 -91 703 423 
Q 288 938 288 1747 
Q 288 2556 703 3070 
Q 1119 3584 1766 3584 
Q 2128 3584 2408 3439 
Q 2688 3294 2919 2988 
z
M 2181 722 
Q 2541 722 2730 984 
Q 2919 1247 2919 1747 
Q 2919 2247 2730 2509 
Q 2541 2772 2181 2772 
Q 1825 2772 1636 2509 
Q 1447 2247 1447 1747 
Q 1447 1247 1636 984 
Q 1825 722 2181 722 
z
" transform="scale(0.015625)"/>
      <path id="DejaVuSans-Bold-70" d="M 1656 506 
L 1656 -1331 
L 538 -1331 
L 538 3500 
L 1656 3500 
L 1656 2988 
Q 1888 3294 2169 3439 
Q 2450 3584 2816 3584 
Q 3463 3584 3878 3070 
Q 4294 2556 4294 1747 
Q 4294 938 3878 423 
Q 3463 -91 2816 -91 
Q 2450 -91 2169 54 
Q 1888 200 1656 506 
z
M 2400 2772 
Q 2041 2772 1848 2508 
Q 1656 2244 1656 1747 
Q 1656 1250 1848 986 
Q 2041 722 2400 722 
Q 2759 722 2948 984 
Q 3138 1247 3138 1747 
Q 3138 2247 2948 2509 
Q 2759 2772 2400 2772 
z
" transform="scale(0.015625)"/>
      <path id="DejaVuSans-Bold-6d" d="M 3781 2919 
Q 3994 3244 4286 3414 
Q 4578 3584 4928 3584 
Q 5531 3584 5847 3212 
Q 6163 2841 6163 2131 
L 6163 0 
L 5038 0 
L 5038 1825 
Q 5041 1866 5042 1909 
Q 5044 1953 5044 2034 
Q 5044 2406 4934 2573 
Q 4825 2741 4581 2741 
Q 4263 2741 4089 2478 
Q 3916 2216 3909 1719 
L 3909 0 
L 2784 0 
L 2784 1825 
Q 2784 2406 2684 2573 
Q 2584 2741 2328 2741 
Q 2006 2741 1831 2477 
Q 1656 2213 1656 1722 
L 1656 0 
L 531 0 
L 531 3500 
L 1656 3500 
L 1656 2988 
Q 1863 3284 2130 3434 
Q 2397 3584 2719 3584 
Q 3081 3584 3359 3409 
Q 3638 3234 3781 2919 
z
" transform="scale(0.015625)"/>
      <path id="DejaVuSans-Bold-75" d="M 500 1363 
L 500 3500 
L 1625 3500 
L 1625 3150 
Q 1625 2866 1622 2436 
Q 1619 2006 1619 1863 
Q 1619 1441 1641 1255 
Q 1663 1069 1716 984 
Q 1784 875 1895 815 
Q 2006 756 2150 756 
Q 2500 756 2700 1025 
Q 2900 1294 2900 1772 
L 2900 3500 
L 4019 3500 
L 4019 0 
L 2900 0 
L 2900 506 
Q 2647 200 2364 54 
Q 2081 -91 1741 -91 
Q 1134 -91 817 281 
Q 500 653 500 1363 
z
" transform="scale(0.015625)"/>
      <path id="DejaVuSans-Bold-2c" d="M 653 1209 
L 1778 1209 
L 1778 256 
L 1006 -909 
L 341 -909 
L 653 256 
L 653 1209 
z
" transform="scale(0.015625)"/>
     </defs>
     <use xlink:href="#DejaVuSans-Bold-41"/>
     <use xlink:href="#DejaVuSans-Bold-74" transform="translate(77.392578 0)"/>
     <use xlink:href="#DejaVuSans-Bold-20" transform="translate(125.195312 0)"/>
     <use xlink:href="#DejaVuSans-Bold-61" transform="translate(160.009766 0)"/>
     <use xlink:href="#DejaVuSans-Bold-6e" transform="translate(227.490234 0)"/>
     <use xlink:href="#DejaVuSans-Bold-20" transform="translate(298.681641 0)"/>
     <use xlink:href="#DejaVuSans-Bold-61" transform="translate(333.496094 0)"/>
     <use xlink:href="#DejaVuSans-Bold-63" transform="translate(400.976562 0)"/>
     <use xlink:href="#DejaVuSans-Bold-74" transform="translate(460.253906 0)"/>
     <use xlink:href="#DejaVuSans-Bold-69" transform="translate(508.056641 0)"/>
     <use xlink:href="#DejaVuSans-Bold-76" transform="translate(542.333984 0)"/>
     <use xlink:href="#DejaVuSans-Bold-65" transform="translate(607.519531 0)"/>
     <use xlink:href="#DejaVuSans-Bold-20" transform="translate(675.341797 0)"/>
     <use xlink:href="#DejaVuSans-Bold-63" transform="translate(710.15625 0)"/>
     <use xlink:href="#DejaVuSans-Bold-6f" transform="translate(769.433594 0)"/>
     <use xlink:href="#DejaVuSans-Bold-6e" transform="translate(838.134766 0)"/>
     <use xlink:href="#DejaVuSans-Bold-73" transform="translate(909.326172 0)"/>
     <use xlink:href="#DejaVuSans-Bold-74" transform="translate(968.847656 0)"/>
     <use xlink:href="#DejaVuSans-Bold-72" transform="translate(1016.650391 0)"/>
     <use xlink:href="#DejaVuSans-Bold-61" transform="translate(1065.966797 0)"/>
     <use xlink:href="#DejaVuSans-Bold-69" transform="translate(1133.447266 0)"/>
     <use xlink:href="#DejaVuSans-Bold-6e" transform="translate(1167.724609 0)"/>
     <use xlink:href="#DejaVuSans-Bold-65" transform="translate(1238.916016 0)"/>
     <use xlink:href="#DejaVuSans-Bold-64" transform="translate(1306.738281 0)"/>
     <use xlink:href="#DejaVuSans-Bold-20" transform="translate(1378.320312 0)"/>
     <use xlink:href="#DejaVuSans-Bold-6f" transform="translate(1413.134766 0)"/>
     <use xlink:href="#DejaVuSans-Bold-70" transform="translate(1481.835938 0)"/>
     <use xlink:href="#DejaVuSans-Bold-74" transform="translate(1553.417969 0)"/>
     <use xlink:href="#DejaVuSans-Bold-69" transform="translate(1601.220703 0)"/>
     <use xlink:href="#DejaVuSans-Bold-6d" transform="translate(1635.498047 0)"/>
     <use xlink:href="#DejaVuSans-Bold-75" transform="translate(1739.697266 0)"/>
     <use xlink:href="#DejaVuSans-Bold-6d" transform="translate(1810.888672 0)"/>
     <use xlink:href="#DejaVuSans-Bold-2c" transform="translate(1915.087891 0)"/>
     <use xlink:href="#DejaVuSans-Bold-20" transform="translate(1953.076172 0)"/>
     <use xlink:href="#DejaVuSans-Bold-67" transform="translate(1987.890625 0)"/>
     <use xlink:href="#DejaVuSans-Bold-72" transform="translate(2059.472656 0)"/>
     <use xlink:href="#DejaVuSans-Bold-61" transform="translate(2108.789062 0)"/>
     <use xlink:href="#DejaVuSans-Bold-64" transform="translate(2176.269531 0)"/>
     <use xlink:href="#DejaVuSans-Bold-69" transform="translate(2247.851562 0)"/>
     <use xlink:href="#DejaVuSans-Bold-65" transform="translate(2282.128906 0)"/>
     <use xlink:href="#DejaVuSans-Bold-6e" transform="translate(2349.951172 0)"/>
     <use xlink:href="#DejaVuSans-Bold-74" transform="translate(2421.142578 0)"/>
     <use xlink:href="#DejaVuSans-Bold-73" transform="translate(2468.945312 0)"/>
     <use xlink:href="#DejaVuSans-Bold-20" transform="translate(2528.466797 0)"/>
     <use xlink:href="#DejaVuSans-Bold-61" transform="translate(2563.28125 0)"/>
     <use xlink:href="#DejaVuSans-Bold-6c" transform="translate(2630.761719 0)"/>
     <use xlink:href="#DejaVuSans-Bold-69" transform="translate(2665.039062 0)"/>
     <use xlink:href="#DejaVuSans-Bold-67" transform="translate(2699.316406 0)"/>
     <use xlink:href="#DejaVuSans-Bold-6e" transform="translate(2770.898438 0)"/>
    </g>
   </g>
   <g id="patch_14">
    <path d="M 237.520625 121.404634 
L 294.319449 121.404634 
Q 301.494037 121.404634 301.494037 114.230046 
L 301.494037 107.055458 
Q 301.494037 99.880869 294.319449 99.880869 
L 237.520625 99.880869 
Q 230.346037 99.880869 230.346037 107.055458 
L 230.346037 114.230046 
Q 230.346037 121.404634 237.520625 121.404634 
z
" clip-path="url(#pafa5fe99b0)" style="fill: #ffffff; stroke: #d97706; stroke-linejoin: miter"/>
   </g>
   <g id="patch_15">
    <path d="M 122.727213 254.732399 
L 182.515449 254.732399 
Q 189.690037 254.732399 189.690037 247.557811 
L 189.690037 240.383222 
Q 189.690037 233.208634 182.515449 233.208634 
L 122.727213 233.208634 
Q 115.552625 233.208634 115.552625 240.383222 
L 115.552625 247.557811 
Q 115.552625 254.732399 122.727213 254.732399 
z
" clip-path="url(#pafa5fe99b0)" style="fill: #ffffff; stroke: #2f855a; stroke-linejoin: miter"/>
   </g>
   <g id="text_19">
    <!-- $\nabla f$ -->
    <g style="fill: #d97706" transform="translate(261.285037 113.126189) scale(0.09 -0.09)">
     <defs>
      <path id="DejaVuSans-2207" d="M 2138 659 
L 3444 4047 
L 831 4047 
L 2138 659 
z
M 1791 0 
L -19 4603 
L 4300 4603 
L 2491 0 
L 1791 0 
z
" transform="scale(0.015625)"/>
      <path id="DejaVuSans-Oblique-66" d="M 3059 4863 
L 2969 4384 
L 2419 4384 
Q 2106 4384 1964 4261 
Q 1822 4138 1753 3809 
L 1691 3500 
L 2638 3500 
L 2553 3053 
L 1606 3053 
L 1013 0 
L 434 0 
L 1031 3053 
L 481 3053 
L 563 3500 
L 1113 3500 
L 1159 3744 
Q 1278 4363 1576 4613 
Q 1875 4863 2516 4863 
L 3059 4863 
z
" transform="scale(0.015625)"/>
     </defs>
     <use xlink:href="#DejaVuSans-2207" transform="translate(0 0.015625)"/>
     <use xlink:href="#DejaVuSans-Oblique-66" transform="translate(66.894531 0.015625)"/>
    </g>
   </g>
   <g id="text_20">
    <!-- $\nabla g$ -->
    <g style="fill: #2f855a" transform="translate(146.726331 246.435673) scale(0.09 -0.09)">
     <defs>
      <path id="DejaVuSans-Oblique-67" d="M 3816 3500 
L 3219 434 
Q 3047 -456 2561 -893 
Q 2075 -1331 1253 -1331 
Q 950 -1331 690 -1286 
Q 431 -1241 206 -1147 
L 313 -588 
Q 525 -725 762 -790 
Q 1000 -856 1269 -856 
Q 1816 -856 2167 -557 
Q 2519 -259 2631 300 
L 2681 563 
Q 2441 288 2122 144 
Q 1803 0 1434 0 
Q 903 0 598 351 
Q 294 703 294 1319 
Q 294 1803 478 2267 
Q 663 2731 997 3091 
Q 1219 3328 1514 3456 
Q 1809 3584 2131 3584 
Q 2484 3584 2746 3420 
Q 3009 3256 3138 2956 
L 3238 3500 
L 3816 3500 
z
M 2950 2216 
Q 2950 2641 2750 2872 
Q 2550 3103 2181 3103 
Q 1953 3103 1747 3012 
Q 1541 2922 1394 2759 
Q 1156 2491 1023 2127 
Q 891 1763 891 1375 
Q 891 944 1092 712 
Q 1294 481 1672 481 
Q 2219 481 2584 976 
Q 2950 1472 2950 2216 
z
" transform="scale(0.015625)"/>
     </defs>
     <use xlink:href="#DejaVuSans-2207" transform="translate(0 0.078125)"/>
     <use xlink:href="#DejaVuSans-Oblique-67" transform="translate(66.894531 0.078125)"/>
    </g>
   </g>
  </g>
 </g>
 <defs>
  <clipPath id="pafa5fe99b0">
   <rect x="34.240625" y="21.558281" width="304.92" height="304.92"/>
  </clipPath>
 </defs>
</svg>
