<?xml version="1.0" encoding="UTF-8"?>
<svg id="Layer_1" xmlns="http://www.w3.org/2000/svg" xmlns:xlink="http://www.w3.org/1999/xlink" version="1.1" viewBox="0 0 4070 1618">
  <!-- Generator: Adobe Illustrator 29.3.1, SVG Export Plug-In . SVG Version: 2.1.0 Build 151)  -->
  <defs>
    <style>
      .st0 {
        fill: #fbfdff;
      }

      .st0, .st1, .st2, .st3, .st4, .st5, .st6, .st7 {
        fill-rule: evenodd;
      }

      .st0, .st1, .st2, .st3, .st4, .st5, .st6, .st7, .st8 {
        stroke-linejoin: round;
      }

      .st0, .st1, .st2, .st5 {
        stroke-width: 6.4px;
      }

      .st0, .st8 {
        stroke: #d5dee8;
      }

      .st9, .st10, .st11, .st12 {
        fill: #5b6775;
      }

      .st1 {
        fill: #fff3de;
      }

      .st1, .st4 {
        stroke: #d97904;
      }

      .st10, .st13, .st11, .st12, .st14, .st15, .st16, .st17, .st18, .st19, .st20 {
        isolation: isolate;
      }

      .st10, .st13, .st11, .st12, .st14, .st16, .st18 {
        font-family: Aptos, Aptos;
      }

      .st10, .st16, .st18 {
        font-size: 46px;
      }

      .st13 {
        font-size: 57px;
      }

      .st13, .st15, .st16, .st17, .st19, .st20 {
        fill: #123b63;
      }

      .st11 {
        font-size: 53px;
      }

      .st12 {
        font-size: 50px;
      }

      .st2, .st3 {
        stroke: #5b6775;
      }

      .st2, .st3, .st4, .st6, .st7 {
        fill: #fff;
      }

      .st3 {
        stroke-width: 5.5px;
      }

      .st14 {
        fill: #2d6ea8;
        font-size: 39px;
      }

      .st15 {
        font-size: 69px;
      }

      .st15, .st17, .st19, .st20 {
        font-family: Helvetica-Bold, Helvetica;
        font-weight: 700;
      }

      .st4, .st6, .st7, .st8 {
        stroke-width: 4.6px;
      }

      .st5 {
        fill: #eaf4ff;
      }

      .st5, .st7 {
        stroke: #123b63;
      }

      .st17 {
        font-size: 92px;
      }

      .st6 {
        stroke: #2d6ea8;
      }

      .st8 {
        fill: none;
      }

      .st18 {
        fill: #d97904;
      }

      .st19 {
        font-size: 62px;
      }

      .st20 {
        font-size: 124px;
      }

      .st21 {
        fill: #4472c4;
      }
    </style>
  </defs>
  <text class="st20" transform="translate(1022.5 155)"><tspan x="0" y="0">Open</tspan></text>
  <text class="st20" transform="translate(1346.1 155)"><tspan x="0" y="0">-</tspan></text>
  <text class="st20" transform="translate(1398.9 155)"><tspan x="0" y="0">loop and Closed</tspan></text>
  <text class="st20" transform="translate(2383.8 155)"><tspan x="0" y="0">-</tspan></text>
  <text class="st20" transform="translate(2453.3 155)"><tspan x="0" y="0">loop Systems</tspan></text>
  <path class="st8" d="M703.5,234.5h2640"/>
  <path class="st0" d="M5,307.8c0-14.8,12-26.8,26.8-26.8h1827.4c14.8,0,26.8,12,26.8,26.8v1119.4c0,14.8-12,26.8-26.8,26.8H31.8c-14.8,0-26.8-12-26.8-26.8V307.8Z"/>
  <path class="st0" d="M2183,307.8c0-14.8,12-26.8,26.8-26.8h1827.4c14.8,0,26.8,12,26.8,26.8v1119.4c0,14.8-12,26.8-26.8,26.8h-1827.4c-14.8,0-26.8-12-26.8-26.8V307.8Z"/>
  <text class="st17" transform="translate(506.3 368)"><tspan x="0" y="0">Open</tspan></text>
  <text class="st17" transform="translate(732 368)"><tspan x="0" y="0">-</tspan></text>
  <text class="st17" transform="translate(763 368)"><tspan x="0" y="0">loop system</tspan></text>
  <text class="st17" transform="translate(2694.6 389)"><tspan x="0" y="0">Closed</tspan></text>
  <text class="st17" transform="translate(2991.4 389)"><tspan x="0" y="0">-</tspan></text>
  <text class="st17" transform="translate(3022.3 389)"><tspan x="0" y="0">loop system</tspan></text>
  <path class="st9" d="M465.5,752.2h72.6v10.5h-72.6v-10.5ZM532.9,741.7l31.6,15.8-31.6,15.8v-31.6Z"/>
  <path class="st9" d="M1022.5,748.2h72.7v10.5h-72.7v-10.5ZM1089.9,737.7l31.6,15.8-31.6,15.8v-31.6Z"/>
  <path class="st9" d="M1496.5,752.2h88.7v10.5h-88.7v-10.5ZM1579.9,741.7l31.6,15.8-31.6,15.8v-31.6Z"/>
  <path class="st9" d="M2629.5,752.2h89.6v10.5h-89.6v-10.5ZM2713.9,741.7l31.6,15.8-31.6,15.8v-31.6Z"/>
  <path class="st9" d="M2857.5,752.2h59.6v10.5h-59.6v-10.5ZM2911.9,741.7l31.6,15.8-31.6,15.8v-31.6Z"/>
  <path class="st9" d="M3429.5,752.2h59.6v10.5h-59.6v-10.5ZM3483.9,741.7l31.6,15.8-31.6,15.8v-31.6Z"/>
  <path class="st9" d="M3897.5,752.2h56.6v10.5h-56.6v-10.5ZM3948.9,741.7l31.6,15.8-31.6,15.8v-31.6Z"/>
  <path class="st2" d="M121,634.6c0-21.8,17.7-39.6,39.6-39.6h257.9c21.8,0,39.6,17.7,39.6,39.6v243.9c0,21.8-17.7,39.6-39.6,39.6H160.6c-21.8,0-39.6-17.7-39.6-39.6v-243.9Z"/>
  <text class="st11" transform="translate(173.4 742)"><tspan x="0" y="0">Reference</tspan></text>
  <text class="st11" transform="translate(280.8 805)"><tspan x="0" y="0">r</tspan></text>
  <path class="st1" d="M574,617.7c0-21.9,17.8-39.7,39.7-39.7h322.7c21.9,0,39.7,17.8,39.7,39.7v277.7c0,21.9-17.8,39.7-39.7,39.7h-322.7c-21.9,0-39.7-17.8-39.7-39.7v-277.7Z"/>
  <text class="st13" transform="translate(650 741)"><tspan x="0" y="0">Controller</tspan></text>
  <text class="st13" transform="translate(648.5 810)"><tspan x="0" y="0">command</tspan></text>
  <path class="st5" d="M1149,617.6c0-21.9,17.7-39.6,39.6-39.6h250.8c21.9,0,39.6,17.7,39.6,39.6v277.8c0,21.9-17.7,39.6-39.6,39.6h-250.8c-21.9,0-39.6-17.7-39.6-39.6v-277.8Z"/>
  <text class="st15" transform="translate(1231.9 778)"><tspan x="0" y="0">Plant</tspan></text>
  <path class="st4" d="M1009.5,673.1c0-14.7,11.9-26.6,26.6-26.6h52.9c14.7,0,26.6,11.9,26.6,26.6v29.9c0,14.7-11.9,26.6-26.6,26.6h-52.9c-14.7,0-26.6-11.9-26.6-26.6v-29.9Z"/>
  <text class="st18" transform="translate(1049.4 702)"><tspan x="0" y="0">u</tspan></text>
  <path class="st7" d="M1499.5,676.7c0-14.5,11.8-26.2,26.2-26.2h52.5c14.5,0,26.2,11.8,26.2,26.2v29.5c0,14.5-11.8,26.2-26.2,26.2h-52.5c-14.5,0-26.2-11.8-26.2-26.2v-29.5Z"/>
  <text class="st16" transform="translate(1541.1 702)"><tspan x="0" y="0">y</tspan></text>
  <path class="st2" d="M54,1160.6c0-21.9,17.7-39.6,39.6-39.6h1553.7c21.9,0,39.6,17.7,39.6,39.6v204.7c0,21.9-17.7,39.6-39.6,39.6H93.6c-21.9,0-39.6-17.7-39.6-39.6v-204.7Z"/>
  <text class="st12" transform="translate(521.5 1238)"><tspan x="0" y="0">No output measurement is used</tspan></text>
  <text class="st12" transform="translate(357.6 1298)"><tspan x="0" y="0">to correct the command after operation begins.</tspan></text>
  <path class="st2" d="M2285,634.6c0-21.8,17.7-39.6,39.6-39.6h266.9c21.8,0,39.6,17.7,39.6,39.6v243.9c0,21.8-17.7,39.6-39.6,39.6h-266.9c-21.8,0-39.6-17.7-39.6-39.6v-243.9Z"/>
  <text class="st11" transform="translate(2341.7 742)"><tspan x="0" y="0">Reference</tspan></text>
  <text class="st11" transform="translate(2449.1 805)"><tspan x="0" y="0">r</tspan></text>
  <path class="st3" d="M2742,752.5c0-32.9,26.4-59.5,59-59.5s59,26.6,59,59.5-26.4,59.5-59,59.5-59-26.6-59-59.5Z"/>
  <text class="st10" transform="translate(2755.7 771)"><tspan x="0" y="0">+</tspan></text>
  <path class="st1" d="M2956,617.7c0-21.9,17.8-39.7,39.7-39.7h366.7c21.9,0,39.7,17.8,39.7,39.7v277.7c0,21.9-17.8,39.7-39.7,39.7h-366.7c-21.9,0-39.7-17.8-39.7-39.7v-277.7Z"/>
  <text class="st19" transform="translate(3034.5 776)"><tspan x="0" y="0">Controller</tspan></text>
  <path class="st5" d="M3547,617.5c0-21.8,17.7-39.5,39.5-39.5h256.9c21.8,0,39.5,17.7,39.5,39.5v277.9c0,21.8-17.7,39.5-39.5,39.5h-256.9c-21.8,0-39.5-17.7-39.5-39.5v-277.9Z"/>
  <text class="st15" transform="translate(3632.9 778)"><tspan x="0" y="0">Plant</tspan></text>
  <path class="st4" d="M3421.5,673.1c0-14.7,11.9-26.6,26.6-26.6h52.9c14.7,0,26.6,11.9,26.6,26.6v29.9c0,14.7-11.9,26.6-26.6,26.6h-52.9c-14.7,0-26.6-11.9-26.6-26.6v-29.9Z"/>
  <text class="st18" transform="translate(3461.3 702)"><tspan x="0" y="0">u</tspan></text>
  <path class="st7" d="M3903.5,673.1c0-14.7,11.9-26.6,26.6-26.6h52.9c14.7,0,26.6,11.9,26.6,26.6v29.9c0,14.7-11.9,26.6-26.6,26.6h-52.9c-14.7,0-26.6-11.9-26.6-26.6v-29.9Z"/>
  <text class="st16" transform="translate(3945.7 702)"><tspan x="0" y="0">y</tspan></text>
  <path class="st6" d="M3139.5,1044.1c0-14.7,11.9-26.6,26.6-26.6h359.9c14.7,0,26.6,11.9,26.6,26.6v29.9c0,14.7-11.9,26.6-26.6,26.6h-359.9c-14.7,0-26.6-11.9-26.6-26.6v-29.9Z"/>
  <text class="st14" transform="translate(3200 1071)"><tspan x="0" y="0">measured output</tspan></text>
  <path class="st2" d="M2286,1164.6c0-21.9,17.7-39.6,39.6-39.6h1576.7c21.9,0,39.6,17.7,39.6,39.6v204.7c0,21.9-17.7,39.6-39.6,39.6h-1576.7c-21.9,0-39.6-17.7-39.6-39.6v-204.7Z"/>
  <text class="st12" transform="translate(2577.1 1242)"><tspan x="0" y="0">The measured output is fed back so the controller</tspan></text>
  <text class="st12" transform="translate(2584.9 1302)"><tspan x="0" y="0">can respond to disturbances and modeling error.</tspan></text>
  <text class="st15" transform="translate(904.2 1556)"><tspan x="0" y="0">Key difference: feedback turns output information into corrective action.</tspan></text>
  <text class="st10" transform="translate(2793.3 804)"><tspan x="0" y="0">-</tspan></text>
  <path class="st21" d="M3982.4,762.2h37l-5.2-5.2v243.8l5.2-5.2h-1218.4l5.2,5.2v-152.1h-10.3v157.2h1228.8v-254.1h-42.2v10.3ZM2816.5,853.9l-15.5-30.9-15.5,30.9h30.9Z"/>
</svg>