<?xml version="1.0" encoding="utf-8" standalone="no"?>
<!DOCTYPE svg PUBLIC "-//W3C//DTD SVG 1.1//EN"
  "http://www.w3.org/Graphics/SVG/1.1/DTD/svg11.dtd">
<svg xmlns:xlink="http://www.w3.org/1999/xlink" width="583.56pt" height="258.336pt" viewBox="0 0 583.56 258.336" xmlns="http://www.w3.org/2000/svg" version="1.1">
 <metadata>
  <rdf:RDF xmlns:dc="http://purl.org/dc/elements/1.1/" xmlns:cc="http://creativecommons.org/ns#" xmlns:rdf="http://www.w3.org/1999/02/22-rdf-syntax-ns#">
   <cc:Work>
    <dc:type rdf:resource="http://purl.org/dc/dcmitype/StillImage"/>
    <dc:date>2026-07-17T04:27:48.072811</dc:date>
    <dc:format>image/svg+xml</dc:format>
    <dc:creator>
     <cc:Agent>
      <dc:title>Matplotlib v3.10.8, https://matplotlib.org/</dc:title>
     </cc:Agent>
    </dc:creator>
   </cc:Work>
  </rdf:RDF>
 </metadata>
 <defs>
  <style type="text/css">*{stroke-linejoin: round; stroke-linecap: butt}</style>
 </defs>
 <g id="figure_1">
  <g id="patch_1">
   <path d="M 0 258.336 
L 583.56 258.336 
L 583.56 0 
L 0 0 
z
" style="fill: #ffffff"/>
  </g>
  <g id="axes_1">
   <g id="patch_2">
    <path d="M 62.2188 159.44971 
L 160.8732 159.44971 
Q 164.6676 159.44971 164.6676 156.085076 
L 164.6676 119.074097 
Q 164.6676 115.709462 160.8732 115.709462 
L 62.2188 115.709462 
Q 58.4244 115.709462 58.4244 119.074097 
L 58.4244 156.085076 
Q 58.4244 159.44971 62.2188 159.44971 
z
" clip-path="url(#pe5e49ae111)" style="fill: #eaf2f8; stroke: #123b63; stroke-width: 1.8; stroke-linejoin: miter"/>
   </g>
   <g id="patch_3">
    <path d="M 204.5088 159.44971 
L 307.9062 159.44971 
Q 311.7006 159.44971 311.7006 156.085076 
L 311.7006 119.074097 
Q 311.7006 115.709462 307.9062 115.709462 
L 204.5088 115.709462 
Q 200.7144 115.709462 200.7144 119.074097 
L 200.7144 156.085076 
Q 200.7144 159.44971 204.5088 159.44971 
z
" clip-path="url(#pe5e49ae111)" style="fill: #ebf2f8; stroke: #2d6a9f; stroke-width: 1.8; stroke-linejoin: miter"/>
   </g>
   <g id="patch_4">
    <path d="M 351.5418 159.44971 
L 454.9392 159.44971 
Q 458.7336 159.44971 458.7336 156.085076 
L 458.7336 119.074097 
Q 458.7336 115.709462 454.9392 115.709462 
L 351.5418 115.709462 
Q 347.7474 115.709462 347.7474 119.074097 
L 347.7474 156.085076 
Q 347.7474 159.44971 351.5418 159.44971 
z
" clip-path="url(#pe5e49ae111)" style="fill: #f7efe1; stroke: #d97706; stroke-width: 1.8; stroke-linejoin: miter"/>
   </g>
   <g id="patch_5">
    <path d="M 493.8318 159.44971 
L 545.0562 159.44971 
Q 548.8506 159.44971 548.8506 156.085076 
L 548.8506 119.074097 
Q 548.8506 115.709462 545.0562 115.709462 
L 493.8318 115.709462 
Q 490.0374 115.709462 490.0374 119.074097 
L 490.0374 156.085076 
Q 490.0374 159.44971 493.8318 159.44971 
z
" clip-path="url(#pe5e49ae111)" style="fill: #ffffff; stroke: #5b6573; stroke-width: 1.8; stroke-linejoin: miter"/>
   </g>
   <g id="patch_6">
    <path d="M 218.7378 73.230952 
L 293.6772 73.230952 
Q 297.4716 73.230952 297.4716 69.866317 
L 297.4716 43.369821 
Q 297.4716 40.005186 293.6772 40.005186 
L 218.7378 40.005186 
Q 214.9434 40.005186 214.9434 43.369821 
L 214.9434 69.866317 
Q 214.9434 73.230952 218.7378 73.230952 
z
" clip-path="url(#pe5e49ae111)" style="fill: #ffffff; stroke: #d97706; stroke-width: 1.8; stroke-linejoin: miter"/>
   </g>
   <g id="patch_7">
    <path d="M 365.7708 73.230952 
L 440.7102 73.230952 
Q 444.5046 73.230952 444.5046 69.866317 
L 444.5046 43.369821 
Q 444.5046 40.005186 440.7102 40.005186 
L 365.7708 40.005186 
Q 361.9764 40.005186 361.9764 43.369821 
L 361.9764 69.866317 
Q 361.9764 73.230952 365.7708 73.230952 
z
" clip-path="url(#pe5e49ae111)" style="fill: #ffffff; stroke: #2f855a; stroke-width: 1.8; stroke-linejoin: miter"/>
   </g>
   <g id="patch_8">
    <path d="M 116.7633 237.677462 
L 469.1682 237.677462 
Q 472.9626 237.677462 472.9626 234.312828 
L 472.9626 198.143007 
Q 472.9626 194.778372 469.1682 194.778372 
L 116.7633 194.778372 
Q 112.9689 194.778372 112.9689 198.143007 
L 112.9689 234.312828 
Q 112.9689 237.677462 116.7633 237.677462 
z
" clip-path="url(#pe5e49ae111)" style="fill: #ffffff; stroke: #5b6573; stroke-linejoin: miter"/>
   </g>
   <g id="text_1">
    <!-- State vector -->
    <g style="fill: #1f2933" transform="translate(69.795375 134.172149) scale(0.12 -0.12)">
     <defs>
      <path id="DejaVuSans-Bold-53" d="M 3834 4519 
L 3834 3531 
Q 3450 3703 3084 3790 
Q 2719 3878 2394 3878 
Q 1963 3878 1756 3759 
Q 1550 3641 1550 3391 
Q 1550 3203 1689 3098 
Q 1828 2994 2194 2919 
L 2706 2816 
Q 3484 2659 3812 2340 
Q 4141 2022 4141 1434 
Q 4141 663 3683 286 
Q 3225 -91 2284 -91 
Q 1841 -91 1394 -6 
Q 947 78 500 244 
L 500 1259 
Q 947 1022 1364 901 
Q 1781 781 2169 781 
Q 2563 781 2772 912 
Q 2981 1044 2981 1288 
Q 2981 1506 2839 1625 
Q 2697 1744 2272 1838 
L 1806 1941 
Q 1106 2091 782 2419 
Q 459 2747 459 3303 
Q 459 4000 909 4375 
Q 1359 4750 2203 4750 
Q 2588 4750 2994 4692 
Q 3400 4634 3834 4519 
z
" transform="scale(0.015625)"/>
      <path id="DejaVuSans-Bold-74" d="M 1759 4494 
L 1759 3500 
L 2913 3500 
L 2913 2700 
L 1759 2700 
L 1759 1216 
Q 1759 972 1856 886 
Q 1953 800 2241 800 
L 2816 800 
L 2816 0 
L 1856 0 
Q 1194 0 917 276 
Q 641 553 641 1216 
L 641 2700 
L 84 2700 
L 84 3500 
L 641 3500 
L 641 4494 
L 1759 4494 
z
" transform="scale(0.015625)"/>
      <path id="DejaVuSans-Bold-61" d="M 2106 1575 
Q 1756 1575 1579 1456 
Q 1403 1338 1403 1106 
Q 1403 894 1545 773 
Q 1688 653 1941 653 
Q 2256 653 2472 879 
Q 2688 1106 2688 1447 
L 2688 1575 
L 2106 1575 
z
M 3816 1997 
L 3816 0 
L 2688 0 
L 2688 519 
Q 2463 200 2181 54 
Q 1900 -91 1497 -91 
Q 953 -91 614 226 
Q 275 544 275 1050 
Q 275 1666 698 1953 
Q 1122 2241 2028 2241 
L 2688 2241 
L 2688 2328 
Q 2688 2594 2478 2717 
Q 2269 2841 1825 2841 
Q 1466 2841 1156 2769 
Q 847 2697 581 2553 
L 581 3406 
Q 941 3494 1303 3539 
Q 1666 3584 2028 3584 
Q 2975 3584 3395 3211 
Q 3816 2838 3816 1997 
z
" transform="scale(0.015625)"/>
      <path id="DejaVuSans-Bold-65" d="M 4031 1759 
L 4031 1441 
L 1416 1441 
Q 1456 1047 1700 850 
Q 1944 653 2381 653 
Q 2734 653 3104 758 
Q 3475 863 3866 1075 
L 3866 213 
Q 3469 63 3072 -14 
Q 2675 -91 2278 -91 
Q 1328 -91 801 392 
Q 275 875 275 1747 
Q 275 2603 792 3093 
Q 1309 3584 2216 3584 
Q 3041 3584 3536 3087 
Q 4031 2591 4031 1759 
z
M 2881 2131 
Q 2881 2450 2695 2645 
Q 2509 2841 2209 2841 
Q 1884 2841 1681 2658 
Q 1478 2475 1428 2131 
L 2881 2131 
z
" transform="scale(0.015625)"/>
      <path id="DejaVuSans-Bold-20" transform="scale(0.015625)"/>
      <path id="DejaVuSans-Bold-76" d="M 97 3500 
L 1216 3500 
L 2088 1081 
L 2956 3500 
L 4078 3500 
L 2700 0 
L 1472 0 
L 97 3500 
z
" transform="scale(0.015625)"/>
      <path id="DejaVuSans-Bold-63" d="M 3366 3391 
L 3366 2478 
Q 3138 2634 2908 2709 
Q 2678 2784 2431 2784 
Q 1963 2784 1702 2511 
Q 1441 2238 1441 1747 
Q 1441 1256 1702 982 
Q 1963 709 2431 709 
Q 2694 709 2930 787 
Q 3166 866 3366 1019 
L 3366 103 
Q 3103 6 2833 -42 
Q 2563 -91 2291 -91 
Q 1344 -91 809 395 
Q 275 881 275 1747 
Q 275 2613 809 3098 
Q 1344 3584 2291 3584 
Q 2566 3584 2833 3536 
Q 3100 3488 3366 3391 
z
" transform="scale(0.015625)"/>
      <path id="DejaVuSans-Bold-6f" d="M 2203 2784 
Q 1831 2784 1636 2517 
Q 1441 2250 1441 1747 
Q 1441 1244 1636 976 
Q 1831 709 2203 709 
Q 2569 709 2762 976 
Q 2956 1244 2956 1747 
Q 2956 2250 2762 2517 
Q 2569 2784 2203 2784 
z
M 2203 3584 
Q 3106 3584 3614 3096 
Q 4122 2609 4122 1747 
Q 4122 884 3614 396 
Q 3106 -91 2203 -91 
Q 1297 -91 786 396 
Q 275 884 275 1747 
Q 275 2609 786 3096 
Q 1297 3584 2203 3584 
z
" transform="scale(0.015625)"/>
      <path id="DejaVuSans-Bold-72" d="M 3138 2547 
Q 2991 2616 2845 2648 
Q 2700 2681 2553 2681 
Q 2122 2681 1889 2404 
Q 1656 2128 1656 1613 
L 1656 0 
L 538 0 
L 538 3500 
L 1656 3500 
L 1656 2925 
Q 1872 3269 2151 3426 
Q 2431 3584 2822 3584 
Q 2878 3584 2943 3579 
Q 3009 3575 3134 3559 
L 3138 2547 
z
" transform="scale(0.015625)"/>
     </defs>
     <use xlink:href="#DejaVuSans-Bold-53"/>
     <use xlink:href="#DejaVuSans-Bold-74" transform="translate(72.021484 0)"/>
     <use xlink:href="#DejaVuSans-Bold-61" transform="translate(119.824219 0)"/>
     <use xlink:href="#DejaVuSans-Bold-74" transform="translate(187.304688 0)"/>
     <use xlink:href="#DejaVuSans-Bold-65" transform="translate(235.107422 0)"/>
     <use xlink:href="#DejaVuSans-Bold-20" transform="translate(302.929688 0)"/>
     <use xlink:href="#DejaVuSans-Bold-76" transform="translate(337.744141 0)"/>
     <use xlink:href="#DejaVuSans-Bold-65" transform="translate(402.929688 0)"/>
     <use xlink:href="#DejaVuSans-Bold-63" transform="translate(470.751953 0)"/>
     <use xlink:href="#DejaVuSans-Bold-74" transform="translate(530.029297 0)"/>
     <use xlink:href="#DejaVuSans-Bold-6f" transform="translate(577.832031 0)"/>
     <use xlink:href="#DejaVuSans-Bold-72" transform="translate(646.533203 0)"/>
    </g>
    <!-- $x$ -->
    <g style="fill: #1f2933" transform="translate(107.946 147.609524) scale(0.12 -0.12)">
     <defs>
      <path id="DejaVuSans-Oblique-78" d="M 3841 3500 
L 2234 1784 
L 3219 0 
L 2559 0 
L 1819 1388 
L 531 0 
L -166 0 
L 1556 1844 
L 641 3500 
L 1300 3500 
L 1972 2234 
L 3144 3500 
L 3841 3500 
z
" transform="scale(0.015625)"/>
     </defs>
     <use xlink:href="#DejaVuSans-Oblique-78" transform="translate(0 0.3125)"/>
    </g>
   </g>
   <g id="text_2">
    <!-- State equation -->
    <g style="fill: #1f2933" transform="translate(215.633828 134.456102) scale(0.11 -0.11)">
     <defs>
      <path id="DejaVuSans-53" d="M 3425 4513 
L 3425 3897 
Q 3066 4069 2747 4153 
Q 2428 4238 2131 4238 
Q 1616 4238 1336 4038 
Q 1056 3838 1056 3469 
Q 1056 3159 1242 3001 
Q 1428 2844 1947 2747 
L 2328 2669 
Q 3034 2534 3370 2195 
Q 3706 1856 3706 1288 
Q 3706 609 3251 259 
Q 2797 -91 1919 -91 
Q 1588 -91 1214 -16 
Q 841 59 441 206 
L 441 856 
Q 825 641 1194 531 
Q 1563 422 1919 422 
Q 2459 422 2753 634 
Q 3047 847 3047 1241 
Q 3047 1584 2836 1778 
Q 2625 1972 2144 2069 
L 1759 2144 
Q 1053 2284 737 2584 
Q 422 2884 422 3419 
Q 422 4038 858 4394 
Q 1294 4750 2059 4750 
Q 2388 4750 2728 4690 
Q 3069 4631 3425 4513 
z
" transform="scale(0.015625)"/>
      <path id="DejaVuSans-74" d="M 1172 4494 
L 1172 3500 
L 2356 3500 
L 2356 3053 
L 1172 3053 
L 1172 1153 
Q 1172 725 1289 603 
Q 1406 481 1766 481 
L 2356 481 
L 2356 0 
L 1766 0 
Q 1100 0 847 248 
Q 594 497 594 1153 
L 594 3053 
L 172 3053 
L 172 3500 
L 594 3500 
L 594 4494 
L 1172 4494 
z
" transform="scale(0.015625)"/>
      <path id="DejaVuSans-61" d="M 2194 1759 
Q 1497 1759 1228 1600 
Q 959 1441 959 1056 
Q 959 750 1161 570 
Q 1363 391 1709 391 
Q 2188 391 2477 730 
Q 2766 1069 2766 1631 
L 2766 1759 
L 2194 1759 
z
M 3341 1997 
L 3341 0 
L 2766 0 
L 2766 531 
Q 2569 213 2275 61 
Q 1981 -91 1556 -91 
Q 1019 -91 701 211 
Q 384 513 384 1019 
Q 384 1609 779 1909 
Q 1175 2209 1959 2209 
L 2766 2209 
L 2766 2266 
Q 2766 2663 2505 2880 
Q 2244 3097 1772 3097 
Q 1472 3097 1187 3025 
Q 903 2953 641 2809 
L 641 3341 
Q 956 3463 1253 3523 
Q 1550 3584 1831 3584 
Q 2591 3584 2966 3190 
Q 3341 2797 3341 1997 
z
" transform="scale(0.015625)"/>
      <path id="DejaVuSans-65" d="M 3597 1894 
L 3597 1613 
L 953 1613 
Q 991 1019 1311 708 
Q 1631 397 2203 397 
Q 2534 397 2845 478 
Q 3156 559 3463 722 
L 3463 178 
Q 3153 47 2828 -22 
Q 2503 -91 2169 -91 
Q 1331 -91 842 396 
Q 353 884 353 1716 
Q 353 2575 817 3079 
Q 1281 3584 2069 3584 
Q 2775 3584 3186 3129 
Q 3597 2675 3597 1894 
z
M 3022 2063 
Q 3016 2534 2758 2815 
Q 2500 3097 2075 3097 
Q 1594 3097 1305 2825 
Q 1016 2553 972 2059 
L 3022 2063 
z
" transform="scale(0.015625)"/>
      <path id="DejaVuSans-20" transform="scale(0.015625)"/>
      <path id="DejaVuSans-71" d="M 947 1747 
Q 947 1113 1208 752 
Q 1469 391 1925 391 
Q 2381 391 2643 752 
Q 2906 1113 2906 1747 
Q 2906 2381 2643 2742 
Q 2381 3103 1925 3103 
Q 1469 3103 1208 2742 
Q 947 2381 947 1747 
z
M 2906 525 
Q 2725 213 2448 61 
Q 2172 -91 1784 -91 
Q 1150 -91 751 415 
Q 353 922 353 1747 
Q 353 2572 751 3078 
Q 1150 3584 1784 3584 
Q 2172 3584 2448 3432 
Q 2725 3281 2906 2969 
L 2906 3500 
L 3481 3500 
L 3481 -1331 
L 2906 -1331 
L 2906 525 
z
" transform="scale(0.015625)"/>
      <path id="DejaVuSans-75" d="M 544 1381 
L 544 3500 
L 1119 3500 
L 1119 1403 
Q 1119 906 1312 657 
Q 1506 409 1894 409 
Q 2359 409 2629 706 
Q 2900 1003 2900 1516 
L 2900 3500 
L 3475 3500 
L 3475 0 
L 2900 0 
L 2900 538 
Q 2691 219 2414 64 
Q 2138 -91 1772 -91 
Q 1169 -91 856 284 
Q 544 659 544 1381 
z
M 1991 3584 
L 1991 3584 
z
" transform="scale(0.015625)"/>
      <path id="DejaVuSans-69" d="M 603 3500 
L 1178 3500 
L 1178 0 
L 603 0 
L 603 3500 
z
M 603 4863 
L 1178 4863 
L 1178 4134 
L 603 4134 
L 603 4863 
z
" transform="scale(0.015625)"/>
      <path id="DejaVuSans-6f" d="M 1959 3097 
Q 1497 3097 1228 2736 
Q 959 2375 959 1747 
Q 959 1119 1226 758 
Q 1494 397 1959 397 
Q 2419 397 2687 759 
Q 2956 1122 2956 1747 
Q 2956 2369 2687 2733 
Q 2419 3097 1959 3097 
z
M 1959 3584 
Q 2709 3584 3137 3096 
Q 3566 2609 3566 1747 
Q 3566 888 3137 398 
Q 2709 -91 1959 -91 
Q 1206 -91 779 398 
Q 353 888 353 1747 
Q 353 2609 779 3096 
Q 1206 3584 1959 3584 
z
" transform="scale(0.015625)"/>
      <path id="DejaVuSans-6e" d="M 3513 2113 
L 3513 0 
L 2938 0 
L 2938 2094 
Q 2938 2591 2744 2837 
Q 2550 3084 2163 3084 
Q 1697 3084 1428 2787 
Q 1159 2491 1159 1978 
L 1159 0 
L 581 0 
L 581 3500 
L 1159 3500 
L 1159 2956 
Q 1366 3272 1645 3428 
Q 1925 3584 2291 3584 
Q 2894 3584 3203 3211 
Q 3513 2838 3513 2113 
z
" transform="scale(0.015625)"/>
     </defs>
     <use xlink:href="#DejaVuSans-53"/>
     <use xlink:href="#DejaVuSans-74" transform="translate(63.476562 0)"/>
     <use xlink:href="#DejaVuSans-61" transform="translate(102.685547 0)"/>
     <use xlink:href="#DejaVuSans-74" transform="translate(163.964844 0)"/>
     <use xlink:href="#DejaVuSans-65" transform="translate(203.173828 0)"/>
     <use xlink:href="#DejaVuSans-20" transform="translate(264.697266 0)"/>
     <use xlink:href="#DejaVuSans-65" transform="translate(296.484375 0)"/>
     <use xlink:href="#DejaVuSans-71" transform="translate(358.007812 0)"/>
     <use xlink:href="#DejaVuSans-75" transform="translate(421.484375 0)"/>
     <use xlink:href="#DejaVuSans-61" transform="translate(484.863281 0)"/>
     <use xlink:href="#DejaVuSans-74" transform="translate(546.142578 0)"/>
     <use xlink:href="#DejaVuSans-69" transform="translate(585.351562 0)"/>
     <use xlink:href="#DejaVuSans-6f" transform="translate(613.134766 0)"/>
     <use xlink:href="#DejaVuSans-6e" transform="translate(674.316406 0)"/>
    </g>
    <!-- $\dot{x}=Ax+Bu+Ed$ -->
    <g style="fill: #1f2933" transform="translate(211.4375 146.773696) scale(0.11 -0.11)">
     <defs>
      <path id="DejaVuSans-307" d="M -1894 4863 
L -1319 4863 
L -1319 4134 
L -1894 4134 
L -1894 4863 
z
M -1600 3584 
L -1600 3584 
z
" transform="scale(0.015625)"/>
      <path id="DejaVuSans-3d" d="M 678 2906 
L 4684 2906 
L 4684 2381 
L 678 2381 
L 678 2906 
z
M 678 1631 
L 4684 1631 
L 4684 1100 
L 678 1100 
L 678 1631 
z
" transform="scale(0.015625)"/>
      <path id="DejaVuSans-Oblique-41" d="M 2356 4666 
L 3072 4666 
L 3938 0 
L 3278 0 
L 3084 1197 
L 984 1197 
L 325 0 
L -341 0 
L 2356 4666 
z
M 2584 4044 
L 1275 1722 
L 2988 1722 
L 2584 4044 
z
" transform="scale(0.015625)"/>
      <path id="DejaVuSans-2b" d="M 2944 4013 
L 2944 2272 
L 4684 2272 
L 4684 1741 
L 2944 1741 
L 2944 0 
L 2419 0 
L 2419 1741 
L 678 1741 
L 678 2272 
L 2419 2272 
L 2419 4013 
L 2944 4013 
z
" transform="scale(0.015625)"/>
      <path id="DejaVuSans-Oblique-42" d="M 1081 4666 
L 2694 4666 
Q 3350 4666 3675 4422 
Q 4000 4178 4000 3688 
Q 4000 3238 3720 2911 
Q 3441 2584 2988 2516 
Q 3375 2428 3569 2181 
Q 3763 1934 3763 1522 
Q 3763 819 3242 409 
Q 2722 0 1819 0 
L 172 0 
L 1081 4666 
z
M 1234 2228 
L 903 519 
L 1919 519 
Q 2491 519 2800 781 
Q 3109 1044 3109 1522 
Q 3109 1891 2904 2059 
Q 2700 2228 2247 2228 
L 1234 2228 
z
M 1606 4147 
L 1331 2741 
L 2272 2741 
Q 2775 2741 3058 2959 
Q 3341 3178 3341 3566 
Q 3341 3869 3150 4008 
Q 2959 4147 2541 4147 
L 1606 4147 
z
" transform="scale(0.015625)"/>
      <path id="DejaVuSans-Oblique-75" d="M 428 1388 
L 838 3500 
L 1416 3500 
L 1006 1409 
Q 975 1256 961 1147 
Q 947 1038 947 966 
Q 947 700 1109 554 
Q 1272 409 1569 409 
Q 2031 409 2368 721 
Q 2706 1034 2809 1563 
L 3194 3500 
L 3769 3500 
L 3091 0 
L 2516 0 
L 2631 550 
Q 2388 244 2052 76 
Q 1716 -91 1338 -91 
Q 878 -91 622 161 
Q 366 413 366 863 
Q 366 956 381 1097 
Q 397 1238 428 1388 
z
" transform="scale(0.015625)"/>
      <path id="DejaVuSans-Oblique-45" d="M 1081 4666 
L 4031 4666 
L 3928 4134 
L 1606 4134 
L 1338 2753 
L 3566 2753 
L 3463 2222 
L 1234 2222 
L 909 531 
L 3284 531 
L 3181 0 
L 172 0 
L 1081 4666 
z
" transform="scale(0.015625)"/>
      <path id="DejaVuSans-Oblique-64" d="M 2675 525 
Q 2444 222 2128 65 
Q 1813 -91 1428 -91 
Q 903 -91 598 267 
Q 294 625 294 1247 
Q 294 1766 478 2236 
Q 663 2706 1013 3078 
Q 1244 3325 1534 3454 
Q 1825 3584 2144 3584 
Q 2481 3584 2739 3421 
Q 2997 3259 3138 2956 
L 3513 4863 
L 4091 4863 
L 3144 0 
L 2566 0 
L 2675 525 
z
M 891 1350 
Q 891 897 1095 644 
Q 1300 391 1663 391 
Q 1931 391 2161 520 
Q 2391 650 2566 903 
Q 2750 1166 2856 1509 
Q 2963 1853 2963 2188 
Q 2963 2622 2758 2865 
Q 2553 3109 2194 3109 
Q 1922 3109 1687 2981 
Q 1453 2853 1288 2613 
Q 1106 2353 998 2009 
Q 891 1666 891 1350 
z
" transform="scale(0.015625)"/>
     </defs>
     <use xlink:href="#DejaVuSans-307" transform="translate(62.388672 12.015625)"/>
     <use xlink:href="#DejaVuSans-Oblique-78" transform="translate(0 0.828125)"/>
     <use xlink:href="#DejaVuSans-3d" transform="translate(78.662109 0.828125)"/>
     <use xlink:href="#DejaVuSans-Oblique-41" transform="translate(181.933594 0.828125)"/>
     <use xlink:href="#DejaVuSans-Oblique-78" transform="translate(250.341797 0.828125)"/>
     <use xlink:href="#DejaVuSans-2b" transform="translate(329.003906 0.828125)"/>
     <use xlink:href="#DejaVuSans-Oblique-42" transform="translate(432.275391 0.828125)"/>
     <use xlink:href="#DejaVuSans-Oblique-75" transform="translate(500.878906 0.828125)"/>
     <use xlink:href="#DejaVuSans-2b" transform="translate(583.740234 0.828125)"/>
     <use xlink:href="#DejaVuSans-Oblique-45" transform="translate(687.011719 0.828125)"/>
     <use xlink:href="#DejaVuSans-Oblique-64" transform="translate(750.195312 0.828125)"/>
    </g>
   </g>
   <g id="text_3">
    <!-- Output equation -->
    <g style="fill: #1f2933" transform="translate(358.120734 134.443899) scale(0.11 -0.11)">
     <defs>
      <path id="DejaVuSans-4f" d="M 2522 4238 
Q 1834 4238 1429 3725 
Q 1025 3213 1025 2328 
Q 1025 1447 1429 934 
Q 1834 422 2522 422 
Q 3209 422 3611 934 
Q 4013 1447 4013 2328 
Q 4013 3213 3611 3725 
Q 3209 4238 2522 4238 
z
M 2522 4750 
Q 3503 4750 4090 4092 
Q 4678 3434 4678 2328 
Q 4678 1225 4090 567 
Q 3503 -91 2522 -91 
Q 1538 -91 948 565 
Q 359 1222 359 2328 
Q 359 3434 948 4092 
Q 1538 4750 2522 4750 
z
" transform="scale(0.015625)"/>
      <path id="DejaVuSans-70" d="M 1159 525 
L 1159 -1331 
L 581 -1331 
L 581 3500 
L 1159 3500 
L 1159 2969 
Q 1341 3281 1617 3432 
Q 1894 3584 2278 3584 
Q 2916 3584 3314 3078 
Q 3713 2572 3713 1747 
Q 3713 922 3314 415 
Q 2916 -91 2278 -91 
Q 1894 -91 1617 61 
Q 1341 213 1159 525 
z
M 3116 1747 
Q 3116 2381 2855 2742 
Q 2594 3103 2138 3103 
Q 1681 3103 1420 2742 
Q 1159 2381 1159 1747 
Q 1159 1113 1420 752 
Q 1681 391 2138 391 
Q 2594 391 2855 752 
Q 3116 1113 3116 1747 
z
" transform="scale(0.015625)"/>
     </defs>
     <use xlink:href="#DejaVuSans-4f"/>
     <use xlink:href="#DejaVuSans-75" transform="translate(78.710938 0)"/>
     <use xlink:href="#DejaVuSans-74" transform="translate(142.089844 0)"/>
     <use xlink:href="#DejaVuSans-70" transform="translate(181.298828 0)"/>
     <use xlink:href="#DejaVuSans-75" transform="translate(244.775391 0)"/>
     <use xlink:href="#DejaVuSans-74" transform="translate(308.154297 0)"/>
     <use xlink:href="#DejaVuSans-20" transform="translate(347.363281 0)"/>
     <use xlink:href="#DejaVuSans-65" transform="translate(379.150391 0)"/>
     <use xlink:href="#DejaVuSans-71" transform="translate(440.673828 0)"/>
     <use xlink:href="#DejaVuSans-75" transform="translate(504.150391 0)"/>
     <use xlink:href="#DejaVuSans-61" transform="translate(567.529297 0)"/>
     <use xlink:href="#DejaVuSans-74" transform="translate(628.808594 0)"/>
     <use xlink:href="#DejaVuSans-69" transform="translate(668.017578 0)"/>
     <use xlink:href="#DejaVuSans-6f" transform="translate(695.800781 0)"/>
     <use xlink:href="#DejaVuSans-6e" transform="translate(756.982422 0)"/>
    </g>
    <!-- $y=Cx+Du+Fd$ -->
    <g style="fill: #1f2933" transform="translate(358.2505 146.763555) scale(0.11 -0.11)">
     <defs>
      <path id="DejaVuSans-Oblique-79" d="M 1588 -325 
Q 1188 -997 936 -1164 
Q 684 -1331 294 -1331 
L -159 -1331 
L -63 -850 
L 269 -850 
Q 509 -850 678 -719 
Q 847 -588 1056 -206 
L 1234 128 
L 459 3500 
L 1069 3500 
L 1650 819 
L 3256 3500 
L 3859 3500 
L 1588 -325 
z
" transform="scale(0.015625)"/>
      <path id="DejaVuSans-Oblique-43" d="M 4447 4306 
L 4319 3641 
Q 4019 3944 3683 4091 
Q 3347 4238 2956 4238 
Q 2422 4238 2017 3981 
Q 1613 3725 1319 3200 
Q 1131 2863 1032 2486 
Q 934 2109 934 1728 
Q 934 1091 1264 756 
Q 1594 422 2222 422 
Q 2656 422 3056 561 
Q 3456 700 3834 978 
L 3688 231 
Q 3316 72 2936 -9 
Q 2556 -91 2175 -91 
Q 1278 -91 773 396 
Q 269 884 269 1753 
Q 269 2309 461 2846 
Q 653 3384 1013 3828 
Q 1394 4300 1883 4525 
Q 2372 4750 3022 4750 
Q 3422 4750 3780 4639 
Q 4138 4528 4447 4306 
z
" transform="scale(0.015625)"/>
      <path id="DejaVuSans-Oblique-44" d="M 1081 4666 
L 2438 4666 
Q 3519 4666 4070 4208 
Q 4622 3750 4622 2847 
Q 4622 2250 4412 1698 
Q 4203 1147 3834 769 
Q 3463 381 2891 190 
Q 2319 0 1538 0 
L 172 0 
L 1081 4666 
z
M 1613 4147 
L 909 519 
L 1734 519 
Q 2794 519 3375 1128 
Q 3956 1738 3956 2847 
Q 3956 3519 3581 3833 
Q 3206 4147 2406 4147 
L 1613 4147 
z
" transform="scale(0.015625)"/>
      <path id="DejaVuSans-Oblique-46" d="M 1081 4666 
L 3756 4666 
L 3653 4134 
L 1606 4134 
L 1338 2759 
L 3188 2759 
L 3084 2228 
L 1234 2228 
L 800 0 
L 172 0 
L 1081 4666 
z
" transform="scale(0.015625)"/>
     </defs>
     <use xlink:href="#DejaVuSans-Oblique-79" transform="translate(0 0.015625)"/>
     <use xlink:href="#DejaVuSans-3d" transform="translate(78.662109 0.015625)"/>
     <use xlink:href="#DejaVuSans-Oblique-43" transform="translate(181.933594 0.015625)"/>
     <use xlink:href="#DejaVuSans-Oblique-78" transform="translate(251.757812 0.015625)"/>
     <use xlink:href="#DejaVuSans-2b" transform="translate(330.419922 0.015625)"/>
     <use xlink:href="#DejaVuSans-Oblique-44" transform="translate(433.691406 0.015625)"/>
     <use xlink:href="#DejaVuSans-Oblique-75" transform="translate(510.693359 0.015625)"/>
     <use xlink:href="#DejaVuSans-2b" transform="translate(593.554688 0.015625)"/>
     <use xlink:href="#DejaVuSans-Oblique-46" transform="translate(696.826172 0.015625)"/>
     <use xlink:href="#DejaVuSans-Oblique-64" transform="translate(754.345703 0.015625)"/>
    </g>
   </g>
   <g id="text_4">
    <!-- Output -->
    <g style="fill: #1f2933" transform="translate(498.602437 134.159961) scale(0.12 -0.12)">
     <use xlink:href="#DejaVuSans-4f"/>
     <use xlink:href="#DejaVuSans-75" transform="translate(78.710938 0)"/>
     <use xlink:href="#DejaVuSans-74" transform="translate(142.089844 0)"/>
     <use xlink:href="#DejaVuSans-70" transform="translate(181.298828 0)"/>
     <use xlink:href="#DejaVuSans-75" transform="translate(244.775391 0)"/>
     <use xlink:href="#DejaVuSans-74" transform="translate(308.154297 0)"/>
    </g>
    <!-- $y$ -->
    <g style="fill: #1f2933" transform="translate(515.844 147.597336) scale(0.12 -0.12)">
     <use xlink:href="#DejaVuSans-Oblique-79" transform="translate(0 0.3125)"/>
    </g>
   </g>
   <g id="patch_9">
    <path d="M 165.715321 137.579586 
Q 182.690858 137.579586 197.87754 137.579586 
" clip-path="url(#pe5e49ae111)" style="fill: none; stroke: #5b6573; stroke-width: 1.6; stroke-linecap: round"/>
    <path d="M 191.87754 134.579586 
L 197.87754 137.579586 
L 191.87754 140.579586 
z
" clip-path="url(#pe5e49ae111)" style="fill: #5b6573; stroke: #5b6573; stroke-width: 1.6; stroke-linecap: round"/>
   </g>
   <g id="patch_10">
    <path d="M 312.748321 137.579586 
Q 329.723858 137.579586 344.91054 137.579586 
" clip-path="url(#pe5e49ae111)" style="fill: none; stroke: #5b6573; stroke-width: 1.6; stroke-linecap: round"/>
    <path d="M 338.91054 134.579586 
L 344.91054 137.579586 
L 338.91054 140.579586 
z
" clip-path="url(#pe5e49ae111)" style="fill: #5b6573; stroke: #5b6573; stroke-width: 1.6; stroke-linecap: round"/>
   </g>
   <g id="patch_11">
    <path d="M 459.783058 137.579586 
Q 474.384679 137.579586 487.197445 137.579586 
" clip-path="url(#pe5e49ae111)" style="fill: none; stroke: #5b6573; stroke-width: 1.6; stroke-linecap: round"/>
    <path d="M 481.197445 134.579586 
L 487.197445 137.579586 
L 481.197445 140.579586 
z
" clip-path="url(#pe5e49ae111)" style="fill: #5b6573; stroke: #5b6573; stroke-width: 1.6; stroke-linecap: round"/>
   </g>
   <g id="text_5">
    <!-- Input -->
    <g style="fill: #1f2933" transform="translate(242.613281 53.636561) scale(0.105 -0.105)">
     <defs>
      <path id="DejaVuSans-49" d="M 628 4666 
L 1259 4666 
L 1259 0 
L 628 0 
L 628 4666 
z
" transform="scale(0.015625)"/>
     </defs>
     <use xlink:href="#DejaVuSans-49"/>
     <use xlink:href="#DejaVuSans-6e" transform="translate(29.492188 0)"/>
     <use xlink:href="#DejaVuSans-70" transform="translate(92.871094 0)"/>
     <use xlink:href="#DejaVuSans-75" transform="translate(156.347656 0)"/>
     <use xlink:href="#DejaVuSans-74" transform="translate(219.726562 0)"/>
    </g>
    <!-- $u$ -->
    <g style="fill: #1f2933" transform="translate(252.8475 65.394264) scale(0.105 -0.105)">
     <use xlink:href="#DejaVuSans-Oblique-75" transform="translate(0 0.3125)"/>
    </g>
   </g>
   <g id="patch_12">
    <path d="M 256.2075 75.649334 
Q 256.2075 95.098914 256.2075 112.75964 
" clip-path="url(#pe5e49ae111)" style="fill: none; stroke: #d97706; stroke-width: 1.6; stroke-linecap: round"/>
    <path d="M 259.2075 106.75964 
L 256.2075 112.75964 
L 253.2075 106.75964 
z
" clip-path="url(#pe5e49ae111)" style="fill: #d97706; stroke: #d97706; stroke-width: 1.6; stroke-linecap: round"/>
   </g>
   <g id="text_6">
    <!-- Disturbance -->
    <g style="fill: #1f2933" transform="translate(371.466516 53.636561) scale(0.105 -0.105)">
     <defs>
      <path id="DejaVuSans-44" d="M 1259 4147 
L 1259 519 
L 2022 519 
Q 2988 519 3436 956 
Q 3884 1394 3884 2338 
Q 3884 3275 3436 3711 
Q 2988 4147 2022 4147 
L 1259 4147 
z
M 628 4666 
L 1925 4666 
Q 3281 4666 3915 4102 
Q 4550 3538 4550 2338 
Q 4550 1131 3912 565 
Q 3275 0 1925 0 
L 628 0 
L 628 4666 
z
" transform="scale(0.015625)"/>
      <path id="DejaVuSans-73" d="M 2834 3397 
L 2834 2853 
Q 2591 2978 2328 3040 
Q 2066 3103 1784 3103 
Q 1356 3103 1142 2972 
Q 928 2841 928 2578 
Q 928 2378 1081 2264 
Q 1234 2150 1697 2047 
L 1894 2003 
Q 2506 1872 2764 1633 
Q 3022 1394 3022 966 
Q 3022 478 2636 193 
Q 2250 -91 1575 -91 
Q 1294 -91 989 -36 
Q 684 19 347 128 
L 347 722 
Q 666 556 975 473 
Q 1284 391 1588 391 
Q 1994 391 2212 530 
Q 2431 669 2431 922 
Q 2431 1156 2273 1281 
Q 2116 1406 1581 1522 
L 1381 1569 
Q 847 1681 609 1914 
Q 372 2147 372 2553 
Q 372 3047 722 3315 
Q 1072 3584 1716 3584 
Q 2034 3584 2315 3537 
Q 2597 3491 2834 3397 
z
" transform="scale(0.015625)"/>
      <path id="DejaVuSans-72" d="M 2631 2963 
Q 2534 3019 2420 3045 
Q 2306 3072 2169 3072 
Q 1681 3072 1420 2755 
Q 1159 2438 1159 1844 
L 1159 0 
L 581 0 
L 581 3500 
L 1159 3500 
L 1159 2956 
Q 1341 3275 1631 3429 
Q 1922 3584 2338 3584 
Q 2397 3584 2469 3576 
Q 2541 3569 2628 3553 
L 2631 2963 
z
" transform="scale(0.015625)"/>
      <path id="DejaVuSans-62" d="M 3116 1747 
Q 3116 2381 2855 2742 
Q 2594 3103 2138 3103 
Q 1681 3103 1420 2742 
Q 1159 2381 1159 1747 
Q 1159 1113 1420 752 
Q 1681 391 2138 391 
Q 2594 391 2855 752 
Q 3116 1113 3116 1747 
z
M 1159 2969 
Q 1341 3281 1617 3432 
Q 1894 3584 2278 3584 
Q 2916 3584 3314 3078 
Q 3713 2572 3713 1747 
Q 3713 922 3314 415 
Q 2916 -91 2278 -91 
Q 1894 -91 1617 61 
Q 1341 213 1159 525 
L 1159 0 
L 581 0 
L 581 4863 
L 1159 4863 
L 1159 2969 
z
" transform="scale(0.015625)"/>
      <path id="DejaVuSans-63" d="M 3122 3366 
L 3122 2828 
Q 2878 2963 2633 3030 
Q 2388 3097 2138 3097 
Q 1578 3097 1268 2742 
Q 959 2388 959 1747 
Q 959 1106 1268 751 
Q 1578 397 2138 397 
Q 2388 397 2633 464 
Q 2878 531 3122 666 
L 3122 134 
Q 2881 22 2623 -34 
Q 2366 -91 2075 -91 
Q 1284 -91 818 406 
Q 353 903 353 1747 
Q 353 2603 823 3093 
Q 1294 3584 2113 3584 
Q 2378 3584 2631 3529 
Q 2884 3475 3122 3366 
z
" transform="scale(0.015625)"/>
     </defs>
     <use xlink:href="#DejaVuSans-44"/>
     <use xlink:href="#DejaVuSans-69" transform="translate(77.001953 0)"/>
     <use xlink:href="#DejaVuSans-73" transform="translate(104.785156 0)"/>
     <use xlink:href="#DejaVuSans-74" transform="translate(156.884766 0)"/>
     <use xlink:href="#DejaVuSans-75" transform="translate(196.09375 0)"/>
     <use xlink:href="#DejaVuSans-72" transform="translate(259.472656 0)"/>
     <use xlink:href="#DejaVuSans-62" transform="translate(300.585938 0)"/>
     <use xlink:href="#DejaVuSans-61" transform="translate(364.0625 0)"/>
     <use xlink:href="#DejaVuSans-6e" transform="translate(425.341797 0)"/>
     <use xlink:href="#DejaVuSans-63" transform="translate(488.720703 0)"/>
     <use xlink:href="#DejaVuSans-65" transform="translate(543.701172 0)"/>
    </g>
    <!-- $d$ -->
    <g style="fill: #1f2933" transform="translate(399.8805 65.394264) scale(0.105 -0.105)">
     <use xlink:href="#DejaVuSans-Oblique-64" transform="translate(0 0.015625)"/>
    </g>
   </g>
   <g id="patch_13">
    <path d="M 403.2405 75.649334 
Q 403.2405 95.098914 403.2405 112.75964 
" clip-path="url(#pe5e49ae111)" style="fill: none; stroke: #2f855a; stroke-width: 1.6; stroke-linecap: round"/>
    <path d="M 406.2405 106.75964 
L 403.2405 112.75964 
L 400.2405 106.75964 
z
" clip-path="url(#pe5e49ae111)" style="fill: #2f855a; stroke: #2f855a; stroke-width: 1.6; stroke-linecap: round"/>
   </g>
   <g id="text_7">
    <!-- The state-space model expresses dynamics as a first-order system -->
    <g style="fill: #5b6573" transform="translate(142.178484 213.672339) scale(0.09 -0.09)">
     <defs>
      <path id="DejaVuSans-54" d="M -19 4666 
L 3928 4666 
L 3928 4134 
L 2272 4134 
L 2272 0 
L 1638 0 
L 1638 4134 
L -19 4134 
L -19 4666 
z
" transform="scale(0.015625)"/>
      <path id="DejaVuSans-68" d="M 3513 2113 
L 3513 0 
L 2938 0 
L 2938 2094 
Q 2938 2591 2744 2837 
Q 2550 3084 2163 3084 
Q 1697 3084 1428 2787 
Q 1159 2491 1159 1978 
L 1159 0 
L 581 0 
L 581 4863 
L 1159 4863 
L 1159 2956 
Q 1366 3272 1645 3428 
Q 1925 3584 2291 3584 
Q 2894 3584 3203 3211 
Q 3513 2838 3513 2113 
z
" transform="scale(0.015625)"/>
      <path id="DejaVuSans-2d" d="M 313 2009 
L 1997 2009 
L 1997 1497 
L 313 1497 
L 313 2009 
z
" transform="scale(0.015625)"/>
      <path id="DejaVuSans-6d" d="M 3328 2828 
Q 3544 3216 3844 3400 
Q 4144 3584 4550 3584 
Q 5097 3584 5394 3201 
Q 5691 2819 5691 2113 
L 5691 0 
L 5113 0 
L 5113 2094 
Q 5113 2597 4934 2840 
Q 4756 3084 4391 3084 
Q 3944 3084 3684 2787 
Q 3425 2491 3425 1978 
L 3425 0 
L 2847 0 
L 2847 2094 
Q 2847 2600 2669 2842 
Q 2491 3084 2119 3084 
Q 1678 3084 1418 2786 
Q 1159 2488 1159 1978 
L 1159 0 
L 581 0 
L 581 3500 
L 1159 3500 
L 1159 2956 
Q 1356 3278 1631 3431 
Q 1906 3584 2284 3584 
Q 2666 3584 2933 3390 
Q 3200 3197 3328 2828 
z
" transform="scale(0.015625)"/>
      <path id="DejaVuSans-64" d="M 2906 2969 
L 2906 4863 
L 3481 4863 
L 3481 0 
L 2906 0 
L 2906 525 
Q 2725 213 2448 61 
Q 2172 -91 1784 -91 
Q 1150 -91 751 415 
Q 353 922 353 1747 
Q 353 2572 751 3078 
Q 1150 3584 1784 3584 
Q 2172 3584 2448 3432 
Q 2725 3281 2906 2969 
z
M 947 1747 
Q 947 1113 1208 752 
Q 1469 391 1925 391 
Q 2381 391 2643 752 
Q 2906 1113 2906 1747 
Q 2906 2381 2643 2742 
Q 2381 3103 1925 3103 
Q 1469 3103 1208 2742 
Q 947 2381 947 1747 
z
" transform="scale(0.015625)"/>
      <path id="DejaVuSans-6c" d="M 603 4863 
L 1178 4863 
L 1178 0 
L 603 0 
L 603 4863 
z
" transform="scale(0.015625)"/>
      <path id="DejaVuSans-78" d="M 3513 3500 
L 2247 1797 
L 3578 0 
L 2900 0 
L 1881 1375 
L 863 0 
L 184 0 
L 1544 1831 
L 300 3500 
L 978 3500 
L 1906 2253 
L 2834 3500 
L 3513 3500 
z
" transform="scale(0.015625)"/>
      <path id="DejaVuSans-79" d="M 2059 -325 
Q 1816 -950 1584 -1140 
Q 1353 -1331 966 -1331 
L 506 -1331 
L 506 -850 
L 844 -850 
Q 1081 -850 1212 -737 
Q 1344 -625 1503 -206 
L 1606 56 
L 191 3500 
L 800 3500 
L 1894 763 
L 2988 3500 
L 3597 3500 
L 2059 -325 
z
" transform="scale(0.015625)"/>
      <path id="DejaVuSans-66" d="M 2375 4863 
L 2375 4384 
L 1825 4384 
Q 1516 4384 1395 4259 
Q 1275 4134 1275 3809 
L 1275 3500 
L 2222 3500 
L 2222 3053 
L 1275 3053 
L 1275 0 
L 697 0 
L 697 3053 
L 147 3053 
L 147 3500 
L 697 3500 
L 697 3744 
Q 697 4328 969 4595 
Q 1241 4863 1831 4863 
L 2375 4863 
z
" transform="scale(0.015625)"/>
     </defs>
     <use xlink:href="#DejaVuSans-54"/>
     <use xlink:href="#DejaVuSans-68" transform="translate(61.083984 0)"/>
     <use xlink:href="#DejaVuSans-65" transform="translate(124.462891 0)"/>
     <use xlink:href="#DejaVuSans-20" transform="translate(185.986328 0)"/>
     <use xlink:href="#DejaVuSans-73" transform="translate(217.773438 0)"/>
     <use xlink:href="#DejaVuSans-74" transform="translate(269.873047 0)"/>
     <use xlink:href="#DejaVuSans-61" transform="translate(309.082031 0)"/>
     <use xlink:href="#DejaVuSans-74" transform="translate(370.361328 0)"/>
     <use xlink:href="#DejaVuSans-65" transform="translate(409.570312 0)"/>
     <use xlink:href="#DejaVuSans-2d" transform="translate(471.09375 0)"/>
     <use xlink:href="#DejaVuSans-73" transform="translate(507.177734 0)"/>
     <use xlink:href="#DejaVuSans-70" transform="translate(559.277344 0)"/>
     <use xlink:href="#DejaVuSans-61" transform="translate(622.753906 0)"/>
     <use xlink:href="#DejaVuSans-63" transform="translate(684.033203 0)"/>
     <use xlink:href="#DejaVuSans-65" transform="translate(739.013672 0)"/>
     <use xlink:href="#DejaVuSans-20" transform="translate(800.537109 0)"/>
     <use xlink:href="#DejaVuSans-6d" transform="translate(832.324219 0)"/>
     <use xlink:href="#DejaVuSans-6f" transform="translate(929.736328 0)"/>
     <use xlink:href="#DejaVuSans-64" transform="translate(990.917969 0)"/>
     <use xlink:href="#DejaVuSans-65" transform="translate(1054.394531 0)"/>
     <use xlink:href="#DejaVuSans-6c" transform="translate(1115.917969 0)"/>
     <use xlink:href="#DejaVuSans-20" transform="translate(1143.701172 0)"/>
     <use xlink:href="#DejaVuSans-65" transform="translate(1175.488281 0)"/>
     <use xlink:href="#DejaVuSans-78" transform="translate(1235.261719 0)"/>
     <use xlink:href="#DejaVuSans-70" transform="translate(1294.441406 0)"/>
     <use xlink:href="#DejaVuSans-72" transform="translate(1357.917969 0)"/>
     <use xlink:href="#DejaVuSans-65" transform="translate(1396.78125 0)"/>
     <use xlink:href="#DejaVuSans-73" transform="translate(1458.304688 0)"/>
     <use xlink:href="#DejaVuSans-73" transform="translate(1510.404297 0)"/>
     <use xlink:href="#DejaVuSans-65" transform="translate(1562.503906 0)"/>
     <use xlink:href="#DejaVuSans-73" transform="translate(1624.027344 0)"/>
     <use xlink:href="#DejaVuSans-20" transform="translate(1676.126953 0)"/>
     <use xlink:href="#DejaVuSans-64" transform="translate(1707.914062 0)"/>
     <use xlink:href="#DejaVuSans-79" transform="translate(1771.390625 0)"/>
     <use xlink:href="#DejaVuSans-6e" transform="translate(1830.570312 0)"/>
     <use xlink:href="#DejaVuSans-61" transform="translate(1893.949219 0)"/>
     <use xlink:href="#DejaVuSans-6d" transform="translate(1955.228516 0)"/>
     <use xlink:href="#DejaVuSans-69" transform="translate(2052.640625 0)"/>
     <use xlink:href="#DejaVuSans-63" transform="translate(2080.423828 0)"/>
     <use xlink:href="#DejaVuSans-73" transform="translate(2135.404297 0)"/>
     <use xlink:href="#DejaVuSans-20" transform="translate(2187.503906 0)"/>
     <use xlink:href="#DejaVuSans-61" transform="translate(2219.291016 0)"/>
     <use xlink:href="#DejaVuSans-73" transform="translate(2280.570312 0)"/>
     <use xlink:href="#DejaVuSans-20" transform="translate(2332.669922 0)"/>
     <use xlink:href="#DejaVuSans-61" transform="translate(2364.457031 0)"/>
     <use xlink:href="#DejaVuSans-20" transform="translate(2425.736328 0)"/>
     <use xlink:href="#DejaVuSans-66" transform="translate(2457.523438 0)"/>
     <use xlink:href="#DejaVuSans-69" transform="translate(2492.728516 0)"/>
     <use xlink:href="#DejaVuSans-72" transform="translate(2520.511719 0)"/>
     <use xlink:href="#DejaVuSans-73" transform="translate(2561.625 0)"/>
     <use xlink:href="#DejaVuSans-74" transform="translate(2613.724609 0)"/>
     <use xlink:href="#DejaVuSans-2d" transform="translate(2652.933594 0)"/>
     <use xlink:href="#DejaVuSans-6f" transform="translate(2690.892578 0)"/>
     <use xlink:href="#DejaVuSans-72" transform="translate(2752.074219 0)"/>
     <use xlink:href="#DejaVuSans-64" transform="translate(2791.4375 0)"/>
     <use xlink:href="#DejaVuSans-65" transform="translate(2854.914062 0)"/>
     <use xlink:href="#DejaVuSans-72" transform="translate(2916.4375 0)"/>
     <use xlink:href="#DejaVuSans-20" transform="translate(2957.550781 0)"/>
     <use xlink:href="#DejaVuSans-73" transform="translate(2989.337891 0)"/>
     <use xlink:href="#DejaVuSans-79" transform="translate(3041.4375 0)"/>
     <use xlink:href="#DejaVuSans-73" transform="translate(3100.617188 0)"/>
     <use xlink:href="#DejaVuSans-74" transform="translate(3152.716797 0)"/>
     <use xlink:href="#DejaVuSans-65" transform="translate(3191.925781 0)"/>
     <use xlink:href="#DejaVuSans-6d" transform="translate(3253.449219 0)"/>
    </g>
    <!-- and clearly separates states, inputs, outputs, and disturbances. -->
    <g style="fill: #5b6573" transform="translate(149.254734 223.75037) scale(0.09 -0.09)">
     <defs>
      <path id="DejaVuSans-2c" d="M 750 794 
L 1409 794 
L 1409 256 
L 897 -744 
L 494 -744 
L 750 256 
L 750 794 
z
" transform="scale(0.015625)"/>
      <path id="DejaVuSans-2e" d="M 684 794 
L 1344 794 
L 1344 0 
L 684 0 
L 684 794 
z
" transform="scale(0.015625)"/>
     </defs>
     <use xlink:href="#DejaVuSans-61"/>
     <use xlink:href="#DejaVuSans-6e" transform="translate(61.279297 0)"/>
     <use xlink:href="#DejaVuSans-64" transform="translate(124.658203 0)"/>
     <use xlink:href="#DejaVuSans-20" transform="translate(188.134766 0)"/>
     <use xlink:href="#DejaVuSans-63" transform="translate(219.921875 0)"/>
     <use xlink:href="#DejaVuSans-6c" transform="translate(274.902344 0)"/>
     <use xlink:href="#DejaVuSans-65" transform="translate(302.685547 0)"/>
     <use xlink:href="#DejaVuSans-61" transform="translate(364.208984 0)"/>
     <use xlink:href="#DejaVuSans-72" transform="translate(425.488281 0)"/>
     <use xlink:href="#DejaVuSans-6c" transform="translate(466.601562 0)"/>
     <use xlink:href="#DejaVuSans-79" transform="translate(494.384766 0)"/>
     <use xlink:href="#DejaVuSans-20" transform="translate(553.564453 0)"/>
     <use xlink:href="#DejaVuSans-73" transform="translate(585.351562 0)"/>
     <use xlink:href="#DejaVuSans-65" transform="translate(637.451172 0)"/>
     <use xlink:href="#DejaVuSans-70" transform="translate(698.974609 0)"/>
     <use xlink:href="#DejaVuSans-61" transform="translate(762.451172 0)"/>
     <use xlink:href="#DejaVuSans-72" transform="translate(823.730469 0)"/>
     <use xlink:href="#DejaVuSans-61" transform="translate(864.84375 0)"/>
     <use xlink:href="#DejaVuSans-74" transform="translate(926.123047 0)"/>
     <use xlink:href="#DejaVuSans-65" transform="translate(965.332031 0)"/>
     <use xlink:href="#DejaVuSans-73" transform="translate(1026.855469 0)"/>
     <use xlink:href="#DejaVuSans-20" transform="translate(1078.955078 0)"/>
     <use xlink:href="#DejaVuSans-73" transform="translate(1110.742188 0)"/>
     <use xlink:href="#DejaVuSans-74" transform="translate(1162.841797 0)"/>
     <use xlink:href="#DejaVuSans-61" transform="translate(1202.050781 0)"/>
     <use xlink:href="#DejaVuSans-74" transform="translate(1263.330078 0)"/>
     <use xlink:href="#DejaVuSans-65" transform="translate(1302.539062 0)"/>
     <use xlink:href="#DejaVuSans-73" transform="translate(1364.0625 0)"/>
     <use xlink:href="#DejaVuSans-2c" transform="translate(1416.162109 0)"/>
     <use xlink:href="#DejaVuSans-20" transform="translate(1447.949219 0)"/>
     <use xlink:href="#DejaVuSans-69" transform="translate(1479.736328 0)"/>
     <use xlink:href="#DejaVuSans-6e" transform="translate(1507.519531 0)"/>
     <use xlink:href="#DejaVuSans-70" transform="translate(1570.898438 0)"/>
     <use xlink:href="#DejaVuSans-75" transform="translate(1634.375 0)"/>
     <use xlink:href="#DejaVuSans-74" transform="translate(1697.753906 0)"/>
     <use xlink:href="#DejaVuSans-73" transform="translate(1736.962891 0)"/>
     <use xlink:href="#DejaVuSans-2c" transform="translate(1789.0625 0)"/>
     <use xlink:href="#DejaVuSans-20" transform="translate(1820.849609 0)"/>
     <use xlink:href="#DejaVuSans-6f" transform="translate(1852.636719 0)"/>
     <use xlink:href="#DejaVuSans-75" transform="translate(1913.818359 0)"/>
     <use xlink:href="#DejaVuSans-74" transform="translate(1977.197266 0)"/>
     <use xlink:href="#DejaVuSans-70" transform="translate(2016.40625 0)"/>
     <use xlink:href="#DejaVuSans-75" transform="translate(2079.882812 0)"/>
     <use xlink:href="#DejaVuSans-74" transform="translate(2143.261719 0)"/>
     <use xlink:href="#DejaVuSans-73" transform="translate(2182.470703 0)"/>
     <use xlink:href="#DejaVuSans-2c" transform="translate(2234.570312 0)"/>
     <use xlink:href="#DejaVuSans-20" transform="translate(2266.357422 0)"/>
     <use xlink:href="#DejaVuSans-61" transform="translate(2298.144531 0)"/>
     <use xlink:href="#DejaVuSans-6e" transform="translate(2359.423828 0)"/>
     <use xlink:href="#DejaVuSans-64" transform="translate(2422.802734 0)"/>
     <use xlink:href="#DejaVuSans-20" transform="translate(2486.279297 0)"/>
     <use xlink:href="#DejaVuSans-64" transform="translate(2518.066406 0)"/>
     <use xlink:href="#DejaVuSans-69" transform="translate(2581.542969 0)"/>
     <use xlink:href="#DejaVuSans-73" transform="translate(2609.326172 0)"/>
     <use xlink:href="#DejaVuSans-74" transform="translate(2661.425781 0)"/>
     <use xlink:href="#DejaVuSans-75" transform="translate(2700.634766 0)"/>
     <use xlink:href="#DejaVuSans-72" transform="translate(2764.013672 0)"/>
     <use xlink:href="#DejaVuSans-62" transform="translate(2805.126953 0)"/>
     <use xlink:href="#DejaVuSans-61" transform="translate(2868.603516 0)"/>
     <use xlink:href="#DejaVuSans-6e" transform="translate(2929.882812 0)"/>
     <use xlink:href="#DejaVuSans-63" transform="translate(2993.261719 0)"/>
     <use xlink:href="#DejaVuSans-65" transform="translate(3048.242188 0)"/>
     <use xlink:href="#DejaVuSans-73" transform="translate(3109.765625 0)"/>
     <use xlink:href="#DejaVuSans-2e" transform="translate(3161.865234 0)"/>
    </g>
   </g>
  </g>
 </g>
 <defs>
  <clipPath id="pe5e49ae111">
   <rect x="7.2" y="7.2" width="569.16" height="243.936"/>
  </clipPath>
 </defs>
</svg>
