<svg width="4070" height="1618" xmlns="http://www.w3.org/2000/svg" xmlns:xlink="http://www.w3.org/1999/xlink" xml:space="preserve" overflow="hidden"><g transform="translate(-169 -339)"><g><text fill="#123B63" fill-opacity="1" font-family="Aptos Display,Aptos Display_MSFontService,sans-serif" font-style="normal" font-variant="normal" font-weight="700" font-stretch="normal" font-size="124" text-anchor="start" direction="ltr" writing-mode="lr-tb" unicode-bidi="normal" text-decoration="none" transform="matrix(1 0 0 1 1231.51 494)">Open</text><text fill="#123B63" fill-opacity="1" font-family="Aptos Display,Aptos Display_MSFontService,sans-serif" font-style="normal" font-variant="normal" font-weight="700" font-stretch="normal" font-size="124" text-anchor="start" direction="ltr" writing-mode="lr-tb" unicode-bidi="normal" text-decoration="none" transform="matrix(1 0 0 1 1515.1 494)">-</text><text fill="#123B63" fill-opacity="1" font-family="Aptos Display,Aptos Display_MSFontService,sans-serif" font-style="normal" font-variant="normal" font-weight="700" font-stretch="normal" font-size="124" text-anchor="start" direction="ltr" writing-mode="lr-tb" unicode-bidi="normal" text-decoration="none" transform="matrix(1 0 0 1 1560.36 494)">loop and Closed</text><text fill="#123B63" fill-opacity="1" font-family="Aptos Display,Aptos Display_MSFontService,sans-serif" font-style="normal" font-variant="normal" font-weight="700" font-stretch="normal" font-size="124" text-anchor="start" direction="ltr" writing-mode="lr-tb" unicode-bidi="normal" text-decoration="none" transform="matrix(1 0 0 1 2410.57 494)">-</text><text fill="#123B63" fill-opacity="1" font-family="Aptos Display,Aptos Display_MSFontService,sans-serif" font-style="normal" font-variant="normal" font-weight="700" font-stretch="normal" font-size="124" text-anchor="start" direction="ltr" writing-mode="lr-tb" unicode-bidi="normal" text-decoration="none" transform="matrix(1 0 0 1 2455.83 494)">loop Systems</text><path d="M872.5 573.5 3512.5 573.5" stroke="#D5DEE8" stroke-width="4.58333" stroke-linecap="butt" stroke-linejoin="round" stroke-miterlimit="10" stroke-opacity="1" fill="none" fill-rule="evenodd"/><path d="M174 646.814C174 632.005 186.005 620 200.814 620L2028.19 620C2042.99 620 2055 632.005 2055 646.814L2055 1766.19C2055 1780.99 2042.99 1793 2028.19 1793L200.814 1793C186.005 1793 174 1780.99 174 1766.19Z" stroke="#D5DEE8" stroke-width="6.41667" stroke-linecap="butt" stroke-linejoin="round" stroke-miterlimit="10" stroke-opacity="1" fill="#FBFDFF" fill-rule="evenodd" fill-opacity="1"/><path d="M2352 646.814C2352 632.005 2364.01 620 2378.81 620L4206.19 620C4220.99 620 4233 632.005 4233 646.814L4233 1766.19C4233 1780.99 4220.99 1793 4206.19 1793L2378.81 1793C2364.01 1793 2352 1780.99 2352 1766.19Z" stroke="#D5DEE8" stroke-width="6.41667" stroke-linecap="butt" stroke-linejoin="round" stroke-miterlimit="10" stroke-opacity="1" fill="#FBFDFF" fill-rule="evenodd" fill-opacity="1"/><text fill="#123B63" fill-opacity="1" font-family="Aptos,Aptos_MSFontService,sans-serif" font-style="normal" font-variant="normal" font-weight="700" font-stretch="normal" font-size="92" text-anchor="start" direction="ltr" writing-mode="lr-tb" unicode-bidi="normal" text-decoration="none" transform="matrix(1 0 0 1 675.297 707)">Open</text><text fill="#123B63" fill-opacity="1" font-family="Aptos,Aptos_MSFontService,sans-serif" font-style="normal" font-variant="normal" font-weight="700" font-stretch="normal" font-size="92" text-anchor="start" direction="ltr" writing-mode="lr-tb" unicode-bidi="normal" text-decoration="none" transform="matrix(1 0 0 1 901.026 707)">-</text><text fill="#123B63" fill-opacity="1" font-family="Aptos,Aptos_MSFontService,sans-serif" font-style="normal" font-variant="normal" font-weight="700" font-stretch="normal" font-size="92" text-anchor="start" direction="ltr" writing-mode="lr-tb" unicode-bidi="normal" text-decoration="none" transform="matrix(1 0 0 1 931.963 707)">loop system</text><text fill="#123B63" fill-opacity="1" font-family="Aptos,Aptos_MSFontService,sans-serif" font-style="normal" font-variant="normal" font-weight="700" font-stretch="normal" font-size="92" text-anchor="start" direction="ltr" writing-mode="lr-tb" unicode-bidi="normal" text-decoration="none" transform="matrix(1 0 0 1 2863.61 728)">Closed</text><text fill="#123B63" fill-opacity="1" font-family="Aptos,Aptos_MSFontService,sans-serif" font-style="normal" font-variant="normal" font-weight="700" font-stretch="normal" font-size="92" text-anchor="start" direction="ltr" writing-mode="lr-tb" unicode-bidi="normal" text-decoration="none" transform="matrix(1 0 0 1 3160.38 728)">-</text><text fill="#123B63" fill-opacity="1" font-family="Aptos,Aptos_MSFontService,sans-serif" font-style="normal" font-variant="normal" font-weight="700" font-stretch="normal" font-size="92" text-anchor="start" direction="ltr" writing-mode="lr-tb" unicode-bidi="normal" text-decoration="none" transform="matrix(1 0 0 1 3191.32 728)">loop system</text><path d="M634.5 1091.23 707.146 1091.23 707.146 1101.77 634.5 1101.77ZM701.875 1080.69 733.5 1096.5 701.875 1112.31Z" fill="#5B6775" fill-rule="nonzero" fill-opacity="1"/><path d="M1191.5 1087.23 1264.15 1087.23 1264.15 1097.77 1191.5 1097.77ZM1258.87 1076.69 1290.5 1092.5 1258.87 1108.31Z" fill="#5B6775" fill-rule="nonzero" fill-opacity="1"/><path d="M1665.5 1091.23 1754.15 1091.23 1754.15 1101.77 1665.5 1101.77ZM1748.88 1080.69 1780.5 1096.5 1748.88 1112.31Z" fill="#5B6775" fill-rule="nonzero" fill-opacity="1"/><path d="M2798.5 1091.23 2888.15 1091.23 2888.15 1101.77 2798.5 1101.77ZM2882.88 1080.69 2914.5 1096.5 2882.88 1112.31Z" fill="#5B6775" fill-rule="nonzero" fill-opacity="1"/><path d="M3026.5 1091.23 3086.15 1091.23 3086.15 1101.77 3026.5 1101.77ZM3080.88 1080.69 3112.5 1096.5 3080.88 1112.31Z" fill="#5B6775" fill-rule="nonzero" fill-opacity="1"/><path d="M3598.5 1091.23 3658.15 1091.23 3658.15 1101.77 3598.5 1101.77ZM3652.88 1080.69 3684.5 1096.5 3652.88 1112.31Z" fill="#5B6775" fill-rule="nonzero" fill-opacity="1"/><path d="M4066.5 1091.23 4123.15 1091.23 4123.15 1101.77 4066.5 1101.77ZM4117.88 1080.69 4149.5 1096.5 4117.88 1112.31Z" fill="#5B6775" fill-rule="nonzero" fill-opacity="1"/><path d="M290 973.551C290 951.708 307.708 934 329.552 934L587.449 934C609.292 934 627 951.708 627 973.551L627 1217.45C627 1239.29 609.292 1257 587.449 1257L329.552 1257C307.708 1257 290 1239.29 290 1217.45Z" stroke="#5B6775" stroke-width="6.41667" stroke-linecap="butt" stroke-linejoin="round" stroke-miterlimit="10" stroke-opacity="1" fill="#FFFFFF" fill-rule="evenodd" fill-opacity="1"/><text fill="#5B6775" fill-opacity="1" font-family="Aptos,Aptos_MSFontService,sans-serif" font-style="normal" font-variant="normal" font-weight="400" font-stretch="normal" font-size="53" text-anchor="start" direction="ltr" writing-mode="lr-tb" unicode-bidi="normal" text-decoration="none" transform="matrix(1 0 0 1 342.398 1081)">Reference</text><text fill="#5B6775" fill-opacity="1" font-family="Aptos,Aptos_MSFontService,sans-serif" font-style="normal" font-variant="normal" font-weight="400" font-stretch="normal" font-size="53" text-anchor="start" direction="ltr" writing-mode="lr-tb" unicode-bidi="normal" text-decoration="none" transform="matrix(1 0 0 1 449.808 1144)">r</text><path d="M743 956.666C743 934.759 760.759 917 782.666 917L1105.33 917C1127.24 917 1145 934.759 1145 956.666L1145 1234.33C1145 1256.24 1127.24 1274 1105.33 1274L782.666 1274C760.759 1274 743 1256.24 743 1234.33Z" stroke="#D97904" stroke-width="6.41667" stroke-linecap="butt" stroke-linejoin="round" stroke-miterlimit="10" stroke-opacity="1" fill="#FFF3DE" fill-rule="evenodd" fill-opacity="1"/><text fill="#123B63" fill-opacity="1" font-family="Aptos,Aptos_MSFontService,sans-serif" font-style="normal" font-variant="normal" font-weight="400" font-stretch="normal" font-size="57" text-anchor="start" direction="ltr" writing-mode="lr-tb" unicode-bidi="normal" text-decoration="none" transform="matrix(1 0 0 1 819.007 1080)">Controller</text><text fill="#123B63" fill-opacity="1" font-family="Aptos,Aptos_MSFontService,sans-serif" font-style="normal" font-variant="normal" font-weight="400" font-stretch="normal" font-size="57" text-anchor="start" direction="ltr" writing-mode="lr-tb" unicode-bidi="normal" text-decoration="none" transform="matrix(1 0 0 1 817.472 1149)">command</text><path d="M1318 956.6C1318 934.73 1335.73 917 1357.6 917L1608.4 917C1630.27 917 1648 934.73 1648 956.6L1648 1234.4C1648 1256.27 1630.27 1274 1608.4 1274L1357.6 1274C1335.73 1274 1318 1256.27 1318 1234.4Z" stroke="#123B63" stroke-width="6.41667" stroke-linecap="butt" stroke-linejoin="round" stroke-miterlimit="10" stroke-opacity="1" fill="#EAF4FF" fill-rule="evenodd" fill-opacity="1"/><text fill="#123B63" fill-opacity="1" font-family="Aptos,Aptos_MSFontService,sans-serif" font-style="normal" font-variant="normal" font-weight="700" font-stretch="normal" font-size="69" text-anchor="start" direction="ltr" writing-mode="lr-tb" unicode-bidi="normal" text-decoration="none" transform="matrix(1 0 0 1 1400.95 1117)">Plant</text><path d="M1178.5 1012.06C1178.5 997.391 1190.39 985.5 1205.06 985.5L1257.94 985.5C1272.61 985.5 1284.5 997.391 1284.5 1012.06L1284.5 1041.94C1284.5 1056.61 1272.61 1068.5 1257.94 1068.5L1205.06 1068.5C1190.39 1068.5 1178.5 1056.61 1178.5 1041.94Z" stroke="#D97904" stroke-width="4.58333" stroke-linecap="butt" stroke-linejoin="round" stroke-miterlimit="10" stroke-opacity="1" fill="#FFFFFF" fill-rule="evenodd" fill-opacity="1"/><text fill="#D97904" fill-opacity="1" font-family="Aptos,Aptos_MSFontService,sans-serif" font-style="normal" font-variant="normal" font-weight="400" font-stretch="normal" font-size="46" text-anchor="start" direction="ltr" writing-mode="lr-tb" unicode-bidi="normal" text-decoration="none" transform="matrix(1 0 0 1 1218.38 1041)">u</text><path d="M1668.5 1015.74C1668.5 1001.25 1680.25 989.5 1694.74 989.5L1747.26 989.5C1761.75 989.5 1773.5 1001.25 1773.5 1015.74L1773.5 1045.26C1773.5 1059.75 1761.75 1071.5 1747.26 1071.5L1694.74 1071.5C1680.25 1071.5 1668.5 1059.75 1668.5 1045.26Z" stroke="#123B63" stroke-width="4.58333" stroke-linecap="butt" stroke-linejoin="round" stroke-miterlimit="10" stroke-opacity="1" fill="#FFFFFF" fill-rule="evenodd" fill-opacity="1"/><text fill="#123B63" fill-opacity="1" font-family="Aptos,Aptos_MSFontService,sans-serif" font-style="normal" font-variant="normal" font-weight="400" font-stretch="normal" font-size="46" text-anchor="start" direction="ltr" writing-mode="lr-tb" unicode-bidi="normal" text-decoration="none" transform="matrix(1 0 0 1 1710.09 1041)">y</text><path d="M223 1499.63C223 1477.74 240.742 1460 262.627 1460L1816.37 1460C1838.26 1460 1856 1477.74 1856 1499.63L1856 1704.37C1856 1726.26 1838.26 1744 1816.37 1744L262.627 1744C240.742 1744 223 1726.26 223 1704.37Z" stroke="#5B6775" stroke-width="6.41667" stroke-linecap="butt" stroke-linejoin="round" stroke-miterlimit="10" stroke-opacity="1" fill="#FFFFFF" fill-rule="evenodd" fill-opacity="1"/><text fill="#5B6775" fill-opacity="1" font-family="Aptos,Aptos_MSFontService,sans-serif" font-style="normal" font-variant="normal" font-weight="400" font-stretch="normal" font-size="50" text-anchor="start" direction="ltr" writing-mode="lr-tb" unicode-bidi="normal" text-decoration="none" transform="matrix(1 0 0 1 690.49 1577)">No output measurement is used</text><text fill="#5B6775" fill-opacity="1" font-family="Aptos,Aptos_MSFontService,sans-serif" font-style="normal" font-variant="normal" font-weight="400" font-stretch="normal" font-size="50" text-anchor="start" direction="ltr" writing-mode="lr-tb" unicode-bidi="normal" text-decoration="none" transform="matrix(1 0 0 1 526.636 1637)">to correct the command after operation begins.</text><path d="M2454 973.551C2454 951.708 2471.71 934 2493.55 934L2760.45 934C2782.29 934 2800 951.708 2800 973.551L2800 1217.45C2800 1239.29 2782.29 1257 2760.45 1257L2493.55 1257C2471.71 1257 2454 1239.29 2454 1217.45Z" stroke="#5B6775" stroke-width="6.41667" stroke-linecap="butt" stroke-linejoin="round" stroke-miterlimit="10" stroke-opacity="1" fill="#FFFFFF" fill-rule="evenodd" fill-opacity="1"/><text fill="#5B6775" fill-opacity="1" font-family="Aptos,Aptos_MSFontService,sans-serif" font-style="normal" font-variant="normal" font-weight="400" font-stretch="normal" font-size="53" text-anchor="start" direction="ltr" writing-mode="lr-tb" unicode-bidi="normal" text-decoration="none" transform="matrix(1 0 0 1 2510.68 1081)">Reference</text><text fill="#5B6775" fill-opacity="1" font-family="Aptos,Aptos_MSFontService,sans-serif" font-style="normal" font-variant="normal" font-weight="400" font-stretch="normal" font-size="53" text-anchor="start" direction="ltr" writing-mode="lr-tb" unicode-bidi="normal" text-decoration="none" transform="matrix(1 0 0 1 2618.09 1144)">r</text><path d="M2911 1091.5C2911 1058.64 2937.42 1032 2970 1032 3002.58 1032 3029 1058.64 3029 1091.5 3029 1124.36 3002.58 1151 2970 1151 2937.42 1151 2911 1124.36 2911 1091.5Z" stroke="#5B6775" stroke-width="5.5" stroke-linecap="butt" stroke-linejoin="round" stroke-miterlimit="10" stroke-opacity="1" fill="#FFFFFF" fill-rule="evenodd" fill-opacity="1"/><text fill="#5B6775" fill-opacity="1" font-family="Aptos,Aptos_MSFontService,sans-serif" font-style="normal" font-variant="normal" font-weight="400" font-stretch="normal" font-size="46" text-anchor="start" direction="ltr" writing-mode="lr-tb" unicode-bidi="normal" text-decoration="none" transform="matrix(1 0 0 1 2924.68 1110)">+</text><path d="M3125 956.667C3125 934.759 3142.76 917 3164.67 917L3531.33 917C3553.24 917 3571 934.759 3571 956.667L3571 1234.33C3571 1256.24 3553.24 1274 3531.33 1274L3164.67 1274C3142.76 1274 3125 1256.24 3125 1234.33Z" stroke="#D97904" stroke-width="6.41667" stroke-linecap="butt" stroke-linejoin="round" stroke-miterlimit="10" stroke-opacity="1" fill="#FFF3DE" fill-rule="evenodd" fill-opacity="1"/><text fill="#123B63" fill-opacity="1" font-family="Aptos,Aptos_MSFontService,sans-serif" font-style="normal" font-variant="normal" font-weight="700" font-stretch="normal" font-size="62" text-anchor="start" direction="ltr" writing-mode="lr-tb" unicode-bidi="normal" text-decoration="none" transform="matrix(1 0 0 1 3203.53 1115)">Controller</text><path d="M3716 956.531C3716 934.698 3733.7 917 3755.53 917L4012.47 917C4034.3 917 4052 934.698 4052 956.531L4052 1234.47C4052 1256.3 4034.3 1274 4012.47 1274L3755.53 1274C3733.7 1274 3716 1256.3 3716 1234.47Z" stroke="#123B63" stroke-width="6.41667" stroke-linecap="butt" stroke-linejoin="round" stroke-miterlimit="10" stroke-opacity="1" fill="#EAF4FF" fill-rule="evenodd" fill-opacity="1"/><text fill="#123B63" fill-opacity="1" font-family="Aptos,Aptos_MSFontService,sans-serif" font-style="normal" font-variant="normal" font-weight="700" font-stretch="normal" font-size="69" text-anchor="start" direction="ltr" writing-mode="lr-tb" unicode-bidi="normal" text-decoration="none" transform="matrix(1 0 0 1 3801.89 1117)">Plant</text><path d="M3590.5 1012.06C3590.5 997.391 3602.39 985.5 3617.06 985.5L3669.94 985.5C3684.61 985.5 3696.5 997.391 3696.5 1012.06L3696.5 1041.94C3696.5 1056.61 3684.61 1068.5 3669.94 1068.5L3617.06 1068.5C3602.39 1068.5 3590.5 1056.61 3590.5 1041.94Z" stroke="#D97904" stroke-width="4.58333" stroke-linecap="butt" stroke-linejoin="round" stroke-miterlimit="10" stroke-opacity="1" fill="#FFFFFF" fill-rule="evenodd" fill-opacity="1"/><text fill="#D97904" fill-opacity="1" font-family="Aptos,Aptos_MSFontService,sans-serif" font-style="normal" font-variant="normal" font-weight="400" font-stretch="normal" font-size="46" text-anchor="start" direction="ltr" writing-mode="lr-tb" unicode-bidi="normal" text-decoration="none" transform="matrix(1 0 0 1 3630.31 1041)">u</text><path d="M4072.5 1012.06C4072.5 997.391 4084.39 985.5 4099.06 985.5L4151.94 985.5C4166.61 985.5 4178.5 997.391 4178.5 1012.06L4178.5 1041.94C4178.5 1056.61 4166.61 1068.5 4151.94 1068.5L4099.06 1068.5C4084.39 1068.5 4072.5 1056.61 4072.5 1041.94Z" stroke="#123B63" stroke-width="4.58333" stroke-linecap="butt" stroke-linejoin="round" stroke-miterlimit="10" stroke-opacity="1" fill="#FFFFFF" fill-rule="evenodd" fill-opacity="1"/><text fill="#123B63" fill-opacity="1" font-family="Aptos,Aptos_MSFontService,sans-serif" font-style="normal" font-variant="normal" font-weight="400" font-stretch="normal" font-size="46" text-anchor="start" direction="ltr" writing-mode="lr-tb" unicode-bidi="normal" text-decoration="none" transform="matrix(1 0 0 1 4114.69 1041)">y</text><path d="M3308.5 1383.06C3308.5 1368.39 3320.39 1356.5 3335.06 1356.5L3694.94 1356.5C3709.61 1356.5 3721.5 1368.39 3721.5 1383.06L3721.5 1412.94C3721.5 1427.61 3709.61 1439.5 3694.94 1439.5L3335.06 1439.5C3320.39 1439.5 3308.5 1427.61 3308.5 1412.94Z" stroke="#2D6EA8" stroke-width="4.58333" stroke-linecap="butt" stroke-linejoin="round" stroke-miterlimit="10" stroke-opacity="1" fill="#FFFFFF" fill-rule="evenodd" fill-opacity="1"/><text fill="#2D6EA8" fill-opacity="1" font-family="Aptos,Aptos_MSFontService,sans-serif" font-style="normal" font-variant="normal" font-weight="400" font-stretch="normal" font-size="39" text-anchor="start" direction="ltr" writing-mode="lr-tb" unicode-bidi="normal" text-decoration="none" transform="matrix(1 0 0 1 3368.98 1410)">measured output</text><path d="M2455 1503.63C2455 1481.74 2472.74 1464 2494.63 1464L4071.37 1464C4093.26 1464 4111 1481.74 4111 1503.63L4111 1708.37C4111 1730.26 4093.26 1748 4071.37 1748L2494.63 1748C2472.74 1748 2455 1730.26 2455 1708.37Z" stroke="#5B6775" stroke-width="6.41667" stroke-linecap="butt" stroke-linejoin="round" stroke-miterlimit="10" stroke-opacity="1" fill="#FFFFFF" fill-rule="evenodd" fill-opacity="1"/><text fill="#5B6775" fill-opacity="1" font-family="Aptos,Aptos_MSFontService,sans-serif" font-style="normal" font-variant="normal" font-weight="400" font-stretch="normal" font-size="50" text-anchor="start" direction="ltr" writing-mode="lr-tb" unicode-bidi="normal" text-decoration="none" transform="matrix(1 0 0 1 2746.13 1581)">The measured output is fed back so the controller</text><text fill="#5B6775" fill-opacity="1" font-family="Aptos,Aptos_MSFontService,sans-serif" font-style="normal" font-variant="normal" font-weight="400" font-stretch="normal" font-size="50" text-anchor="start" direction="ltr" writing-mode="lr-tb" unicode-bidi="normal" text-decoration="none" transform="matrix(1 0 0 1 2753.85 1641)">can respond to disturbances and modeling error.</text><text fill="#123B63" fill-opacity="1" font-family="Aptos,Aptos_MSFontService,sans-serif" font-style="normal" font-variant="normal" font-weight="700" font-stretch="normal" font-size="69" text-anchor="start" direction="ltr" writing-mode="lr-tb" unicode-bidi="normal" text-decoration="none" transform="matrix(1 0 0 1 1073.22 1895)">Key difference: feedback turns output information into corrective action.</text><text fill="#5B6775" fill-opacity="1" font-family="Aptos,Aptos_MSFontService,sans-serif" font-style="normal" font-variant="normal" font-weight="400" font-stretch="normal" font-size="46" text-anchor="start" direction="ltr" writing-mode="lr-tb" unicode-bidi="normal" text-decoration="none" transform="matrix(1 0 0 1 2962.27 1143)">-</text><path d="M0 5.15625-37.0363 5.15625-31.8801 0-31.8801 243.833-37.0363 238.677 1181.4 238.677 1176.24 243.833 1176.24 91.7813 1186.56 91.7813 1186.56 248.989-42.1926 248.989-42.1926-5.15625 0-5.15625ZM1165.93 96.9375 1181.4 66 1196.87 96.9375Z" fill="#4472C4" fill-rule="nonzero" fill-opacity="1" transform="matrix(-1 1.22465e-16 1.22465e-16 1 4151.4 1096)"/></g></g></svg>