<svg width="3639" height="1443" xmlns="http://www.w3.org/2000/svg" xmlns:xlink="http://www.w3.org/1999/xlink" xml:space="preserve" overflow="hidden"><g transform="translate(-82 -142)"><g><path d="M531.5 188.168C531.5 166.26 549.26 148.5 571.167 148.5L3279.83 148.5C3301.74 148.5 3319.5 166.26 3319.5 188.168L3319.5 346.832C3319.5 368.74 3301.74 386.5 3279.83 386.5L571.167 386.5C549.26 386.5 531.5 368.74 531.5 346.832Z" stroke="#123B63" stroke-width="7.33333" stroke-linecap="butt" stroke-linejoin="round" stroke-miterlimit="10" stroke-opacity="1" fill="#FFFFFF" fill-rule="evenodd" fill-opacity="1"/><text fill="#123B63" fill-opacity="1" font-family="Aptos Display,Aptos Display_MSFontService,sans-serif" font-style="normal" font-variant="normal" font-weight="700" font-stretch="normal" font-size="115" text-anchor="start" direction="ltr" writing-mode="lr-tb" unicode-bidi="normal" text-decoration="none" transform="matrix(1 0 0 1 859.213 304)">From Physical System to State Space Model</text><path d="M785.5 973.917 848.583 973.917 848.583 983.084 785.5 983.083ZM844 964.75 871.5 978.501 844 992.25Z" fill="#5B6573" fill-rule="nonzero" fill-opacity="1"/><path d="M1525.5 973.917 1587.58 973.917 1587.58 983.084 1525.5 983.083ZM1583 964.75 1610.5 978.501 1583 992.25Z" fill="#5B6573" fill-rule="nonzero" fill-opacity="1"/><path d="M2264.5 973.917 2327.58 973.917 2327.58 983.084 2264.5 983.083ZM2323 964.75 2350.5 978.501 2323 992.25Z" fill="#5B6573" fill-rule="nonzero" fill-opacity="1"/><path d="M3003.5 973.917 3066.58 973.917 3066.58 983.084 3003.5 983.083ZM3062 964.75 3089.5 978.501 3062 992.25Z" fill="#5B6573" fill-rule="nonzero" fill-opacity="1"/><path d="M0 0 1.00003 176" stroke="#D5DCE5" stroke-width="13.75" stroke-linecap="butt" stroke-linejoin="round" stroke-miterlimit="10" stroke-opacity="1" fill="none" fill-rule="evenodd" transform="matrix(-1 0 0 1 459 601)"/><path d="M88 505.096C88 486.817 102.817 472 121.095 472L814.905 472C833.183 472 848 486.817 848 505.096L848 577.904C848 596.182 833.183 611 814.905 611L121.095 611C102.817 611 88 596.182 88 577.904Z" stroke="#123B63" stroke-width="5.72917" stroke-linecap="butt" stroke-linejoin="round" stroke-miterlimit="10" stroke-opacity="1" fill="#FFFFFF" fill-rule="evenodd" fill-opacity="1"/><text fill="#123B63" fill-opacity="1" font-family="Aptos,Aptos_MSFontService,sans-serif" font-style="normal" font-variant="normal" font-weight="700" font-stretch="normal" font-size="53" text-anchor="start" direction="ltr" writing-mode="lr-tb" unicode-bidi="normal" text-decoration="none" transform="matrix(1 0 0 1 133.283 559)">geometry, masses, physics</text><path d="M0 0 0.999672 176" stroke="#D5DCE5" stroke-width="13.75" stroke-linecap="butt" stroke-linejoin="round" stroke-miterlimit="10" stroke-opacity="1" fill="none" fill-rule="evenodd" transform="matrix(-1 0 0 1 1199 601)"/><path d="M1003 505.096C1003 486.817 1017.82 472 1036.1 472L1359.9 472C1378.18 472 1393 486.817 1393 505.096L1393 577.904C1393 596.182 1378.18 611 1359.9 611L1036.1 611C1017.82 611 1003 596.182 1003 577.904Z" stroke="#5B6573" stroke-width="5.72917" stroke-linecap="butt" stroke-linejoin="round" stroke-miterlimit="10" stroke-opacity="1" fill="#FFFFFF" fill-rule="evenodd" fill-opacity="1"/><text fill="#5B6573" fill-opacity="1" font-family="Aptos,Aptos_MSFontService,sans-serif" font-style="normal" font-variant="normal" font-weight="700" font-stretch="normal" font-size="53" text-anchor="start" direction="ltr" writing-mode="lr-tb" unicode-bidi="normal" text-decoration="none" transform="matrix(1 0 0 1 1101.65 559)">simplify</text><path d="M0 0 1.00003 176" stroke="#D5DCE5" stroke-width="13.75" stroke-linecap="butt" stroke-linejoin="round" stroke-miterlimit="10" stroke-opacity="1" fill="none" fill-rule="evenodd" transform="matrix(-1 0 0 1 1937 601)"/><path d="M1742 505.096C1742 486.817 1756.82 472 1775.1 472L2098.9 472C2117.18 472 2132 486.817 2132 505.096L2132 577.904C2132 596.182 2117.18 611 2098.9 611L1775.1 611C1756.82 611 1742 596.182 1742 577.904Z" stroke="#5B6573" stroke-width="5.72917" stroke-linecap="butt" stroke-linejoin="round" stroke-miterlimit="10" stroke-opacity="1" fill="#FFFFFF" fill-rule="evenodd" fill-opacity="1"/><text fill="#5B6573" fill-opacity="1" font-family="Aptos,Aptos_MSFontService,sans-serif" font-style="normal" font-variant="normal" font-weight="700" font-stretch="normal" font-size="53" text-anchor="start" direction="ltr" writing-mode="lr-tb" unicode-bidi="normal" text-decoration="none" transform="matrix(1 0 0 1 1862.62 559)">derive</text><path d="M0 0 1.00003 176" stroke="#D5DCE5" stroke-width="13.75" stroke-linecap="butt" stroke-linejoin="round" stroke-miterlimit="10" stroke-opacity="1" fill="none" fill-rule="evenodd" transform="matrix(-1 0 0 1 2676 601)"/><path d="M2482 505.096C2482 486.817 2496.82 472 2515.1 472L2837.9 472C2856.18 472 2871 486.817 2871 505.096L2871 577.904C2871 596.182 2856.18 611 2837.9 611L2515.1 611C2496.82 611 2482 596.182 2482 577.904Z" stroke="#2D6A9F" stroke-width="5.72917" stroke-linecap="butt" stroke-linejoin="round" stroke-miterlimit="10" stroke-opacity="1" fill="#FFFFFF" fill-rule="evenodd" fill-opacity="1"/><text fill="#2D6A9F" fill-opacity="1" font-family="Aptos,Aptos_MSFontService,sans-serif" font-style="normal" font-variant="normal" font-weight="700" font-stretch="normal" font-size="53" text-anchor="start" direction="ltr" writing-mode="lr-tb" unicode-bidi="normal" text-decoration="none" transform="matrix(1 0 0 1 2600.39 559)">define</text><path d="M0 0 1.9997 176" stroke="#D5DCE5" stroke-width="13.75" stroke-linecap="butt" stroke-linejoin="round" stroke-miterlimit="10" stroke-opacity="1" fill="none" fill-rule="evenodd" transform="matrix(-1 0 0 1 3416 601)"/><path d="M3221 505.096C3221 486.817 3235.82 472 3254.1 472L3576.9 472C3595.18 472 3610 486.817 3610 505.096L3610 577.904C3610 596.182 3595.18 611 3576.9 611L3254.1 611C3235.82 611 3221 596.182 3221 577.904Z" stroke="#D97706" stroke-width="5.72917" stroke-linecap="butt" stroke-linejoin="round" stroke-miterlimit="10" stroke-opacity="1" fill="#FFFFFF" fill-rule="evenodd" fill-opacity="1"/><text fill="#D97706" fill-opacity="1" font-family="Aptos,Aptos_MSFontService,sans-serif" font-style="normal" font-variant="normal" font-weight="700" font-stretch="normal" font-size="53" text-anchor="start" direction="ltr" writing-mode="lr-tb" unicode-bidi="normal" text-decoration="none" transform="matrix(1 0 0 1 3323.55 559)">analyze</text><path d="M158 832.45C158 805.139 180.14 783 207.45 783L709.55 783C736.861 783 759 805.139 759 832.45L759 1122.55C759 1149.86 736.861 1172 709.55 1172L207.45 1172C180.14 1172 158 1149.86 158 1122.55Z" stroke="#123B63" stroke-width="9.625" stroke-linecap="butt" stroke-linejoin="round" stroke-miterlimit="10" stroke-opacity="1" fill="#EAF2F8" fill-rule="evenodd" fill-opacity="1"/><text fill="#1F2933" fill-opacity="1" font-family="Aptos,Aptos_MSFontService,sans-serif" font-style="normal" font-variant="normal" font-weight="700" font-stretch="normal" font-size="80" text-anchor="start" direction="ltr" writing-mode="lr-tb" unicode-bidi="normal" text-decoration="none" transform="matrix(1 0 0 1 304.677 959)">Physical</text><text fill="#1F2933" fill-opacity="1" font-family="Aptos,Aptos_MSFontService,sans-serif" font-style="normal" font-variant="normal" font-weight="700" font-stretch="normal" font-size="80" text-anchor="start" direction="ltr" writing-mode="lr-tb" unicode-bidi="normal" text-decoration="none" transform="matrix(1 0 0 1 327.044 1055)">system</text><path d="M898 832.449C898 805.139 920.139 783 947.449 783L1448.55 783C1475.86 783 1498 805.139 1498 832.449L1498 1122.54C1498 1149.85 1475.86 1171.99 1448.55 1171.99L947.449 1171.99C920.139 1171.99 898 1149.85 898 1122.54Z" stroke="#5B6573" stroke-width="9.625" stroke-linecap="butt" stroke-linejoin="round" stroke-miterlimit="10" stroke-opacity="1" fill="#FFFFFF" fill-rule="evenodd" fill-opacity="1"/><text fill="#1F2933" fill-opacity="1" font-family="Aptos,Aptos_MSFontService,sans-serif" font-style="normal" font-variant="normal" font-weight="400" font-stretch="normal" font-size="80" text-anchor="start" direction="ltr" writing-mode="lr-tb" unicode-bidi="normal" text-decoration="none" transform="matrix(1 0 0 1 1039.2 959)">Modeling</text><text fill="#1F2933" fill-opacity="1" font-family="Aptos,Aptos_MSFontService,sans-serif" font-style="normal" font-variant="normal" font-weight="400" font-stretch="normal" font-size="80" text-anchor="start" direction="ltr" writing-mode="lr-tb" unicode-bidi="normal" text-decoration="none" transform="matrix(1 0 0 1 972.744 1055)">assumptions</text><path d="M1637 832.449C1637 805.139 1659.14 783 1686.45 783L2187.55 783C2214.86 783 2237 805.139 2237 832.449L2237 1122.54C2237 1149.85 2214.86 1171.99 2187.55 1171.99L1686.45 1171.99C1659.14 1171.99 1637 1149.85 1637 1122.54Z" stroke="#5B6573" stroke-width="9.625" stroke-linecap="butt" stroke-linejoin="round" stroke-miterlimit="10" stroke-opacity="1" fill="#FFFFFF" fill-rule="evenodd" fill-opacity="1"/><text fill="#1F2933" fill-opacity="1" font-family="Aptos,Aptos_MSFontService,sans-serif" font-style="normal" font-variant="normal" font-weight="400" font-stretch="normal" font-size="80" text-anchor="start" direction="ltr" writing-mode="lr-tb" unicode-bidi="normal" text-decoration="none" transform="matrix(1 0 0 1 1745.37 959)">Differential</text><text fill="#1F2933" fill-opacity="1" font-family="Aptos,Aptos_MSFontService,sans-serif" font-style="normal" font-variant="normal" font-weight="400" font-stretch="normal" font-size="80" text-anchor="start" direction="ltr" writing-mode="lr-tb" unicode-bidi="normal" text-decoration="none" transform="matrix(1 0 0 1 1764.43 1055)">equations</text><path d="M2376 832.45C2376 805.139 2398.14 783 2425.45 783L2927.55 783C2954.86 783 2977 805.139 2977 832.45L2977 1122.55C2977 1149.86 2954.86 1172 2927.55 1172L2425.45 1172C2398.14 1172 2376 1149.86 2376 1122.55Z" stroke="#2D6A9F" stroke-width="9.625" stroke-linecap="butt" stroke-linejoin="round" stroke-miterlimit="10" stroke-opacity="1" fill="#EBF2F8" fill-rule="evenodd" fill-opacity="1"/><text fill="#1F2933" fill-opacity="1" font-family="Aptos,Aptos_MSFontService,sans-serif" font-style="normal" font-variant="normal" font-weight="400" font-stretch="normal" font-size="80" text-anchor="start" direction="ltr" writing-mode="lr-tb" unicode-bidi="normal" text-decoration="none" transform="matrix(1 0 0 1 2428.19 959)">States, inputs,</text><text fill="#1F2933" fill-opacity="1" font-family="Aptos,Aptos_MSFontService,sans-serif" font-style="normal" font-variant="normal" font-weight="400" font-stretch="normal" font-size="80" text-anchor="start" direction="ltr" writing-mode="lr-tb" unicode-bidi="normal" text-decoration="none" transform="matrix(1 0 0 1 2541.81 1055)">outputs</text><path d="M3115 832.45C3115 805.139 3137.14 783 3164.45 783L3666.55 783C3693.86 783 3716 805.139 3716 832.45L3716 1122.55C3716 1149.86 3693.86 1172 3666.55 1172L3164.45 1172C3137.14 1172 3115 1149.86 3115 1122.55Z" stroke="#D97706" stroke-width="9.625" stroke-linecap="butt" stroke-linejoin="round" stroke-miterlimit="10" stroke-opacity="1" fill="#F7EFE1" fill-rule="evenodd" fill-opacity="1"/><text fill="#1F2933" fill-opacity="1" font-family="Aptos,Aptos_MSFontService,sans-serif" font-style="normal" font-variant="normal" font-weight="700" font-stretch="normal" font-size="83" text-anchor="start" direction="ltr" writing-mode="lr-tb" unicode-bidi="normal" text-decoration="none" transform="matrix(1 0 0 1 3189.15 958)">State</text><text fill="#1F2933" fill-opacity="1" font-family="Aptos,Aptos_MSFontService,sans-serif" font-style="normal" font-variant="normal" font-weight="700" font-stretch="normal" font-size="83" text-anchor="start" direction="ltr" writing-mode="lr-tb" unicode-bidi="normal" text-decoration="none" transform="matrix(1 0 0 1 3386.9 958)">-</text><text fill="#1F2933" fill-opacity="1" font-family="Aptos,Aptos_MSFontService,sans-serif" font-style="normal" font-variant="normal" font-weight="700" font-stretch="normal" font-size="83" text-anchor="start" direction="ltr" writing-mode="lr-tb" unicode-bidi="normal" text-decoration="none" transform="matrix(1 0 0 1 3414.97 958)">space</text><text fill="#1F2933" fill-opacity="1" font-family="Aptos,Aptos_MSFontService,sans-serif" font-style="normal" font-variant="normal" font-weight="700" font-stretch="normal" font-size="83" text-anchor="start" direction="ltr" writing-mode="lr-tb" unicode-bidi="normal" text-decoration="none" transform="matrix(1 0 0 1 3295.76 1057)">model</text><path d="M842 1252.91C842 1235.84 855.84 1222 872.912 1222L3203.09 1222C3220.16 1222 3234 1235.84 3234 1252.91L3234 1428.09C3234 1445.16 3220.16 1459 3203.09 1459L872.912 1459C855.84 1459 842 1445.16 842 1428.09Z" stroke="#2D6A9F" stroke-width="8.25" stroke-linecap="butt" stroke-linejoin="round" stroke-miterlimit="10" stroke-opacity="1" fill="#FFFFFF" fill-rule="evenodd" fill-opacity="1"/><text fill="#123B63" fill-opacity="1" font-family="Calibri,Calibri_MSFontService,sans-serif" font-style="italic" font-variant="normal" font-weight="400" font-stretch="normal" font-size="124" text-anchor="start" direction="ltr" writing-mode="lr-tb" unicode-bidi="normal" text-decoration="none" transform="matrix(1 0 0 1 1360 1381)">ẋ</text><text fill="#123B63" fill-opacity="1" font-family="Aptos,Aptos_MSFontService,sans-serif" font-style="italic" font-variant="normal" font-weight="400" font-stretch="normal" font-size="124" text-anchor="start" direction="ltr" writing-mode="lr-tb" unicode-bidi="normal" text-decoration="none" transform="matrix(1 0 0 1 1439.06 1381)">= f(x, u, d),     y = h(x, u, d)</text><text fill="#5B6573" fill-opacity="1" font-family="Aptos,Aptos_MSFontService,sans-serif" font-style="normal" font-variant="normal" font-weight="400" font-stretch="normal" font-size="57" text-anchor="start" direction="ltr" writing-mode="lr-tb" unicode-bidi="normal" text-decoration="none" transform="matrix(1 0 0 1 1165.51 1534)">Dynamic model form used throughout CCD analysis and control design</text></g></g></svg>