<svg width="4125" height="1352" xmlns="http://www.w3.org/2000/svg" xmlns:xlink="http://www.w3.org/1999/xlink" xml:space="preserve" overflow="hidden"><g transform="translate(-36 -467)"><g><path d="M629.5 1167.92 842.583 1167.92 842.583 1177.08 629.5 1177.08ZM838 1158.75 865.5 1172.5 838 1186.25Z" fill="#5F6876" fill-rule="nonzero" fill-opacity="1"/><path d="M1530.5 1167.92 1772.58 1167.92 1772.58 1177.08 1530.5 1177.08ZM1768 1158.75 1795.5 1172.5 1768 1186.25Z" fill="#5F6876" fill-rule="nonzero" fill-opacity="1"/><path d="M2374.5 1167.92 2856.58 1167.92 2856.58 1177.08 2374.5 1177.08ZM2852 1158.75 2879.5 1172.5 2852 1186.25Z" fill="#5F6876" fill-rule="nonzero" fill-opacity="1"/><path d="M3334.5 1167.92 3686.58 1167.92 3686.58 1177.08 3334.5 1177.08ZM3682 1158.75 3709.5 1172.5 3682 1186.25Z" fill="#5F6876" fill-rule="nonzero" fill-opacity="1"/><path d="M1215.08 589.5 1215.08 955.583 1205.92 955.583 1205.92 589.5ZM1224.25 951 1210.5 978.5 1196.75 951Z" fill="#5F6876" fill-rule="nonzero" fill-opacity="1"/><path d="M3023.08 578.5 3023.08 944.583 3013.92 944.583 3013.92 578.5ZM3032.25 940 3018.5 967.5 3004.75 940Z" fill="#D97706" fill-rule="nonzero" fill-opacity="1"/><path d="M44.4998 1000.9C44.4998 986.32 56.3197 974.5 70.9003 974.5L603.099 974.5C617.68 974.5 629.5 986.32 629.5 1000.9L629.5 1377.1C629.5 1391.68 617.68 1403.5 603.099 1403.5L70.9003 1403.5C56.3197 1403.5 44.4998 1391.68 44.4998 1377.1Z" stroke="#5F6876" stroke-width="9.16667" stroke-linecap="butt" stroke-linejoin="round" stroke-miterlimit="10" stroke-opacity="1" fill="#F5F6F8" fill-rule="evenodd" fill-opacity="1"/><path d="M865 1000.4C865 985.82 876.82 974 891.401 974L1503.6 974C1518.18 974 1530 985.82 1530 1000.4L1530 1376.6C1530 1391.18 1518.18 1403 1503.6 1403L891.401 1403C876.82 1403 865 1391.18 865 1376.6Z" stroke="#17456F" stroke-width="10.0833" stroke-linecap="butt" stroke-linejoin="round" stroke-miterlimit="10" stroke-opacity="1" fill="#DCE8F4" fill-rule="evenodd" fill-opacity="1"/><path d="M1797 1000.4C1797 985.82 1808.82 974 1823.4 974L2347.6 974C2362.18 974 2374 985.82 2374 1000.4L2374 1376.6C2374 1391.18 2362.18 1403 2347.6 1403L1823.4 1403C1808.82 1403 1797 1391.18 1797 1376.6Z" stroke="#17456F" stroke-width="10.0833" stroke-linecap="butt" stroke-linejoin="round" stroke-miterlimit="10" stroke-opacity="1" fill="#EDF3F8" fill-rule="evenodd" fill-opacity="1"/><path d="M2707 1000.4C2707 985.82 2718.82 974 2733.4 974L3307.6 974C3322.18 974 3334 985.82 3334 1000.4L3334 1376.6C3334 1391.18 3322.18 1403 3307.6 1403L2733.4 1403C2718.82 1403 2707 1391.18 2707 1376.6Z" stroke="#D97706" stroke-width="10.0833" stroke-linecap="butt" stroke-linejoin="round" stroke-miterlimit="10" stroke-opacity="1" fill="#FFF0DC" fill-rule="evenodd" fill-opacity="1"/><path d="M3711 1000.4C3711 985.82 3722.82 974 3737.4 974L4129.6 974C4144.18 974 4156 985.82 4156 1000.4L4156 1376.6C4156 1391.18 4144.18 1403 4129.6 1403L3737.4 1403C3722.82 1403 3711 1391.18 3711 1376.6Z" stroke="#D97706" stroke-width="10.0833" stroke-linecap="butt" stroke-linejoin="round" stroke-miterlimit="10" stroke-opacity="1" fill="#FFF6EA" fill-rule="evenodd" fill-opacity="1"/><path d="M857 503.362C857 488.803 868.803 477 883.362 477L1539.64 477C1554.2 477 1566 488.803 1566 503.362L1566 796.638C1566 811.197 1554.2 823 1539.64 823L883.362 823C868.803 823 857 811.197 857 796.638Z" stroke="#17456F" stroke-width="10.0833" stroke-linecap="butt" stroke-linejoin="round" stroke-miterlimit="10" stroke-opacity="1" fill="#DCE8F4" fill-rule="evenodd" fill-opacity="1"/><path d="M2662 525.362C2662 510.803 2673.8 499 2688.36 499L3344.64 499C3359.2 499 3371 510.803 3371 525.362L3371 818.638C3371 833.197 3359.2 845 3344.64 845L2688.36 845C2673.8 845 2662 833.197 2662 818.638Z" stroke="#D97706" stroke-width="10.0833" stroke-linecap="butt" stroke-linejoin="round" stroke-miterlimit="10" stroke-opacity="1" fill="#FFF0DC" fill-rule="evenodd" fill-opacity="1"/><path d="M671 1063.35C671 1048.8 682.798 1037 697.353 1037L802.648 1037C817.202 1037 829 1048.8 829 1063.35L829 1122.65C829 1137.2 817.202 1149 802.648 1149L697.353 1149C682.798 1149 671 1137.2 671 1122.65Z" stroke="#5F6876" stroke-width="5.5" stroke-linecap="butt" stroke-linejoin="round" stroke-miterlimit="10" stroke-opacity="1" fill="#FFFFFF" fill-rule="evenodd" fill-opacity="1"/><text fill="#1F2937" fill-opacity="1" font-family="Arial,Arial_MSFontService,sans-serif" font-style="italic" font-variant="normal" font-weight="400" font-stretch="normal" font-size="69" text-anchor="start" direction="ltr" writing-mode="lr-tb" unicode-bidi="normal" text-decoration="none" transform="matrix(1 0 0 1 694.971 1122)">d(t)</text><path d="M1565 1062.35C1565 1047.8 1576.8 1036 1591.35 1036L1696.65 1036C1711.2 1036 1723 1047.8 1723 1062.35L1723 1121.65C1723 1136.2 1711.2 1148 1696.65 1148L1591.35 1148C1576.8 1148 1565 1136.2 1565 1121.65Z" stroke="#5F6876" stroke-width="5.5" stroke-linecap="butt" stroke-linejoin="round" stroke-miterlimit="10" stroke-opacity="1" fill="#FFFFFF" fill-rule="evenodd" fill-opacity="1"/><text fill="#1F2937" fill-opacity="1" font-family="Cambria Math,Cambria Math_MSFontService,sans-serif" font-style="normal" font-variant="normal" font-weight="400" font-stretch="normal" font-size="69" text-anchor="start" direction="ltr" writing-mode="lr-tb" unicode-bidi="normal" text-decoration="none" transform="matrix(1 0 0 1 1602.24 1118)">𝜉</text><text fill="#1F2937" fill-opacity="1" font-family="Arial,Arial_MSFontService,sans-serif" font-style="italic" font-variant="normal" font-weight="400" font-stretch="normal" font-size="69" text-anchor="start" direction="ltr" writing-mode="lr-tb" unicode-bidi="normal" text-decoration="none" transform="matrix(1 0 0 1 1638.15 1118)">(</text><text fill="#1F2937" fill-opacity="1" font-family="Arial,Arial_MSFontService,sans-serif" font-style="italic" font-variant="normal" font-weight="400" font-stretch="normal" font-size="69" text-anchor="start" direction="ltr" writing-mode="lr-tb" unicode-bidi="normal" text-decoration="none" transform="matrix(1 0 0 1 1661.07 1118)">t)</text><path d="M2437 1063.35C2437 1048.8 2448.8 1037 2463.35 1037L2613.65 1037C2628.2 1037 2640 1048.8 2640 1063.35L2640 1122.65C2640 1137.2 2628.2 1149 2613.65 1149L2463.35 1149C2448.8 1149 2437 1137.2 2437 1122.65Z" stroke="#5F6876" stroke-width="5.5" stroke-linecap="butt" stroke-linejoin="round" stroke-miterlimit="10" stroke-opacity="1" fill="#FFFFFF" fill-rule="evenodd" fill-opacity="1"/><text fill="#1F2937" fill-opacity="1" font-family="Cambria Math,Cambria Math_MSFontService,sans-serif" font-style="normal" font-variant="normal" font-weight="400" font-stretch="normal" font-size="69" text-anchor="start" direction="ltr" writing-mode="lr-tb" unicode-bidi="normal" text-decoration="none" transform="matrix(1 0 0 1 2478.54 1115)">𝑦</text><text fill="#1F2937" fill-opacity="1" font-family="Cambria Math,Cambria Math_MSFontService,sans-serif" font-style="normal" font-variant="normal" font-weight="400" font-stretch="normal" font-size="69" text-anchor="start" direction="ltr" writing-mode="lr-tb" unicode-bidi="normal" text-decoration="none" transform="matrix(1 0 0 1 2518.09 1115)">(</text><text fill="#1F2937" fill-opacity="1" font-family="Cambria Math,Cambria Math_MSFontService,sans-serif" font-style="normal" font-variant="normal" font-weight="400" font-stretch="normal" font-size="69" text-anchor="start" direction="ltr" writing-mode="lr-tb" unicode-bidi="normal" text-decoration="none" transform="matrix(1 0 0 1 2546.74 1115)">𝑡</text><text fill="#1F2937" fill-opacity="1" font-family="Cambria Math,Cambria Math_MSFontService,sans-serif" font-style="normal" font-variant="normal" font-weight="400" font-stretch="normal" font-size="69" text-anchor="start" direction="ltr" writing-mode="lr-tb" unicode-bidi="normal" text-decoration="none" transform="matrix(1 0 0 1 2575.34 1115)">)</text><path d="M3369 1059.35C3369 1044.8 3380.8 1033 3395.35 1033L3632.65 1033C3647.2 1033 3659 1044.8 3659 1059.35L3659 1118.65C3659 1133.2 3647.2 1145 3632.65 1145L3395.35 1145C3380.8 1145 3369 1133.2 3369 1118.65Z" stroke="#5F6876" stroke-width="5.5" stroke-linecap="butt" stroke-linejoin="round" stroke-miterlimit="10" stroke-opacity="1" fill="#FFFFFF" fill-rule="evenodd" fill-opacity="1"/><text fill="#1F2937" fill-opacity="1" font-family="Arial,Arial_MSFontService,sans-serif" font-style="normal" font-variant="normal" font-weight="400" font-stretch="normal" font-size="50" text-anchor="start" direction="ltr" writing-mode="lr-tb" unicode-bidi="normal" text-decoration="none" transform="matrix(1 0 0 1 3396.96 1105)">command</text><path d="M2449 1413.22C2449 1398.74 2460.74 1387 2475.22 1387L2613.78 1387C2628.26 1387 2640 1398.74 2640 1413.22L2640 1478.78C2640 1493.26 2628.26 1505 2613.78 1505L2475.22 1505C2460.74 1505 2449 1493.26 2449 1478.78Z" stroke="#D97706" stroke-width="5.5" stroke-linecap="butt" stroke-linejoin="round" stroke-miterlimit="10" stroke-opacity="1" fill="#FFFFFF" fill-rule="evenodd" fill-opacity="1"/><text fill="#D97706" fill-opacity="1" font-family="Arial,Arial_MSFontService,sans-serif" font-style="italic" font-variant="normal" font-weight="400" font-stretch="normal" font-size="69" text-anchor="start" direction="ltr" writing-mode="lr-tb" unicode-bidi="normal" text-decoration="none" transform="matrix(1 0 0 1 2492.74 1472)">u(t)</text><text fill="#1F2937" fill-opacity="1" font-family="Arial,Arial_MSFontService,sans-serif" font-style="normal" font-variant="normal" font-weight="400" font-stretch="normal" font-size="85" text-anchor="start" direction="ltr" writing-mode="lr-tb" unicode-bidi="normal" text-decoration="none" transform="matrix(1 0 0 1 101.693 1119)">Environment</text><text fill="#1F2937" fill-opacity="1" font-family="Arial,Arial_MSFontService,sans-serif" font-style="normal" font-variant="normal" font-weight="400" font-stretch="normal" font-size="85" text-anchor="start" direction="ltr" writing-mode="lr-tb" unicode-bidi="normal" text-decoration="none" transform="matrix(1 0 0 1 268.709 1211)">and </text><text fill="#1F2937" fill-opacity="1" font-family="Arial,Arial_MSFontService,sans-serif" font-style="normal" font-variant="normal" font-weight="400" font-stretch="normal" font-size="85" text-anchor="start" direction="ltr" writing-mode="lr-tb" unicode-bidi="normal" text-decoration="none" transform="matrix(1 0 0 1 99.4009 1302)">disturbances</text><text fill="#1F2937" fill-opacity="1" font-family="Arial,Arial_MSFontService,sans-serif" font-style="normal" font-variant="normal" font-weight="400" font-stretch="normal" font-size="92" text-anchor="start" direction="ltr" writing-mode="lr-tb" unicode-bidi="normal" text-decoration="none" transform="matrix(1 0 0 1 911.212 1207)">Physical plant</text><text fill="#1F2937" fill-opacity="1" font-family="Arial,Arial_MSFontService,sans-serif" font-style="normal" font-variant="normal" font-weight="400" font-stretch="normal" font-size="92" text-anchor="start" direction="ltr" writing-mode="lr-tb" unicode-bidi="normal" text-decoration="none" transform="matrix(1 0 0 1 1913.78 1203)">Sensors</text><text fill="#1F2937" fill-opacity="1" font-family="Arial,Arial_MSFontService,sans-serif" font-style="normal" font-variant="normal" font-weight="400" font-stretch="normal" font-size="92" text-anchor="start" direction="ltr" writing-mode="lr-tb" unicode-bidi="normal" text-decoration="none" transform="matrix(1 0 0 1 2810.8 1207)">Controller</text><text fill="#1F2937" fill-opacity="1" font-family="Arial,Arial_MSFontService,sans-serif" font-style="normal" font-variant="normal" font-weight="400" font-stretch="normal" font-size="92" text-anchor="start" direction="ltr" writing-mode="lr-tb" unicode-bidi="normal" text-decoration="none" transform="matrix(1 0 0 1 3762.97 1207)">Actuator</text><text fill="#1F2937" fill-opacity="1" font-family="Arial,Arial_MSFontService,sans-serif" font-style="normal" font-variant="normal" font-weight="400" font-stretch="normal" font-size="73" text-anchor="start" direction="ltr" writing-mode="lr-tb" unicode-bidi="normal" text-decoration="none" transform="matrix(1 0 0 1 1011.92 592)">Plant design</text><text fill="#1F2937" fill-opacity="1" font-family="Arial,Arial_MSFontService,sans-serif" font-style="normal" font-variant="normal" font-weight="400" font-stretch="normal" font-size="73" text-anchor="start" direction="ltr" writing-mode="lr-tb" unicode-bidi="normal" text-decoration="none" transform="matrix(1 0 0 1 1066.92 662)">variables </text><text fill="#1F2937" fill-opacity="1" font-family="Arial,Arial_MSFontService,sans-serif" font-style="italic" font-variant="normal" font-weight="400" font-stretch="normal" font-size="73" text-anchor="start" direction="ltr" writing-mode="lr-tb" unicode-bidi="normal" text-decoration="none" transform="matrix(1 0 0 1 1181.5 733)">x</text><text fill="#1F2937" fill-opacity="1" font-family="Arial,Arial_MSFontService,sans-serif" font-style="normal" font-variant="normal" font-weight="400" font-stretch="normal" font-size="49" text-anchor="start" direction="ltr" writing-mode="lr-tb" unicode-bidi="normal" text-decoration="none" transform="matrix(1 0 0 1 1218.17 761)">p</text><text fill="#1F2937" fill-opacity="1" font-family="Arial,Arial_MSFontService,sans-serif" font-style="normal" font-variant="normal" font-weight="400" font-stretch="normal" font-size="73" text-anchor="start" direction="ltr" writing-mode="lr-tb" unicode-bidi="normal" text-decoration="none" transform="matrix(1 0 0 1 2781.99 614)">Control design</text><text fill="#1F2937" fill-opacity="1" font-family="Arial,Arial_MSFontService,sans-serif" font-style="normal" font-variant="normal" font-weight="400" font-stretch="normal" font-size="73" text-anchor="start" direction="ltr" writing-mode="lr-tb" unicode-bidi="normal" text-decoration="none" transform="matrix(1 0 0 1 2871.66 684)">variables </text><text fill="#1F2937" fill-opacity="1" font-family="Arial,Arial_MSFontService,sans-serif" font-style="italic" font-variant="normal" font-weight="400" font-stretch="normal" font-size="73" text-anchor="start" direction="ltr" writing-mode="lr-tb" unicode-bidi="normal" text-decoration="none" transform="matrix(1 0 0 1 2987.39 755)">x</text><text fill="#1F2937" fill-opacity="1" font-family="Arial,Arial_MSFontService,sans-serif" font-style="normal" font-variant="normal" font-weight="400" font-stretch="normal" font-size="49" text-anchor="start" direction="ltr" writing-mode="lr-tb" unicode-bidi="normal" text-decoration="none" transform="matrix(1 0 0 1 3024.06 783)">c</text><path d="M558.5 1601.94C558.5 1587.34 570.339 1575.5 584.944 1575.5L3816.06 1575.5C3830.66 1575.5 3842.5 1587.34 3842.5 1601.94L3842.5 1787.06C3842.5 1801.66 3830.66 1813.5 3816.06 1813.5L584.944 1813.5C570.339 1813.5 558.5 1801.66 558.5 1787.06Z" stroke="#2F6FA7" stroke-width="7.33333" stroke-linecap="butt" stroke-linejoin="round" stroke-miterlimit="10" stroke-opacity="1" fill="#FFFFFF" fill-rule="evenodd" fill-opacity="1"/><text fill="#17456F" fill-opacity="1" font-family="Arial,Arial_MSFontService,sans-serif" font-style="normal" font-variant="normal" font-weight="400" font-stretch="normal" font-size="70" text-anchor="start" direction="ltr" writing-mode="lr-tb" unicode-bidi="normal" text-decoration="none" transform="matrix(1 0 0 1 1193.03 1678)">An actively controlled engineering system is one coupled system:</text><text fill="#17456F" fill-opacity="1" font-family="Arial,Arial_MSFontService,sans-serif" font-style="normal" font-variant="normal" font-weight="400" font-stretch="normal" font-size="70" text-anchor="start" direction="ltr" writing-mode="lr-tb" unicode-bidi="normal" text-decoration="none" transform="matrix(1 0 0 1 1177.4 1754)">plant, controller, sensors, actuators, and environment act together.</text><path d="M3941.04 1400 3941.04 1524.32 1194.84 1524.32 1194.84 1430.36 1205.16 1430.36 1205.16 1519.17 1200 1514.01 3935.88 1514.01 3930.73 1519.17 3930.73 1400ZM1184.53 1435.52 1200 1404.58 1215.47 1435.52Z" fill="#ED7D31" fill-rule="nonzero" fill-opacity="1"/></g></g></svg>