<svg width="4327" height="2163" xmlns="http://www.w3.org/2000/svg" xmlns:xlink="http://www.w3.org/1999/xlink" xml:space="preserve" overflow="hidden"><defs><clipPath id="clip0"><rect x="36" y="50" width="4327" height="2163"/></clipPath><clipPath id="clip1"><rect x="36" y="50" width="4327" height="2163"/></clipPath></defs><g clip-path="url(#clip0)" transform="translate(-36 -50)"><g clip-path="url(#clip1)"><text fill="#000000" fill-opacity="1" font-family="Arial,Arial_MSFontService,sans-serif" font-style="normal" font-variant="normal" font-weight="400" font-stretch="normal" font-size="92" text-anchor="start" direction="ltr" writing-mode="lr-tb" unicode-bidi="normal" text-decoration="none" transform="matrix(1 0 0 1 1753.98 168)">Closed</text><text fill="#000000" fill-opacity="1" font-family="Arial,Arial_MSFontService,sans-serif" font-style="normal" font-variant="normal" font-weight="400" font-stretch="normal" font-size="92" text-anchor="start" direction="ltr" writing-mode="lr-tb" unicode-bidi="normal" text-decoration="none" transform="matrix(1 0 0 1 2039.87 168)">-</text><text fill="#000000" fill-opacity="1" font-family="Arial,Arial_MSFontService,sans-serif" font-style="normal" font-variant="normal" font-weight="400" font-stretch="normal" font-size="92" text-anchor="start" direction="ltr" writing-mode="lr-tb" unicode-bidi="normal" text-decoration="none" transform="matrix(1 0 0 1 2070.23 168)">loop </text><text fill="#000000" fill-opacity="1" font-family="Arial,Arial_MSFontService,sans-serif" font-style="normal" font-variant="normal" font-weight="400" font-stretch="normal" font-size="92" text-anchor="start" direction="ltr" writing-mode="lr-tb" unicode-bidi="normal" text-decoration="none" transform="matrix(1 0 0 1 2269.04 168)">response</text><g><rect x="521" y="232" width="3446" height="1737" fill="#F2F2F2" fill-opacity="1"/></g><g><path d="M521.5 1968.5 3966.5 1968.5M521.5 1666.55 3966.5 1666.55M521.5 1364.54 3966.5 1364.54M521.5 1062.54 3966.5 1062.54M521.5 760.525 3966.5 760.525M521.5 458.5 3966.5 458.5" stroke="#888888" stroke-width="4.58333" stroke-linecap="butt" stroke-linejoin="round" stroke-miterlimit="10" stroke-opacity="1" fill="none" fill-rule="nonzero"/></g><g><rect x="521.5" y="231.5" width="3445" height="1737" stroke="#111111" stroke-width="4.58333" stroke-linecap="butt" stroke-linejoin="round" stroke-miterlimit="10" stroke-opacity="1" fill="none"/></g><g><path d="M0 0 0.000360892 1737" stroke="#888888" stroke-width="4.58333" stroke-linecap="butt" stroke-linejoin="round" stroke-miterlimit="10" stroke-opacity="1" fill="none" fill-rule="evenodd" transform="matrix(1 0 0 -1 521.5 1968.5)"/></g><g><path d="M502.5 1968.5 521.5 1968.5M502.5 1666.55 521.5 1666.55M502.5 1364.54 521.5 1364.54M502.5 1062.54 521.5 1062.54M502.5 760.525 521.5 760.525M502.5 458.5 521.5 458.5" stroke="#888888" stroke-width="4.58333" stroke-linecap="butt" stroke-linejoin="round" stroke-miterlimit="10" stroke-opacity="1" fill="none" fill-rule="nonzero"/></g><g><path d="M521.5 1817.5 3966.5 1817.5" stroke="#888888" stroke-width="4.58333" stroke-linecap="butt" stroke-linejoin="round" stroke-miterlimit="10" stroke-opacity="1" fill="none" fill-rule="evenodd"/></g><g><path d="M521.5 1817.5 521.5 1834.5M563.519 1817.5 563.519 1834.5M606.52 1817.5 606.52 1834.5M648.521 1817.5 648.521 1834.5M691.523 1817.5 691.523 1834.5M734.524 1817.5 734.524 1834.5M776.526 1817.5 776.526 1834.5M819.527 1817.5 819.527 1834.5M861.528 1817.5 861.528 1834.5M904.53 1817.5 904.53 1834.5M946.531 1817.5 946.531 1834.5M989.533 1817.5 989.533 1834.5M1031.53 1817.5 1031.53 1834.5M1074.54 1817.5 1074.54 1834.5M1116.54 1817.5 1116.54 1834.5M1159.54 1817.5 1159.54 1834.5M1201.54 1817.5 1201.54 1834.5M1244.54 1817.5 1244.54 1834.5M1286.54 1817.5 1286.54 1834.5M1329.54 1817.5 1329.54 1834.5M1372.55 1817.5 1372.55 1834.5M1414.55 1817.5 1414.55 1834.5M1457.55 1817.5 1457.55 1834.5M1499.55 1817.5 1499.55 1834.5M1542.55 1817.5 1542.55 1834.5M1584.55 1817.5 1584.55 1834.5M1627.55 1817.5 1627.55 1834.5M1669.55 1817.5 1669.55 1834.5M1712.56 1817.5 1712.56 1834.5M1754.56 1817.5 1754.56 1834.5M1797.56 1817.5 1797.56 1834.5M1839.56 1817.5 1839.56 1834.5M1882.56 1817.5 1882.56 1834.5M1924.56 1817.5 1924.56 1834.5M1967.56 1817.5 1967.56 1834.5M2010.57 1817.5 2010.57 1834.5M2052.57 1817.5 2052.57 1834.5M2095.57 1817.5 2095.57 1834.5M2137.57 1817.5 2137.57 1834.5M2180.57 1817.5 2180.57 1834.5M2222.57 1817.5 2222.57 1834.5M2265.57 1817.5 2265.57 1834.5M2307.58 1817.5 2307.58 1834.5M2350.58 1817.5 2350.58 1834.5M2392.58 1817.5 2392.58 1834.5M2435.58 1817.5 2435.58 1834.5M2477.58 1817.5 2477.58 1834.5M2520.58 1817.5 2520.58 1834.5M2562.58 1817.5 2562.58 1834.5M2605.59 1817.5 2605.59 1834.5M2647.59 1817.5 2647.59 1834.5M2690.59 1817.5 2690.59 1834.5M2733.59 1817.5 2733.59 1834.5M2775.59 1817.5 2775.59 1834.5M2818.59 1817.5 2818.59 1834.5M2860.59 1817.5 2860.59 1834.5M2903.6 1817.5 2903.6 1834.5M2945.6 1817.5 2945.6 1834.5M2988.6 1817.5 2988.6 1834.5M3030.6 1817.5 3030.6 1834.5M3073.6 1817.5 3073.6 1834.5M3115.6 1817.5 3115.6 1834.5M3158.6 1817.5 3158.6 1834.5M3200.61 1817.5 3200.61 1834.5M3243.61 1817.5 3243.61 1834.5M3285.61 1817.5 3285.61 1834.5M3328.61 1817.5 3328.61 1834.5M3371.61 1817.5 3371.61 1834.5M3413.61 1817.5 3413.61 1834.5M3456.61 1817.5 3456.61 1834.5M3498.61 1817.5 3498.61 1834.5M3541.62 1817.5 3541.62 1834.5M3583.62 1817.5 3583.62 1834.5M3626.62 1817.5 3626.62 1834.5M3668.62 1817.5 3668.62 1834.5M3711.62 1817.5 3711.62 1834.5M3753.62 1817.5 3753.62 1834.5M3796.62 1817.5 3796.62 1834.5M3838.63 1817.5 3838.63 1834.5M3881.63 1817.5 3881.63 1834.5M3923.63 1817.5 3923.63 1834.5M3966.5 1817.5 3966.5 1834.5" stroke="#888888" stroke-width="4.58333" stroke-linecap="butt" stroke-linejoin="round" stroke-miterlimit="10" stroke-opacity="1" fill="none" fill-rule="nonzero"/></g><g><path d="M543 307 585.019 359.012 628.021 488.016 670.022 661.022 713.023 852.028 755.025 1044.03 798.026 1223.04 840.028 1382.05 883.029 1518.05 925.03 1629.05 968.032 1716.06 1011.03 1782.06 1053.03 1828.06 1096.04 1859.06 1138.04 1877.06 1181.04 1886.06 1223.04 1887 1266.04 1883.06 1308.04 1877.06 1351.04 1868.06 1393.05 1859.06 1436.05 1851.06 1478.05 1843.06 1521.05 1836.06 1563.05 1830.06 1606.05 1825.06 1648.05 1821.06 1691.06 1818.06 1734.06 1817.06 1776.06 1815.06 1819.06 1815.06 1861.06 1814.06 1904.06 1814.06 1946.06 1815.06 1989.07 1815.06 2031.07 1815.06 2074.07 1816.06 2116.07 1816.06 2159.07 1817.06 2201.07 1817.06 2244.07 1817.06 2286.07 1817.06 2329.08 1817.06 2372.08 1818.06 2414.08 1818.06 2457.08 1818.06 2499.08 1818.06 2542.08 1818.06 2584.08 1818.06 2627.09 1818.06 2669.09 1818.06 2712.09 1818.06 2754.09 1818.06 2797.09 1818.06 2839.09 1818.06 2882.09 1818.06 2924.1 1818.06 2967.1 1818.06 3010.1 1818.06 3052.1 1818.06 3095.1 1818.06 3137.1 1818.06 3180.1 1818.06 3222.11 1818.06 3265.11 1818.06 3307.11 1818.06 3350.11 1818.06 3392.11 1818.06 3435.11 1818.06 3477.11 1818.06 3520.12 1818.06 3562.12 1818.06 3605.12 1818.06 3647.12 1818.06 3690.12 1818.06 3733.12 1818.06 3775.12 1818.06 3818.13 1818.06 3860.13 1818.06 3903.13 1818.06 3945 1818.06" stroke="#B04450" stroke-width="13.75" stroke-linecap="butt" stroke-linejoin="round" stroke-miterlimit="10" stroke-opacity="1" fill="none" fill-rule="nonzero"/></g><g><path d="M554.5 306.9C554.5 314.08 548.679 319.9 541.5 319.9 534.32 319.9 528.5 314.08 528.5 306.9 528.5 299.72 534.32 293.9 541.5 293.9 548.679 293.9 554.5 299.72 554.5 306.9Z" stroke="#B04450" stroke-width="3.4375" stroke-linecap="butt" stroke-linejoin="round" stroke-miterlimit="10" stroke-opacity="1" fill="#B04450" fill-rule="nonzero" fill-opacity="1"/><path d="M597.5 358.9C597.5 366.079 591.679 371.9 584.5 371.9 577.32 371.9 571.5 366.079 571.5 358.9 571.5 351.72 577.32 345.9 584.5 345.9 591.679 345.9 597.5 351.72 597.5 358.9Z" stroke="#B04450" stroke-width="3.4375" stroke-linecap="butt" stroke-linejoin="round" stroke-miterlimit="10" stroke-opacity="1" fill="#B04450" fill-rule="nonzero" fill-opacity="1"/><path d="M639.5 487.9C639.5 495.079 633.68 500.9 626.5 500.9 619.321 500.9 613.5 495.079 613.5 487.9 613.5 480.72 619.321 474.9 626.5 474.9 633.68 474.9 639.5 480.72 639.5 487.9Z" stroke="#B04450" stroke-width="3.4375" stroke-linecap="butt" stroke-linejoin="round" stroke-miterlimit="10" stroke-opacity="1" fill="#B04450" fill-rule="nonzero" fill-opacity="1"/><path d="M682.5 660.9C682.5 668.079 676.68 673.899 669.5 673.899 662.321 673.899 656.5 668.079 656.5 660.9 656.5 653.72 662.321 647.9 669.5 647.9 676.68 647.9 682.5 653.72 682.5 660.9Z" stroke="#B04450" stroke-width="3.4375" stroke-linecap="butt" stroke-linejoin="round" stroke-miterlimit="10" stroke-opacity="1" fill="#B04450" fill-rule="nonzero" fill-opacity="1"/><path d="M724.5 851.9C724.5 859.079 718.68 864.9 711.5 864.9 704.321 864.9 698.5 859.079 698.5 851.9 698.5 844.72 704.321 838.9 711.5 838.9 718.68 838.9 724.5 844.72 724.5 851.9Z" stroke="#B04450" stroke-width="3.4375" stroke-linecap="butt" stroke-linejoin="round" stroke-miterlimit="10" stroke-opacity="1" fill="#B04450" fill-rule="nonzero" fill-opacity="1"/><path d="M767.5 1042.9C767.5 1050.08 761.68 1055.9 754.5 1055.9 747.32 1055.9 741.5 1050.08 741.5 1042.9 741.5 1035.72 747.32 1029.9 754.5 1029.9 761.68 1029.9 767.5 1035.72 767.5 1042.9Z" stroke="#B04450" stroke-width="3.4375" stroke-linecap="butt" stroke-linejoin="round" stroke-miterlimit="10" stroke-opacity="1" fill="#B04450" fill-rule="nonzero" fill-opacity="1"/><path d="M809.5 1222.9C809.5 1230.08 803.68 1235.9 796.5 1235.9 789.32 1235.9 783.5 1230.08 783.5 1222.9 783.5 1215.72 789.32 1209.9 796.5 1209.9 803.68 1209.9 809.5 1215.72 809.5 1222.9Z" stroke="#B04450" stroke-width="3.4375" stroke-linecap="butt" stroke-linejoin="round" stroke-miterlimit="10" stroke-opacity="1" fill="#B04450" fill-rule="nonzero" fill-opacity="1"/><path d="M852.5 1381.9C852.5 1389.08 846.68 1394.9 839.5 1394.9 832.32 1394.9 826.5 1389.08 826.5 1381.9 826.5 1374.72 832.32 1368.9 839.5 1368.9 846.68 1368.9 852.5 1374.72 852.5 1381.9Z" stroke="#B04450" stroke-width="3.4375" stroke-linecap="butt" stroke-linejoin="round" stroke-miterlimit="10" stroke-opacity="1" fill="#B04450" fill-rule="nonzero" fill-opacity="1"/><path d="M894.5 1517.9C894.5 1525.08 888.679 1530.9 881.5 1530.9 874.32 1530.9 868.5 1525.08 868.5 1517.9 868.5 1510.72 874.32 1504.9 881.5 1504.9 888.679 1504.9 894.5 1510.72 894.5 1517.9Z" stroke="#B04450" stroke-width="3.4375" stroke-linecap="butt" stroke-linejoin="round" stroke-miterlimit="10" stroke-opacity="1" fill="#B04450" fill-rule="nonzero" fill-opacity="1"/><path d="M937.5 1628.9C937.5 1636.08 931.679 1641.9 924.5 1641.9 917.32 1641.9 911.5 1636.08 911.5 1628.9 911.5 1621.72 917.32 1615.9 924.5 1615.9 931.679 1615.9 937.5 1621.72 937.5 1628.9Z" stroke="#B04450" stroke-width="3.4375" stroke-linecap="butt" stroke-linejoin="round" stroke-miterlimit="10" stroke-opacity="1" fill="#B04450" fill-rule="nonzero" fill-opacity="1"/><path d="M979.5 1715.9C979.5 1723.08 973.68 1728.9 966.5 1728.9 959.321 1728.9 953.5 1723.08 953.5 1715.9 953.5 1708.72 959.321 1702.9 966.5 1702.9 973.68 1702.9 979.5 1708.72 979.5 1715.9Z" stroke="#B04450" stroke-width="3.4375" stroke-linecap="butt" stroke-linejoin="round" stroke-miterlimit="10" stroke-opacity="1" fill="#B04450" fill-rule="nonzero" fill-opacity="1"/><path d="M1022.5 1780.9C1022.5 1788.08 1016.68 1793.9 1009.5 1793.9 1002.32 1793.9 996.5 1788.08 996.5 1780.9 996.5 1773.72 1002.32 1767.9 1009.5 1767.9 1016.68 1767.9 1022.5 1773.72 1022.5 1780.9Z" stroke="#B04450" stroke-width="3.4375" stroke-linecap="butt" stroke-linejoin="round" stroke-miterlimit="10" stroke-opacity="1" fill="#B04450" fill-rule="nonzero" fill-opacity="1"/><path d="M1065.5 1827.9C1065.5 1835.08 1059.68 1840.9 1052.5 1840.9 1045.32 1840.9 1039.5 1835.08 1039.5 1827.9 1039.5 1820.72 1045.32 1814.9 1052.5 1814.9 1059.68 1814.9 1065.5 1820.72 1065.5 1827.9Z" stroke="#B04450" stroke-width="3.4375" stroke-linecap="butt" stroke-linejoin="round" stroke-miterlimit="10" stroke-opacity="1" fill="#B04450" fill-rule="nonzero" fill-opacity="1"/><path d="M1107.5 1858.9C1107.5 1866.08 1101.68 1871.9 1094.5 1871.9 1087.32 1871.9 1081.5 1866.08 1081.5 1858.9 1081.5 1851.72 1087.32 1845.9 1094.5 1845.9 1101.68 1845.9 1107.5 1851.72 1107.5 1858.9Z" stroke="#B04450" stroke-width="3.4375" stroke-linecap="butt" stroke-linejoin="round" stroke-miterlimit="10" stroke-opacity="1" fill="#B04450" fill-rule="nonzero" fill-opacity="1"/><path d="M1150.5 1876.9C1150.5 1884.08 1144.68 1889.9 1137.5 1889.9 1130.32 1889.9 1124.5 1884.08 1124.5 1876.9 1124.5 1869.72 1130.32 1863.9 1137.5 1863.9 1144.68 1863.9 1150.5 1869.72 1150.5 1876.9Z" stroke="#B04450" stroke-width="3.4375" stroke-linecap="butt" stroke-linejoin="round" stroke-miterlimit="10" stroke-opacity="1" fill="#B04450" fill-rule="nonzero" fill-opacity="1"/><path d="M1192.5 1884.9C1192.5 1892.08 1186.68 1897.9 1179.5 1897.9 1172.32 1897.9 1166.5 1892.08 1166.5 1884.9 1166.5 1877.72 1172.32 1871.9 1179.5 1871.9 1186.68 1871.9 1192.5 1877.72 1192.5 1884.9Z" stroke="#B04450" stroke-width="3.4375" stroke-linecap="butt" stroke-linejoin="round" stroke-miterlimit="10" stroke-opacity="1" fill="#B04450" fill-rule="nonzero" fill-opacity="1"/><path d="M1235.5 1885.9C1235.5 1893.08 1229.68 1898.9 1222.5 1898.9 1215.32 1898.9 1209.5 1893.08 1209.5 1885.9 1209.5 1878.72 1215.32 1872.9 1222.5 1872.9 1229.68 1872.9 1235.5 1878.72 1235.5 1885.9Z" stroke="#B04450" stroke-width="3.4375" stroke-linecap="butt" stroke-linejoin="round" stroke-miterlimit="10" stroke-opacity="1" fill="#B04450" fill-rule="nonzero" fill-opacity="1"/><path d="M1277.5 1882.9C1277.5 1890.08 1271.68 1895.9 1264.5 1895.9 1257.32 1895.9 1251.5 1890.08 1251.5 1882.9 1251.5 1875.72 1257.32 1869.9 1264.5 1869.9 1271.68 1869.9 1277.5 1875.72 1277.5 1882.9Z" stroke="#B04450" stroke-width="3.4375" stroke-linecap="butt" stroke-linejoin="round" stroke-miterlimit="10" stroke-opacity="1" fill="#B04450" fill-rule="nonzero" fill-opacity="1"/><path d="M1320.5 1875.9C1320.5 1883.08 1314.68 1888.9 1307.5 1888.9 1300.32 1888.9 1294.5 1883.08 1294.5 1875.9 1294.5 1868.72 1300.32 1862.9 1307.5 1862.9 1314.68 1862.9 1320.5 1868.72 1320.5 1875.9Z" stroke="#B04450" stroke-width="3.4375" stroke-linecap="butt" stroke-linejoin="round" stroke-miterlimit="10" stroke-opacity="1" fill="#B04450" fill-rule="nonzero" fill-opacity="1"/><path d="M1362.5 1867.9C1362.5 1875.08 1356.68 1880.9 1349.5 1880.9 1342.32 1880.9 1336.5 1875.08 1336.5 1867.9 1336.5 1860.72 1342.32 1854.9 1349.5 1854.9 1356.68 1854.9 1362.5 1860.72 1362.5 1867.9Z" stroke="#B04450" stroke-width="3.4375" stroke-linecap="butt" stroke-linejoin="round" stroke-miterlimit="10" stroke-opacity="1" fill="#B04450" fill-rule="nonzero" fill-opacity="1"/><path d="M1405.5 1858.9C1405.5 1866.08 1399.68 1871.9 1392.5 1871.9 1385.32 1871.9 1379.5 1866.08 1379.5 1858.9 1379.5 1851.72 1385.32 1845.9 1392.5 1845.9 1399.68 1845.9 1405.5 1851.72 1405.5 1858.9Z" stroke="#B04450" stroke-width="3.4375" stroke-linecap="butt" stroke-linejoin="round" stroke-miterlimit="10" stroke-opacity="1" fill="#B04450" fill-rule="nonzero" fill-opacity="1"/><path d="M1447.5 1849.9C1447.5 1857.08 1441.68 1862.9 1434.5 1862.9 1427.32 1862.9 1421.5 1857.08 1421.5 1849.9 1421.5 1842.72 1427.32 1836.9 1434.5 1836.9 1441.68 1836.9 1447.5 1842.72 1447.5 1849.9Z" stroke="#B04450" stroke-width="3.4375" stroke-linecap="butt" stroke-linejoin="round" stroke-miterlimit="10" stroke-opacity="1" fill="#B04450" fill-rule="nonzero" fill-opacity="1"/><path d="M1490.5 1841.9C1490.5 1849.08 1484.68 1854.9 1477.5 1854.9 1470.32 1854.9 1464.5 1849.08 1464.5 1841.9 1464.5 1834.72 1470.32 1828.9 1477.5 1828.9 1484.68 1828.9 1490.5 1834.72 1490.5 1841.9Z" stroke="#B04450" stroke-width="3.4375" stroke-linecap="butt" stroke-linejoin="round" stroke-miterlimit="10" stroke-opacity="1" fill="#B04450" fill-rule="nonzero" fill-opacity="1"/><path d="M1532.5 1834.9C1532.5 1842.08 1526.68 1847.9 1519.5 1847.9 1512.32 1847.9 1506.5 1842.08 1506.5 1834.9 1506.5 1827.72 1512.32 1821.9 1519.5 1821.9 1526.68 1821.9 1532.5 1827.72 1532.5 1834.9Z" stroke="#B04450" stroke-width="3.4375" stroke-linecap="butt" stroke-linejoin="round" stroke-miterlimit="10" stroke-opacity="1" fill="#B04450" fill-rule="nonzero" fill-opacity="1"/><path d="M1575.5 1828.9C1575.5 1836.08 1569.68 1841.9 1562.5 1841.9 1555.32 1841.9 1549.5 1836.08 1549.5 1828.9 1549.5 1821.72 1555.32 1815.9 1562.5 1815.9 1569.68 1815.9 1575.5 1821.72 1575.5 1828.9Z" stroke="#B04450" stroke-width="3.4375" stroke-linecap="butt" stroke-linejoin="round" stroke-miterlimit="10" stroke-opacity="1" fill="#B04450" fill-rule="nonzero" fill-opacity="1"/><path d="M1617.5 1824.9C1617.5 1832.08 1611.68 1837.9 1604.5 1837.9 1597.32 1837.9 1591.5 1832.08 1591.5 1824.9 1591.5 1817.72 1597.32 1811.9 1604.5 1811.9 1611.68 1811.9 1617.5 1817.72 1617.5 1824.9Z" stroke="#B04450" stroke-width="3.4375" stroke-linecap="butt" stroke-linejoin="round" stroke-miterlimit="10" stroke-opacity="1" fill="#B04450" fill-rule="nonzero" fill-opacity="1"/><path d="M1660.5 1820.9C1660.5 1828.08 1654.68 1833.9 1647.5 1833.9 1640.32 1833.9 1634.5 1828.08 1634.5 1820.9 1634.5 1813.72 1640.32 1807.9 1647.5 1807.9 1654.68 1807.9 1660.5 1813.72 1660.5 1820.9Z" stroke="#B04450" stroke-width="3.4375" stroke-linecap="butt" stroke-linejoin="round" stroke-miterlimit="10" stroke-opacity="1" fill="#B04450" fill-rule="nonzero" fill-opacity="1"/><path d="M1703.5 1817.9C1703.5 1825.08 1697.68 1830.9 1690.5 1830.9 1683.32 1830.9 1677.5 1825.08 1677.5 1817.9 1677.5 1810.72 1683.32 1804.9 1690.5 1804.9 1697.68 1804.9 1703.5 1810.72 1703.5 1817.9Z" stroke="#B04450" stroke-width="3.4375" stroke-linecap="butt" stroke-linejoin="round" stroke-miterlimit="10" stroke-opacity="1" fill="#B04450" fill-rule="nonzero" fill-opacity="1"/><path d="M1745.5 1815.9C1745.5 1823.08 1739.68 1828.9 1732.5 1828.9 1725.32 1828.9 1719.5 1823.08 1719.5 1815.9 1719.5 1808.72 1725.32 1802.9 1732.5 1802.9 1739.68 1802.9 1745.5 1808.72 1745.5 1815.9Z" stroke="#B04450" stroke-width="3.4375" stroke-linecap="butt" stroke-linejoin="round" stroke-miterlimit="10" stroke-opacity="1" fill="#B04450" fill-rule="nonzero" fill-opacity="1"/><path d="M1788.5 1814.9C1788.5 1822.08 1782.68 1827.9 1775.5 1827.9 1768.32 1827.9 1762.5 1822.08 1762.5 1814.9 1762.5 1807.72 1768.32 1801.9 1775.5 1801.9 1782.68 1801.9 1788.5 1807.72 1788.5 1814.9Z" stroke="#B04450" stroke-width="3.4375" stroke-linecap="butt" stroke-linejoin="round" stroke-miterlimit="10" stroke-opacity="1" fill="#B04450" fill-rule="nonzero" fill-opacity="1"/><path d="M1830.5 1813.9C1830.5 1821.08 1824.68 1826.9 1817.5 1826.9 1810.32 1826.9 1804.5 1821.08 1804.5 1813.9 1804.5 1806.72 1810.32 1800.9 1817.5 1800.9 1824.68 1800.9 1830.5 1806.72 1830.5 1813.9Z" stroke="#B04450" stroke-width="3.4375" stroke-linecap="butt" stroke-linejoin="round" stroke-miterlimit="10" stroke-opacity="1" fill="#B04450" fill-rule="nonzero" fill-opacity="1"/><path d="M1873.5 1813.9C1873.5 1821.08 1867.68 1826.9 1860.5 1826.9 1853.32 1826.9 1847.5 1821.08 1847.5 1813.9 1847.5 1806.72 1853.32 1800.9 1860.5 1800.9 1867.68 1800.9 1873.5 1806.72 1873.5 1813.9Z" stroke="#B04450" stroke-width="3.4375" stroke-linecap="butt" stroke-linejoin="round" stroke-miterlimit="10" stroke-opacity="1" fill="#B04450" fill-rule="nonzero" fill-opacity="1"/><path d="M1915.5 1813.9C1915.5 1821.08 1909.68 1826.9 1902.5 1826.9 1895.32 1826.9 1889.5 1821.08 1889.5 1813.9 1889.5 1806.72 1895.32 1800.9 1902.5 1800.9 1909.68 1800.9 1915.5 1806.72 1915.5 1813.9Z" stroke="#B04450" stroke-width="3.4375" stroke-linecap="butt" stroke-linejoin="round" stroke-miterlimit="10" stroke-opacity="1" fill="#B04450" fill-rule="nonzero" fill-opacity="1"/><path d="M1958.5 1813.9C1958.5 1821.08 1952.68 1826.9 1945.5 1826.9 1938.32 1826.9 1932.5 1821.08 1932.5 1813.9 1932.5 1806.72 1938.32 1800.9 1945.5 1800.9 1952.68 1800.9 1958.5 1806.72 1958.5 1813.9Z" stroke="#B04450" stroke-width="3.4375" stroke-linecap="butt" stroke-linejoin="round" stroke-miterlimit="10" stroke-opacity="1" fill="#B04450" fill-rule="nonzero" fill-opacity="1"/><path d="M2000.5 1814.9C2000.5 1822.08 1994.68 1827.9 1987.5 1827.9 1980.32 1827.9 1974.5 1822.08 1974.5 1814.9 1974.5 1807.72 1980.32 1801.9 1987.5 1801.9 1994.68 1801.9 2000.5 1807.72 2000.5 1814.9Z" stroke="#B04450" stroke-width="3.4375" stroke-linecap="butt" stroke-linejoin="round" stroke-miterlimit="10" stroke-opacity="1" fill="#B04450" fill-rule="nonzero" fill-opacity="1"/><path d="M2043.5 1814.9C2043.5 1822.08 2037.68 1827.9 2030.5 1827.9 2023.32 1827.9 2017.5 1822.08 2017.5 1814.9 2017.5 1807.72 2023.32 1801.9 2030.5 1801.9 2037.68 1801.9 2043.5 1807.72 2043.5 1814.9Z" stroke="#B04450" stroke-width="3.4375" stroke-linecap="butt" stroke-linejoin="round" stroke-miterlimit="10" stroke-opacity="1" fill="#B04450" fill-rule="nonzero" fill-opacity="1"/><path d="M2085.5 1814.9C2085.5 1822.08 2079.68 1827.9 2072.5 1827.9 2065.32 1827.9 2059.5 1822.08 2059.5 1814.9 2059.5 1807.72 2065.32 1801.9 2072.5 1801.9 2079.68 1801.9 2085.5 1807.72 2085.5 1814.9Z" stroke="#B04450" stroke-width="3.4375" stroke-linecap="butt" stroke-linejoin="round" stroke-miterlimit="10" stroke-opacity="1" fill="#B04450" fill-rule="nonzero" fill-opacity="1"/><path d="M2128.5 1815.9C2128.5 1823.08 2122.68 1828.9 2115.5 1828.9 2108.32 1828.9 2102.5 1823.08 2102.5 1815.9 2102.5 1808.72 2108.32 1802.9 2115.5 1802.9 2122.68 1802.9 2128.5 1808.72 2128.5 1815.9Z" stroke="#B04450" stroke-width="3.4375" stroke-linecap="butt" stroke-linejoin="round" stroke-miterlimit="10" stroke-opacity="1" fill="#B04450" fill-rule="nonzero" fill-opacity="1"/><path d="M2170.5 1815.9C2170.5 1823.08 2164.68 1828.9 2157.5 1828.9 2150.32 1828.9 2144.5 1823.08 2144.5 1815.9 2144.5 1808.72 2150.32 1802.9 2157.5 1802.9 2164.68 1802.9 2170.5 1808.72 2170.5 1815.9Z" stroke="#B04450" stroke-width="3.4375" stroke-linecap="butt" stroke-linejoin="round" stroke-miterlimit="10" stroke-opacity="1" fill="#B04450" fill-rule="nonzero" fill-opacity="1"/><path d="M2213.5 1815.9C2213.5 1823.08 2207.68 1828.9 2200.5 1828.9 2193.32 1828.9 2187.5 1823.08 2187.5 1815.9 2187.5 1808.72 2193.32 1802.9 2200.5 1802.9 2207.68 1802.9 2213.5 1808.72 2213.5 1815.9Z" stroke="#B04450" stroke-width="3.4375" stroke-linecap="butt" stroke-linejoin="round" stroke-miterlimit="10" stroke-opacity="1" fill="#B04450" fill-rule="nonzero" fill-opacity="1"/><path d="M2255.5 1816.9C2255.5 1824.08 2249.68 1829.9 2242.5 1829.9 2235.32 1829.9 2229.5 1824.08 2229.5 1816.9 2229.5 1809.72 2235.32 1803.9 2242.5 1803.9 2249.68 1803.9 2255.5 1809.72 2255.5 1816.9Z" stroke="#B04450" stroke-width="3.4375" stroke-linecap="butt" stroke-linejoin="round" stroke-miterlimit="10" stroke-opacity="1" fill="#B04450" fill-rule="nonzero" fill-opacity="1"/><path d="M2298.5 1816.9C2298.5 1824.08 2292.68 1829.9 2285.5 1829.9 2278.32 1829.9 2272.5 1824.08 2272.5 1816.9 2272.5 1809.72 2278.32 1803.9 2285.5 1803.9 2292.68 1803.9 2298.5 1809.72 2298.5 1816.9Z" stroke="#B04450" stroke-width="3.4375" stroke-linecap="butt" stroke-linejoin="round" stroke-miterlimit="10" stroke-opacity="1" fill="#B04450" fill-rule="nonzero" fill-opacity="1"/><path d="M2341.5 1816.9C2341.5 1824.08 2335.68 1829.9 2328.5 1829.9 2321.32 1829.9 2315.5 1824.08 2315.5 1816.9 2315.5 1809.72 2321.32 1803.9 2328.5 1803.9 2335.68 1803.9 2341.5 1809.72 2341.5 1816.9Z" stroke="#B04450" stroke-width="3.4375" stroke-linecap="butt" stroke-linejoin="round" stroke-miterlimit="10" stroke-opacity="1" fill="#B04450" fill-rule="nonzero" fill-opacity="1"/><path d="M2383.5 1816.9C2383.5 1824.08 2377.68 1829.9 2370.5 1829.9 2363.32 1829.9 2357.5 1824.08 2357.5 1816.9 2357.5 1809.72 2363.32 1803.9 2370.5 1803.9 2377.68 1803.9 2383.5 1809.72 2383.5 1816.9Z" stroke="#B04450" stroke-width="3.4375" stroke-linecap="butt" stroke-linejoin="round" stroke-miterlimit="10" stroke-opacity="1" fill="#B04450" fill-rule="nonzero" fill-opacity="1"/><path d="M2426.5 1816.9C2426.5 1824.08 2420.68 1829.9 2413.5 1829.9 2406.32 1829.9 2400.5 1824.08 2400.5 1816.9 2400.5 1809.72 2406.32 1803.9 2413.5 1803.9 2420.68 1803.9 2426.5 1809.72 2426.5 1816.9Z" stroke="#B04450" stroke-width="3.4375" stroke-linecap="butt" stroke-linejoin="round" stroke-miterlimit="10" stroke-opacity="1" fill="#B04450" fill-rule="nonzero" fill-opacity="1"/><path d="M2468.5 1816.9C2468.5 1824.08 2462.68 1829.9 2455.5 1829.9 2448.32 1829.9 2442.5 1824.08 2442.5 1816.9 2442.5 1809.72 2448.32 1803.9 2455.5 1803.9 2462.68 1803.9 2468.5 1809.72 2468.5 1816.9Z" stroke="#B04450" stroke-width="3.4375" stroke-linecap="butt" stroke-linejoin="round" stroke-miterlimit="10" stroke-opacity="1" fill="#B04450" fill-rule="nonzero" fill-opacity="1"/><path d="M2511.5 1816.9C2511.5 1824.08 2505.68 1829.9 2498.5 1829.9 2491.32 1829.9 2485.5 1824.08 2485.5 1816.9 2485.5 1809.72 2491.32 1803.9 2498.5 1803.9 2505.68 1803.9 2511.5 1809.72 2511.5 1816.9Z" stroke="#B04450" stroke-width="3.4375" stroke-linecap="butt" stroke-linejoin="round" stroke-miterlimit="10" stroke-opacity="1" fill="#B04450" fill-rule="nonzero" fill-opacity="1"/><path d="M2553.5 1816.9C2553.5 1824.08 2547.68 1829.9 2540.5 1829.9 2533.32 1829.9 2527.5 1824.08 2527.5 1816.9 2527.5 1809.72 2533.32 1803.9 2540.5 1803.9 2547.68 1803.9 2553.5 1809.72 2553.5 1816.9Z" stroke="#B04450" stroke-width="3.4375" stroke-linecap="butt" stroke-linejoin="round" stroke-miterlimit="10" stroke-opacity="1" fill="#B04450" fill-rule="nonzero" fill-opacity="1"/><path d="M2596.5 1816.9C2596.5 1824.08 2590.68 1829.9 2583.5 1829.9 2576.32 1829.9 2570.5 1824.08 2570.5 1816.9 2570.5 1809.72 2576.32 1803.9 2583.5 1803.9 2590.68 1803.9 2596.5 1809.72 2596.5 1816.9Z" stroke="#B04450" stroke-width="3.4375" stroke-linecap="butt" stroke-linejoin="round" stroke-miterlimit="10" stroke-opacity="1" fill="#B04450" fill-rule="nonzero" fill-opacity="1"/><path d="M2638.5 1816.9C2638.5 1824.08 2632.68 1829.9 2625.5 1829.9 2618.32 1829.9 2612.5 1824.08 2612.5 1816.9 2612.5 1809.72 2618.32 1803.9 2625.5 1803.9 2632.68 1803.9 2638.5 1809.72 2638.5 1816.9Z" stroke="#B04450" stroke-width="3.4375" stroke-linecap="butt" stroke-linejoin="round" stroke-miterlimit="10" stroke-opacity="1" fill="#B04450" fill-rule="nonzero" fill-opacity="1"/><path d="M2681.5 1816.9C2681.5 1824.08 2675.68 1829.9 2668.5 1829.9 2661.32 1829.9 2655.5 1824.08 2655.5 1816.9 2655.5 1809.72 2661.32 1803.9 2668.5 1803.9 2675.68 1803.9 2681.5 1809.72 2681.5 1816.9Z" stroke="#B04450" stroke-width="3.4375" stroke-linecap="butt" stroke-linejoin="round" stroke-miterlimit="10" stroke-opacity="1" fill="#B04450" fill-rule="nonzero" fill-opacity="1"/><path d="M2723.5 1816.9C2723.5 1824.08 2717.68 1829.9 2710.5 1829.9 2703.32 1829.9 2697.5 1824.08 2697.5 1816.9 2697.5 1809.72 2703.32 1803.9 2710.5 1803.9 2717.68 1803.9 2723.5 1809.72 2723.5 1816.9Z" stroke="#B04450" stroke-width="3.4375" stroke-linecap="butt" stroke-linejoin="round" stroke-miterlimit="10" stroke-opacity="1" fill="#B04450" fill-rule="nonzero" fill-opacity="1"/><path d="M2766.5 1816.9C2766.5 1824.08 2760.68 1829.9 2753.5 1829.9 2746.32 1829.9 2740.5 1824.08 2740.5 1816.9 2740.5 1809.72 2746.32 1803.9 2753.5 1803.9 2760.68 1803.9 2766.5 1809.72 2766.5 1816.9Z" stroke="#B04450" stroke-width="3.4375" stroke-linecap="butt" stroke-linejoin="round" stroke-miterlimit="10" stroke-opacity="1" fill="#B04450" fill-rule="nonzero" fill-opacity="1"/><path d="M2808.5 1816.9C2808.5 1824.08 2802.68 1829.9 2795.5 1829.9 2788.32 1829.9 2782.5 1824.08 2782.5 1816.9 2782.5 1809.72 2788.32 1803.9 2795.5 1803.9 2802.68 1803.9 2808.5 1809.72 2808.5 1816.9Z" stroke="#B04450" stroke-width="3.4375" stroke-linecap="butt" stroke-linejoin="round" stroke-miterlimit="10" stroke-opacity="1" fill="#B04450" fill-rule="nonzero" fill-opacity="1"/><path d="M2851.5 1816.9C2851.5 1824.08 2845.68 1829.9 2838.5 1829.9 2831.32 1829.9 2825.5 1824.08 2825.5 1816.9 2825.5 1809.72 2831.32 1803.9 2838.5 1803.9 2845.68 1803.9 2851.5 1809.72 2851.5 1816.9Z" stroke="#B04450" stroke-width="3.4375" stroke-linecap="butt" stroke-linejoin="round" stroke-miterlimit="10" stroke-opacity="1" fill="#B04450" fill-rule="nonzero" fill-opacity="1"/><path d="M2893.5 1816.9C2893.5 1824.08 2887.68 1829.9 2880.5 1829.9 2873.32 1829.9 2867.5 1824.08 2867.5 1816.9 2867.5 1809.72 2873.32 1803.9 2880.5 1803.9 2887.68 1803.9 2893.5 1809.72 2893.5 1816.9Z" stroke="#B04450" stroke-width="3.4375" stroke-linecap="butt" stroke-linejoin="round" stroke-miterlimit="10" stroke-opacity="1" fill="#B04450" fill-rule="nonzero" fill-opacity="1"/><path d="M2936.5 1816.9C2936.5 1824.08 2930.68 1829.9 2923.5 1829.9 2916.32 1829.9 2910.5 1824.08 2910.5 1816.9 2910.5 1809.72 2916.32 1803.9 2923.5 1803.9 2930.68 1803.9 2936.5 1809.72 2936.5 1816.9Z" stroke="#B04450" stroke-width="3.4375" stroke-linecap="butt" stroke-linejoin="round" stroke-miterlimit="10" stroke-opacity="1" fill="#B04450" fill-rule="nonzero" fill-opacity="1"/><path d="M2979.5 1816.9C2979.5 1824.08 2973.68 1829.9 2966.5 1829.9 2959.32 1829.9 2953.5 1824.08 2953.5 1816.9 2953.5 1809.72 2959.32 1803.9 2966.5 1803.9 2973.68 1803.9 2979.5 1809.72 2979.5 1816.9Z" stroke="#B04450" stroke-width="3.4375" stroke-linecap="butt" stroke-linejoin="round" stroke-miterlimit="10" stroke-opacity="1" fill="#B04450" fill-rule="nonzero" fill-opacity="1"/><path d="M3021.5 1816.9C3021.5 1824.08 3015.68 1829.9 3008.5 1829.9 3001.32 1829.9 2995.5 1824.08 2995.5 1816.9 2995.5 1809.72 3001.32 1803.9 3008.5 1803.9 3015.68 1803.9 3021.5 1809.72 3021.5 1816.9Z" stroke="#B04450" stroke-width="3.4375" stroke-linecap="butt" stroke-linejoin="round" stroke-miterlimit="10" stroke-opacity="1" fill="#B04450" fill-rule="nonzero" fill-opacity="1"/><path d="M3064.5 1816.9C3064.5 1824.08 3058.68 1829.9 3051.5 1829.9 3044.32 1829.9 3038.5 1824.08 3038.5 1816.9 3038.5 1809.72 3044.32 1803.9 3051.5 1803.9 3058.68 1803.9 3064.5 1809.72 3064.5 1816.9Z" stroke="#B04450" stroke-width="3.4375" stroke-linecap="butt" stroke-linejoin="round" stroke-miterlimit="10" stroke-opacity="1" fill="#B04450" fill-rule="nonzero" fill-opacity="1"/><path d="M3106.5 1816.9C3106.5 1824.08 3100.68 1829.9 3093.5 1829.9 3086.32 1829.9 3080.5 1824.08 3080.5 1816.9 3080.5 1809.72 3086.32 1803.9 3093.5 1803.9 3100.68 1803.9 3106.5 1809.72 3106.5 1816.9Z" stroke="#B04450" stroke-width="3.4375" stroke-linecap="butt" stroke-linejoin="round" stroke-miterlimit="10" stroke-opacity="1" fill="#B04450" fill-rule="nonzero" fill-opacity="1"/><path d="M3149.5 1816.9C3149.5 1824.08 3143.68 1829.9 3136.5 1829.9 3129.32 1829.9 3123.5 1824.08 3123.5 1816.9 3123.5 1809.72 3129.32 1803.9 3136.5 1803.9 3143.68 1803.9 3149.5 1809.72 3149.5 1816.9Z" stroke="#B04450" stroke-width="3.4375" stroke-linecap="butt" stroke-linejoin="round" stroke-miterlimit="10" stroke-opacity="1" fill="#B04450" fill-rule="nonzero" fill-opacity="1"/><path d="M3191.5 1816.9C3191.5 1824.08 3185.68 1829.9 3178.5 1829.9 3171.32 1829.9 3165.5 1824.08 3165.5 1816.9 3165.5 1809.72 3171.32 1803.9 3178.5 1803.9 3185.68 1803.9 3191.5 1809.72 3191.5 1816.9Z" stroke="#B04450" stroke-width="3.4375" stroke-linecap="butt" stroke-linejoin="round" stroke-miterlimit="10" stroke-opacity="1" fill="#B04450" fill-rule="nonzero" fill-opacity="1"/><path d="M3234.5 1816.9C3234.5 1824.08 3228.68 1829.9 3221.5 1829.9 3214.32 1829.9 3208.5 1824.08 3208.5 1816.9 3208.5 1809.72 3214.32 1803.9 3221.5 1803.9 3228.68 1803.9 3234.5 1809.72 3234.5 1816.9Z" stroke="#B04450" stroke-width="3.4375" stroke-linecap="butt" stroke-linejoin="round" stroke-miterlimit="10" stroke-opacity="1" fill="#B04450" fill-rule="nonzero" fill-opacity="1"/><path d="M3276.5 1816.9C3276.5 1824.08 3270.68 1829.9 3263.5 1829.9 3256.32 1829.9 3250.5 1824.08 3250.5 1816.9 3250.5 1809.72 3256.32 1803.9 3263.5 1803.9 3270.68 1803.9 3276.5 1809.72 3276.5 1816.9Z" stroke="#B04450" stroke-width="3.4375" stroke-linecap="butt" stroke-linejoin="round" stroke-miterlimit="10" stroke-opacity="1" fill="#B04450" fill-rule="nonzero" fill-opacity="1"/><path d="M3319.5 1816.9C3319.5 1824.08 3313.68 1829.9 3306.5 1829.9 3299.32 1829.9 3293.5 1824.08 3293.5 1816.9 3293.5 1809.72 3299.32 1803.9 3306.5 1803.9 3313.68 1803.9 3319.5 1809.72 3319.5 1816.9Z" stroke="#B04450" stroke-width="3.4375" stroke-linecap="butt" stroke-linejoin="round" stroke-miterlimit="10" stroke-opacity="1" fill="#B04450" fill-rule="nonzero" fill-opacity="1"/><path d="M3361.5 1816.9C3361.5 1824.08 3355.68 1829.9 3348.5 1829.9 3341.32 1829.9 3335.5 1824.08 3335.5 1816.9 3335.5 1809.72 3341.32 1803.9 3348.5 1803.9 3355.68 1803.9 3361.5 1809.72 3361.5 1816.9Z" stroke="#B04450" stroke-width="3.4375" stroke-linecap="butt" stroke-linejoin="round" stroke-miterlimit="10" stroke-opacity="1" fill="#B04450" fill-rule="nonzero" fill-opacity="1"/><path d="M3404.5 1816.9C3404.5 1824.08 3398.68 1829.9 3391.5 1829.9 3384.32 1829.9 3378.5 1824.08 3378.5 1816.9 3378.5 1809.72 3384.32 1803.9 3391.5 1803.9 3398.68 1803.9 3404.5 1809.72 3404.5 1816.9Z" stroke="#B04450" stroke-width="3.4375" stroke-linecap="butt" stroke-linejoin="round" stroke-miterlimit="10" stroke-opacity="1" fill="#B04450" fill-rule="nonzero" fill-opacity="1"/><path d="M3446.5 1816.9C3446.5 1824.08 3440.68 1829.9 3433.5 1829.9 3426.32 1829.9 3420.5 1824.08 3420.5 1816.9 3420.5 1809.72 3426.32 1803.9 3433.5 1803.9 3440.68 1803.9 3446.5 1809.72 3446.5 1816.9Z" stroke="#B04450" stroke-width="3.4375" stroke-linecap="butt" stroke-linejoin="round" stroke-miterlimit="10" stroke-opacity="1" fill="#B04450" fill-rule="nonzero" fill-opacity="1"/><path d="M3489.5 1816.9C3489.5 1824.08 3483.68 1829.9 3476.5 1829.9 3469.32 1829.9 3463.5 1824.08 3463.5 1816.9 3463.5 1809.72 3469.32 1803.9 3476.5 1803.9 3483.68 1803.9 3489.5 1809.72 3489.5 1816.9Z" stroke="#B04450" stroke-width="3.4375" stroke-linecap="butt" stroke-linejoin="round" stroke-miterlimit="10" stroke-opacity="1" fill="#B04450" fill-rule="nonzero" fill-opacity="1"/><path d="M3531.5 1816.9C3531.5 1824.08 3525.68 1829.9 3518.5 1829.9 3511.32 1829.9 3505.5 1824.08 3505.5 1816.9 3505.5 1809.72 3511.32 1803.9 3518.5 1803.9 3525.68 1803.9 3531.5 1809.72 3531.5 1816.9Z" stroke="#B04450" stroke-width="3.4375" stroke-linecap="butt" stroke-linejoin="round" stroke-miterlimit="10" stroke-opacity="1" fill="#B04450" fill-rule="nonzero" fill-opacity="1"/><path d="M3574.5 1816.9C3574.5 1824.08 3568.68 1829.9 3561.5 1829.9 3554.32 1829.9 3548.5 1824.08 3548.5 1816.9 3548.5 1809.72 3554.32 1803.9 3561.5 1803.9 3568.68 1803.9 3574.5 1809.72 3574.5 1816.9Z" stroke="#B04450" stroke-width="3.4375" stroke-linecap="butt" stroke-linejoin="round" stroke-miterlimit="10" stroke-opacity="1" fill="#B04450" fill-rule="nonzero" fill-opacity="1"/><path d="M3617.5 1816.9C3617.5 1824.08 3611.68 1829.9 3604.5 1829.9 3597.32 1829.9 3591.5 1824.08 3591.5 1816.9 3591.5 1809.72 3597.32 1803.9 3604.5 1803.9 3611.68 1803.9 3617.5 1809.72 3617.5 1816.9Z" stroke="#B04450" stroke-width="3.4375" stroke-linecap="butt" stroke-linejoin="round" stroke-miterlimit="10" stroke-opacity="1" fill="#B04450" fill-rule="nonzero" fill-opacity="1"/><path d="M3659.5 1816.9C3659.5 1824.08 3653.68 1829.9 3646.5 1829.9 3639.32 1829.9 3633.5 1824.08 3633.5 1816.9 3633.5 1809.72 3639.32 1803.9 3646.5 1803.9 3653.68 1803.9 3659.5 1809.72 3659.5 1816.9Z" stroke="#B04450" stroke-width="3.4375" stroke-linecap="butt" stroke-linejoin="round" stroke-miterlimit="10" stroke-opacity="1" fill="#B04450" fill-rule="nonzero" fill-opacity="1"/><path d="M3702.5 1816.9C3702.5 1824.08 3696.68 1829.9 3689.5 1829.9 3682.32 1829.9 3676.5 1824.08 3676.5 1816.9 3676.5 1809.72 3682.32 1803.9 3689.5 1803.9 3696.68 1803.9 3702.5 1809.72 3702.5 1816.9Z" stroke="#B04450" stroke-width="3.4375" stroke-linecap="butt" stroke-linejoin="round" stroke-miterlimit="10" stroke-opacity="1" fill="#B04450" fill-rule="nonzero" fill-opacity="1"/><path d="M3744.5 1816.9C3744.5 1824.08 3738.68 1829.9 3731.5 1829.9 3724.32 1829.9 3718.5 1824.08 3718.5 1816.9 3718.5 1809.72 3724.32 1803.9 3731.5 1803.9 3738.68 1803.9 3744.5 1809.72 3744.5 1816.9Z" stroke="#B04450" stroke-width="3.4375" stroke-linecap="butt" stroke-linejoin="round" stroke-miterlimit="10" stroke-opacity="1" fill="#B04450" fill-rule="nonzero" fill-opacity="1"/><path d="M3787.5 1816.9C3787.5 1824.08 3781.68 1829.9 3774.5 1829.9 3767.32 1829.9 3761.5 1824.08 3761.5 1816.9 3761.5 1809.72 3767.32 1803.9 3774.5 1803.9 3781.68 1803.9 3787.5 1809.72 3787.5 1816.9Z" stroke="#B04450" stroke-width="3.4375" stroke-linecap="butt" stroke-linejoin="round" stroke-miterlimit="10" stroke-opacity="1" fill="#B04450" fill-rule="nonzero" fill-opacity="1"/><path d="M3829.5 1816.9C3829.5 1824.08 3823.68 1829.9 3816.5 1829.9 3809.32 1829.9 3803.5 1824.08 3803.5 1816.9 3803.5 1809.72 3809.32 1803.9 3816.5 1803.9 3823.68 1803.9 3829.5 1809.72 3829.5 1816.9Z" stroke="#B04450" stroke-width="3.4375" stroke-linecap="butt" stroke-linejoin="round" stroke-miterlimit="10" stroke-opacity="1" fill="#B04450" fill-rule="nonzero" fill-opacity="1"/><path d="M3872.5 1816.9C3872.5 1824.08 3866.68 1829.9 3859.5 1829.9 3852.32 1829.9 3846.5 1824.08 3846.5 1816.9 3846.5 1809.72 3852.32 1803.9 3859.5 1803.9 3866.68 1803.9 3872.5 1809.72 3872.5 1816.9Z" stroke="#B04450" stroke-width="3.4375" stroke-linecap="butt" stroke-linejoin="round" stroke-miterlimit="10" stroke-opacity="1" fill="#B04450" fill-rule="nonzero" fill-opacity="1"/><path d="M3914.5 1816.9C3914.5 1824.08 3908.68 1829.9 3901.5 1829.9 3894.32 1829.9 3888.5 1824.08 3888.5 1816.9 3888.5 1809.72 3894.32 1803.9 3901.5 1803.9 3908.68 1803.9 3914.5 1809.72 3914.5 1816.9Z" stroke="#B04450" stroke-width="3.4375" stroke-linecap="butt" stroke-linejoin="round" stroke-miterlimit="10" stroke-opacity="1" fill="#B04450" fill-rule="nonzero" fill-opacity="1"/><path d="M3957.5 1816.9C3957.5 1824.08 3951.68 1829.9 3944.5 1829.9 3937.32 1829.9 3931.5 1824.08 3931.5 1816.9 3931.5 1809.72 3937.32 1803.9 3944.5 1803.9 3951.68 1803.9 3957.5 1809.72 3957.5 1816.9Z" stroke="#B04450" stroke-width="3.4375" stroke-linecap="butt" stroke-linejoin="round" stroke-miterlimit="10" stroke-opacity="1" fill="#B04450" fill-rule="nonzero" fill-opacity="1"/></g><g><path d="M543 307 585.019 352.012 628.021 464.015 670.022 616.02 713.023 787.026 755.025 960.031 798.026 1126.04 840.028 1278.04 883.029 1411.05 925.03 1524.05 968.032 1618.05 1011.03 1693.06 1053.03 1751.06 1096.04 1794.06 1138.04 1824.06 1181.04 1845.06 1223.04 1857.06 1266.04 1863.06 1308.04 1865 1351.04 1864.06 1393.05 1860.06 1436.05 1855.06 1478.05 1850.06 1521.05 1844.06 1563.05 1839.06 1606.05 1834.06 1648.05 1830.06 1691.06 1827.06 1734.06 1824.06 1776.06 1821.06 1819.06 1820.06 1861.06 1818.06 1904.06 1817.06 1946.06 1817.06 1989.07 1816.06 2031.07 1816.06 2074.07 1816.06 2116.07 1816.06 2159.07 1816.06 2201.07 1816.06 2244.07 1817.06 2286.07 1817.06 2329.08 1817.06 2372.08 1817.06 2414.08 1817.06 2457.08 1817.06 2499.08 1817.06 2542.08 1817.06 2584.08 1818.06 2627.09 1818.06 2669.09 1818.06 2712.09 1818.06 2754.09 1818.06 2797.09 1818.06 2839.09 1818.06 2882.09 1818.06 2924.1 1818.06 2967.1 1818.06 3010.1 1818.06 3052.1 1818.06 3095.1 1818.06 3137.1 1818.06 3180.1 1818.06 3222.11 1818.06 3265.11 1818.06 3307.11 1818.06 3350.11 1818.06 3392.11 1818.06 3435.11 1818.06 3477.11 1818.06 3520.12 1818.06 3562.12 1818.06 3605.12 1818.06 3647.12 1818.06 3690.12 1818.06 3733.12 1818.06 3775.12 1818.06 3818.13 1818.06 3860.13 1818.06 3903.13 1818.06 3945 1818.06" stroke="#173B63" stroke-width="13.75" stroke-linecap="butt" stroke-linejoin="round" stroke-miterlimit="10" stroke-opacity="1" fill="none" fill-rule="nonzero"/></g><g><path d="M554.5 306.9C554.5 314.08 548.679 319.9 541.5 319.9 534.32 319.9 528.5 314.08 528.5 306.9 528.5 299.72 534.32 293.9 541.5 293.9 548.679 293.9 554.5 299.72 554.5 306.9Z" stroke="#173B63" stroke-width="3.4375" stroke-linecap="butt" stroke-linejoin="round" stroke-miterlimit="10" stroke-opacity="1" fill="#173B63" fill-rule="nonzero" fill-opacity="1"/><path d="M597.5 351.9C597.5 359.08 591.679 364.9 584.5 364.9 577.32 364.9 571.5 359.08 571.5 351.9 571.5 344.721 577.32 338.9 584.5 338.9 591.679 338.9 597.5 344.721 597.5 351.9Z" stroke="#173B63" stroke-width="3.4375" stroke-linecap="butt" stroke-linejoin="round" stroke-miterlimit="10" stroke-opacity="1" fill="#173B63" fill-rule="nonzero" fill-opacity="1"/><path d="M639.5 463.9C639.5 471.079 633.68 476.899 626.5 476.899 619.321 476.899 613.5 471.079 613.5 463.9 613.5 456.72 619.321 450.9 626.5 450.9 633.68 450.9 639.5 456.72 639.5 463.9Z" stroke="#173B63" stroke-width="3.4375" stroke-linecap="butt" stroke-linejoin="round" stroke-miterlimit="10" stroke-opacity="1" fill="#173B63" fill-rule="nonzero" fill-opacity="1"/><path d="M682.5 615.9C682.5 623.08 676.68 628.9 669.5 628.9 662.321 628.9 656.5 623.08 656.5 615.9 656.5 608.721 662.321 602.9 669.5 602.9 676.68 602.9 682.5 608.721 682.5 615.9Z" stroke="#173B63" stroke-width="3.4375" stroke-linecap="butt" stroke-linejoin="round" stroke-miterlimit="10" stroke-opacity="1" fill="#173B63" fill-rule="nonzero" fill-opacity="1"/><path d="M724.5 785.9C724.5 793.079 718.68 798.9 711.5 798.9 704.321 798.9 698.5 793.079 698.5 785.9 698.5 778.72 704.321 772.9 711.5 772.9 718.68 772.9 724.5 778.72 724.5 785.9Z" stroke="#173B63" stroke-width="3.4375" stroke-linecap="butt" stroke-linejoin="round" stroke-miterlimit="10" stroke-opacity="1" fill="#173B63" fill-rule="nonzero" fill-opacity="1"/><path d="M767.5 959.9C767.5 967.079 761.68 972.899 754.5 972.899 747.32 972.899 741.5 967.079 741.5 959.9 741.5 952.72 747.32 946.9 754.5 946.9 761.68 946.9 767.5 952.72 767.5 959.9Z" stroke="#173B63" stroke-width="3.4375" stroke-linecap="butt" stroke-linejoin="round" stroke-miterlimit="10" stroke-opacity="1" fill="#173B63" fill-rule="nonzero" fill-opacity="1"/><path d="M809.5 1125.9C809.5 1133.08 803.68 1138.9 796.5 1138.9 789.32 1138.9 783.5 1133.08 783.5 1125.9 783.5 1118.72 789.32 1112.9 796.5 1112.9 803.68 1112.9 809.5 1118.72 809.5 1125.9Z" stroke="#173B63" stroke-width="3.4375" stroke-linecap="butt" stroke-linejoin="round" stroke-miterlimit="10" stroke-opacity="1" fill="#173B63" fill-rule="nonzero" fill-opacity="1"/><path d="M852.5 1276.9C852.5 1284.08 846.68 1289.9 839.5 1289.9 832.32 1289.9 826.5 1284.08 826.5 1276.9 826.5 1269.72 832.32 1263.9 839.5 1263.9 846.68 1263.9 852.5 1269.72 852.5 1276.9Z" stroke="#173B63" stroke-width="3.4375" stroke-linecap="butt" stroke-linejoin="round" stroke-miterlimit="10" stroke-opacity="1" fill="#173B63" fill-rule="nonzero" fill-opacity="1"/><path d="M894.5 1410.9C894.5 1418.08 888.679 1423.9 881.5 1423.9 874.32 1423.9 868.5 1418.08 868.5 1410.9 868.5 1403.72 874.32 1397.9 881.5 1397.9 888.679 1397.9 894.5 1403.72 894.5 1410.9Z" stroke="#173B63" stroke-width="3.4375" stroke-linecap="butt" stroke-linejoin="round" stroke-miterlimit="10" stroke-opacity="1" fill="#173B63" fill-rule="nonzero" fill-opacity="1"/><path d="M937.5 1523.9C937.5 1531.08 931.679 1536.9 924.5 1536.9 917.32 1536.9 911.5 1531.08 911.5 1523.9 911.5 1516.72 917.32 1510.9 924.5 1510.9 931.679 1510.9 937.5 1516.72 937.5 1523.9Z" stroke="#173B63" stroke-width="3.4375" stroke-linecap="butt" stroke-linejoin="round" stroke-miterlimit="10" stroke-opacity="1" fill="#173B63" fill-rule="nonzero" fill-opacity="1"/><path d="M979.5 1616.9C979.5 1624.08 973.68 1629.9 966.5 1629.9 959.321 1629.9 953.5 1624.08 953.5 1616.9 953.5 1609.72 959.321 1603.9 966.5 1603.9 973.68 1603.9 979.5 1609.72 979.5 1616.9Z" stroke="#173B63" stroke-width="3.4375" stroke-linecap="butt" stroke-linejoin="round" stroke-miterlimit="10" stroke-opacity="1" fill="#173B63" fill-rule="nonzero" fill-opacity="1"/><path d="M1022.5 1691.9C1022.5 1699.08 1016.68 1704.9 1009.5 1704.9 1002.32 1704.9 996.5 1699.08 996.5 1691.9 996.5 1684.72 1002.32 1678.9 1009.5 1678.9 1016.68 1678.9 1022.5 1684.72 1022.5 1691.9Z" stroke="#173B63" stroke-width="3.4375" stroke-linecap="butt" stroke-linejoin="round" stroke-miterlimit="10" stroke-opacity="1" fill="#173B63" fill-rule="nonzero" fill-opacity="1"/><path d="M1065.5 1749.9C1065.5 1757.08 1059.68 1762.9 1052.5 1762.9 1045.32 1762.9 1039.5 1757.08 1039.5 1749.9 1039.5 1742.72 1045.32 1736.9 1052.5 1736.9 1059.68 1736.9 1065.5 1742.72 1065.5 1749.9Z" stroke="#173B63" stroke-width="3.4375" stroke-linecap="butt" stroke-linejoin="round" stroke-miterlimit="10" stroke-opacity="1" fill="#173B63" fill-rule="nonzero" fill-opacity="1"/><path d="M1107.5 1792.9C1107.5 1800.08 1101.68 1805.9 1094.5 1805.9 1087.32 1805.9 1081.5 1800.08 1081.5 1792.9 1081.5 1785.72 1087.32 1779.9 1094.5 1779.9 1101.68 1779.9 1107.5 1785.72 1107.5 1792.9Z" stroke="#173B63" stroke-width="3.4375" stroke-linecap="butt" stroke-linejoin="round" stroke-miterlimit="10" stroke-opacity="1" fill="#173B63" fill-rule="nonzero" fill-opacity="1"/><path d="M1150.5 1823.9C1150.5 1831.08 1144.68 1836.9 1137.5 1836.9 1130.32 1836.9 1124.5 1831.08 1124.5 1823.9 1124.5 1816.72 1130.32 1810.9 1137.5 1810.9 1144.68 1810.9 1150.5 1816.72 1150.5 1823.9Z" stroke="#173B63" stroke-width="3.4375" stroke-linecap="butt" stroke-linejoin="round" stroke-miterlimit="10" stroke-opacity="1" fill="#173B63" fill-rule="nonzero" fill-opacity="1"/><path d="M1192.5 1843.9C1192.5 1851.08 1186.68 1856.9 1179.5 1856.9 1172.32 1856.9 1166.5 1851.08 1166.5 1843.9 1166.5 1836.72 1172.32 1830.9 1179.5 1830.9 1186.68 1830.9 1192.5 1836.72 1192.5 1843.9Z" stroke="#173B63" stroke-width="3.4375" stroke-linecap="butt" stroke-linejoin="round" stroke-miterlimit="10" stroke-opacity="1" fill="#173B63" fill-rule="nonzero" fill-opacity="1"/><path d="M1235.5 1856.9C1235.5 1864.08 1229.68 1869.9 1222.5 1869.9 1215.32 1869.9 1209.5 1864.08 1209.5 1856.9 1209.5 1849.72 1215.32 1843.9 1222.5 1843.9 1229.68 1843.9 1235.5 1849.72 1235.5 1856.9Z" stroke="#173B63" stroke-width="3.4375" stroke-linecap="butt" stroke-linejoin="round" stroke-miterlimit="10" stroke-opacity="1" fill="#173B63" fill-rule="nonzero" fill-opacity="1"/><path d="M1277.5 1862.9C1277.5 1870.08 1271.68 1875.9 1264.5 1875.9 1257.32 1875.9 1251.5 1870.08 1251.5 1862.9 1251.5 1855.72 1257.32 1849.9 1264.5 1849.9 1271.68 1849.9 1277.5 1855.72 1277.5 1862.9Z" stroke="#173B63" stroke-width="3.4375" stroke-linecap="butt" stroke-linejoin="round" stroke-miterlimit="10" stroke-opacity="1" fill="#173B63" fill-rule="nonzero" fill-opacity="1"/><path d="M1320.5 1864.9C1320.5 1872.08 1314.68 1877.9 1307.5 1877.9 1300.32 1877.9 1294.5 1872.08 1294.5 1864.9 1294.5 1857.72 1300.32 1851.9 1307.5 1851.9 1314.68 1851.9 1320.5 1857.72 1320.5 1864.9Z" stroke="#173B63" stroke-width="3.4375" stroke-linecap="butt" stroke-linejoin="round" stroke-miterlimit="10" stroke-opacity="1" fill="#173B63" fill-rule="nonzero" fill-opacity="1"/><path d="M1362.5 1862.9C1362.5 1870.08 1356.68 1875.9 1349.5 1875.9 1342.32 1875.9 1336.5 1870.08 1336.5 1862.9 1336.5 1855.72 1342.32 1849.9 1349.5 1849.9 1356.68 1849.9 1362.5 1855.72 1362.5 1862.9Z" stroke="#173B63" stroke-width="3.4375" stroke-linecap="butt" stroke-linejoin="round" stroke-miterlimit="10" stroke-opacity="1" fill="#173B63" fill-rule="nonzero" fill-opacity="1"/><path d="M1405.5 1859.9C1405.5 1867.08 1399.68 1872.9 1392.5 1872.9 1385.32 1872.9 1379.5 1867.08 1379.5 1859.9 1379.5 1852.72 1385.32 1846.9 1392.5 1846.9 1399.68 1846.9 1405.5 1852.72 1405.5 1859.9Z" stroke="#173B63" stroke-width="3.4375" stroke-linecap="butt" stroke-linejoin="round" stroke-miterlimit="10" stroke-opacity="1" fill="#173B63" fill-rule="nonzero" fill-opacity="1"/><path d="M1447.5 1854.9C1447.5 1862.08 1441.68 1867.9 1434.5 1867.9 1427.32 1867.9 1421.5 1862.08 1421.5 1854.9 1421.5 1847.72 1427.32 1841.9 1434.5 1841.9 1441.68 1841.9 1447.5 1847.72 1447.5 1854.9Z" stroke="#173B63" stroke-width="3.4375" stroke-linecap="butt" stroke-linejoin="round" stroke-miterlimit="10" stroke-opacity="1" fill="#173B63" fill-rule="nonzero" fill-opacity="1"/><path d="M1490.5 1848.9C1490.5 1856.08 1484.68 1861.9 1477.5 1861.9 1470.32 1861.9 1464.5 1856.08 1464.5 1848.9 1464.5 1841.72 1470.32 1835.9 1477.5 1835.9 1484.68 1835.9 1490.5 1841.72 1490.5 1848.9Z" stroke="#173B63" stroke-width="3.4375" stroke-linecap="butt" stroke-linejoin="round" stroke-miterlimit="10" stroke-opacity="1" fill="#173B63" fill-rule="nonzero" fill-opacity="1"/><path d="M1532.5 1843.9C1532.5 1851.08 1526.68 1856.9 1519.5 1856.9 1512.32 1856.9 1506.5 1851.08 1506.5 1843.9 1506.5 1836.72 1512.32 1830.9 1519.5 1830.9 1526.68 1830.9 1532.5 1836.72 1532.5 1843.9Z" stroke="#173B63" stroke-width="3.4375" stroke-linecap="butt" stroke-linejoin="round" stroke-miterlimit="10" stroke-opacity="1" fill="#173B63" fill-rule="nonzero" fill-opacity="1"/><path d="M1575.5 1838.9C1575.5 1846.08 1569.68 1851.9 1562.5 1851.9 1555.32 1851.9 1549.5 1846.08 1549.5 1838.9 1549.5 1831.72 1555.32 1825.9 1562.5 1825.9 1569.68 1825.9 1575.5 1831.72 1575.5 1838.9Z" stroke="#173B63" stroke-width="3.4375" stroke-linecap="butt" stroke-linejoin="round" stroke-miterlimit="10" stroke-opacity="1" fill="#173B63" fill-rule="nonzero" fill-opacity="1"/><path d="M1617.5 1833.9C1617.5 1841.08 1611.68 1846.9 1604.5 1846.9 1597.32 1846.9 1591.5 1841.08 1591.5 1833.9 1591.5 1826.72 1597.32 1820.9 1604.5 1820.9 1611.68 1820.9 1617.5 1826.72 1617.5 1833.9Z" stroke="#173B63" stroke-width="3.4375" stroke-linecap="butt" stroke-linejoin="round" stroke-miterlimit="10" stroke-opacity="1" fill="#173B63" fill-rule="nonzero" fill-opacity="1"/><path d="M1660.5 1829.9C1660.5 1837.08 1654.68 1842.9 1647.5 1842.9 1640.32 1842.9 1634.5 1837.08 1634.5 1829.9 1634.5 1822.72 1640.32 1816.9 1647.5 1816.9 1654.68 1816.9 1660.5 1822.72 1660.5 1829.9Z" stroke="#173B63" stroke-width="3.4375" stroke-linecap="butt" stroke-linejoin="round" stroke-miterlimit="10" stroke-opacity="1" fill="#173B63" fill-rule="nonzero" fill-opacity="1"/><path d="M1703.5 1825.9C1703.5 1833.08 1697.68 1838.9 1690.5 1838.9 1683.32 1838.9 1677.5 1833.08 1677.5 1825.9 1677.5 1818.72 1683.32 1812.9 1690.5 1812.9 1697.68 1812.9 1703.5 1818.72 1703.5 1825.9Z" stroke="#173B63" stroke-width="3.4375" stroke-linecap="butt" stroke-linejoin="round" stroke-miterlimit="10" stroke-opacity="1" fill="#173B63" fill-rule="nonzero" fill-opacity="1"/><path d="M1745.5 1822.9C1745.5 1830.08 1739.68 1835.9 1732.5 1835.9 1725.32 1835.9 1719.5 1830.08 1719.5 1822.9 1719.5 1815.72 1725.32 1809.9 1732.5 1809.9 1739.68 1809.9 1745.5 1815.72 1745.5 1822.9Z" stroke="#173B63" stroke-width="3.4375" stroke-linecap="butt" stroke-linejoin="round" stroke-miterlimit="10" stroke-opacity="1" fill="#173B63" fill-rule="nonzero" fill-opacity="1"/><path d="M1788.5 1820.9C1788.5 1828.08 1782.68 1833.9 1775.5 1833.9 1768.32 1833.9 1762.5 1828.08 1762.5 1820.9 1762.5 1813.72 1768.32 1807.9 1775.5 1807.9 1782.68 1807.9 1788.5 1813.72 1788.5 1820.9Z" stroke="#173B63" stroke-width="3.4375" stroke-linecap="butt" stroke-linejoin="round" stroke-miterlimit="10" stroke-opacity="1" fill="#173B63" fill-rule="nonzero" fill-opacity="1"/><path d="M1830.5 1818.9C1830.5 1826.08 1824.68 1831.9 1817.5 1831.9 1810.32 1831.9 1804.5 1826.08 1804.5 1818.9 1804.5 1811.72 1810.32 1805.9 1817.5 1805.9 1824.68 1805.9 1830.5 1811.72 1830.5 1818.9Z" stroke="#173B63" stroke-width="3.4375" stroke-linecap="butt" stroke-linejoin="round" stroke-miterlimit="10" stroke-opacity="1" fill="#173B63" fill-rule="nonzero" fill-opacity="1"/><path d="M1873.5 1817.9C1873.5 1825.08 1867.68 1830.9 1860.5 1830.9 1853.32 1830.9 1847.5 1825.08 1847.5 1817.9 1847.5 1810.72 1853.32 1804.9 1860.5 1804.9 1867.68 1804.9 1873.5 1810.72 1873.5 1817.9Z" stroke="#173B63" stroke-width="3.4375" stroke-linecap="butt" stroke-linejoin="round" stroke-miterlimit="10" stroke-opacity="1" fill="#173B63" fill-rule="nonzero" fill-opacity="1"/><path d="M1915.5 1816.9C1915.5 1824.08 1909.68 1829.9 1902.5 1829.9 1895.32 1829.9 1889.5 1824.08 1889.5 1816.9 1889.5 1809.72 1895.32 1803.9 1902.5 1803.9 1909.68 1803.9 1915.5 1809.72 1915.5 1816.9Z" stroke="#173B63" stroke-width="3.4375" stroke-linecap="butt" stroke-linejoin="round" stroke-miterlimit="10" stroke-opacity="1" fill="#173B63" fill-rule="nonzero" fill-opacity="1"/><path d="M1958.5 1815.9C1958.5 1823.08 1952.68 1828.9 1945.5 1828.9 1938.32 1828.9 1932.5 1823.08 1932.5 1815.9 1932.5 1808.72 1938.32 1802.9 1945.5 1802.9 1952.68 1802.9 1958.5 1808.72 1958.5 1815.9Z" stroke="#173B63" stroke-width="3.4375" stroke-linecap="butt" stroke-linejoin="round" stroke-miterlimit="10" stroke-opacity="1" fill="#173B63" fill-rule="nonzero" fill-opacity="1"/><path d="M2000.5 1815.9C2000.5 1823.08 1994.68 1828.9 1987.5 1828.9 1980.32 1828.9 1974.5 1823.08 1974.5 1815.9 1974.5 1808.72 1980.32 1802.9 1987.5 1802.9 1994.68 1802.9 2000.5 1808.72 2000.5 1815.9Z" stroke="#173B63" stroke-width="3.4375" stroke-linecap="butt" stroke-linejoin="round" stroke-miterlimit="10" stroke-opacity="1" fill="#173B63" fill-rule="nonzero" fill-opacity="1"/><path d="M2043.5 1815.9C2043.5 1823.08 2037.68 1828.9 2030.5 1828.9 2023.32 1828.9 2017.5 1823.08 2017.5 1815.9 2017.5 1808.72 2023.32 1802.9 2030.5 1802.9 2037.68 1802.9 2043.5 1808.72 2043.5 1815.9Z" stroke="#173B63" stroke-width="3.4375" stroke-linecap="butt" stroke-linejoin="round" stroke-miterlimit="10" stroke-opacity="1" fill="#173B63" fill-rule="nonzero" fill-opacity="1"/><path d="M2085.5 1815.9C2085.5 1823.08 2079.68 1828.9 2072.5 1828.9 2065.32 1828.9 2059.5 1823.08 2059.5 1815.9 2059.5 1808.72 2065.32 1802.9 2072.5 1802.9 2079.68 1802.9 2085.5 1808.72 2085.5 1815.9Z" stroke="#173B63" stroke-width="3.4375" stroke-linecap="butt" stroke-linejoin="round" stroke-miterlimit="10" stroke-opacity="1" fill="#173B63" fill-rule="nonzero" fill-opacity="1"/><path d="M2128.5 1815.9C2128.5 1823.08 2122.68 1828.9 2115.5 1828.9 2108.32 1828.9 2102.5 1823.08 2102.5 1815.9 2102.5 1808.72 2108.32 1802.9 2115.5 1802.9 2122.68 1802.9 2128.5 1808.72 2128.5 1815.9Z" stroke="#173B63" stroke-width="3.4375" stroke-linecap="butt" stroke-linejoin="round" stroke-miterlimit="10" stroke-opacity="1" fill="#173B63" fill-rule="nonzero" fill-opacity="1"/><path d="M2170.5 1815.9C2170.5 1823.08 2164.68 1828.9 2157.5 1828.9 2150.32 1828.9 2144.5 1823.08 2144.5 1815.9 2144.5 1808.72 2150.32 1802.9 2157.5 1802.9 2164.68 1802.9 2170.5 1808.72 2170.5 1815.9Z" stroke="#173B63" stroke-width="3.4375" stroke-linecap="butt" stroke-linejoin="round" stroke-miterlimit="10" stroke-opacity="1" fill="#173B63" fill-rule="nonzero" fill-opacity="1"/><path d="M2213.5 1815.9C2213.5 1823.08 2207.68 1828.9 2200.5 1828.9 2193.32 1828.9 2187.5 1823.08 2187.5 1815.9 2187.5 1808.72 2193.32 1802.9 2200.5 1802.9 2207.68 1802.9 2213.5 1808.72 2213.5 1815.9Z" stroke="#173B63" stroke-width="3.4375" stroke-linecap="butt" stroke-linejoin="round" stroke-miterlimit="10" stroke-opacity="1" fill="#173B63" fill-rule="nonzero" fill-opacity="1"/><path d="M2255.5 1815.9C2255.5 1823.08 2249.68 1828.9 2242.5 1828.9 2235.32 1828.9 2229.5 1823.08 2229.5 1815.9 2229.5 1808.72 2235.32 1802.9 2242.5 1802.9 2249.68 1802.9 2255.5 1808.72 2255.5 1815.9Z" stroke="#173B63" stroke-width="3.4375" stroke-linecap="butt" stroke-linejoin="round" stroke-miterlimit="10" stroke-opacity="1" fill="#173B63" fill-rule="nonzero" fill-opacity="1"/><path d="M2298.5 1815.9C2298.5 1823.08 2292.68 1828.9 2285.5 1828.9 2278.32 1828.9 2272.5 1823.08 2272.5 1815.9 2272.5 1808.72 2278.32 1802.9 2285.5 1802.9 2292.68 1802.9 2298.5 1808.72 2298.5 1815.9Z" stroke="#173B63" stroke-width="3.4375" stroke-linecap="butt" stroke-linejoin="round" stroke-miterlimit="10" stroke-opacity="1" fill="#173B63" fill-rule="nonzero" fill-opacity="1"/><path d="M2341.5 1816.9C2341.5 1824.08 2335.68 1829.9 2328.5 1829.9 2321.32 1829.9 2315.5 1824.08 2315.5 1816.9 2315.5 1809.72 2321.32 1803.9 2328.5 1803.9 2335.68 1803.9 2341.5 1809.72 2341.5 1816.9Z" stroke="#173B63" stroke-width="3.4375" stroke-linecap="butt" stroke-linejoin="round" stroke-miterlimit="10" stroke-opacity="1" fill="#173B63" fill-rule="nonzero" fill-opacity="1"/><path d="M2383.5 1816.9C2383.5 1824.08 2377.68 1829.9 2370.5 1829.9 2363.32 1829.9 2357.5 1824.08 2357.5 1816.9 2357.5 1809.72 2363.32 1803.9 2370.5 1803.9 2377.68 1803.9 2383.5 1809.72 2383.5 1816.9Z" stroke="#173B63" stroke-width="3.4375" stroke-linecap="butt" stroke-linejoin="round" stroke-miterlimit="10" stroke-opacity="1" fill="#173B63" fill-rule="nonzero" fill-opacity="1"/><path d="M2426.5 1816.9C2426.5 1824.08 2420.68 1829.9 2413.5 1829.9 2406.32 1829.9 2400.5 1824.08 2400.5 1816.9 2400.5 1809.72 2406.32 1803.9 2413.5 1803.9 2420.68 1803.9 2426.5 1809.72 2426.5 1816.9Z" stroke="#173B63" stroke-width="3.4375" stroke-linecap="butt" stroke-linejoin="round" stroke-miterlimit="10" stroke-opacity="1" fill="#173B63" fill-rule="nonzero" fill-opacity="1"/><path d="M2468.5 1816.9C2468.5 1824.08 2462.68 1829.9 2455.5 1829.9 2448.32 1829.9 2442.5 1824.08 2442.5 1816.9 2442.5 1809.72 2448.32 1803.9 2455.5 1803.9 2462.68 1803.9 2468.5 1809.72 2468.5 1816.9Z" stroke="#173B63" stroke-width="3.4375" stroke-linecap="butt" stroke-linejoin="round" stroke-miterlimit="10" stroke-opacity="1" fill="#173B63" fill-rule="nonzero" fill-opacity="1"/><path d="M2511.5 1816.9C2511.5 1824.08 2505.68 1829.9 2498.5 1829.9 2491.32 1829.9 2485.5 1824.08 2485.5 1816.9 2485.5 1809.72 2491.32 1803.9 2498.5 1803.9 2505.68 1803.9 2511.5 1809.72 2511.5 1816.9Z" stroke="#173B63" stroke-width="3.4375" stroke-linecap="butt" stroke-linejoin="round" stroke-miterlimit="10" stroke-opacity="1" fill="#173B63" fill-rule="nonzero" fill-opacity="1"/><path d="M2553.5 1816.9C2553.5 1824.08 2547.68 1829.9 2540.5 1829.9 2533.32 1829.9 2527.5 1824.08 2527.5 1816.9 2527.5 1809.72 2533.32 1803.9 2540.5 1803.9 2547.68 1803.9 2553.5 1809.72 2553.5 1816.9Z" stroke="#173B63" stroke-width="3.4375" stroke-linecap="butt" stroke-linejoin="round" stroke-miterlimit="10" stroke-opacity="1" fill="#173B63" fill-rule="nonzero" fill-opacity="1"/><path d="M2596.5 1816.9C2596.5 1824.08 2590.68 1829.9 2583.5 1829.9 2576.32 1829.9 2570.5 1824.08 2570.5 1816.9 2570.5 1809.72 2576.32 1803.9 2583.5 1803.9 2590.68 1803.9 2596.5 1809.72 2596.5 1816.9Z" stroke="#173B63" stroke-width="3.4375" stroke-linecap="butt" stroke-linejoin="round" stroke-miterlimit="10" stroke-opacity="1" fill="#173B63" fill-rule="nonzero" fill-opacity="1"/><path d="M2638.5 1816.9C2638.5 1824.08 2632.68 1829.9 2625.5 1829.9 2618.32 1829.9 2612.5 1824.08 2612.5 1816.9 2612.5 1809.72 2618.32 1803.9 2625.5 1803.9 2632.68 1803.9 2638.5 1809.72 2638.5 1816.9Z" stroke="#173B63" stroke-width="3.4375" stroke-linecap="butt" stroke-linejoin="round" stroke-miterlimit="10" stroke-opacity="1" fill="#173B63" fill-rule="nonzero" fill-opacity="1"/><path d="M2681.5 1816.9C2681.5 1824.08 2675.68 1829.9 2668.5 1829.9 2661.32 1829.9 2655.5 1824.08 2655.5 1816.9 2655.5 1809.72 2661.32 1803.9 2668.5 1803.9 2675.68 1803.9 2681.5 1809.72 2681.5 1816.9Z" stroke="#173B63" stroke-width="3.4375" stroke-linecap="butt" stroke-linejoin="round" stroke-miterlimit="10" stroke-opacity="1" fill="#173B63" fill-rule="nonzero" fill-opacity="1"/><path d="M2723.5 1816.9C2723.5 1824.08 2717.68 1829.9 2710.5 1829.9 2703.32 1829.9 2697.5 1824.08 2697.5 1816.9 2697.5 1809.72 2703.32 1803.9 2710.5 1803.9 2717.68 1803.9 2723.5 1809.72 2723.5 1816.9Z" stroke="#173B63" stroke-width="3.4375" stroke-linecap="butt" stroke-linejoin="round" stroke-miterlimit="10" stroke-opacity="1" fill="#173B63" fill-rule="nonzero" fill-opacity="1"/><path d="M2766.5 1816.9C2766.5 1824.08 2760.68 1829.9 2753.5 1829.9 2746.32 1829.9 2740.5 1824.08 2740.5 1816.9 2740.5 1809.72 2746.32 1803.9 2753.5 1803.9 2760.68 1803.9 2766.5 1809.72 2766.5 1816.9Z" stroke="#173B63" stroke-width="3.4375" stroke-linecap="butt" stroke-linejoin="round" stroke-miterlimit="10" stroke-opacity="1" fill="#173B63" fill-rule="nonzero" fill-opacity="1"/><path d="M2808.5 1816.9C2808.5 1824.08 2802.68 1829.9 2795.5 1829.9 2788.32 1829.9 2782.5 1824.08 2782.5 1816.9 2782.5 1809.72 2788.32 1803.9 2795.5 1803.9 2802.68 1803.9 2808.5 1809.72 2808.5 1816.9Z" stroke="#173B63" stroke-width="3.4375" stroke-linecap="butt" stroke-linejoin="round" stroke-miterlimit="10" stroke-opacity="1" fill="#173B63" fill-rule="nonzero" fill-opacity="1"/><path d="M2851.5 1816.9C2851.5 1824.08 2845.68 1829.9 2838.5 1829.9 2831.32 1829.9 2825.5 1824.08 2825.5 1816.9 2825.5 1809.72 2831.32 1803.9 2838.5 1803.9 2845.68 1803.9 2851.5 1809.72 2851.5 1816.9Z" stroke="#173B63" stroke-width="3.4375" stroke-linecap="butt" stroke-linejoin="round" stroke-miterlimit="10" stroke-opacity="1" fill="#173B63" fill-rule="nonzero" fill-opacity="1"/><path d="M2893.5 1816.9C2893.5 1824.08 2887.68 1829.9 2880.5 1829.9 2873.32 1829.9 2867.5 1824.08 2867.5 1816.9 2867.5 1809.72 2873.32 1803.9 2880.5 1803.9 2887.68 1803.9 2893.5 1809.72 2893.5 1816.9Z" stroke="#173B63" stroke-width="3.4375" stroke-linecap="butt" stroke-linejoin="round" stroke-miterlimit="10" stroke-opacity="1" fill="#173B63" fill-rule="nonzero" fill-opacity="1"/><path d="M2936.5 1816.9C2936.5 1824.08 2930.68 1829.9 2923.5 1829.9 2916.32 1829.9 2910.5 1824.08 2910.5 1816.9 2910.5 1809.72 2916.32 1803.9 2923.5 1803.9 2930.68 1803.9 2936.5 1809.72 2936.5 1816.9Z" stroke="#173B63" stroke-width="3.4375" stroke-linecap="butt" stroke-linejoin="round" stroke-miterlimit="10" stroke-opacity="1" fill="#173B63" fill-rule="nonzero" fill-opacity="1"/><path d="M2979.5 1816.9C2979.5 1824.08 2973.68 1829.9 2966.5 1829.9 2959.32 1829.9 2953.5 1824.08 2953.5 1816.9 2953.5 1809.72 2959.32 1803.9 2966.5 1803.9 2973.68 1803.9 2979.5 1809.72 2979.5 1816.9Z" stroke="#173B63" stroke-width="3.4375" stroke-linecap="butt" stroke-linejoin="round" stroke-miterlimit="10" stroke-opacity="1" fill="#173B63" fill-rule="nonzero" fill-opacity="1"/><path d="M3021.5 1816.9C3021.5 1824.08 3015.68 1829.9 3008.5 1829.9 3001.32 1829.9 2995.5 1824.08 2995.5 1816.9 2995.5 1809.72 3001.32 1803.9 3008.5 1803.9 3015.68 1803.9 3021.5 1809.72 3021.5 1816.9Z" stroke="#173B63" stroke-width="3.4375" stroke-linecap="butt" stroke-linejoin="round" stroke-miterlimit="10" stroke-opacity="1" fill="#173B63" fill-rule="nonzero" fill-opacity="1"/><path d="M3064.5 1816.9C3064.5 1824.08 3058.68 1829.9 3051.5 1829.9 3044.32 1829.9 3038.5 1824.08 3038.5 1816.9 3038.5 1809.72 3044.32 1803.9 3051.5 1803.9 3058.68 1803.9 3064.5 1809.72 3064.5 1816.9Z" stroke="#173B63" stroke-width="3.4375" stroke-linecap="butt" stroke-linejoin="round" stroke-miterlimit="10" stroke-opacity="1" fill="#173B63" fill-rule="nonzero" fill-opacity="1"/><path d="M3106.5 1816.9C3106.5 1824.08 3100.68 1829.9 3093.5 1829.9 3086.32 1829.9 3080.5 1824.08 3080.5 1816.9 3080.5 1809.72 3086.32 1803.9 3093.5 1803.9 3100.68 1803.9 3106.5 1809.72 3106.5 1816.9Z" stroke="#173B63" stroke-width="3.4375" stroke-linecap="butt" stroke-linejoin="round" stroke-miterlimit="10" stroke-opacity="1" fill="#173B63" fill-rule="nonzero" fill-opacity="1"/><path d="M3149.5 1816.9C3149.5 1824.08 3143.68 1829.9 3136.5 1829.9 3129.32 1829.9 3123.5 1824.08 3123.5 1816.9 3123.5 1809.72 3129.32 1803.9 3136.5 1803.9 3143.68 1803.9 3149.5 1809.72 3149.5 1816.9Z" stroke="#173B63" stroke-width="3.4375" stroke-linecap="butt" stroke-linejoin="round" stroke-miterlimit="10" stroke-opacity="1" fill="#173B63" fill-rule="nonzero" fill-opacity="1"/><path d="M3191.5 1816.9C3191.5 1824.08 3185.68 1829.9 3178.5 1829.9 3171.32 1829.9 3165.5 1824.08 3165.5 1816.9 3165.5 1809.72 3171.32 1803.9 3178.5 1803.9 3185.68 1803.9 3191.5 1809.72 3191.5 1816.9Z" stroke="#173B63" stroke-width="3.4375" stroke-linecap="butt" stroke-linejoin="round" stroke-miterlimit="10" stroke-opacity="1" fill="#173B63" fill-rule="nonzero" fill-opacity="1"/><path d="M3234.5 1816.9C3234.5 1824.08 3228.68 1829.9 3221.5 1829.9 3214.32 1829.9 3208.5 1824.08 3208.5 1816.9 3208.5 1809.72 3214.32 1803.9 3221.5 1803.9 3228.68 1803.9 3234.5 1809.72 3234.5 1816.9Z" stroke="#173B63" stroke-width="3.4375" stroke-linecap="butt" stroke-linejoin="round" stroke-miterlimit="10" stroke-opacity="1" fill="#173B63" fill-rule="nonzero" fill-opacity="1"/><path d="M3276.5 1816.9C3276.5 1824.08 3270.68 1829.9 3263.5 1829.9 3256.32 1829.9 3250.5 1824.08 3250.5 1816.9 3250.5 1809.72 3256.32 1803.9 3263.5 1803.9 3270.68 1803.9 3276.5 1809.72 3276.5 1816.9Z" stroke="#173B63" stroke-width="3.4375" stroke-linecap="butt" stroke-linejoin="round" stroke-miterlimit="10" stroke-opacity="1" fill="#173B63" fill-rule="nonzero" fill-opacity="1"/><path d="M3319.5 1816.9C3319.5 1824.08 3313.68 1829.9 3306.5 1829.9 3299.32 1829.9 3293.5 1824.08 3293.5 1816.9 3293.5 1809.72 3299.32 1803.9 3306.5 1803.9 3313.68 1803.9 3319.5 1809.72 3319.5 1816.9Z" stroke="#173B63" stroke-width="3.4375" stroke-linecap="butt" stroke-linejoin="round" stroke-miterlimit="10" stroke-opacity="1" fill="#173B63" fill-rule="nonzero" fill-opacity="1"/><path d="M3361.5 1816.9C3361.5 1824.08 3355.68 1829.9 3348.5 1829.9 3341.32 1829.9 3335.5 1824.08 3335.5 1816.9 3335.5 1809.72 3341.32 1803.9 3348.5 1803.9 3355.68 1803.9 3361.5 1809.72 3361.5 1816.9Z" stroke="#173B63" stroke-width="3.4375" stroke-linecap="butt" stroke-linejoin="round" stroke-miterlimit="10" stroke-opacity="1" fill="#173B63" fill-rule="nonzero" fill-opacity="1"/><path d="M3404.5 1816.9C3404.5 1824.08 3398.68 1829.9 3391.5 1829.9 3384.32 1829.9 3378.5 1824.08 3378.5 1816.9 3378.5 1809.72 3384.32 1803.9 3391.5 1803.9 3398.68 1803.9 3404.5 1809.72 3404.5 1816.9Z" stroke="#173B63" stroke-width="3.4375" stroke-linecap="butt" stroke-linejoin="round" stroke-miterlimit="10" stroke-opacity="1" fill="#173B63" fill-rule="nonzero" fill-opacity="1"/><path d="M3446.5 1816.9C3446.5 1824.08 3440.68 1829.9 3433.5 1829.9 3426.32 1829.9 3420.5 1824.08 3420.5 1816.9 3420.5 1809.72 3426.32 1803.9 3433.5 1803.9 3440.68 1803.9 3446.5 1809.72 3446.5 1816.9Z" stroke="#173B63" stroke-width="3.4375" stroke-linecap="butt" stroke-linejoin="round" stroke-miterlimit="10" stroke-opacity="1" fill="#173B63" fill-rule="nonzero" fill-opacity="1"/><path d="M3489.5 1816.9C3489.5 1824.08 3483.68 1829.9 3476.5 1829.9 3469.32 1829.9 3463.5 1824.08 3463.5 1816.9 3463.5 1809.72 3469.32 1803.9 3476.5 1803.9 3483.68 1803.9 3489.5 1809.72 3489.5 1816.9Z" stroke="#173B63" stroke-width="3.4375" stroke-linecap="butt" stroke-linejoin="round" stroke-miterlimit="10" stroke-opacity="1" fill="#173B63" fill-rule="nonzero" fill-opacity="1"/><path d="M3531.5 1816.9C3531.5 1824.08 3525.68 1829.9 3518.5 1829.9 3511.32 1829.9 3505.5 1824.08 3505.5 1816.9 3505.5 1809.72 3511.32 1803.9 3518.5 1803.9 3525.68 1803.9 3531.5 1809.72 3531.5 1816.9Z" stroke="#173B63" stroke-width="3.4375" stroke-linecap="butt" stroke-linejoin="round" stroke-miterlimit="10" stroke-opacity="1" fill="#173B63" fill-rule="nonzero" fill-opacity="1"/><path d="M3574.5 1816.9C3574.5 1824.08 3568.68 1829.9 3561.5 1829.9 3554.32 1829.9 3548.5 1824.08 3548.5 1816.9 3548.5 1809.72 3554.32 1803.9 3561.5 1803.9 3568.68 1803.9 3574.5 1809.72 3574.5 1816.9Z" stroke="#173B63" stroke-width="3.4375" stroke-linecap="butt" stroke-linejoin="round" stroke-miterlimit="10" stroke-opacity="1" fill="#173B63" fill-rule="nonzero" fill-opacity="1"/><path d="M3617.5 1816.9C3617.5 1824.08 3611.68 1829.9 3604.5 1829.9 3597.32 1829.9 3591.5 1824.08 3591.5 1816.9 3591.5 1809.72 3597.32 1803.9 3604.5 1803.9 3611.68 1803.9 3617.5 1809.72 3617.5 1816.9Z" stroke="#173B63" stroke-width="3.4375" stroke-linecap="butt" stroke-linejoin="round" stroke-miterlimit="10" stroke-opacity="1" fill="#173B63" fill-rule="nonzero" fill-opacity="1"/><path d="M3659.5 1816.9C3659.5 1824.08 3653.68 1829.9 3646.5 1829.9 3639.32 1829.9 3633.5 1824.08 3633.5 1816.9 3633.5 1809.72 3639.32 1803.9 3646.5 1803.9 3653.68 1803.9 3659.5 1809.72 3659.5 1816.9Z" stroke="#173B63" stroke-width="3.4375" stroke-linecap="butt" stroke-linejoin="round" stroke-miterlimit="10" stroke-opacity="1" fill="#173B63" fill-rule="nonzero" fill-opacity="1"/><path d="M3702.5 1816.9C3702.5 1824.08 3696.68 1829.9 3689.5 1829.9 3682.32 1829.9 3676.5 1824.08 3676.5 1816.9 3676.5 1809.72 3682.32 1803.9 3689.5 1803.9 3696.68 1803.9 3702.5 1809.72 3702.5 1816.9Z" stroke="#173B63" stroke-width="3.4375" stroke-linecap="butt" stroke-linejoin="round" stroke-miterlimit="10" stroke-opacity="1" fill="#173B63" fill-rule="nonzero" fill-opacity="1"/><path d="M3744.5 1816.9C3744.5 1824.08 3738.68 1829.9 3731.5 1829.9 3724.32 1829.9 3718.5 1824.08 3718.5 1816.9 3718.5 1809.72 3724.32 1803.9 3731.5 1803.9 3738.68 1803.9 3744.5 1809.72 3744.5 1816.9Z" stroke="#173B63" stroke-width="3.4375" stroke-linecap="butt" stroke-linejoin="round" stroke-miterlimit="10" stroke-opacity="1" fill="#173B63" fill-rule="nonzero" fill-opacity="1"/><path d="M3787.5 1816.9C3787.5 1824.08 3781.68 1829.9 3774.5 1829.9 3767.32 1829.9 3761.5 1824.08 3761.5 1816.9 3761.5 1809.72 3767.32 1803.9 3774.5 1803.9 3781.68 1803.9 3787.5 1809.72 3787.5 1816.9Z" stroke="#173B63" stroke-width="3.4375" stroke-linecap="butt" stroke-linejoin="round" stroke-miterlimit="10" stroke-opacity="1" fill="#173B63" fill-rule="nonzero" fill-opacity="1"/><path d="M3829.5 1816.9C3829.5 1824.08 3823.68 1829.9 3816.5 1829.9 3809.32 1829.9 3803.5 1824.08 3803.5 1816.9 3803.5 1809.72 3809.32 1803.9 3816.5 1803.9 3823.68 1803.9 3829.5 1809.72 3829.5 1816.9Z" stroke="#173B63" stroke-width="3.4375" stroke-linecap="butt" stroke-linejoin="round" stroke-miterlimit="10" stroke-opacity="1" fill="#173B63" fill-rule="nonzero" fill-opacity="1"/><path d="M3872.5 1816.9C3872.5 1824.08 3866.68 1829.9 3859.5 1829.9 3852.32 1829.9 3846.5 1824.08 3846.5 1816.9 3846.5 1809.72 3852.32 1803.9 3859.5 1803.9 3866.68 1803.9 3872.5 1809.72 3872.5 1816.9Z" stroke="#173B63" stroke-width="3.4375" stroke-linecap="butt" stroke-linejoin="round" stroke-miterlimit="10" stroke-opacity="1" fill="#173B63" fill-rule="nonzero" fill-opacity="1"/><path d="M3914.5 1816.9C3914.5 1824.08 3908.68 1829.9 3901.5 1829.9 3894.32 1829.9 3888.5 1824.08 3888.5 1816.9 3888.5 1809.72 3894.32 1803.9 3901.5 1803.9 3908.68 1803.9 3914.5 1809.72 3914.5 1816.9Z" stroke="#173B63" stroke-width="3.4375" stroke-linecap="butt" stroke-linejoin="round" stroke-miterlimit="10" stroke-opacity="1" fill="#173B63" fill-rule="nonzero" fill-opacity="1"/><path d="M3957.5 1816.9C3957.5 1824.08 3951.68 1829.9 3944.5 1829.9 3937.32 1829.9 3931.5 1824.08 3931.5 1816.9 3931.5 1809.72 3937.32 1803.9 3944.5 1803.9 3951.68 1803.9 3957.5 1809.72 3957.5 1816.9Z" stroke="#173B63" stroke-width="3.4375" stroke-linecap="butt" stroke-linejoin="round" stroke-miterlimit="10" stroke-opacity="1" fill="#173B63" fill-rule="nonzero" fill-opacity="1"/></g><g><text fill="#000000" fill-opacity="1" font-family="Arial,Arial_MSFontService,sans-serif" font-style="normal" font-variant="normal" font-weight="400" font-stretch="normal" font-size="64" text-anchor="start" direction="ltr" writing-mode="lr-tb" unicode-bidi="normal" text-decoration="none" transform="matrix(1 0 0 1 355.663 1988)">-0.1</text></g><g><text fill="#000000" fill-opacity="1" font-family="Arial,Arial_MSFontService,sans-serif" font-style="normal" font-variant="normal" font-weight="400" font-stretch="normal" font-size="64" text-anchor="start" direction="ltr" writing-mode="lr-tb" unicode-bidi="normal" text-decoration="none" transform="matrix(1 0 0 1 377.021 1686)">0.1</text></g><g><text fill="#000000" fill-opacity="1" font-family="Arial,Arial_MSFontService,sans-serif" font-style="normal" font-variant="normal" font-weight="400" font-stretch="normal" font-size="64" text-anchor="start" direction="ltr" writing-mode="lr-tb" unicode-bidi="normal" text-decoration="none" transform="matrix(1 0 0 1 377.021 1384)">0.3</text></g><g><text fill="#000000" fill-opacity="1" font-family="Arial,Arial_MSFontService,sans-serif" font-style="normal" font-variant="normal" font-weight="400" font-stretch="normal" font-size="64" text-anchor="start" direction="ltr" writing-mode="lr-tb" unicode-bidi="normal" text-decoration="none" transform="matrix(1 0 0 1 377.021 1082)">0.5</text></g><g><text fill="#000000" fill-opacity="1" font-family="Arial,Arial_MSFontService,sans-serif" font-style="normal" font-variant="normal" font-weight="400" font-stretch="normal" font-size="64" text-anchor="start" direction="ltr" writing-mode="lr-tb" unicode-bidi="normal" text-decoration="none" transform="matrix(1 0 0 1 377.021 780)">0.7</text></g><g><text fill="#000000" fill-opacity="1" font-family="Arial,Arial_MSFontService,sans-serif" font-style="normal" font-variant="normal" font-weight="400" font-stretch="normal" font-size="64" text-anchor="start" direction="ltr" writing-mode="lr-tb" unicode-bidi="normal" text-decoration="none" transform="matrix(1 0 0 1 377.021 477)">0.9</text></g><g><text fill="#000000" fill-opacity="1" font-family="Arial,Arial_MSFontService,sans-serif" font-style="normal" font-variant="normal" font-weight="400" font-stretch="normal" font-size="55" text-anchor="start" direction="ltr" writing-mode="lr-tb" unicode-bidi="normal" text-decoration="none" transform="matrix(1 0 0 1 504.43 2052)">0.0</text></g><g><text fill="#000000" fill-opacity="1" font-family="Arial,Arial_MSFontService,sans-serif" font-style="normal" font-variant="normal" font-weight="400" font-stretch="normal" font-size="55" text-anchor="start" direction="ltr" writing-mode="lr-tb" unicode-bidi="normal" text-decoration="none" transform="matrix(1 0 0 1 929.763 2052)">1.0</text></g><g><text fill="#000000" fill-opacity="1" font-family="Arial,Arial_MSFontService,sans-serif" font-style="normal" font-variant="normal" font-weight="400" font-stretch="normal" font-size="55" text-anchor="start" direction="ltr" writing-mode="lr-tb" unicode-bidi="normal" text-decoration="none" transform="matrix(1 0 0 1 1355.1 2052)">2.0</text></g><g><text fill="#000000" fill-opacity="1" font-family="Arial,Arial_MSFontService,sans-serif" font-style="normal" font-variant="normal" font-weight="400" font-stretch="normal" font-size="55" text-anchor="start" direction="ltr" writing-mode="lr-tb" unicode-bidi="normal" text-decoration="none" transform="matrix(1 0 0 1 1780.43 2052)">3.0</text></g><g><text fill="#000000" fill-opacity="1" font-family="Arial,Arial_MSFontService,sans-serif" font-style="normal" font-variant="normal" font-weight="400" font-stretch="normal" font-size="55" text-anchor="start" direction="ltr" writing-mode="lr-tb" unicode-bidi="normal" text-decoration="none" transform="matrix(1 0 0 1 2205.76 2052)">4.0</text></g><g><text fill="#000000" fill-opacity="1" font-family="Arial,Arial_MSFontService,sans-serif" font-style="normal" font-variant="normal" font-weight="400" font-stretch="normal" font-size="55" text-anchor="start" direction="ltr" writing-mode="lr-tb" unicode-bidi="normal" text-decoration="none" transform="matrix(1 0 0 1 2631.1 2052)">5.0</text></g><g><text fill="#000000" fill-opacity="1" font-family="Arial,Arial_MSFontService,sans-serif" font-style="normal" font-variant="normal" font-weight="400" font-stretch="normal" font-size="55" text-anchor="start" direction="ltr" writing-mode="lr-tb" unicode-bidi="normal" text-decoration="none" transform="matrix(1 0 0 1 3056.43 2052)">6.0</text></g><g><text fill="#000000" fill-opacity="1" font-family="Arial,Arial_MSFontService,sans-serif" font-style="normal" font-variant="normal" font-weight="400" font-stretch="normal" font-size="55" text-anchor="start" direction="ltr" writing-mode="lr-tb" unicode-bidi="normal" text-decoration="none" transform="matrix(1 0 0 1 3481.76 2052)">7.0</text></g><g><text fill="#000000" fill-opacity="1" font-family="Arial,Arial_MSFontService,sans-serif" font-style="normal" font-variant="normal" font-weight="400" font-stretch="normal" font-size="55" text-anchor="start" direction="ltr" writing-mode="lr-tb" unicode-bidi="normal" text-decoration="none" transform="matrix(1 0 0 1 3907.1 2052)">8.0</text></g><g><path d="M2794 1149 2882 1149" stroke="#B04450" stroke-width="13.75" stroke-linecap="butt" stroke-linejoin="round" stroke-miterlimit="10" stroke-opacity="1" fill="none" fill-rule="evenodd"/></g><g><path d="M2851 1148.5C2851 1155.41 2845.18 1161.02 2838 1161.02 2830.82 1161.02 2825 1155.41 2825 1148.5 2825 1141.59 2830.82 1135.98 2838 1135.98 2845.18 1135.98 2851 1141.59 2851 1148.5Z" stroke="#B04450" stroke-width="3.4375" stroke-linecap="butt" stroke-linejoin="round" stroke-miterlimit="10" stroke-opacity="1" fill="#B04450" fill-rule="nonzero" fill-opacity="1"/></g><g><text fill="#000000" fill-opacity="1" font-family="Arial,Arial_MSFontService,sans-serif" font-style="normal" font-variant="normal" font-weight="400" font-stretch="normal" font-size="69" text-anchor="start" direction="ltr" writing-mode="lr-tb" unicode-bidi="normal" text-decoration="none" transform="matrix(1 0 0 1 2891.6 1170)">Sequential plant, then controller</text></g><g><path d="M2794 1253 2882 1253" stroke="#173B63" stroke-width="13.75" stroke-linecap="butt" stroke-linejoin="round" stroke-miterlimit="10" stroke-opacity="1" fill="none" fill-rule="evenodd"/></g><g><path d="M2851 1252C2851 1259.18 2845.18 1265 2838 1265 2830.82 1265 2825 1259.18 2825 1252 2825 1244.82 2830.82 1239 2838 1239 2845.18 1239 2851 1244.82 2851 1252Z" stroke="#173B63" stroke-width="3.4375" stroke-linecap="butt" stroke-linejoin="round" stroke-miterlimit="10" stroke-opacity="1" fill="#173B63" fill-rule="nonzero" fill-opacity="1"/></g><g><text fill="#000000" fill-opacity="1" font-family="Arial,Arial_MSFontService,sans-serif" font-style="normal" font-variant="normal" font-weight="400" font-stretch="normal" font-size="69" text-anchor="start" direction="ltr" writing-mode="lr-tb" unicode-bidi="normal" text-decoration="none" transform="matrix(1 0 0 1 2891.6 1273)">Control co-design</text></g><text fill="#173B63" fill-opacity="1" font-family="Arial,Arial_MSFontService,sans-serif" font-style="normal" font-variant="normal" font-weight="700" font-stretch="normal" font-size="83" text-anchor="start" direction="ltr" writing-mode="lr-tb" unicode-bidi="normal" text-decoration="none" transform="matrix(1 0 0 1 2844.6 380)">Objective reduction: 17.0%</text></g></g></svg>