<svg width="4002" height="2172" xmlns="http://www.w3.org/2000/svg" xmlns:xlink="http://www.w3.org/1999/xlink" xml:space="preserve" overflow="hidden"><g transform="translate(-210 -160)"><g><path d="M215.5 191.886C215.5 177.314 227.314 165.5 241.887 165.5L2086.11 165.5C2100.69 165.5 2112.5 177.314 2112.5 191.886L2112.5 2301.11C2112.5 2315.69 2100.69 2327.5 2086.11 2327.5L241.887 2327.5C227.314 2327.5 215.5 2315.69 215.5 2301.11Z" stroke="#C9D3DF" stroke-width="6.875" stroke-linecap="butt" stroke-linejoin="round" stroke-miterlimit="10" stroke-opacity="1" fill="#FFFFFF" fill-rule="evenodd" fill-opacity="0"/><path d="M2310.5 191.901C2310.5 177.32 2322.32 165.5 2336.9 165.5L4182.04 165.5C4196.62 165.5 4208.44 177.32 4208.44 191.901L4208.44 2301.1C4208.44 2315.68 4196.62 2327.5 4182.04 2327.5L2336.9 2327.5C2322.32 2327.5 2310.5 2315.68 2310.5 2301.1Z" stroke="#C9D3DF" stroke-width="6.875" stroke-linecap="butt" stroke-linejoin="round" stroke-miterlimit="10" stroke-opacity="1" fill="#FFFFFF" fill-rule="evenodd" fill-opacity="0"/><text fill="#123C63" fill-opacity="1" font-family="Aptos Display,Aptos Display_MSFontService,sans-serif" font-style="normal" font-variant="normal" font-weight="700" font-stretch="normal" font-size="115" text-anchor="start" direction="ltr" writing-mode="lr-tb" unicode-bidi="normal" text-decoration="none" transform="matrix(1 0 0 1 730.411 347)">Sequential design</text><text fill="#123C63" fill-opacity="1" font-family="Aptos Display,Aptos Display_MSFontService,sans-serif" font-style="normal" font-variant="normal" font-weight="700" font-stretch="normal" font-size="115" text-anchor="start" direction="ltr" writing-mode="lr-tb" unicode-bidi="normal" text-decoration="none" transform="matrix(1 0 0 1 2822.92 347)">Control co</text><text fill="#123C63" fill-opacity="1" font-family="Aptos Display,Aptos Display_MSFontService,sans-serif" font-style="normal" font-variant="normal" font-weight="700" font-stretch="normal" font-size="115" text-anchor="start" direction="ltr" writing-mode="lr-tb" unicode-bidi="normal" text-decoration="none" transform="matrix(1 0 0 1 3333.64 347)">-</text><text fill="#123C63" fill-opacity="1" font-family="Aptos Display,Aptos Display_MSFontService,sans-serif" font-style="normal" font-variant="normal" font-weight="700" font-stretch="normal" font-size="115" text-anchor="start" direction="ltr" writing-mode="lr-tb" unicode-bidi="normal" text-decoration="none" transform="matrix(1 0 0 1 3375.46 347)">design</text><path d="M380 538.401C380 523.82 391.82 512 406.401 512L1920.6 512C1935.18 512 1947 523.82 1947 538.401L1947 782.599C1947 797.18 1935.18 809 1920.6 809L406.401 809C391.82 809 380 797.18 380 782.599Z" stroke="#123C63" stroke-width="10.0833" stroke-linecap="butt" stroke-linejoin="round" stroke-miterlimit="10" stroke-opacity="1" fill="#DCE8F4" fill-rule="evenodd" fill-opacity="1"/><text fill="#1F2937" fill-opacity="1" font-family="Aptos,Aptos_MSFontService,sans-serif" font-style="normal" font-variant="normal" font-weight="400" font-stretch="normal" font-size="92" text-anchor="start" direction="ltr" writing-mode="lr-tb" unicode-bidi="normal" text-decoration="none" transform="matrix(1 0 0 1 794.578 690)">1. Design the plant</text><path d="M380.5 983.901C380.5 969.32 392.32 957.5 406.901 957.5L1921.1 957.5C1935.68 957.5 1947.5 969.32 1947.5 983.901L1947.5 1228.1C1947.5 1242.68 1935.68 1254.5 1921.1 1254.5L406.901 1254.5C392.32 1254.5 380.5 1242.68 380.5 1228.1Z" stroke="#5F6876" stroke-width="9.16667" stroke-linecap="butt" stroke-linejoin="round" stroke-miterlimit="10" stroke-opacity="1" fill="#F6F7F9" fill-rule="evenodd" fill-opacity="1"/><text fill="#1F2937" fill-opacity="1" font-family="Aptos,Aptos_MSFontService,sans-serif" font-style="normal" font-variant="normal" font-weight="400" font-stretch="normal" font-size="92" text-anchor="start" direction="ltr" writing-mode="lr-tb" unicode-bidi="normal" text-decoration="none" transform="matrix(1 0 0 1 801.522 1135)">2. Freeze the plant</text><path d="M380 1429.4C380 1414.82 391.82 1403 406.401 1403L1920.6 1403C1935.18 1403 1947 1414.82 1947 1429.4L1947 1673.6C1947 1688.18 1935.18 1700 1920.6 1700L406.401 1700C391.82 1700 380 1688.18 380 1673.6Z" stroke="#D97706" stroke-width="10.0833" stroke-linecap="butt" stroke-linejoin="round" stroke-miterlimit="10" stroke-opacity="1" fill="#FFF2DD" fill-rule="evenodd" fill-opacity="1"/><text fill="#1F2937" fill-opacity="1" font-family="Aptos,Aptos_MSFontService,sans-serif" font-style="normal" font-variant="normal" font-weight="400" font-stretch="normal" font-size="92" text-anchor="start" direction="ltr" writing-mode="lr-tb" unicode-bidi="normal" text-decoration="none" transform="matrix(1 0 0 1 703.828 1581)">3. Design the controller</text><path d="M347.5 1881.87C347.5 1867.3 359.305 1855.5 373.867 1855.5L1954.13 1855.5C1968.7 1855.5 1980.5 1867.3 1980.5 1881.87L1980.5 2152.13C1980.5 2166.7 1968.7 2178.5 1954.13 2178.5L373.867 2178.5C359.305 2178.5 347.5 2166.7 347.5 2152.13Z" stroke="#5F6876" stroke-width="6.875" stroke-linecap="butt" stroke-linejoin="round" stroke-miterlimit="10" stroke-opacity="1" fill="#FFFFFF" fill-rule="evenodd" fill-opacity="0"/><text fill="#5F6876" fill-opacity="1" font-family="Aptos,Aptos_MSFontService,sans-serif" font-style="normal" font-variant="normal" font-weight="400" font-stretch="normal" font-size="70" text-anchor="start" direction="ltr" writing-mode="lr-tb" unicode-bidi="normal" text-decoration="none" transform="matrix(1 0 0 1 653.973 1997)">The final controller acts on a plant</text><text fill="#5F6876" fill-opacity="1" font-family="Aptos,Aptos_MSFontService,sans-serif" font-style="normal" font-variant="normal" font-weight="400" font-stretch="normal" font-size="70" text-anchor="start" direction="ltr" writing-mode="lr-tb" unicode-bidi="normal" text-decoration="none" transform="matrix(1 0 0 1 372.212 2081)">that was optimized for an earlier control assumption.</text><path d="M28.6458-5.72913 245.354-5.72884 245.354 5.72949 28.6457 5.7292ZM34.375 17.1875 0 0 34.375-17.1875ZM239.625-17.1872 274 0.000360892 239.625 17.1878Z" fill="#2E8B57" fill-rule="nonzero" fill-opacity="1" transform="matrix(1 0 0 -1 3132.5 831.5)"/><path d="M2414 637.37C2414 622.806 2425.81 611 2440.37 611L3096.63 611C3111.19 611 3123 622.806 3123 637.37L3123 1029.63C3123 1044.19 3111.19 1056 3096.63 1056L2440.37 1056C2425.81 1056 2414 1044.19 2414 1029.63Z" stroke="#123C63" stroke-width="10.0833" stroke-linecap="butt" stroke-linejoin="round" stroke-miterlimit="10" stroke-opacity="1" fill="#DCE8F4" fill-rule="evenodd" fill-opacity="1"/><text fill="#1F2937" fill-opacity="1" font-family="Aptos,Aptos_MSFontService,sans-serif" font-style="normal" font-variant="normal" font-weight="700" font-stretch="normal" font-size="92" text-anchor="start" direction="ltr" writing-mode="lr-tb" unicode-bidi="normal" text-decoration="none" transform="matrix(1 0 0 1 2499.44 863)">Plant design</text><path d="M3420 637.371C3420 622.806 3431.81 611 3446.37 611L4126.63 611C4141.19 611 4153 622.806 4153 637.371L4153 1029.63C4153 1044.19 4141.19 1056 4126.63 1056L3446.37 1056C3431.81 1056 3420 1044.19 3420 1029.63Z" stroke="#D97706" stroke-width="10.0833" stroke-linecap="butt" stroke-linejoin="round" stroke-miterlimit="10" stroke-opacity="1" fill="#FFF2DD" fill-rule="evenodd" fill-opacity="1"/><text fill="#1F2937" fill-opacity="1" font-family="Aptos,Aptos_MSFontService,sans-serif" font-style="normal" font-variant="normal" font-weight="700" font-stretch="normal" font-size="92" text-anchor="start" direction="ltr" writing-mode="lr-tb" unicode-bidi="normal" text-decoration="none" transform="matrix(1 0 0 1 3480.57 863)">Control design</text><path d="M2414 1099.76C2414 1086.64 2424.64 1076 2437.76 1076L4129.24 1076C4142.36 1076 4153 1086.64 4153 1099.76L4153 1349.24C4153 1362.36 4142.36 1373 4129.24 1373L2437.76 1373C2424.64 1373 2414 1362.36 2414 1349.24Z" stroke="#2E8B57" stroke-width="9.625" stroke-linecap="butt" stroke-linejoin="round" stroke-miterlimit="10" stroke-opacity="1" fill="#EEF8F1" fill-rule="evenodd" fill-opacity="1"/><text fill="#1F2937" fill-opacity="1" font-family="Aptos,Aptos_MSFontService,sans-serif" font-style="normal" font-variant="normal" font-weight="400" font-stretch="normal" font-size="85" text-anchor="start" direction="ltr" writing-mode="lr-tb" unicode-bidi="normal" text-decoration="none" transform="matrix(1 0 0 1 2733.58 1206)">Shared dynamics, objectives,</text><text fill="#1F2937" fill-opacity="1" font-family="Aptos,Aptos_MSFontService,sans-serif" font-style="normal" font-variant="normal" font-weight="400" font-stretch="normal" font-size="85" text-anchor="start" direction="ltr" writing-mode="lr-tb" unicode-bidi="normal" text-decoration="none" transform="matrix(1 0 0 1 2984.01 1308)">and constraints</text><path d="M2414.5 1437.94C2414.5 1423.34 2426.34 1411.5 2440.94 1411.5L4127.06 1411.5C4141.66 1411.5 4153.5 1423.34 4153.5 1437.94L4153.5 1623.06C4153.5 1637.66 4141.66 1649.5 4127.06 1649.5L2440.94 1649.5C2426.34 1649.5 2414.5 1637.66 2414.5 1623.06Z" stroke="#5F6876" stroke-width="6.875" stroke-linecap="butt" stroke-linejoin="round" stroke-miterlimit="10" stroke-opacity="1" fill="#FFFFFF" fill-rule="evenodd" fill-opacity="0"/><text fill="#5F6876" fill-opacity="1" font-family="Aptos,Aptos_MSFontService,sans-serif" font-style="normal" font-variant="normal" font-weight="400" font-stretch="normal" font-size="60" text-anchor="start" direction="ltr" writing-mode="lr-tb" unicode-bidi="normal" text-decoration="none" transform="matrix(1 0 0 1 2601.16 1530)">The design variables are selected for the performance</text><text fill="#5F6876" fill-opacity="1" font-family="Aptos,Aptos_MSFontService,sans-serif" font-style="normal" font-variant="normal" font-weight="400" font-stretch="normal" font-size="60" text-anchor="start" direction="ltr" writing-mode="lr-tb" unicode-bidi="normal" text-decoration="none" transform="matrix(1 0 0 1 2977.47 1601)">of the complete system.</text><path d="M1168.16 834.781 1168.16 931.719 1157.84 931.719 1157.84 834.781ZM1147.53 839.937 1163 809 1178.47 839.937ZM1178.47 926.562 1163 957.5 1147.53 926.562Z" fill="#4472C4" fill-rule="nonzero" fill-opacity="1"/><path d="M1168.16 1279.78 1168.16 1376.72 1157.84 1376.72 1157.84 1279.78ZM1147.53 1284.94 1163 1254 1178.47 1284.94ZM1178.47 1371.56 1163 1402.5 1147.53 1371.56Z" fill="#4472C4" fill-rule="nonzero" fill-opacity="1"/></g></g></svg>